G04 ================== begin FILE IDENTIFICATION RECORD ==================*
G04 Layout Name:  LAUNCHXL-CC1352R1.brd*
G04 Film Name:    LAUNCHXL-CC1352R1_Layer2*
G04 File Format:  Gerber RS274X*
G04 File Origin:  Cadence Allegro 17.2-S041*
G04 Origin Date:  Thu Oct 25 19:57:46 2018*
G04 *
G04 Layer:  BOARD GEOMETRY/LAYER2*
G04 Layer:  DRAWING FORMAT/TITLE_BLOCK*
G04 Layer:  BOARD GEOMETRY/OUTLINE*
G04 Layer:  ETCH/L2*
G04 Layer:  PIN/L2*
G04 Layer:  VIA CLASS/L2*
G04 *
G04 Offset:    (0.000 0.000)*
G04 Mirror:    No*
G04 Mode:      Positive*
G04 Rotation:  0*
G04 FullContactRelief:  No*
G04 UndefLineWidth:     0.020*
G04 ================== end FILE IDENTIFICATION RECORD ====================*
%FSLAX25Y25*MOIN*%
%IR0*IPPOS*OFA0.00000B0.00000*MIA0B0*SFA1.00000B1.00000*%
%ADD10C,.149606*%
%ADD11C,.064961*%
%ADD14C,.003898*%
%ADD13C,.06689*%
%ADD16O,.055118X.082677*%
%ADD15C,.003937*%
%ADD12C,.015748*%
%ADD17C,.019685*%
%ADD18C,.000787*%
%ADD19C,.005906*%
%ADD20C,.007087*%
%ADD25C,.078898*%
%ADD23C,.052126*%
%ADD24C,.056063*%
%ADD22C,.076929*%
%ADD21C,.024567*%
G75*
%LPD*%
G75*
G36*
G01X851776Y1162201D02*
G02X852169Y1162594I394J0D01*
G01X1012157D01*
G02X1015941Y1158811I0J-3783D01*
G01Y1156122D01*
G02X1015547Y1155728I-394J0D01*
G01X1014677D01*
G02X1014323Y1155949I-1J394D01*
G03X1007087Y1160441I-7236J-3582D01*
G03Y1144283I0J-8079D01*
G03X1014362Y1148846I0J8082D01*
G01X1014390Y1148902D01*
X1014508Y1149031D01*
G02X1014587Y1149098I292J-264D01*
G01X1014654Y1149142D01*
G02X1014949Y1149197I214J-330D01*
G01X1015630Y1149051D01*
G02X1015941Y1148665I-83J-385D01*
G01Y1014169D01*
G02X1012039Y1003000I-17950J4D01*
G03X1008480Y996528I17132J-13635D01*
G01Y996524D01*
X1008449Y996437D01*
X1008280Y996268D01*
G02X1008130Y996173I-280J277D01*
G01X1007780Y996051D01*
G02X1007650Y996028I-134J370D01*
G01X1007394D01*
G02X1007201Y996079I1J394D01*
G03X1005913Y996421I-1292J-2267D01*
G01X1005906D01*
G03Y991209I0J-2606D01*
G03X1006374Y991252I-5J2606D01*
G02X1006705Y991161I72J-387D01*
G01X1007173Y990752D01*
G02X1007307Y990457I-260J-296D01*
G01Y990346D01*
G03X1007315Y988146I21868J-1022D01*
G02X1007181Y987827I-393J-23D01*
G01X1006720Y987421D01*
G02X1006461Y987323I-260J295D01*
G01X1006370D01*
X1006335Y987327D01*
G03X1005906Y987366I-452J-2565D01*
G03Y982154I0J-2606D01*
G01X1005909D01*
G03X1007197Y982496I-4J2607D01*
G01X1007287Y982547D01*
X1007327Y982571D01*
X1007417Y982602D01*
G02X1007681Y982606I137J-368D01*
G01X1008260Y982406D01*
G02X1008504Y982161I-128J-372D01*
G03X1012039Y975740I20675J7200D01*
G02X1015941Y964571I-14048J-11173D01*
G01Y797835D01*
G02X1015547Y797441I-394J0D01*
G01X789965D01*
G02X789571Y797835I0J394D01*
G01Y964571D01*
G02X793472Y975740I17950J-4D01*
G03X796949Y982051I-17168J13570D01*
G01X796980Y982138D01*
X797185Y982343D01*
G02X797319Y982433I283J-274D01*
G01X797764Y982606D01*
G02X797988Y982626I145J-365D01*
G01X798169Y982591D01*
X798224Y982559D01*
G03X799508Y982220I1284J2267D01*
G03Y987433I0J2606D01*
G03X799114Y987402I10J-2605D01*
G02X798787Y987500I-61J389D01*
G01X798331Y987913D01*
G02X798201Y988228I263J293D01*
G03X798205Y990402I-21864J1126D01*
G01Y990504D01*
G02X798335Y990795I394J-1D01*
G01X798791Y991209D01*
G02X799118Y991307I266J-291D01*
G03X799508Y991276I404J2574D01*
G03Y996488I0J2606D01*
G03X798177Y996122I0J-2601D01*
G02X797839Y996091I-202J338D01*
G01X797343Y996272D01*
G02X797197Y996366I136J369D01*
G01X797028Y996539D01*
X796996Y996622D01*
Y996626D01*
G03X793472Y1003000I-20657J-7258D01*
G02X789571Y1014169I14048J11173D01*
G01Y1146768D01*
G02X789831Y1147138I394J0D01*
G01X790531Y1147390D01*
G02X790941Y1147299I133J-371D01*
G01X790988Y1147252D01*
X791000Y1147236D01*
G03X797244Y1144283I6244J5126D01*
G03Y1160441I0J8079D01*
G03X791004Y1157492I0J-8077D01*
G01X790992Y1157476D01*
X790941Y1157425D01*
G02X790531Y1157335I-277J280D01*
G01X789831Y1157587D01*
G02X789571Y1157957I134J370D01*
G01Y1158811D01*
G02X793354Y1162594I3783J0D01*
G01X812791D01*
G02X813185Y1162201I0J-394D01*
G01Y1158866D01*
G02X812791Y1158472I-394J0D01*
G01X812591D01*
G03X812197Y1158079I0J-394D01*
G01Y1147039D01*
G03X812591Y1146646I394J0D01*
G01X825150D01*
G02X825433Y1146524I-1J-394D01*
G01X825827Y1146114D01*
G02X825937Y1145843I-283J-273D01*
G01Y1145776D01*
G03X827165Y1144547I1228J0D01*
G03X827906Y1144795I0J1228D01*
G02X828157Y1144874I237J-315D01*
G01X828665Y1144854D01*
G02X828909Y1144756I-17J-394D01*
G01Y1144752D01*
G03X829724Y1144441I818J920D01*
G01X829728D01*
G03X830461Y1144685I-2J1227D01*
G01X830508Y1144720D01*
X830693Y1144783D01*
G02X830823Y1144807I134J-370D01*
G01X831185D01*
G02X831315Y1144783I-4J-393D01*
G01X831500Y1144720D01*
X831547Y1144685D01*
G03X832280Y1144441I735J983D01*
G01X832283D01*
G03X833512Y1145665I0J1228D01*
G01Y1145677D01*
X833508Y1145701D01*
Y1145823D01*
G02X833610Y1146087I394J-1D01*
G01X834008Y1146520D01*
G02X834295Y1146646I289J-268D01*
G01X851976D01*
G03X852370Y1147039I0J394D01*
G01Y1157882D01*
G03X852075Y1158264I-395J0D01*
G01X852071D01*
G02X851776Y1158646I99J381D01*
G01Y1162201D01*
G37*
G36*
G01X813189Y1157874D02*
X818898D01*
G02X819291Y1157480I0J-394D01*
G01Y1149803D01*
G03X819685Y1149409I394J0D01*
G01X826772D01*
G03X827165Y1149803I0J394D01*
G01Y1155906D01*
G02X827559Y1156299I394J0D01*
G01X837398D01*
G02X837791Y1155906I0J-394D01*
G01Y1149606D01*
G03X838185Y1149213I394J0D01*
G01X845276D01*
G03X845669Y1149606I0J394D01*
G01Y1157283D01*
G02X846063Y1157677I394J0D01*
G01X851378D01*
G02X851772Y1157283I0J-394D01*
G01Y1147638D01*
G02X851378Y1147244I-394J0D01*
G01X835169D01*
G03X835039Y1147252I-149J-1377D01*
G03X834909Y1147244I19J-1385D01*
G01X813189D01*
G02X812795Y1147638I0J394D01*
G01Y1157480D01*
G02X813189Y1157874I394J0D01*
G37*
%LPC*%
G75*
G36*
G01X872772Y1107661D02*
G02X872047Y1109882I-724J992D01*
G02X872772Y1109646I0J-1229D01*
G03X873004Y1109571I231J318D01*
G01X873256D01*
G03X873488Y1109646I2J393D01*
G02X874213Y1109882I724J-993D01*
G02X875433Y1108807I0J-1230D01*
G01Y1108803D01*
G03X875575Y1108547I390J49D01*
G01X876000Y1108201D01*
G03X876280Y1108114I248J306D01*
G02X876378Y1108118I98J-1228D01*
G02X877606Y1106890I0J-1228D01*
G02X877417Y1106232I-1229J-3D01*
G03X877354Y1106024I330J-214D01*
G01Y1105787D01*
G03X877417Y1105579I393J5D01*
G02X877606Y1104921I-1040J-655D01*
G02X875150I-1228J0D01*
G02X875339Y1105579I1229J3D01*
G03X875402Y1105787I-330J214D01*
G01Y1106024D01*
G03X875339Y1106232I-393J-5D01*
G02X875157Y1106736I1039J658D01*
G01Y1106740D01*
G03X875016Y1106996I-390J-49D01*
G01X874591Y1107343D01*
G03X874311Y1107429I-248J-306D01*
G02X874213Y1107425I-98J1228D01*
G02X873488Y1107661I0J1229D01*
G03X873256Y1107736I-231J-318D01*
G01X873004D01*
G03X872772Y1107661I-2J-393D01*
G37*
G36*
G01X800437Y1096024D02*
G02X800591Y1098472I154J1220D01*
G02X801819Y1097264I0J-1229D01*
G03X802512Y1096492I790J13D01*
G02X803587Y1095272I-156J-1220D01*
G02X802358Y1094043I-1228J0D01*
G02X801130Y1095252I0J1229D01*
G03X800437Y1096024I-790J-13D01*
G37*
G36*
G01X837063Y1093508D02*
Y1093512D01*
G02X838291Y1094732I1228J-8D01*
G02X838496Y1094717I8J-1229D01*
G03X838768Y1094768I68J387D01*
G01X839209Y1095039D01*
G03X839382Y1095256I-201J338D01*
G02X840551Y1096110I1169J-373D01*
G02Y1093654I0J-1228D01*
G02X840346Y1093669I-8J1229D01*
G03X840075Y1093618I-68J-387D01*
G01X839634Y1093346D01*
G03X839461Y1093130I201J-338D01*
G02X838500Y1092295I-1169J375D01*
G01Y1092291D01*
G03X838264Y1092161I60J-389D01*
G01X837937Y1091772D01*
G03X837843Y1091520I299J-256D01*
G01Y1091516D01*
G02X836614Y1090295I-1228J8D01*
G02X835386Y1091524I0J1228D01*
G02X836406Y1092732I1226J0D01*
G01Y1092736D01*
G03X836642Y1092866I-60J389D01*
G01X836969Y1093256D01*
G03X837063Y1093508I-299J256D01*
G37*
G36*
G01X816000Y1093441D02*
G02X815354Y1093260I-642J1048D01*
G02Y1095717I0J1228D01*
G02X816445Y1095055I0J-1230D01*
G03X816689Y1094858I348J182D01*
G01X817248Y1094701D01*
G03X817559Y1094748I101J380D01*
G02X818205Y1094929I642J-1048D01*
G02X818965Y1094665I0J-1226D01*
G03X819209Y1094579I247J308D01*
G01X819469D01*
G03X819713Y1094665I-3J394D01*
G02X820472Y1094929I760J-963D01*
G02Y1092472I0J-1228D01*
G02X819713Y1092736I0J1226D01*
G03X819469Y1092823I-247J-308D01*
G01X819209D01*
G03X818965Y1092736I3J-394D01*
G02X818205Y1092472I-760J963D01*
G02X817114Y1093134I0J1230D01*
G03X816870Y1093331I-348J-182D01*
G01X816311Y1093488D01*
G03X816000Y1093441I-101J-380D01*
G37*
G36*
G01X879291Y1043638D02*
G02X878154Y1045327I-1138J461D01*
G02X878661Y1045217I0J-1225D01*
G03X879724Y1045638I330J720D01*
G02X880862Y1046406I1138J-459D01*
G02Y1043949I0J-1228D01*
G02X880354Y1044059I0J1225D01*
G03X879291Y1043638I-330J-720D01*
G37*
G36*
G01X878043Y1038146D02*
G02X879378Y1039370I106J1224D01*
G02X879331Y1039039I-1227J7D01*
G03X880028Y1038035I762J-215D01*
G02X881150Y1036811I-107J-1224D01*
G02X878693I-1228J0D01*
G02X878740Y1037142I1227J-7D01*
G03X878043Y1038146I-762J215D01*
G37*
G36*
G01X915563Y1039732D02*
G02X916339Y1040008I776J-954D01*
G02X917173Y1039681I0J-1229D01*
G03X917445Y1039575I269J287D01*
G01X917984D01*
G03X918252Y1039681I-2J394D01*
G02X919094Y1040016I843J-893D01*
G02Y1037559I0J-1228D01*
G02X918260Y1037886I0J1229D01*
G03X917988Y1037992I-269J-287D01*
G01X917449D01*
G03X917181Y1037886I2J-394D01*
G02X916339Y1037551I-843J893D01*
G02X915559Y1037831I0J1227D01*
G01X915555D01*
G03X915307Y1037921I-251J-302D01*
G01X914803Y1037925D01*
G03X914555Y1037835I3J-394D01*
G02X913780Y1037559I-776J954D01*
G02X913063Y1037791I2J1228D01*
G01X913059D01*
G03X912831Y1037866I-231J-319D01*
G01X912366D01*
G03X912138Y1037791I2J-394D01*
G01X912134D01*
G02X911417Y1037559I-719J995D01*
G02Y1040016I0J1228D01*
G02X912134Y1039783I-2J-1228D01*
G01X912138D01*
G03X912366Y1039709I231J319D01*
G01X912831D01*
G03X913059Y1039783I-2J394D01*
G01X913063D01*
G02X913780Y1040016I719J-995D01*
G02X914559Y1039736I0J-1227D01*
G01X914563D01*
G03X914811Y1039646I251J302D01*
G01X915315Y1039642D01*
G03X915563Y1039732I-3J394D01*
G37*
G36*
G01X901110Y1030146D02*
G02X903106Y1031102I769J957D01*
G02X902646Y1030146I-1224J0D01*
G03Y1028909I497J-618D01*
G02X903106Y1027953I-763J-957D01*
G02X900650I-1228J0D01*
G02X901110Y1028909I1224J0D01*
G03Y1030146I-497J618D01*
G37*
G36*
G01X885362D02*
G02X887358Y1031102I769J957D01*
G02X886898Y1030146I-1224J0D01*
G03Y1028909I497J-618D01*
G02X887358Y1027953I-763J-957D01*
G02X884902I-1228J0D01*
G02X885362Y1028909I1224J0D01*
G03Y1030146I-497J618D01*
G37*
G36*
G01X870205D02*
G02X872201Y1031102I769J957D01*
G02X871740Y1030146I-1224J0D01*
G03Y1028909I497J-618D01*
G02X872201Y1027953I-763J-957D01*
G02X869744I-1228J0D01*
G02X870205Y1028909I1224J0D01*
G03Y1030146I-497J618D01*
G37*
G36*
G01X823398Y1026398D02*
G02X822441Y1028394I-957J769D01*
G02X823398Y1027933I0J-1224D01*
G03X824634I618J497D01*
G02X825591Y1028394I957J-763D01*
G02Y1025937I0J-1228D01*
G02X824634Y1026398I0J1224D01*
G03X823398I-618J-497D01*
G37*
G36*
G01X940417Y1003937D02*
G02X941976Y1005118I332J1181D01*
G02X941917Y1004744I-1228J2D01*
G03X942457Y1003740I754J-242D01*
G02X943354Y1002559I-328J-1181D01*
G02X940898I-1228J0D01*
G02X940957Y1002933I1228J-2D01*
G03X940417Y1003937I-754J242D01*
G37*
G36*
G01X870295Y980594D02*
G02X869291Y982528I-1004J706D01*
G02X870201Y982126I0J-1231D01*
G03X871437Y982201I588J530D01*
G02X872441Y982724I1004J-701D01*
G02Y980268I0J-1228D01*
G02X871531Y980669I0J1231D01*
G03X870295Y980594I-588J-530D01*
G37*
G36*
G01X908362Y955071D02*
G02X909614Y956299I23J1228D01*
G02X909594Y956091I-1227J11D01*
G03X910358Y955165I780J-134D01*
G02X911563Y953937I-24J-1228D01*
G02X909106I-1228J0D01*
G02X909126Y954146I1227J-11D01*
G03X908362Y955071I-780J134D01*
G37*
G36*
G01X914925Y946598D02*
G02X914272Y948866I-654J1040D01*
G02X915295Y948319I0J-1231D01*
G03X916374Y948087I659J438D01*
G02X917028Y948276I654J-1036D01*
G02Y945819I0J-1228D01*
G02X916004Y946366I0J1231D01*
G03X914925Y946598I-659J-438D01*
G37*
G36*
G01X890882Y933126D02*
G02X890079Y932827I-803J928D01*
G02Y935283I0J1228D01*
G02X891000Y934866I0J-1226D01*
G03X891272Y934732I297J259D01*
G01X891827Y934693D01*
G03X892110Y934787I26J393D01*
G02X892913Y935087I803J-928D01*
G02X893776Y934732I0J-1226D01*
G03X894051Y934618I278J280D01*
G01X894610D01*
G03X894886Y934732I-2J394D01*
G02X895748Y935087I862J-872D01*
G02Y932630I0J-1228D01*
G02X894886Y932984I0J1226D01*
G03X894610Y933098I-278J-280D01*
G01X894051D01*
G03X893776Y932984I2J-394D01*
G02X892913Y932630I-862J872D01*
G02X891992Y933047I0J1226D01*
G03X891720Y933181I-297J-259D01*
G01X891165Y933220D01*
G03X890882Y933126I-26J-393D01*
G37*
G36*
G01X883453Y931201D02*
G02X885874Y931496I1193J295D01*
G02X885697Y930862I-1228J2D01*
G03X885642Y930622I337J-204D01*
G01X885665Y930370D01*
G03X885760Y930146I392J33D01*
G02X886071Y929331I-912J-815D01*
G02X884843Y928102I-1228J0D01*
G02X884028Y928413I0J1223D01*
G03X883803Y928508I-258J-298D01*
G01X883551Y928531D01*
G03X883311Y928476I-36J-392D01*
G02X882677Y928299I-635J1051D01*
G02X881457Y929386I0J1229D01*
G03X881343Y929618I-390J-48D01*
G01X880996Y929965D01*
G03X880764Y930079I-280J-276D01*
G02X879677Y931299I142J1220D01*
G02X880906Y932528I1228J0D01*
G02X882126Y931441I0J-1229D01*
G03X882240Y931209I390J48D01*
G01X882587Y930862D01*
G03X882819Y930748I280J276D01*
G02X882972Y930720I-140J-1221D01*
G03X883453Y931201I97J383D01*
G37*
G36*
G01X881626Y916902D02*
G02X880709Y916488I-917J811D01*
G02Y918945I0J1228D01*
G02X881346Y918764I-4J-1227D01*
G03X881610Y918713I202J338D01*
G01X882114Y918787D01*
G03X882350Y918913I-56J390D01*
G02X883268Y919327I917J-811D01*
G02X884429Y918496I0J-1227D01*
G03X884579Y918299I372J128D01*
G01X884965Y918031D01*
G03X885201Y917961I225J322D01*
G01X885236D01*
G02X885406Y917949I-1J-1228D01*
G03X885661Y918000I55J390D01*
G01X885886Y918134D01*
G03X886051Y918335I-205J337D01*
G02X887205Y919142I1154J-421D01*
G02Y916685I0J-1228D01*
G02X887035Y916697I1J1228D01*
G03X886780Y916646I-55J-390D01*
G01X886555Y916512D01*
G03X886390Y916311I205J-337D01*
G02X885236Y915504I-1154J421D01*
G02X884075Y916335I0J1227D01*
G03X883925Y916531I-372J-128D01*
G01X883539Y916799D01*
G03X883303Y916870I-225J-322D01*
G01X883268D01*
G02X882630Y917051I4J1227D01*
G03X882366Y917102I-202J-338D01*
G01X881862Y917028D01*
G03X881626Y916902I56J-390D01*
G37*
G36*
G01X1003705Y1142260D02*
X1004169D01*
G03X1004398Y1142335I-2J394D01*
G01X1004402D01*
G02X1005118Y1142567I719J-995D01*
G02X1005835Y1142335I-2J-1228D01*
G01X1005839D01*
G03X1006067Y1142260I231J319D01*
G01X1006531D01*
G03X1006760Y1142335I-2J394D01*
G01X1006764D01*
G02X1007480Y1142567I719J-995D01*
G02Y1140110I0J-1228D01*
G02X1006764Y1140343I2J1228D01*
G01X1006760D01*
G03X1006531Y1140417I-231J-319D01*
G01X1006067D01*
G03X1005839Y1140343I2J-394D01*
G01X1005835D01*
G02X1005118Y1140110I-719J995D01*
G02X1004402Y1140343I2J1228D01*
G01X1004398D01*
G03X1004169Y1140417I-231J-319D01*
G01X1003705D01*
G03X1003476Y1140343I2J-394D01*
G01X1003472D01*
G02X1002756Y1140110I-719J995D01*
G02Y1142567I0J1228D01*
G02X1003472Y1142335I-2J-1228D01*
G01X1003476D01*
G03X1003705Y1142260I231J319D01*
G37*
G36*
G01X843543Y1132114D02*
Y1132354D01*
G03X843476Y1132579I-394J5D01*
G02X843264Y1133268I1015J691D01*
G02X845720I1228J0D01*
G02X845504Y1132571I-1230J0D01*
G03X845433Y1132346I323J-225D01*
G01Y1132106D01*
G03X845500Y1131882I394J-5D01*
G02X845713Y1131193I-1015J-691D01*
G02X843256I-1228J0D01*
G02X843472Y1131890I1230J0D01*
G03X843543Y1132114I-323J225D01*
G37*
G36*
G01X960858Y1129650D02*
X961087Y1129555D01*
G03X961327Y1129539I145J367D01*
G02X961614Y1129575I293J-1192D01*
G02X961902Y1129539I-5J-1228D01*
G03X962142Y1129555I95J383D01*
G01X962370Y1129650D01*
G03X962555Y1129799I-143J366D01*
G02X963583Y1130354I1028J-673D01*
G02X964559Y1129870I0J-1226D01*
G03X964748Y1129736I312J240D01*
G01X964980Y1129661D01*
G03X965213Y1129657I123J373D01*
G02X965555Y1129705I338J-1182D01*
G02Y1127248I0J-1228D01*
G02X964579Y1127732I0J1226D01*
G03X964390Y1127866I-312J-240D01*
G01X964157Y1127941D01*
G03X963925Y1127945I-123J-373D01*
G02X963583Y1127898I-338J1182D01*
G02X963295Y1127933I5J1228D01*
G03X963055Y1127917I-95J-383D01*
G01X962827Y1127823D01*
G03X962642Y1127673I143J-366D01*
G02X960587I-1028J673D01*
G03X960402Y1127823I-328J-217D01*
G01X960173Y1127917D01*
G03X959933Y1127933I-145J-367D01*
G02X959646Y1127898I-293J1192D01*
G02Y1130354I0J1228D01*
G02X960673Y1129799I0J-1229D01*
G03X960858Y1129650I328J217D01*
G37*
G36*
G01X878661Y1125008D02*
X878425D01*
G03X878217Y1124945I5J-393D01*
G02X877559Y1124756I-655J1040D01*
G02Y1127213I0J1228D01*
G02X878217Y1127024I3J-1229D01*
G03X878425Y1126961I214J330D01*
G01X878661D01*
G03X878870Y1127024I-5J393D01*
G02X879528Y1127213I655J-1040D01*
G02Y1124756I0J-1228D01*
G02X878870Y1124945I-3J1229D01*
G03X878661Y1125008I-214J-330D01*
G37*
G36*
G01X811307Y1123276D02*
X811173Y1123496D01*
G03X810976Y1123657I-335J-208D01*
G02X810189Y1124803I440J1146D01*
G02X812646I1228J0D01*
G02X812638Y1124673I-1228J9D01*
G03X812693Y1124429I392J-40D01*
G01X812827Y1124209D01*
G03X813024Y1124047I335J208D01*
G02X813811Y1122902I-440J-1146D01*
G02X813717Y1122425I-1229J-4D01*
G03X813693Y1122193I361J-154D01*
G01X813740Y1121953D01*
G03X813854Y1121752I384J85D01*
G02X814228Y1120866I-855J-883D01*
G02X811772I-1228J0D01*
G02X811866Y1121343I1229J4D01*
G03X811890Y1121575I-361J154D01*
G01X811843Y1121815D01*
G03X811728Y1122016I-384J-85D01*
G02X811354Y1122902I855J883D01*
G02X811362Y1123031I1228J-9D01*
G03X811307Y1123276I-392J40D01*
G37*
G36*
G01X934622Y1121890D02*
X934382D01*
G03X934157Y1121819I1J-393D01*
G02X933465Y1121606I-691J1016D01*
G02Y1124063I0J1228D01*
G02X934157Y1123850I2J-1229D01*
G03X934382Y1123780I225J322D01*
G01X934622D01*
G03X934846Y1123850I-1J393D01*
G02X935539Y1124063I691J-1016D01*
G02Y1121606I0J-1228D01*
G02X934846Y1121819I-2J1229D01*
G03X934622Y1121890I-225J-322D01*
G37*
G36*
G01X929335Y1118161D02*
X929343Y1118406D01*
G03X929280Y1118630I-394J10D01*
G02X929087Y1119291I1037J661D01*
G02X931543I1228J0D01*
G02X931307Y1118567I-1229J0D01*
G03X931228Y1118346I315J-237D01*
G01X931220Y1118102D01*
G03X931283Y1117878I394J-10D01*
G02X931476Y1117217I-1037J-661D01*
G02X929020I-1228J0D01*
G02X929256Y1117941I1229J0D01*
G03X929335Y1118161I-315J237D01*
G37*
G36*
G01X903780Y1115610D02*
X903315D01*
G03X903083Y1115535I-1J-395D01*
G02X902362Y1115299I-724J991D01*
G02Y1117756I0J1228D01*
G02X903079Y1117528I3J-1229D01*
G03X903307Y1117453I231J318D01*
G01X903772D01*
G03X904004Y1117528I1J395D01*
G02X904724Y1117764I724J-991D01*
G02Y1115307I0J-1228D01*
G02X904008Y1115535I-3J1229D01*
G03X903780Y1115610I-231J-318D01*
G37*
G36*
G01X934413Y1108008D02*
X934878D01*
G03X935106Y1108083I-2J394D01*
G01X935110D01*
G02X935827Y1108315I719J-995D01*
G02X936520Y1108102I2J-1229D01*
G03X936744Y1108031I225J322D01*
G01X936984D01*
G03X937209Y1108102I-1J393D01*
G02X937902Y1108315I691J-1016D01*
G02Y1105858I0J-1228D01*
G02X937209Y1106071I-2J1229D01*
G03X936984Y1106142I-225J-322D01*
G01X936744D01*
G03X936520Y1106071I1J-393D01*
G02X935827Y1105858I-691J1016D01*
G02X935110Y1106091I2J1228D01*
G01X935106D01*
G03X934878Y1106165I-231J-319D01*
G01X934413D01*
G03X934185Y1106091I2J-394D01*
G01X934181D01*
G02X933465Y1105858I-719J995D01*
G02Y1108315I0J1228D01*
G02X934181Y1108083I-2J-1228D01*
G01X934185D01*
G03X934413Y1108008I231J319D01*
G37*
G36*
G01X970713Y1098402D02*
Y1098646D01*
G03X970650Y1098870I-394J10D01*
G02X970441Y1099551I1019J685D01*
G02X972898I1228J0D01*
G02X972673Y1098846I-1227J3D01*
G03X972602Y1098626I324J-226D01*
G01Y1098382D01*
G03X972665Y1098157I394J-10D01*
G02X972874Y1097476I-1019J-685D01*
G02X972630Y1096744I-1228J2D01*
G03X972551Y1096504I316J-237D01*
G01X972555Y1096252D01*
G03X972634Y1096016I393J0D01*
G02X972882Y1095276I-980J-740D01*
G02X970425I-1228J0D01*
G02X970669Y1096008I1228J-2D01*
G03X970748Y1096248I-316J237D01*
G01X970744Y1096500D01*
G03X970665Y1096736I-393J0D01*
G02X970417Y1097476I980J740D01*
G02X970642Y1098181I1227J-3D01*
G03X970713Y1098402I-324J226D01*
G37*
G36*
G01X917224Y1095843D02*
X917236Y1096087D01*
G03X917177Y1096315I-393J20D01*
G02X916996Y1096957I1046J642D01*
G02X918224Y1098185I1228J0D01*
G02X918295Y1098181I-33J-1227D01*
G03X918524Y1098240I20J393D01*
G01X918732Y1098362D01*
G03X918886Y1098539I-207J335D01*
G02X920004Y1099256I1118J-514D01*
G02Y1096799I0J-1228D01*
G02X919933Y1096803I33J1227D01*
G03X919705Y1096744I-20J-393D01*
G01X919496Y1096622D01*
G03X919343Y1096445I207J-335D01*
G02X919201Y1096213I-1113J520D01*
G03X919122Y1095996I315J-237D01*
G01X919110Y1095752D01*
G03X919169Y1095524I393J-20D01*
G02X919350Y1094882I-1046J-642D01*
G02X916894I-1228J0D01*
G02X917146Y1095626I1225J0D01*
G03X917224Y1095843I-315J237D01*
G37*
G36*
G01X883276Y1096732D02*
Y1096969D01*
G03X883213Y1097177I-393J-5D01*
G02X883024Y1097835I1040J655D01*
G02X885480I1228J0D01*
G02X885291Y1097177I-1229J-3D01*
G03X885228Y1096969I330J-214D01*
G01Y1096732D01*
G03X885291Y1096524I393J5D01*
G02X885480Y1095866I-1040J-655D01*
G02X883024I-1228J0D01*
G02X883213Y1096524I1229J3D01*
G03X883276Y1096732I-330J214D01*
G37*
G36*
G01X876626Y1091492D02*
X876618Y1091740D01*
G03X876539Y1091972I-393J-4D01*
G02X876287Y1092717I973J744D01*
G02X878744I1228J0D01*
G02X878520Y1092012I-1227J3D01*
G03X878449Y1091776I324J-226D01*
G01X878457Y1091528D01*
G03X878535Y1091295I393J4D01*
G02X878787Y1090551I-973J-744D01*
G02X876331I-1228J0D01*
G02X876555Y1091256I1227J-3D01*
G03X876626Y1091492I-324J226D01*
G37*
G36*
G01X1000224Y1077102D02*
X999972D01*
G03X999740Y1077028I-2J-393D01*
G02X999016Y1076791I-724J993D01*
G02Y1079248I0J1228D01*
G02X999740Y1079012I0J-1229D01*
G03X999972Y1078937I231J318D01*
G01X1000224D01*
G03X1000457Y1079012I2J393D01*
G02X1001181Y1079248I724J-993D01*
G02Y1076791I0J-1228D01*
G02X1000457Y1077028I0J1229D01*
G03X1000224Y1077102I-231J-318D01*
G37*
G36*
G01X902087Y1067724D02*
X901850D01*
G03X901642Y1067661I5J-393D01*
G02X900984Y1067472I-655J1040D01*
G02Y1069929I0J1228D01*
G02X901642Y1069740I3J-1229D01*
G03X901850Y1069677I214J330D01*
G01X902087D01*
G03X902295Y1069740I-5J393D01*
G02X902953Y1069929I655J-1040D01*
G02Y1067472I0J-1228D01*
G02X902295Y1067661I-3J1229D01*
G03X902087Y1067724I-214J-330D01*
G37*
G36*
G01X891543Y1066220D02*
Y1066457D01*
G03X891480Y1066665I-393J-5D01*
G02X891291Y1067323I1040J655D01*
G02X893748I1228J0D01*
G02X893559Y1066665I-1229J-3D01*
G03X893496Y1066457I330J-214D01*
G01Y1066220D01*
G03X893559Y1066012I393J5D01*
G02X893748Y1065354I-1040J-655D01*
G02X893559Y1064697I-1229J-3D01*
G03X893496Y1064488I330J-214D01*
G01Y1064252D01*
G03X893559Y1064043I393J5D01*
G02X893748Y1063386I-1040J-655D01*
G02X891291I-1228J0D01*
G02X891480Y1064043I1229J3D01*
G03X891543Y1064252I-330J214D01*
G01Y1064488D01*
G03X891480Y1064697I-393J-5D01*
G02X891291Y1065354I1040J655D01*
G02X891480Y1066012I1229J3D01*
G03X891543Y1066220I-330J214D01*
G37*
G36*
G01X902087Y1063000D02*
X901850D01*
G03X901642Y1062937I5J-393D01*
G02X900984Y1062748I-655J1040D01*
G02Y1065205I0J1228D01*
G02X901642Y1065016I3J-1229D01*
G03X901850Y1064953I214J330D01*
G01X902087D01*
G03X902295Y1065016I-5J393D01*
G02X902953Y1065205I655J-1040D01*
G02Y1062748I0J-1228D01*
G02X902295Y1062937I-3J1229D01*
G03X902087Y1063000I-214J-330D01*
G37*
G36*
G01X808846Y1053630D02*
X808807Y1054094D01*
G03X808717Y1054315I-392J-32D01*
G01X808713Y1054319D01*
G02X808417Y1055118I934J799D01*
G02X810874I1228J0D01*
G02X810697Y1054484I-1228J2D01*
G01Y1054480D01*
G03X810642Y1054244I337J-203D01*
G01X810681Y1053780D01*
G03X810772Y1053559I392J32D01*
G01X810776Y1053555D01*
G02X811071Y1052756I-934J-799D01*
G02X808614I-1228J0D01*
G02X808791Y1053390I1228J-2D01*
G01Y1053394D01*
G03X808846Y1053630I-337J203D01*
G37*
G36*
G01X895646Y1053386D02*
X895406D01*
G03X895181Y1053315I1J-393D01*
G02X894488Y1053102I-691J1016D01*
G02Y1055559I0J1228D01*
G02X895181Y1055346I2J-1229D01*
G03X895406Y1055276I225J322D01*
G01X895646D01*
G03X895870Y1055346I-1J393D01*
G02X896563Y1055559I691J-1016D01*
G02Y1053102I0J-1228D01*
G02X895870Y1053315I-2J1229D01*
G03X895646Y1053386I-225J-322D01*
G37*
G36*
G01X905772Y1048587D02*
Y1049051D01*
G03X905697Y1049280I-394J-2D01*
G01Y1049283D01*
G02X905465Y1050000I995J719D01*
G02X907921I1228J0D01*
G02X907689Y1049283I-1228J2D01*
G01Y1049280D01*
G03X907614Y1049051I319J-231D01*
G01Y1048587D01*
G03X907689Y1048358I394J2D01*
G01Y1048354D01*
G02X907921Y1047638I-995J-719D01*
G02X905465I-1228J0D01*
G02X905697Y1048354I1228J-2D01*
G01Y1048358D01*
G03X905772Y1048587I-319J231D01*
G37*
G36*
G01X884713Y1048969D02*
X884890Y1049146D01*
G03X885004Y1049374I-277J281D01*
G02X886220Y1050441I1217J-160D01*
G02X887449Y1049213I0J-1228D01*
G02X886382Y1047996I-1227J0D01*
G03X886154Y1047882I53J-391D01*
G01X885976Y1047705D01*
G03X885862Y1047476I277J-281D01*
G02X884646Y1046409I-1217J160D01*
G02X883417Y1047638I0J1228D01*
G02X884484Y1048854I1227J0D01*
G03X884713Y1048969I-53J391D01*
G37*
G36*
G01X991181Y1037335D02*
Y1037575D01*
G03X991110Y1037799I-393J-1D01*
G02X990898Y1038492I1016J691D01*
G02X993354I1228J0D01*
G01Y1038457D01*
G03X993469Y1038169I393J-10D01*
G01X993878Y1037760D01*
G03X994165Y1037646I277J279D01*
G01X994201D01*
G02Y1035189I0J-1228D01*
G02X993508Y1035402I-2J1229D01*
G03X993283Y1035472I-225J-322D01*
G01X993043D01*
G03X992819Y1035402I1J-393D01*
G02X992126Y1035189I-691J1016D01*
G02X990898Y1036417I0J1228D01*
G02X991110Y1037110I1229J2D01*
G03X991181Y1037335I-322J225D01*
G37*
G36*
G01X893102Y1016358D02*
X893524Y1016689D01*
G03X893669Y1016933I-242J310D01*
G02X894882Y1017961I1213J-202D01*
G02X896110Y1016732I0J-1228D01*
G02X895705Y1015819I-1231J0D01*
G03X895575Y1015563I262J-294D01*
G01X895524Y1015031D01*
G03X895602Y1014756I393J-37D01*
G02X896378Y1012441I-3067J-2315D01*
G02X892531Y1016287I-3846J0D01*
G02X892827Y1016276I-6J-3846D01*
G01X892831D01*
G03X893102Y1016358I29J393D01*
G37*
G36*
G01X936429Y983169D02*
G02X938606Y982390I949J-780D01*
G02X938157Y981441I-1227J0D01*
G03X938106Y981390I252J-303D01*
G02X937157Y980941I-949J779D01*
G02X935929Y982169I0J1228D01*
G02X936378Y983118I1227J0D01*
G03X936429Y983169I-252J303D01*
G37*
G36*
G01X901870Y914594D02*
X901618Y914547D01*
G03X901398Y914425I70J-387D01*
G02X900492Y914028I-906J832D01*
G02Y916484I0J1228D01*
G02X901051Y916350I1J-1229D01*
G03X901299Y916311I183J349D01*
G01X901551Y916358D01*
G03X901772Y916480I-70J387D01*
G02X902677Y916878I906J-832D01*
G02Y914421I0J-1228D01*
G02X902118Y914555I-1J1229D01*
G03X901870Y914594I-183J-349D01*
G37*
G36*
G01X819130Y1132937D02*
X818665D01*
G03X818437Y1132862I2J-394D01*
G01X818433D01*
G02X817717Y1132630I-719J995D01*
G02Y1135087I0J1228D01*
G02X818433Y1134854I-2J-1228D01*
G01X818437D01*
G03X818665Y1134780I231J319D01*
G01X819130D01*
G03X819358Y1134854I-2J394D01*
G01X819362D01*
G02X820079Y1135087I719J-995D01*
G02Y1132630I0J-1228D01*
G02X819362Y1132862I2J1228D01*
G01X819358D01*
G03X819130Y1132937I-231J-319D01*
G37*
G54D25*
X799213Y1014173D03*
G54D23*
X872327Y1152756D03*
X863272D03*
G54D24*
X794173Y1136024D03*
X802165D03*
X798169Y1106024D03*
G54D22*
X983858Y1022441D03*
Y1012441D03*
Y1002441D03*
X982610Y962441D03*
Y952441D03*
Y942441D03*
X992610Y962441D03*
Y952441D03*
Y942441D03*
X982610Y932441D03*
Y922441D03*
Y912441D03*
Y902441D03*
Y892441D03*
Y882441D03*
X992610Y932441D03*
Y922441D03*
Y912441D03*
Y902441D03*
Y892441D03*
Y882441D03*
X992520Y832362D03*
Y842362D03*
Y852362D03*
X982610Y872441D03*
X992610D03*
X932531Y1012441D03*
X922531D03*
X912531D03*
X902531D03*
X882531D03*
X932531Y1002441D03*
X922531D03*
X912531D03*
X902531D03*
X892531D03*
X882531D03*
X872531Y1012441D03*
X862531D03*
X852531D03*
X842531D03*
X832531D03*
X872531Y1002441D03*
X862531D03*
X852531D03*
X842531D03*
X832531D03*
X812531Y962441D03*
Y952441D03*
Y942441D03*
X822531Y962441D03*
Y952441D03*
Y942441D03*
X812531Y932441D03*
Y922441D03*
Y912441D03*
Y902441D03*
Y892441D03*
Y882441D03*
X822531Y932441D03*
Y922441D03*
Y912441D03*
Y902441D03*
Y892441D03*
Y882441D03*
X812598Y832362D03*
Y842362D03*
Y852362D03*
X848969Y865248D03*
X858969D03*
X848969Y875248D03*
X858969D03*
X812531Y872441D03*
X822531D03*
G54D21*
X814961Y1111417D03*
X812264Y1114961D03*
X1002165Y1085630D03*
X1012114Y1087008D03*
X1012587Y1083465D03*
X1006693Y1061024D03*
X1001969Y1060827D03*
X1003740Y1040157D03*
X1009449Y1039917D03*
X964764Y1148031D03*
X968504Y1138189D03*
X976772D03*
X936220Y1139764D03*
X949957Y1068307D03*
X984252Y1112598D03*
X974213Y1076969D03*
X967413Y1083366D03*
X987402Y1064173D03*
X995575Y1086220D03*
X995669Y1089764D03*
X945677Y1121252D03*
X939567Y1112402D03*
X984843Y1124909D03*
X953764Y1083268D03*
X958661Y1090157D03*
X962598D03*
X941142Y1028150D03*
X967323Y1027559D03*
X989173Y1040461D03*
X978831Y1039567D03*
X996260Y1040157D03*
X947835Y1022638D03*
X944882Y1025591D03*
X969606Y954528D03*
X945618Y983858D03*
X962402Y945276D03*
X965748Y944488D03*
X940941Y981689D03*
X953500Y991732D03*
X943307Y975394D03*
X937638Y975000D03*
X943780Y993406D03*
X957795Y937992D03*
X949606Y972835D03*
X951575Y904134D03*
X949764Y901378D03*
X963386Y897835D03*
X942992Y893504D03*
X961575Y908307D03*
X954921Y853740D03*
X957283Y866142D03*
X952457Y850890D03*
X964173Y867126D03*
X922835Y1158858D03*
X897638Y1126772D03*
X893701Y1126567D03*
X889764D03*
X897638Y1138583D03*
X893701D03*
X889764D03*
X911024Y1133276D03*
X919291Y1087598D03*
X881693Y1068906D03*
X893504Y1118504D03*
X922441Y1064370D03*
X923228Y1116142D03*
X919685Y1060039D03*
X908268Y1006594D03*
X931496Y1020276D03*
X927362Y1022244D03*
X925197Y980118D03*
X884055Y975591D03*
X886811Y973189D03*
X906299Y944154D03*
X882480Y945276D03*
X905768Y950925D03*
X882539D03*
X874409Y985630D03*
X926181Y975402D03*
X912283Y950591D03*
X931969Y975197D03*
X932283Y989567D03*
X879921Y976969D03*
X885827Y881150D03*
X902205Y881193D03*
X906496Y932441D03*
X908386Y922441D03*
X904252Y936024D03*
X882677Y883071D03*
Y891240D03*
X922453Y907862D03*
X922047Y885039D03*
X881591Y911323D03*
X882185Y898524D03*
X902205Y865748D03*
X811024Y1128740D03*
X840748Y1130472D03*
X813780Y1133071D03*
X861024Y1142717D03*
X827165Y1138189D03*
X867169Y1066925D03*
X872835Y1075787D03*
X850787Y1106602D03*
X838583Y1107087D03*
X861862Y1107480D03*
X849803Y1083858D03*
X842913Y1091732D03*
X811811Y1105709D03*
X815354Y1082283D03*
X818110Y1104087D03*
X820079Y1088189D03*
X845579Y1115354D03*
X815354Y1106299D03*
X810630Y1082780D03*
X865110Y1106299D03*
X863189Y1096457D03*
X849209Y1095280D03*
X829134Y1043701D03*
X848425Y1030917D03*
X868902Y1053941D03*
X847835Y1045768D03*
X825591Y1043307D03*
X814567Y1052362D03*
X832480Y1023622D03*
X860630Y1039173D03*
X858366Y1016831D03*
X869780Y1044098D03*
X869291Y993543D03*
X829724Y981693D03*
X826772Y977953D03*
X827559Y945669D03*
X862598Y983465D03*
X858071Y907874D03*
X797921Y1128740D03*
X794382Y1087402D03*
X794094Y1068898D03*
X807087Y1069685D03*
X797630Y1112807D03*
X807874Y1073228D03*
X808661Y1085433D03*
X797571Y1123760D03*
X794728Y1097189D03*
X794488Y1093307D03*
X806890Y1051083D03*
X808071Y1059252D03*
X796433Y864961D03*
X824606Y1133858D03*
X814961Y1137795D03*
%LPD*%
G75*
G54D10*
X797244Y702756D03*
Y1152362D03*
X1007087Y702756D03*
Y1152362D03*
G54D20*
G01X993799Y609350D02*
X994441Y605217D01*
X995177Y609350D01*
X995913Y605217D01*
X996555Y609350D01*
G01X999339Y609004D02*
X999063Y609213D01*
X998740Y609350D01*
X998374D01*
X997961Y609142D01*
X997638Y608799D01*
X997409Y608386D01*
X997224Y607697D01*
X997177Y607075D01*
X997272Y606457D01*
X997409Y606043D01*
X997685Y605630D01*
X998004Y605354D01*
X998327Y605217D01*
X998650D01*
X998969Y605354D01*
X999244Y605559D01*
X999476Y605835D01*
G01X1000512Y605768D02*
X1000878Y605421D01*
X1001291Y605217D01*
X1001661D01*
X1002028Y605421D01*
X1002303Y605768D01*
X1002441Y606252D01*
X1002350Y606732D01*
X1002118Y607146D01*
X1001705Y607421D01*
X1001154Y607559D01*
X1000835Y607835D01*
X1000697Y608315D01*
X1000787Y608799D01*
X1001016Y609142D01*
X1001339Y609350D01*
X1001661D01*
X1001980Y609213D01*
X1002256Y608866D01*
G01X1004626Y609350D02*
X1004260Y609213D01*
X1003984Y608866D01*
X1003799Y608457D01*
X1003661Y607902D01*
X1003614Y607283D01*
X1003661Y606661D01*
X1003799Y606110D01*
X1003984Y605697D01*
X1004260Y605354D01*
X1004626Y605217D01*
X1004992Y605354D01*
X1005268Y605697D01*
X1005453Y606110D01*
X1005591Y606661D01*
X1005638Y607283D01*
X1005591Y607902D01*
X1005453Y608457D01*
X1005268Y608866D01*
X1004992Y609213D01*
X1004626Y609350D01*
G01X1006764Y606043D02*
X1007039Y605559D01*
X1007409Y605283D01*
X1007823Y605217D01*
X1008189Y605283D01*
X1008555Y605630D01*
X1008787Y606043D01*
X1008831Y606457D01*
X1008740Y606937D01*
X1008417Y607283D01*
X1008098Y607421D01*
X1007685D01*
G01X1008098D02*
X1008374Y607626D01*
X1008602Y607972D01*
X1008693Y608386D01*
X1008602Y608799D01*
X1008374Y609142D01*
X1007961Y609350D01*
X1007547Y609283D01*
X1007134Y609004D01*
G01X1010925Y605217D02*
X1011248Y605283D01*
X1011614Y605492D01*
X1011843Y605835D01*
X1011937Y606319D01*
X1011843Y606799D01*
X1011567Y607213D01*
X1011154Y607421D01*
X1010697D01*
X1010421Y607559D01*
X1010189Y607902D01*
X1010098Y608386D01*
X1010236Y608866D01*
X1010559Y609213D01*
X1010925Y609350D01*
X1011291Y609213D01*
X1011614Y608866D01*
X1011752Y608386D01*
X1011661Y607902D01*
X1011429Y607559D01*
X1011154Y607421D01*
X1010697D01*
X1010283Y607213D01*
X1010008Y606799D01*
X1009913Y606319D01*
X1010008Y605835D01*
X1010236Y605492D01*
X1010602Y605283D01*
X1010925Y605217D01*
G01X993669Y616831D02*
Y612697D01*
X995504D01*
G01X996587D02*
X997736Y616831D01*
X998886Y612697D01*
G01X998472Y614142D02*
X997000D01*
G01X999874Y616831D02*
Y613870D01*
X1000059Y613248D01*
X1000425Y612835D01*
X1000886Y612697D01*
X1001346Y612835D01*
X1001713Y613248D01*
X1001898Y613870D01*
Y616831D01*
G01X1002980Y612697D02*
Y616831D01*
X1005091Y612697D01*
Y616831D01*
G01X1008197Y616484D02*
X1007921Y616693D01*
X1007598Y616831D01*
X1007232D01*
X1006819Y616622D01*
X1006496Y616280D01*
X1006268Y615866D01*
X1006083Y615177D01*
X1006035Y614555D01*
X1006130Y613937D01*
X1006268Y613524D01*
X1006543Y613110D01*
X1006862Y612835D01*
X1007185Y612697D01*
X1007508D01*
X1007827Y612835D01*
X1008102Y613039D01*
X1008335Y613315D01*
G01X1009370Y612697D02*
Y616831D01*
G01X1011299D02*
Y612697D01*
G01Y614764D02*
X1009370D01*
G01X1012520Y612697D02*
X1014449Y616831D01*
G01X1012520D02*
X1014449Y612697D01*
G01X1015717Y616831D02*
Y612697D01*
X1017551D01*
G01X1019185Y614075D02*
X1020382D01*
G01X1023945Y616484D02*
X1023669Y616693D01*
X1023346Y616831D01*
X1022980D01*
X1022567Y616622D01*
X1022244Y616280D01*
X1022016Y615866D01*
X1021831Y615177D01*
X1021783Y614555D01*
X1021878Y613937D01*
X1022016Y613524D01*
X1022291Y613110D01*
X1022610Y612835D01*
X1022933Y612697D01*
X1023256D01*
X1023575Y612835D01*
X1023850Y613039D01*
X1024083Y613315D01*
G01X1027094Y616484D02*
X1026819Y616693D01*
X1026496Y616831D01*
X1026130D01*
X1025717Y616622D01*
X1025394Y616280D01*
X1025165Y615866D01*
X1024980Y615177D01*
X1024933Y614555D01*
X1025028Y613937D01*
X1025165Y613524D01*
X1025441Y613110D01*
X1025760Y612835D01*
X1026083Y612697D01*
X1026406D01*
X1026724Y612835D01*
X1027000Y613039D01*
X1027232Y613315D01*
G01X1029232Y612697D02*
Y616831D01*
X1028681Y616004D01*
G01Y612697D02*
X1029783D01*
G01X1031370Y613524D02*
X1031646Y613039D01*
X1032016Y612764D01*
X1032429Y612697D01*
X1032795Y612764D01*
X1033161Y613110D01*
X1033394Y613524D01*
X1033437Y613937D01*
X1033346Y614417D01*
X1033024Y614764D01*
X1032705Y614902D01*
X1032291D01*
G01X1032705D02*
X1032980Y615106D01*
X1033209Y615453D01*
X1033299Y615866D01*
X1033209Y616280D01*
X1032980Y616622D01*
X1032567Y616831D01*
X1032154Y616764D01*
X1031740Y616484D01*
G01X1034520Y613315D02*
X1034795Y612972D01*
X1035118Y612764D01*
X1035531Y612697D01*
X1035945Y612835D01*
X1036268Y613110D01*
X1036496Y613591D01*
X1036543Y614142D01*
X1036449Y614693D01*
X1036220Y615039D01*
X1035898Y615315D01*
X1035579Y615382D01*
X1035256Y615315D01*
X1034843Y615039D01*
X1034980Y616831D01*
X1036220D01*
G01X1037807Y616142D02*
X1038083Y616555D01*
X1038406Y616764D01*
X1038772Y616831D01*
X1039232Y616693D01*
X1039555Y616346D01*
X1039646Y615937D01*
X1039598Y615520D01*
X1039417Y615177D01*
X1038496Y614488D01*
X1038083Y614004D01*
X1037807Y613315D01*
X1037717Y612697D01*
X1039646D01*
G01X1040913D02*
Y616831D01*
X1042059D01*
X1042429Y616622D01*
X1042657Y616346D01*
X1042748Y615795D01*
X1042657Y615244D01*
X1042382Y614902D01*
X1042059Y614693D01*
X1040913D01*
G01X1042059D02*
X1042748Y612697D01*
G01X1044980D02*
Y616831D01*
X1044429Y616004D01*
G01Y612697D02*
X1045531D01*
G01X1023098Y605315D02*
Y609449D01*
X1024244D01*
X1024614Y609240D01*
X1024843Y608965D01*
X1024933Y608413D01*
X1024843Y607862D01*
X1024567Y607520D01*
X1024244Y607311D01*
X1023098D01*
G01X1024244D02*
X1024933Y605315D01*
G01X1026476Y607173D02*
X1027945D01*
X1027807Y607657D01*
X1027579Y607933D01*
X1027256Y608071D01*
X1026937Y608000D01*
X1026661Y607795D01*
X1026476Y607311D01*
X1026386Y606898D01*
Y606488D01*
X1026476Y606071D01*
X1026705Y605657D01*
X1026980Y605382D01*
X1027303Y605315D01*
X1027626Y605453D01*
X1027945Y605866D01*
G01X1029488Y608071D02*
X1030315Y605315D01*
X1031142Y608071D01*
G01X1033465Y605177D02*
X1033374Y605248D01*
Y605382D01*
X1033465Y605453D01*
X1033555Y605382D01*
Y605248D01*
X1033465Y605177D01*
G01X1040130Y607520D02*
X1040315Y607724D01*
X1040453Y608071D01*
X1040543Y608555D01*
X1040453Y608965D01*
X1040268Y609240D01*
X1039949Y609449D01*
X1038709D01*
Y605315D01*
X1040224D01*
X1040543Y605591D01*
X1040728Y606004D01*
X1040819Y606488D01*
X1040728Y606969D01*
X1040453Y607382D01*
X1040130Y607520D01*
X1038709D01*
G54D11*
X812598Y832362D03*
X822531Y872441D03*
Y882441D03*
Y892441D03*
X812531Y872441D03*
Y882441D03*
Y892441D03*
X812598Y852362D03*
Y842362D03*
X822531Y902441D03*
Y912441D03*
Y922441D03*
Y932441D03*
Y942441D03*
Y952441D03*
X812531Y902441D03*
Y912441D03*
Y922441D03*
Y932441D03*
Y942441D03*
Y952441D03*
X822531Y962441D03*
X812531D03*
X832531Y1002441D03*
Y1012441D03*
X858969Y875248D03*
X848969D03*
X858969Y865248D03*
X848969D03*
X842531Y1002441D03*
X852531D03*
X862531D03*
X872531D03*
X882531D03*
X892531D03*
X842531Y1012441D03*
X852531D03*
X862531D03*
X872531D03*
X882531D03*
X892531D03*
X902531Y1002441D03*
X912531D03*
X922531D03*
X932531D03*
X902531Y1012441D03*
X912531D03*
X922531D03*
X932531D03*
X992520Y832362D03*
X992610Y872441D03*
Y882441D03*
Y892441D03*
X982610Y872441D03*
Y882441D03*
Y892441D03*
X992520Y852362D03*
Y842362D03*
X992610Y902441D03*
Y912441D03*
Y922441D03*
Y932441D03*
Y942441D03*
Y952441D03*
X982610Y902441D03*
Y912441D03*
Y922441D03*
Y932441D03*
Y942441D03*
Y952441D03*
X992610Y962441D03*
X982610D03*
X983858Y1002441D03*
Y1012441D03*
Y1022441D03*
G54D12*
X807874Y804134D03*
X821654Y824409D03*
X830906Y805709D03*
X821457Y810630D03*
X811024Y820866D03*
X823228Y834055D03*
X807283Y812795D03*
X801378Y832087D03*
X833465D03*
X827559Y817126D03*
X790354Y832480D03*
Y818110D03*
Y806890D03*
X793701Y799409D03*
X818898Y799016D03*
X828150Y854921D03*
X817717Y868110D03*
X817913Y887992D03*
X809646Y859055D03*
X820079Y843898D03*
X819685Y852362D03*
X794685Y840748D03*
X805709Y846654D03*
X829724Y885827D03*
X828543Y876378D03*
X814370Y863780D03*
X805118Y880512D03*
X799606Y888583D03*
X829134Y847441D03*
X824606Y863583D03*
X790748Y893898D03*
X790945Y866535D03*
X790354Y848622D03*
X797244Y853543D03*
X817717Y937598D03*
X791929Y939173D03*
X795472Y914173D03*
X817520Y916929D03*
X830079Y905315D03*
X817520Y897638D03*
X829331D03*
X797638Y905118D03*
X798031Y920669D03*
X797835Y935236D03*
X798622Y950394D03*
X832283Y942520D03*
X834252Y923228D03*
X828740Y920472D03*
X829331Y927756D03*
X831890Y949213D03*
X790551Y947244D03*
Y918504D03*
X829134Y937205D03*
X823622Y1000591D03*
X815748Y990945D03*
X832480Y967520D03*
X830315Y963189D03*
X798031Y962598D03*
X799409Y969291D03*
X827362Y968701D03*
X829134Y956890D03*
X802953Y1000591D03*
X802756Y991339D03*
X791142Y967717D03*
X800000Y973819D03*
X790748Y962008D03*
X807244Y994291D03*
X808268Y987402D03*
X814961Y1000394D03*
X827165Y1007677D03*
X798228Y998031D03*
X827559Y1016929D03*
X813780Y1028346D03*
X810039Y1025787D03*
X831299Y1018406D03*
X804331Y1031102D03*
X791142Y1036614D03*
X801575Y1037795D03*
X811614Y1069685D03*
X822835Y1062992D03*
X827756Y1053937D03*
X808661Y1067323D03*
X811024Y1062992D03*
X822441Y1044094D03*
X790748Y1066732D03*
X796457Y1050972D03*
X791339D03*
X794094Y1066535D03*
X790945Y1062795D03*
X790748Y1058858D03*
X801772Y1042717D03*
X831980Y1033965D03*
Y1031890D03*
X834646Y1062992D03*
X833465Y1043307D03*
X831102Y1095079D03*
X824803Y1090551D03*
X817323Y1084449D03*
Y1090157D03*
X811417Y1089370D03*
Y1093701D03*
X824803Y1094882D03*
X812795Y1074409D03*
X794382Y1083858D03*
X796260Y1074854D03*
X794185Y1072835D03*
X796850Y1081445D03*
X807630Y1112205D03*
X807209Y1116925D03*
X820669Y1125787D03*
X830315Y1116142D03*
Y1126181D03*
X820472Y1116339D03*
X825394Y1121260D03*
X795669Y1101969D03*
X799213D03*
X833232Y1095374D03*
X834646Y1078740D03*
X835039Y1110630D03*
X793835Y1118823D03*
X810039Y1145713D03*
X815945Y1135827D03*
X812598D03*
X809843Y1140945D03*
X805512Y1132787D03*
X797244Y1140748D03*
X834252Y1133858D03*
X835039Y1145866D03*
X834252Y1131890D03*
X860827Y835236D03*
X861614Y816732D03*
X840354Y823622D03*
X890748Y813189D03*
X883268Y808268D03*
X889567Y822638D03*
X881496Y819094D03*
X861417Y808465D03*
X862402Y827953D03*
X840945Y810236D03*
X849803Y818701D03*
X871850Y816929D03*
X853346Y833465D03*
X840748Y799016D03*
X858661Y798819D03*
X874606Y799016D03*
X886024Y798819D03*
X893701Y835630D03*
X842323Y854724D03*
X863583Y857874D03*
Y870866D03*
X862598Y880315D03*
X843898Y884843D03*
X854331Y869685D03*
X837598Y848425D03*
X836811Y859843D03*
X841535Y836417D03*
X839764Y879134D03*
X854134Y889764D03*
X861575Y892520D03*
X841142Y892717D03*
X836614Y888976D03*
X874409Y888189D03*
X838189Y870079D03*
X845669Y894291D03*
X862795Y848228D03*
X844094Y846063D03*
X853346Y843504D03*
X863583Y843701D03*
X877528Y882252D03*
X867913Y886220D03*
X868819Y889961D03*
X889764Y883661D03*
X886811Y883858D03*
X881496Y880709D03*
X877559Y872835D03*
Y875591D03*
X890354Y870079D03*
X893110Y869882D03*
Y872638D03*
X893701Y874606D03*
X878740Y871063D03*
X891535Y856693D03*
X894488Y856890D03*
X879331Y858661D03*
X882480Y855709D03*
X879331D03*
X893701Y847441D03*
X886811D03*
X881890Y846457D03*
X880906Y836614D03*
X889764Y839567D03*
X885827Y836614D03*
X870079D03*
Y847441D03*
X877953D03*
X878937Y878937D03*
X886811Y867126D03*
X884843Y864173D03*
X887795Y862205D03*
X891732Y860236D03*
Y866142D03*
X872047Y877953D03*
X868110Y874016D03*
Y866142D03*
X872047Y870079D03*
X868110Y858268D03*
X872047Y862205D03*
X868110Y850394D03*
X872047Y854331D03*
X877953Y894094D03*
X839528Y946260D03*
X864173Y951772D03*
X862992Y939370D03*
X866339Y930906D03*
X859528Y913976D03*
X845866Y910827D03*
X854134Y896063D03*
X890354Y940551D03*
X858465Y949016D03*
X865354Y922244D03*
X842126Y914764D03*
X850394Y905906D03*
X841339Y910433D03*
X868189Y911024D03*
X852165Y935236D03*
X859252Y932677D03*
X871457Y921850D03*
X842520Y933661D03*
X853346Y921850D03*
X858071Y917126D03*
X857874Y926575D03*
X846457Y941535D03*
X871496Y935827D03*
X855315Y940945D03*
X871063Y951181D03*
X837795Y939764D03*
X878150Y934843D03*
Y919685D03*
X891732Y927953D03*
X887795Y925984D03*
X866929Y944094D03*
X846654Y951181D03*
X836220Y916142D03*
X848031Y929331D03*
X868898Y928346D03*
X877756Y941142D03*
X876969Y929724D03*
X881890Y936811D03*
X887598Y922638D03*
X877953Y897047D03*
X869094Y896457D03*
X868701Y915157D03*
X854921Y911614D03*
X841732Y924606D03*
X842717Y957480D03*
X855276Y962008D03*
X859055Y975394D03*
X847244Y975197D03*
X850197Y967126D03*
X862992Y965354D03*
X877638Y953346D03*
X893504Y970079D03*
X875984Y993701D03*
X885433Y994488D03*
X886024Y962402D03*
X887992Y969882D03*
X878937Y967717D03*
Y957677D03*
X856693Y956102D03*
X870472Y960433D03*
X856890Y969094D03*
X866929Y977756D03*
X870866Y969094D03*
X875394Y976575D03*
X860039Y980315D03*
X846654Y979528D03*
X847047Y961811D03*
X838780Y953740D03*
X836614Y963976D03*
X838583Y980906D03*
X843307Y969291D03*
X853346Y977756D03*
X864764Y959055D03*
X839764Y977362D03*
X837480Y1007677D03*
X889106Y1023819D03*
X883071Y1037402D03*
X884843Y1021457D03*
X881693Y1023228D03*
X876378Y1029134D03*
X872047Y1023031D03*
X857480Y1022744D03*
X855906Y1028543D03*
X854382Y1033268D03*
X862008Y1030118D03*
X866429Y1024213D03*
X838189Y1032874D03*
X836024Y1020866D03*
X868504Y1063386D03*
X877165Y1066492D03*
X872835Y1067272D03*
X886220Y1060827D03*
X875091Y1064173D03*
X869291Y1067272D03*
X875106Y1069291D03*
X891339Y1044291D03*
X875787Y1038780D03*
X869366Y1039409D03*
X871850Y1040945D03*
X850394Y1062992D03*
X856496Y1054134D03*
X857087Y1046654D03*
X843110Y1047244D03*
X854331Y1068898D03*
X842520D03*
X893307Y1029724D03*
X883268Y1070669D03*
X867232Y1079134D03*
X877953Y1079232D03*
X867323Y1082488D03*
X877953Y1084350D03*
X850394Y1078740D03*
X852756Y1094882D03*
X866142Y1096063D03*
X858661Y1084055D03*
X858465Y1079134D03*
X858268Y1094882D03*
X855512D03*
X871850Y1121260D03*
X874213D03*
X882480Y1118504D03*
X885047Y1123228D03*
X886417Y1111024D03*
X882480D03*
X884449Y1114567D03*
X886417Y1118504D03*
X882480Y1125776D03*
X871543Y1101575D03*
X885047Y1105118D03*
X884843Y1107480D03*
X887598Y1106299D03*
X871567Y1103650D03*
X845776Y1111811D03*
X843307Y1109492D03*
X840945Y1107768D03*
X841409Y1111764D03*
X844339Y1122441D03*
X849606Y1125984D03*
X856307Y1113386D03*
X849205D03*
X845669Y1127953D03*
X862992Y1127165D03*
X856307Y1111311D03*
X847244Y1106799D03*
X849205Y1111024D03*
X846457Y1125197D03*
X865354Y1124803D03*
X859449Y1117717D03*
X857079Y1123228D03*
X860236Y1127165D03*
X857079Y1120866D03*
X865354Y1122441D03*
X843079Y1128031D03*
X844886Y1106732D03*
X852953Y1108358D03*
X844831Y1104657D03*
X860287Y1105118D03*
X884343Y1092717D03*
X888886D03*
X883858Y1080709D03*
X889764D03*
X887591Y1154724D03*
X875287Y1140157D03*
X885146Y1142520D03*
X881890Y1145283D03*
X867323Y1149409D03*
X880118Y1151772D03*
X836614Y1131890D03*
Y1133965D03*
X837402Y1145776D03*
X851969Y1129134D03*
X858268Y1143906D03*
X855906D03*
X853543D03*
X850394Y1143358D03*
X862205Y1148031D03*
X856693D03*
X854331Y1150984D03*
X874016Y1158661D03*
X860433Y1158465D03*
X837402Y1137689D03*
X887591Y1158268D03*
X891732Y1150583D03*
Y1145669D03*
X865035Y1138854D03*
X862697Y1139618D03*
X857087Y1140945D03*
X852756Y1138583D03*
X850394D03*
X849894Y1129134D03*
X877559Y1142717D03*
X949016Y800787D03*
X933858Y804528D03*
X920669Y806299D03*
X932677Y828346D03*
X896260Y803346D03*
X908858Y814764D03*
X909055Y805709D03*
X907874Y808465D03*
X951575Y812795D03*
X942126Y813780D03*
X932087Y813583D03*
X920669Y813189D03*
X939370Y799409D03*
X926969Y799213D03*
X916142D03*
X950197Y823031D03*
X937008D03*
X897047Y798819D03*
X896654Y820276D03*
X896260Y807480D03*
X896654Y812402D03*
X907283Y799213D03*
X927165Y823228D03*
X902165Y832283D03*
X906496Y830512D03*
Y828740D03*
X898031Y830512D03*
Y828740D03*
X931496Y856693D03*
X941732Y843898D03*
X934843Y836024D03*
X942913Y850000D03*
X928543Y885236D03*
X929331Y849016D03*
X933858Y850394D03*
X947835Y841142D03*
X943898Y857677D03*
X942126Y869094D03*
X935630Y859843D03*
X944094Y886417D03*
X937795Y886024D03*
X940551Y836417D03*
X937008Y856693D03*
X923819Y874409D03*
X948031Y875591D03*
X930315Y869291D03*
X934843D03*
X928740Y887402D03*
X904331Y878740D03*
X906496Y876378D03*
X909843Y873031D03*
X912992Y872835D03*
Y870079D03*
X911614Y858071D03*
X906299Y858268D03*
X909055Y856299D03*
X910630Y852559D03*
X908858Y850591D03*
X910630Y848622D03*
X918504Y858071D03*
X920866Y860433D03*
X918504Y862705D03*
X894685Y853740D03*
X902165Y837598D03*
X897638Y845472D03*
X906496D03*
X914370Y840551D03*
X910433Y836614D03*
X903543Y842520D03*
X900591D03*
X920276Y836614D03*
X924213D03*
X920276Y847441D03*
X925197D03*
X896654Y871063D03*
X899606Y868110D03*
X897638Y862205D03*
X901575Y856299D03*
Y860236D03*
X897638Y858268D03*
Y850394D03*
X905512Y848425D03*
X901575D03*
X905512Y852362D03*
X895669Y866142D03*
X915354Y868110D03*
Y872047D03*
X919291D03*
X927165Y860236D03*
X921260Y868110D03*
Y864173D03*
Y852362D03*
X925197Y856299D03*
X919685Y946063D03*
X952559Y935630D03*
X941535Y937598D03*
X940157Y915551D03*
X931890Y927165D03*
X923228Y928740D03*
X941929Y912205D03*
X931299Y915551D03*
X933071Y905709D03*
X931299Y911220D03*
X926575Y907874D03*
X942717Y920079D03*
X936417Y910630D03*
X929134Y936024D03*
X935827Y927362D03*
X952559Y929331D03*
X946850Y909843D03*
X940157Y907087D03*
X935039Y919291D03*
X921260Y925591D03*
X920945Y935039D03*
X923228Y938780D03*
X899016Y935433D03*
X901772Y933071D03*
X898228Y938780D03*
X904528Y939961D03*
X895866Y924803D03*
X918898Y912992D03*
X926142Y925197D03*
X927953Y905315D03*
X948819Y916732D03*
X945512Y934252D03*
X932087Y945669D03*
X921102Y916339D03*
X924213Y916142D03*
X926457Y913976D03*
X946654Y946260D03*
X949016Y966535D03*
X902756Y982874D03*
X906496Y992520D03*
X897047Y987008D03*
X918701Y984646D03*
X915157Y968701D03*
X931102Y955709D03*
X940945Y954921D03*
X905512Y959055D03*
X895276Y957087D03*
X900591Y964173D03*
X909449Y986220D03*
X911417Y976772D03*
X923622Y961220D03*
X929134Y986417D03*
X929331Y980118D03*
X945276Y989764D03*
X950264Y983071D03*
X938268Y1001378D03*
X951181Y1009449D03*
X896850Y1004331D03*
X928346Y1029134D03*
X941339Y1019291D03*
X945276Y1034449D03*
X924606D03*
X908465Y1023819D03*
X921760Y1023622D03*
X897193Y1024016D03*
X901878D03*
X950000Y1055118D03*
X943504Y1065354D03*
X946457D03*
X948425D03*
X927469Y1067913D03*
X929043Y1052756D03*
X938976Y1038575D03*
X945563Y1043898D03*
X947638Y1041776D03*
X950394Y1039173D03*
X917323Y1068701D03*
X916142Y1065067D03*
X896457Y1067335D03*
Y1063394D03*
X899004Y1061024D03*
X912008Y1059260D03*
X924500Y1052559D03*
X907677Y1040157D03*
X903937Y1040551D03*
X898909Y1038976D03*
X912795Y1064173D03*
X914764Y1059260D03*
X909244Y1055906D03*
X917528D03*
X943110Y1038583D03*
X913189Y1026976D03*
X916732D03*
X908268Y1066732D03*
X935197Y1070520D03*
X950051Y1071850D03*
X947835Y1074122D03*
X928740Y1076772D03*
Y1079528D03*
X946248Y1091311D03*
X949213Y1095224D03*
X930571Y1090500D03*
X935433Y1081496D03*
X933071Y1090551D03*
X943531Y1088772D03*
X897835Y1072335D03*
X918791Y1090551D03*
X925197Y1070327D03*
X922831Y1082681D03*
X950394Y1110236D03*
X942626Y1115642D03*
X942520Y1117717D03*
X926969Y1107480D03*
X933465Y1102362D03*
X950591Y1106496D03*
X943701Y1098819D03*
X941339D03*
X931102Y1102154D03*
X924016Y1127559D03*
X923622Y1124409D03*
X921260D03*
X902362Y1125205D03*
X906299Y1124854D03*
X899815Y1122638D03*
X896260Y1113386D03*
X911417Y1092913D03*
X899213Y1118701D03*
X919685Y1109449D03*
X914961Y1124606D03*
X918307Y1123031D03*
Y1125984D03*
X911417D03*
Y1123031D03*
X915354Y1109449D03*
X911425Y1097638D03*
X924016Y1105118D03*
X952362Y1095224D03*
X908661Y1122638D03*
X910039Y1087992D03*
X906102D03*
X908071Y1084449D03*
X910039Y1080906D03*
X906102D03*
X907634Y1090772D03*
X911417Y1095472D03*
X908122Y1092791D03*
X911417Y1074213D03*
Y1071850D03*
X909449Y1075098D03*
X895669Y1082677D03*
Y1145669D03*
X929134Y1135039D03*
X942126Y1135827D03*
X947638Y1133465D03*
X943602Y1129579D03*
X947638Y1137795D03*
X944882D03*
X950787D03*
X951189Y1142126D03*
X951087Y1144882D03*
X916535Y1155906D03*
X919291Y1153543D03*
X912992Y1134646D03*
X900205Y1154724D03*
X916732Y1148819D03*
Y1141929D03*
X909843Y1137992D03*
X902953Y1141929D03*
X909843Y1152756D03*
X923622Y1137008D03*
X914961Y1136524D03*
X919291Y1158268D03*
X900205D03*
X895669Y1150583D03*
X956890Y829134D03*
X1011417Y832677D03*
X1001969Y826575D03*
X1006890Y807480D03*
X976378Y803150D03*
X954134Y806299D03*
X996850Y801181D03*
X982087Y817913D03*
X1004724Y832677D03*
X1004331Y818504D03*
X981299Y826969D03*
X983071Y806890D03*
X1000394Y806496D03*
X991142Y822244D03*
X993898Y813386D03*
X963583Y818898D03*
X957874Y811811D03*
X967126Y814961D03*
X976378Y811417D03*
X974016Y824213D03*
X959055Y824409D03*
X1008858Y799409D03*
X989567D03*
X967717D03*
X956890D03*
X973228Y868898D03*
X968504Y881890D03*
X962598Y858268D03*
X958268Y858071D03*
X978346Y860433D03*
X985039Y853740D03*
X954134Y873228D03*
X969488Y848425D03*
X992913Y864567D03*
X980709Y866142D03*
X967126Y871063D03*
X982677Y840748D03*
X991929Y860433D03*
X1010433Y850787D03*
X1004528Y876181D03*
X1001378Y889370D03*
X979724Y848425D03*
X958071Y837008D03*
X1001575Y866142D03*
X1002165Y848425D03*
X971457Y840945D03*
X973031Y858268D03*
X963976Y877756D03*
X975394Y875197D03*
X969094Y889764D03*
X976378Y883858D03*
Y893701D03*
X967520Y951181D03*
X1011417Y922047D03*
X1010433Y938189D03*
X978543Y917717D03*
X988189Y928740D03*
X987402Y937402D03*
X987598Y947047D03*
X1003543Y950984D03*
X1002953Y935039D03*
X1001575Y916732D03*
X1001378Y901772D03*
X955906Y920669D03*
X976378Y903543D03*
X962205Y934646D03*
X957677Y947441D03*
X962402Y913386D03*
X982677Y973031D03*
X990945Y984843D03*
X973622Y1006890D03*
X979921Y982283D03*
X957677Y955315D03*
X976575Y965157D03*
X974213Y972047D03*
X988583Y976969D03*
X1008268Y971941D03*
X965354Y987402D03*
X957874Y991732D03*
X985039D03*
X973622Y982283D03*
X955118Y984252D03*
X976378Y999606D03*
X995276Y991339D03*
X997244Y986614D03*
X971457Y1005906D03*
X963583D03*
X989764Y1027406D03*
X1004528Y1016732D03*
X993110Y1028543D03*
X1003150Y1022835D03*
X1007087Y1028740D03*
X1009843Y1031496D03*
X996063Y1022835D03*
X972047Y1013386D03*
X954724Y1020472D03*
X971063Y1018898D03*
X983465Y1034843D03*
X972244Y1030906D03*
X971850Y1033661D03*
X959843Y1032283D03*
X964764Y1029724D03*
X955118Y1030315D03*
X1003937Y1050197D03*
X980315Y1064961D03*
X979528Y1058661D03*
X969488Y1067126D03*
X955906Y1066142D03*
Y1060630D03*
X960630Y1058858D03*
X984646Y1057390D03*
X971260Y1055161D03*
X977953Y1055217D03*
X974409Y1060087D03*
X966142Y1060236D03*
X973031Y1068453D03*
X967717Y1040945D03*
Y1044488D03*
X957480D03*
X984646Y1042807D03*
X962598Y1038976D03*
X957480D03*
X1002756Y1079528D03*
X994094Y1072047D03*
X991339Y1070472D03*
X988976Y1075984D03*
X996063Y1083858D03*
X986614Y1070472D03*
X983858Y1080709D03*
X978740D03*
X983858Y1086614D03*
X978740D03*
X981890Y1093102D03*
X985827Y1094882D03*
X985835Y1097244D03*
X953150Y1078740D03*
X968110D03*
X971350Y1070669D03*
X986614Y1082283D03*
Y1086220D03*
Y1089764D03*
X968504Y1094094D03*
X959449Y1096598D03*
X962008Y1096551D03*
X960630Y1082705D03*
Y1076575D03*
X988094Y1121362D03*
X998819Y1111024D03*
X1001575Y1122047D03*
X988583Y1110047D03*
X1001579Y1108079D03*
X1006299Y1110638D03*
X1009449D03*
X1001575Y1124803D03*
X996457Y1127862D03*
X999213Y1127953D03*
X1006693Y1126764D03*
X1003937D03*
X999213Y1098425D03*
X970866Y1123622D03*
Y1121654D03*
X963780Y1117717D03*
X976575Y1109843D03*
X954327Y1113622D03*
X980709Y1108866D03*
X954331Y1125591D03*
X971055Y1115748D03*
X982283Y1116142D03*
X963583Y1112213D03*
X954339Y1115697D03*
X954327Y1117772D03*
X974016Y1105512D03*
X985835Y1099606D03*
X986614Y1106299D03*
X965059Y1101969D03*
X960669Y1098280D03*
X987598Y1149213D03*
Y1156102D03*
X987161Y1128740D03*
X987205Y1131693D03*
X988232Y1145866D03*
X989476Y1137008D03*
X962598Y1137795D03*
X965354D03*
X967717Y1128740D03*
X961811Y1142520D03*
X955906Y1156299D03*
X962492Y1154331D03*
X967035D03*
X976181Y1134646D03*
X973819Y1149213D03*
X980709Y1145276D03*
Y1153150D03*
X973819Y1156102D03*
X955906Y1128740D03*
X959449Y1144094D03*
X953161Y1144882D03*
X964567Y1156547D03*
X984933Y1137008D03*
X953831Y1159449D03*
X1013780Y822638D03*
X1013583Y805709D03*
X1013780Y890748D03*
Y875197D03*
X1013189Y858858D03*
X1013386Y839173D03*
X1011811Y901969D03*
X1013780Y945866D03*
Y930118D03*
Y914370D03*
X1013976Y958071D03*
X1014173Y966535D03*
X1013780Y1028937D03*
Y1019685D03*
X1014961Y1068110D03*
X1013780Y1047244D03*
Y1075787D03*
X1012598Y1079528D03*
X1014764Y1098425D03*
G54D13*
X799213Y1014173D03*
G54D14*
X799508Y984827D03*
Y993882D03*
X872933Y780807D03*
X863272Y1152756D03*
X872327D03*
X931988Y780807D03*
X1005906Y993815D03*
Y984760D03*
G54D15*
G01X790945Y638681D02*
Y579626D01*
X1086220D01*
Y638681D01*
X790945D01*
G01X938583D02*
Y579626D01*
G01Y599311D02*
X1086220D01*
G01Y618996D02*
X938583D01*
G01X988488D02*
Y599311D01*
X798169Y1106024D03*
X802165Y1136024D03*
X794173D03*
G54D16*
X816732Y1152165D03*
X847835D03*
G54D17*
X895374Y890354D03*
X899311D03*
X903248D03*
X907185D03*
X911122D03*
Y894291D03*
X907185D03*
X903248D03*
X899311D03*
X895374D03*
X911122Y898228D03*
X907185D03*
X903248D03*
X899311D03*
X895374D03*
X911122Y902165D03*
X907185D03*
X903248D03*
X899311D03*
X895374D03*
X911122Y906102D03*
X907185D03*
X903248D03*
X899311D03*
X895374D03*
G54D18*
G01X794390Y692913D02*
X1011220D01*
G03X1017913Y700591I-552J7237D01*
G01Y964567D01*
G03X1013583Y976969I-19922J0D01*
G02X1009252Y989370I15591J12402D01*
G02X1013583Y1001772I19922J0D01*
G03X1017913Y1014173I-15591J12402D01*
G01Y1158811D01*
G03X1012157Y1164567I-5756J0D01*
G01X849803D01*
Y1159843D01*
X843504D01*
Y1151575D01*
X839961D01*
Y1159843D01*
X825000D01*
Y1151575D01*
X821457D01*
Y1159843D01*
X815157D01*
Y1164567D01*
X793354D01*
G03X787598Y1158811I0J-5756D01*
G01Y1014173D01*
G03X791929Y1001772I19922J0D01*
G02X796260Y989370I-15591J-12402D01*
G02X791929Y976969I-19922J0D01*
G03X787598Y964567I15591J-12402D01*
G01Y700591D01*
G03X794390Y692913I8087J312D01*
G01X950913Y586071D02*
Y593571D01*
X952780D01*
X953524Y593197D01*
X954083Y592697D01*
X954551Y591945D01*
X954925Y591071D01*
X955016Y589819D01*
X954925Y588571D01*
X954551Y587697D01*
X954083Y586945D01*
X953524Y586445D01*
X952780Y586071D01*
X950913D01*
G01X958130D02*
X960465Y593571D01*
X962799Y586071D01*
G01X961957Y588697D02*
X958972D01*
G01X967965Y593571D02*
Y586071D01*
G01X965819Y593571D02*
X970110D01*
G01X977331Y586071D02*
X973598D01*
Y593571D01*
X977331D01*
G01X975839Y589945D02*
X973598D01*
G01X982965Y585823D02*
X982780Y585945D01*
Y586197D01*
X982965Y586319D01*
X983150Y586197D01*
Y585945D01*
X982965Y585823D01*
G01Y589197D02*
X982780Y589319D01*
Y589571D01*
X982965Y589697D01*
X983150Y589571D01*
Y589319D01*
X982965Y589197D01*
G01X996193Y592323D02*
X996752Y593071D01*
X997406Y593445D01*
X998150Y593571D01*
X999083Y593323D01*
X999736Y592697D01*
X999925Y591945D01*
X999831Y591197D01*
X999457Y590571D01*
X997591Y589319D01*
X996752Y588445D01*
X996193Y587197D01*
X996004Y586071D01*
X999925D01*
G01X1005465Y593571D02*
X1004717Y593323D01*
X1004157Y592697D01*
X1003783Y591945D01*
X1003504Y590945D01*
X1003413Y589819D01*
X1003504Y588697D01*
X1003783Y587697D01*
X1004157Y586945D01*
X1004717Y586319D01*
X1005465Y586071D01*
X1006213Y586319D01*
X1006772Y586945D01*
X1007146Y587697D01*
X1007425Y588697D01*
X1007516Y589819D01*
X1007425Y590945D01*
X1007146Y591945D01*
X1006772Y592697D01*
X1006213Y593323D01*
X1005465Y593571D01*
G01X1012965Y586071D02*
Y593571D01*
X1011846Y592071D01*
G01Y586071D02*
X1014083D01*
G01X1020465D02*
X1021118Y586197D01*
X1021862Y586571D01*
X1022331Y587197D01*
X1022516Y588071D01*
X1022331Y588945D01*
X1021772Y589697D01*
X1020929Y590071D01*
X1020000D01*
X1019437Y590323D01*
X1018972Y590945D01*
X1018783Y591819D01*
X1019067Y592697D01*
X1019717Y593323D01*
X1020465Y593571D01*
X1021213Y593323D01*
X1021862Y592697D01*
X1022146Y591819D01*
X1021957Y590945D01*
X1021492Y590323D01*
X1020929Y590071D01*
X1020000D01*
X1019157Y589697D01*
X1018598Y588945D01*
X1018413Y588071D01*
X1018598Y587197D01*
X1019067Y586571D01*
X1019811Y586197D01*
X1020465Y586071D01*
G01X1026752Y588571D02*
X1029177D01*
G01X1035465Y586071D02*
Y593571D01*
X1034346Y592071D01*
G01Y586071D02*
X1036583D01*
G01X1042965Y593571D02*
X1042217Y593323D01*
X1041657Y592697D01*
X1041283Y591945D01*
X1041004Y590945D01*
X1040913Y589819D01*
X1041004Y588697D01*
X1041283Y587697D01*
X1041657Y586945D01*
X1042217Y586319D01*
X1042965Y586071D01*
X1043713Y586319D01*
X1044272Y586945D01*
X1044646Y587697D01*
X1044925Y588697D01*
X1045016Y589819D01*
X1044925Y590945D01*
X1044646Y591945D01*
X1044272Y592697D01*
X1043713Y593323D01*
X1042965Y593571D01*
G01X1049252Y588571D02*
X1051677D01*
G01X1056193Y592323D02*
X1056752Y593071D01*
X1057406Y593445D01*
X1058150Y593571D01*
X1059083Y593323D01*
X1059736Y592697D01*
X1059925Y591945D01*
X1059831Y591197D01*
X1059457Y590571D01*
X1057591Y589319D01*
X1056752Y588445D01*
X1056193Y587197D01*
X1056004Y586071D01*
X1059925D01*
G01X1063413Y587197D02*
X1063972Y586571D01*
X1064626Y586197D01*
X1065465Y586071D01*
X1066303Y586319D01*
X1066957Y586819D01*
X1067425Y587697D01*
X1067516Y588697D01*
X1067331Y589697D01*
X1066862Y590323D01*
X1066213Y590819D01*
X1065559Y590945D01*
X1064906Y590819D01*
X1064067Y590323D01*
X1064346Y593571D01*
X1066862D01*
G01X952768Y632744D02*
Y625244D01*
G01X950622Y632744D02*
X954913D01*
G01X962134Y625244D02*
X958402D01*
Y632744D01*
X962134D01*
G01X960642Y629118D02*
X958402D01*
G01X965807Y625244D02*
X969728Y632744D01*
G01X965807D02*
X969728Y625244D01*
G01X972933D02*
X975268Y632744D01*
X977602Y625244D01*
G01X976760Y627870D02*
X973776D01*
G01X980807Y626244D02*
X981555Y625618D01*
X982394Y625244D01*
X983142D01*
X983886Y625618D01*
X984449Y626244D01*
X984728Y627118D01*
X984539Y627992D01*
X984075Y628744D01*
X983232Y629244D01*
X982114Y629496D01*
X981461Y629992D01*
X981181Y630870D01*
X981370Y631744D01*
X981835Y632370D01*
X982488Y632744D01*
X983142D01*
X983795Y632496D01*
X984354Y631870D01*
G01X996650Y632744D02*
X998886D01*
G01X997768D02*
Y625244D01*
G01X996650D02*
X998886D01*
G01X1003122D02*
Y632744D01*
X1007413Y625244D01*
Y632744D01*
G01X1010807Y626244D02*
X1011555Y625618D01*
X1012394Y625244D01*
X1013142D01*
X1013886Y625618D01*
X1014449Y626244D01*
X1014728Y627118D01*
X1014539Y627992D01*
X1014075Y628744D01*
X1013232Y629244D01*
X1012114Y629496D01*
X1011461Y629992D01*
X1011181Y630870D01*
X1011370Y631744D01*
X1011835Y632370D01*
X1012488Y632744D01*
X1013142D01*
X1013795Y632496D01*
X1014354Y631870D01*
G01X1020268Y632744D02*
Y625244D01*
G01X1018122Y632744D02*
X1022413D01*
G01X1025902Y625244D02*
Y632744D01*
X1028232D01*
X1028980Y632370D01*
X1029449Y631870D01*
X1029634Y630870D01*
X1029449Y629870D01*
X1028886Y629244D01*
X1028232Y628870D01*
X1025902D01*
G01X1028232D02*
X1029634Y625244D01*
G01X1033217Y632744D02*
Y627370D01*
X1033587Y626244D01*
X1034335Y625492D01*
X1035268Y625244D01*
X1036201Y625492D01*
X1036949Y626244D01*
X1037319Y627370D01*
Y632744D01*
G01X1040343Y625244D02*
Y632744D01*
X1042768Y626492D01*
X1045193Y632744D01*
Y625244D01*
G01X1052134D02*
X1048402D01*
Y632744D01*
X1052134D01*
G01X1050642Y629118D02*
X1048402D01*
G01X1055622Y625244D02*
Y632744D01*
X1059913Y625244D01*
Y632744D01*
G01X1065268D02*
Y625244D01*
G01X1063122Y632744D02*
X1067413D01*
G01X1070807Y626244D02*
X1071555Y625618D01*
X1072394Y625244D01*
X1073142D01*
X1073886Y625618D01*
X1074449Y626244D01*
X1074728Y627118D01*
X1074539Y627992D01*
X1074075Y628744D01*
X1073232Y629244D01*
X1072114Y629496D01*
X1071461Y629992D01*
X1071181Y630870D01*
X1071370Y631744D01*
X1071835Y632370D01*
X1072488Y632744D01*
X1073142D01*
X1073795Y632496D01*
X1074354Y631870D01*
G01X958807Y613701D02*
Y606201D01*
X962539D01*
G01X966402Y612453D02*
X966961Y613201D01*
X967614Y613575D01*
X968358Y613701D01*
X969291Y613453D01*
X969945Y612827D01*
X970134Y612075D01*
X970039Y611327D01*
X969665Y610701D01*
X967799Y609449D01*
X966961Y608575D01*
X966402Y607327D01*
X966213Y606201D01*
X970134D01*
G54D19*
G01X812598Y838122D02*
Y842362D01*
G01D02*
Y846602D01*
G01X808358Y842362D02*
X812598D01*
G01D02*
X816839D01*
G01X812598Y848122D02*
Y852362D01*
G01D02*
Y856602D01*
G01X808358Y852362D02*
X812598D01*
G01D02*
X816839D01*
G01X822531Y948201D02*
Y952441D01*
G01D02*
Y956681D01*
G01X818291Y952441D02*
X822531D01*
G01D02*
X826772D01*
G01X832531Y1008201D02*
Y1012441D01*
G01Y998201D02*
Y1002441D01*
G01D02*
Y1006681D01*
G01X828291Y1002441D02*
X832531D01*
G01D02*
X836772D01*
G01X799213Y1009835D02*
Y1014173D01*
G01X832531Y1012441D02*
Y1016681D01*
G01X828291Y1012441D02*
X832531D01*
G01D02*
X836772D01*
G01X799213Y1014173D02*
Y1018512D01*
G01X794874Y1014173D02*
X799213D01*
G01D02*
X803551D01*
G01X797244Y1143890D02*
Y1152362D01*
G01D02*
Y1160835D01*
G01Y1152362D02*
X805717D01*
G01X992520Y838122D02*
Y842362D01*
G01D02*
Y846602D01*
G01X988280Y842362D02*
X992520D01*
G01D02*
X996760D01*
G01X992520Y848122D02*
Y852362D01*
G01D02*
Y856602D01*
G01X988280Y852362D02*
X992520D01*
G01D02*
X996760D01*
G01X992610Y958201D02*
Y962441D01*
G01D02*
Y966681D01*
G01X988370Y962441D02*
X992610D01*
G01D02*
X996850D01*
G01X1007087Y1143890D02*
Y1152362D01*
G01D02*
Y1160835D01*
G01X998614Y1152362D02*
X1007087D01*
M02*
