G04 ================== begin FILE IDENTIFICATION RECORD ==================*
G04 Layout Name:  LAUNCHXL-CC1352R1.brd*
G04 Film Name:    LAUNCHXL-CC1352R1_Layer3*
G04 File Format:  Gerber RS274X*
G04 File Origin:  Cadence Allegro 17.2-S041*
G04 Origin Date:  Thu Oct 25 19:57:46 2018*
G04 *
G04 Layer:  BOARD GEOMETRY/LAYER3*
G04 Layer:  DRAWING FORMAT/TITLE_BLOCK*
G04 Layer:  BOARD GEOMETRY/OUTLINE*
G04 Layer:  ETCH/L3*
G04 Layer:  PIN/L3*
G04 Layer:  VIA CLASS/L3*
G04 *
G04 Offset:    (0.000 0.000)*
G04 Mirror:    No*
G04 Mode:      Positive*
G04 Rotation:  0*
G04 FullContactRelief:  No*
G04 UndefLineWidth:     0.020*
G04 ================== end FILE IDENTIFICATION RECORD ====================*
%FSLAX25Y25*MOIN*%
%IR0*IPPOS*OFA0.00000B0.00000*MIA0B0*SFA1.00000B1.00000*%
%ADD10C,.149606*%
%ADD11C,.064961*%
%ADD14C,.003898*%
%ADD13C,.06689*%
%ADD16O,.055118X.082677*%
%ADD15C,.003937*%
%ADD12C,.015748*%
%ADD17C,.012598*%
%ADD18C,.000787*%
%ADD19C,.005906*%
%ADD20C,.007087*%
%ADD22C,.078898*%
%ADD24C,.052126*%
%ADD23C,.056063*%
%ADD26C,.076929*%
%ADD21C,.024567*%
%ADD25C,.024646*%
G75*
%LPD*%
G75*
G36*
G01X856173Y1006102D02*
X856890D01*
G02X857283Y1005709I0J-394D01*
G01Y998228D01*
G03X857677Y997835I394J0D01*
G01X974961D01*
Y997890D01*
X975642Y998382D01*
G02X975996Y998437I231J-318D01*
G03X976378Y998378I376J1170D01*
G03Y1000835I0J1228D01*
G03X975996Y1000776I-5J-1229D01*
G02X975642Y1000831I-123J373D01*
G01X975122Y1001209D01*
G02X974961Y1001524I232J318D01*
G01Y1005315D01*
G02X975354Y1005709I394J0D01*
G01X979937D01*
G02X980283Y1005504I1J-394D01*
G01X980618Y1004898D01*
G02X980606Y1004496I-344J-191D01*
G03X980012Y1002441I3255J-2055D01*
G03X987705I3846J0D01*
G03X987110Y1004496I-3849J0D01*
G02X987098Y1004898I332J211D01*
G01X987433Y1005504D01*
G02X987780Y1005709I345J-189D01*
G01X990000D01*
G02X990394Y1005315I0J-394D01*
G01Y997047D01*
G03X990787Y996654I394J0D01*
G01X1003228D01*
G02X1003622Y996260I0J-394D01*
G01Y995169D01*
G02X1003579Y994992I-393J2D01*
G03X1003299Y993815I2327J-1174D01*
G03X1003579Y992638I2607J-3D01*
G02X1003622Y992461I-350J-179D01*
G01Y986114D01*
G02X1003579Y985937I-393J2D01*
G03X1003299Y984760I2327J-1174D01*
G03X1003579Y983583I2607J-3D01*
G02X1003622Y983406I-350J-179D01*
G01Y952575D01*
G02X1003307Y952189I-394J0D01*
G01X1003303D01*
G03Y949780I240J-1205D01*
G01X1003307D01*
G02X1003622Y949394I-79J-386D01*
G01Y937055D01*
G02X1003516Y936783I-394J-2D01*
G01X1003142Y936390D01*
G02X1002878Y936264I-290J267D01*
G03Y933815I73J-1224D01*
G02X1003142Y933689I-26J-393D01*
G01X1003516Y933295D01*
G02X1003622Y933024I-288J-269D01*
G01Y877154D01*
G02X1003543Y876917I-393J0D01*
G03Y875445I988J-736D01*
G02X1003622Y875209I-315J-236D01*
G01Y850331D01*
G02X1003457Y850012I-393J2D01*
G01X1002929Y849634D01*
G02X1002571Y849583I-229J322D01*
G01Y849587D01*
G03X1002165Y849654I-400J-1162D01*
G03Y847197I0J-1228D01*
G03X1002571Y847264I5J1229D01*
G01Y847268D01*
G02X1002929Y847217I130J-373D01*
G01X1003457Y846839D01*
G02X1003622Y846520I-228J-321D01*
G01Y833224D01*
X1003591Y833150D01*
G03X1003496Y832681I1134J-472D01*
G01Y832677D01*
G02X1003382Y832402I-394J2D01*
G01X1002984Y832004D01*
G02X1002705Y831890I-277J280D01*
G01X997146D01*
G02X996878Y831996I1J393D01*
G01X996480Y832366D01*
G02X996358Y832626I270J286D01*
G03X988681I-3839J-265D01*
G02X988559Y832366I-392J26D01*
G01X988161Y831996D01*
G02X987894Y831890I-269J287D01*
G01X947480D01*
G02X947087Y832283I0J394D01*
G01Y839122D01*
G02X947201Y839398I393J-1D01*
G01X947587Y839795D01*
G02X947858Y839913I281J-276D01*
G01X947862D01*
G03Y842370I-28J1228D01*
G01X947858D01*
G02X947587Y842488I10J394D01*
G01X947201Y842886D01*
G02X947087Y843161I279J277D01*
G01Y868701D01*
G02X947480Y869094I394J0D01*
G01X958031D01*
G02X958425Y868701I0J-394D01*
G01Y864961D01*
G02X958031Y864567I-394J0D01*
G01X953937D01*
G03X953543Y864173I0J-394D01*
G01Y853870D01*
G03X953535Y853740I1377J-149D01*
G03X953543Y853610I1385J19D01*
G01Y845079D01*
G03X953937Y844685I394J0D01*
G01X988142D01*
G02X988465Y844520I2J-394D01*
G01X988839Y843992D01*
G02X988890Y843634I-321J-229D01*
G03X988673Y842362I3626J-1272D01*
G03X996366I3846J0D01*
G03X996150Y843634I-3842J0D01*
G02X996201Y843992I372J130D01*
G01X996630Y844598D01*
X996799Y844685D01*
X996850D01*
Y984827D01*
G02X996965Y985106I394J2D01*
G01X997138Y985280D01*
G02X997374Y985394I280J-278D01*
G03Y987835I-129J1220D01*
G02X997138Y987949I44J392D01*
G01X996965Y988122D01*
G02X996850Y988402I280J277D01*
G01Y988583D01*
G03X996457Y988976I-394J0D01*
G01X949843D01*
G03X949449Y988583I0J-394D01*
G01Y984154D01*
G02X949350Y983890I-394J-3D01*
G03X949035Y983071I913J-821D01*
G03X949059Y982835I1228J4D01*
G02X948976Y982508I-386J-76D01*
G01X948587Y982031D01*
G02X948283Y981890I-303J252D01*
G01X944594D01*
G02X944201Y982283I0J394D01*
G01Y982756D01*
G03X944020Y983299I-895J4D01*
G01X944016D01*
G02X943937Y983535I315J236D01*
G01Y987819D01*
G02X944094Y988134I393J0D01*
G01X944598Y988516D01*
G02X944941Y988583I239J-313D01*
G03X945276Y988535I337J1181D01*
G03Y990992I0J1228D01*
G03X944047Y989768I0J-1228D01*
G01Y989764D01*
G02X943933Y989488I-394J2D01*
G01X943535Y989091D01*
G02X943256Y988976I-277J280D01*
G01X938512D01*
G02X938236Y989091I2J394D01*
G01X936980Y990346D01*
G03X936705Y990461I-277J-280D01*
G01X933343D01*
X933335Y990472D01*
G03X932283Y990953I-1051J-910D01*
G03X930902Y989693I0J-1388D01*
G02X930776Y989441I-391J38D01*
G01X930382Y989079D01*
G02X930118Y988976I-265J291D01*
G01X870579D01*
G02X870185Y989370I0J394D01*
G01Y992484D01*
X870197Y992492D01*
G03X870677Y993543I-910J1051D01*
G03X867906I-1386J0D01*
G03X868386Y992492I1390J0D01*
G01X868398Y992484D01*
Y982358D01*
X868386Y982350D01*
G03X867906Y981299I910J-1051D01*
G03X869291Y979913I1386J0D01*
G03X870354Y980409I0J1387D01*
G02X870630Y980551I304J-251D01*
G01X871205Y980587D01*
G02X871496Y980480I22J-393D01*
G01X871500D01*
G03X872441Y980110I941J1011D01*
G03X873827Y981496I0J1386D01*
G03X873346Y982547I-1390J0D01*
G01X873335Y982555D01*
Y983130D01*
G02X873449Y983406I394J-2D01*
G01X873890Y983846D01*
G02X874449Y983843I278J-280D01*
G01X879031Y979138D01*
G02X879142Y978850I-284J-274D01*
G01X879122Y978276D01*
G02X878992Y977996I-393J13D01*
G03X878535Y976969I928J-1028D01*
G03X879921Y975583I1386J0D01*
G03X880925Y976012I0J1389D01*
G02X881209Y976134I285J-271D01*
G01X881780Y976138D01*
G02X882063Y976020I3J-393D01*
G01X882602Y975469D01*
G02X882705Y975280I-282J-275D01*
G03X883709Y974248I1351J310D01*
G02X883894Y974142I-96J-382D01*
G01X886913Y971039D01*
G02X886961Y970551I-282J-274D01*
G03X886764Y969882I1032J-667D01*
G03X887992Y968654I1228J0D01*
G03X888634Y968835I0J1228D01*
G02X889122Y968772I205J-336D01*
G01X898472Y959169D01*
G02X898583Y958894I-284J-273D01*
G01Y940563D01*
G02X898472Y940287I-394J-2D01*
G01X898299Y940114D01*
G02X898071Y939996I-285J272D01*
G03Y937563I156J-1217D01*
G02X898299Y937445I-57J-390D01*
G01X898472Y937272D01*
G02X898583Y936996I-284J-273D01*
G01Y936827D01*
G02X898390Y936488I-394J0D01*
G03X898173Y936327I621J-1059D01*
G02X897906Y936220I-269J287D01*
G01X888583D01*
G03X888189Y935827I0J-394D01*
G01Y930508D01*
G02X888035Y930197I-393J1D01*
G01X885504Y928232D01*
G02X885264Y928150I-241J311D01*
G01X879921D01*
G02X879528Y928543I0J394D01*
G01Y933417D01*
G02X879748Y933768I393J-3D01*
G01X883717Y935720D01*
G03X883937Y936071I-173J353D01*
G01Y954165D01*
G03X883819Y954445I-393J-2D01*
G01X880098Y958083D01*
X880067Y958157D01*
G03X879390Y958819I-1130J-480D01*
G01X879319Y958846D01*
X871248Y966740D01*
G02X871134Y967079I274J281D01*
G01X871224Y967713D01*
G02X871433Y968004I390J-59D01*
G03X872094Y969094I-568J1091D01*
G03X870866Y970323I-1228J0D01*
G03X869764Y969638I0J-1229D01*
G02X869476Y969425I-352J175D01*
G01X868843Y969315D01*
G02X868504Y969421I-64J388D01*
G01X859949Y977783D01*
G02X859846Y978173I277J281D01*
G01X860031Y978843D01*
G02X860323Y979118I378J-108D01*
G03X861268Y980315I-286J1197D01*
G03X860039Y981543I-1228J0D01*
G03X858839Y980571I0J-1228D01*
G02X858567Y980276I-385J82D01*
G01X857902Y980075D01*
G02X857512Y980169I-115J376D01*
G01X848618Y988866D01*
G03X848343Y988976I-273J-284D01*
G01X818346D01*
G03X817953Y988583I0J-394D01*
G01Y958661D01*
G02X817559Y958268I-394J0D01*
G01X815705D01*
G02X815339Y958516I-1J393D01*
G01X815067Y959205D01*
G02X815161Y959634I366J144D01*
G01X815165Y959638D01*
G03X816378Y962441I-2634J2803D01*
G03X808685I-3846J0D01*
G03X809898Y959638I3846J0D01*
G01X809902Y959634D01*
G02X809996Y959205I-271J-285D01*
G01X809724Y958516D01*
G02X809358Y958268I-366J145D01*
G01X807323D01*
G03X806929Y957874I0J-394D01*
G01Y882252D01*
G02X806732Y881913I-394J2D01*
G01X806134Y881571D01*
G02X805740I-197J341D01*
G03X805118Y881740I-622J-1058D01*
G03Y879283I0J-1228D01*
G03X805740Y879453I0J1227D01*
G02X806134I197J-341D01*
G01X806732Y879110D01*
G02X806929Y878772I-197J-341D01*
G01Y860039D01*
G02X806535Y859646I-394J0D01*
G01X792677D01*
G02X792283Y860039I0J394D01*
G01Y937732D01*
G02X792496Y938083I393J1D01*
G03Y940264I-568J1091D01*
G02X792283Y940614I181J349D01*
G01Y967260D01*
X792303Y967319D01*
G03X792370Y967717I-1161J400D01*
G03X792303Y968114I-1228J-2D01*
G01X792283Y968173D01*
Y970472D01*
G02X792677Y970866I394J0D01*
G01X797547D01*
G02X797878Y970689I2J-394D01*
G01X798244Y970138D01*
G02X798280Y969768I-329J-218D01*
G01X798276D01*
G03X798181Y969291I1135J-473D01*
G03X800638I1228J0D01*
G03X800543Y969768I-1229J4D01*
G01X800539D01*
G02X800575Y970138I364J152D01*
G01X800941Y970689D01*
G02X801272Y970866I329J-217D01*
G01X806850D01*
G03X807244Y971260I0J394D01*
G01Y985398D01*
G02X807374Y985689I394J-1D01*
G01X807819Y986083D01*
G02X808126Y986181I263J-292D01*
G03X808268Y986173I139J1221D01*
G03Y988630I0J1228D01*
G03X808126Y988622I-3J-1229D01*
G02X807819Y988720I-44J391D01*
G01X807374Y989114D01*
G02X807244Y989406I264J292D01*
G01Y992717D01*
G02X807543Y993098I393J0D01*
G03Y995484I-301J1193D01*
G02X807244Y995866I94J382D01*
G01Y997441D01*
G02X807638Y997835I394J0D01*
G01X846850D01*
G03X847244Y998228I0J394D01*
G01Y1005709D01*
G02X847638Y1006102I394J0D01*
G01X848890D01*
G02X849244Y1005882I1J-394D01*
G01X849555Y1005236D01*
G02X849512Y1004823I-354J-172D01*
G03X848685Y1002441I3018J-2382D01*
G03X856378I3846J0D01*
G03X855551Y1004823I-3844J0D01*
G02X855508Y1005236I311J241D01*
G01X855819Y1005882D01*
G02X856173Y1006102I354J-173D01*
G37*
G36*
G01X826772Y946161D02*
Y945669D01*
X827610Y945618D01*
X827559Y946457D01*
X827067D01*
G03X826772Y946161I0J-295D01*
G37*
G36*
G01X815780Y949488D02*
Y952441D01*
X812480Y952492D01*
X812531Y949193D01*
X815484D01*
G03X815780Y949488I0J295D01*
G37*
G36*
G01Y909488D02*
Y912441D01*
X812480Y912492D01*
X812531Y909193D01*
X815484D01*
G03X815780Y909488I0J295D01*
G37*
G36*
G01X794035Y1162598D02*
X812598D01*
G02X812992Y1162205I0J-394D01*
G01Y1147441D01*
G03X813386Y1147047I394J0D01*
G01X824992D01*
G02X825386Y1146654I0J-394D01*
G01Y1135878D01*
G02X825272Y1135598I-394J-2D01*
G01X824878Y1135201D01*
G02X824598Y1135087I-278J280D01*
G03X823378Y1133858I8J-1228D01*
G03X824606Y1132630I1228J0D01*
G03X825827Y1133732I0J1227D01*
G02X825957Y1133984I392J-43D01*
G01X826350Y1134339D01*
G02X826614Y1134441I265J-291D01*
G01X832244D01*
G02X832508Y1134339I-1J-394D01*
G01X832902Y1133984D01*
G02X833031Y1133732I-262J-295D01*
G03X833213Y1133201I1223J120D01*
G02X833276Y1132992I-330J-214D01*
G01Y1132756D01*
G02X833213Y1132547I-393J5D01*
G03X833024Y1131890I1040J-655D01*
G03X834252Y1130661I1228J0D01*
G03X834969Y1130894I-2J1228D01*
G01X834972D01*
G02X835201Y1130969I231J-319D01*
G01X835665D01*
G02X835894Y1130894I-2J-394D01*
G01X835898D01*
G03X836614Y1130661I719J995D01*
G03X837843Y1131890I0J1228D01*
G03X837630Y1132583I-1229J2D01*
G02X837559Y1132807I322J225D01*
G01Y1133047D01*
G02X837630Y1133272I393J-1D01*
G03X837827Y1133772I-1017J689D01*
G01Y1133776D01*
G02X837961Y1134012I389J-64D01*
G01X838354Y1134346D01*
G02X838610Y1134441I256J-299D01*
G01X841323D01*
G02X841598Y1134327I-2J-394D01*
G01X842594Y1133331D01*
G02X842709Y1133055I-279J-277D01*
G01Y1129461D01*
G02X842500Y1129114I-394J1D01*
G03X841850Y1128031I577J-1083D01*
G03X843079Y1126803I1228J0D01*
G03X843839Y1127067I0J1226D01*
G02X844094Y1127150I242J-311D01*
G01X844602Y1127134D01*
G02X844850Y1127035I-12J-393D01*
G01X844854D01*
G03X845075Y1126878I820J914D01*
G01X845079D01*
G02X845268Y1126642I-191J-346D01*
G01X845421Y1126098D01*
G02X845386Y1125799I-379J-107D01*
G01Y1125795D01*
G03X845228Y1125197I1070J-602D01*
G03X846457Y1123969I1228J0D01*
G03X847591Y1124728I0J1226D01*
G02X847862Y1124961I364J-151D01*
G01X848480Y1125114D01*
G02X848827Y1125035I95J-382D01*
G03X849606Y1124756I780J947D01*
G03X850835Y1125984I0J1228D01*
G03X850453Y1126874I-1227J0D01*
G02X850335Y1127193I274J283D01*
G01X850390Y1127811D01*
G02X850567Y1128106I392J-35D01*
G03X850587Y1128118I-622J1058D01*
G02X850811Y1128189I225J-322D01*
G01X851051D01*
G02X851276Y1128118I-1J-393D01*
G03X851969Y1127906I691J1016D01*
G03Y1130362I0J1228D01*
G03X851276Y1130150I-2J-1229D01*
G02X851051Y1130079I-225J322D01*
G01X850811D01*
G02X850587Y1130150I1J393D01*
G03X849894Y1130362I-691J-1016D01*
G03X848665Y1129134I0J-1228D01*
G03X849047Y1128244I1227J0D01*
G02X849165Y1127925I-274J-283D01*
G01X849110Y1127307D01*
G02X848933Y1127012I-392J35D01*
G03X848472Y1126453I675J-1026D01*
G02X848201Y1126220I-364J151D01*
G01X847583Y1126067D01*
G02X847236Y1126146I-95J382D01*
G03X847051Y1126272I-781J-948D01*
G01X847047D01*
G02X846858Y1126508I191J346D01*
G01X846705Y1127051D01*
G02X846740Y1127350I379J107D01*
G01Y1127354D01*
G03X846898Y1127953I-1070J602D01*
G03X846421Y1128925I-1231J0D01*
G02X846268Y1129236I240J312D01*
G01Y1140362D01*
G03X845874Y1140756I-394J0D01*
G01X829535D01*
G02X829142Y1141150I0J394D01*
G01Y1143661D01*
G02X829244Y1143925I394J-1D01*
G01X829598Y1144319D01*
G02X829850Y1144449I295J-262D01*
G03X830504Y1144720I-124J1221D01*
G02X830752Y1144807I246J-307D01*
G01X831256D01*
G02X831504Y1144720I2J-393D01*
G03X832283Y1144441I780J947D01*
G03X833185Y1144835I0J1229D01*
G02X833449Y1144961I289J-267D01*
G01X833988Y1145000D01*
G02X834264Y1144913I28J-393D01*
G03X835039Y1144638I776J954D01*
G03X835720Y1144843I2J1229D01*
G02X835953Y1144909I220J-326D01*
G01X836417Y1144890D01*
G02X836646Y1144807I-13J-393D01*
G03X837402Y1144547I756J970D01*
G03X838630Y1145776I0J1228D01*
G03X838594Y1146067I-1228J-2D01*
G02X838665Y1146406I382J97D01*
G01X839051Y1146898D01*
G02X839362Y1147047I309J-245D01*
G01X851772D01*
G03X852165Y1147441I0J394D01*
G01Y1162008D01*
G02X852559Y1162402I394J0D01*
G01X875386D01*
G02X875780Y1162008I0J-394D01*
G01Y1160429D01*
G02X875587Y1160091I-394J0D01*
G01X875000Y1159744D01*
G02X874606Y1159736I-204J338D01*
G03X874016Y1159890I-594J-1074D01*
G03Y1157433I0J-1228D01*
G03X874606Y1157587I-4J1227D01*
G02X875000Y1157579I190J-346D01*
G01X875587Y1157232D01*
G02X875780Y1156894I-201J-339D01*
G01Y1142154D01*
G02X875685Y1141898I-394J0D01*
G01X875346Y1141504D01*
G02X875106Y1141374I-296J260D01*
G03Y1138941I183J-1217D01*
G02X875346Y1138811I-55J-389D01*
G01X875685Y1138417D01*
G02X875780Y1138161I-299J-256D01*
G01Y1123122D01*
G02X875602Y1122795I-394J2D01*
G01X875055Y1122429D01*
G02X874685Y1122394I-218J328D01*
G03X874213Y1122488I-472J-1134D01*
G03X873496Y1122256I2J-1228D01*
G01X873492D01*
G02X873264Y1122181I-231J319D01*
G01X872799D01*
G02X872571Y1122256I2J394D01*
G01X872567D01*
G03X871850Y1122488I-719J-995D01*
G03Y1120031I0J-1228D01*
G03X872567Y1120264I-2J1228D01*
G01X872571D01*
G02X872799Y1120339I231J-319D01*
G01X873264D01*
G02X873492Y1120264I-2J-394D01*
G01X873496D01*
G03X874213Y1120031I719J995D01*
G03X874685Y1120126I0J1228D01*
G02X875055Y1120091I152J-363D01*
G01X875602Y1119724D01*
G02X875780Y1119398I-216J-329D01*
G01Y1114362D01*
G03X876173Y1113969I394J0D01*
G01X878736D01*
G02X879130Y1113575I0J-394D01*
G01X879134Y1086331D01*
G02X878988Y1086028I-394J3D01*
G01X878516Y1085638D01*
G02X878189Y1085555I-251J304D01*
G03X877953Y1085579I-240J-1204D01*
G03Y1083122I0J-1228D01*
G03X878189Y1083146I-4J1228D01*
G02X878516Y1083063I76J-387D01*
G01X878988Y1082673D01*
G02X879134Y1082370I-248J-306D01*
G01Y1081213D01*
G02X878988Y1080909I-394J3D01*
G01X878516Y1080520D01*
G02X878189Y1080437I-251J304D01*
G03X877953Y1080461I-240J-1204D01*
G03Y1078004I0J-1228D01*
G03X878189Y1078028I-4J1228D01*
G02X878516Y1077945I76J-387D01*
G01X878988Y1077555D01*
G02X879134Y1077252I-248J-306D01*
G01Y1068134D01*
G02X878917Y1067783I-393J1D01*
G01X878291Y1067461D01*
G02X877882Y1067488I-182J349D01*
G01Y1067492D01*
G03X877165Y1067720I-714J-1001D01*
G03X875937Y1066492I0J-1228D01*
G03X875949Y1066311I1229J-11D01*
G01X875953Y1066307D01*
G02X875854Y1065988I-390J-54D01*
G01X875449Y1065531D01*
G02X875138Y1065402I-293J263D01*
G01X875091D01*
G03X876319Y1064173I0J-1228D01*
G03X876307Y1064354I-1229J11D01*
G01X876303Y1064358D01*
G02X876402Y1064677I390J54D01*
G01X876807Y1065134D01*
G02X877118Y1065264I293J-263D01*
G01X877165D01*
G03X877882Y1065492I3J1229D01*
G01Y1065496D01*
G02X878291Y1065524I227J-322D01*
G01X878917Y1065201D01*
G02X879134Y1064850I-177J-351D01*
G01Y1046110D01*
G02X879004Y1045819I-393J1D01*
G01X878571Y1045421D01*
G02X878268Y1045323I-263J293D01*
G03X878154Y1045327I-99J-1225D01*
G03Y1042870I0J-1228D01*
G03X878268Y1042874I15J1229D01*
G02X878571Y1042776I41J-391D01*
G01X879004Y1042378D01*
G02X879134Y1042091I-263J-292D01*
G01Y1041378D01*
G02X879004Y1041087I-394J1D01*
G01X878571Y1040693D01*
G02X878268Y1040594I-263J293D01*
G03X878150Y1040598I-100J-1225D01*
G03X877193Y1040142I0J-1230D01*
G02X876980Y1040008I-305J248D01*
G01X876520Y1039890D01*
G02X876268Y1039909I-97J382D01*
G03X875787Y1040008I-482J-1130D01*
G03Y1037551I0J-1228D01*
G03X876744Y1038008I0J1230D01*
G02X876957Y1038142I305J-248D01*
G01X877417Y1038260D01*
G02X877669Y1038240I97J-382D01*
G03X878043Y1038146I484J1129D01*
G01X878047D01*
G02X878335Y1037976I-37J-391D01*
G01X878685Y1037476D01*
G02X878740Y1037146I-325J-224D01*
G01Y1037142D01*
G03X878693Y1036811I1180J-337D01*
G03X879921Y1035583I1228J0D01*
G03X881016Y1036256I0J1226D01*
G02X881295Y1036465I351J-179D01*
G01X881913Y1036583D01*
G02X882252Y1036488I74J-388D01*
G03X883071Y1036173I821J913D01*
G03X884260Y1037098I0J1227D01*
G02X884642Y1037394I381J-98D01*
G01X902362Y1037425D01*
G02X902756Y1037031I0J-394D01*
G01Y1030512D01*
G02X902362Y1030118I-394J0D01*
G01X894724D01*
G02X894382Y1030319I1J394D01*
G01Y1030323D01*
G03X892232I-1075J-602D01*
G01Y1030319D01*
G02X891890Y1030118I-343J193D01*
G01X877232D01*
G02X877028Y1030177I3J393D01*
G03X875728I-650J-1048D01*
G02X875524Y1030118I-207J334D01*
G01X863583D01*
G02X863201Y1030417I0J393D01*
G03X860815I-1193J-301D01*
G02X860433Y1030118I-382J94D01*
G01X836811D01*
G03X836417Y1029724I0J-394D01*
G01Y1022654D01*
G02X836303Y1022374I-394J-2D01*
G01X836130Y1022201D01*
G02X835894Y1022087I-280J278D01*
G03Y1019646I129J-1220D01*
G02X836130Y1019531I-44J-392D01*
G01X836303Y1019358D01*
G02X836417Y1019079I-280J-277D01*
G01Y1015894D01*
G02X836185Y1015535I-394J1D01*
G01X835524Y1015240D01*
G02X835098Y1015303I-164J358D01*
G01Y1015307D01*
G03X832531Y1016287I-2567J-2871D01*
G03Y1008594I0J-3846D01*
G03X835098Y1009575I0J3851D01*
G01Y1009579D01*
G02X835524Y1009642I261J-295D01*
G01X836185Y1009346D01*
G02X836417Y1008988I-161J-359D01*
G01Y1008390D01*
G02X836378Y1008217I-394J-2D01*
G03X836252Y1007677I1102J-542D01*
G03X836378Y1007138I1228J2D01*
G02X836417Y1006965I-355J-172D01*
G01Y1006496D01*
G02X836024Y1006102I-394J0D01*
G01X833713D01*
X833654Y1006118D01*
G03X832531Y1006287I-1128J-3676D01*
G03X831409Y1006118I6J-3845D01*
G01X831350Y1006102D01*
X829028D01*
G02X828697Y1006280I-2J394D01*
G01X828331Y1006831D01*
G02X828295Y1007201I329J218D01*
G01X828299D01*
G03X828394Y1007677I-1135J473D01*
G03X825937I-1228J0D01*
G03X826031Y1007201I1229J-4D01*
G01X826035D01*
G02X826000Y1006831I-364J-152D01*
G01X825634Y1006280D01*
G02X825303Y1006102I-329J217D01*
G01X791732D01*
G02X791378Y1006323I-1J394D01*
G02X789571Y1014169I16143J7849D01*
G01Y1034752D01*
G02X789744Y1035079I393J1D01*
G01X790295Y1035445D01*
G02X790665Y1035480I218J-327D01*
G03X791142Y1035386I473J1135D01*
G03Y1037843I0J1228D01*
G03X790665Y1037748I-4J-1229D01*
G02X790295Y1037783I-152J362D01*
G01X789744Y1038150D01*
G02X789571Y1038476I220J326D01*
G01Y1049205D01*
G02X789764Y1049547I394J4D01*
G01X790354Y1049894D01*
G02X790744Y1049898I198J-340D01*
G03X791339Y1049744I594J1074D01*
G03Y1052201I0J1228D01*
G03X790744Y1052047I0J-1228D01*
G02X790354Y1052051I-191J344D01*
G01X789764Y1052398D01*
G02X789571Y1052740I201J339D01*
G01Y1056878D01*
G02X789713Y1057181I393J1D01*
G01X790185Y1057571D01*
G02X790512Y1057654I251J-304D01*
G03X790748Y1057630I240J1204D01*
G03Y1060087I0J1228D01*
G03X790512Y1060063I4J-1228D01*
G02X790185Y1060146I-76J387D01*
G01X789713Y1060535D01*
G02X789571Y1060839I252J302D01*
G01Y1060862D01*
G02X789728Y1061177I393J0D01*
G01X790240Y1061559D01*
G02X790591Y1061618I234J-317D01*
G03X790945Y1061567I351J1178D01*
G03Y1064024I0J1228D01*
G03X790591Y1063972I-3J-1229D01*
G02X790240Y1064031I-117J376D01*
G01X789728Y1064413D01*
G02X789571Y1064728I235J314D01*
G01Y1064752D01*
G02X789713Y1065055I393J1D01*
G01X790185Y1065445D01*
G02X790512Y1065528I251J-304D01*
G03X790748Y1065504I240J1204D01*
G03Y1067961I0J1228D01*
G03X790512Y1067937I4J-1228D01*
G02X790185Y1068020I-76J387D01*
G01X789713Y1068409D01*
G02X789571Y1068713I252J302D01*
G01X789567Y1146772D01*
G02X789831Y1147142I393J-1D01*
G01X790535Y1147394D01*
G02X790972Y1147272I132J-371D01*
G01Y1147268D01*
G03X797244Y1144283I6272J5098D01*
G03Y1160441I0J8079D01*
G03X790303Y1156496I0J-8079D01*
G02X789965Y1156303I-338J200D01*
G01X789961D01*
G02X789567Y1156697I0J393D01*
G01Y1157720D01*
G02X789669Y1157988I394J3D01*
G01X793744Y1162469D01*
G02X794035Y1162598I292J-264D01*
G37*
G36*
G01X826378Y1147047D02*
X828150D01*
G02X828543Y1146654I0J-394D01*
G01Y1146012D01*
X828531Y1145965D01*
G03X828496Y1145669I1193J-293D01*
G03X828531Y1145374I1229J-2D01*
G01X828543Y1145327D01*
Y1140551D01*
G03X828937Y1140157I394J0D01*
G01X845276D01*
G02X845669Y1139764I0J-394D01*
G01Y1130315D01*
G02X845276Y1129921I-394J0D01*
G01X843701D01*
G02X843307Y1130315I0J394D01*
G01Y1133303D01*
G03X843193Y1133579I-394J-2D01*
G01X841846Y1134925D01*
G03X841571Y1135039I-277J-280D01*
G01X837217D01*
X837134Y1135079D01*
G03X836614Y1135193I-517J-1115D01*
G03X836094Y1135079I-2J-1229D01*
G01X836012Y1135039D01*
X834594D01*
X834547Y1135051D01*
G03X834252Y1135087I-293J-1193D01*
G03X833957Y1135051I-2J-1229D01*
G01X833909Y1135039D01*
X826378D01*
G02X825984Y1135433I0J394D01*
G01Y1146654D01*
G02X826378Y1147047I394J0D01*
G37*
G36*
G01X904575Y919094D02*
X923622D01*
G02X924016Y918701I0J-394D01*
G01Y917654D01*
G02X923764Y917287I-393J1D01*
G01Y917283D01*
G03X923315Y916980I446J-1144D01*
G02X923004Y916858I-286J270D01*
G01X922394Y916898D01*
G02X922098Y917059I23J392D01*
G03X921102Y917567I-996J-723D01*
G03Y915110I0J-1228D01*
G03X922000Y915500I0J1229D01*
G02X922311Y915622I286J-270D01*
G01X922921Y915583D01*
G02X923217Y915421I-23J-392D01*
G03X923764Y915000I993J723D01*
G01Y914996D01*
G02X924016Y914630I-141J-367D01*
G01Y884843D01*
G02X923622Y884449I-394J0D01*
G01X891417D01*
G02X891024Y884843I0J394D01*
G01Y895866D01*
G03X890630Y896260I-394J0D01*
G01X880079D01*
G02X879685Y896654I0J394D01*
G01Y918701D01*
G02X880079Y919094I394J0D01*
G01X899205D01*
G02X899598Y918701I0J-394D01*
G01Y916315D01*
X899587Y916307D01*
G03X899106Y915256I910J-1051D01*
G03X900492Y913870I1386J0D01*
G03X901457Y914260I0J1388D01*
G02X901661Y914366I276J-281D01*
G01X901894Y914406D01*
G02X902122Y914382I75J-387D01*
G03X902677Y914264I560J1267D01*
G03X904063Y915650I0J1386D01*
G03X903823Y916433I-1387J3D01*
G02X903752Y916673I322J226D01*
G01X903764Y916909D01*
G02X903878Y917169I394J-18D01*
G01X904067Y917358D01*
G03X904181Y917634I-280J277D01*
G01Y918701D01*
G02X904575Y919094I394J0D01*
G37*
G36*
G01X889213Y935622D02*
X897406D01*
G02X897795Y935280I0J-393D01*
G01X897799Y935276D01*
G03X898748Y934236I1217J158D01*
G02X899055Y933850I-87J-385D01*
G01Y920087D01*
G02X898661Y919693I-394J0D01*
G01X879720D01*
G02X879339Y919988I0J394D01*
G01Y919992D01*
G03X878150Y920913I-1189J-307D01*
G03Y918457I0J-1228D01*
G03X878240Y918461I-8J1228D01*
G02X878535Y918354I25J-393D01*
G01X878961Y917961D01*
G02X879087Y917673I-268J-289D01*
G01Y899035D01*
G02X878945Y898736I-393J3D01*
G01X878484Y898346D01*
G02X878161Y898256I-258J298D01*
G03X877953Y898276I-219J-1208D01*
G03X876724Y897047I0J-1228D01*
G03X877114Y896150I1229J0D01*
G02X877240Y895862I-268J-289D01*
G01Y895280D01*
G02X877114Y894992I-394J1D01*
G03X876724Y894094I839J-898D01*
G03X879087Y894567I1228J0D01*
G02X879122Y894937I363J152D01*
G01X879488Y895484D01*
G02X879815Y895661I329J-216D01*
G01X890031D01*
G02X890425Y895268I0J-394D01*
G01Y885677D01*
G02X890319Y885406I-394J-2D01*
G01X889949Y885012D01*
G02X889685Y884886I-290J267D01*
G03X888921Y884555I77J-1225D01*
G02X888626Y884449I-270J287D01*
G01X888043Y884488D01*
G02X887764Y884634I27J392D01*
G03X886811Y885087I-953J-776D01*
G03X885583Y883858I0J-1228D01*
G03X885819Y883134I1229J0D01*
G02X885571Y882512I-320J-233D01*
G03X885484Y882492I264J-1360D01*
G01X885437Y882480D01*
X879024D01*
G02X878661Y882724I2J394D01*
G03X876394I-1134J-472D01*
G02X876031Y882480I-364J150D01*
G01X872362D01*
G02X871969Y882874I0J394D01*
G01Y920504D01*
G02X872142Y920831I394J1D01*
G03Y922870I-685J1020D01*
G02X871969Y923197I220J326D01*
G01Y926969D01*
G02X872362Y927362I394J0D01*
G01X886004D01*
G03X886252Y927449I1J394D01*
G01X888673Y929409D01*
G03X888819Y929717I-248J306D01*
G01Y935228D01*
G02X889213Y935622I394J0D01*
G37*
G36*
G01X848760Y879634D02*
X846677Y877543D01*
X848969Y875173D01*
X851260Y877543D01*
X849177Y879634D01*
G03X848760I-209J-209D01*
G37*
G36*
G01X858760D02*
X856677Y877543D01*
X858969Y875173D01*
X861260Y877543D01*
X859177Y879634D01*
G03X858760I-209J-209D01*
G37*
G36*
G01X881634Y950717D02*
X881988Y950370D01*
X882614Y950925D01*
X881988Y951480D01*
X881634Y951134D01*
G03Y950717I209J-209D01*
G37*
G36*
G01X881575Y945067D02*
X881929Y944720D01*
X882555Y945276D01*
X881929Y945831D01*
X881575Y945484D01*
G03Y945067I209J-209D01*
G37*
G36*
G01X857165Y907665D02*
X857520Y907319D01*
X858146Y907874D01*
X857520Y908429D01*
X857165Y908083D01*
G03Y907665I209J-209D01*
G37*
G36*
G01X880413Y977756D02*
X879921D01*
X879870Y976917D01*
X880709Y976969D01*
Y977461D01*
G03X880413Y977756I-295J0D01*
G37*
G36*
G01X873917Y984843D02*
X874409D01*
X874461Y985681D01*
X873622Y985630D01*
Y985138D01*
G03X873917Y984843I295J0D01*
G37*
G36*
G01X872232Y982402D02*
X871886Y982047D01*
X872441Y981421D01*
X872996Y982047D01*
X872650Y982402D01*
G03X872232I-209J-209D01*
G37*
G36*
G01X887598Y972697D02*
Y973189D01*
X886760Y973240D01*
X886811Y972402D01*
X887303D01*
G03X887598Y972697I0J295D01*
G37*
G36*
G01X884961Y975799D02*
X884606Y976146D01*
X883980Y975591D01*
X884606Y975035D01*
X884961Y975382D01*
G03Y975799I-209J209D01*
G37*
G36*
G01X869083Y982205D02*
X868736Y981850D01*
X869291Y981224D01*
X869846Y981850D01*
X869500Y982205D01*
G03X869083I-209J-209D01*
G37*
G36*
G01X869500Y992638D02*
X869846Y992992D01*
X869291Y993618D01*
X868736Y992992D01*
X869083Y992638D01*
G03X869500I209J209D01*
G37*
G36*
G01X1013886Y1078937D02*
X1015547D01*
G02X1015941Y1078543I0J-394D01*
G01Y1070122D01*
G02X1015811Y1069831I-393J1D01*
G01X1015378Y1069433D01*
G02X1015075Y1069335I-263J293D01*
G03X1014961Y1069339I-99J-1225D01*
G03Y1066882I0J-1228D01*
G03X1015075Y1066886I15J1229D01*
G02X1015378Y1066787I41J-391D01*
G01X1015811Y1066390D01*
G02X1015941Y1066098I-263J-292D01*
G01Y1014169D01*
G02X1014823Y1007933I-17951J0D01*
G02X1014453Y1007677I-369J138D01*
G01X974732D01*
G02X974465Y1007783I1J394D01*
G03X972780I-843J-893D01*
G02X972512Y1007677I-269J287D01*
G01X952945D01*
G02X952606Y1007870I0J394D01*
G01X952260Y1008461D01*
G02X952256Y1008850I339J198D01*
G01Y1008854D01*
G03X952409Y1009449I-1074J594D01*
G03X949953I-1228J0D01*
G03X950106Y1008854I1228J0D01*
G01Y1008850D01*
G02X950102Y1008461I-343J-191D01*
G01X949756Y1007870D01*
G02X949417Y1007677I-339J201D01*
G01X908854D01*
X908776Y1007713D01*
G03X907760I-508J-1115D01*
G01X907681Y1007677D01*
X839055D01*
G02X838673Y1007976I0J393D01*
G03X838465Y1008413I-1192J-301D01*
G02X838386Y1008650I315J236D01*
G01Y1009240D01*
G02X838634Y1009606I394J0D01*
G01X839319Y1009878D01*
G02X839748Y1009787I147J-365D01*
G01Y1009783D01*
G03X842531Y1008594I2781J2658D01*
G03Y1016287I0J3846D01*
G03X839748Y1015098I-2J-3847D01*
G01Y1015094D01*
G02X839319Y1015004I-282J274D01*
G01X838634Y1015276D01*
G02X838386Y1015642I146J366D01*
G01Y1028543D01*
G02X838780Y1028937I394J0D01*
G01X854283D01*
G02X854677Y1028543I0J-394D01*
G03X857134I1228J0D01*
G02X857528Y1028937I394J0D01*
G01X861665D01*
X861713Y1028925D01*
G03X862008Y1028890I293J1193D01*
G03X862303Y1028925I2J1229D01*
G01X862350Y1028937D01*
X874866D01*
G02X875232Y1028685I-1J-393D01*
G01X875236D01*
G03X877520I1142J446D01*
G01X877524D01*
G02X877890Y1028937I367J-141D01*
G01X892197D01*
G02X892465Y1028831I-1J-394D01*
G03X894150I843J893D01*
G02X894417Y1028937I269J-287D01*
G01X911543D01*
G02X911894Y1028724I1J-394D01*
G01X912217Y1028098D01*
G02X912189Y1027689I-349J-182D01*
G03X911961Y1026976I998J-713D01*
G03X914417I1228J0D01*
G03X914189Y1027689I-1226J0D01*
G02X914161Y1028098I322J227D01*
G01X914484Y1028724D01*
G02X914835Y1028937I350J-181D01*
G01X915087D01*
G02X915437Y1028724I1J-394D01*
G01X915760Y1028098D01*
G02X915732Y1027689I-349J-182D01*
G03X915504Y1026976I998J-713D01*
G03X917961I1228J0D01*
G03X917732Y1027689I-1226J0D01*
G02X917705Y1028098I322J227D01*
G01X918028Y1028724D01*
G02X918378Y1028937I350J-181D01*
G01X926835D01*
G02X927201Y1028685I-1J-393D01*
G01X927205D01*
G03X929488I1142J446D01*
G01X929492D01*
G02X929858Y1028937I367J-141D01*
G01X963654D01*
G02X963921Y1028831I-1J-394D01*
G03X965606I843J893D01*
G02X965874Y1028937I269J-287D01*
G01X972433D01*
G02X972827Y1028543I0J-394D01*
G01Y1020665D01*
G02X972634Y1020327I-394J0D01*
G01X972047Y1019980D01*
G02X971654Y1019972I-204J338D01*
G03X971063Y1020126I-594J-1074D01*
G03Y1017669I0J-1228D01*
G03X971654Y1017823I-4J1227D01*
G02X972047Y1017815I190J-346D01*
G01X972634Y1017469D01*
G02X972827Y1017130I-201J-339D01*
G01Y1017118D01*
X988787D01*
G03X989181Y1017512I0J394D01*
G01Y1025398D01*
G02X989283Y1025661I394J-1D01*
G01X989638Y1026055D01*
G02X989890Y1026185I295J-262D01*
G03Y1028626I-124J1220D01*
G02X989638Y1028756I43J392D01*
G01X989283Y1029150D01*
G02X989181Y1029413I291J265D01*
G01Y1031878D01*
X989209Y1038898D01*
G02X989500Y1039276I394J-2D01*
G03X990402Y1040461I-328J1185D01*
G03X989508Y1041642I-1227J0D01*
G02X989220Y1042024I107J380D01*
G01X989331Y1068866D01*
G02X989547Y1069217I393J-1D01*
G01X990185Y1069531D01*
G02X990598Y1069492I175J-352D01*
G03X991339Y1069244I740J980D01*
G03X992555Y1070291I0J1230D01*
G02X992748Y1070575I388J-57D01*
G01X993287Y1070886D01*
G02X993634Y1070909I197J-341D01*
G03X994094Y1070819I463J1137D01*
G03Y1073276I0J1228D01*
G03X992878Y1072228I0J-1230D01*
G02X992685Y1071945I-388J57D01*
G01X992146Y1071634D01*
G02X991799Y1071610I-197J341D01*
G03X991339Y1071701I-463J-1137D01*
G03X990606Y1071457I2J-1228D01*
G02X990193Y1071421I-235J317D01*
G01X989559Y1071744D01*
G02X989343Y1072094I177J351D01*
G01X989354Y1074559D01*
G02X989559Y1074902I393J-2D01*
G03X990205Y1075984I-585J1083D01*
G03X989567Y1077059I-1225J0D01*
G02X989362Y1077406I190J346D01*
G01X989370Y1078543D01*
G02X989764Y1078937I394J0D01*
G01X999165D01*
G02X999453Y1078811I-1J-393D01*
G01X999850Y1078390D01*
G02X999957Y1078098I-287J-270D01*
G01Y1078094D01*
G03X999953Y1078020I1223J-102D01*
G03X1001181Y1076791I1228J0D01*
G03X1002390Y1077811I0J1226D01*
G02X1002508Y1078028I387J-71D01*
G01X1002689Y1078205D01*
G02X1002909Y1078311I273J-285D01*
G03X1003732Y1078783I-152J1218D01*
G02X1004043Y1078937I312J-240D01*
G01X1011311D01*
G02X1011622Y1078783I-1J-394D01*
G03X1013575I976J742D01*
G02X1013886Y1078937I312J-240D01*
G37*
G36*
G01X876772Y1162598D02*
X920079D01*
G02X920472Y1162205I0J-394D01*
G01Y1160248D01*
G02X920331Y1159945I-394J-1D01*
G01X919854Y1159555D01*
G02X919528Y1159472I-251J304D01*
G03X919291Y1159496I-240J-1204D01*
G03Y1157039I0J-1228D01*
G03X919528Y1157063I-4J1228D01*
G02X919854Y1156980I76J-386D01*
G01X920331Y1156591D01*
G02X920472Y1156287I-252J-303D01*
G01Y1155524D01*
G02X920331Y1155220I-394J-1D01*
G01X919854Y1154831D01*
G02X919528Y1154748I-251J304D01*
G03X919291Y1154772I-240J-1204D01*
G03Y1152315I0J-1228D01*
G03X919528Y1152339I-4J1228D01*
G02X919854Y1152256I76J-386D01*
G01X920331Y1151866D01*
G02X920472Y1151563I-252J-303D01*
G01Y1125520D01*
G02X920366Y1125252I-394J1D01*
G03Y1123567I893J-843D01*
G02X920472Y1123299I-287J-269D01*
G01Y1111469D01*
G02X920358Y1111189I-394J-2D01*
G01X919961Y1110791D01*
G02X919685Y1110677I-277J280D01*
G01X919681D01*
G03Y1108220I4J-1228D01*
G01X919685D01*
G02X919961Y1108106I-2J-394D01*
G01X920358Y1107709D01*
G02X920472Y1107429I-280J-277D01*
G01Y1092362D01*
G02X920287Y1092028I-394J-1D01*
G01X919717Y1091673D01*
G02X919335Y1091654I-209J334D01*
G01X919331D01*
G03X918791Y1091780I-542J-1102D01*
G03Y1089323I0J-1228D01*
G03X919331Y1089449I-2J1228D01*
G01X919335D01*
G02X919717Y1089429I173J-353D01*
G01X920287Y1089075D01*
G02X920472Y1088740I-209J-334D01*
G01Y1073228D01*
G02X920079Y1072835I-394J0D01*
G01X913350D01*
G02X913031Y1072992I-4J394D01*
G01X912654Y1073508D01*
G02X912591Y1073854I315J236D01*
G01X912594D01*
G03X912646Y1074213I-1178J351D01*
G03X911417Y1075441I-1228J0D01*
G03X911165Y1075413I7J-1228D01*
G02X910925Y1075441I-77J386D01*
G01X910697Y1075543D01*
G02X910516Y1075709I162J359D01*
G03X909449Y1076327I-1067J-612D01*
G03Y1073870I0J-1228D01*
G03X909701Y1073898I-7J1228D01*
G02X909941Y1073870I77J-386D01*
G01X910169Y1073768D01*
G02X910350Y1073602I-162J-359D01*
G03X910441Y1073469I1060J620D01*
G02X910520Y1073232I-315J-236D01*
G01Y1073228D01*
G02X910126Y1072835I-394J0D01*
G01X899189D01*
G02X898858Y1073012I-2J394D01*
G03X896811I-1024J-675D01*
G02X896480Y1072835I-329J217D01*
G01X896457D01*
Y1068909D01*
G02X896157Y1068528I-393J0D01*
G03Y1066142I301J-1193D01*
G02X896457Y1065760I-94J-382D01*
G01Y1064969D01*
G02X896157Y1064587I-393J0D01*
G03Y1062201I301J-1193D01*
G02X896457Y1061819I-94J-382D01*
G01Y1059843D01*
G03X896850Y1059449I394J0D01*
G01X907480D01*
G02X907874Y1059055I0J-394D01*
G01Y1046457D01*
G02X907480Y1046063I-394J0D01*
G01X881858D01*
G02X881618Y1046146I1J394D01*
G03X881047Y1046394I-759J-967D01*
G01X881043D01*
G02X880709Y1046780I59J389D01*
G01Y1109260D01*
G02X880902Y1109598I394J0D01*
G01X881492Y1109945D01*
G02X881882Y1109949I198J-339D01*
G01X881886D01*
G03X882480Y1109795I594J1074D01*
G03Y1112252I0J1228D01*
G03X881886Y1112098I0J-1228D01*
G01X881882D01*
G02X881492Y1112102I-191J343D01*
G01X880902Y1112449D01*
G02X880709Y1112787I201J339D01*
G01Y1114173D01*
G03X880315Y1114567I-394J0D01*
G01X876772D01*
G02X876378Y1114961I0J394D01*
G01Y1139587D01*
X876413Y1139661D01*
G03X876516Y1140157I-1127J491D01*
G03X876413Y1140654I-1229J5D01*
G01X876378Y1140728D01*
Y1141295D01*
G02X876772Y1141689I394J0D01*
G01X876874D01*
X876965Y1141642D01*
G03X877559Y1141488I594J1074D01*
G03Y1143945I0J1228D01*
G03X877323Y1143921I4J-1228D01*
G02X876996Y1144004I-76J386D01*
G01X876520Y1144394D01*
G02X876378Y1144697I252J303D01*
G01Y1162205D01*
G02X876772Y1162598I394J0D01*
G37*
G36*
G01X943780Y893012D02*
Y893504D01*
X942941Y893555D01*
X942992Y892717D01*
X943484D01*
G03X943780Y893012I0J295D01*
G37*
G36*
G01X914063Y948543D02*
X913717Y948189D01*
X914272Y947563D01*
X914827Y948189D01*
X914480Y948543D01*
G03X914063I-209J-209D01*
G37*
G36*
G01X916819Y947953D02*
X916472Y947598D01*
X917028Y946972D01*
X917583Y947598D01*
X917236Y947953D01*
G03X916819I-209J-209D01*
G37*
G36*
G01X912075Y951496D02*
X911728Y951142D01*
X912283Y950516D01*
X912839Y951142D01*
X912492Y951496D01*
G03X912075I-209J-209D01*
G37*
G36*
G01X905276Y950138D02*
X905768D01*
X905819Y950976D01*
X904980Y950925D01*
Y950433D01*
G03X905276Y950138I295J0D01*
G37*
G36*
G01X907205Y944362D02*
X906850Y944709D01*
X906224Y944154D01*
X906850Y943598D01*
X907205Y943945D01*
G03Y944362I-209J209D01*
G37*
G36*
G01X900283Y916161D02*
X899937Y915807D01*
X900492Y915181D01*
X901047Y915807D01*
X900701Y916161D01*
G03X900283I-209J-209D01*
G37*
G36*
G01X902469Y916555D02*
X902122Y916201D01*
X902677Y915575D01*
X903232Y916201D01*
X902886Y916555D01*
G03X902469I-209J-209D01*
G37*
G36*
G01X904461Y935118D02*
X904807Y935472D01*
X904252Y936098D01*
X903697Y935472D01*
X904043Y935118D01*
G03X904461I209J209D01*
G37*
G36*
G01X904744Y936811D02*
X904252D01*
X904201Y935972D01*
X905039Y936024D01*
Y936516D01*
G03X904744Y936811I-295J0D01*
G37*
G36*
G01X950551Y900886D02*
Y901378D01*
X949713Y901429D01*
X949764Y900591D01*
X950256D01*
G03X950551Y900886I0J295D01*
G37*
G36*
G01X909291Y922650D02*
X908937Y922996D01*
X908311Y922441D01*
X908937Y921886D01*
X909291Y922232D01*
G03Y922650I-209J209D01*
G37*
G36*
G01X907402Y932650D02*
X907047Y932996D01*
X906421Y932441D01*
X907047Y931886D01*
X907402Y932232D01*
G03Y932650I-209J209D01*
G37*
G36*
G01X952362Y903642D02*
Y904134D01*
X951524Y904185D01*
X951575Y903346D01*
X952067D01*
G03X952362Y903642I0J295D01*
G37*
G36*
G01X936472Y982181D02*
X936827Y981835D01*
X937453Y982390D01*
X936827Y982945D01*
X936472Y982598D01*
G03Y982181I209J-209D01*
G37*
G36*
G01X937146Y974213D02*
X937638D01*
X937689Y975051D01*
X936850Y975000D01*
Y974508D01*
G03X937146Y974213I295J0D01*
G37*
G36*
G01X933189Y989776D02*
X932835Y990122D01*
X932209Y989567D01*
X932835Y989012D01*
X933189Y989358D01*
G03Y989776I-209J209D01*
G37*
G36*
G01X943098Y976299D02*
X942752Y975945D01*
X943307Y975319D01*
X943862Y975945D01*
X943516Y976299D01*
G03X943098I-209J-209D01*
G37*
G36*
G01X942815Y974606D02*
X943307D01*
X943358Y975445D01*
X942520Y975394D01*
Y974902D01*
G03X942815Y974606I295J0D01*
G37*
G36*
G01X915484Y1005689D02*
X912531D01*
X912480Y1002390D01*
X915780Y1002441D01*
Y1005394D01*
G03X915484Y1005689I-295J0D01*
G37*
G36*
G01X939843Y1004909D02*
X940197Y1004563D01*
X940823Y1005118D01*
X940197Y1005673D01*
X939843Y1005327D01*
G03Y1004909I209J-209D01*
G37*
G36*
G01X931476Y974409D02*
X931969D01*
X932020Y975248D01*
X931181Y975197D01*
Y974705D01*
G03X931476Y974409I295J0D01*
G37*
G36*
G01X940035Y981480D02*
X940390Y981134D01*
X941016Y981689D01*
X940390Y982244D01*
X940035Y981898D01*
G03Y981480I209J-209D01*
G37*
G36*
G01X910126Y954843D02*
X909780Y954488D01*
X910335Y953862D01*
X910890Y954488D01*
X910543Y954843D01*
G03X910126I-209J-209D01*
G37*
G36*
G01X925276Y975193D02*
X925630Y974846D01*
X926256Y975402D01*
X925630Y975957D01*
X925276Y975610D01*
G03Y975193I209J-209D01*
G37*
G36*
G01X926673Y976189D02*
X926181D01*
X926130Y975350D01*
X926969Y975402D01*
Y975894D01*
G03X926673Y976189I-295J0D01*
G37*
G36*
G01X908177Y957205D02*
X907831Y956850D01*
X908386Y956224D01*
X908941Y956850D01*
X908594Y957205D01*
G03X908177I-209J-209D01*
G37*
G36*
G01X924291Y979909D02*
X924646Y979563D01*
X925272Y980118D01*
X924646Y980673D01*
X924291Y980327D01*
G03Y979909I209J-209D01*
G37*
G36*
G01X922441Y1162594D02*
X1012157D01*
G02X1015941Y1158811I0J-3783D01*
G01Y1156055D01*
G02X1015630Y1155673I-393J3D01*
G01X1014874Y1155508D01*
G02X1014433Y1155728I-84J384D01*
G01X1014429D01*
G03X1007087Y1160441I-7343J-3364D01*
G03Y1144283I0J-8079D01*
G03X1014429Y1148996I0J8076D01*
G01X1014433D01*
G02X1014874Y1149217I357J-163D01*
G01X1015630Y1149051D01*
G02X1015941Y1148669I-82J-385D01*
G01Y1100406D01*
G02X1015799Y1100102I-394J0D01*
G01X1015327Y1099713D01*
G02X1015000Y1099630I-251J304D01*
G03X1014764Y1099654I-240J-1204D01*
G03Y1097197I0J-1228D01*
G03X1015000Y1097220I-4J1228D01*
G02X1015327Y1097138I76J-387D01*
G01X1015799Y1096748D01*
G02X1015941Y1096445I-252J-303D01*
G01Y1079929D01*
G02X1015547Y1079535I-394J0D01*
G01X1014169D01*
G02X1013787Y1079831I0J394D01*
G01Y1079835D01*
G03X1011409I-1189J-307D01*
G01Y1079831D01*
G02X1011028Y1079535I-382J99D01*
G01X1004327D01*
G02X1003945Y1079831I0J394D01*
G01Y1079835D01*
G03X1001567I-1189J-307D01*
G01Y1079831D01*
G02X1001185Y1079535I-382J99D01*
G01X989165D01*
G03X988772Y1079142I0J-394D01*
G01X988768Y1077488D01*
G02X988520Y1077126I-394J4D01*
G01Y1077122D01*
G03X987748Y1075984I453J-1138D01*
G03X988508Y1074846I1232J0D01*
G01X988512D01*
G02X988752Y1074480I-153J-362D01*
G01X988720Y1066118D01*
G02X988567Y1065807I-394J1D01*
G01X988063Y1065425D01*
G02X987724Y1065358I-238J313D01*
G01X987720D01*
G03X987402Y1065402I-323J-1184D01*
G03Y1062945I0J-1228D01*
G03X987713Y1062984I2J1229D01*
G02X988055Y1062917I104J-380D01*
G01X988551Y1062531D01*
G02X988705Y1062217I-240J-312D01*
G01X988638Y1045472D01*
G02X988244Y1045079I-394J0D01*
G01X969004D01*
G02X968693Y1045232I1J394D01*
G03X966740I-976J-742D01*
G02X966429Y1045079I-312J240D01*
G01X958768D01*
G02X958457Y1045232I1J394D01*
G03X956504I-976J-742D01*
G02X956193Y1045079I-312J240D01*
G01X945906D01*
X945858Y1045091D01*
G03X945563Y1045126I-293J-1193D01*
G03X945268Y1045091I-2J-1229D01*
G01X945220Y1045079D01*
X922441D01*
G02X922047Y1045472I0J394D01*
G01Y1080661D01*
G02X922161Y1080941I394J2D01*
G01X922559Y1081339D01*
G02X922835Y1081453I277J-279D01*
G03Y1083909I-4J1228D01*
G02X922559Y1084024I2J394D01*
G01X922161Y1084421D01*
G02X922047Y1084701I280J277D01*
G01Y1103480D01*
G02X922260Y1103827I393J-3D01*
G01X922890Y1104150D01*
G02X923299Y1104122I182J-349D01*
G01Y1104118D01*
G03X924016Y1103890I714J1001D01*
G03Y1106346I0J1228D01*
G03X923299Y1106118I-3J-1229D01*
G01Y1106114D01*
G02X922890Y1106087I-227J321D01*
G01X922260Y1106409D01*
G02X922047Y1106756I181J349D01*
G01Y1122547D01*
G02X922224Y1122878I394J2D01*
G01X922776Y1123244D01*
G02X923146Y1123280I218J-329D01*
G01Y1123276D01*
G03X923622Y1123181I473J1135D01*
G03X924850Y1124409I0J1228D01*
G03X924496Y1125272I-1226J0D01*
G01Y1125276D01*
G02X924386Y1125598I279J276D01*
G01X924461Y1126217D01*
G02X924650Y1126508I391J-47D01*
G03X925244Y1127559I-632J1051D01*
G03X924016Y1128787I-1228J0D01*
G03X923299Y1128559I-3J-1229D01*
G01Y1128555D01*
G02X922890Y1128528I-227J321D01*
G01X922260Y1128850D01*
G02X922047Y1129197I181J349D01*
G01Y1135146D01*
G02X922224Y1135476I394J2D01*
G01X922776Y1135843D01*
G02X923146Y1135878I218J-329D01*
G01Y1135874D01*
G03X923622Y1135780I473J1135D01*
G03Y1138236I0J1228D01*
G03X923146Y1138142I-4J-1229D01*
G01Y1138138D01*
G02X922776Y1138173I-152J364D01*
G01X922224Y1138539D01*
G02X922047Y1138870I217J329D01*
G01Y1156839D01*
G02X922161Y1157118I394J2D01*
G01X922559Y1157516D01*
G02X922835Y1157630I277J-280D01*
G01X922839D01*
G03Y1160087I-4J1228D01*
G01X922835D01*
G02X922559Y1160201I2J394D01*
G01X922161Y1160598D01*
G02X922047Y1160878I280J277D01*
G01Y1162201D01*
G02X922441Y1162594I394J0D01*
G37*
G36*
G01X919303Y1069882D02*
X919882D01*
G02X920276Y1069488I0J-394D01*
G01Y1062047D01*
G02X920173Y1061783I-394J1D01*
G01X919815Y1061390D01*
G02X919563Y1061260I-294J262D01*
G03Y1058819I120J-1220D01*
G02X919815Y1058689I-42J-392D01*
G01X920173Y1058295D01*
G02X920276Y1058031I-291J-265D01*
G01Y1043701D01*
G03X920669Y1043307I394J0D01*
G01X944276D01*
G02X944587Y1043154I-1J-394D01*
G03X945563Y1042669I976J742D01*
G01X945598D01*
G02X945894Y1042551I14J-394D01*
G01X946299Y1042134D01*
G02X946409Y1041839I-282J-274D01*
G01Y1041776D01*
G03X948866I1228J0D01*
G03X948780Y1042224I-1228J-4D01*
G01Y1042228D01*
G02X948823Y1042594I367J142D01*
G01X949189Y1043134D01*
G02X949516Y1043307I326J-221D01*
G01X957138D01*
X957185Y1043295D01*
G03X957480Y1043260I293J1193D01*
G03X957776Y1043295I2J1229D01*
G01X957823Y1043307D01*
X967374D01*
X967421Y1043295D01*
G03X967717Y1043260I293J1193D01*
G03X968012Y1043295I2J1229D01*
G01X968059Y1043307D01*
X982650D01*
G02X982906Y1043213I0J-394D01*
G01X983299Y1042870D01*
G02X983429Y1042630I-259J-296D01*
G03X985862I1217J178D01*
G02X985992Y1042870I389J-55D01*
G01X986386Y1043213D01*
G02X986642Y1043307I256J-300D01*
G01X988189D01*
G02X988583Y1042913I0J-394D01*
G01Y1041748D01*
G02X988429Y1041437I-394J1D01*
G03Y1039484I742J-976D01*
G02X988583Y1039173I-240J-312D01*
G01Y1027748D01*
X988571Y1027701D01*
G03X988535Y1027406I1193J-293D01*
G03X988571Y1027110I1229J-2D01*
G01X988583Y1027063D01*
Y1018110D01*
G02X988189Y1017717I-394J0D01*
G01X973819D01*
G02X973425Y1018110I0J394D01*
G01Y1030563D01*
X973437Y1030610D01*
G03X973472Y1030906I-1193J293D01*
G03X973437Y1031201I-1229J2D01*
G01X973425Y1031248D01*
Y1032087D01*
G03X973031Y1032480I-394J0D01*
G01X972878Y1032634D01*
Y1032878D01*
G02X972925Y1033067I393J2D01*
G03X973079Y1033661I-1074J594D01*
G03X970622I-1228J0D01*
G03X970646Y1033425I1228J4D01*
G02X970563Y1033098I-386J-76D01*
G01X970173Y1032622D01*
G02X969870Y1032480I-303J252D01*
G01X961354D01*
G02X960988Y1032732I1J393D01*
G01X960984D01*
G03X958701I-1142J-446D01*
G01X958697D01*
G02X958331Y1032480I-367J141D01*
G01X946913D01*
G02X946567Y1032693I3J393D01*
G01X946244Y1033323D01*
G02X946272Y1033732I349J182D01*
G01X946276D01*
G03X946504Y1034449I-1001J714D01*
G03X944047I-1228J0D01*
G03X944276Y1033732I1229J-3D01*
G01X944280D01*
G02X944307Y1033323I-321J-227D01*
G01X943984Y1032693D01*
G02X943638Y1032480I-349J181D01*
G01X926244D01*
G02X925898Y1032693I3J393D01*
G01X925575Y1033323D01*
G02X925602Y1033732I349J182D01*
G01X925606D01*
G03X925835Y1034449I-1001J714D01*
G03X923378I-1228J0D01*
G03X923606Y1033732I1229J-3D01*
G01X923610D01*
G02X923638Y1033323I-321J-227D01*
G01X923315Y1032693D01*
G02X922969Y1032480I-349J181D01*
G01X910236D01*
G02X909843Y1032874I0J394D01*
G01Y1054622D01*
G02X909996Y1054933I393J-1D01*
G03Y1056878I-754J972D01*
G02X909843Y1057189I240J312D01*
G01Y1061614D01*
G03X909449Y1062008I-394J0D01*
G01X899858D01*
G02X899654Y1062067I3J393D01*
G03X899606Y1062094I-643J-1047D01*
G01Y1069488D01*
G02X900000Y1069882I394J0D01*
G01X915343D01*
G02X915646Y1069740I1J-394D01*
G01X916035Y1069264D01*
G02X916118Y1068937I-304J-251D01*
G03X916094Y1068701I1204J-240D01*
G03X918551I1228J0D01*
G03X918528Y1068937I-1228J-4D01*
G02X918610Y1069264I386J76D01*
G01X919000Y1069740D01*
G02X919303Y1069882I303J-252D01*
G37*
G36*
G01X963965Y868031D02*
X963618Y867677D01*
X964173Y867051D01*
X964728Y867677D01*
X964382Y868031D01*
G03X963965I-209J-209D01*
G37*
G36*
G01X955827Y853949D02*
X955472Y854295D01*
X954846Y853740D01*
X955472Y853185D01*
X955827Y853531D01*
G03Y853949I-209J209D01*
G37*
G36*
G01X989362Y885394D02*
Y882441D01*
X992661Y882390D01*
X992610Y885689D01*
X989657D01*
G03X989362Y885394I0J-295D01*
G37*
G36*
G01X988248Y892232D02*
X990323Y890173D01*
X992685Y892441D01*
X990323Y894709D01*
X988248Y892650D01*
G03Y892232I209J-209D01*
G37*
G36*
G01X958701Y938201D02*
X958346Y938547D01*
X957720Y937992D01*
X958346Y937437D01*
X958701Y937783D01*
G03Y938201I-209J209D01*
G37*
G36*
G01X989657Y939193D02*
X992610D01*
X992661Y942492D01*
X989362Y942441D01*
Y939488D01*
G03X989657Y939193I295J0D01*
G37*
G36*
G01X962480Y908516D02*
X962126Y908862D01*
X961500Y908307D01*
X962126Y907752D01*
X962480Y908098D01*
G03Y908516I-209J209D01*
G37*
G36*
G01X989657Y909193D02*
X992610D01*
X992661Y912492D01*
X989362Y912441D01*
Y909488D01*
G03X989657Y909193I295J0D01*
G37*
G36*
G01X964291Y898043D02*
X963937Y898390D01*
X963311Y897835D01*
X963937Y897280D01*
X964291Y897626D01*
G03Y898043I-209J209D01*
G37*
G36*
G01X989657Y899193D02*
X992610D01*
X992661Y902492D01*
X989362Y902441D01*
Y899488D01*
G03X989657Y899193I295J0D01*
G37*
G36*
G01X965256Y943701D02*
X965748D01*
X965799Y944539D01*
X964961Y944488D01*
Y943996D01*
G03X965256Y943701I295J0D01*
G37*
G36*
G01X966240Y945276D02*
X965748D01*
X965697Y944437D01*
X966535Y944488D01*
Y944980D01*
G03X966240Y945276I-295J0D01*
G37*
G36*
G01X978224Y952232D02*
X980315Y950150D01*
X982685Y952441D01*
X980315Y954732D01*
X978224Y952650D01*
G03Y952232I209J-209D01*
G37*
G36*
G01X962193Y946181D02*
X961846Y945827D01*
X962402Y945201D01*
X962957Y945827D01*
X962610Y946181D01*
G03X962193I-209J-209D01*
G37*
G36*
G01X961909Y944488D02*
X962402D01*
X962453Y945327D01*
X961614Y945276D01*
Y944783D01*
G03X961909Y944488I295J0D01*
G37*
G36*
G01X978354Y942232D02*
X980323Y940280D01*
X982685Y942441D01*
X980323Y944602D01*
X978354Y942650D01*
G03Y942232I209J-209D01*
G37*
G36*
G01X978224Y922232D02*
X980315Y920150D01*
X982685Y922441D01*
X980315Y924732D01*
X978224Y922650D01*
G03Y922232I209J-209D01*
G37*
G36*
G01Y932232D02*
X980315Y930150D01*
X982685Y932441D01*
X980315Y934732D01*
X978224Y932650D01*
G03Y932232I209J-209D01*
G37*
G36*
G01Y962232D02*
X980315Y960150D01*
X982685Y962441D01*
X980315Y964732D01*
X978224Y962650D01*
G03Y962232I209J-209D01*
G37*
G36*
G01X989362Y955394D02*
Y952441D01*
X992661Y952390D01*
X992610Y955689D01*
X989657D01*
G03X989362Y955394I0J-295D01*
G37*
G36*
G01X970098Y955315D02*
X969606D01*
X969555Y954476D01*
X970394Y954528D01*
Y955020D01*
G03X970098Y955315I-295J0D01*
G37*
%LPC*%
G75*
G36*
G01X831035Y1032807D02*
Y1033047D01*
G03X830965Y1033272I-393J-1D01*
G02X830752Y1033965I1016J691D01*
G02X833209I1228J0D01*
G02X832996Y1033272I-1229J-2D01*
G03X832925Y1033047I322J-225D01*
G01Y1032807D01*
G03X832996Y1032583I393J1D01*
G02X833209Y1031890I-1016J-691D01*
G02X830752I-1228J0D01*
G02X830965Y1032583I1229J2D01*
G03X831035Y1032807I-322J225D01*
G37*
G36*
G01X832417Y1094331D02*
X832169Y1094299D01*
G03X831953Y1094193I57J-390D01*
G02X831102Y1093850I-850J884D01*
G02Y1096307I0J1228D01*
G02X831677Y1096165I2J-1229D01*
G03X831917Y1096122I186J346D01*
G01X832165Y1096154D01*
G03X832382Y1096260I-57J390D01*
G02X833232Y1096602I850J-884D01*
G02Y1094146I0J-1228D01*
G02X832657Y1094287I-2J1229D01*
G03X832417Y1094331I-186J-346D01*
G37*
G36*
G01X870610Y1102500D02*
Y1102744D01*
G03X870547Y1102969I-394J10D01*
G02X870339Y1103650I1019J685D01*
G02X872795I1228J0D01*
G02X872571Y1102945I-1227J3D01*
G03X872500Y1102724I324J-226D01*
G01Y1102480D01*
G03X872563Y1102256I394J-10D01*
G02X872772Y1101575I-1019J-685D01*
G02X870315I-1228J0D01*
G02X870539Y1102280I1227J-3D01*
G03X870610Y1102500I-324J226D01*
G37*
G36*
G01X848283Y1111972D02*
Y1112437D01*
G03X848209Y1112665I-394J-2D01*
G01Y1112669D01*
G02X847976Y1113386I995J719D01*
G02X850433I1228J0D01*
G02X850201Y1112669I-1228J2D01*
G01Y1112665D01*
G03X850126Y1112437I319J-231D01*
G01Y1111972D01*
G03X850201Y1111744I394J2D01*
G01Y1111740D01*
G02X850433Y1111024I-995J-719D01*
G02X847976I-1228J0D01*
G02X848209Y1111740I1228J-2D01*
G01Y1111744D01*
G03X848283Y1111972I-319J231D01*
G37*
G36*
G01X855362Y1112228D02*
Y1112469D01*
G03X855291Y1112693I-393J-1D01*
G02X855079Y1113386I1016J691D01*
G02X857535I1228J0D01*
G02X857323Y1112693I-1229J-2D01*
G03X857252Y1112469I322J-225D01*
G01Y1112228D01*
G03X857323Y1112004I393J1D01*
G02X857535Y1111311I-1016J-691D01*
G02X855079I-1228J0D01*
G02X855291Y1112004I1229J2D01*
G03X855362Y1112228I-322J225D01*
G37*
G36*
G01X856157Y1121815D02*
Y1122280D01*
G03X856083Y1122508I-394J-2D01*
G01Y1122512D01*
G02X855850Y1123228I995J719D01*
G02X858307I1228J0D01*
G02X858075Y1122512I-1228J2D01*
G01Y1122508D01*
G03X858000Y1122280I319J-231D01*
G01Y1121815D01*
G03X858075Y1121587I394J2D01*
G01Y1121583D01*
G02X858307Y1120866I-995J-719D01*
G02X855850I-1228J0D01*
G02X856083Y1121583I1228J-2D01*
G01Y1121587D01*
G03X856157Y1121815I-319J231D01*
G37*
G36*
G01X811307Y1123276D02*
X811173Y1123496D01*
G03X810976Y1123657I-335J-208D01*
G02X810189Y1124803I440J1146D01*
G02X812646I1228J0D01*
G02X812638Y1124673I-1228J9D01*
G03X812693Y1124429I392J-40D01*
G01X812827Y1124209D01*
G03X813024Y1124047I335J208D01*
G02X813811Y1122902I-440J-1146D01*
G02X813717Y1122425I-1229J-4D01*
G03X813693Y1122193I361J-154D01*
G01X813740Y1121953D01*
G03X813854Y1121752I384J85D01*
G02X814228Y1120866I-855J-883D01*
G02X811772I-1228J0D01*
G02X811866Y1121343I1229J4D01*
G03X811890Y1121575I-361J154D01*
G01X811843Y1121815D01*
G03X811728Y1122016I-384J-85D01*
G02X811354Y1122902I855J883D01*
G02X811362Y1123031I1228J-9D01*
G03X811307Y1123276I-392J40D01*
G37*
G36*
G01X864433Y1123390D02*
Y1123854D01*
G03X864358Y1124083I-394J-2D01*
G01Y1124087D01*
G02X864126Y1124803I995J719D01*
G02X866583I1228J0D01*
G02X866350Y1124087I-1228J2D01*
G01Y1124083D01*
G03X866276Y1123854I319J-231D01*
G01Y1123390D01*
G03X866350Y1123161I394J2D01*
G01Y1123157D01*
G02X866583Y1122441I-995J-719D01*
G02X864126I-1228J0D01*
G02X864358Y1123157I1228J-2D01*
G01Y1123161D01*
G03X864433Y1123390I-319J231D01*
G37*
G36*
G01X802929Y1122469D02*
X798157Y1127240D01*
G03X797890Y1127354I-277J-279D01*
G02X796535Y1128740I32J1386D01*
G02X797921Y1130126I1386J0D01*
G02X799307Y1128772I0J-1386D01*
G03X799421Y1128504I393J10D01*
G01X804717Y1123209D01*
G02X804831Y1122933I-280J-277D01*
G01Y1111555D01*
G03X804945Y1111280I394J2D01*
G01X809740Y1106484D01*
G03X810028Y1106370I277J280D01*
G01X810606Y1106390D01*
G03X810890Y1106520I-9J394D01*
G01Y1106524D01*
G02X811811Y1106937I921J-820D01*
G02X813039Y1105709I0J-1228D01*
G02X812626Y1104787I-1233J0D01*
G01X812622D01*
G03X812492Y1104504I264J-292D01*
G01X812472Y1103925D01*
G03X812587Y1103638I394J-10D01*
G01X821366Y1094858D01*
Y1094772D01*
X821476Y1094657D01*
G02X821858Y1093701I-1007J-957D01*
G02X820472Y1092315I-1386J0D01*
G02X819681Y1092563I0J1386D01*
G03X819461Y1092634I-226J-323D01*
G01X819217D01*
G03X818996Y1092563I5J-394D01*
G02X818205Y1092315I-791J1138D01*
G02X816819Y1093701I0J1386D01*
G02X817067Y1094492I1386J0D01*
G01X817071Y1094496D01*
G03X817024Y1095000I-324J224D01*
G01X801976Y1110047D01*
G02X801862Y1110323I280J277D01*
G01Y1118043D01*
G03X801748Y1118319I-394J-2D01*
G01X797807Y1122260D01*
G03X797539Y1122374I-277J-279D01*
G02X796185Y1123760I32J1386D01*
G02X797571Y1125146I1386J0D01*
G02X798957Y1123791I0J-1386D01*
G03X799071Y1123524I393J10D01*
G01X802370Y1120224D01*
G03X802799Y1120138I279J278D01*
G03X803043Y1120504I-150J364D01*
G01Y1122193D01*
G03X802929Y1122469I-394J-2D01*
G37*
G36*
G01X851807Y1137661D02*
X851343D01*
G03X851114Y1137587I2J-394D01*
G01X851110D01*
G02X850394Y1137354I-719J995D01*
G02Y1139811I0J1228D01*
G02X851110Y1139579I-2J-1228D01*
G01X851114D01*
G03X851343Y1139504I231J319D01*
G01X851807D01*
G03X852035Y1139579I-2J394D01*
G01X852039D01*
G02X852756Y1139811I719J-995D01*
G02Y1137354I0J-1228D01*
G02X852039Y1137587I2J1228D01*
G01X852035D01*
G03X851807Y1137661I-231J-319D01*
G37*
G36*
G01X870650Y1041201D02*
G02X871850Y1039717I1201J-256D01*
G02X871539Y1039756I-2J1229D01*
G03X870567Y1039154I-198J-766D01*
G02X869366Y1038181I-1201J255D01*
G02Y1040638I0J1228D01*
G02X869677Y1040598I2J-1229D01*
G03X870650Y1041201I198J766D01*
G37*
G36*
G01X823220Y1043146D02*
G02X822441Y1045323I-780J949D01*
G02X823575Y1044563I0J-1226D01*
G03X824811Y1044256I732J303D01*
G02X825591Y1044535I780J-947D01*
G02Y1042079I0J-1228D01*
G02X824457Y1042839I0J1226D01*
G03X823220Y1043146I-732J-303D01*
G37*
G36*
G01X873878Y1069283D02*
G02X875106Y1068063I1228J8D01*
G02X874953Y1068071I-14J1229D01*
G03X874063Y1067280I-99J-784D01*
G02X872835Y1068500I-1228J-8D01*
G02X872988Y1068492I14J-1229D01*
G03X873878Y1069283I99J784D01*
G37*
G36*
G01X795031Y1074854D02*
G02X796260Y1073626I1228J0D01*
G01X796224D01*
G03X795413Y1072835I-20J-791D01*
G02X794185Y1074063I-1228J0D01*
G01X794220D01*
G03X795031Y1074854I20J791D01*
G37*
G36*
G01X816098Y1084358D02*
G02X818551Y1084449I1225J91D01*
G02X817350Y1083220I-1229J0D01*
G03X816579Y1082374I18J-791D01*
G02X816583Y1082283I-1224J-99D01*
G02X814126I-1228J0D01*
G02X815327Y1083512I1229J0D01*
G03X816098Y1084358I-18J791D01*
G37*
G36*
G01X837063Y1093508D02*
Y1093512D01*
G02X838291Y1094732I1228J-8D01*
G02X838496Y1094717I8J-1229D01*
G03X838768Y1094768I68J387D01*
G01X839209Y1095039D01*
G03X839382Y1095256I-201J338D01*
G02X840551Y1096110I1169J-373D01*
G02Y1093654I0J-1228D01*
G02X840346Y1093669I-8J1229D01*
G03X840075Y1093618I-68J-387D01*
G01X839634Y1093346D01*
G03X839461Y1093130I201J-338D01*
G02X838500Y1092295I-1169J375D01*
G01Y1092291D01*
G03X838264Y1092161I60J-389D01*
G01X837937Y1091772D01*
G03X837843Y1091520I299J-256D01*
G01Y1091516D01*
G02X836614Y1090295I-1228J8D01*
G02X835386Y1091524I0J1228D01*
G02X836406Y1092732I1226J0D01*
G01Y1092736D01*
G03X836642Y1092866I-60J389D01*
G01X836969Y1093256D01*
G03X837063Y1093508I-299J256D01*
G37*
G36*
G01X854673Y1095780D02*
G02X856350I839J-898D01*
G03X856618Y1095673I269J287D01*
G01X857161D01*
G03X857429Y1095780I-1J394D01*
G02X858268Y1096110I839J-898D01*
G02Y1093654I0J-1228D01*
G02X857429Y1093984I0J1229D01*
G03X857161Y1094091I-269J-287D01*
G01X856618D01*
G03X856350Y1093984I1J-394D01*
G02X854673I-839J898D01*
G03X854406Y1094091I-269J-287D01*
G01X853862D01*
G03X853594Y1093984I1J-394D01*
G02X852756Y1093654I-839J898D01*
G02Y1096110I0J1228D01*
G02X853594Y1095780I0J-1229D01*
G03X853862Y1095673I269J287D01*
G01X854406D01*
G03X854673Y1095780I-1J394D01*
G37*
G36*
G01X863976Y1095516D02*
G02X863189Y1097685I-787J942D01*
G02X864197Y1097157I0J-1227D01*
G03X865354Y1097004I649J454D01*
G02X866142Y1097291I789J-940D01*
G02Y1094835I0J-1228D01*
G02X865134Y1095362I0J1227D01*
G03X863976Y1095516I-649J-454D01*
G37*
G36*
G01X800437Y1096024D02*
G02X800591Y1098472I154J1220D01*
G02X801819Y1097264I0J-1229D01*
G03X802512Y1096492I790J13D01*
G02X803587Y1095272I-156J-1220D01*
G02X802358Y1094043I-1228J0D01*
G02X801130Y1095252I0J1229D01*
G03X800437Y1096024I-790J-13D01*
G37*
G36*
G01X795886Y1104398D02*
Y1104402D01*
G02X795366Y1106024I2282J1626D01*
G02X800972I2803J0D01*
G02X800091Y1103980I-2808J0D01*
G03X799965Y1103701I267J-289D01*
G01X799957Y1103126D01*
G03X800075Y1102843I394J-2D01*
G02X800441Y1101969I-860J-874D01*
G02X797984I-1228J0D01*
G02X798035Y1102319I1225J0D01*
G03X798000Y1102626I-378J112D01*
G01X797717Y1103122D01*
G03X797472Y1103307I-341J-196D01*
G02X796972Y1103488I701J2715D01*
G03X796528Y1102846I-170J-357D01*
G02X796898Y1101969I-856J-878D01*
G02X794441I-1228J0D01*
G02X795409Y1103169I1229J0D01*
G03X795693Y1103413I-84J385D01*
G01X795929Y1104028D01*
G03X795886Y1104398I-366J145D01*
G37*
G36*
G01X841740Y1110579D02*
G02X842638Y1111764I-333J1185D01*
G02X842630Y1111610I-1229J-14D01*
G01X842626Y1111606D01*
G03X842717Y1111307I391J-45D01*
G01X843091Y1110858D01*
G03X843370Y1110720I299J255D01*
G02X844535Y1109492I-65J-1228D01*
G02X844445Y1109028I-1229J-2D01*
G03X844469Y1108685I365J-147D01*
G01X844776Y1108142D01*
G03X845063Y1107949I341J197D01*
G02X845575Y1107748I-181J-1215D01*
G03X845807Y1107681I220J327D01*
G01X846272Y1107693D01*
G03X846500Y1107776I-14J394D01*
G02X847244Y1108028I744J-973D01*
G02Y1105571I0J-1228D01*
G02X847000Y1105594I-4J1229D01*
G03X846661Y1105504I-78J-385D01*
G01X846185Y1105083D01*
G03X846055Y1104756I262J-294D01*
G02X846059Y1104657I-1228J-98D01*
G02X843602I-1228J0D01*
G02X843835Y1105378I1233J0D01*
G03X843909Y1105598I-318J231D01*
G01X843917Y1105843D01*
G03X843854Y1106067I-394J10D01*
G02X843657Y1106732I1026J665D01*
G02X843748Y1107197I1229J2D01*
G03X843724Y1107539I-365J147D01*
G01X843417Y1108083D01*
G03X843130Y1108276I-341J-197D01*
G02X843087Y1108283I198J1213D01*
G03X842783Y1108213I-69J-387D01*
G01X842323Y1107874D01*
G03X842161Y1107610I228J-321D01*
G01Y1107606D01*
G02X840945Y1106539I-1217J160D01*
G02Y1108996I0J1228D01*
G02X841165Y1108976I1J-1228D01*
G03X841469Y1109047I69J387D01*
G01X841929Y1109386D01*
G03X842091Y1109650I-228J321D01*
G01Y1109654D01*
G02X842201Y1110028I1218J-156D01*
G03X841740Y1110579I-356J171D01*
G37*
G36*
G01X861075Y1126268D02*
G02X860236Y1128394I-839J898D01*
G02X861075Y1128063I0J-1229D01*
G03X862154I539J579D01*
G02X862992Y1128394I839J-898D01*
G02Y1125937I0J-1228D01*
G02X862154Y1126268I0J1229D01*
G03X861075I-539J-579D01*
G37*
G36*
G01X812201Y1134665D02*
G02X813827Y1135827I398J1161D01*
G02X813713Y1135311I-1228J1D01*
G03X814177Y1134232I720J-329D01*
G02X815008Y1133071I-397J-1161D01*
G02X812551I-1228J0D01*
G02X812665Y1133587I1228J-1D01*
G03X812201Y1134665I-720J329D01*
G37*
G36*
G01X815795Y1134606D02*
G02X814717Y1135827I151J1220D01*
G02X815945Y1137055I1228J0D01*
G02X817173Y1135850I0J-1229D01*
G01Y1135846D01*
G03X817276Y1135591I393J9D01*
G01X817622Y1135205D01*
G03X817866Y1135079I291J264D01*
G02X818433Y1134854I-154J-1219D01*
G01X818437D01*
G03X818665Y1134780I231J319D01*
G01X819130D01*
G03X819358Y1134854I-2J394D01*
G01X819362D01*
G02X820079Y1135087I719J-995D01*
G02Y1132630I0J-1228D01*
G02X819362Y1132862I2J1228D01*
G01X819358D01*
G03X819130Y1132937I-231J-319D01*
G01X818665D01*
G03X818437Y1132862I2J-394D01*
G01X818433D01*
G02X817717Y1132630I-719J995D01*
G02X816488Y1133835I0J1229D01*
G01Y1133839D01*
G03X816386Y1134094I-393J-9D01*
G01X816039Y1134480D01*
G03X815795Y1134606I-291J-264D01*
G37*
G36*
G01X803201Y1133417D02*
G02X804969Y1136024I-1037J2606D01*
G02X804803Y1135075I-2805J0D01*
G03X805535Y1134016I744J-268D01*
G02X806740Y1132787I-24J-1228D01*
G02X805512Y1131559I-1228J0D01*
G02X804283Y1132724I0J1230D01*
G03X803201Y1133417I-789J-41D01*
G37*
G36*
G01X863106Y1138461D02*
G02X862697Y1140846I-409J1158D01*
G02X863709Y1140311I0J-1224D01*
G03X864626Y1140012I653J448D01*
G02X865035Y1140083I411J-1157D01*
G02Y1137626I0J-1228D01*
G02X864024Y1138161I0J1224D01*
G03X863106Y1138461I-653J-448D01*
G37*
G36*
G01X856854Y1144827D02*
X857319D01*
G03X857547Y1144902I-2J394D01*
G01X857551D01*
G02X858268Y1145134I719J-995D01*
G02X859433Y1144299I0J-1231D01*
G03X859650Y1144063I373J124D01*
G01X860189Y1143831D01*
G03X860512I161J359D01*
G01Y1143835D01*
G02X861024Y1143945I509J-1119D01*
G02Y1141488I0J-1228D01*
G02X859858Y1142323I0J1231D01*
G03X859642Y1142559I-373J-124D01*
G01X859102Y1142791D01*
G03X858780I-161J-359D01*
G01Y1142787D01*
G02X858610Y1142724I-512J1117D01*
G03X858350Y1142492I105J-379D01*
G01X858122Y1141909D01*
G03X858146Y1141567I364J-147D01*
G02X858315Y1140945I-1058J-622D01*
G02X855858I-1228J0D01*
G02X856028Y1141567I1227J0D01*
G03X856051Y1141909I-341J196D01*
G01X855823Y1142492D01*
G03X855563Y1142724I-365J-147D01*
G02X855189Y1142909I350J1178D01*
G01X855185D01*
G03X854957Y1142984I-231J-319D01*
G01X854492D01*
G03X854264Y1142909I2J-394D01*
G01X854260D01*
G02X853543Y1142677I-719J995D01*
G02X852713Y1143000I0J1230D01*
G03X852382Y1143098I-266J-290D01*
G01X851760Y1142988D01*
G03X851480Y1142787I67J-388D01*
G01Y1142783D01*
G02X850394Y1142130I-1087J577D01*
G02Y1144587I0J1228D01*
G02X851224Y1144264I0J-1230D01*
G03X851555Y1144165I266J290D01*
G01X852177Y1144276D01*
G03X852457Y1144476I-67J388D01*
G01Y1144480D01*
G02X853543Y1145134I1087J-577D01*
G02X854260Y1144902I-2J-1228D01*
G01X854264D01*
G03X854492Y1144827I231J319D01*
G01X854957D01*
G03X855185Y1144902I-2J394D01*
G01X855189D01*
G02X855906Y1145134I719J-995D01*
G02X856622Y1144902I-2J-1228D01*
G01X856626D01*
G03X856854Y1144827I231J319D01*
G37*
G36*
G01X893102Y1016358D02*
X893524Y1016689D01*
G03X893669Y1016933I-242J310D01*
G02X894882Y1017961I1213J-202D01*
G02X896110Y1016732I0J-1228D01*
G02X895705Y1015819I-1231J0D01*
G03X895575Y1015563I262J-294D01*
G01X895524Y1015031D01*
G03X895602Y1014756I393J-37D01*
G02X896378Y1012441I-3067J-2315D01*
G02X892531Y1016287I-3846J0D01*
G02X892827Y1016276I-6J-3846D01*
G01X892831D01*
G03X893102Y1016358I29J393D01*
G37*
G36*
G01X991181Y1037335D02*
Y1037575D01*
G03X991110Y1037799I-393J-1D01*
G02X990898Y1038492I1016J691D01*
G02X993354I1228J0D01*
G01Y1038457D01*
G03X993469Y1038169I393J-10D01*
G01X993878Y1037760D01*
G03X994165Y1037646I277J279D01*
G01X994201D01*
G02Y1035189I0J-1228D01*
G02X993508Y1035402I-2J1229D01*
G03X993283Y1035472I-225J-322D01*
G01X993043D01*
G03X992819Y1035402I1J-393D01*
G02X992126Y1035189I-691J1016D01*
G02X990898Y1036417I0J1228D01*
G02X991110Y1037110I1229J2D01*
G03X991181Y1037335I-322J225D01*
G37*
G36*
G01X895646Y1053386D02*
X895406D01*
G03X895181Y1053315I1J-393D01*
G02X894488Y1053102I-691J1016D01*
G02Y1055559I0J1228D01*
G02X895181Y1055346I2J-1229D01*
G03X895406Y1055276I225J322D01*
G01X895646D01*
G03X895870Y1055346I-1J393D01*
G02X896563Y1055559I691J-1016D01*
G02Y1053102I0J-1228D01*
G02X895870Y1053315I-2J1229D01*
G03X895646Y1053386I-225J-322D01*
G37*
G36*
G01X906972Y1092354D02*
G02X909350Y1092791I1149J437D01*
G02X908945Y1091878I-1231J0D01*
G03X908823Y1091677I260J-296D01*
G01X908768Y1091441D01*
G03X908783Y1091209I382J-91D01*
G02X908862Y1090772I-1150J-433D01*
G02X907835Y1089559I-1229J0D01*
G03X907551Y1089362I60J-389D01*
G01X907252Y1088815D01*
G03X907232Y1088472I344J-192D01*
G02X907331Y1087992I-1130J-482D01*
G02X904874I-1228J0D01*
G02X905902Y1089205I1229J0D01*
G03X906185Y1089402I-60J389D01*
G01X906484Y1089949D01*
G03X906504Y1090291I-344J192D01*
G02X906406Y1090772I1130J482D01*
G02X906811Y1091685I1231J0D01*
G03X906933Y1091886I-260J296D01*
G01X906988Y1092122D01*
G03X906972Y1092354I-382J91D01*
G37*
G36*
G01X910433Y1096917D02*
G02X912654Y1097638I993J720D01*
G02X912413Y1096909I-1225J0D01*
G03X912339Y1096677I319J-231D01*
G01X912335Y1096425D01*
G03X912409Y1096193I395J-1D01*
G02X912646Y1095472I-991J-724D01*
G02X912366Y1094693I-1227J0D01*
G03X912280Y1094445I307J-246D01*
G01Y1093941D01*
G03X912366Y1093693I393J-2D01*
G02X912646Y1092913I-947J-780D01*
G02X910189I-1228J0D01*
G02X910469Y1093693I1227J0D01*
G03X910555Y1093941I-307J246D01*
G01Y1094445D01*
G03X910469Y1094693I-393J2D01*
G02X910189Y1095472I947J780D01*
G02X910429Y1096201I1225J0D01*
G03X910504Y1096433I-319J231D01*
G01X910508Y1096685D01*
G03X910433Y1096917I-395J1D01*
G37*
G36*
G01X883913Y1106677D02*
G02X883614Y1107480I928J803D01*
G02X884843Y1108709I1228J0D01*
G02X886004Y1107878I0J-1227D01*
G03X886224Y1107642I373J127D01*
G01X886764Y1107409D01*
G03X887083Y1107413I155J362D01*
G02X887598Y1107528I517J-1114D01*
G02Y1105071I0J-1228D01*
G02X887193Y1105138I-5J1229D01*
G01Y1105142D01*
G03X886898Y1105126I-128J-373D01*
G01X886398Y1104894D01*
G03X886193Y1104677I162J-359D01*
G02X885047Y1103890I-1146J440D01*
G02X883819Y1105118I0J1228D01*
G02X883996Y1105752I1228J-2D01*
G03X884051Y1105988I-338J203D01*
G01X884008Y1106453D01*
G03X883913Y1106677I-392J-33D01*
G37*
G36*
G01X910579Y1125087D02*
G02X912646Y1125984I839J898D01*
G02X912256Y1125087I-1229J0D01*
G03X912130Y1124799I268J-289D01*
G01Y1124217D01*
G03X912256Y1123929I394J1D01*
G02X912646Y1123031I-839J-898D01*
G02X911417Y1121803I-1228J0D01*
G02X910705Y1122031I0J1226D01*
G03X910421Y1122098I-226J-322D01*
G01X909878Y1122024D01*
G03X909626Y1121878I57J-390D01*
G02X908661Y1121409I-965J759D01*
G02X907433Y1122638I0J1228D01*
G02X907441Y1122776I1228J-1D01*
G01Y1122780D01*
G03X907319Y1123110I-391J43D01*
G01X906854Y1123543D01*
G03X906516Y1123646I-271J-285D01*
G02X906299Y1123626I-219J1208D01*
G02X907528Y1124854I0J1228D01*
G02X907520Y1124717I-1228J1D01*
G01Y1124713D01*
G03X907642Y1124382I391J-43D01*
G01X908106Y1123949D01*
G03X908445Y1123846I271J285D01*
G02X908661Y1123866I219J-1208D01*
G02X909374Y1123638I0J-1226D01*
G03X909657Y1123571I226J322D01*
G01X910201Y1123646D01*
G03X910453Y1123791I-57J390D01*
G02X910579Y1123929I967J-757D01*
G03X910705Y1124217I-268J289D01*
G01Y1124799D01*
G03X910579Y1125087I-394J-1D01*
G37*
G36*
G01X917469D02*
G02X919535Y1125984I839J898D01*
G02X919146Y1125087I-1229J0D01*
G03Y1123929I539J-579D01*
G02X919535Y1123031I-839J-898D01*
G02X917079I-1228J0D01*
G02X917469Y1123929I1229J0D01*
G03Y1125087I-539J579D01*
G37*
G36*
G01X913736Y1136610D02*
G02X916189Y1136524I1225J-87D01*
G02X914988Y1135295I-1229J0D01*
G03X914217Y1134559I18J-791D01*
G02X912992Y1133417I-1224J86D01*
G02X911764Y1134646I0J1228D01*
G02X912965Y1135874I1229J0D01*
G03X913736Y1136610I-18J791D01*
G37*
G36*
G01X994980Y1084622D02*
X994882Y1085087D01*
G03X994760Y1085303I-387J-75D01*
G02X994346Y1086220I811J917D01*
G02X996803I1228J0D01*
G02X996689Y1085701I-1229J-2D01*
G03X996657Y1085457I355J-170D01*
G01X996756Y1084992D01*
G03X996878Y1084776I387J75D01*
G02X997291Y1083858I-811J-917D01*
G02X994835I-1228J0D01*
G02X994949Y1084378I1229J2D01*
G03X994980Y1084622I-355J170D01*
G37*
G36*
G01X984913Y1098193D02*
Y1098657D01*
G03X984839Y1098886I-394J-2D01*
G01Y1098890D01*
G02X984606Y1099606I995J719D01*
G02X987063I1228J0D01*
G02X986831Y1098890I-1228J2D01*
G01Y1098886D01*
G03X986756Y1098657I319J-231D01*
G01Y1098193D01*
G03X986831Y1097965I394J2D01*
G01Y1097961D01*
G02X987063Y1097244I-995J-719D01*
G02X986827Y1096524I-1227J3D01*
G03X986752Y1096291I320J-231D01*
G01Y1095827D01*
G03X986827Y1095598I393J2D01*
G02X987055Y1094882I-1001J-714D01*
G02X984598I-1228J0D01*
G02X984835Y1095602I1227J-3D01*
G03X984909Y1095835I-320J231D01*
G01Y1096299D01*
G03X984835Y1096528I-393J-2D01*
G02X984606Y1097244I1001J714D01*
G02X984839Y1097961I1228J-2D01*
G01Y1097965D01*
G03X984913Y1098193I-319J231D01*
G37*
G36*
G01X969890Y1122520D02*
Y1122756D01*
G03X969827Y1122965I-393J-5D01*
G02X969638Y1123622I1040J655D01*
G02X972094I1228J0D01*
G02X971906Y1122965I-1229J-3D01*
G03X971843Y1122756I330J-214D01*
G01Y1122520D01*
G03X971906Y1122311I393J5D01*
G02X972094Y1121654I-1040J-655D01*
G02X969638I-1228J0D01*
G02X969827Y1122311I1229J3D01*
G03X969890Y1122520I-330J214D01*
G37*
G36*
G01X960858Y1129650D02*
X961087Y1129555D01*
G03X961327Y1129539I145J367D01*
G02X961614Y1129575I293J-1192D01*
G02X961902Y1129539I-5J-1228D01*
G03X962142Y1129555I95J383D01*
G01X962370Y1129650D01*
G03X962555Y1129799I-143J366D01*
G02X963583Y1130354I1028J-673D01*
G02X964559Y1129870I0J-1226D01*
G03X964748Y1129736I312J240D01*
G01X964980Y1129661D01*
G03X965213Y1129657I123J373D01*
G02X965555Y1129705I338J-1182D01*
G02X966157Y1129547I0J-1231D01*
G03X966402Y1129496I199J340D01*
G01X966650Y1129528D01*
G03X966874Y1129634I-48J391D01*
G02X967717Y1129969I843J-893D01*
G02Y1127512I0J-1228D01*
G02X967114Y1127669I0J1231D01*
G03X966870Y1127720I-199J-340D01*
G01X966622Y1127689D01*
G03X966398Y1127583I48J-391D01*
G02X965555Y1127248I-843J893D01*
G02X964579Y1127732I0J1226D01*
G03X964390Y1127866I-312J-240D01*
G01X964157Y1127941D01*
G03X963925Y1127945I-123J-373D01*
G02X963583Y1127898I-338J1182D01*
G02X963295Y1127933I5J1228D01*
G03X963055Y1127917I-95J-383D01*
G01X962827Y1127823D01*
G03X962642Y1127673I143J-366D01*
G02X960587I-1028J673D01*
G03X960402Y1127823I-328J-217D01*
G01X960173Y1127917D01*
G03X959933Y1127933I-145J-367D01*
G02X959646Y1127898I-293J1192D01*
G02Y1130354I0J1228D01*
G02X960673Y1129799I0J-1229D01*
G03X960858Y1129650I328J217D01*
G37*
G36*
G01X945559Y1066193D02*
G02X947114Y1066394I899J-838D01*
G03X947323Y1066331I214J330D01*
G01X947559D01*
G03X947768Y1066394I-5J393D01*
G02X948425Y1066583I655J-1040D01*
G02Y1064126I0J-1228D01*
G02X947768Y1064315I-3J1229D01*
G03X947559Y1064378I-214J-330D01*
G01X947323D01*
G03X947114Y1064315I5J-393D01*
G02X946457Y1064126I-655J1040D01*
G02X945559Y1064516I0J1229D01*
G03X945272Y1064642I-289J-268D01*
G01X944689D01*
G03X944402Y1064516I1J-394D01*
G02X943504Y1064126I-898J839D01*
G02Y1066583I0J1228D01*
G02X944402Y1066193I0J-1229D01*
G03X944689Y1066067I289J268D01*
G01X945272D01*
G03X945559Y1066193I-1J394D01*
G37*
G36*
G01X971154Y1069457D02*
G02X972579Y1070669I197J1213D01*
G02X972571Y1070531I-1228J1D01*
G03X973228Y1069665I787J-86D01*
G02X974260Y1068453I-197J-1213D01*
G02X971803I-1228J0D01*
G02X971811Y1068591I1228J-1D01*
G03X971154Y1069457I-787J86D01*
G37*
G36*
G01X947965Y1072902D02*
G02X949063Y1074122I-129J1220D01*
G02X949051Y1073961I-1228J9D01*
G03X949921Y1073071I785J-102D01*
G02X950051Y1073079I139J-1220D01*
G02X948823Y1071850I0J-1228D01*
G02X948835Y1072012I1228J-9D01*
G03X947965Y1072902I-785J102D01*
G37*
G36*
G01X927843Y1078689D02*
G02X929969Y1079528I898J839D01*
G02X929638Y1078689I-1229J0D01*
G03Y1077610I579J-539D01*
G02X929969Y1076772I-898J-839D01*
G02X927512I-1228J0D01*
G02X927843Y1077610I1229J0D01*
G03Y1078689I-579J539D01*
G37*
G36*
G01X985398Y1082465D02*
G02X986614Y1081055I1217J-180D01*
G02X986154Y1081146I2J1228D01*
G03X985075Y1080528I-296J-733D01*
G02X983858Y1079480I-1217J183D01*
G02Y1081937I0J1228D01*
G02X984319Y1081846I-2J-1228D01*
G03X985398Y1082465I296J733D01*
G37*
G36*
G01X984571Y1085614D02*
G02X983858Y1087843I-713J1000D01*
G02X984823Y1087374I0J-1227D01*
G03X985902Y1087220I620J492D01*
G02X986614Y1087449I713J-998D01*
G02Y1084992I0J-1228D01*
G02X985650Y1085461I0J1227D01*
G03X984571Y1085614I-620J-492D01*
G37*
G36*
G01X931350Y1089551D02*
G02X930571Y1091728I-780J949D01*
G02X931311Y1091480I0J-1228D01*
G03X932291Y1091500I478J631D01*
G02X933071Y1091780I780J-947D01*
G02Y1089323I0J-1228D01*
G02X932331Y1089571I0J1228D01*
G03X931350Y1089551I-478J-631D01*
G37*
G36*
G01X1007256Y1109870D02*
G02X1006299Y1111866I-957J769D01*
G02X1007256Y1111406I0J-1224D01*
G03X1008492I618J497D01*
G02X1009449Y1111866I957J-763D01*
G02Y1109409I0J-1228D01*
G02X1008492Y1109870I0J1224D01*
G03X1007256I-618J-497D01*
G37*
G36*
G01X953319Y1117071D02*
G02X955555Y1117772I1008J701D01*
G02X955346Y1117083I-1229J-4D01*
G03X955276Y1116862I322J-225D01*
G01X955280Y1116618D01*
G03X955346Y1116398I394J-1D01*
G02Y1114996I-1004J-701D01*
G03X955280Y1114776I327J-220D01*
G01X955276Y1114531D01*
G03X955346Y1114311I393J5D01*
G02X955413Y1114197I-1026J-678D01*
G01Y1114193D01*
G03X955764Y1113984I348J185D01*
G01X969287D01*
G03X969626Y1114177I0J394D01*
G01X969972Y1114764D01*
G03X969980Y1115157I-338J204D01*
G02X969827Y1115748I1074J594D01*
G02X972283I1228J0D01*
G02X972130Y1115157I-1227J4D01*
G03X972138Y1114764I346J-190D01*
G01X972484Y1114177D01*
G03X972823Y1113984I339J201D01*
G01X978157D01*
G02X978551Y1113591I0J-394D01*
G01Y1093496D01*
G02X978157Y1093102I-394J0D01*
G01X969346D01*
G03X969142Y1093043I3J-393D01*
G02X968504Y1092866I-636J1052D01*
G02X967866Y1093043I-2J1229D01*
G03X967661Y1093102I-207J-334D01*
G01X948000D01*
G03X947661Y1092906I2J-393D01*
G01X947315Y1092315D01*
G03Y1091921I341J-197D01*
G02X947476Y1091311I-1067J-609D01*
G02X945020I-1228J0D01*
G02X945181Y1091921I1229J1D01*
G03Y1092315I-341J197D01*
G01X944835Y1092906D01*
G03X944496Y1093102I-341J-197D01*
G01X932079D01*
G02X931685Y1093496I0J394D01*
G01Y1100146D01*
G03X931583Y1100409I-394J-1D01*
G01X931228Y1100803D01*
G03X930976Y1100933I-295J-262D01*
G02Y1103374I124J1220D01*
G03X931228Y1103504I-43J392D01*
G01X931583Y1103898D01*
G03X931685Y1104161I-291J265D01*
G01Y1113591D01*
G02X932079Y1113984I394J0D01*
G01X940803D01*
G03X941134Y1114169I-3J393D01*
G01X941492Y1114736D01*
G03X941516Y1115114I-331J210D01*
G02X941398Y1115642I1111J526D01*
G02X941579Y1116283I1228J0D01*
G03X941638Y1116508I-335J208D01*
G01X941622Y1116752D01*
G03X941543Y1116972I-393J-16D01*
G02X941291Y1117717I973J744D01*
G02X943748I1228J0D01*
G02X943567Y1117075I-1228J0D01*
G03X943508Y1116850I335J-208D01*
G01X943524Y1116606D01*
G03X943602Y1116386I393J16D01*
G02X943854Y1115642I-973J-744D01*
G02X943736Y1115114I-1229J-2D01*
G03X943760Y1114736I355J-168D01*
G01X944118Y1114169D01*
G03X944449Y1113984I333J208D01*
G01X952890D01*
G03X953240Y1114193I3J394D01*
G01Y1114197D01*
G02X953319Y1114323I1079J-587D01*
G03X953386Y1114543I-327J220D01*
G01X953390Y1114787D01*
G03X953319Y1115008I-393J-5D01*
G02X953110Y1115697I1021J685D01*
G02X953319Y1116386I1229J4D01*
G03X953390Y1116606I-322J225D01*
G01X953386Y1116850D01*
G03X953319Y1117071I-394J1D01*
G37*
G36*
G01X1002709Y1126780D02*
Y1126783D01*
G02X1003937Y1127992I1228J-20D01*
G02X1004776Y1127661I0J-1229D01*
G03X1005043Y1127555I269J287D01*
G01X1005587D01*
G03X1005854Y1127661I-1J394D01*
G02X1006693Y1127992I839J-898D01*
G02Y1125535I0J-1228D01*
G02X1005854Y1125866I0J1229D01*
G03X1005587Y1125972I-269J-287D01*
G01X1005043D01*
G03X1004776Y1125866I1J-394D01*
G02X1003937Y1125535I-839J898D01*
G02X1003728Y1125555I11J1227D01*
G03X1003409Y1125469I-66J-389D01*
G01X1002945Y1125083D01*
G03X1002803Y1124787I252J-303D01*
G01Y1124783D01*
G02X1002472Y1123965I-1228J20D01*
G03X1002366Y1123697I287J-269D01*
G01Y1123154D01*
G03X1002472Y1122886I394J1D01*
G02X1002803Y1122047I-898J-839D01*
G02X1000346I-1228J0D01*
G02X1000677Y1122886I1229J0D01*
G03X1000783Y1123154I-287J269D01*
G01Y1123697D01*
G03X1000677Y1123965I-394J-1D01*
G02X1000346Y1124803I898J839D01*
G02X1001575Y1126031I1228J0D01*
G02X1001783Y1126012I-11J-1227D01*
G03X1002102Y1126098I66J389D01*
G01X1002567Y1126484D01*
G03X1002709Y1126780I-252J303D01*
G37*
G36*
G01X997323Y1126992D02*
G02X996457Y1129091I-866J870D01*
G02X997264Y1128787I0J-1226D01*
G03X998346Y1128823I522J595D01*
G02X999213Y1129181I866J-868D01*
G02Y1126724I0J-1228D01*
G02X998406Y1127028I0J1226D01*
G03X997323Y1126992I-522J-595D01*
G37*
G36*
G01X986354Y1130807D02*
G02X988433Y1131693I851J886D01*
G02X988028Y1130783I-1227J2D01*
G03X988012Y1129626I533J-586D01*
G02X988390Y1128740I-849J-886D01*
G02X985933I-1228J0D01*
G02X986339Y1129650I1227J-2D01*
G03X986354Y1130807I-533J586D01*
G37*
G36*
G01X946799Y1138693D02*
G02X948594Y1138563I837J-898D01*
G03X948902Y1138417I306J248D01*
G01X949524D01*
G03X949831Y1138563I1J394D01*
G02X950787Y1139024I957J-763D01*
G02Y1136567I0J-1228D01*
G02X949831Y1137028I0J1224D01*
G03X949524Y1137173I-306J-248D01*
G01X948902D01*
G03X948594Y1137028I-1J-394D01*
G02X947638Y1136567I-957J763D01*
G02X946799Y1136898I0J1229D01*
G03X946531Y1137004I-269J-287D01*
G01X945988D01*
G03X945720Y1136898I1J-394D01*
G02X944882Y1136567I-839J898D01*
G02Y1139024I0J1228D01*
G02X945720Y1138693I0J-1229D01*
G03X945988Y1138587I269J287D01*
G01X946531D01*
G03X946799Y1138693I-1J394D01*
G37*
G36*
G01X964516D02*
G02X966217Y1138669I838J-898D01*
G01X966220D01*
G03X966543Y1138559I276J279D01*
G01X967161Y1138634D01*
G03X967453Y1138823I-47J391D01*
G02X968504Y1139417I1051J-632D01*
G02Y1136961I0J-1228D01*
G02X967642Y1137315I0J1226D01*
G01X967638D01*
G03X967315Y1137425I-276J-279D01*
G01X966697Y1137350D01*
G03X966406Y1137161I47J-391D01*
G02X965354Y1136567I-1051J632D01*
G02X964516Y1136898I0J1229D01*
G03X964248Y1137004I-269J-287D01*
G01X963705D01*
G03X963437Y1136898I1J-394D01*
G02X962598Y1136567I-839J898D01*
G02Y1139024I0J1228D01*
G02X963437Y1138693I0J-1229D01*
G03X963705Y1138587I269J287D01*
G01X964248D01*
G03X964516Y1138693I-1J394D01*
G37*
G36*
G01X959681Y1142890D02*
G02X959449Y1145323I-232J1205D01*
G02X960654Y1144343I0J-1230D01*
G03X961579Y1143724I775J159D01*
G02X961811Y1143748I240J-1204D01*
G02Y1141291I0J-1228D01*
G02X960606Y1142272I0J1230D01*
G03X959681Y1142890I-775J-159D01*
G37*
G36*
G01X950220Y1144012D02*
G02X949858Y1144882I864J870D01*
G02X951087Y1146110I1228J0D01*
G02X951780Y1145898I2J-1229D01*
G03X952004Y1145827I225J322D01*
G01X952244D01*
G03X952469Y1145898I-1J393D01*
G02X953161Y1146110I691J-1016D01*
G02Y1143654I0J-1228D01*
G02X952469Y1143866I-2J1229D01*
G03X952244Y1143937I-225J-322D01*
G01X952004D01*
G03X951780Y1143866I1J-393D01*
G01X951776Y1143862D01*
G03X951799Y1143193I220J-327D01*
G02X952417Y1142126I-612J-1067D01*
G02X949961I-1228J0D01*
G02X950260Y1142929I1228J0D01*
G01Y1142933D01*
G03X950358Y1143205I-295J260D01*
G01X950339Y1143744D01*
G03X950220Y1144012I-394J-14D01*
G37*
G36*
G01X963346Y1156425D02*
G02X964567Y1155319I1220J120D01*
G01X964528D01*
G03X963713Y1154453I-27J-791D01*
G02X963720Y1154331I-1219J-140D01*
G02X962492Y1155559I-1228J0D01*
G01X962531D01*
G03X963346Y1156425I27J791D01*
G37*
G36*
G01X912846Y1058362D02*
G02X912008Y1060488I-839J898D01*
G02X912846Y1060157I0J-1229D01*
G03X913925I539J579D01*
G02X914764Y1060488I839J-898D01*
G02Y1058031I0J-1228D01*
G02X913925Y1058362I0J1229D01*
G03X912846I-539J-579D01*
G37*
G54D22*
X799213Y1014173D03*
G54D24*
X863272Y1152756D03*
X872327D03*
G54D23*
X794173Y1136024D03*
G54D26*
X852531Y1012441D03*
X862531D03*
X872531D03*
X882531D03*
X902531D03*
X912531D03*
X922531D03*
X932531D03*
X983858D03*
Y1022441D03*
G54D21*
X795472Y914173D03*
X799606Y888583D03*
X797638Y905118D03*
X798031Y920669D03*
X797835Y935236D03*
X798622Y950394D03*
X798031Y962598D03*
X815748Y990945D03*
X866929Y977756D03*
X862598Y983465D03*
X875984Y993701D03*
X885433Y994488D03*
X906496Y992520D03*
X890354Y940551D03*
X895276Y957087D03*
X886024Y962402D03*
X878937Y967717D03*
X875394Y976575D03*
X982677Y840748D03*
X958071Y837008D03*
X971457Y840945D03*
X957874Y991732D03*
X985039D03*
X995276Y991339D03*
X943780Y993406D03*
X953500Y991732D03*
X1001575Y866142D03*
Y916732D03*
X1001378Y901772D03*
Y889370D03*
X804331Y1031102D03*
X801575Y1037795D03*
X796457Y1050972D03*
X801772Y1042717D03*
X808071Y1059252D03*
X806890Y1051083D03*
X808661Y1067323D03*
X794382Y1083858D03*
X794094Y1066535D03*
X796850Y1081445D03*
X807630Y1112205D03*
X807209Y1116925D03*
X793835Y1118823D03*
X794488Y1093307D03*
X794728Y1097189D03*
X808661Y1085433D03*
X807874Y1073228D03*
X797244Y1140748D03*
X827559Y1016929D03*
X813780Y1028346D03*
X810039Y1025787D03*
X831299Y1018406D03*
X827756Y1053937D03*
X854382Y1033268D03*
X838189Y1032874D03*
X856496Y1054134D03*
X857087Y1046654D03*
X843110Y1047244D03*
X833465Y1043307D03*
X869780Y1044098D03*
X860630Y1039173D03*
X809843Y1052756D03*
X832480Y1023622D03*
X814567Y1052362D03*
X825591Y1027165D03*
X847835Y1045768D03*
X811614Y1069685D03*
X822835Y1062992D03*
X824803Y1090551D03*
X817323Y1090157D03*
X811417Y1089370D03*
Y1093701D03*
X824803Y1094882D03*
X812795Y1074409D03*
X811024Y1062992D03*
X820669Y1125787D03*
X830315Y1116142D03*
X820472Y1116339D03*
X825394Y1121260D03*
X868504Y1063386D03*
X867232Y1079134D03*
X869291Y1067272D03*
X867323Y1082488D03*
X850394Y1078740D03*
Y1062992D03*
X858661Y1084055D03*
X858465Y1079134D03*
X854331Y1068898D03*
X834646Y1062992D03*
X842520Y1068898D03*
X834646Y1078740D03*
X835039Y1110630D03*
X845776Y1111811D03*
X844339Y1122441D03*
X859449Y1117717D03*
X852953Y1108358D03*
X860287Y1105118D03*
X849209Y1095280D03*
X865110Y1106299D03*
X810630Y1082780D03*
X815354Y1106299D03*
X845579Y1115354D03*
X812264Y1114961D03*
X820079Y1088189D03*
X818110Y1104087D03*
X842913Y1091732D03*
X849803Y1083858D03*
X810039Y1145713D03*
X830315Y1126181D03*
X809843Y1140945D03*
X867323Y1149409D03*
X862205Y1148031D03*
X856693D03*
X854331Y1150984D03*
X860433Y1158465D03*
X837402Y1137689D03*
X918898Y912992D03*
X874409Y888189D03*
X891732Y927953D03*
X887795Y925984D03*
X887598Y922638D03*
X895866Y924803D03*
X872047Y1023031D03*
X857480Y1022744D03*
X866429Y1024213D03*
X858366Y1016831D03*
X921760Y1023622D03*
X908465Y1023819D03*
X889106D03*
X884843Y1021457D03*
X881693Y1023228D03*
X897193Y1024016D03*
X901878D03*
X927362Y1022244D03*
X931496Y1020276D03*
X941339Y1019291D03*
X993110Y1028543D03*
X996063Y1022835D03*
X972047Y1013386D03*
X954724Y1020472D03*
X944882Y1025591D03*
X947835Y1022638D03*
X996260Y1040157D03*
X1003937Y1050197D03*
X1004528Y1016732D03*
X1003150Y1022835D03*
X1007087Y1028740D03*
X1009843Y1031496D03*
X1013780Y1028937D03*
Y1019685D03*
Y1047244D03*
X1009449Y1039917D03*
X1003740Y1040157D03*
X1006693Y1061024D03*
X1013780Y1075787D03*
X886220Y1060827D03*
X895669Y1082677D03*
X889764Y1080709D03*
X883858D03*
X888886Y1092717D03*
X884343D03*
X883268Y1070669D03*
X882480Y1118504D03*
X885047Y1123228D03*
X886417Y1111024D03*
X884449Y1114567D03*
X886417Y1118504D03*
X882480Y1125776D03*
X902362Y1125205D03*
X899815Y1122638D03*
X896260Y1113386D03*
X899213Y1118701D03*
X914961Y1124606D03*
X915354Y1109449D03*
X910039Y1087992D03*
X908071Y1084449D03*
X910039Y1080906D03*
X906102D03*
X895669Y1145669D03*
X887591Y1154724D03*
X885146Y1142520D03*
X881890Y1145283D03*
X880118Y1151772D03*
X916535Y1155906D03*
X900205Y1154724D03*
X916732Y1148819D03*
Y1141929D03*
X909843Y1137992D03*
X902953Y1141929D03*
X909843Y1152756D03*
X900205Y1158268D03*
X887591D03*
X895669Y1150583D03*
X891732D03*
Y1145669D03*
X929043Y1052756D03*
X924500Y1052559D03*
X935197Y1070520D03*
X927469Y1067913D03*
X935433Y1081496D03*
X925197Y1070327D03*
X926969Y1107480D03*
X929134Y1135039D03*
X950000Y1055118D03*
X979528Y1058661D03*
X955906Y1060630D03*
X960630Y1058858D03*
X984646Y1057390D03*
X971260Y1055161D03*
X977953Y1055217D03*
X974409Y1060087D03*
X966142Y1060236D03*
X943531Y1088772D03*
X986614Y1070472D03*
X980315Y1064961D03*
X978740Y1080709D03*
Y1086614D03*
X981890Y1093102D03*
X969488Y1067126D03*
X955906Y1066142D03*
X953150Y1078740D03*
X968110D03*
X986614Y1089764D03*
X960630Y1082705D03*
Y1076575D03*
X988094Y1121362D03*
X998819Y1111024D03*
X988583Y1110047D03*
X999213Y1098425D03*
X963780Y1117717D03*
X980709Y1108866D03*
X954331Y1125591D03*
X982283Y1116142D03*
X986614Y1106299D03*
X984843Y1124909D03*
X945677Y1121252D03*
X995669Y1089764D03*
X967413Y1083366D03*
X974213Y1076969D03*
X984252Y1112598D03*
X949957Y1068307D03*
X942126Y1135827D03*
X947638Y1133465D03*
X943602Y1129579D03*
X987598Y1149213D03*
Y1156102D03*
X988232Y1145866D03*
X989476Y1137008D03*
X955906Y1156299D03*
X967035Y1154331D03*
X976181Y1134646D03*
X973819Y1149213D03*
X980709Y1145276D03*
Y1153150D03*
X973819Y1156102D03*
X955906Y1128740D03*
X984933Y1137008D03*
X953831Y1159449D03*
X936220Y1139764D03*
X976772Y1138189D03*
X964764Y1148031D03*
X1001579Y1108079D03*
X1012587Y1083465D03*
X1012114Y1087008D03*
X1002165Y1085630D03*
X917528Y1055906D03*
X916142Y1065067D03*
X912795Y1064173D03*
X908268Y1066732D03*
X938976Y1038575D03*
X950394Y1039173D03*
X983465Y1034843D03*
X967717Y1040945D03*
X962598Y1038976D03*
X957480D03*
X943110Y1038583D03*
X978831Y1039567D03*
G54D25*
X895374Y890354D03*
X899311D03*
X903248D03*
X907185D03*
X911122D03*
Y894291D03*
X907185D03*
X903248D03*
X899311D03*
X895374D03*
X911122Y898228D03*
X907185D03*
X903248D03*
X899311D03*
X895374D03*
X911122Y902165D03*
X907185D03*
X903248D03*
X899311D03*
X895374D03*
X911122Y906102D03*
X907185D03*
X903248D03*
X899311D03*
X895374D03*
%LPD*%
G75*
G36*
G01X798358Y1123268D02*
Y1123760D01*
X797520Y1123811D01*
X797571Y1122972D01*
X798063D01*
G03X798358Y1123268I0J295D01*
G37*
G36*
G01X817996Y1094606D02*
X817650Y1094252D01*
X818205Y1093626D01*
X818760Y1094252D01*
X818413Y1094606D01*
G03X817996I-209J-209D01*
G37*
G36*
G01X798709Y1128248D02*
Y1128740D01*
X797870Y1128791D01*
X797921Y1127953D01*
X798413D01*
G03X798709Y1128248I0J295D01*
G37*
G36*
G01X965563Y1113386D02*
X977559D01*
G02X977953Y1112992I0J-394D01*
G01Y1111776D01*
G02X977795Y1111457I-394J-4D01*
G01X977280Y1111079D01*
G02X976933Y1111016I-236J315D01*
G01Y1111020D01*
G03X976575Y1111071I-351J-1178D01*
G03Y1108614I0J-1228D01*
G03X976933Y1108665I7J1229D01*
G01Y1108669D01*
G02X977280Y1108606I110J-378D01*
G01X977795Y1108228D01*
G02X977953Y1107909I-237J-315D01*
G01Y1094094D01*
G02X977559Y1093701I-394J0D01*
G01X970126D01*
G02X969732Y1094094I0J394D01*
G03X967276I-1228J0D01*
G02X966882Y1093701I-394J0D01*
G01X954244D01*
G02X953917Y1093874I-1J394D01*
G01X953547Y1094413D01*
G02X953508Y1094780I326J220D01*
G03X953591Y1095224I-1146J443D01*
G03X952362Y1096453I-1228J0D01*
G03X951406Y1095992I0J-1224D01*
G02X951098Y1095846I-306J248D01*
G01X950476D01*
G02X950169Y1095992I-1J394D01*
G03X949213Y1096453I-957J-763D01*
G03X947984Y1095224I0J-1228D01*
G03X948067Y1094780I1229J-2D01*
G02X948028Y1094413I-366J-146D01*
G01X947657Y1093874D01*
G02X947331Y1093701I-326J220D01*
G01X932677D01*
G02X932283Y1094094I0J394D01*
G01Y1100382D01*
G02X932425Y1100685I394J1D01*
G01X932902Y1101075D01*
G02X933228Y1101157I251J-304D01*
G03X933465Y1101134I240J1204D01*
G03Y1103591I0J1228D01*
G03X933228Y1103567I4J-1228D01*
G02X932902Y1103650I-76J386D01*
G01X932425Y1104039D01*
G02X932283Y1104343I252J303D01*
G01Y1112992D01*
G02X932677Y1113386I394J0D01*
G01X952831D01*
G02X953193Y1113146I0J-393D01*
G01X953197D01*
G03X955457I1130J473D01*
G01X955461D01*
G02X955823Y1113386I362J-153D01*
G01X961602D01*
G02X961906Y1113244I0J-394D01*
G01X962295Y1112772D01*
G02X962378Y1112445I-305J-251D01*
G03X962354Y1112213I1204J-240D01*
G03X964811I1228J0D01*
G03X964787Y1112445I-1228J-7D01*
G02X964870Y1112772I387J76D01*
G01X965260Y1113244D01*
G02X965563Y1113386I303J-253D01*
G37*
%LPC*%
G75*
G36*
G01X959224Y1097894D02*
X959366Y1098091D01*
G03X959441Y1098311I-319J231D01*
G02X960669Y1099508I1228J-32D01*
G02X961898Y1098303I0J-1229D01*
G03X961980Y1098071I393J9D01*
G01X962134Y1097874D01*
G03X962339Y1097732I315J236D01*
G02X963236Y1096551I-328J-1181D01*
G02X962008Y1095323I-1228J0D01*
G02X961213Y1095614I0J1231D01*
G03X960965Y1095709I-256J-299D01*
G01X960461Y1095720D01*
G03X960209Y1095634I-5J-394D01*
G02X959449Y1095370I-760J963D01*
G02X958220Y1096598I0J1228D01*
G02X959035Y1097756I1229J0D01*
G03X959224Y1097894I-127J373D01*
G37*
G36*
G01X942752Y1097898D02*
X942287D01*
G03X942059Y1097823I2J-394D01*
G01X942055D01*
G02X941339Y1097591I-719J995D01*
G02Y1100047I0J1228D01*
G02X942055Y1099815I-2J-1228D01*
G01X942059D01*
G03X942287Y1099740I231J319D01*
G01X942752D01*
G03X942980Y1099815I-2J394D01*
G01X942984D01*
G02X943701Y1100047I719J-995D01*
G02Y1097591I0J-1228D01*
G02X942984Y1097823I2J1228D01*
G01X942980D01*
G03X942752Y1097898I-231J-319D01*
G37*
G54D21*
X950394Y1110236D03*
X950591Y1106496D03*
X974016Y1105512D03*
X965059Y1101969D03*
%LPD*%
G75*
G54D10*
X797244Y702756D03*
Y1152362D03*
X1007087Y702756D03*
Y1152362D03*
G54D20*
G01X993799Y609350D02*
X994441Y605217D01*
X995177Y609350D01*
X995913Y605217D01*
X996555Y609350D01*
G01X999339Y609004D02*
X999063Y609213D01*
X998740Y609350D01*
X998374D01*
X997961Y609142D01*
X997638Y608799D01*
X997409Y608386D01*
X997224Y607697D01*
X997177Y607075D01*
X997272Y606457D01*
X997409Y606043D01*
X997685Y605630D01*
X998004Y605354D01*
X998327Y605217D01*
X998650D01*
X998969Y605354D01*
X999244Y605559D01*
X999476Y605835D01*
G01X1000512Y605768D02*
X1000878Y605421D01*
X1001291Y605217D01*
X1001661D01*
X1002028Y605421D01*
X1002303Y605768D01*
X1002441Y606252D01*
X1002350Y606732D01*
X1002118Y607146D01*
X1001705Y607421D01*
X1001154Y607559D01*
X1000835Y607835D01*
X1000697Y608315D01*
X1000787Y608799D01*
X1001016Y609142D01*
X1001339Y609350D01*
X1001661D01*
X1001980Y609213D01*
X1002256Y608866D01*
G01X1004626Y609350D02*
X1004260Y609213D01*
X1003984Y608866D01*
X1003799Y608457D01*
X1003661Y607902D01*
X1003614Y607283D01*
X1003661Y606661D01*
X1003799Y606110D01*
X1003984Y605697D01*
X1004260Y605354D01*
X1004626Y605217D01*
X1004992Y605354D01*
X1005268Y605697D01*
X1005453Y606110D01*
X1005591Y606661D01*
X1005638Y607283D01*
X1005591Y607902D01*
X1005453Y608457D01*
X1005268Y608866D01*
X1004992Y609213D01*
X1004626Y609350D01*
G01X1006764Y606043D02*
X1007039Y605559D01*
X1007409Y605283D01*
X1007823Y605217D01*
X1008189Y605283D01*
X1008555Y605630D01*
X1008787Y606043D01*
X1008831Y606457D01*
X1008740Y606937D01*
X1008417Y607283D01*
X1008098Y607421D01*
X1007685D01*
G01X1008098D02*
X1008374Y607626D01*
X1008602Y607972D01*
X1008693Y608386D01*
X1008602Y608799D01*
X1008374Y609142D01*
X1007961Y609350D01*
X1007547Y609283D01*
X1007134Y609004D01*
G01X1010925Y605217D02*
X1011248Y605283D01*
X1011614Y605492D01*
X1011843Y605835D01*
X1011937Y606319D01*
X1011843Y606799D01*
X1011567Y607213D01*
X1011154Y607421D01*
X1010697D01*
X1010421Y607559D01*
X1010189Y607902D01*
X1010098Y608386D01*
X1010236Y608866D01*
X1010559Y609213D01*
X1010925Y609350D01*
X1011291Y609213D01*
X1011614Y608866D01*
X1011752Y608386D01*
X1011661Y607902D01*
X1011429Y607559D01*
X1011154Y607421D01*
X1010697D01*
X1010283Y607213D01*
X1010008Y606799D01*
X1009913Y606319D01*
X1010008Y605835D01*
X1010236Y605492D01*
X1010602Y605283D01*
X1010925Y605217D01*
G01X993669Y616831D02*
Y612697D01*
X995504D01*
G01X996587D02*
X997736Y616831D01*
X998886Y612697D01*
G01X998472Y614142D02*
X997000D01*
G01X999874Y616831D02*
Y613870D01*
X1000059Y613248D01*
X1000425Y612835D01*
X1000886Y612697D01*
X1001346Y612835D01*
X1001713Y613248D01*
X1001898Y613870D01*
Y616831D01*
G01X1002980Y612697D02*
Y616831D01*
X1005091Y612697D01*
Y616831D01*
G01X1008197Y616484D02*
X1007921Y616693D01*
X1007598Y616831D01*
X1007232D01*
X1006819Y616622D01*
X1006496Y616280D01*
X1006268Y615866D01*
X1006083Y615177D01*
X1006035Y614555D01*
X1006130Y613937D01*
X1006268Y613524D01*
X1006543Y613110D01*
X1006862Y612835D01*
X1007185Y612697D01*
X1007508D01*
X1007827Y612835D01*
X1008102Y613039D01*
X1008335Y613315D01*
G01X1009370Y612697D02*
Y616831D01*
G01X1011299D02*
Y612697D01*
G01Y614764D02*
X1009370D01*
G01X1012520Y612697D02*
X1014449Y616831D01*
G01X1012520D02*
X1014449Y612697D01*
G01X1015717Y616831D02*
Y612697D01*
X1017551D01*
G01X1019185Y614075D02*
X1020382D01*
G01X1023945Y616484D02*
X1023669Y616693D01*
X1023346Y616831D01*
X1022980D01*
X1022567Y616622D01*
X1022244Y616280D01*
X1022016Y615866D01*
X1021831Y615177D01*
X1021783Y614555D01*
X1021878Y613937D01*
X1022016Y613524D01*
X1022291Y613110D01*
X1022610Y612835D01*
X1022933Y612697D01*
X1023256D01*
X1023575Y612835D01*
X1023850Y613039D01*
X1024083Y613315D01*
G01X1027094Y616484D02*
X1026819Y616693D01*
X1026496Y616831D01*
X1026130D01*
X1025717Y616622D01*
X1025394Y616280D01*
X1025165Y615866D01*
X1024980Y615177D01*
X1024933Y614555D01*
X1025028Y613937D01*
X1025165Y613524D01*
X1025441Y613110D01*
X1025760Y612835D01*
X1026083Y612697D01*
X1026406D01*
X1026724Y612835D01*
X1027000Y613039D01*
X1027232Y613315D01*
G01X1029232Y612697D02*
Y616831D01*
X1028681Y616004D01*
G01Y612697D02*
X1029783D01*
G01X1031370Y613524D02*
X1031646Y613039D01*
X1032016Y612764D01*
X1032429Y612697D01*
X1032795Y612764D01*
X1033161Y613110D01*
X1033394Y613524D01*
X1033437Y613937D01*
X1033346Y614417D01*
X1033024Y614764D01*
X1032705Y614902D01*
X1032291D01*
G01X1032705D02*
X1032980Y615106D01*
X1033209Y615453D01*
X1033299Y615866D01*
X1033209Y616280D01*
X1032980Y616622D01*
X1032567Y616831D01*
X1032154Y616764D01*
X1031740Y616484D01*
G01X1034520Y613315D02*
X1034795Y612972D01*
X1035118Y612764D01*
X1035531Y612697D01*
X1035945Y612835D01*
X1036268Y613110D01*
X1036496Y613591D01*
X1036543Y614142D01*
X1036449Y614693D01*
X1036220Y615039D01*
X1035898Y615315D01*
X1035579Y615382D01*
X1035256Y615315D01*
X1034843Y615039D01*
X1034980Y616831D01*
X1036220D01*
G01X1037807Y616142D02*
X1038083Y616555D01*
X1038406Y616764D01*
X1038772Y616831D01*
X1039232Y616693D01*
X1039555Y616346D01*
X1039646Y615937D01*
X1039598Y615520D01*
X1039417Y615177D01*
X1038496Y614488D01*
X1038083Y614004D01*
X1037807Y613315D01*
X1037717Y612697D01*
X1039646D01*
G01X1040913D02*
Y616831D01*
X1042059D01*
X1042429Y616622D01*
X1042657Y616346D01*
X1042748Y615795D01*
X1042657Y615244D01*
X1042382Y614902D01*
X1042059Y614693D01*
X1040913D01*
G01X1042059D02*
X1042748Y612697D01*
G01X1044980D02*
Y616831D01*
X1044429Y616004D01*
G01Y612697D02*
X1045531D01*
G01X1023098Y605315D02*
Y609449D01*
X1024244D01*
X1024614Y609240D01*
X1024843Y608965D01*
X1024933Y608413D01*
X1024843Y607862D01*
X1024567Y607520D01*
X1024244Y607311D01*
X1023098D01*
G01X1024244D02*
X1024933Y605315D01*
G01X1026476Y607173D02*
X1027945D01*
X1027807Y607657D01*
X1027579Y607933D01*
X1027256Y608071D01*
X1026937Y608000D01*
X1026661Y607795D01*
X1026476Y607311D01*
X1026386Y606898D01*
Y606488D01*
X1026476Y606071D01*
X1026705Y605657D01*
X1026980Y605382D01*
X1027303Y605315D01*
X1027626Y605453D01*
X1027945Y605866D01*
G01X1029488Y608071D02*
X1030315Y605315D01*
X1031142Y608071D01*
G01X1033465Y605177D02*
X1033374Y605248D01*
Y605382D01*
X1033465Y605453D01*
X1033555Y605382D01*
Y605248D01*
X1033465Y605177D01*
G01X1040130Y607520D02*
X1040315Y607724D01*
X1040453Y608071D01*
X1040543Y608555D01*
X1040453Y608965D01*
X1040268Y609240D01*
X1039949Y609449D01*
X1038709D01*
Y605315D01*
X1040224D01*
X1040543Y605591D01*
X1040728Y606004D01*
X1040819Y606488D01*
X1040728Y606969D01*
X1040453Y607382D01*
X1040130Y607520D01*
X1038709D01*
G54D11*
X812598Y832362D03*
X822531Y872441D03*
Y882441D03*
Y892441D03*
X812531Y872441D03*
Y882441D03*
Y892441D03*
X812598Y852362D03*
Y842362D03*
X822531Y902441D03*
Y912441D03*
Y922441D03*
Y932441D03*
Y942441D03*
Y952441D03*
X812531Y902441D03*
Y912441D03*
Y922441D03*
Y932441D03*
Y942441D03*
Y952441D03*
X822531Y962441D03*
X812531D03*
X832531Y1002441D03*
Y1012441D03*
X858969Y875248D03*
X848969D03*
X858969Y865248D03*
X848969D03*
X842531Y1002441D03*
X852531D03*
X862531D03*
X872531D03*
X882531D03*
X892531D03*
X842531Y1012441D03*
X852531D03*
X862531D03*
X872531D03*
X882531D03*
X892531D03*
X902531Y1002441D03*
X912531D03*
X922531D03*
X932531D03*
X902531Y1012441D03*
X912531D03*
X922531D03*
X932531D03*
X992520Y832362D03*
X992610Y872441D03*
Y882441D03*
Y892441D03*
X982610Y872441D03*
Y882441D03*
Y892441D03*
X992520Y852362D03*
Y842362D03*
X992610Y902441D03*
Y912441D03*
Y922441D03*
Y932441D03*
Y942441D03*
Y952441D03*
X982610Y902441D03*
Y912441D03*
Y922441D03*
Y932441D03*
Y942441D03*
Y952441D03*
X992610Y962441D03*
X982610D03*
X983858Y1002441D03*
Y1012441D03*
Y1022441D03*
G54D12*
X796433Y864961D03*
X827559Y945669D03*
X809646Y1055118D03*
X807087Y1069685D03*
X794094Y1068898D03*
X829134Y1043701D03*
X822441Y1027165D03*
X820472Y1093701D03*
X818205D03*
X797571Y1123760D03*
X814961Y1111417D03*
X797630Y1112807D03*
X815354Y1094488D03*
X794382Y1087402D03*
X797921Y1128740D03*
X827165Y1145776D03*
Y1138189D03*
X811024Y1128740D03*
X814961Y1137795D03*
X882677Y891240D03*
Y883071D03*
X885827Y881150D03*
X885236Y916732D03*
X880709Y917717D03*
X882185Y898524D03*
X881591Y911323D03*
X887205Y917913D03*
X883268Y918098D03*
X890079Y934055D03*
X892913Y933858D03*
X882539Y950925D03*
X882480Y945276D03*
X884843Y929331D03*
X880906Y931299D03*
X884646Y931496D03*
X882677Y929528D03*
X858071Y907874D03*
X879921Y976969D03*
X872441Y981496D03*
X874409Y985630D03*
X886811Y973189D03*
X884055Y975591D03*
X869291Y993543D03*
Y981299D03*
X884646Y1047638D03*
X881693Y1068906D03*
X892520Y1065354D03*
Y1067323D03*
Y1063386D03*
X886220Y1049213D03*
X886130Y1027953D03*
X870972D03*
X867169Y1066925D03*
X868902Y1053941D03*
X886130Y1031102D03*
X870972D03*
X848425Y1030917D03*
X893504Y1118504D03*
X889764Y1126567D03*
X893701D03*
X879528Y1125984D03*
X877559D03*
X884252Y1097835D03*
Y1095866D03*
X876378Y1106890D03*
X872047Y1108654D03*
X874213D03*
X861862Y1107480D03*
X838583Y1107087D03*
X850787Y1106602D03*
X877516Y1092717D03*
X877559Y1090551D03*
X872835Y1075787D03*
X876378Y1104921D03*
X844492Y1133268D03*
X844484Y1131193D03*
X889764Y1138583D03*
X893701D03*
X840748Y1130472D03*
X922047Y885039D03*
X942992Y893504D03*
X952457Y850890D03*
X902205Y881193D03*
Y865748D03*
X922453Y907862D03*
X895748Y933858D03*
X914272Y947638D03*
X917028Y947047D03*
X912283Y950591D03*
X905768Y950925D03*
X906299Y944154D03*
X900492Y915256D03*
X902677Y915650D03*
X904252Y936024D03*
X949764Y901378D03*
X908386Y922441D03*
X906496Y932441D03*
X951575Y904134D03*
X937378Y982390D03*
X937638Y975000D03*
X943307Y975394D03*
X932283Y989567D03*
X931969Y975197D03*
X940748Y1005118D03*
X926181Y975402D03*
X910335Y953937D03*
X940941Y981689D03*
X945618Y983858D03*
X925197Y980118D03*
X908386Y956299D03*
X922441Y1064370D03*
X906693Y1050000D03*
Y1047638D03*
X941142Y1028150D03*
X901878Y1027953D03*
Y1031102D03*
X900984Y1068701D03*
X902953D03*
Y1063976D03*
X900984D03*
X919094Y1038787D03*
X911417D03*
X913780D03*
X916339Y1038780D03*
X930315Y1119291D03*
X935539Y1122835D03*
X933465D03*
X930248Y1117217D03*
X923228Y1116142D03*
X939567Y1112402D03*
X933465Y1107087D03*
X935827D03*
X937902D03*
X902362Y1116528D03*
X904724Y1116535D03*
X919291Y1087598D03*
X920004Y1098028D03*
X918224Y1096957D03*
X918122Y1094882D03*
X897638Y1126772D03*
X911024Y1133276D03*
X897638Y1138583D03*
X964173Y867126D03*
X957283Y866142D03*
X954921Y853740D03*
X957795Y937992D03*
X961575Y908307D03*
X963386Y897835D03*
X965748Y944488D03*
X962402Y945276D03*
X969606Y954528D03*
X1001969Y1060827D03*
X967323Y1027559D03*
X962598Y1090157D03*
X958661D03*
X953764Y1083268D03*
X971654Y1095276D03*
X971646Y1097476D03*
X971669Y1099551D03*
X999016Y1078020D03*
X1007480Y1141339D03*
X1005118D03*
X1002756D03*
G54D13*
X799213Y1014173D03*
G54D14*
X799508Y984827D03*
Y993882D03*
X872933Y780807D03*
X863272Y1152756D03*
X872327D03*
X931988Y780807D03*
X1005906Y993815D03*
Y984760D03*
G54D15*
G01X790945Y638681D02*
Y579626D01*
X1086220D01*
Y638681D01*
X790945D01*
G01X938583D02*
Y579626D01*
G01Y599311D02*
X1086220D01*
G01Y618996D02*
X938583D01*
G01X988488D02*
Y599311D01*
X798169Y1106024D03*
X802165Y1136024D03*
X794173D03*
G54D16*
X816732Y1152165D03*
X847835D03*
G54D17*
G01X902205Y881193D02*
X885870D01*
X885827Y881150D01*
G01X902205Y881193D02*
Y865748D01*
G54D18*
G01X794390Y692913D02*
X1011220D01*
G03X1017913Y700591I-552J7237D01*
G01Y964567D01*
G03X1013583Y976969I-19922J0D01*
G02X1009252Y989370I15591J12402D01*
G02X1013583Y1001772I19922J0D01*
G03X1017913Y1014173I-15591J12402D01*
G01Y1158811D01*
G03X1012157Y1164567I-5756J0D01*
G01X849803D01*
Y1159843D01*
X843504D01*
Y1151575D01*
X839961D01*
Y1159843D01*
X825000D01*
Y1151575D01*
X821457D01*
Y1159843D01*
X815157D01*
Y1164567D01*
X793354D01*
G03X787598Y1158811I0J-5756D01*
G01Y1014173D01*
G03X791929Y1001772I19922J0D01*
G02X796260Y989370I-15591J-12402D01*
G02X791929Y976969I-19922J0D01*
G03X787598Y964567I15591J-12402D01*
G01Y700591D01*
G03X794390Y692913I8087J312D01*
G01X950913Y586071D02*
Y593571D01*
X952780D01*
X953524Y593197D01*
X954083Y592697D01*
X954551Y591945D01*
X954925Y591071D01*
X955016Y589819D01*
X954925Y588571D01*
X954551Y587697D01*
X954083Y586945D01*
X953524Y586445D01*
X952780Y586071D01*
X950913D01*
G01X958130D02*
X960465Y593571D01*
X962799Y586071D01*
G01X961957Y588697D02*
X958972D01*
G01X967965Y593571D02*
Y586071D01*
G01X965819Y593571D02*
X970110D01*
G01X977331Y586071D02*
X973598D01*
Y593571D01*
X977331D01*
G01X975839Y589945D02*
X973598D01*
G01X982965Y585823D02*
X982780Y585945D01*
Y586197D01*
X982965Y586319D01*
X983150Y586197D01*
Y585945D01*
X982965Y585823D01*
G01Y589197D02*
X982780Y589319D01*
Y589571D01*
X982965Y589697D01*
X983150Y589571D01*
Y589319D01*
X982965Y589197D01*
G01X996193Y592323D02*
X996752Y593071D01*
X997406Y593445D01*
X998150Y593571D01*
X999083Y593323D01*
X999736Y592697D01*
X999925Y591945D01*
X999831Y591197D01*
X999457Y590571D01*
X997591Y589319D01*
X996752Y588445D01*
X996193Y587197D01*
X996004Y586071D01*
X999925D01*
G01X1005465Y593571D02*
X1004717Y593323D01*
X1004157Y592697D01*
X1003783Y591945D01*
X1003504Y590945D01*
X1003413Y589819D01*
X1003504Y588697D01*
X1003783Y587697D01*
X1004157Y586945D01*
X1004717Y586319D01*
X1005465Y586071D01*
X1006213Y586319D01*
X1006772Y586945D01*
X1007146Y587697D01*
X1007425Y588697D01*
X1007516Y589819D01*
X1007425Y590945D01*
X1007146Y591945D01*
X1006772Y592697D01*
X1006213Y593323D01*
X1005465Y593571D01*
G01X1012965Y586071D02*
Y593571D01*
X1011846Y592071D01*
G01Y586071D02*
X1014083D01*
G01X1020465D02*
X1021118Y586197D01*
X1021862Y586571D01*
X1022331Y587197D01*
X1022516Y588071D01*
X1022331Y588945D01*
X1021772Y589697D01*
X1020929Y590071D01*
X1020000D01*
X1019437Y590323D01*
X1018972Y590945D01*
X1018783Y591819D01*
X1019067Y592697D01*
X1019717Y593323D01*
X1020465Y593571D01*
X1021213Y593323D01*
X1021862Y592697D01*
X1022146Y591819D01*
X1021957Y590945D01*
X1021492Y590323D01*
X1020929Y590071D01*
X1020000D01*
X1019157Y589697D01*
X1018598Y588945D01*
X1018413Y588071D01*
X1018598Y587197D01*
X1019067Y586571D01*
X1019811Y586197D01*
X1020465Y586071D01*
G01X1026752Y588571D02*
X1029177D01*
G01X1035465Y586071D02*
Y593571D01*
X1034346Y592071D01*
G01Y586071D02*
X1036583D01*
G01X1042965Y593571D02*
X1042217Y593323D01*
X1041657Y592697D01*
X1041283Y591945D01*
X1041004Y590945D01*
X1040913Y589819D01*
X1041004Y588697D01*
X1041283Y587697D01*
X1041657Y586945D01*
X1042217Y586319D01*
X1042965Y586071D01*
X1043713Y586319D01*
X1044272Y586945D01*
X1044646Y587697D01*
X1044925Y588697D01*
X1045016Y589819D01*
X1044925Y590945D01*
X1044646Y591945D01*
X1044272Y592697D01*
X1043713Y593323D01*
X1042965Y593571D01*
G01X1049252Y588571D02*
X1051677D01*
G01X1056193Y592323D02*
X1056752Y593071D01*
X1057406Y593445D01*
X1058150Y593571D01*
X1059083Y593323D01*
X1059736Y592697D01*
X1059925Y591945D01*
X1059831Y591197D01*
X1059457Y590571D01*
X1057591Y589319D01*
X1056752Y588445D01*
X1056193Y587197D01*
X1056004Y586071D01*
X1059925D01*
G01X1063413Y587197D02*
X1063972Y586571D01*
X1064626Y586197D01*
X1065465Y586071D01*
X1066303Y586319D01*
X1066957Y586819D01*
X1067425Y587697D01*
X1067516Y588697D01*
X1067331Y589697D01*
X1066862Y590323D01*
X1066213Y590819D01*
X1065559Y590945D01*
X1064906Y590819D01*
X1064067Y590323D01*
X1064346Y593571D01*
X1066862D01*
G01X952768Y632744D02*
Y625244D01*
G01X950622Y632744D02*
X954913D01*
G01X962134Y625244D02*
X958402D01*
Y632744D01*
X962134D01*
G01X960642Y629118D02*
X958402D01*
G01X965807Y625244D02*
X969728Y632744D01*
G01X965807D02*
X969728Y625244D01*
G01X972933D02*
X975268Y632744D01*
X977602Y625244D01*
G01X976760Y627870D02*
X973776D01*
G01X980807Y626244D02*
X981555Y625618D01*
X982394Y625244D01*
X983142D01*
X983886Y625618D01*
X984449Y626244D01*
X984728Y627118D01*
X984539Y627992D01*
X984075Y628744D01*
X983232Y629244D01*
X982114Y629496D01*
X981461Y629992D01*
X981181Y630870D01*
X981370Y631744D01*
X981835Y632370D01*
X982488Y632744D01*
X983142D01*
X983795Y632496D01*
X984354Y631870D01*
G01X996650Y632744D02*
X998886D01*
G01X997768D02*
Y625244D01*
G01X996650D02*
X998886D01*
G01X1003122D02*
Y632744D01*
X1007413Y625244D01*
Y632744D01*
G01X1010807Y626244D02*
X1011555Y625618D01*
X1012394Y625244D01*
X1013142D01*
X1013886Y625618D01*
X1014449Y626244D01*
X1014728Y627118D01*
X1014539Y627992D01*
X1014075Y628744D01*
X1013232Y629244D01*
X1012114Y629496D01*
X1011461Y629992D01*
X1011181Y630870D01*
X1011370Y631744D01*
X1011835Y632370D01*
X1012488Y632744D01*
X1013142D01*
X1013795Y632496D01*
X1014354Y631870D01*
G01X1020268Y632744D02*
Y625244D01*
G01X1018122Y632744D02*
X1022413D01*
G01X1025902Y625244D02*
Y632744D01*
X1028232D01*
X1028980Y632370D01*
X1029449Y631870D01*
X1029634Y630870D01*
X1029449Y629870D01*
X1028886Y629244D01*
X1028232Y628870D01*
X1025902D01*
G01X1028232D02*
X1029634Y625244D01*
G01X1033217Y632744D02*
Y627370D01*
X1033587Y626244D01*
X1034335Y625492D01*
X1035268Y625244D01*
X1036201Y625492D01*
X1036949Y626244D01*
X1037319Y627370D01*
Y632744D01*
G01X1040343Y625244D02*
Y632744D01*
X1042768Y626492D01*
X1045193Y632744D01*
Y625244D01*
G01X1052134D02*
X1048402D01*
Y632744D01*
X1052134D01*
G01X1050642Y629118D02*
X1048402D01*
G01X1055622Y625244D02*
Y632744D01*
X1059913Y625244D01*
Y632744D01*
G01X1065268D02*
Y625244D01*
G01X1063122Y632744D02*
X1067413D01*
G01X1070807Y626244D02*
X1071555Y625618D01*
X1072394Y625244D01*
X1073142D01*
X1073886Y625618D01*
X1074449Y626244D01*
X1074728Y627118D01*
X1074539Y627992D01*
X1074075Y628744D01*
X1073232Y629244D01*
X1072114Y629496D01*
X1071461Y629992D01*
X1071181Y630870D01*
X1071370Y631744D01*
X1071835Y632370D01*
X1072488Y632744D01*
X1073142D01*
X1073795Y632496D01*
X1074354Y631870D01*
G01X958807Y613701D02*
Y606201D01*
X962539D01*
G01X966122Y607701D02*
X966681Y606827D01*
X967425Y606327D01*
X968268Y606201D01*
X969012Y606327D01*
X969760Y606949D01*
X970224Y607701D01*
X970319Y608449D01*
X970134Y609327D01*
X969480Y609949D01*
X968827Y610201D01*
X967988D01*
G01X968827D02*
X969386Y610575D01*
X969854Y611201D01*
X970039Y611949D01*
X969854Y612701D01*
X969386Y613327D01*
X968547Y613701D01*
X967709Y613575D01*
X966866Y613075D01*
G54D19*
G01X827559Y945669D02*
X826437Y946791D01*
X818181D01*
X812531Y952441D01*
G01X858071Y907874D02*
X817098D01*
X812531Y912441D01*
G01Y962441D02*
Y966681D01*
G01X808291Y962441D02*
X812531D01*
G01D02*
X816772D01*
G01X797921Y1128740D02*
X803937Y1122724D01*
Y1111024D01*
X820472Y1094488D01*
Y1093701D01*
G01X797571Y1123760D02*
X802756Y1118575D01*
Y1110531D01*
X818205Y1095083D01*
Y1093701D01*
G01X848969Y875248D02*
Y893220D01*
X862126Y906378D01*
Y932677D01*
X880374Y950925D01*
X882539D01*
G01X858969Y875248D02*
Y901370D01*
X862362Y904764D01*
Y904941D01*
X863307Y905886D01*
Y931815D01*
X876768Y945276D01*
X882480D01*
G01X937378Y982390D02*
X904272D01*
Y982244D01*
X903386Y981358D01*
X902126D01*
X901240Y982244D01*
Y982390D01*
X885343D01*
X879921Y976969D01*
G01X872441Y981496D02*
Y983661D01*
X874409Y985630D01*
G01X852531Y998201D02*
Y1002441D01*
G01X848291D02*
X852531D01*
G01D02*
X856772D01*
G01X886811Y973189D02*
X888602Y971398D01*
X888622D01*
X889508Y970512D01*
Y970492D01*
X900787Y959213D01*
Y934232D01*
X900256Y933701D01*
Y932441D01*
X900492Y932205D01*
Y915256D01*
G01X902677Y915650D02*
Y917232D01*
X903287Y917843D01*
Y933701D01*
X902579Y934409D01*
Y965220D01*
X892209Y975591D01*
X884055D01*
G01X869291Y981299D02*
Y993543D01*
G01X891189Y1066094D02*
X891142Y1066142D01*
G01X964173Y867126D02*
Y872323D01*
X942992Y893504D01*
G01X904252Y936024D02*
Y934441D01*
X904724Y933969D01*
Y923732D01*
X907689Y920768D01*
X929429D01*
X934803Y915394D01*
Y910098D01*
X969449Y875453D01*
Y858976D01*
X964213Y853740D01*
X954921D01*
G01X937638Y975000D02*
X933110Y970472D01*
X922638D01*
X914272Y962106D01*
Y947638D01*
G01X943307Y975394D02*
X936811Y968898D01*
X922992D01*
X917028Y962933D01*
Y947047D01*
G01X931969Y975197D02*
X930197Y973425D01*
X923740D01*
X912303Y961988D01*
Y952193D01*
X912283Y952173D01*
Y950591D01*
G01X965748Y944488D02*
X963583Y942323D01*
X905591D01*
X904626Y943287D01*
Y949783D01*
X905768Y950925D01*
G01X906299Y944154D02*
X961280D01*
X962402Y945276D01*
G01X904252Y936024D02*
X908780Y940551D01*
X976673D01*
X978563Y942441D01*
X982610D01*
G01X949764Y901378D02*
X964528Y886614D01*
X988437D01*
X992610Y882441D01*
G01X982610Y922441D02*
X908386D01*
G01X982610Y932441D02*
X906496D01*
G01X992610Y892441D02*
X988457D01*
X984323Y896575D01*
X980898D01*
X980484Y896161D01*
X959547D01*
X951575Y904134D01*
G01X943307Y982756D02*
Y975394D01*
G01X932283Y989567D02*
X936496D01*
X943307Y982756D01*
G01X912531Y1002441D02*
X916665Y1006575D01*
X937323D01*
X938780Y1005118D01*
X940748D01*
G01X926181Y975402D02*
X923906D01*
X916673Y968169D01*
Y968071D01*
X915787Y967185D01*
X915689D01*
X910335Y961831D01*
Y953937D01*
G01X926181Y975402D02*
X928732Y977953D01*
X935433D01*
X939169Y981689D01*
X940941D01*
G01X925197Y980118D02*
X923614D01*
X908386Y964890D01*
Y960157D01*
G01D02*
Y956299D01*
G01X992520Y832362D02*
Y836602D01*
G01X988280Y832362D02*
X992520D01*
G01D02*
X996760D01*
G01X957795Y937992D02*
X985886D01*
Y938031D01*
X986772Y938917D01*
X988031D01*
X988559Y938390D01*
X992610Y942441D01*
G01X961575Y908307D02*
X988476D01*
X992610Y912441D01*
G01X963386Y897835D02*
X988004D01*
X992610Y902441D01*
G01X965748Y944488D02*
X973701Y952441D01*
X982610D01*
G01Y962441D02*
X974059D01*
X962402Y950783D01*
Y945276D01*
G01X992610Y952441D02*
X988476Y956575D01*
X971654D01*
X969606Y954528D01*
G01X983858Y998201D02*
Y1002441D01*
G01X979618D02*
X983858D01*
G01D02*
X988098D01*
G01X983858Y1008201D02*
Y1012441D01*
G01D02*
Y1016681D01*
G01X979618Y1012441D02*
X983858D01*
G01D02*
X988098D01*
G01X983858Y1018201D02*
Y1022441D01*
G01D02*
Y1026681D01*
G01X979618Y1022441D02*
X983858D01*
G01D02*
X988098D01*
M02*
