G04 ================== begin FILE IDENTIFICATION RECORD ==================*
G04 Layout Name:  LAUNCHXL-CC1352R1.brd*
G04 Film Name:    LAUNCHXL-CC1352R1_soldmask_top*
G04 File Format:  Gerber RS274X*
G04 File Origin:  Cadence Allegro 17.2-S041*
G04 Origin Date:  Thu Oct 25 19:57:46 2018*
G04 *
G04 Layer:  DRAWING FORMAT/TITLE_BLOCK*
G04 Layer:  BOARD GEOMETRY/TOP SOLDER MASK*
G04 Layer:  PACKAGE GEOMETRY/SOLDERMASK_TOP*
G04 Layer:  VIA CLASS/SOLDERMASK_TOP*
G04 Layer:  PIN/SOLDERMASK_TOP*
G04 Layer:  BOARD GEOMETRY/OUTLINE*
G04 *
G04 Offset:    (0.000 0.000)*
G04 Mirror:    No*
G04 Mode:      Positive*
G04 Rotation:  0*
G04 FullContactRelief:  No*
G04 UndefLineWidth:     0.099*
G04 ================== end FILE IDENTIFICATION RECORD ====================*
%FSLAX25Y25*MOIN*%
%IR0*IPPOS*OFA0.00000B0.00000*MIA0B0*SFA1.00000B1.00000*%
%AMMACRO85*
4,1,41,0.0,.020709,
-.008898,.020709,
-.010437,.020565,
-.011929,.020156,
-.013326,.019494,
-.014588,.018599,
-.015675,.0175,
-.016554,.016228,
-.017199,.014822,
-.017591,.013326,
-.017717,.011811,
-.017717,-.011811,
-.017586,-.013352,
-.017191,-.014847,
-.016541,-.01625,
-.015658,-.01752,
-.014568,-.018616,
-.013304,-.019507,
-.011904,-.020165,
-.010412,-.020569,
-.008898,-.020709,
.008898,-.020709,
.010437,-.020565,
.011929,-.020156,
.013326,-.019494,
.014588,-.018599,
.015675,-.0175,
.016554,-.016228,
.017199,-.014822,
.017591,-.013326,
.017717,-.011811,
.017717,.011811,
.017586,.013352,
.017191,.014847,
.016541,.01625,
.015658,.01752,
.014568,.018616,
.013304,.019507,
.011904,.020165,
.010412,.020569,
.008898,.020709,
0.0,.020709,
0.0*
%
%ADD85MACRO85*%
%AMMACRO77*
4,1,41,.010433,-.010433,
.015591,-.005276,
.016412,-.004308,
.017045,-.003208,
.017478,-.002014,
.017696,-.000764,
.017694,.000506,
.017472,.001756,
.017036,.002948,
.0164,.004047,
.015591,.005,
.005,.015591,
.004032,.016411,
.002931,.017044,
.001738,.017477,
.000487,.017696,
-.000782,.017695,
-.002032,.017473,
-.003225,.017037,
-.004324,.016401,
-.005276,.015591,
-.015591,.005276,
-.016412,.004308,
-.017045,.003208,
-.017478,.002014,
-.017696,.000764,
-.017694,-.000506,
-.017472,-.001756,
-.017036,-.002948,
-.0164,-.004047,
-.015591,-.005,
-.005,-.015591,
-.004032,-.016411,
-.002931,-.017044,
-.001738,-.017477,
-.000487,-.017696,
.000782,-.017695,
.002032,-.017473,
.003225,-.017037,
.004324,-.016401,
.005276,-.015591,
.010433,-.010433,
0.0*
%
%ADD77MACRO77*%
%AMMACRO56*
4,1,41,.014764,0.0,
.014764,.007283,
.014653,.008548,
.014325,.009775,
.013788,.010925,
.01306,.011965,
.012162,.012863,
.011122,.013591,
.009971,.014128,
.008745,.014456,
.00748,.014567,
-.00748,.014567,
-.008745,.014456,
-.009971,.014128,
-.011122,.013591,
-.012162,.012863,
-.01306,.011965,
-.013788,.010925,
-.014325,.009775,
-.014653,.008548,
-.014764,.007283,
-.014764,-.007283,
-.014653,-.008548,
-.014325,-.009775,
-.013788,-.010925,
-.01306,-.011965,
-.012162,-.012863,
-.011122,-.013591,
-.009971,-.014128,
-.008745,-.014456,
-.00748,-.014567,
.00748,-.014567,
.008745,-.014456,
.009971,-.014128,
.011122,-.013591,
.012162,-.012863,
.01306,-.011965,
.013788,-.010925,
.014325,-.009775,
.014653,-.008548,
.014764,-.007283,
.014764,0.0,
0.0*
%
%ADD56MACRO56*%
%AMMACRO40*
4,1,44,-.003898,.009803,
.003898,.009803,
.004582,.009757,
.005249,.009593,
.005876,.009315,
.006446,.008933,
.006941,.008457,
.007346,.007903,
.007648,.007287,
.007839,.006628,
.007913,.005946,
.007913,.005906,
.007913,-.005906,
.007847,-.006589,
.007663,-.00725,
.007367,-.007869,
.006967,-.008427,
.006477,-.008908,
.005911,-.009296,
.005287,-.00958,
.004622,-.009751,
.003938,-.009804,
.003898,-.009803,
-.003898,-.009803,
-.004582,-.009757,
-.005249,-.009593,
-.005876,-.009315,
-.006446,-.008933,
-.006941,-.008457,
-.007346,-.007903,
-.007648,-.007287,
-.007839,-.006628,
-.007913,-.005946,
-.007913,-.005906,
-.007913,.005906,
-.007847,.006589,
-.007663,.00725,
-.007367,.007869,
-.006967,.008427,
-.006477,.008908,
-.005911,.009296,
-.005287,.00958,
-.004622,.009751,
-.003938,.009804,
-.003898,.009803,
0.0*
%
%ADD40MACRO40*%
%AMMACRO65*
4,1,44,.05315,-.024094,
.05315,.024094,
.052772,.028453,
.051643,.03268,
.049797,.036646,
.04729,.040232,
.044199,.043328,
.040617,.04584,
.036654,.047692,
.032429,.048828,
.028071,.049213,
.028031,.049213,
-.028031,.049213,
-.03239,.048835,
-.036617,.047706,
-.040583,.04586,
-.044169,.043353,
-.047265,.040262,
-.049777,.03668,
-.051629,.032717,
-.052765,.028492,
-.05315,.024134,
-.05315,.024094,
-.05315,-.024094,
-.052772,-.028453,
-.051643,-.03268,
-.049797,-.036646,
-.04729,-.040232,
-.044199,-.043328,
-.040617,-.04584,
-.036654,-.047692,
-.032429,-.048828,
-.028071,-.049213,
-.028031,-.049213,
.028031,-.049213,
.03239,-.048835,
.036617,-.047706,
.040583,-.04586,
.044169,-.043353,
.047265,-.040262,
.049777,-.03668,
.051629,-.032717,
.052765,-.028492,
.05315,-.024134,
.05315,-.024094,
0.0*
%
%ADD65MACRO65*%
%AMMACRO61*
4,1,41,0.0,-.030512,
.012795,-.030512,
.015017,-.030317,
.017172,-.02974,
.019193,-.028798,
.02102,-.027518,
.022597,-.025941,
.023876,-.024114,
.024819,-.022093,
.025396,-.019938,
.025591,-.017717,
.025591,.017717,
.025396,.019938,
.024819,.022093,
.023876,.024114,
.022597,.025941,
.02102,.027518,
.019193,.028798,
.017172,.02974,
.015017,.030317,
.012795,.030512,
-.012795,.030512,
-.015017,.030317,
-.017172,.02974,
-.019193,.028798,
-.02102,.027518,
-.022597,.025941,
-.023876,.024114,
-.024819,.022093,
-.025396,.019938,
-.025591,.017717,
-.025591,-.017717,
-.025396,-.019938,
-.024819,-.022093,
-.023876,-.024114,
-.022597,-.025941,
-.02102,-.027518,
-.019193,-.028798,
-.017172,-.02974,
-.015017,-.030317,
-.012795,-.030512,
0.0,-.030512,
0.0*
%
%ADD61MACRO61*%
%AMMACRO57*
4,1,41,0.0,-.014764,
.007283,-.014764,
.008548,-.014653,
.009775,-.014325,
.010925,-.013788,
.011965,-.01306,
.012863,-.012162,
.013591,-.011122,
.014128,-.009971,
.014456,-.008745,
.014567,-.00748,
.014567,.00748,
.014456,.008745,
.014128,.009971,
.013591,.011122,
.012863,.012162,
.011965,.01306,
.010925,.013788,
.009775,.014325,
.008548,.014653,
.007283,.014764,
-.007283,.014764,
-.008548,.014653,
-.009775,.014325,
-.010925,.013788,
-.011965,.01306,
-.012863,.012162,
-.013591,.011122,
-.014128,.009971,
-.014456,.008745,
-.014567,.00748,
-.014567,-.00748,
-.014456,-.008745,
-.014128,-.009971,
-.013591,-.011122,
-.012863,-.012162,
-.011965,-.01306,
-.010925,-.013788,
-.009775,-.014325,
-.008548,-.014653,
-.007283,-.014764,
0.0,-.014764,
0.0*
%
%ADD57MACRO57*%
%AMMACRO72*
4,1,41,0.0,-.042323,
.021181,-.042323,
.024855,-.041998,
.028418,-.04104,
.031759,-.039478,
.034779,-.037359,
.037385,-.034749,
.039498,-.031725,
.041053,-.028381,
.042005,-.024817,
.042323,-.021181,
.042323,.021181,
.041998,.024855,
.04104,.028418,
.039478,.031759,
.037359,.034779,
.034749,.037385,
.031725,.039498,
.028381,.041053,
.024817,.042005,
.021181,.042323,
-.021181,.042323,
-.024855,.041998,
-.028418,.04104,
-.031759,.039478,
-.034779,.037359,
-.037385,.034749,
-.039498,.031725,
-.041053,.028381,
-.042005,.024817,
-.042323,.021181,
-.042323,-.021181,
-.041998,-.024855,
-.04104,-.028418,
-.039478,-.031759,
-.037359,-.034779,
-.034749,-.037385,
-.031725,-.039498,
-.028381,-.041053,
-.024817,-.042005,
-.021181,-.042323,
0.0,-.042323,
0.0*
%
%ADD72MACRO72*%
%AMMACRO43*
4,1,45,.00937,-.00937,
.012441,-.006339,
.013383,-.005202,
.014123,-.003926,
.014631,-.00254,
.01489,-.001087,
.014892,.000388,
.014639,.001842,
.014137,.003229,
.013401,.004508,
.012455,.00564,
.012441,.005669,
.005669,.012441,
.004533,.013384,
.003257,.014124,
.001871,.014631,
.000418,.01489,
-.001057,.014892,
-.002511,.014639,
-.003898,.014136,
-.005177,.013401,
-.006309,.012454,
-.006339,.012441,
-.012441,.006339,
-.013383,.005202,
-.014123,.003926,
-.014631,.00254,
-.01489,.001087,
-.014892,-.000388,
-.014639,-.001842,
-.014137,-.003229,
-.013401,-.004508,
-.012455,-.00564,
-.012441,-.005669,
-.005669,-.012441,
-.004533,-.013384,
-.003257,-.014124,
-.001871,-.014631,
-.000418,-.01489,
.001057,-.014892,
.002511,-.014639,
.003898,-.014136,
.005177,-.013401,
.006309,-.012454,
.006339,-.012441,
.00937,-.00937,
0.0*
%
%ADD43MACRO43*%
%AMMACRO19*
4,1,41,.013268,0.0,
.013268,.004331,
.013139,.005801,
.012757,.007226,
.012134,.008563,
.011287,.009772,
.010244,.010815,
.009035,.011661,
.007698,.012285,
.006273,.012667,
.004803,.012795,
-.004803,.012795,
-.006273,.012667,
-.007698,.012285,
-.009035,.011661,
-.010244,.010815,
-.011287,.009772,
-.012134,.008563,
-.012757,.007226,
-.013139,.005801,
-.013268,.004331,
-.013268,-.004331,
-.013139,-.005801,
-.012757,-.007226,
-.012134,-.008563,
-.011287,-.009772,
-.010244,-.010815,
-.009035,-.011661,
-.007698,-.012285,
-.006273,-.012667,
-.004803,-.012795,
.004803,-.012795,
.006273,-.012667,
.007698,-.012285,
.009035,-.011661,
.010244,-.010815,
.011287,-.009772,
.012134,-.008563,
.012757,-.007226,
.013139,-.005801,
.013268,-.004331,
.013268,0.0,
0.0*
%
%ADD19MACRO19*%
%AMMACRO74*
4,1,40,.038386,-.011299,
.038386,.011299,
.038213,.013262,
.037702,.015166,
.036868,.016951,
.035737,.018565,
.034342,.019958,
.032727,.021087,
.030941,.021919,
.029037,.022428,
.027087,.022598,
-.027087,.022598,
-.02905,.022426,
-.030953,.021914,
-.032739,.02108,
-.034352,.019949,
-.035745,.018555,
-.036874,.01694,
-.037706,.015153,
-.038215,.013249,
-.038386,.011299,
-.038386,-.011299,
-.038213,-.013262,
-.037702,-.015166,
-.036868,-.016951,
-.035737,-.018565,
-.034342,-.019958,
-.032727,-.021087,
-.030941,-.021919,
-.029037,-.022428,
-.027087,-.022598,
.027087,-.022598,
.02905,-.022426,
.030953,-.021914,
.032739,-.02108,
.034352,-.019949,
.035745,-.018555,
.036874,-.01694,
.037706,-.015153,
.038215,-.013249,
.038386,-.011299,
0.0*
%
%ADD74MACRO74*%
%AMMACRO22*
4,1,41,0.0,-.013268,
.004331,-.013268,
.005801,-.013139,
.007226,-.012757,
.008563,-.012134,
.009772,-.011287,
.010815,-.010244,
.011661,-.009035,
.012285,-.007698,
.012667,-.006273,
.012795,-.004803,
.012795,.004803,
.012667,.006273,
.012285,.007698,
.011661,.009035,
.010815,.010244,
.009772,.011287,
.008563,.012134,
.007226,.012757,
.005801,.013139,
.004331,.013268,
-.004331,.013268,
-.005801,.013139,
-.007226,.012757,
-.008563,.012134,
-.009772,.011287,
-.010815,.010244,
-.011661,.009035,
-.012285,.007698,
-.012667,.006273,
-.012795,.004803,
-.012795,-.004803,
-.012667,-.006273,
-.012285,-.007698,
-.011661,-.009035,
-.010815,-.010244,
-.009772,-.011287,
-.008563,-.012134,
-.007226,-.012757,
-.005801,-.013139,
-.004331,-.013268,
0.0,-.013268,
0.0*
%
%ADD22MACRO22*%
%AMMACRO97*
4,1,41,0.0,-.016732,
.003937,-.016732,
.004621,-.016672,
.005284,-.016495,
.005906,-.016205,
.006468,-.015811,
.006953,-.015326,
.007347,-.014764,
.007637,-.014142,
.007814,-.013479,
.007874,-.012795,
.007874,.012795,
.007814,.013479,
.007637,.014142,
.007347,.014764,
.006953,.015326,
.006468,.015811,
.005906,.016205,
.005284,.016495,
.004621,.016672,
.003937,.016732,
-.003937,.016732,
-.004621,.016672,
-.005284,.016495,
-.005906,.016205,
-.006468,.015811,
-.006953,.015326,
-.007347,.014764,
-.007637,.014142,
-.007814,.013479,
-.007874,.012795,
-.007874,-.012795,
-.007814,-.013479,
-.007637,-.014142,
-.007347,-.014764,
-.006953,-.015326,
-.006468,-.015811,
-.005906,-.016205,
-.005284,-.016495,
-.004621,-.016672,
-.003937,-.016732,
0.0,-.016732,
0.0*
%
%ADD97MACRO97*%
%AMMACRO42*
4,1,41,.017717,0.0,
.017717,.009606,
.01759,.011017,
.017221,.012384,
.01662,.013667,
.015806,.014826,
.014802,.015825,
.01364,.016636,
.012356,.017232,
.010987,.017596,
.009606,.017717,
-.009606,.017717,
-.011017,.01759,
-.012384,.017221,
-.013667,.01662,
-.014826,.015806,
-.015825,.014802,
-.016636,.01364,
-.017232,.012356,
-.017596,.010987,
-.017717,.009606,
-.017717,-.009606,
-.01759,-.011017,
-.017221,-.012384,
-.01662,-.013667,
-.015806,-.014826,
-.014802,-.015825,
-.01364,-.016636,
-.012356,-.017232,
-.010987,-.017596,
-.009606,-.017717,
.009606,-.017717,
.011017,-.01759,
.012384,-.017221,
.013667,-.01662,
.014826,-.015806,
.015825,-.014802,
.016636,-.01364,
.017232,-.012356,
.017596,-.010987,
.017717,-.009606,
.017717,0.0,
0.0*
%
%ADD42MACRO42*%
%ADD66O,.035433X.03937*%
%ADD80O,.027598X.086614*%
%ADD16C,.043307*%
%ADD32C,.047244*%
%ADD24O,.065X.011811*%
%AMMACRO89*
4,1,44,-.007362,.016732,
.007362,.016732,
.008644,.016624,
.009888,.016294,
.011056,.015753,
.012112,.015018,
.013024,.01411,
.013765,.013058,
.014312,.011894,
.014648,.010652,
.014764,.00937,
.014764,.00937,
.014764,-.00937,
.014648,-.010652,
.014312,-.011894,
.013765,-.013058,
.013024,-.01411,
.012112,-.015018,
.011056,-.015753,
.009888,-.016294,
.008644,-.016624,
.007362,-.016732,
.007362,-.016732,
-.007362,-.016732,
-.008644,-.016624,
-.009888,-.016294,
-.011056,-.015753,
-.012112,-.015018,
-.013024,-.01411,
-.013765,-.013058,
-.014312,-.011894,
-.014648,-.010652,
-.014764,-.00937,
-.014764,-.00937,
-.014764,.00937,
-.014648,.010652,
-.014312,.011894,
-.013765,.013058,
-.013024,.01411,
-.012112,.015018,
-.011056,.015753,
-.009888,.016294,
-.008644,.016624,
-.007362,.016732,
-.007362,.016732,
0.0*
%
%ADD89MACRO89*%
%ADD25O,.011811X.065*%
%ADD10C,.055906*%
%ADD86O,.066929X.029528*%
%ADD41C,.133898*%
%ADD12C,.070866*%
%ADD26O,.041299X.021693*%
%ADD102R,.072835X.017717*%
%ADD31R,.133858X.133858*%
%ADD101C,.076772*%
%ADD47R,.212598X.212598*%
%ADD11C,.155512*%
%AMMACRO60*
4,1,41,.019685,0.0,
.019685,.002953,
.01964,.003465,
.019507,.003963,
.019289,.004429,
.018994,.004851,
.01863,.005215,
.018209,.00551,
.017742,.005727,
.017245,.005861,
.016732,.005906,
-.016732,.005906,
-.017245,.005861,
-.017742,.005727,
-.018209,.00551,
-.01863,.005215,
-.018994,.004851,
-.019289,.004429,
-.019507,.003963,
-.01964,.003465,
-.019685,.002953,
-.019685,-.002953,
-.01964,-.003465,
-.019507,-.003963,
-.019289,-.004429,
-.018994,-.004851,
-.01863,-.005215,
-.018209,-.00551,
-.017742,-.005727,
-.017245,-.005861,
-.016732,-.005906,
.016732,-.005906,
.017245,-.005861,
.017742,-.005727,
.018209,-.00551,
.01863,-.005215,
.018994,-.004851,
.019289,-.004429,
.019507,-.003963,
.01964,-.003465,
.019685,-.002953,
.019685,0.0,
0.0*
%
%ADD60MACRO60*%
%AMMACRO82*
4,1,22,.017717,-.007874,
.017717,.007874,
-.01378,.007874,
-.014463,.007814,
-.015126,.007637,
-.015748,.007347,
-.01631,.006953,
-.016795,.006468,
-.017189,.005906,
-.017479,.005284,
-.017657,.004621,
-.017717,.003937,
-.017717,-.003937,
-.017657,-.004621,
-.017479,-.005284,
-.017189,-.005906,
-.016795,-.006468,
-.01631,-.006953,
-.015748,-.007347,
-.015126,-.007637,
-.014463,-.007814,
-.01378,-.007874,
.017717,-.007874,
0.0*
%
%ADD82MACRO82*%
%AMMACRO69*
4,1,44,-.022638,0.0,
-.022638,-.00937,
-.022447,-.011506,
-.021889,-.013577,
-.02098,-.015519,
-.019747,-.017274,
-.018228,-.018788,
-.016469,-.020015,
-.014524,-.020918,
-.012452,-.02147,
-.010315,-.021654,
-.010315,-.021654,
.010315,-.021654,
.012452,-.02147,
.014524,-.020918,
.016469,-.020015,
.018228,-.018788,
.019747,-.017274,
.02098,-.015519,
.021889,-.013577,
.022447,-.011506,
.022638,-.00937,
.022638,.00937,
.022447,.011506,
.021889,.013577,
.02098,.015519,
.019747,.017274,
.018228,.018788,
.016469,.020015,
.014524,.020918,
.012452,.02147,
.010315,.021654,
.010315,.021654,
-.010315,.021654,
-.012452,.02147,
-.014524,.020918,
-.016469,.020015,
-.018228,.018788,
-.019747,.017274,
-.02098,.015519,
-.021889,.013577,
-.022447,.011506,
-.022638,.00937,
-.022638,.00937,
-.022638,0.0,
0.0*
%
%ADD69MACRO69*%
%AMMACRO53*
4,1,41,0.0,.022638,
-.00937,.022638,
-.011506,.022447,
-.013577,.021889,
-.015519,.02098,
-.017274,.019747,
-.018788,.018228,
-.020015,.016469,
-.020918,.014524,
-.02147,.012452,
-.021654,.010315,
-.021654,-.010315,
-.02147,-.012452,
-.020918,-.014524,
-.020015,-.016469,
-.018788,-.018228,
-.017274,-.019747,
-.015519,-.02098,
-.013577,-.021889,
-.011506,-.022447,
-.00937,-.022638,
.00937,-.022638,
.011506,-.022447,
.013577,-.021889,
.015519,-.02098,
.017274,-.019747,
.018788,-.018228,
.020015,-.016469,
.020918,-.014524,
.02147,-.012452,
.021654,-.010315,
.021654,.010315,
.02147,.012452,
.020918,.014524,
.020015,.016469,
.018788,.018228,
.017274,.019747,
.015519,.02098,
.013577,.021889,
.011506,.022447,
.00937,.022638,
0.0,.022638,
0.0*
%
%ADD53MACRO53*%
%AMMACRO45*
4,1,41,.019685,0.0,
.019685,.002953,
.01961,.003807,
.019388,.004636,
.019026,.005413,
.018534,.006116,
.017927,.006723,
.017224,.007215,
.016447,.007577,
.015618,.007799,
.014764,.007874,
-.014764,.007874,
-.015618,.007799,
-.016447,.007577,
-.017224,.007215,
-.017927,.006723,
-.018534,.006116,
-.019026,.005413,
-.019388,.004636,
-.01961,.003807,
-.019685,.002953,
-.019685,-.002953,
-.01961,-.003807,
-.019388,-.004636,
-.019026,-.005413,
-.018534,-.006116,
-.017927,-.006723,
-.017224,-.007215,
-.016447,-.007577,
-.015618,-.007799,
-.014764,-.007874,
.014764,-.007874,
.015618,-.007799,
.016447,-.007577,
.017224,-.007215,
.017927,-.006723,
.018534,-.006116,
.019026,-.005413,
.019388,-.004636,
.01961,-.003807,
.019685,-.002953,
.019685,0.0,
0.0*
%
%ADD45MACRO45*%
%AMMACRO96*
4,1,41,-.031496,0.0,
-.031496,-.011339,
-.031276,-.013817,
-.030629,-.016219,
-.029574,-.018472,
-.028144,-.020508,
-.026383,-.022264,
-.024343,-.023688,
-.022087,-.024737,
-.019683,-.025377,
-.017244,-.025591,
.017244,-.025591,
.019722,-.02537,
.022124,-.024723,
.024377,-.023669,
.026413,-.022239,
.02817,-.020477,
.029594,-.018438,
.030642,-.016182,
.031283,-.013778,
.031496,-.011339,
.031496,.011339,
.031276,.013817,
.030629,.016219,
.029574,.018472,
.028144,.020508,
.026383,.022264,
.024343,.023688,
.022087,.024737,
.019683,.025377,
.017244,.025591,
-.017244,.025591,
-.019722,.02537,
-.022124,.024723,
-.024377,.023669,
-.026413,.022239,
-.02817,.020477,
-.029594,.018438,
-.030642,.016182,
-.031283,.013778,
-.031496,.011339,
-.031496,0.0,
0.0*
%
%ADD96MACRO96*%
%AMMACRO95*
4,1,41,0.0,.031496,
-.011339,.031496,
-.013817,.031276,
-.016219,.030629,
-.018472,.029574,
-.020508,.028144,
-.022264,.026383,
-.023688,.024343,
-.024737,.022087,
-.025377,.019683,
-.025591,.017244,
-.025591,-.017244,
-.02537,-.019722,
-.024723,-.022124,
-.023669,-.024377,
-.022239,-.026413,
-.020477,-.02817,
-.018438,-.029594,
-.016182,-.030642,
-.013778,-.031283,
-.011339,-.031496,
.011339,-.031496,
.013817,-.031276,
.016219,-.030629,
.018472,-.029574,
.020508,-.028144,
.022264,-.026383,
.023688,-.024343,
.024737,-.022087,
.025377,-.019683,
.025591,-.017244,
.025591,.017244,
.02537,.019722,
.024723,.022124,
.023669,.024377,
.022239,.026413,
.020477,.02817,
.018438,.029594,
.016182,.030642,
.013778,.031283,
.011339,.031496,
0.0,.031496,
0.0*
%
%ADD95MACRO95*%
%AMMACRO83*
4,1,22,-.007874,-.017717,
.007874,-.017717,
.007874,.01378,
.007814,.014463,
.007637,.015126,
.007347,.015748,
.006953,.01631,
.006468,.016795,
.005906,.017189,
.005284,.017479,
.004621,.017657,
.003937,.017717,
-.003937,.017717,
-.004621,.017657,
-.005284,.017479,
-.005906,.017189,
-.006468,.016795,
-.006953,.01631,
-.007347,.015748,
-.007637,.015126,
-.007814,.014463,
-.007874,.01378,
-.007874,-.017717,
0.0*
%
%ADD83MACRO83*%
%AMMACRO46*
4,1,41,0.0,-.019685,
.002953,-.019685,
.003807,-.01961,
.004636,-.019388,
.005413,-.019026,
.006116,-.018534,
.006723,-.017927,
.007215,-.017224,
.007577,-.016447,
.007799,-.015618,
.007874,-.014764,
.007874,.014764,
.007799,.015618,
.007577,.016447,
.007215,.017224,
.006723,.017927,
.006116,.018534,
.005413,.019026,
.004636,.019388,
.003807,.01961,
.002953,.019685,
-.002953,.019685,
-.003807,.01961,
-.004636,.019388,
-.005413,.019026,
-.006116,.018534,
-.006723,.017927,
-.007215,.017224,
-.007577,.016447,
-.007799,.015618,
-.007874,.014764,
-.007874,-.014764,
-.007799,-.015618,
-.007577,-.016447,
-.007215,-.017224,
-.006723,-.017927,
-.006116,-.018534,
-.005413,-.019026,
-.004636,-.019388,
-.003807,-.01961,
-.002953,-.019685,
0.0,-.019685,
0.0*
%
%ADD46MACRO46*%
%AMMACRO116*
4,1,41,0.0,-.021654,
.002953,-.021654,
.003807,-.021579,
.004636,-.021357,
.005413,-.020994,
.006116,-.020502,
.006723,-.019896,
.007215,-.019193,
.007577,-.018415,
.007799,-.017587,
.007874,-.016732,
.007874,.016732,
.007799,.017587,
.007577,.018415,
.007215,.019193,
.006723,.019896,
.006116,.020502,
.005413,.020994,
.004636,.021357,
.003807,.021579,
.002953,.021654,
-.002953,.021654,
-.003807,.021579,
-.004636,.021357,
-.005413,.020994,
-.006116,.020502,
-.006723,.019896,
-.007215,.019193,
-.007577,.018415,
-.007799,.017587,
-.007874,.016732,
-.007874,-.016732,
-.007799,-.017587,
-.007577,-.018415,
-.007215,-.019193,
-.006723,-.019896,
-.006116,-.020502,
-.005413,-.020994,
-.004636,-.021357,
-.003807,-.021579,
-.002953,-.021654,
0.0,-.021654,
0.0*
%
%ADD116MACRO116*%
%AMMACRO71*
4,1,41,-.015748,0.0,
-.015748,-.002953,
-.015673,-.003807,
-.015451,-.004636,
-.015089,-.005413,
-.014597,-.006116,
-.01399,-.006723,
-.013287,-.007215,
-.01251,-.007577,
-.011681,-.007799,
-.010827,-.007874,
.010827,-.007874,
.011681,-.007799,
.01251,-.007577,
.013287,-.007215,
.01399,-.006723,
.014597,-.006116,
.015089,-.005413,
.015451,-.004636,
.015673,-.003807,
.015748,-.002953,
.015748,.002953,
.015673,.003807,
.015451,.004636,
.015089,.005413,
.014597,.006116,
.01399,.006723,
.013287,.007215,
.01251,.007577,
.011681,.007799,
.010827,.007874,
-.010827,.007874,
-.011681,.007799,
-.01251,.007577,
-.013287,.007215,
-.01399,.006723,
-.014597,.006116,
-.015089,.005413,
-.015451,.004636,
-.015673,.003807,
-.015748,.002953,
-.015748,0.0,
0.0*
%
%ADD71MACRO71*%
%ADD15C,.072795*%
%AMMACRO35*
4,1,42,-.009843,0.0,
-.009843,-.003465,
-.009757,-.004404,
-.009509,-.005315,
-.009107,-.006169,
-.008563,-.00694,
-.007894,-.007604,
-.007119,-.008143,
-.006262,-.008539,
-.00535,-.008779,
-.004409,-.008858,
.004409,-.008858,
.00535,-.008779,
.006262,-.008539,
.007119,-.008143,
.007894,-.007604,
.008563,-.00694,
.009107,-.006169,
.009509,-.005315,
.009757,-.004404,
.009843,-.003465,
.009843,.003465,
.009757,.004404,
.009509,.005315,
.009107,.006169,
.008563,.00694,
.007894,.007604,
.007119,.008143,
.006262,.008539,
.00535,.008779,
.004409,.008858,
.004409,.008858,
-.004409,.008858,
-.00535,.008779,
-.006262,.008539,
-.007119,.008143,
-.007894,.007604,
-.008563,.00694,
-.009107,.006169,
-.009509,.005315,
-.009757,.004404,
-.009843,.003465,
-.009843,0.0,
0.0*
%
%ADD35MACRO35*%
%AMMACRO34*
4,1,41,0.0,.009843,
-.003465,.009843,
-.004404,.009757,
-.005315,.009509,
-.006169,.009107,
-.00694,.008563,
-.007604,.007894,
-.008143,.007119,
-.008539,.006262,
-.008779,.00535,
-.008858,.004409,
-.008858,-.004409,
-.008779,-.00535,
-.008539,-.006262,
-.008143,-.007119,
-.007604,-.007894,
-.00694,-.008563,
-.006169,-.009107,
-.005315,-.009509,
-.004404,-.009757,
-.003465,-.009843,
.003465,-.009843,
.004404,-.009757,
.005315,-.009509,
.006169,-.009107,
.00694,-.008563,
.007604,-.007894,
.008143,-.007119,
.008539,-.006262,
.008779,-.00535,
.008858,-.004409,
.008858,.004409,
.008779,.00535,
.008539,.006262,
.008143,.007119,
.007604,.007894,
.00694,.008563,
.006169,.009107,
.005315,.009509,
.004404,.009757,
.003465,.009843,
0.0,.009843,
0.0*
%
%ADD34MACRO34*%
%AMMACRO67*
4,1,41,0.0,.028543,
-.008858,.028543,
-.010909,.028364,
-.012898,.027831,
-.014764,.026961,
-.01645,.02578,
-.017906,.024324,
-.019087,.022638,
-.019957,.020772,
-.02049,.018783,
-.020669,.016732,
-.020669,-.016732,
-.02049,-.018783,
-.019957,-.020772,
-.019087,-.022638,
-.017906,-.024324,
-.01645,-.02578,
-.014764,-.026961,
-.012898,-.027831,
-.010909,-.028364,
-.008858,-.028543,
.008858,-.028543,
.010909,-.028364,
.012898,-.027831,
.014764,-.026961,
.01645,-.02578,
.017906,-.024324,
.019087,-.022638,
.019957,-.020772,
.02049,-.018783,
.020669,-.016732,
.020669,.016732,
.02049,.018783,
.019957,.020772,
.019087,.022638,
.017906,.024324,
.01645,.02578,
.014764,.026961,
.012898,.027831,
.010909,.028364,
.008858,.028543,
0.0,.028543,
0.0*
%
%ADD67MACRO67*%
%AMMACRO17*
4,1,41,-.028543,0.0,
-.028543,-.008858,
-.028364,-.010909,
-.027831,-.012898,
-.026961,-.014764,
-.02578,-.01645,
-.024324,-.017906,
-.022638,-.019087,
-.020772,-.019957,
-.018783,-.02049,
-.016732,-.020669,
.016732,-.020669,
.018783,-.02049,
.020772,-.019957,
.022638,-.019087,
.024324,-.017906,
.02578,-.01645,
.026961,-.014764,
.027831,-.012898,
.028364,-.010909,
.028543,-.008858,
.028543,.008858,
.028364,.010909,
.027831,.012898,
.026961,.014764,
.02578,.01645,
.024324,.017906,
.022638,.019087,
.020772,.019957,
.018783,.02049,
.016732,.020669,
-.016732,.020669,
-.018783,.02049,
-.020772,.019957,
-.022638,.019087,
-.024324,.017906,
-.02578,.01645,
-.026961,.014764,
-.027831,.012898,
-.028364,.010909,
-.028543,.008858,
-.028543,0.0,
0.0*
%
%ADD17MACRO17*%
%AMMACRO115*
4,1,41,0.0,.017717,
-.002953,.017717,
-.003465,.017672,
-.003963,.017538,
-.004429,.017321,
-.004851,.017026,
-.005215,.016662,
-.00551,.01624,
-.005727,.015774,
-.005861,.015277,
-.005906,.014764,
-.005906,-.014764,
-.005861,-.015277,
-.005727,-.015774,
-.00551,-.01624,
-.005215,-.016662,
-.004851,-.017026,
-.004429,-.017321,
-.003963,-.017538,
-.003465,-.017672,
-.002953,-.017717,
.002953,-.017717,
.003465,-.017672,
.003963,-.017538,
.004429,-.017321,
.004851,-.017026,
.005215,-.016662,
.00551,-.01624,
.005727,-.015774,
.005861,-.015277,
.005906,-.014764,
.005906,.014764,
.005861,.015277,
.005727,.015774,
.00551,.01624,
.005215,.016662,
.004851,.017026,
.004429,.017321,
.003963,.017538,
.003465,.017672,
.002953,.017717,
0.0,.017717,
0.0*
%
%ADD115MACRO115*%
%AMMACRO114*
4,1,41,-.017717,0.0,
-.017717,-.002953,
-.017672,-.003465,
-.017538,-.003963,
-.017321,-.004429,
-.017026,-.004851,
-.016662,-.005215,
-.01624,-.00551,
-.015774,-.005727,
-.015277,-.005861,
-.014764,-.005906,
.014764,-.005906,
.015277,-.005861,
.015774,-.005727,
.01624,-.00551,
.016662,-.005215,
.017026,-.004851,
.017321,-.004429,
.017538,-.003963,
.017672,-.003465,
.017717,-.002953,
.017717,.002953,
.017672,.003465,
.017538,.003963,
.017321,.004429,
.017026,.004851,
.016662,.005215,
.01624,.00551,
.015774,.005727,
.015277,.005861,
.014764,.005906,
-.014764,.005906,
-.015277,.005861,
-.015774,.005727,
-.01624,.00551,
-.016662,.005215,
-.017026,.004851,
-.017321,.004429,
-.017538,.003963,
-.017672,.003465,
-.017717,.002953,
-.017717,0.0,
0.0*
%
%ADD114MACRO114*%
%AMMACRO106*
4,1,41,0.0,.030512,
-.011339,.030512,
-.013304,.030336,
-.015209,.029822,
-.016995,.028986,
-.01861,.027851,
-.020002,.026453,
-.021131,.024835,
-.021962,.023046,
-.022469,.021139,
-.022638,.019213,
-.022638,-.019213,
-.022462,-.021178,
-.021948,-.023083,
-.021112,-.024869,
-.019977,-.026484,
-.018579,-.027876,
-.016961,-.029005,
-.015172,-.029836,
-.013265,-.030343,
-.011339,-.030512,
.011339,-.030512,
.013304,-.030336,
.015209,-.029822,
.016995,-.028986,
.01861,-.027851,
.020002,-.026453,
.021131,-.024835,
.021962,-.023046,
.022469,-.021139,
.022638,-.019213,
.022638,.019213,
.022462,.021178,
.021948,.023083,
.021112,.024869,
.019977,.026484,
.018579,.027876,
.016961,.029005,
.015172,.029836,
.013265,.030343,
.011339,.030512,
0.0,.030512,
0.0*
%
%ADD106MACRO106*%
%AMMACRO68*
4,1,41,-.030512,0.0,
-.030512,-.011339,
-.030336,-.013304,
-.029822,-.015209,
-.028986,-.016995,
-.027851,-.01861,
-.026453,-.020002,
-.024835,-.021131,
-.023046,-.021962,
-.021139,-.022469,
-.019213,-.022638,
.019213,-.022638,
.021178,-.022462,
.023083,-.021948,
.024869,-.021112,
.026484,-.019977,
.027876,-.018579,
.029005,-.016961,
.029836,-.015172,
.030343,-.013265,
.030512,-.011339,
.030512,.011339,
.030336,.013304,
.029822,.015209,
.028986,.016995,
.027851,.01861,
.026453,.020002,
.024835,.021131,
.023046,.021962,
.021139,.022469,
.019213,.022638,
-.019213,.022638,
-.021178,.022462,
-.023083,.021948,
-.024869,.021112,
-.026484,.019977,
-.027876,.018579,
-.029005,.016961,
-.029836,.015172,
-.030343,.013265,
-.030512,.011339,
-.030512,0.0,
0.0*
%
%ADD68MACRO68*%
%AMMACRO109*
4,1,20,-.050197,.035433,
.050197,.035433,
.050197,.016732,
.077756,.016732,
.077756,.002953,
.050197,.002953,
.050197,-.002953,
.077756,-.002953,
.077756,-.016732,
.050197,-.016732,
.050197,-.035433,
-.050197,-.035433,
-.050197,-.016732,
-.077756,-.016732,
-.077756,-.002953,
-.050197,-.002953,
-.050197,.002953,
-.077756,.002953,
-.077756,.016732,
-.050197,.016732,
-.050197,.035433,
0.0*
%
%ADD109MACRO109*%
%AMMACRO92*
4,1,41,.030512,0.0,
.030512,.002953,
.030437,.003807,
.030215,.004636,
.029852,.005413,
.02936,.006116,
.028754,.006723,
.028051,.007215,
.027274,.007577,
.026445,.007799,
.025591,.007874,
-.025591,.007874,
-.026445,.007799,
-.027274,.007577,
-.028051,.007215,
-.028754,.006723,
-.02936,.006116,
-.029852,.005413,
-.030215,.004636,
-.030437,.003807,
-.030512,.002953,
-.030512,-.002953,
-.030437,-.003807,
-.030215,-.004636,
-.029852,-.005413,
-.02936,-.006116,
-.028754,-.006723,
-.028051,-.007215,
-.027274,-.007577,
-.026445,-.007799,
-.025591,-.007874,
.025591,-.007874,
.026445,-.007799,
.027274,-.007577,
.028051,-.007215,
.028754,-.006723,
.02936,-.006116,
.029852,-.005413,
.030215,-.004636,
.030437,-.003807,
.030512,-.002953,
.030512,0.0,
0.0*
%
%ADD92MACRO92*%
%AMMACRO90*
4,1,43,-.056102,0.0,
-.056102,-.011339,
-.055882,-.013817,
-.055235,-.016219,
-.05418,-.018472,
-.052751,-.020508,
-.050989,-.022264,
-.048949,-.023688,
-.046693,-.024737,
-.04429,-.025377,
-.041811,-.025591,
.041811,-.025591,
.04429,-.025377,
.046693,-.024737,
.048949,-.023688,
.050989,-.022264,
.052751,-.020508,
.05418,-.018472,
.055235,-.016219,
.055882,-.013817,
.056102,-.011339,
.056102,.011339,
.055882,.013817,
.055235,.016219,
.05418,.018472,
.052751,.020508,
.050989,.022264,
.048949,.023688,
.046693,.024737,
.04429,.025377,
.041811,.025591,
.041811,.025591,
-.041811,.025591,
-.04429,.025377,
-.046693,.024737,
-.048949,.023688,
-.050989,.022264,
-.052751,.020508,
-.05418,.018472,
-.055235,.016219,
-.055882,.013817,
-.056102,.011339,
-.056102,.011339,
-.056102,0.0,
0.0*
%
%ADD90MACRO90*%
%AMMACRO58*
4,1,41,0.0,.014764,
-.001969,.014764,
-.002652,.014704,
-.003315,.014526,
-.003937,.014236,
-.004499,.013843,
-.004984,.013357,
-.005378,.012795,
-.005668,.012173,
-.005846,.01151,
-.005906,.010827,
-.005906,-.010827,
-.005846,-.01151,
-.005668,-.012173,
-.005378,-.012795,
-.004984,-.013357,
-.004499,-.013843,
-.003937,-.014236,
-.003315,-.014526,
-.002652,-.014704,
-.001969,-.014764,
.001969,-.014764,
.002652,-.014704,
.003315,-.014526,
.003937,-.014236,
.004499,-.013843,
.004984,-.013357,
.005378,-.012795,
.005668,-.012173,
.005846,-.01151,
.005906,-.010827,
.005906,.010827,
.005846,.01151,
.005668,.012173,
.005378,.012795,
.004984,.013357,
.004499,.013843,
.003937,.014236,
.003315,.014526,
.002652,.014704,
.001969,.014764,
0.0,.014764,
0.0*
%
%ADD58MACRO58*%
%AMMACRO49*
4,1,15,-.036417,-.014764,
-.036417,.014764,
.036417,.014764,
.036417,-.014764,
.018031,-.014764,
.014852,-.011887,
.011221,-.009606,
.007249,-.00799,
.003057,-.007088,
-.001228,-.006928,
-.005476,-.007515,
-.009557,-.00883,
-.013348,-.010834,
-.016734,-.013466,
-.018031,-.014764,
-.036417,-.014764,
0.0*
%
%ADD49MACRO49*%
%AMMACRO113*
4,1,41,0.0,-.030512,
.002953,-.030512,
.003807,-.030437,
.004636,-.030215,
.005413,-.029852,
.006116,-.02936,
.006723,-.028754,
.007215,-.028051,
.007577,-.027274,
.007799,-.026445,
.007874,-.025591,
.007874,.025591,
.007799,.026445,
.007577,.027274,
.007215,.028051,
.006723,.028754,
.006116,.02936,
.005413,.029852,
.004636,.030215,
.003807,.030437,
.002953,.030512,
-.002953,.030512,
-.003807,.030437,
-.004636,.030215,
-.005413,.029852,
-.006116,.02936,
-.006723,.028754,
-.007215,.028051,
-.007577,.027274,
-.007799,.026445,
-.007874,.025591,
-.007874,-.025591,
-.007799,-.026445,
-.007577,-.027274,
-.007215,-.028051,
-.006723,-.028754,
-.006116,-.02936,
-.005413,-.029852,
-.004636,-.030215,
-.003807,-.030437,
-.002953,-.030512,
0.0,-.030512,
0.0*
%
%ADD113MACRO113*%
%AMMACRO110*
4,1,45,0.0,.017717,
-.003465,.017717,
-.004062,.017661,
-.004642,.017502,
-.005184,.017245,
-.005674,.016898,
-.006096,.016471,
-.006438,.015977,
-.006689,.015431,
-.006841,.01485,
-.00689,.014252,
-.00689,.014252,
-.00689,-.014252,
-.006841,-.01485,
-.006689,-.015431,
-.006438,-.015977,
-.006096,-.016471,
-.005674,-.016898,
-.005184,-.017245,
-.004642,-.017502,
-.004062,-.017661,
-.003465,-.017717,
-.003465,-.017717,
.003465,-.017717,
.004062,-.017661,
.004642,-.017502,
.005184,-.017245,
.005674,-.016898,
.006096,-.016471,
.006438,-.015977,
.006689,-.015431,
.006841,-.01485,
.00689,-.014252,
.00689,-.014252,
.00689,.014252,
.006841,.01485,
.006689,.015431,
.006438,.015977,
.006096,.016471,
.005674,.016898,
.005184,.017245,
.004642,.017502,
.004062,.017661,
.003465,.017717,
.003465,.017717,
0.0,.017717,
0.0*
%
%ADD110MACRO110*%
%AMMACRO75*
4,1,45,-.022598,0.0,
-.022598,-.010787,
-.022448,-.012669,
-.021972,-.014495,
-.021187,-.016211,
-.020116,-.017765,
-.018791,-.019109,
-.017253,-.020203,
-.015549,-.021013,
-.013729,-.021515,
-.011851,-.021693,
-.011811,-.021693,
.011811,-.021693,
.01369,-.021522,
.015512,-.021027,
.017219,-.020223,
.018761,-.019135,
.020091,-.017795,
.021168,-.016246,
.021959,-.014532,
.022441,-.012708,
.022599,-.010827,
.022598,-.010787,
.022598,.010787,
.022448,.012669,
.021972,.014495,
.021187,.016211,
.020116,.017765,
.018791,.019109,
.017253,.020203,
.015549,.021013,
.013729,.021515,
.011851,.021693,
.011811,.021693,
-.011811,.021693,
-.01369,.021522,
-.015512,.021027,
-.017219,.020223,
-.018761,.019135,
-.020091,.017795,
-.021168,.016246,
-.021959,.014532,
-.022441,.012708,
-.022599,.010827,
-.022598,.010787,
-.022598,0.0,
0.0*
%
%ADD75MACRO75*%
%AMMACRO62*
4,1,45,0.0,.022598,
-.010787,.022598,
-.012669,.022448,
-.014495,.021972,
-.016211,.021187,
-.017765,.020116,
-.019109,.018791,
-.020203,.017253,
-.021013,.015549,
-.021515,.013729,
-.021693,.011851,
-.021693,.011811,
-.021693,-.011811,
-.021522,-.01369,
-.021027,-.015512,
-.020223,-.017219,
-.019135,-.018761,
-.017795,-.020091,
-.016246,-.021168,
-.014532,-.021959,
-.012708,-.022441,
-.010827,-.022599,
-.010787,-.022598,
.010787,-.022598,
.012669,-.022448,
.014495,-.021972,
.016211,-.021187,
.017765,-.020116,
.019109,-.018791,
.020203,-.017253,
.021013,-.015549,
.021515,-.013729,
.021693,-.011851,
.021693,-.011811,
.021693,.011811,
.021522,.01369,
.021027,.015512,
.020223,.017219,
.019135,.018761,
.017795,.020091,
.016246,.021168,
.014532,.021959,
.012708,.022441,
.010827,.022599,
.010787,.022598,
0.0,.022598,
0.0*
%
%ADD62MACRO62*%
%AMMACRO39*
4,1,42,0.0,-.029528,
.004409,-.029528,
.005521,-.029434,
.006599,-.029148,
.007611,-.02868,
.008526,-.028043,
.009317,-.027257,
.00996,-.026346,
.010434,-.025337,
.010726,-.02426,
.010827,-.02315,
.010827,.02315,
.010726,.02426,
.010434,.025337,
.00996,.026346,
.009317,.027257,
.008526,.028043,
.007611,.02868,
.006599,.029148,
.005521,.029434,
.004409,.029528,
-.004409,.029528,
-.005521,.029434,
-.006599,.029148,
-.007611,.02868,
-.008526,.028043,
-.009317,.027257,
-.00996,.026346,
-.010434,.025337,
-.010726,.02426,
-.010827,.02315,
-.010827,.02315,
-.010827,-.02315,
-.010726,-.02426,
-.010434,-.025337,
-.00996,-.026346,
-.009317,-.027257,
-.008526,-.028043,
-.007611,-.02868,
-.006599,-.029148,
-.005521,-.029434,
-.004409,-.029528,
0.0,-.029528,
0.0*
%
%ADD39MACRO39*%
%AMMACRO87*
4,1,45,.029528,0.0,
.029528,.007362,
.029419,.008644,
.029089,.009888,
.028548,.011056,
.027813,.012112,
.026906,.013024,
.025854,.013765,
.024689,.014312,
.023447,.014648,
.022165,.014764,
.022126,.014764,
-.022126,.014764,
-.023408,.014655,
-.024652,.014325,
-.02582,.013785,
-.026876,.013049,
-.027788,.012142,
-.028529,.01109,
-.029076,.009925,
-.029412,.008683,
-.029528,.007402,
-.029528,.007362,
-.029528,-.007362,
-.029419,-.008644,
-.029089,-.009888,
-.028548,-.011056,
-.027813,-.012112,
-.026906,-.013024,
-.025854,-.013765,
-.024689,-.014312,
-.023447,-.014648,
-.022165,-.014764,
-.022126,-.014764,
.022126,-.014764,
.023408,-.014655,
.024652,-.014325,
.02582,-.013785,
.026876,-.013049,
.027788,-.012142,
.028529,-.01109,
.029076,-.009925,
.029412,-.008683,
.029528,-.007402,
.029528,-.007362,
.029528,0.0,
0.0*
%
%ADD87MACRO87*%
%AMMACRO50*
4,1,41,-.012795,0.0,
-.012795,-.003937,
-.012691,-.005133,
-.01238,-.006293,
-.011872,-.007382,
-.011183,-.008366,
-.010334,-.009215,
-.00935,-.009904,
-.008262,-.010411,
-.007102,-.010722,
-.005906,-.010827,
.005906,-.010827,
.007102,-.010722,
.008262,-.010411,
.00935,-.009904,
.010334,-.009215,
.011183,-.008366,
.011872,-.007382,
.01238,-.006293,
.012691,-.005133,
.012795,-.003937,
.012795,.003937,
.012691,.005133,
.01238,.006293,
.011872,.007382,
.011183,.008366,
.010334,.009215,
.00935,.009904,
.008262,.010411,
.007102,.010722,
.005906,.010827,
-.005906,.010827,
-.007102,.010722,
-.008262,.010411,
-.00935,.009904,
-.010334,.009215,
-.011183,.008366,
-.011872,.007382,
-.01238,.006293,
-.012691,.005133,
-.012795,.003937,
-.012795,0.0,
0.0*
%
%ADD50MACRO50*%
%AMMACRO88*
4,1,41,0.0,.014764,
-.007283,.014764,
-.008548,.014653,
-.009775,.014325,
-.010925,.013788,
-.011965,.01306,
-.012863,.012162,
-.013591,.011122,
-.014128,.009971,
-.014456,.008745,
-.014567,.00748,
-.014567,-.00748,
-.014456,-.008745,
-.014128,-.009971,
-.013591,-.011122,
-.012863,-.012162,
-.011965,-.01306,
-.010925,-.013788,
-.009775,-.014325,
-.008548,-.014653,
-.007283,-.014764,
.007283,-.014764,
.008548,-.014653,
.009775,-.014325,
.010925,-.013788,
.011965,-.01306,
.012863,-.012162,
.013591,-.011122,
.014128,-.009971,
.014456,-.008745,
.014567,-.00748,
.014567,.00748,
.014456,.008745,
.014128,.009971,
.013591,.011122,
.012863,.012162,
.011965,.01306,
.010925,.013788,
.009775,.014325,
.008548,.014653,
.007283,.014764,
0.0,.014764,
0.0*
%
%ADD88MACRO88*%
%AMMACRO78*
4,1,41,.010433,.010433,
.005276,.015591,
.004308,.016412,
.003208,.017045,
.002014,.017478,
.000764,.017696,
-.000506,.017694,
-.001756,.017472,
-.002948,.017036,
-.004047,.0164,
-.005,.015591,
-.015591,.005,
-.016411,.004032,
-.017044,.002931,
-.017477,.001738,
-.017696,.000487,
-.017695,-.000782,
-.017473,-.002032,
-.017037,-.003225,
-.016401,-.004324,
-.015591,-.005276,
-.005276,-.015591,
-.004308,-.016412,
-.003208,-.017045,
-.002014,-.017478,
-.000764,-.017696,
.000506,-.017694,
.001756,-.017472,
.002948,-.017036,
.004047,-.0164,
.005,-.015591,
.015591,-.005,
.016411,-.004032,
.017044,-.002931,
.017477,-.001738,
.017696,-.000487,
.017695,.000782,
.017473,.002032,
.017037,.003225,
.016401,.004324,
.015591,.005276,
.010433,.010433,
0.0*
%
%ADD78MACRO78*%
%AMMACRO27*
4,1,41,-.014764,0.0,
-.014764,-.007283,
-.014653,-.008548,
-.014325,-.009775,
-.013788,-.010925,
-.01306,-.011965,
-.012162,-.012863,
-.011122,-.013591,
-.009971,-.014128,
-.008745,-.014456,
-.00748,-.014567,
.00748,-.014567,
.008745,-.014456,
.009971,-.014128,
.011122,-.013591,
.012162,-.012863,
.01306,-.011965,
.013788,-.010925,
.014325,-.009775,
.014653,-.008548,
.014764,-.007283,
.014764,.007283,
.014653,.008548,
.014325,.009775,
.013788,.010925,
.01306,.011965,
.012162,.012863,
.011122,.013591,
.009971,.014128,
.008745,.014456,
.00748,.014567,
-.00748,.014567,
-.008745,.014456,
-.009971,.014128,
-.011122,.013591,
-.012162,.012863,
-.01306,.011965,
-.013788,.010925,
-.014325,.009775,
-.014653,.008548,
-.014764,.007283,
-.014764,0.0,
0.0*
%
%ADD27MACRO27*%
%AMMACRO52*
4,1,41,.020709,0.0,
.020709,.008898,
.020565,.010437,
.020156,.011929,
.019494,.013326,
.018599,.014588,
.0175,.015675,
.016228,.016554,
.014822,.017199,
.013326,.017591,
.011811,.017717,
-.011811,.017717,
-.013352,.017586,
-.014847,.017191,
-.01625,.016541,
-.01752,.015658,
-.018616,.014568,
-.019507,.013304,
-.020165,.011904,
-.020569,.010412,
-.020709,.008898,
-.020709,-.008898,
-.020565,-.010437,
-.020156,-.011929,
-.019494,-.013326,
-.018599,-.014588,
-.0175,-.015675,
-.016228,-.016554,
-.014822,-.017199,
-.013326,-.017591,
-.011811,-.017717,
.011811,-.017717,
.013352,-.017586,
.014847,-.017191,
.01625,-.016541,
.01752,-.015658,
.018616,-.014568,
.019507,-.013304,
.020165,-.011904,
.020569,-.010412,
.020709,-.008898,
.020709,0.0,
0.0*
%
%ADD52MACRO52*%
%AMMACRO33*
4,1,41,-.030512,0.0,
-.030512,-.014016,
-.030327,-.016198,
-.029767,-.018314,
-.028847,-.020302,
-.027596,-.022099,
-.026052,-.023652,
-.024262,-.024913,
-.02228,-.025844,
-.020167,-.026417,
-.017992,-.026614,
.017992,-.026614,
.020173,-.026416,
.022286,-.025842,
.024268,-.02491,
.026057,-.023648,
.0276,-.022094,
.02885,-.020296,
.029769,-.018308,
.030328,-.016191,
.030512,-.014016,
.030512,.014016,
.030327,.016198,
.029767,.018314,
.028847,.020302,
.027596,.022099,
.026052,.023652,
.024262,.024913,
.02228,.025844,
.020167,.026417,
.017992,.026614,
-.017992,.026614,
-.020173,.026416,
-.022286,.025842,
-.024268,.02491,
-.026057,.023648,
-.0276,.022094,
-.02885,.020296,
-.029769,.018308,
-.030328,.016191,
-.030512,.014016,
-.030512,0.0,
0.0*
%
%ADD33MACRO33*%
%AMMACRO44*
4,1,45,-.00937,.00937,
-.012441,.006339,
-.013383,.005202,
-.014123,.003926,
-.014631,.00254,
-.01489,.001087,
-.014892,-.000388,
-.014639,-.001842,
-.014137,-.003229,
-.013401,-.004508,
-.012455,-.00564,
-.012441,-.005669,
-.005669,-.012441,
-.004533,-.013384,
-.003257,-.014124,
-.001871,-.014631,
-.000418,-.01489,
.001057,-.014892,
.002511,-.014639,
.003898,-.014136,
.005177,-.013401,
.006309,-.012454,
.006339,-.012441,
.012441,-.006339,
.013383,-.005202,
.014123,-.003926,
.014631,-.00254,
.01489,-.001087,
.014892,.000388,
.014639,.001842,
.014137,.003229,
.013401,.004508,
.012455,.00564,
.012441,.005669,
.005669,.012441,
.004533,.013384,
.003257,.014124,
.001871,.014631,
.000418,.01489,
-.001057,.014892,
-.002511,.014639,
-.003898,.014136,
-.005177,.013401,
-.006309,.012454,
-.006339,.012441,
-.00937,.00937,
0.0*
%
%ADD44MACRO44*%
%AMMACRO23*
4,1,41,0.0,.013268,
-.004331,.013268,
-.005801,.013139,
-.007226,.012757,
-.008563,.012134,
-.009772,.011287,
-.010815,.010244,
-.011661,.009035,
-.012285,.007698,
-.012667,.006273,
-.012795,.004803,
-.012795,-.004803,
-.012667,-.006273,
-.012285,-.007698,
-.011661,-.009035,
-.010815,-.010244,
-.009772,-.011287,
-.008563,-.012134,
-.007226,-.012757,
-.005801,-.013139,
-.004331,-.013268,
.004331,-.013268,
.005801,-.013139,
.007226,-.012757,
.008563,-.012134,
.009772,-.011287,
.010815,-.010244,
.011661,-.009035,
.012285,-.007698,
.012667,-.006273,
.012795,-.004803,
.012795,.004803,
.012667,.006273,
.012285,.007698,
.011661,.009035,
.010815,.010244,
.009772,.011287,
.008563,.012134,
.007226,.012757,
.005801,.013139,
.004331,.013268,
0.0,.013268,
0.0*
%
%ADD23MACRO23*%
%AMMACRO20*
4,1,41,-.013268,0.0,
-.013268,-.004331,
-.013139,-.005801,
-.012757,-.007226,
-.012134,-.008563,
-.011287,-.009772,
-.010244,-.010815,
-.009035,-.011661,
-.007698,-.012285,
-.006273,-.012667,
-.004803,-.012795,
.004803,-.012795,
.006273,-.012667,
.007698,-.012285,
.009035,-.011661,
.010244,-.010815,
.011287,-.009772,
.012134,-.008563,
.012757,-.007226,
.013139,-.005801,
.013268,-.004331,
.013268,.004331,
.013139,.005801,
.012757,.007226,
.012134,.008563,
.011287,.009772,
.010244,.010815,
.009035,.011661,
.007698,.012285,
.006273,.012667,
.004803,.012795,
-.004803,.012795,
-.006273,.012667,
-.007698,.012285,
-.009035,.011661,
-.010244,.010815,
-.011287,.009772,
-.012134,.008563,
-.012757,.007226,
-.013139,.005801,
-.013268,.004331,
-.013268,0.0,
0.0*
%
%ADD20MACRO20*%
%AMMACRO14*
4,1,45,.00937,.00937,
.006339,.012441,
.005202,.013383,
.003926,.014123,
.00254,.014631,
.001087,.01489,
-.000388,.014892,
-.001842,.014639,
-.003229,.014137,
-.004508,.013401,
-.00564,.012455,
-.005669,.012441,
-.012441,.005669,
-.013384,.004533,
-.014124,.003257,
-.014631,.001871,
-.01489,.000418,
-.014892,-.001057,
-.014639,-.002511,
-.014136,-.003898,
-.013401,-.005177,
-.012454,-.006309,
-.012441,-.006339,
-.006339,-.012441,
-.005202,-.013383,
-.003926,-.014123,
-.00254,-.014631,
-.001087,-.01489,
.000388,-.014892,
.001842,-.014639,
.003229,-.014137,
.004508,-.013401,
.00564,-.012455,
.005669,-.012441,
.012441,-.005669,
.013384,-.004533,
.014124,-.003257,
.014631,-.001871,
.01489,-.000418,
.014892,.001057,
.014639,.002511,
.014136,.003898,
.013401,.005177,
.012454,.006309,
.012441,.006339,
.00937,.00937,
0.0*
%
%ADD14MACRO14*%
%AMMACRO13*
4,1,45,-.00937,-.00937,
-.006339,-.012441,
-.005202,-.013383,
-.003926,-.014123,
-.00254,-.014631,
-.001087,-.01489,
.000388,-.014892,
.001842,-.014639,
.003229,-.014137,
.004508,-.013401,
.00564,-.012455,
.005669,-.012441,
.012441,-.005669,
.013384,-.004533,
.014124,-.003257,
.014631,-.001871,
.01489,-.000418,
.014892,.001057,
.014639,.002511,
.014136,.003898,
.013401,.005177,
.012454,.006309,
.012441,.006339,
.006339,.012441,
.005202,.013383,
.003926,.014123,
.00254,.014631,
.001087,.01489,
-.000388,.014892,
-.001842,.014639,
-.003229,.014137,
-.004508,.013401,
-.00564,.012455,
-.005669,.012441,
-.012441,.005669,
-.013384,.004533,
-.014124,.003257,
-.014631,.001871,
-.01489,.000418,
-.014892,-.001057,
-.014639,-.002511,
-.014136,-.003898,
-.013401,-.005177,
-.012454,-.006309,
-.012441,-.006339,
-.00937,-.00937,
0.0*
%
%ADD13MACRO13*%
%AMMACRO63*
4,1,41,-.016732,0.0,
-.016732,-.003937,
-.016672,-.004621,
-.016495,-.005284,
-.016205,-.005906,
-.015811,-.006468,
-.015326,-.006953,
-.014764,-.007347,
-.014142,-.007637,
-.013479,-.007814,
-.012795,-.007874,
.012795,-.007874,
.013479,-.007814,
.014142,-.007637,
.014764,-.007347,
.015326,-.006953,
.015811,-.006468,
.016205,-.005906,
.016495,-.005284,
.016672,-.004621,
.016732,-.003937,
.016732,.003937,
.016672,.004621,
.016495,.005284,
.016205,.005906,
.015811,.006468,
.015326,.006953,
.014764,.007347,
.014142,.007637,
.013479,.007814,
.012795,.007874,
-.012795,.007874,
-.013479,.007814,
-.014142,.007637,
-.014764,.007347,
-.015326,.006953,
-.015811,.006468,
-.016205,.005906,
-.016495,.005284,
-.016672,.004621,
-.016732,.003937,
-.016732,0.0,
0.0*
%
%ADD63MACRO63*%
%AMMACRO93*
4,1,41,-.017717,0.0,
-.017717,-.003937,
-.017642,-.004792,
-.01742,-.00562,
-.017057,-.006398,
-.016565,-.0071,
-.015959,-.007707,
-.015256,-.008199,
-.014478,-.008561,
-.01365,-.008784,
-.012795,-.008858,
.012795,-.008858,
.01365,-.008784,
.014478,-.008561,
.015256,-.008199,
.015959,-.007707,
.016565,-.0071,
.017057,-.006398,
.01742,-.00562,
.017642,-.004792,
.017717,-.003937,
.017717,.003937,
.017642,.004792,
.01742,.00562,
.017057,.006398,
.016565,.0071,
.015959,.007707,
.015256,.008199,
.014478,.008561,
.01365,.008784,
.012795,.008858,
-.012795,.008858,
-.01365,.008784,
-.014478,.008561,
-.015256,.008199,
-.015959,.007707,
-.016565,.0071,
-.017057,.006398,
-.01742,.00562,
-.017642,.004792,
-.017717,.003937,
-.017717,0.0,
0.0*
%
%ADD93MACRO93*%
%AMMACRO21*
4,1,41,-.017717,0.0,
-.017717,-.009606,
-.01759,-.011017,
-.017221,-.012384,
-.01662,-.013667,
-.015806,-.014826,
-.014802,-.015825,
-.01364,-.016636,
-.012356,-.017232,
-.010987,-.017596,
-.009606,-.017717,
.009606,-.017717,
.011017,-.01759,
.012384,-.017221,
.013667,-.01662,
.014826,-.015806,
.015825,-.014802,
.016636,-.01364,
.017232,-.012356,
.017596,-.010987,
.017717,-.009606,
.017717,.009606,
.01759,.011017,
.017221,.012384,
.01662,.013667,
.015806,.014826,
.014802,.015825,
.01364,.016636,
.012356,.017232,
.010987,.017596,
.009606,.017717,
-.009606,.017717,
-.011017,.01759,
-.012384,.017221,
-.013667,.01662,
-.014826,.015806,
-.015825,.014802,
-.016636,.01364,
-.017232,.012356,
-.017596,.010987,
-.017717,.009606,
-.017717,0.0,
0.0*
%
%ADD21MACRO21*%
%ADD36O,.061024X.088583*%
%ADD70R,.041339X.072835*%
%ADD98R,.104331X.070866*%
%ADD64R,.070866X.104331*%
%AMMACRO84*
4,1,22,.007874,.017717,
-.007874,.017717,
-.007874,-.01378,
-.007814,-.014463,
-.007637,-.015126,
-.007347,-.015748,
-.006953,-.01631,
-.006468,-.016795,
-.005906,-.017189,
-.005284,-.017479,
-.004621,-.017657,
-.003937,-.017717,
.003937,-.017717,
.004621,-.017657,
.005284,-.017479,
.005906,-.017189,
.006468,-.016795,
.006953,-.01631,
.007347,-.015748,
.007637,-.015126,
.007814,-.014463,
.007874,-.01378,
.007874,.017717,
0.0*
%
%ADD84MACRO84*%
%AMMACRO81*
4,1,22,-.017717,.007874,
-.017717,-.007874,
.01378,-.007874,
.014463,-.007814,
.015126,-.007637,
.015748,-.007347,
.01631,-.006953,
.016795,-.006468,
.017189,-.005906,
.017479,-.005284,
.017657,-.004621,
.017717,-.003937,
.017717,.003937,
.017657,.004621,
.017479,.005284,
.017189,.005906,
.016795,.006468,
.01631,.006953,
.015748,.007347,
.015126,.007637,
.014463,.007814,
.01378,.007874,
-.017717,.007874,
0.0*
%
%ADD81MACRO81*%
%AMMACRO118*
4,1,41,-.021654,0.0,
-.021654,-.002953,
-.021579,-.003807,
-.021357,-.004636,
-.020994,-.005413,
-.020502,-.006116,
-.019896,-.006723,
-.019193,-.007215,
-.018415,-.007577,
-.017587,-.007799,
-.016732,-.007874,
.016732,-.007874,
.017587,-.007799,
.018415,-.007577,
.019193,-.007215,
.019896,-.006723,
.020502,-.006116,
.020994,-.005413,
.021357,-.004636,
.021579,-.003807,
.021654,-.002953,
.021654,.002953,
.021579,.003807,
.021357,.004636,
.020994,.005413,
.020502,.006116,
.019896,.006723,
.019193,.007215,
.018415,.007577,
.017587,.007799,
.016732,.007874,
-.016732,.007874,
-.017587,.007799,
-.018415,.007577,
-.019193,.007215,
-.019896,.006723,
-.020502,.006116,
-.020994,.005413,
-.021357,.004636,
-.021579,.003807,
-.021654,.002953,
-.021654,0.0,
0.0*
%
%ADD118MACRO118*%
%AMMACRO117*
4,1,41,0.0,.021654,
-.002953,.021654,
-.003807,.021579,
-.004636,.021357,
-.005413,.020994,
-.006116,.020502,
-.006723,.019896,
-.007215,.019193,
-.007577,.018415,
-.007799,.017587,
-.007874,.016732,
-.007874,-.016732,
-.007799,-.017587,
-.007577,-.018415,
-.007215,-.019193,
-.006723,-.019896,
-.006116,-.020502,
-.005413,-.020994,
-.004636,-.021357,
-.003807,-.021579,
-.002953,-.021654,
.002953,-.021654,
.003807,-.021579,
.004636,-.021357,
.005413,-.020994,
.006116,-.020502,
.006723,-.019896,
.007215,-.019193,
.007577,-.018415,
.007799,-.017587,
.007874,-.016732,
.007874,.016732,
.007799,.017587,
.007577,.018415,
.007215,.019193,
.006723,.019896,
.006116,.020502,
.005413,.020994,
.004636,.021357,
.003807,.021579,
.002953,.021654,
0.0,.021654,
0.0*
%
%ADD117MACRO117*%
%AMMACRO54*
4,1,44,.022638,0.0,
.022638,.00937,
.022447,.011506,
.021889,.013577,
.02098,.015519,
.019747,.017274,
.018228,.018788,
.016469,.020015,
.014524,.020918,
.012452,.02147,
.010315,.021654,
.010315,.021654,
-.010315,.021654,
-.012452,.02147,
-.014524,.020918,
-.016469,.020015,
-.018228,.018788,
-.019747,.017274,
-.02098,.015519,
-.021889,.013577,
-.022447,.011506,
-.022638,.00937,
-.022638,.00937,
-.022638,-.00937,
-.022447,-.011506,
-.021889,-.013577,
-.02098,-.015519,
-.019747,-.017274,
-.018228,-.018788,
-.016469,-.020015,
-.014524,-.020918,
-.012452,-.02147,
-.010315,-.021654,
-.010315,-.021654,
.010315,-.021654,
.012452,-.02147,
.014524,-.020918,
.016469,-.020015,
.018228,-.018788,
.019747,-.017274,
.02098,-.015519,
.021889,-.013577,
.022447,-.011506,
.022638,-.00937,
.022638,0.0,
0.0*
%
%ADD54MACRO54*%
%AMMACRO91*
4,1,41,0.0,-.022638,
.00937,-.022638,
.011506,-.022447,
.013577,-.021889,
.015519,-.02098,
.017274,-.019747,
.018788,-.018228,
.020015,-.016469,
.020918,-.014524,
.02147,-.012452,
.021654,-.010315,
.021654,.010315,
.02147,.012452,
.020918,.014524,
.020015,.016469,
.018788,.018228,
.017274,.019747,
.015519,.02098,
.013577,.021889,
.011506,.022447,
.00937,.022638,
-.00937,.022638,
-.011506,.022447,
-.013577,.021889,
-.015519,.02098,
-.017274,.019747,
-.018788,.018228,
-.020015,.016469,
-.020918,.014524,
-.02147,.012452,
-.021654,.010315,
-.021654,-.010315,
-.02147,-.012452,
-.020918,-.014524,
-.020015,-.016469,
-.018788,-.018228,
-.017274,-.019747,
-.015519,-.02098,
-.013577,-.021889,
-.011506,-.022447,
-.00937,-.022638,
0.0,-.022638,
0.0*
%
%ADD91MACRO91*%
%AMMACRO79*
4,1,41,.031496,0.0,
.031496,.011339,
.031276,.013817,
.030629,.016219,
.029574,.018472,
.028144,.020508,
.026383,.022264,
.024343,.023688,
.022087,.024737,
.019683,.025377,
.017244,.025591,
-.017244,.025591,
-.019722,.02537,
-.022124,.024723,
-.024377,.023669,
-.026413,.022239,
-.02817,.020477,
-.029594,.018438,
-.030642,.016182,
-.031283,.013778,
-.031496,.011339,
-.031496,-.011339,
-.031276,-.013817,
-.030629,-.016219,
-.029574,-.018472,
-.028144,-.020508,
-.026383,-.022264,
-.024343,-.023688,
-.022087,-.024737,
-.019683,-.025377,
-.017244,-.025591,
.017244,-.025591,
.019722,-.02537,
.022124,-.024723,
.024377,-.023669,
.026413,-.022239,
.02817,-.020477,
.029594,-.018438,
.030642,-.016182,
.031283,-.013778,
.031496,-.011339,
.031496,0.0,
0.0*
%
%ADD79MACRO79*%
%AMMACRO100*
4,1,41,0.0,-.031496,
.011339,-.031496,
.013817,-.031276,
.016219,-.030629,
.018472,-.029574,
.020508,-.028144,
.022264,-.026383,
.023688,-.024343,
.024737,-.022087,
.025377,-.019683,
.025591,-.017244,
.025591,.017244,
.02537,.019722,
.024723,.022124,
.023669,.024377,
.022239,.026413,
.020477,.02817,
.018438,.029594,
.016182,.030642,
.013778,.031283,
.011339,.031496,
-.011339,.031496,
-.013817,.031276,
-.016219,.030629,
-.018472,.029574,
-.020508,.028144,
-.022264,.026383,
-.023688,.024343,
-.024737,.022087,
-.025377,.019683,
-.025591,.017244,
-.025591,-.017244,
-.02537,-.019722,
-.024723,-.022124,
-.023669,-.024377,
-.022239,-.026413,
-.020477,-.02817,
-.018438,-.029594,
-.016182,-.030642,
-.013778,-.031283,
-.011339,-.031496,
0.0,-.031496,
0.0*
%
%ADD100MACRO100*%
%AMMACRO107*
4,1,20,.050197,-.035433,
-.050197,-.035433,
-.050197,-.016732,
-.077756,-.016732,
-.077756,-.002953,
-.050197,-.002953,
-.050197,.002953,
-.077756,.002953,
-.077756,.016732,
-.050197,.016732,
-.050197,.035433,
.050197,.035433,
.050197,.016732,
.077756,.016732,
.077756,.002953,
.050197,.002953,
.050197,-.002953,
.077756,-.002953,
.077756,-.016732,
.050197,-.016732,
.050197,-.035433,
0.0*
%
%ADD107MACRO107*%
%ADD29O,.037402X.015709*%
%ADD30O,.015709X.037402*%
%AMMACRO105*
4,1,41,.028543,0.0,
.028543,.008858,
.028364,.010909,
.027831,.012898,
.026961,.014764,
.02578,.01645,
.024324,.017906,
.022638,.019087,
.020772,.019957,
.018783,.02049,
.016732,.020669,
-.016732,.020669,
-.018783,.02049,
-.020772,.019957,
-.022638,.019087,
-.024324,.017906,
-.02578,.01645,
-.026961,.014764,
-.027831,.012898,
-.028364,.010909,
-.028543,.008858,
-.028543,-.008858,
-.028364,-.010909,
-.027831,-.012898,
-.026961,-.014764,
-.02578,-.01645,
-.024324,-.017906,
-.022638,-.019087,
-.020772,-.019957,
-.018783,-.02049,
-.016732,-.020669,
.016732,-.020669,
.018783,-.02049,
.020772,-.019957,
.022638,-.019087,
.024324,-.017906,
.02578,-.01645,
.026961,-.014764,
.027831,-.012898,
.028364,-.010909,
.028543,-.008858,
.028543,0.0,
0.0*
%
%ADD105MACRO105*%
%AMMACRO38*
4,1,42,0.0,-.043307,
.014252,-.043307,
.017072,-.043064,
.019808,-.042334,
.022375,-.041141,
.024696,-.03952,
.0267,-.037521,
.028326,-.035204,
.029526,-.03264,
.030262,-.029906,
.030512,-.027087,
.030512,.027087,
.030262,.029906,
.029526,.03264,
.028326,.035204,
.0267,.037521,
.024696,.03952,
.022375,.041141,
.019808,.042334,
.017072,.043064,
.014252,.043307,
.014252,.043307,
-.014252,.043307,
-.017072,.043064,
-.019808,.042334,
-.022375,.041141,
-.024696,.03952,
-.0267,.037521,
-.028326,.035204,
-.029526,.03264,
-.030262,.029906,
-.030512,.027087,
-.030512,-.027087,
-.030262,-.029906,
-.029526,-.03264,
-.028326,-.035204,
-.0267,-.037521,
-.024696,-.03952,
-.022375,-.041141,
-.019808,-.042334,
-.017072,-.043064,
-.014252,-.043307,
0.0,-.043307,
0.0*
%
%ADD38MACRO38*%
%AMMACRO28*
4,1,41,0.0,-.009843,
.003465,-.009843,
.004404,-.009757,
.005315,-.009509,
.006169,-.009107,
.00694,-.008563,
.007604,-.007894,
.008143,-.007119,
.008539,-.006262,
.008779,-.00535,
.008858,-.004409,
.008858,.004409,
.008779,.00535,
.008539,.006262,
.008143,.007119,
.007604,.007894,
.00694,.008563,
.006169,.009107,
.005315,.009509,
.004404,.009757,
.003465,.009843,
-.003465,.009843,
-.004404,.009757,
-.005315,.009509,
-.006169,.009107,
-.00694,.008563,
-.007604,.007894,
-.008143,.007119,
-.008539,.006262,
-.008779,.00535,
-.008858,.004409,
-.008858,-.004409,
-.008779,-.00535,
-.008539,-.006262,
-.008143,-.007119,
-.007604,-.007894,
-.00694,-.008563,
-.006169,-.009107,
-.005315,-.009509,
-.004404,-.009757,
-.003465,-.009843,
0.0,-.009843,
0.0*
%
%ADD28MACRO28*%
%AMMACRO119*
4,1,41,0.0,.031496,
-.005433,.031496,
-.006373,.03141,
-.007283,.031163,
-.008137,.030761,
-.008908,.030217,
-.009573,.029547,
-.010111,.028772,
-.010507,.027916,
-.010748,.027003,
-.010827,.026102,
-.010827,-.026102,
-.010741,-.027042,
-.010494,-.027953,
-.010092,-.028806,
-.009548,-.029577,
-.008878,-.030242,
-.008103,-.030781,
-.007246,-.031176,
-.006334,-.031417,
-.005433,-.031496,
.005433,-.031496,
.006373,-.03141,
.007283,-.031163,
.008137,-.030761,
.008908,-.030217,
.009573,-.029547,
.010111,-.028772,
.010507,-.027916,
.010748,-.027003,
.010827,-.026102,
.010827,.026102,
.010741,.027042,
.010494,.027953,
.010092,.028806,
.009548,.029577,
.008878,.030242,
.008103,.030781,
.007246,.031176,
.006334,.031417,
.005433,.031496,
0.0,.031496,
0.0*
%
%ADD119MACRO119*%
%AMMACRO94*
4,1,45,-.029528,0.0,
-.029528,-.007362,
-.029419,-.008644,
-.029089,-.009888,
-.028548,-.011056,
-.027813,-.012112,
-.026906,-.013024,
-.025854,-.013765,
-.024689,-.014312,
-.023447,-.014648,
-.022165,-.014764,
-.022126,-.014764,
.022126,-.014764,
.023408,-.014655,
.024652,-.014325,
.02582,-.013785,
.026876,-.013049,
.027788,-.012142,
.028529,-.01109,
.029076,-.009925,
.029412,-.008683,
.029528,-.007402,
.029528,-.007362,
.029528,.007362,
.029419,.008644,
.029089,.009888,
.028548,.011056,
.027813,.012112,
.026906,.013024,
.025854,.013765,
.024689,.014312,
.023447,.014648,
.022165,.014764,
.022126,.014764,
-.022126,.014764,
-.023408,.014655,
-.024652,.014325,
-.02582,.013785,
-.026876,.013049,
-.027788,.012142,
-.028529,.01109,
-.029076,.009925,
-.029412,.008683,
-.029528,.007402,
-.029528,.007362,
-.029528,0.0,
0.0*
%
%ADD94MACRO94*%
%AMMACRO55*
4,1,45,0.0,.029528,
-.007362,.029528,
-.008644,.029419,
-.009888,.029089,
-.011056,.028548,
-.012112,.027813,
-.013024,.026906,
-.013765,.025854,
-.014312,.024689,
-.014648,.023447,
-.014764,.022165,
-.014764,.022126,
-.014764,-.022126,
-.014655,-.023408,
-.014325,-.024652,
-.013785,-.02582,
-.013049,-.026876,
-.012142,-.027788,
-.01109,-.028529,
-.009925,-.029076,
-.008683,-.029412,
-.007402,-.029528,
-.007362,-.029528,
.007362,-.029528,
.008644,-.029419,
.009888,-.029089,
.011056,-.028548,
.012112,-.027813,
.013024,-.026906,
.013765,-.025854,
.014312,-.024689,
.014648,-.023447,
.014764,-.022165,
.014764,-.022126,
.014764,.022126,
.014655,.023408,
.014325,.024652,
.013785,.02582,
.013049,.026876,
.012142,.027788,
.01109,.028529,
.009925,.029076,
.008683,.029412,
.007402,.029528,
.007362,.029528,
0.0,.029528,
0.0*
%
%ADD55MACRO55*%
%AMMACRO111*
4,1,45,0.0,.026575,
-.004409,.026575,
-.005521,.026481,
-.006599,.026196,
-.007611,.025728,
-.008526,.025091,
-.009317,.024305,
-.00996,.023393,
-.010434,.022384,
-.010726,.021307,
-.010827,.020197,
-.010827,.020157,
-.010827,-.020157,
-.010733,-.021269,
-.010448,-.022347,
-.009979,-.023359,
-.009343,-.024274,
-.008557,-.025065,
-.007645,-.025708,
-.006636,-.026182,
-.005559,-.026474,
-.004449,-.026575,
-.004409,-.026575,
.004409,-.026575,
.005521,-.026481,
.006599,-.026196,
.007611,-.025728,
.008526,-.025091,
.009317,-.024305,
.00996,-.023393,
.010434,-.022384,
.010726,-.021307,
.010827,-.020197,
.010827,-.020157,
.010827,.020157,
.010733,.021269,
.010448,.022347,
.009979,.023359,
.009343,.024274,
.008557,.025065,
.007645,.025708,
.006636,.026182,
.005559,.026474,
.004449,.026575,
.004409,.026575,
0.0,.026575,
0.0*
%
%ADD111MACRO111*%
%AMMACRO37*
4,1,41,0.0,-.040354,
.01378,-.040354,
.016685,-.0401,
.019502,-.039345,
.022146,-.038113,
.024535,-.03644,
.026597,-.034377,
.02827,-.031988,
.029503,-.029345,
.030258,-.026528,
.030512,-.023622,
.030512,.023622,
.030258,.026528,
.029503,.029345,
.02827,.031988,
.026597,.034377,
.024535,.03644,
.022146,.038113,
.019502,.039345,
.016685,.0401,
.01378,.040354,
-.01378,.040354,
-.016685,.0401,
-.019502,.039345,
-.022146,.038113,
-.024535,.03644,
-.026597,.034377,
-.02827,.031988,
-.029503,.029345,
-.030258,.026528,
-.030512,.023622,
-.030512,-.023622,
-.030258,-.026528,
-.029503,-.029345,
-.02827,-.031988,
-.026597,-.034377,
-.024535,-.03644,
-.022146,-.038113,
-.019502,-.039345,
-.016685,-.0401,
-.01378,-.040354,
0.0,-.040354,
0.0*
%
%ADD37MACRO37*%
%AMMACRO18*
4,1,41,0.0,-.030512,
.011339,-.030512,
.013304,-.030336,
.015209,-.029822,
.016995,-.028986,
.01861,-.027851,
.020002,-.026453,
.021131,-.024835,
.021962,-.023046,
.022469,-.021139,
.022638,-.019213,
.022638,.019213,
.022462,.021178,
.021948,.023083,
.021112,.024869,
.019977,.026484,
.018579,.027876,
.016961,.029005,
.015172,.029836,
.013265,.030343,
.011339,.030512,
-.011339,.030512,
-.013304,.030336,
-.015209,.029822,
-.016995,.028986,
-.01861,.027851,
-.020002,.026453,
-.021131,.024835,
-.021962,.023046,
-.022469,.021139,
-.022638,.019213,
-.022638,-.019213,
-.022462,-.021178,
-.021948,-.023083,
-.021112,-.024869,
-.019977,-.026484,
-.018579,-.027876,
-.016961,-.029005,
-.015172,-.029836,
-.013265,-.030343,
-.011339,-.030512,
0.0,-.030512,
0.0*
%
%ADD18MACRO18*%
%AMMACRO120*
4,1,43,.038386,0.0,
.038386,.011339,
.038166,.013817,
.037518,.016219,
.036464,.018472,
.035034,.020508,
.033273,.022264,
.031233,.023688,
.028977,.024737,
.026573,.025377,
.024094,.025591,
.024094,.025591,
-.024094,.025591,
-.026573,.025377,
-.028977,.024737,
-.031233,.023688,
-.033273,.022264,
-.035034,.020508,
-.036464,.018472,
-.037518,.016219,
-.038166,.013817,
-.038386,.011339,
-.038386,.011339,
-.038386,-.011339,
-.038166,-.013817,
-.037518,-.016219,
-.036464,-.018472,
-.035034,-.020508,
-.033273,-.022264,
-.031233,-.023688,
-.028977,-.024737,
-.026573,-.025377,
-.024094,-.025591,
.024094,-.025591,
.026573,-.025377,
.028977,-.024737,
.031233,-.023688,
.033273,-.022264,
.035034,-.020508,
.036464,-.018472,
.037518,-.016219,
.038166,-.013817,
.038386,-.011339,
.038386,0.0,
0.0*
%
%ADD120MACRO120*%
%AMMACRO103*
4,1,41,0.0,-.010827,
.002953,-.010827,
.003807,-.010752,
.004636,-.01053,
.005413,-.010167,
.006116,-.009675,
.006723,-.009069,
.007215,-.008366,
.007577,-.007589,
.007799,-.00676,
.007874,-.005906,
.007874,.005906,
.007799,.00676,
.007577,.007589,
.007215,.008366,
.006723,.009069,
.006116,.009675,
.005413,.010167,
.004636,.01053,
.003807,.010752,
.002953,.010827,
-.002953,.010827,
-.003807,.010752,
-.004636,.01053,
-.005413,.010167,
-.006116,.009675,
-.006723,.009069,
-.007215,.008366,
-.007577,.007589,
-.007799,.00676,
-.007874,.005906,
-.007874,-.005906,
-.007799,-.00676,
-.007577,-.007589,
-.007215,-.008366,
-.006723,-.009069,
-.006116,-.009675,
-.005413,-.010167,
-.004636,-.01053,
-.003807,-.010752,
-.002953,-.010827,
0.0,-.010827,
0.0*
%
%ADD103MACRO103*%
%AMMACRO59*
4,1,41,.014764,0.0,
.014764,.001969,
.014704,.002652,
.014526,.003315,
.014236,.003937,
.013843,.004499,
.013357,.004984,
.012795,.005378,
.012173,.005668,
.01151,.005846,
.010827,.005906,
-.010827,.005906,
-.01151,.005846,
-.012173,.005668,
-.012795,.005378,
-.013357,.004984,
-.013843,.004499,
-.014236,.003937,
-.014526,.003315,
-.014704,.002652,
-.014764,.001969,
-.014764,-.001969,
-.014704,-.002652,
-.014526,-.003315,
-.014236,-.003937,
-.013843,-.004499,
-.013357,-.004984,
-.012795,-.005378,
-.012173,-.005668,
-.01151,-.005846,
-.010827,-.005906,
.010827,-.005906,
.01151,-.005846,
.012173,-.005668,
.012795,-.005378,
.013357,-.004984,
.013843,-.004499,
.014236,-.003937,
.014526,-.003315,
.014704,-.002652,
.014764,-.001969,
.014764,0.0,
0.0*
%
%ADD59MACRO59*%
%AMMACRO48*
4,1,15,.036417,.014764,
.036417,-.014764,
-.036417,-.014764,
-.036417,.014764,
-.018031,.014764,
-.014852,.011887,
-.011221,.009606,
-.007249,.00799,
-.003057,.007088,
.001228,.006928,
.005476,.007515,
.009557,.00883,
.013348,.010834,
.016734,.013466,
.018031,.014764,
.036417,.014764,
0.0*
%
%ADD48MACRO48*%
%AMMACRO99*
4,1,41,.030512,0.0,
.030512,.011811,
.030288,.014375,
.029621,.016861,
.028534,.019193,
.027058,.021301,
.025238,.023121,
.02313,.024597,
.020798,.025684,
.018312,.026351,
.015748,.026575,
-.015748,.026575,
-.018312,.026351,
-.020798,.025684,
-.02313,.024597,
-.025238,.023121,
-.027058,.021301,
-.028534,.019193,
-.029621,.016861,
-.030288,.014375,
-.030512,.011811,
-.030512,-.011811,
-.030288,-.014375,
-.029621,-.016861,
-.028534,-.019193,
-.027058,-.021301,
-.025238,-.023121,
-.02313,-.024597,
-.020798,-.025684,
-.018312,-.026351,
-.015748,-.026575,
.015748,-.026575,
.018312,-.026351,
.020798,-.025684,
.02313,-.024597,
.025238,-.023121,
.027058,-.021301,
.028534,-.019193,
.029621,-.016861,
.030288,-.014375,
.030512,-.011811,
.030512,0.0,
0.0*
%
%ADD99MACRO99*%
%AMMACRO51*
4,1,41,.014606,.014606,
.009055,.020197,
.007598,.021399,
.005964,.022342,
.00419,.022986,
.002331,.023313,
.000444,.023313,
-.001414,.022984,
-.003188,.022338,
-.004822,.021394,
-.00626,.020197,
-.020197,.00626,
-.021403,.004808,
-.022345,.003172,
-.022989,.001398,
-.023314,-.000461,
-.023312,-.002348,
-.022982,-.004206,
-.022335,-.005979,
-.021389,-.007612,
-.020197,-.009055,
-.009055,-.020197,
-.007598,-.021399,
-.005964,-.022342,
-.00419,-.022986,
-.002331,-.023313,
-.000444,-.023313,
.001414,-.022984,
.003188,-.022338,
.004822,-.021394,
.00626,-.020197,
.020197,-.00626,
.021403,-.004808,
.022345,-.003172,
.022989,-.001398,
.023314,.000461,
.023312,.002348,
.022982,.004206,
.022335,.005979,
.021389,.007612,
.020197,.009055,
.014606,.014606,
0.0*
%
%ADD51MACRO51*%
%AMMACRO112*
4,1,41,.097441,0.0,
.097441,.011339,
.097221,.013817,
.096574,.016219,
.095519,.018472,
.094089,.020508,
.092328,.022264,
.090288,.023688,
.088032,.024737,
.085628,.025377,
.08315,.025591,
-.08315,.025591,
-.085628,.025377,
-.088032,.024737,
-.090288,.023688,
-.092328,.022264,
-.094089,.020508,
-.095519,.018472,
-.096574,.016219,
-.097221,.013817,
-.097441,.011339,
-.097441,-.011339,
-.097221,-.013817,
-.096574,-.016219,
-.095519,-.018472,
-.094089,-.020508,
-.092328,-.022264,
-.090288,-.023688,
-.088032,-.024737,
-.085628,-.025377,
-.08315,-.025591,
.08315,-.025591,
.085628,-.025377,
.088032,-.024737,
.090288,-.023688,
.092328,-.022264,
.094089,-.020508,
.095519,-.018472,
.096574,-.016219,
.097221,-.013817,
.097441,-.011339,
.097441,0.0,
0.0*
%
%ADD112MACRO112*%
%AMMACRO104*
4,1,45,.022598,0.0,
.022598,.010787,
.022448,.012669,
.021972,.014495,
.021187,.016211,
.020116,.017765,
.018791,.019109,
.017253,.020203,
.015549,.021013,
.013729,.021515,
.011851,.021693,
.011811,.021693,
-.011811,.021693,
-.01369,.021522,
-.015512,.021027,
-.017219,.020223,
-.018761,.019135,
-.020091,.017795,
-.021168,.016246,
-.021959,.014532,
-.022441,.012708,
-.022599,.010827,
-.022598,.010787,
-.022598,-.010787,
-.022448,-.012669,
-.021972,-.014495,
-.021187,-.016211,
-.020116,-.017765,
-.018791,-.019109,
-.017253,-.020203,
-.015549,-.021013,
-.013729,-.021515,
-.011851,-.021693,
-.011811,-.021693,
.011811,-.021693,
.01369,-.021522,
.015512,-.021027,
.017219,-.020223,
.018761,-.019135,
.020091,-.017795,
.021168,-.016246,
.021959,-.014532,
.022441,-.012708,
.022599,-.010827,
.022598,-.010787,
.022598,0.0,
0.0*
%
%ADD104MACRO104*%
%AMMACRO73*
4,1,45,0.0,-.012795,
.003465,-.012795,
.004404,-.01271,
.005315,-.012462,
.006169,-.01206,
.00694,-.011516,
.007604,-.010846,
.008143,-.010072,
.008539,-.009215,
.008779,-.008303,
.008858,-.007362,
.008858,-.007362,
.008858,.007362,
.008779,.008303,
.008539,.009215,
.008143,.010072,
.007604,.010846,
.00694,.011516,
.006169,.01206,
.005315,.012462,
.004404,.01271,
.003465,.012795,
.003465,.012795,
-.003465,.012795,
-.004404,.01271,
-.005315,.012462,
-.006169,.01206,
-.00694,.011516,
-.007604,.010846,
-.008143,.010072,
-.008539,.009215,
-.008779,.008303,
-.008858,.007362,
-.008858,.007362,
-.008858,-.007362,
-.008779,-.008303,
-.008539,-.009215,
-.008143,-.010072,
-.007604,-.010846,
-.00694,-.011516,
-.006169,-.01206,
-.005315,-.012462,
-.004404,-.01271,
-.003465,-.012795,
-.003465,-.012795,
0.0,-.012795,
0.0*
%
%ADD73MACRO73*%
%AMMACRO108*
4,1,45,0.0,-.017717,
.003465,-.017717,
.004062,-.017661,
.004642,-.017502,
.005184,-.017245,
.005674,-.016898,
.006096,-.016471,
.006438,-.015977,
.006689,-.015431,
.006841,-.01485,
.00689,-.014252,
.00689,-.014252,
.00689,.014252,
.006841,.01485,
.006689,.015431,
.006438,.015977,
.006096,.016471,
.005674,.016898,
.005184,.017245,
.004642,.017502,
.004062,.017661,
.003465,.017717,
.003465,.017717,
-.003465,.017717,
-.004062,.017661,
-.004642,.017502,
-.005184,.017245,
-.005674,.016898,
-.006096,.016471,
-.006438,.015977,
-.006689,.015431,
-.006841,.01485,
-.00689,.014252,
-.00689,.014252,
-.00689,-.014252,
-.006841,-.01485,
-.006689,-.015431,
-.006438,-.015977,
-.006096,-.016471,
-.005674,-.016898,
-.005184,-.017245,
-.004642,-.017502,
-.004062,-.017661,
-.003465,-.017717,
-.003465,-.017717,
0.0,-.017717,
0.0*
%
%ADD108MACRO108*%
%AMMACRO76*
4,1,41,.012795,0.0,
.012795,.003937,
.012691,.005133,
.01238,.006293,
.011872,.007382,
.011183,.008366,
.010334,.009215,
.00935,.009904,
.008262,.010411,
.007102,.010722,
.005906,.010827,
-.005906,.010827,
-.007102,.010722,
-.008262,.010411,
-.00935,.009904,
-.010334,.009215,
-.011183,.008366,
-.011872,.007382,
-.01238,.006293,
-.012691,.005133,
-.012795,.003937,
-.012795,-.003937,
-.012691,-.005133,
-.01238,-.006293,
-.011872,-.007382,
-.011183,-.008366,
-.010334,-.009215,
-.00935,-.009904,
-.008262,-.010411,
-.007102,-.010722,
-.005906,-.010827,
.005906,-.010827,
.007102,-.010722,
.008262,-.010411,
.00935,-.009904,
.010334,-.009215,
.011183,-.008366,
.011872,-.007382,
.01238,-.006293,
.012691,-.005133,
.012795,-.003937,
.012795,0.0,
0.0*
%
%ADD76MACRO76*%
%ADD121C,.003937*%
%ADD122C,.003898*%
%ADD123C,.007087*%
G75*
%LPD*%
G75*
G36*
G01X792512Y1004331D02*
G02X789571Y1014169I14981J9837D01*
G01Y1024020D01*
X824803Y1024016D01*
Y1004331D01*
X800197D01*
G03X798425Y1006299I-1979J0D01*
G01X796063D01*
G03X794291Y1004331I208J-1969D01*
G01X792512D01*
G37*
G54D100*
X947638Y1141732D03*
X940551D03*
X1000000Y1115945D03*
X992913D03*
X982283Y1097244D03*
X975197D03*
G54D110*
X1003937Y1025630D03*
X1001969D03*
X1000000D03*
X998031D03*
X996063D03*
Y1037205D03*
X998031D03*
X1000000D03*
X1001969D03*
X1003937D03*
G54D101*
X957874Y818307D03*
G54D120*
X1008268Y1095276D03*
Y1107087D03*
G54D111*
X980906Y1031024D03*
X986024D03*
X980906Y1038583D03*
X983465D03*
X986024D03*
G54D102*
X963189Y856102D03*
G54D121*
G01X790945Y638681D02*
Y579626D01*
X1086220D01*
Y638681D01*
X790945D01*
G01X938583D02*
Y579626D01*
G01Y599311D02*
X1086220D01*
G01Y618996D02*
X938583D01*
G01X988488D02*
Y599311D01*
G54D112*
X1000000Y1055709D03*
Y1044291D03*
G54D103*
X966142Y860827D03*
X964173D03*
X962205D03*
X960236D03*
X966142Y851378D03*
X964173D03*
X962205D03*
X960236D03*
G54D10*
X795866Y720472D03*
X806496Y1159449D03*
X1009646Y720472D03*
G54D122*
G01X794390Y692913D02*
X1011220D01*
G03X1017913Y700591I-552J7237D01*
G01Y964567D01*
G03X1013583Y976969I-19922J0D01*
G02X1009252Y989370I15591J12402D01*
G02X1013583Y1001772I19922J0D01*
G03X1017913Y1014173I-15591J12402D01*
G01Y1158811D01*
G03X1012157Y1164567I-5756J0D01*
G01X849803D01*
Y1159843D01*
X843504D01*
Y1151575D01*
X839961D01*
Y1159843D01*
X825000D01*
Y1151575D01*
X821457D01*
Y1159843D01*
X815157D01*
Y1164567D01*
X793354D01*
G03X787598Y1158811I0J-5756D01*
G01Y1014173D01*
G03X791929Y1001772I19922J0D01*
G02X796260Y989370I-15591J-12402D01*
G02X791929Y976969I-19922J0D01*
G03X787598Y964567I15591J-12402D01*
G01Y700591D01*
G03X794390Y692913I8087J312D01*
G01X950913Y586071D02*
Y593571D01*
X952780D01*
X953524Y593197D01*
X954083Y592697D01*
X954551Y591945D01*
X954925Y591071D01*
X955016Y589819D01*
X954925Y588571D01*
X954551Y587697D01*
X954083Y586945D01*
X953524Y586445D01*
X952780Y586071D01*
X950913D01*
G01X958130D02*
X960465Y593571D01*
X962799Y586071D01*
G01X961957Y588697D02*
X958972D01*
G01X967965Y593571D02*
Y586071D01*
G01X965819Y593571D02*
X970110D01*
G01X977331Y586071D02*
X973598D01*
Y593571D01*
X977331D01*
G01X975839Y589945D02*
X973598D01*
G01X982965Y585823D02*
X982780Y585945D01*
Y586197D01*
X982965Y586319D01*
X983150Y586197D01*
Y585945D01*
X982965Y585823D01*
G01Y589197D02*
X982780Y589319D01*
Y589571D01*
X982965Y589697D01*
X983150Y589571D01*
Y589319D01*
X982965Y589197D01*
G01X996193Y592323D02*
X996752Y593071D01*
X997406Y593445D01*
X998150Y593571D01*
X999083Y593323D01*
X999736Y592697D01*
X999925Y591945D01*
X999831Y591197D01*
X999457Y590571D01*
X997591Y589319D01*
X996752Y588445D01*
X996193Y587197D01*
X996004Y586071D01*
X999925D01*
G01X1005465Y593571D02*
X1004717Y593323D01*
X1004157Y592697D01*
X1003783Y591945D01*
X1003504Y590945D01*
X1003413Y589819D01*
X1003504Y588697D01*
X1003783Y587697D01*
X1004157Y586945D01*
X1004717Y586319D01*
X1005465Y586071D01*
X1006213Y586319D01*
X1006772Y586945D01*
X1007146Y587697D01*
X1007425Y588697D01*
X1007516Y589819D01*
X1007425Y590945D01*
X1007146Y591945D01*
X1006772Y592697D01*
X1006213Y593323D01*
X1005465Y593571D01*
G01X1012965Y586071D02*
Y593571D01*
X1011846Y592071D01*
G01Y586071D02*
X1014083D01*
G01X1020465D02*
X1021118Y586197D01*
X1021862Y586571D01*
X1022331Y587197D01*
X1022516Y588071D01*
X1022331Y588945D01*
X1021772Y589697D01*
X1020929Y590071D01*
X1020000D01*
X1019437Y590323D01*
X1018972Y590945D01*
X1018783Y591819D01*
X1019067Y592697D01*
X1019717Y593323D01*
X1020465Y593571D01*
X1021213Y593323D01*
X1021862Y592697D01*
X1022146Y591819D01*
X1021957Y590945D01*
X1021492Y590323D01*
X1020929Y590071D01*
X1020000D01*
X1019157Y589697D01*
X1018598Y588945D01*
X1018413Y588071D01*
X1018598Y587197D01*
X1019067Y586571D01*
X1019811Y586197D01*
X1020465Y586071D01*
G01X1026752Y588571D02*
X1029177D01*
G01X1035465Y586071D02*
Y593571D01*
X1034346Y592071D01*
G01Y586071D02*
X1036583D01*
G01X1042965Y593571D02*
X1042217Y593323D01*
X1041657Y592697D01*
X1041283Y591945D01*
X1041004Y590945D01*
X1040913Y589819D01*
X1041004Y588697D01*
X1041283Y587697D01*
X1041657Y586945D01*
X1042217Y586319D01*
X1042965Y586071D01*
X1043713Y586319D01*
X1044272Y586945D01*
X1044646Y587697D01*
X1044925Y588697D01*
X1045016Y589819D01*
X1044925Y590945D01*
X1044646Y591945D01*
X1044272Y592697D01*
X1043713Y593323D01*
X1042965Y593571D01*
G01X1049252Y588571D02*
X1051677D01*
G01X1056193Y592323D02*
X1056752Y593071D01*
X1057406Y593445D01*
X1058150Y593571D01*
X1059083Y593323D01*
X1059736Y592697D01*
X1059925Y591945D01*
X1059831Y591197D01*
X1059457Y590571D01*
X1057591Y589319D01*
X1056752Y588445D01*
X1056193Y587197D01*
X1056004Y586071D01*
X1059925D01*
G01X1063413Y587197D02*
X1063972Y586571D01*
X1064626Y586197D01*
X1065465Y586071D01*
X1066303Y586319D01*
X1066957Y586819D01*
X1067425Y587697D01*
X1067516Y588697D01*
X1067331Y589697D01*
X1066862Y590323D01*
X1066213Y590819D01*
X1065559Y590945D01*
X1064906Y590819D01*
X1064067Y590323D01*
X1064346Y593571D01*
X1066862D01*
G01X943555Y607201D02*
X944303Y606575D01*
X945142Y606201D01*
X945890D01*
X946634Y606575D01*
X947197Y607201D01*
X947476Y608075D01*
X947287Y608949D01*
X946823Y609701D01*
X945980Y610201D01*
X944862Y610453D01*
X944209Y610949D01*
X943929Y611827D01*
X944118Y612701D01*
X944583Y613327D01*
X945236Y613701D01*
X945890D01*
X946543Y613453D01*
X947102Y612827D01*
G01X950591Y606201D02*
Y613701D01*
X953016Y607449D01*
X955441Y613701D01*
Y606201D01*
G01X968016Y613701D02*
Y606201D01*
G01X965870Y613701D02*
X970161D01*
G01X975516Y606201D02*
X974768Y606327D01*
X974118Y606827D01*
X973555Y607575D01*
X973181Y608449D01*
X972996Y609449D01*
Y610453D01*
X973181Y611453D01*
X973555Y612327D01*
X974118Y613075D01*
X974768Y613575D01*
X975516Y613701D01*
X976264Y613575D01*
X976913Y613075D01*
X977476Y612327D01*
X977850Y611453D01*
X978035Y610453D01*
Y609449D01*
X977850Y608449D01*
X977476Y607575D01*
X976913Y606827D01*
X976264Y606327D01*
X975516Y606201D01*
G01X981150D02*
Y613701D01*
X983390D01*
X984134Y613327D01*
X984697Y612453D01*
X984882Y611453D01*
X984697Y610453D01*
X984228Y609701D01*
X983390Y609327D01*
X981150D01*
G01X952768Y632744D02*
Y625244D01*
G01X950622Y632744D02*
X954913D01*
G01X962134Y625244D02*
X958402D01*
Y632744D01*
X962134D01*
G01X960642Y629118D02*
X958402D01*
G01X965807Y625244D02*
X969728Y632744D01*
G01X965807D02*
X969728Y625244D01*
G01X972933D02*
X975268Y632744D01*
X977602Y625244D01*
G01X976760Y627870D02*
X973776D01*
G01X980807Y626244D02*
X981555Y625618D01*
X982394Y625244D01*
X983142D01*
X983886Y625618D01*
X984449Y626244D01*
X984728Y627118D01*
X984539Y627992D01*
X984075Y628744D01*
X983232Y629244D01*
X982114Y629496D01*
X981461Y629992D01*
X981181Y630870D01*
X981370Y631744D01*
X981835Y632370D01*
X982488Y632744D01*
X983142D01*
X983795Y632496D01*
X984354Y631870D01*
G01X996650Y632744D02*
X998886D01*
G01X997768D02*
Y625244D01*
G01X996650D02*
X998886D01*
G01X1003122D02*
Y632744D01*
X1007413Y625244D01*
Y632744D01*
G01X1010807Y626244D02*
X1011555Y625618D01*
X1012394Y625244D01*
X1013142D01*
X1013886Y625618D01*
X1014449Y626244D01*
X1014728Y627118D01*
X1014539Y627992D01*
X1014075Y628744D01*
X1013232Y629244D01*
X1012114Y629496D01*
X1011461Y629992D01*
X1011181Y630870D01*
X1011370Y631744D01*
X1011835Y632370D01*
X1012488Y632744D01*
X1013142D01*
X1013795Y632496D01*
X1014354Y631870D01*
G01X1020268Y632744D02*
Y625244D01*
G01X1018122Y632744D02*
X1022413D01*
G01X1025902Y625244D02*
Y632744D01*
X1028232D01*
X1028980Y632370D01*
X1029449Y631870D01*
X1029634Y630870D01*
X1029449Y629870D01*
X1028886Y629244D01*
X1028232Y628870D01*
X1025902D01*
G01X1028232D02*
X1029634Y625244D01*
G01X1033217Y632744D02*
Y627370D01*
X1033587Y626244D01*
X1034335Y625492D01*
X1035268Y625244D01*
X1036201Y625492D01*
X1036949Y626244D01*
X1037319Y627370D01*
Y632744D01*
G01X1040343Y625244D02*
Y632744D01*
X1042768Y626492D01*
X1045193Y632744D01*
Y625244D01*
G01X1052134D02*
X1048402D01*
Y632744D01*
X1052134D01*
G01X1050642Y629118D02*
X1048402D01*
G01X1055622Y625244D02*
Y632744D01*
X1059913Y625244D01*
Y632744D01*
G01X1065268D02*
Y625244D01*
G01X1063122Y632744D02*
X1067413D01*
G01X1070807Y626244D02*
X1071555Y625618D01*
X1072394Y625244D01*
X1073142D01*
X1073886Y625618D01*
X1074449Y626244D01*
X1074728Y627118D01*
X1074539Y627992D01*
X1074075Y628744D01*
X1073232Y629244D01*
X1072114Y629496D01*
X1071461Y629992D01*
X1071181Y630870D01*
X1071370Y631744D01*
X1071835Y632370D01*
X1072488Y632744D01*
X1073142D01*
X1073795Y632496D01*
X1074354Y631870D01*
G54D104*
X960630Y972835D03*
Y966535D03*
X955118Y972835D03*
Y966535D03*
G54D20*
X813480Y981102D03*
X829425Y1029921D03*
X796457Y1061024D03*
Y1064567D03*
X829228Y1033661D03*
X800638Y1117961D03*
X883858Y893504D03*
Y896850D03*
X860921Y1020472D03*
X852063Y1033071D03*
X888976Y1069882D03*
X894685Y1106299D03*
X875197Y1089567D03*
X875291Y1085827D03*
Y1082283D03*
X875197Y1078937D03*
X859543Y1107480D03*
X875197Y1092717D03*
X894780Y1103150D03*
X844094Y1125197D03*
X857772Y1126969D03*
X850787Y1104528D03*
X857969D03*
X866780Y1142717D03*
X905803Y805709D03*
Y824213D03*
X902165Y809646D03*
X925638Y887402D03*
X914504Y850591D03*
X918402Y860433D03*
X924898Y905413D03*
X938386Y1060236D03*
X927457Y1019488D03*
X947732Y1071850D03*
X917913Y1076181D03*
X906197D03*
X918008Y1073031D03*
X931197Y1099409D03*
X905803Y1092717D03*
X918795Y1134252D03*
X922835Y1155906D03*
X962205Y863583D03*
X960630Y847441D03*
X1011118Y968898D03*
X957575Y1009055D03*
X987693Y1048425D03*
Y1051969D03*
X984740Y1045079D03*
X984646Y1055118D03*
X984843Y1128740D03*
Y1122638D03*
X975787Y1102953D03*
X984937Y1119685D03*
X984843Y1131693D03*
X994189Y1145866D03*
X974606Y1138189D03*
G54D113*
X969488Y1108071D03*
X967520D03*
X965551D03*
X963583D03*
X961614D03*
X959646D03*
X957677D03*
X955709D03*
Y1133268D03*
X957677D03*
X959646D03*
X961614D03*
X963583D03*
X965551D03*
X967520D03*
X969488D03*
G54D11*
X797244Y702756D03*
Y1152362D03*
X1007087Y702756D03*
Y1152362D03*
G54D123*
G01X993799Y609350D02*
X994441Y605217D01*
X995177Y609350D01*
X995913Y605217D01*
X996555Y609350D01*
G01X999339Y609004D02*
X999063Y609213D01*
X998740Y609350D01*
X998374D01*
X997961Y609142D01*
X997638Y608799D01*
X997409Y608386D01*
X997224Y607697D01*
X997177Y607075D01*
X997272Y606457D01*
X997409Y606043D01*
X997685Y605630D01*
X998004Y605354D01*
X998327Y605217D01*
X998650D01*
X998969Y605354D01*
X999244Y605559D01*
X999476Y605835D01*
G01X1000512Y605768D02*
X1000878Y605421D01*
X1001291Y605217D01*
X1001661D01*
X1002028Y605421D01*
X1002303Y605768D01*
X1002441Y606252D01*
X1002350Y606732D01*
X1002118Y607146D01*
X1001705Y607421D01*
X1001154Y607559D01*
X1000835Y607835D01*
X1000697Y608315D01*
X1000787Y608799D01*
X1001016Y609142D01*
X1001339Y609350D01*
X1001661D01*
X1001980Y609213D01*
X1002256Y608866D01*
G01X1004626Y609350D02*
X1004260Y609213D01*
X1003984Y608866D01*
X1003799Y608457D01*
X1003661Y607902D01*
X1003614Y607283D01*
X1003661Y606661D01*
X1003799Y606110D01*
X1003984Y605697D01*
X1004260Y605354D01*
X1004626Y605217D01*
X1004992Y605354D01*
X1005268Y605697D01*
X1005453Y606110D01*
X1005591Y606661D01*
X1005638Y607283D01*
X1005591Y607902D01*
X1005453Y608457D01*
X1005268Y608866D01*
X1004992Y609213D01*
X1004626Y609350D01*
G01X1006764Y606043D02*
X1007039Y605559D01*
X1007409Y605283D01*
X1007823Y605217D01*
X1008189Y605283D01*
X1008555Y605630D01*
X1008787Y606043D01*
X1008831Y606457D01*
X1008740Y606937D01*
X1008417Y607283D01*
X1008098Y607421D01*
X1007685D01*
G01X1008098D02*
X1008374Y607626D01*
X1008602Y607972D01*
X1008693Y608386D01*
X1008602Y608799D01*
X1008374Y609142D01*
X1007961Y609350D01*
X1007547Y609283D01*
X1007134Y609004D01*
G01X1010925Y605217D02*
X1011248Y605283D01*
X1011614Y605492D01*
X1011843Y605835D01*
X1011937Y606319D01*
X1011843Y606799D01*
X1011567Y607213D01*
X1011154Y607421D01*
X1010697D01*
X1010421Y607559D01*
X1010189Y607902D01*
X1010098Y608386D01*
X1010236Y608866D01*
X1010559Y609213D01*
X1010925Y609350D01*
X1011291Y609213D01*
X1011614Y608866D01*
X1011752Y608386D01*
X1011661Y607902D01*
X1011429Y607559D01*
X1011154Y607421D01*
X1010697D01*
X1010283Y607213D01*
X1010008Y606799D01*
X1009913Y606319D01*
X1010008Y605835D01*
X1010236Y605492D01*
X1010602Y605283D01*
X1010925Y605217D01*
G01X993669Y616831D02*
Y612697D01*
X995504D01*
G01X996587D02*
X997736Y616831D01*
X998886Y612697D01*
G01X998472Y614142D02*
X997000D01*
G01X999874Y616831D02*
Y613870D01*
X1000059Y613248D01*
X1000425Y612835D01*
X1000886Y612697D01*
X1001346Y612835D01*
X1001713Y613248D01*
X1001898Y613870D01*
Y616831D01*
G01X1002980Y612697D02*
Y616831D01*
X1005091Y612697D01*
Y616831D01*
G01X1008197Y616484D02*
X1007921Y616693D01*
X1007598Y616831D01*
X1007232D01*
X1006819Y616622D01*
X1006496Y616280D01*
X1006268Y615866D01*
X1006083Y615177D01*
X1006035Y614555D01*
X1006130Y613937D01*
X1006268Y613524D01*
X1006543Y613110D01*
X1006862Y612835D01*
X1007185Y612697D01*
X1007508D01*
X1007827Y612835D01*
X1008102Y613039D01*
X1008335Y613315D01*
G01X1009370Y612697D02*
Y616831D01*
G01X1011299D02*
Y612697D01*
G01Y614764D02*
X1009370D01*
G01X1012520Y612697D02*
X1014449Y616831D01*
G01X1012520D02*
X1014449Y612697D01*
G01X1015717Y616831D02*
Y612697D01*
X1017551D01*
G01X1019185Y614075D02*
X1020382D01*
G01X1023945Y616484D02*
X1023669Y616693D01*
X1023346Y616831D01*
X1022980D01*
X1022567Y616622D01*
X1022244Y616280D01*
X1022016Y615866D01*
X1021831Y615177D01*
X1021783Y614555D01*
X1021878Y613937D01*
X1022016Y613524D01*
X1022291Y613110D01*
X1022610Y612835D01*
X1022933Y612697D01*
X1023256D01*
X1023575Y612835D01*
X1023850Y613039D01*
X1024083Y613315D01*
G01X1027094Y616484D02*
X1026819Y616693D01*
X1026496Y616831D01*
X1026130D01*
X1025717Y616622D01*
X1025394Y616280D01*
X1025165Y615866D01*
X1024980Y615177D01*
X1024933Y614555D01*
X1025028Y613937D01*
X1025165Y613524D01*
X1025441Y613110D01*
X1025760Y612835D01*
X1026083Y612697D01*
X1026406D01*
X1026724Y612835D01*
X1027000Y613039D01*
X1027232Y613315D01*
G01X1029232Y612697D02*
Y616831D01*
X1028681Y616004D01*
G01Y612697D02*
X1029783D01*
G01X1031370Y613524D02*
X1031646Y613039D01*
X1032016Y612764D01*
X1032429Y612697D01*
X1032795Y612764D01*
X1033161Y613110D01*
X1033394Y613524D01*
X1033437Y613937D01*
X1033346Y614417D01*
X1033024Y614764D01*
X1032705Y614902D01*
X1032291D01*
G01X1032705D02*
X1032980Y615106D01*
X1033209Y615453D01*
X1033299Y615866D01*
X1033209Y616280D01*
X1032980Y616622D01*
X1032567Y616831D01*
X1032154Y616764D01*
X1031740Y616484D01*
G01X1034520Y613315D02*
X1034795Y612972D01*
X1035118Y612764D01*
X1035531Y612697D01*
X1035945Y612835D01*
X1036268Y613110D01*
X1036496Y613591D01*
X1036543Y614142D01*
X1036449Y614693D01*
X1036220Y615039D01*
X1035898Y615315D01*
X1035579Y615382D01*
X1035256Y615315D01*
X1034843Y615039D01*
X1034980Y616831D01*
X1036220D01*
G01X1037807Y616142D02*
X1038083Y616555D01*
X1038406Y616764D01*
X1038772Y616831D01*
X1039232Y616693D01*
X1039555Y616346D01*
X1039646Y615937D01*
X1039598Y615520D01*
X1039417Y615177D01*
X1038496Y614488D01*
X1038083Y614004D01*
X1037807Y613315D01*
X1037717Y612697D01*
X1039646D01*
G01X1040913D02*
Y616831D01*
X1042059D01*
X1042429Y616622D01*
X1042657Y616346D01*
X1042748Y615795D01*
X1042657Y615244D01*
X1042382Y614902D01*
X1042059Y614693D01*
X1040913D01*
G01X1042059D02*
X1042748Y612697D01*
G01X1044980D02*
Y616831D01*
X1044429Y616004D01*
G01Y612697D02*
X1045531D01*
G01X1023098Y605315D02*
Y609449D01*
X1024244D01*
X1024614Y609240D01*
X1024843Y608965D01*
X1024933Y608413D01*
X1024843Y607862D01*
X1024567Y607520D01*
X1024244Y607311D01*
X1023098D01*
G01X1024244D02*
X1024933Y605315D01*
G01X1026476Y607173D02*
X1027945D01*
X1027807Y607657D01*
X1027579Y607933D01*
X1027256Y608071D01*
X1026937Y608000D01*
X1026661Y607795D01*
X1026476Y607311D01*
X1026386Y606898D01*
Y606488D01*
X1026476Y606071D01*
X1026705Y605657D01*
X1026980Y605382D01*
X1027303Y605315D01*
X1027626Y605453D01*
X1027945Y605866D01*
G01X1029488Y608071D02*
X1030315Y605315D01*
X1031142Y608071D01*
G01X1033465Y605177D02*
X1033374Y605248D01*
Y605382D01*
X1033465Y605453D01*
X1033555Y605382D01*
Y605248D01*
X1033465Y605177D01*
G01X1040130Y607520D02*
X1040315Y607724D01*
X1040453Y608071D01*
X1040543Y608555D01*
X1040453Y608965D01*
X1040268Y609240D01*
X1039949Y609449D01*
X1038709D01*
Y605315D01*
X1040224D01*
X1040543Y605591D01*
X1040728Y606004D01*
X1040819Y606488D01*
X1040728Y606969D01*
X1040453Y607382D01*
X1040130Y607520D01*
X1038709D01*
G54D105*
X1001181Y997539D03*
Y981004D03*
G54D30*
X832283Y1111614D03*
X830315D03*
X828346D03*
X826378D03*
X824409D03*
X822441D03*
X820472D03*
X818504D03*
Y1130906D03*
X820472D03*
X822441D03*
X824409D03*
X826378D03*
X828346D03*
X830315D03*
X832283D03*
X955709Y1147244D03*
X957677D03*
X959646D03*
X961614D03*
X955709Y1159449D03*
X957677D03*
X959646D03*
X961614D03*
G54D21*
X791339Y1047831D03*
Y1053740D03*
X796457Y1047831D03*
Y1053740D03*
G54D114*
X1005906Y1086220D03*
Y1084646D03*
X998425D03*
Y1086220D03*
G54D12*
X812598Y832362D03*
X822531Y872441D03*
Y882441D03*
Y892441D03*
X812531Y872441D03*
Y882441D03*
Y892441D03*
X812598Y852362D03*
Y842362D03*
X822531Y902441D03*
Y912441D03*
Y922441D03*
Y932441D03*
Y942441D03*
Y952441D03*
X812531Y902441D03*
Y912441D03*
Y922441D03*
Y932441D03*
Y942441D03*
Y952441D03*
X822531Y962441D03*
X812531D03*
X832531Y1002441D03*
Y1012441D03*
X858969Y875248D03*
X848969D03*
X858969Y865248D03*
X848969D03*
X842531Y1002441D03*
X852531D03*
X862531D03*
X872531D03*
X882531D03*
X892531D03*
X842531Y1012441D03*
X852531D03*
X862531D03*
X872531D03*
X882531D03*
X892531D03*
X902531Y1002441D03*
X912531D03*
X922531D03*
X932531D03*
X902531Y1012441D03*
X912531D03*
X922531D03*
X932531D03*
X992520Y832362D03*
X992610Y872441D03*
Y882441D03*
Y892441D03*
X982610Y872441D03*
Y882441D03*
Y892441D03*
X992520Y852362D03*
Y842362D03*
X992610Y902441D03*
Y912441D03*
Y922441D03*
Y932441D03*
Y942441D03*
Y952441D03*
X982610Y902441D03*
Y912441D03*
Y922441D03*
Y932441D03*
Y942441D03*
Y952441D03*
X992610Y962441D03*
X982610D03*
X983858Y1002441D03*
Y1012441D03*
Y1022441D03*
G54D13*
X803150Y863386D03*
X800787Y865748D03*
X881528Y876787D03*
X882677Y885433D03*
X884063Y874248D03*
X883492Y859681D03*
X893122Y855130D03*
X890457Y846362D03*
X886709Y871594D03*
X914555Y847055D03*
X904283Y873402D03*
X911409Y871457D03*
X906406Y871142D03*
G54D106*
X1008268Y1002559D03*
Y975984D03*
G54D115*
X1005315Y1081693D03*
X1003740D03*
X1002165D03*
X1000591D03*
X999016D03*
Y1089173D03*
X1000591D03*
X1002165D03*
X1003740D03*
X1005315D03*
G54D31*
X825394Y1121260D03*
G54D22*
X822441Y1033465D03*
X796457Y1044291D03*
X791339Y1044094D03*
X815945Y1031496D03*
X819291D03*
X796654Y1087402D03*
X796457Y1072535D03*
X807087Y1127953D03*
X810039Y1151669D03*
X858858Y859150D03*
X849016D03*
X880709Y865945D03*
X879035Y914961D03*
X875000Y915055D03*
X877362Y1064173D03*
X871260Y1055512D03*
X893110Y1060528D03*
X868701Y1027953D03*
Y1034740D03*
X883858Y1027953D03*
Y1034740D03*
X894291Y1113386D03*
X862402Y1103638D03*
X869291D03*
X865945D03*
X848031Y1121354D03*
X886614Y1096551D03*
X843504Y1115449D03*
X872835Y1073228D03*
X865354Y1119685D03*
X868898Y1073228D03*
X859055Y1140748D03*
X877559Y1140252D03*
X862402Y1137299D03*
X902165Y816732D03*
Y824213D03*
Y801969D03*
X932677Y867417D03*
Y874409D03*
X914594Y857272D03*
X920965Y913874D03*
X895571Y921551D03*
X947441Y1056197D03*
Y1063386D03*
X926772Y1051669D03*
X947835Y1047732D03*
X925197Y1068008D03*
X899606Y1027953D03*
Y1034740D03*
X925000Y1079425D03*
X917913Y1083268D03*
X941142Y1126575D03*
X940354Y1119291D03*
X921457Y1079331D03*
X952362Y1101181D03*
X949213D03*
X944685Y1127260D03*
X944882Y1117417D03*
X906299Y1122535D03*
X923031Y1122142D03*
X940157Y1094882D03*
X950787Y1085134D03*
X923228Y1134252D03*
X926181Y1134346D03*
X944685Y1135724D03*
X957087Y854528D03*
X955906Y861220D03*
X972441Y1028346D03*
X1009449Y1037598D03*
X980906Y1051921D03*
X991535Y1068205D03*
X989764Y1033362D03*
X976575Y1074409D03*
X973622D03*
X970472Y1085134D03*
X960630Y1094291D03*
X980315Y1116236D03*
X968701Y1100000D03*
X1009843Y1090646D03*
X959449Y1141929D03*
X987205Y1140551D03*
X964764Y1154228D03*
G54D40*
X832283Y1136969D03*
X830315D03*
X828346D03*
X832283Y1134646D03*
X830315D03*
X828346D03*
G54D107*
X1001181Y1069370D03*
G54D14*
X800579Y860815D03*
X798217Y863177D03*
X878957Y874217D03*
X880106Y882862D03*
X881492Y871677D03*
X880921Y857110D03*
X890551Y852559D03*
X887886Y843791D03*
X884138Y869024D03*
X911984Y844484D03*
X901713Y870831D03*
X908839Y868886D03*
X903835Y868571D03*
G54D23*
X822441Y1029827D03*
X796457Y1040654D03*
X791339Y1040457D03*
X796457Y1068898D03*
X815945Y1027858D03*
X819291D03*
X796654Y1083764D03*
X807087Y1124315D03*
X810039Y1148031D03*
X858858Y855512D03*
X849016D03*
X880709Y862307D03*
X879035Y911323D03*
X875000Y911417D03*
X877362Y1060535D03*
X871260Y1051874D03*
X872835Y1069591D03*
X893110Y1056890D03*
X868701Y1024315D03*
Y1031102D03*
X883858Y1024315D03*
X868898Y1069591D03*
X883858Y1031102D03*
X894291Y1109748D03*
X862402Y1100000D03*
X869291D03*
X865945D03*
X848031Y1117717D03*
X886614Y1092913D03*
X843504Y1111811D03*
X865354Y1116047D03*
X859055Y1137110D03*
X877559Y1136614D03*
X862402Y1133661D03*
X902165Y813094D03*
Y820575D03*
Y798331D03*
X932677Y863780D03*
Y870772D03*
X914594Y853634D03*
X920965Y910236D03*
X895571Y917913D03*
X947441Y1052559D03*
Y1059748D03*
X926772Y1048031D03*
X947835Y1044094D03*
X925197Y1064370D03*
X899606Y1024315D03*
Y1031102D03*
X925000Y1075787D03*
X917913Y1079630D03*
X941142Y1122937D03*
X940354Y1115654D03*
X921457Y1075693D03*
X952362Y1097543D03*
X949213D03*
X944685Y1123622D03*
X944882Y1113780D03*
X906299Y1118898D03*
X923031Y1118504D03*
X940157Y1091244D03*
X950787Y1081496D03*
X923228Y1130614D03*
X926181Y1130709D03*
X944685Y1132087D03*
X957087Y850890D03*
X955906Y857583D03*
X972441Y1024709D03*
X1009449Y1033961D03*
X980906Y1048283D03*
X991535Y1064567D03*
X989764Y1029724D03*
X976575Y1070772D03*
X973622D03*
X970472Y1081496D03*
X960630Y1090654D03*
X980315Y1112598D03*
X968701Y1096362D03*
X1009843Y1087008D03*
X959449Y1138291D03*
X987205Y1136913D03*
X964764Y1150591D03*
G54D50*
X870906Y841465D03*
X878386D03*
G54D116*
X960571Y1079449D03*
G54D41*
X872933Y780807D03*
X931988D03*
G54D32*
X798169Y1106024D03*
X802165Y1136024D03*
X794173D03*
G54D108*
X1005118Y1063583D03*
X1003150D03*
X1001181D03*
X999213D03*
X997244D03*
Y1075157D03*
X999213D03*
X1001181D03*
X1003150D03*
X1005118D03*
G54D51*
X874850Y891606D03*
X870953Y887709D03*
X877913Y888543D03*
X874016Y884646D03*
G54D117*
X960571Y1086417D03*
G54D33*
X801969Y1122835D03*
X793307D03*
Y1129528D03*
X801969D03*
G54D15*
X799213Y1014173D03*
G54D60*
X864961Y1026378D03*
X880118D03*
X895866D03*
G54D24*
X802362Y1044882D03*
Y1046457D03*
Y1048031D03*
Y1049606D03*
Y1051181D03*
Y1052756D03*
Y1054331D03*
Y1055906D03*
Y1057480D03*
Y1059055D03*
Y1060630D03*
Y1062205D03*
Y1063780D03*
Y1065354D03*
Y1066929D03*
Y1068504D03*
Y1070079D03*
Y1071654D03*
Y1073228D03*
Y1074803D03*
Y1076378D03*
Y1077953D03*
Y1079528D03*
Y1081102D03*
Y1082677D03*
Y1084252D03*
Y1085827D03*
Y1087402D03*
Y1088976D03*
Y1090551D03*
Y1092126D03*
Y1093701D03*
X862992Y1068504D03*
Y1066929D03*
Y1065354D03*
Y1063780D03*
Y1062205D03*
Y1060630D03*
Y1059055D03*
Y1057480D03*
Y1055906D03*
Y1054331D03*
Y1052756D03*
Y1051181D03*
Y1049606D03*
Y1048031D03*
Y1046457D03*
Y1044882D03*
Y1093701D03*
Y1092126D03*
Y1090551D03*
Y1088976D03*
Y1087402D03*
Y1085827D03*
Y1084252D03*
Y1082677D03*
Y1081102D03*
Y1079528D03*
Y1077953D03*
Y1076378D03*
Y1074803D03*
Y1073228D03*
Y1071654D03*
Y1070079D03*
G54D42*
X849016Y851776D03*
Y845866D03*
X858858Y851776D03*
Y845866D03*
G54D118*
X964055Y1080118D03*
Y1082087D03*
Y1084055D03*
Y1086024D03*
X957087Y1080118D03*
Y1082087D03*
Y1084055D03*
Y1086024D03*
G54D70*
X851378Y1133858D03*
G54D52*
X882677Y926378D03*
Y920866D03*
G54D109*
X1000000Y1031417D03*
G54D34*
X810000Y1112205D03*
X812205D03*
X809213Y1116929D03*
X811417D03*
X808819Y1119685D03*
X811024D03*
X818465Y1136024D03*
X820669D03*
G54D25*
X835039Y1038976D03*
X833465D03*
X831890D03*
X830315D03*
X828740D03*
X827165D03*
X825591D03*
X824016D03*
X822441D03*
X820866D03*
X819291D03*
X817717D03*
X816142D03*
X814567D03*
X812992D03*
X811417D03*
X809843D03*
X808268D03*
Y1099606D03*
X809843D03*
X811417D03*
X812992D03*
X814567D03*
X816142D03*
X817717D03*
X819291D03*
X820866D03*
X822441D03*
X824016D03*
X825591D03*
X827165D03*
X828740D03*
X830315D03*
X831890D03*
X833465D03*
X835039D03*
X857087Y1038976D03*
X855512D03*
X853937D03*
X852362D03*
X850787D03*
X849213D03*
X847638D03*
X846063D03*
X844488D03*
X842913D03*
X841339D03*
X839764D03*
X838189D03*
X836614D03*
Y1099606D03*
X838189D03*
X839764D03*
X841339D03*
X842913D03*
X844488D03*
X846063D03*
X847638D03*
X849213D03*
X850787D03*
X852362D03*
X853937D03*
X855512D03*
X857087D03*
G54D16*
X799508Y984827D03*
Y993882D03*
X863272Y1152756D03*
X872327D03*
X1005906Y993815D03*
Y984760D03*
G54D43*
X890449Y846362D03*
X889106Y873961D03*
X889122Y879055D03*
X883697Y879067D03*
X885827Y857283D03*
X914555Y847059D03*
X906299Y861417D03*
X908858Y863976D03*
G54D61*
X860630Y1122047D03*
Y1112205D03*
X852756D03*
Y1122047D03*
G54D119*
X999311Y1123622D03*
X996752D03*
X994193D03*
X991634D03*
Y1140551D03*
X994193D03*
X996752D03*
X999311D03*
G54D44*
X893020Y843791D03*
X891677Y871390D03*
X891693Y876484D03*
X886268Y876496D03*
X888398Y854713D03*
X917126Y844488D03*
X908870Y858846D03*
X911429Y861406D03*
G54D62*
X890551Y1096850D03*
X867126Y1135433D03*
X873425D03*
X896850Y1096850D03*
G54D17*
X804232Y981102D03*
Y997638D03*
G54D35*
X834646Y1105669D03*
Y1107874D03*
X831890Y1105669D03*
Y1107874D03*
X829134Y1105669D03*
Y1107874D03*
X826378Y1105669D03*
Y1107874D03*
X823622Y1105669D03*
Y1107874D03*
X820866Y1105669D03*
Y1107874D03*
X818110Y1105669D03*
Y1107874D03*
X811811Y1107441D03*
Y1109646D03*
X839370Y1112756D03*
Y1114961D03*
X838583Y1130472D03*
Y1132677D03*
G54D71*
X855512Y1130906D03*
Y1132874D03*
Y1134843D03*
Y1136811D03*
X847244Y1130906D03*
Y1132874D03*
Y1134843D03*
Y1136811D03*
G54D53*
X888878Y930118D03*
X895177D03*
G54D26*
X835039Y1027559D03*
Y1030118D03*
Y1032677D03*
X843701D03*
Y1027559D03*
G54D80*
X952638Y998819D03*
X947638D03*
X952638Y980709D03*
X947638D03*
X947555Y1015484D03*
X952555D03*
X947555Y1033594D03*
X952555D03*
X967638Y998819D03*
X962638D03*
X957638D03*
X967638Y980709D03*
X962638D03*
X957638D03*
X957555Y1015484D03*
X962555D03*
X967555D03*
X957555Y1033594D03*
X962555D03*
X967555D03*
G54D18*
X797146Y976083D03*
Y1002657D03*
G54D54*
X890945Y924213D03*
Y917913D03*
X873031Y1118110D03*
Y1111811D03*
X926181Y972244D03*
Y965945D03*
X931890Y972244D03*
Y965945D03*
X937598Y972244D03*
Y965945D03*
X943307Y972244D03*
Y965945D03*
X926969Y1124606D03*
Y1118307D03*
G54D81*
X942323Y988780D03*
X942126Y1021654D03*
Y1023622D03*
Y1025591D03*
G54D36*
X816732Y1152165D03*
X847835D03*
G54D63*
X890354Y1110827D03*
Y1113386D03*
Y1115945D03*
Y1118504D03*
X878543Y1110827D03*
Y1113386D03*
Y1115945D03*
Y1118504D03*
G54D27*
X792913Y1057480D03*
X796457D03*
X840157Y1136811D03*
X843701D03*
X944094Y1068307D03*
X947638D03*
X919685Y1047835D03*
X923228D03*
X988976Y1082480D03*
X992520D03*
X980709Y1106102D03*
X984252D03*
X988976Y1086220D03*
X992520D03*
X988976Y1089764D03*
X992520D03*
X988976Y1078740D03*
X992520D03*
X965354Y1090748D03*
X968898D03*
G54D90*
X915157Y1023425D03*
Y1035236D03*
X993307Y1094685D03*
Y1106496D03*
G54D45*
X889862Y887598D03*
Y889567D03*
Y891535D03*
Y893504D03*
Y895472D03*
Y897441D03*
Y899409D03*
Y901378D03*
Y903346D03*
Y905315D03*
Y907283D03*
Y909252D03*
X917028Y893504D03*
Y891535D03*
Y889567D03*
Y887598D03*
Y909252D03*
Y907283D03*
Y905315D03*
Y903346D03*
Y901378D03*
Y899409D03*
Y897441D03*
Y895472D03*
G54D72*
X946850Y829331D03*
Y807283D03*
X968898Y829331D03*
Y807283D03*
G54D73*
X904724Y834941D03*
X902165D03*
X899606D03*
X904724Y829724D03*
X902165D03*
X899606D03*
G54D37*
X835976Y1152165D03*
X828591D03*
G54D55*
X881693Y1055945D03*
X889173D03*
X881693Y1064961D03*
X885433D03*
X889173D03*
G54D28*
X829646Y1023622D03*
X827441D03*
X829646Y1020472D03*
X827441D03*
X804567Y1103937D03*
X802362D03*
X804567Y1100984D03*
X802362D03*
X825630Y1137205D03*
X823425D03*
X811929Y1133071D03*
X809724D03*
X841378Y1127953D03*
X839173D03*
X842362Y1122441D03*
X840157D03*
X840787Y1109843D03*
X838583D03*
G54D91*
X908268Y1072047D03*
X901969D03*
X908268Y1096850D03*
X901969D03*
G54D64*
X884449Y1114665D03*
X908071Y1084547D03*
G54D46*
X892618Y884843D03*
Y912008D03*
X914272Y884843D03*
X912303D03*
X910335D03*
X908366D03*
X906398D03*
X904429D03*
X902461D03*
X900492D03*
X898524D03*
X896555D03*
X894587D03*
Y912008D03*
X896555D03*
X898524D03*
X900492D03*
X902461D03*
X904429D03*
X906398D03*
X908366D03*
X910335D03*
X912303D03*
X914272D03*
G54D82*
X936417Y988780D03*
X936220Y1021654D03*
Y1023622D03*
Y1025591D03*
G54D19*
X809843Y981102D03*
X825787Y1029921D03*
X792819Y1061024D03*
Y1064567D03*
X825591Y1033661D03*
X797000Y1117961D03*
X880220Y893504D03*
Y896850D03*
X857283Y1020472D03*
X848425Y1033071D03*
X885339Y1069882D03*
X891047Y1106299D03*
X871559Y1089567D03*
X871654Y1085827D03*
Y1082283D03*
X871559Y1078937D03*
X855906Y1107480D03*
X871559Y1092717D03*
X891142Y1103150D03*
X840457Y1125197D03*
X854134Y1126969D03*
X847150Y1104528D03*
X854331D03*
X863142Y1142717D03*
X902165Y805709D03*
Y824213D03*
X898528Y809646D03*
X922000Y887402D03*
X910866Y850591D03*
X914764Y860433D03*
X921260Y905413D03*
X934748Y1060236D03*
X923819Y1019488D03*
X944094Y1071850D03*
X914276Y1076181D03*
X902559D03*
X914370Y1073031D03*
X927559Y1099409D03*
X902165Y1092717D03*
X915157Y1134252D03*
X919197Y1155906D03*
X958567Y863583D03*
X956992Y847441D03*
X1007480Y968898D03*
X953937Y1009055D03*
X984055Y1048425D03*
Y1051969D03*
X981102Y1045079D03*
X981008Y1055118D03*
X981205Y1128740D03*
Y1122638D03*
X972150Y1102953D03*
X981299Y1119685D03*
X981205Y1131693D03*
X990551Y1145866D03*
X970969Y1138189D03*
G54D38*
X822591Y1143110D03*
X841976D03*
G54D29*
X835039Y1128150D03*
Y1126181D03*
Y1124213D03*
Y1122244D03*
Y1120276D03*
Y1118307D03*
Y1116339D03*
Y1114370D03*
X815748D03*
Y1116339D03*
Y1118307D03*
Y1120276D03*
Y1122244D03*
Y1124213D03*
Y1126181D03*
Y1128150D03*
G54D92*
X950000Y1113780D03*
Y1115748D03*
Y1117717D03*
Y1119685D03*
Y1121654D03*
Y1123622D03*
Y1125591D03*
Y1127559D03*
X975197D03*
Y1125591D03*
Y1123622D03*
Y1121654D03*
Y1119685D03*
Y1117717D03*
Y1115748D03*
Y1113780D03*
G54D83*
X941339Y991732D03*
X939370D03*
X937402D03*
X939173Y1026575D03*
G54D47*
X903445Y898425D03*
G54D74*
X938189Y874209D03*
Y864370D03*
G54D65*
X893898Y1132480D03*
Y1156890D03*
G54D56*
X892520Y1069882D03*
X882480Y1105906D03*
X878937D03*
X882480Y1123228D03*
X878937D03*
X896063Y1069882D03*
X952165Y1090748D03*
X962402Y1069882D03*
X958858D03*
X976181Y1037992D03*
X972638D03*
X962402Y1101772D03*
X958858D03*
X962402Y1073819D03*
X958858D03*
X955709Y1090748D03*
G54D48*
X874646Y838315D03*
X930094Y838472D03*
G54D84*
X941339Y985827D03*
X939370D03*
X937402D03*
X939173Y1020669D03*
G54D93*
X913976Y1080709D03*
Y1083268D03*
Y1085827D03*
Y1088386D03*
X902165Y1080709D03*
Y1083268D03*
Y1085827D03*
Y1088386D03*
G54D39*
X834843Y1141732D03*
X832283D03*
X829724D03*
X827165D03*
X837402D03*
G54D75*
X951181Y854921D03*
Y861220D03*
G54D66*
X881496Y1129331D03*
X867717D03*
G54D57*
X877362Y1053543D03*
Y1057087D03*
X943701Y1091339D03*
Y1094882D03*
X917520Y1111220D03*
Y1114764D03*
X920669Y1091535D03*
Y1095079D03*
X947047Y1081496D03*
Y1085039D03*
X958661Y1062598D03*
Y1066142D03*
X966535Y1062598D03*
Y1066142D03*
X955118Y1070276D03*
X966142D03*
X962598Y1062598D03*
Y1066142D03*
X974213Y1081496D03*
Y1085039D03*
X955118Y1073819D03*
X966142D03*
X956693Y1094488D03*
Y1098031D03*
X964567Y1094488D03*
Y1098031D03*
X1010039Y1079921D03*
Y1083465D03*
X1005315Y1119882D03*
Y1123425D03*
G54D76*
X933835Y841622D03*
X926354D03*
G54D94*
X935197Y1087598D03*
Y1095079D03*
X926181Y1087598D03*
Y1091339D03*
Y1095079D03*
G54D49*
X874646Y844614D03*
X930094Y844772D03*
G54D58*
X893937Y1023917D03*
X892362D03*
X890787D03*
Y1033563D03*
X892362D03*
X893937D03*
X864606Y1023917D03*
X863031D03*
X861457D03*
X859882D03*
Y1033563D03*
X861457D03*
X863031D03*
X864606D03*
X879764Y1023917D03*
X878189D03*
X876614D03*
X875039D03*
Y1033563D03*
X876614D03*
X878189D03*
X879764D03*
X895512Y1023917D03*
Y1033563D03*
G54D67*
X859547Y1148031D03*
X876083D03*
G54D85*
X930512Y1048228D03*
X936024D03*
G54D59*
X889941Y1026378D03*
Y1027953D03*
Y1029528D03*
Y1031102D03*
X859035Y1026378D03*
Y1027953D03*
Y1029528D03*
Y1031102D03*
X865453D03*
Y1029528D03*
Y1027953D03*
X874193Y1026378D03*
Y1027953D03*
Y1029528D03*
Y1031102D03*
X880610D03*
Y1029528D03*
Y1027953D03*
X896358Y1031102D03*
Y1029528D03*
Y1027953D03*
G54D68*
X854528Y1155118D03*
X881102D03*
G54D95*
X932087Y1077953D03*
X939173D03*
G54D86*
X953228Y1042618D03*
Y1047618D03*
Y1052618D03*
Y1057618D03*
X974488D03*
Y1052618D03*
Y1047618D03*
Y1042618D03*
G54D77*
X899157Y873283D03*
X896654Y875787D03*
X901913Y875843D03*
X899409Y878346D03*
X913724Y864031D03*
X911220Y866535D03*
G54D78*
X906244Y866480D03*
X903740Y863976D03*
G54D87*
X930157Y1064370D03*
X939173Y1068110D03*
Y1064370D03*
X930157Y1071850D03*
X939173D03*
G54D96*
X942520Y1102067D03*
Y1109154D03*
X1005512Y1130315D03*
Y1137402D03*
G54D69*
X881890Y1135827D03*
Y1142126D03*
X940945Y1041732D03*
Y1048031D03*
G54D79*
X901083Y926378D03*
Y919291D03*
X913386Y1055709D03*
Y1048622D03*
X935236Y1127756D03*
Y1117913D03*
Y1110827D03*
X928543Y1155315D03*
Y1148228D03*
X935236Y1134843D03*
G54D88*
X896457Y1060827D03*
Y1057283D03*
X902362Y1122638D03*
Y1119094D03*
X1001575Y1105512D03*
Y1101969D03*
Y1097835D03*
Y1094291D03*
X955709Y1143110D03*
Y1139567D03*
G54D97*
X918701Y1118701D03*
X916142D03*
X913583D03*
X911024D03*
X918701Y1130512D03*
X916142D03*
X913583D03*
X911024D03*
G54D98*
X914862Y1124606D03*
G54D89*
X911220Y1066339D03*
X902559D03*
G54D99*
X948189Y1156890D03*
X938189D03*
X948189Y1148228D03*
X938189D03*
M02*
