G04 ================== begin FILE IDENTIFICATION RECORD ==================*
G04 Layout Name:  LAUNCHXL-CC1352R1.brd*
G04 Film Name:    LAUNCHXL-CC1352R1_paste_top*
G04 File Format:  Gerber RS274X*
G04 File Origin:  Cadence Allegro 17.2-S041*
G04 Origin Date:  Thu Oct 25 19:57:46 2018*
G04 *
G04 Layer:  DRAWING FORMAT/TITLE_BLOCK*
G04 Layer:  BOARD GEOMETRY/TOP PASTE*
G04 Layer:  PIN/FILMMASKTOP*
G04 Layer:  BOARD GEOMETRY/OUTLINE*
G04 *
G04 Offset:    (0.000 0.000)*
G04 Mirror:    No*
G04 Mode:      Positive*
G04 Rotation:  0*
G04 FullContactRelief:  No*
G04 UndefLineWidth:     0.099*
G04 ================== end FILE IDENTIFICATION RECORD ====================*
%FSLAX25Y25*MOIN*%
%IR0*IPPOS*OFA0.00000B0.00000*MIA0B0*SFA1.00000B1.00000*%
%AMMACRO68*
4,1,41,-.019685,0.0,
-.019685,-.010079,
-.019556,-.011574,
-.019169,-.013025,
-.018536,-.014386,
-.017677,-.015617,
-.016616,-.01668,
-.015387,-.017542,
-.014028,-.018178,
-.012578,-.018568,
-.011102,-.018701,
.011102,-.018701,
.012597,-.018565,
.014046,-.018171,
.015404,-.017532,
.016631,-.016667,
.017689,-.015602,
.018546,-.014369,
.019176,-.013006,
.019559,-.011555,
.019685,-.010079,
.019685,.010079,
.019556,.011574,
.019169,.013025,
.018536,.014386,
.017677,.015617,
.016616,.01668,
.015387,.017542,
.014028,.018178,
.012578,.018568,
.011102,.018701,
-.011102,.018701,
-.012597,.018565,
-.014046,.018171,
-.015404,.017532,
-.016631,.016667,
-.017689,.015602,
-.018546,.014369,
-.019176,.013006,
-.019559,.011555,
-.019685,.010079,
-.019685,0.0,
0.0*
%
%ADD68MACRO68*%
%AMMACRO55*
4,1,41,0.0,.019685,
-.010079,.019685,
-.011574,.019556,
-.013025,.019169,
-.014386,.018536,
-.015617,.017677,
-.01668,.016616,
-.017542,.015387,
-.018178,.014028,
-.018568,.012578,
-.018701,.011102,
-.018701,-.011102,
-.018565,-.012597,
-.018171,-.014046,
-.017532,-.015404,
-.016667,-.016631,
-.015602,-.017689,
-.014369,-.018546,
-.013006,-.019176,
-.011555,-.019559,
-.010079,-.019685,
.010079,-.019685,
.011574,-.019556,
.013025,-.019169,
.014386,-.018536,
.015617,-.017677,
.01668,-.016616,
.017542,-.015387,
.018178,-.014028,
.018568,-.012578,
.018701,-.011102,
.018701,.011102,
.018565,.012597,
.018171,.014046,
.017532,.015404,
.016667,.016631,
.015602,.017689,
.014369,.018546,
.013006,.019176,
.011555,.019559,
.010079,.019685,
0.0,.019685,
0.0*
%
%ADD55MACRO55*%
%AMMACRO82*
4,1,41,0.0,-.01378,
.006654,-.01378,
.007551,-.013699,
.00842,-.013465,
.009236,-.013082,
.009973,-.012564,
.010608,-.011926,
.011124,-.011187,
.011503,-.01037,
.011734,-.0095,
.011811,-.008622,
.011811,.008622,
.011731,.009519,
.011496,.010389,
.011114,.011204,
.010596,.011941,
.009958,.012577,
.009219,.013092,
.008402,.013471,
.007531,.013703,
.006654,.01378,
-.006654,.01378,
-.007551,.013699,
-.00842,.013465,
-.009236,.013082,
-.009973,.012564,
-.010608,.011926,
-.011124,.011187,
-.011503,.01037,
-.011734,.0095,
-.011811,.008622,
-.011811,-.008622,
-.011731,-.009519,
-.011496,-.010389,
-.011114,-.011204,
-.010596,-.011941,
-.009958,-.012577,
-.009219,-.013092,
-.008402,-.013471,
-.007531,-.013703,
-.006654,-.01378,
0.0,-.01378,
0.0*
%
%ADD82MACRO82*%
%AMMACRO90*
4,1,45,0.0,-.014764,
.003465,-.014764,
.003892,-.014723,
.004305,-.014609,
.004692,-.014424,
.005042,-.014175,
.005342,-.01387,
.005586,-.013516,
.005764,-.013126,
.005872,-.012711,
.005906,-.012284,
.005906,-.012283,
.005906,.012283,
.005872,.012711,
.005764,.013126,
.005586,.013516,
.005343,.01387,
.005042,.014175,
.004692,.014424,
.004305,.014609,
.003892,.014723,
.003465,.014764,
.003465,.014764,
-.003465,.014764,
-.003892,.014723,
-.004305,.014609,
-.004692,.014424,
-.005042,.014175,
-.005342,.01387,
-.005586,.013516,
-.005764,.013126,
-.005872,.012711,
-.005906,.012284,
-.005906,.012283,
-.005906,-.012283,
-.005872,-.012711,
-.005764,-.013126,
-.005586,-.013516,
-.005343,-.01387,
-.005042,-.014175,
-.004692,-.014424,
-.004305,-.014609,
-.003892,-.014723,
-.003465,-.014764,
-.003465,-.014764,
0.0,-.014764,
0.0*
%
%ADD90MACRO90*%
%AMMACRO77*
4,1,22,-.005906,.015748,
-.005906,-.012795,
-.005861,-.013308,
-.005727,-.013805,
-.00551,-.014272,
-.005215,-.014693,
-.004851,-.015057,
-.004429,-.015352,
-.003963,-.01557,
-.003465,-.015703,
-.002953,-.015748,
.002953,-.015748,
.003465,-.015703,
.003963,-.01557,
.004429,-.015352,
.004851,-.015057,
.005215,-.014693,
.00551,-.014272,
.005727,-.013805,
.005861,-.013308,
.005906,-.012795,
.005906,.015748,
-.005906,.015748,
0.0*
%
%ADD77MACRO77*%
%AMMACRO74*
4,1,22,-.015748,-.005906,
.012795,-.005906,
.013308,-.005861,
.013805,-.005727,
.014272,-.00551,
.014693,-.005215,
.015057,-.004851,
.015352,-.004429,
.01557,-.003963,
.015703,-.003465,
.015748,-.002953,
.015748,.002953,
.015703,.003465,
.01557,.003963,
.015352,.004429,
.015057,.004851,
.014693,.005215,
.014272,.00551,
.013805,.005727,
.013308,.005861,
.012795,.005906,
-.015748,.005906,
-.015748,-.005906,
0.0*
%
%ADD74MACRO74*%
%AMMACRO58*
4,1,45,.050197,0.0,
.050197,.023858,
.049858,.027747,
.04885,.031517,
.047202,.035055,
.044965,.038254,
.042206,.041015,
.03901,.043255,
.035473,.044906,
.031703,.045918,
.027815,.04626,
.027795,.04626,
-.027795,.04626,
-.031684,.045921,
-.035454,.044913,
-.038992,.043265,
-.042191,.041027,
-.044952,.038269,
-.047192,.035073,
-.048843,.031536,
-.049855,.027766,
-.050197,.023878,
-.050197,.023858,
-.050197,-.023858,
-.049858,-.027747,
-.04885,-.031517,
-.047202,-.035055,
-.044965,-.038254,
-.042206,-.041015,
-.03901,-.043255,
-.035473,-.044906,
-.031703,-.045918,
-.027815,-.04626,
-.027795,-.04626,
.027795,-.04626,
.031684,-.045921,
.035454,-.044913,
.038992,-.043265,
.042191,-.041027,
.044952,-.038269,
.047192,-.035073,
.048843,-.031536,
.049855,-.027766,
.050197,-.023878,
.050197,-.023858,
.050197,0.0,
0.0*
%
%ADD58MACRO58*%
%ADD20O,.059094X.007913*%
%ADD21O,.007913X.059094*%
%AMMACRO45*
4,1,44,.017717,.007402,
.017717,-.007402,
.017605,-.008686,
.017273,-.009931,
.016729,-.0111,
.015991,-.012157,
.01508,-.013069,
.014025,-.013809,
.012857,-.014355,
.011612,-.01469,
.010328,-.014803,
.010315,-.014803,
-.010315,-.014803,
-.011599,-.014692,
-.012845,-.014359,
-.014013,-.013816,
-.01507,-.013077,
-.015982,-.012167,
-.016723,-.011111,
-.017268,-.009944,
-.017603,-.008699,
-.017717,-.007415,
-.017717,-.007402,
-.017717,.007402,
-.017605,.008686,
-.017273,.009931,
-.016729,.0111,
-.015991,.012157,
-.01508,.013069,
-.014025,.013809,
-.012857,.014355,
-.011612,.01469,
-.010328,.014803,
-.010315,.014803,
.010315,.014803,
.011599,.014692,
.012845,.014359,
.014013,.013816,
.01507,.013077,
.015982,.012167,
.016723,.011111,
.017268,.009944,
.017603,.008699,
.017717,.007415,
.017717,.007402,
0.0*
%
%ADD45MACRO45*%
%ADD95R,.066929X.011811*%
%AMMACRO35*
4,1,45,.014803,0.0,
.014803,.00811,
.014706,.009269,
.014408,.010393,
.01392,.011449,
.013257,.012403,
.012437,.013228,
.011487,.013898,
.010434,.014393,
.009312,.014698,
.008154,.014803,
.00811,.014803,
-.00811,.014803,
-.009269,.014706,
-.010393,.014408,
-.011449,.01392,
-.012403,.013257,
-.013228,.012437,
-.013898,.011487,
-.014393,.010434,
-.014698,.009312,
-.014803,.008154,
-.014803,.00811,
-.014803,-.00811,
-.014706,-.009269,
-.014408,-.010393,
-.01392,-.011449,
-.013257,-.012403,
-.012437,-.013228,
-.011487,-.013898,
-.010434,-.014393,
-.009312,-.014698,
-.008154,-.014803,
-.00811,-.014803,
.00811,-.014803,
.009269,-.014706,
.010393,-.014408,
.011449,-.01392,
.012403,-.013257,
.013228,-.012437,
.013898,-.011487,
.014393,-.010434,
.014698,-.009312,
.014803,-.008154,
.014803,-.00811,
.014803,0.0,
0.0*
%
%ADD35MACRO35*%
%AMMACRO100*
4,1,20,.047244,-.03248,
-.047244,-.03248,
-.047244,-.01378,
-.074803,-.01378,
-.074803,-.005906,
-.047244,-.005906,
-.047244,.005906,
-.074803,.005906,
-.074803,.01378,
-.047244,.01378,
-.047244,.03248,
.047244,.03248,
.047244,.01378,
.074803,.01378,
.074803,.005906,
.047244,.005906,
.047244,-.005906,
.074803,-.005906,
.074803,-.01378,
.047244,-.01378,
.047244,-.03248,
0.0*
%
%ADD100MACRO100*%
%ADD79O,.061024X.023622*%
%ADD73O,.021693X.080709*%
%AMMACRO64*
4,1,41,-.01378,0.0,
-.01378,-.002953,
-.013735,-.003465,
-.013601,-.003963,
-.013384,-.004429,
-.013089,-.004851,
-.012725,-.005215,
-.012303,-.00551,
-.011837,-.005727,
-.01134,-.005861,
-.010827,-.005906,
.010827,-.005906,
.01134,-.005861,
.011837,-.005727,
.012303,-.00551,
.012725,-.005215,
.013089,-.004851,
.013384,-.004429,
.013601,-.003963,
.013735,-.003465,
.01378,-.002953,
.01378,.002953,
.013735,.003465,
.013601,.003963,
.013384,.004429,
.013089,.004851,
.012725,.005215,
.012303,.00551,
.011837,.005727,
.01134,.005861,
.010827,.005906,
-.010827,.005906,
-.01134,.005861,
-.011837,.005727,
-.012303,.00551,
-.012725,.005215,
-.013089,.004851,
-.013384,.004429,
-.013601,.003963,
-.013735,.003465,
-.01378,.002953,
-.01378,0.0,
0.0*
%
%ADD64MACRO64*%
%AMMACRO83*
4,1,42,-.05315,0.0,
-.05315,-.011339,
-.052974,-.013304,
-.05246,-.015209,
-.051623,-.016995,
-.050489,-.01861,
-.049091,-.020002,
-.047473,-.021131,
-.045684,-.021962,
-.043777,-.022469,
-.041811,-.022638,
.041811,-.022638,
.043777,-.022469,
.045684,-.021962,
.047473,-.021131,
.049091,-.020002,
.050489,-.01861,
.051623,-.016995,
.05246,-.015209,
.052974,-.013304,
.05315,-.011339,
.05315,.011339,
.052974,.013304,
.05246,.015209,
.051623,.016995,
.050489,.01861,
.049091,.020002,
.047473,.021131,
.045684,.021962,
.043777,.022469,
.041811,.022638,
-.041811,.022638,
-.043777,.022469,
-.045684,.021962,
-.047473,.021131,
-.049091,.020002,
-.050489,.01861,
-.051623,.016995,
-.05246,.015209,
-.052974,.013304,
-.05315,.011339,
-.05315,.011339,
-.05315,0.0,
0.0*
%
%ADD83MACRO83*%
%ADD94C,.070866*%
%ADD63R,.035433X.066929*%
%AMMACRO30*
4,1,45,-.007874,0.0,
-.007874,-.003465,
-.007818,-.004062,
-.00766,-.004642,
-.007403,-.005184,
-.007055,-.005674,
-.006628,-.006096,
-.006135,-.006438,
-.005589,-.006689,
-.005008,-.006841,
-.004409,-.00689,
-.004409,-.00689,
.004409,-.00689,
.005008,-.006841,
.005589,-.006689,
.006135,-.006438,
.006628,-.006096,
.007055,-.005674,
.007403,-.005184,
.00766,-.004642,
.007818,-.004062,
.007874,-.003465,
.007874,-.003465,
.007874,.003465,
.007818,.004062,
.00766,.004642,
.007403,.005184,
.007055,.005674,
.006628,.006096,
.006135,.006438,
.005589,.006689,
.005008,.006841,
.004409,.00689,
.004409,.00689,
-.004409,.00689,
-.005008,.006841,
-.005589,.006689,
-.006135,.006438,
-.006628,.006096,
-.007055,.005674,
-.007403,.005184,
-.00766,.004642,
-.007818,.004062,
-.007874,.003465,
-.007874,.003465,
-.007874,0.0,
0.0*
%
%ADD30MACRO30*%
%AMMACRO29*
4,1,45,0.0,.007874,
-.003465,.007874,
-.004062,.007818,
-.004642,.00766,
-.005184,.007403,
-.005674,.007055,
-.006096,.006628,
-.006438,.006135,
-.006689,.005589,
-.006841,.005008,
-.00689,.004409,
-.00689,.004409,
-.00689,-.004409,
-.006841,-.005008,
-.006689,-.005589,
-.006438,-.006135,
-.006096,-.006628,
-.005674,-.007055,
-.005184,-.007403,
-.004642,-.00766,
-.004062,-.007818,
-.003465,-.007874,
-.003465,-.007874,
.003465,-.007874,
.004062,-.007818,
.004642,-.00766,
.005184,-.007403,
.005674,-.007055,
.006096,-.006628,
.006438,-.006135,
.006689,-.005589,
.006841,-.005008,
.00689,-.004409,
.00689,-.004409,
.00689,.004409,
.006841,.005008,
.006689,.005589,
.006438,.006135,
.006096,.006628,
.005674,.007055,
.005184,.007403,
.004642,.00766,
.004062,.007818,
.003465,.007874,
.003465,.007874,
0.0,.007874,
0.0*
%
%ADD29MACRO29*%
%ADD10C,.05*%
%AMMACRO47*
4,1,42,.019685,0.0,
.019685,.00937,
.01954,.010993,
.019114,.012567,
.018422,.014043,
.017485,.015376,
.01633,.016526,
.014993,.017458,
.013514,.018144,
.011939,.018562,
.010315,.018701,
.010315,.018701,
-.010315,.018701,
-.011939,.018562,
-.013514,.018144,
-.014993,.017458,
-.01633,.016526,
-.017485,.015376,
-.018422,.014043,
-.019114,.012567,
-.01954,.010993,
-.019685,.00937,
-.019685,-.00937,
-.01954,-.010993,
-.019114,-.012567,
-.018422,-.014043,
-.017485,-.015376,
-.01633,-.016526,
-.014993,-.017458,
-.013514,-.018144,
-.011939,-.018562,
-.010315,-.018701,
.010315,-.018701,
.011939,-.018562,
.013514,-.018144,
.014993,-.017458,
.01633,-.016526,
.017485,-.015376,
.018422,-.014043,
.019114,-.012567,
.01954,-.010993,
.019685,-.00937,
.019685,0.0,
0.0*
%
%ADD47MACRO47*%
%AMMACRO41*
4,1,14,.033465,.011811,
.033465,-.011811,
-.033465,-.011811,
-.033465,.011811,
-.019291,.011811,
-.01558,.00876,
-.011395,.0064,
-.006864,.004803,
-.002125,.004016,
.002679,.004065,
.007402,.004947,
.0119,.006635,
.016036,.009079,
.019291,.011811,
.033465,.011811,
0.0*
%
%ADD41MACRO41*%
%AMMACRO84*
4,1,41,0.0,-.019685,
.00937,-.019685,
.010993,-.01954,
.012567,-.019114,
.014043,-.018422,
.015376,-.017485,
.016526,-.01633,
.017458,-.014993,
.018144,-.013514,
.018562,-.011939,
.018701,-.010315,
.018701,.010315,
.018562,.011939,
.018144,.013514,
.017458,.014993,
.016526,.01633,
.015376,.017485,
.014043,.018422,
.012567,.019114,
.010993,.01954,
.00937,.019685,
-.00937,.019685,
-.010993,.01954,
-.012567,.019114,
-.014043,.018422,
-.015376,.017485,
-.016526,.01633,
-.017458,.014993,
-.018144,.013514,
-.018562,.011939,
-.018701,.010315,
-.018701,-.010315,
-.018562,-.011939,
-.018144,-.013514,
-.017458,-.014993,
-.016526,-.01633,
-.015376,-.017485,
-.014043,-.018422,
-.012567,-.019114,
-.010993,-.01954,
-.00937,-.019685,
0.0,-.019685,
0.0*
%
%ADD84MACRO84*%
%AMMACRO44*
4,1,41,.01252,.01252,
.006969,.01811,
.005905,.01898,
.004716,.019666,
.003426,.020134,
.002074,.020372,
.000701,.020371,
-.00065,.020132,
-.00194,.019662,
-.003128,.018975,
-.004173,.01811,
-.01811,.004173,
-.018985,.003114,
-.019669,.001925,
-.020136,.000634,
-.020373,-.000718,
-.02037,-.002091,
-.02013,-.003442,
-.019659,-.004731,
-.01897,-.005918,
-.01811,-.006969,
-.006969,-.01811,
-.005905,-.01898,
-.004716,-.019666,
-.003426,-.020134,
-.002074,-.020372,
-.000701,-.020371,
.00065,-.020132,
.00194,-.019662,
.003128,-.018975,
.004173,-.01811,
.01811,-.004173,
.018985,-.003114,
.019669,-.001925,
.020136,-.000634,
.020373,.000718,
.02037,.002091,
.02013,.003442,
.019659,.004731,
.01897,.005918,
.01811,.006969,
.01252,.01252,
0.0*
%
%ADD44MACRO44*%
%AMMACRO99*
4,1,45,0.0,.027559,
-.008346,.027559,
-.010312,.027391,
-.012219,.026883,
-.014009,.026052,
-.015627,.024924,
-.017024,.023531,
-.018159,.021917,
-.018996,.02013,
-.01951,.018225,
-.019685,.01626,
-.019685,.01622,
-.019685,-.01622,
-.019516,-.018186,
-.019009,-.020093,
-.018178,-.021883,
-.01705,-.023501,
-.015657,-.024898,
-.014043,-.026033,
-.012256,-.02687,
-.010351,-.027384,
-.008386,-.027559,
-.008346,-.027559,
.008346,-.027559,
.010312,-.027391,
.012219,-.026883,
.014009,-.026052,
.015627,-.024924,
.017024,-.023531,
.018159,-.021917,
.018996,-.02013,
.01951,-.018225,
.019685,-.01626,
.019685,-.01622,
.019685,.01622,
.019516,.018186,
.019009,.020093,
.018178,.021883,
.01705,.023501,
.015657,.024898,
.014043,.026033,
.012256,.02687,
.010351,.027384,
.008386,.027559,
.008346,.027559,
0.0,.027559,
0.0*
%
%ADD99MACRO99*%
%AMMACRO61*
4,1,45,-.027559,0.0,
-.027559,-.008346,
-.027391,-.010312,
-.026883,-.012219,
-.026052,-.014009,
-.024924,-.015627,
-.023531,-.017024,
-.021917,-.018159,
-.02013,-.018996,
-.018225,-.01951,
-.01626,-.019685,
-.01622,-.019685,
.01622,-.019685,
.018186,-.019516,
.020093,-.019009,
.021883,-.018178,
.023501,-.01705,
.024898,-.015657,
.026033,-.014043,
.02687,-.012256,
.027384,-.010351,
.027559,-.008386,
.027559,-.008346,
.027559,.008346,
.027391,.010312,
.026883,.012219,
.026052,.014009,
.024924,.015627,
.023531,.017024,
.021917,.018159,
.02013,.018996,
.018225,.01951,
.01626,.019685,
.01622,.019685,
-.01622,.019685,
-.018186,.019516,
-.020093,.019009,
-.021883,.018178,
-.023501,.01705,
-.024898,.015657,
-.026033,.014043,
-.02687,.012256,
-.027384,.010351,
-.027559,.008386,
-.027559,.008346,
-.027559,0.0,
0.0*
%
%ADD61MACRO61*%
%ADD27R,.127953X.127953*%
%AMMACRO109*
4,1,41,0.0,-.019685,
.002953,-.019685,
.003465,-.01964,
.003963,-.019507,
.004429,-.019289,
.004851,-.018994,
.005215,-.01863,
.00551,-.018209,
.005727,-.017742,
.005861,-.017245,
.005906,-.016732,
.005906,.016732,
.005861,.017245,
.005727,.017742,
.00551,.018209,
.005215,.01863,
.004851,.018994,
.004429,.019289,
.003963,.019507,
.003465,.01964,
.002953,.019685,
-.002953,.019685,
-.003465,.01964,
-.003963,.019507,
-.004429,.019289,
-.004851,.018994,
-.005215,.01863,
-.00551,.018209,
-.005727,.017742,
-.005861,.017245,
-.005906,.016732,
-.005906,-.016732,
-.005861,-.017245,
-.005727,-.017742,
-.00551,-.018209,
-.005215,-.01863,
-.004851,-.018994,
-.004429,-.019289,
-.003963,-.019507,
-.003465,-.01964,
-.002953,-.019685,
0.0,-.019685,
0.0*
%
%ADD109MACRO109*%
%ADD40R,.206693X.206693*%
%AMMACRO43*
4,1,45,-.009843,0.0,
-.009843,-.002441,
-.009764,-.003381,
-.009523,-.004294,
-.009127,-.00515,
-.008589,-.005925,
-.007924,-.006595,
-.007153,-.007139,
-.006299,-.007541,
-.005389,-.007788,
-.004449,-.007874,
-.004409,-.007874,
.004409,-.007874,
.00535,-.007795,
.006262,-.007554,
.007119,-.007159,
.007894,-.00662,
.008563,-.005955,
.009107,-.005184,
.009509,-.004331,
.009757,-.00342,
.009843,-.00248,
.009843,-.002441,
.009843,.002441,
.009764,.003381,
.009523,.004294,
.009127,.00515,
.008589,.005925,
.007924,.006595,
.007153,.007139,
.006299,.007541,
.005389,.007788,
.004449,.007874,
.004409,.007874,
-.004409,.007874,
-.00535,.007795,
-.006262,.007554,
-.007119,.007159,
-.007894,.00662,
-.008563,.005955,
-.009107,.005184,
-.009509,.004331,
-.009757,.00342,
-.009843,.00248,
-.009843,.002441,
-.009843,0.0,
0.0*
%
%ADD43MACRO43*%
%AMMACRO108*
4,1,41,0.0,.015748,
-.001969,.015748,
-.00231,.015718,
-.002642,.015629,
-.002953,.015484,
-.003234,.015287,
-.003476,.015045,
-.003673,.014764,
-.003818,.014453,
-.003907,.014121,
-.003937,.01378,
-.003937,-.01378,
-.003907,-.014121,
-.003818,-.014453,
-.003673,-.014764,
-.003476,-.015045,
-.003234,-.015287,
-.002953,-.015484,
-.002642,-.015629,
-.00231,-.015718,
-.001969,-.015748,
.001969,-.015748,
.00231,-.015718,
.002642,-.015629,
.002953,-.015484,
.003234,-.015287,
.003476,-.015045,
.003673,-.014764,
.003818,-.014453,
.003907,-.014121,
.003937,-.01378,
.003937,.01378,
.003907,.014121,
.003818,.014453,
.003673,.014764,
.003476,.015045,
.003234,.015287,
.002953,.015484,
.002642,.015629,
.00231,.015718,
.001969,.015748,
0.0,.015748,
0.0*
%
%ADD108MACRO108*%
%AMMACRO107*
4,1,41,-.015748,0.0,
-.015748,-.001969,
-.015718,-.00231,
-.015629,-.002642,
-.015484,-.002953,
-.015287,-.003234,
-.015045,-.003476,
-.014764,-.003673,
-.014453,-.003818,
-.014121,-.003907,
-.01378,-.003937,
.01378,-.003937,
.014121,-.003907,
.014453,-.003818,
.014764,-.003673,
.015045,-.003476,
.015287,-.003234,
.015484,-.002953,
.015629,-.002642,
.015718,-.00231,
.015748,-.001969,
.015748,.001969,
.015718,.00231,
.015629,.002642,
.015484,.002953,
.015287,.003234,
.015045,.003476,
.014764,.003673,
.014453,.003818,
.014121,.003907,
.01378,.003937,
-.01378,.003937,
-.014121,.003907,
-.014453,.003818,
-.014764,.003673,
-.015045,.003476,
-.015287,.003234,
-.015484,.002953,
-.015629,.002642,
-.015718,.00231,
-.015748,.001969,
-.015748,0.0,
0.0*
%
%ADD107MACRO107*%
%AMMACRO89*
4,1,41,-.028543,0.0,
-.028543,-.011339,
-.028368,-.013304,
-.027854,-.015209,
-.027017,-.016995,
-.025883,-.01861,
-.024485,-.020002,
-.022867,-.021131,
-.021077,-.021962,
-.019171,-.022469,
-.017244,-.022638,
.017244,-.022638,
.019209,-.022462,
.021114,-.021948,
.022901,-.021112,
.024515,-.019977,
.025908,-.018579,
.027037,-.016961,
.027867,-.015172,
.028375,-.013265,
.028543,-.011339,
.028543,.011339,
.028368,.013304,
.027854,.015209,
.027017,.016995,
.025883,.01861,
.024485,.020002,
.022867,.021131,
.021077,.021962,
.019171,.022469,
.017244,.022638,
-.017244,.022638,
-.019209,.022462,
-.021114,.021948,
-.022901,.021112,
-.024515,.019977,
-.025908,.018579,
-.027037,.016961,
-.027867,.015172,
-.028375,.013265,
-.028543,.011339,
-.028543,0.0,
0.0*
%
%ADD89MACRO89*%
%AMMACRO88*
4,1,41,0.0,.028543,
-.011339,.028543,
-.013304,.028368,
-.015209,.027854,
-.016995,.027017,
-.01861,.025883,
-.020002,.024485,
-.021131,.022867,
-.021962,.021077,
-.022469,.019171,
-.022638,.017244,
-.022638,-.017244,
-.022462,-.019209,
-.021948,-.021114,
-.021112,-.022901,
-.019977,-.024515,
-.018579,-.025908,
-.016961,-.027037,
-.015172,-.027867,
-.013265,-.028375,
-.011339,-.028543,
.011339,-.028543,
.013304,-.028368,
.015209,-.027854,
.016995,-.027017,
.01861,-.025883,
.020002,-.024485,
.021131,-.022867,
.021962,-.021077,
.022469,-.019171,
.022638,-.017244,
.022638,.017244,
.022462,.019209,
.021948,.021114,
.021112,.022901,
.019977,.024515,
.018579,.025908,
.016961,.027037,
.015172,.027867,
.013265,.028375,
.011339,.028543,
0.0,.028543,
0.0*
%
%ADD88MACRO88*%
%AMMACRO98*
4,1,41,.025591,0.0,
.025591,.008858,
.025456,.010396,
.025056,.011888,
.024404,.013287,
.023518,.014552,
.022426,.015644,
.021161,.01653,
.019762,.017182,
.018271,.017582,
.016732,.017717,
-.016732,.017717,
-.018271,.017582,
-.019762,.017182,
-.021161,.01653,
-.022426,.015644,
-.023518,.014552,
-.024404,.013287,
-.025056,.011888,
-.025456,.010396,
-.025591,.008858,
-.025591,-.008858,
-.025456,-.010396,
-.025056,-.011888,
-.024404,-.013287,
-.023518,-.014552,
-.022426,-.015644,
-.021161,-.01653,
-.019762,-.017182,
-.018271,-.017582,
-.016732,-.017717,
.016732,-.017717,
.018271,-.017582,
.019762,-.017182,
.021161,-.01653,
.022426,-.015644,
.023518,-.014552,
.024404,-.013287,
.025056,-.011888,
.025456,-.010396,
.025591,-.008858,
.025591,0.0,
0.0*
%
%ADD98MACRO98*%
%AMMACRO85*
4,1,41,.028543,0.0,
.028543,.002953,
.028498,.003465,
.028365,.003963,
.028148,.004429,
.027852,.004851,
.027489,.005215,
.027067,.00551,
.0266,.005727,
.026103,.005861,
.025591,.005906,
-.025591,.005906,
-.026103,.005861,
-.0266,.005727,
-.027067,.00551,
-.027489,.005215,
-.027852,.004851,
-.028148,.004429,
-.028365,.003963,
-.028498,.003465,
-.028543,.002953,
-.028543,-.002953,
-.028498,-.003465,
-.028365,-.003963,
-.028148,-.004429,
-.027852,-.004851,
-.027489,-.005215,
-.027067,-.00551,
-.0266,-.005727,
-.026103,-.005861,
-.025591,-.005906,
.025591,-.005906,
.026103,-.005861,
.0266,-.005727,
.027067,-.00551,
.027489,-.005215,
.027852,-.004851,
.028148,-.004429,
.028365,-.003963,
.028498,-.003465,
.028543,-.002953,
.028543,0.0,
0.0*
%
%ADD85MACRO85*%
%AMMACRO51*
4,1,41,0.0,.012795,
-.001969,.012795,
-.00231,.012765,
-.002642,.012677,
-.002953,.012532,
-.003234,.012335,
-.003476,.012092,
-.003673,.011811,
-.003818,.0115,
-.003907,.011169,
-.003937,.010827,
-.003937,-.010827,
-.003907,-.011169,
-.003818,-.0115,
-.003673,-.011811,
-.003476,-.012092,
-.003234,-.012335,
-.002953,-.012532,
-.002642,-.012677,
-.00231,-.012765,
-.001969,-.012795,
.001969,-.012795,
.00231,-.012765,
.002642,-.012677,
.002953,-.012532,
.003234,-.012335,
.003476,-.012092,
.003673,-.011811,
.003818,-.0115,
.003907,-.011169,
.003937,-.010827,
.003937,.010827,
.003907,.011169,
.003818,.0115,
.003673,.011811,
.003476,.012092,
.003234,.012335,
.002953,.012532,
.002642,.012677,
.00231,.012765,
.001969,.012795,
0.0,.012795,
0.0*
%
%ADD51MACRO51*%
%AMMACRO106*
4,1,41,0.0,-.028543,
.002953,-.028543,
.003465,-.028498,
.003963,-.028365,
.004429,-.028148,
.004851,-.027852,
.005215,-.027489,
.00551,-.027067,
.005727,-.0266,
.005861,-.026103,
.005906,-.025591,
.005906,.025591,
.005861,.026103,
.005727,.0266,
.00551,.027067,
.005215,.027489,
.004851,.027852,
.004429,.028148,
.003963,.028365,
.003465,.028498,
.002953,.028543,
-.002953,.028543,
-.003465,.028498,
-.003963,.028365,
-.004429,.028148,
-.004851,.027852,
-.005215,.027489,
-.00551,.027067,
-.005727,.0266,
-.005861,.026103,
-.005906,.025591,
-.005906,-.025591,
-.005861,-.026103,
-.005727,-.0266,
-.00551,-.027067,
-.005215,-.027489,
-.004851,-.027852,
-.004429,-.028148,
-.003963,-.028365,
-.003465,-.028498,
-.002953,-.028543,
0.0,-.028543,
0.0*
%
%ADD106MACRO106*%
%AMMACRO103*
4,1,41,0.0,.015748,
-.001969,.015748,
-.002481,.015703,
-.002978,.01557,
-.003445,.015352,
-.003866,.015057,
-.00423,.014693,
-.004526,.014272,
-.004743,.013805,
-.004876,.013308,
-.004921,.012795,
-.004921,-.012795,
-.004876,-.013308,
-.004743,-.013805,
-.004526,-.014272,
-.00423,-.014693,
-.003866,-.015057,
-.003445,-.015352,
-.002978,-.01557,
-.002481,-.015703,
-.001969,-.015748,
.001969,-.015748,
.002481,-.015703,
.002978,-.01557,
.003445,-.015352,
.003866,-.015057,
.00423,-.014693,
.004526,-.014272,
.004743,-.013805,
.004876,-.013308,
.004921,-.012795,
.004921,.012795,
.004876,.013308,
.004743,.013805,
.004526,.014272,
.00423,.014693,
.003866,.015057,
.003445,.015352,
.002978,.01557,
.002481,.015703,
.001969,.015748,
0.0,.015748,
0.0*
%
%ADD103MACRO103*%
%AMMACRO80*
4,1,43,.026575,0.0,
.026575,.004409,
.026466,.005692,
.026136,.006935,
.025596,.008103,
.02486,.009159,
.023953,.010071,
.022901,.010812,
.021736,.011359,
.020494,.011695,
.019213,.011811,
-.019213,.011811,
-.020494,.011695,
-.021736,.011359,
-.022901,.010812,
-.023953,.010071,
-.02486,.009159,
-.025596,.008103,
-.026136,.006935,
-.026466,.005692,
-.026575,.004409,
-.026575,.004409,
-.026575,-.004409,
-.026466,-.005692,
-.026136,-.006935,
-.025596,-.008103,
-.02486,-.009159,
-.023953,-.010071,
-.022901,-.010812,
-.021736,-.011359,
-.020494,-.011695,
-.019213,-.011811,
-.019213,-.011811,
.019213,-.011811,
.020494,-.011695,
.021736,-.011359,
.022901,-.010812,
.023953,-.010071,
.02486,-.009159,
.025596,-.008103,
.026136,-.006935,
.026466,-.005692,
.026575,-.004409,
.026575,0.0,
0.0*
%
%ADD80MACRO80*%
%AMMACRO33*
4,1,43,0.0,-.027559,
.004409,-.027559,
.005179,-.027495,
.005925,-.027299,
.006627,-.026976,
.007261,-.026535,
.007809,-.025992,
.008255,-.025362,
.008584,-.024663,
.008788,-.023918,
.008858,-.02315,
.008858,.02315,
.008788,.023918,
.008584,.024663,
.008255,.025362,
.007809,.025992,
.007261,.026535,
.006627,.026976,
.005925,.027299,
.005179,.027495,
.004409,.027559,
.004409,.027559,
-.004409,.027559,
-.005179,.027495,
-.005925,.027299,
-.006627,.026976,
-.007261,.026535,
-.007809,.025992,
-.008255,.025362,
-.008584,.024663,
-.008788,.023918,
-.008858,.02315,
-.008858,.02315,
-.008858,-.02315,
-.008788,-.023918,
-.008584,-.024663,
-.008255,-.025362,
-.007809,-.025992,
-.007261,-.026535,
-.006627,-.026976,
-.005925,-.027299,
-.005179,-.027495,
-.004409,-.027559,
0.0,-.027559,
0.0*
%
%ADD33MACRO33*%
%AMMACRO28*
4,1,45,-.027598,0.0,
-.027598,-.012283,
-.027423,-.014249,
-.026909,-.016154,
-.026072,-.01794,
-.024938,-.019555,
-.02354,-.020947,
-.021922,-.022076,
-.020133,-.022907,
-.018226,-.023414,
-.01626,-.023583,
-.01622,-.023583,
.01622,-.023583,
.018187,-.023421,
.020095,-.02292,
.021888,-.022096,
.02351,-.020973,
.024912,-.019585,
.026052,-.017974,
.026895,-.016191,
.027416,-.014288,
.027598,-.012323,
.027598,-.012283,
.027598,.012283,
.027423,.014249,
.026909,.016154,
.026072,.01794,
.024938,.019555,
.02354,.020947,
.021922,.022076,
.020133,.022907,
.018226,.023414,
.01626,.023583,
.01622,.023583,
-.01622,.023583,
-.018187,.023421,
-.020095,.02292,
-.021888,.022096,
-.02351,.020973,
-.024912,.019585,
-.026052,.017974,
-.026895,.016191,
-.027416,.014288,
-.027598,.012323,
-.027598,.012283,
-.027598,0.0,
0.0*
%
%ADD28MACRO28*%
%AMMACRO37*
4,1,44,-.010354,.004213,
-.010981,.003486,
-.011459,.002652,
-.011786,.001749,
-.01195,.000802,
-.011948,-.000158,
-.011779,-.001104,
-.011449,-.002006,
-.010967,-.002837,
-.010347,-.003572,
-.010354,-.003583,
-.003583,-.010354,
-.00284,-.010965,
-.002009,-.011448,
-.001107,-.011779,
-.000161,-.011948,
.0008,-.011951,
.001746,-.011786,
.00265,-.01146,
.003483,-.010982,
.004221,-.010367,
.004213,-.010354,
.010354,-.004213,
.010981,-.003486,
.011459,-.002652,
.011786,-.001749,
.01195,-.000802,
.011948,.000158,
.011779,.001104,
.011449,.002006,
.010967,.002837,
.010347,.003572,
.010354,.003583,
.003583,.010354,
.00284,.010965,
.002009,.011448,
.001107,.011779,
.000161,.011948,
-.0008,.011951,
-.001746,.011786,
-.00265,.01146,
-.003483,.010982,
-.004221,.010367,
-.004213,.010354,
-.010354,.004213,
0.0*
%
%ADD37MACRO37*%
%AMMACRO19*
4,1,40,-.004331,.010315,
-.005288,.010231,
-.006216,.009983,
-.007087,.009577,
-.007874,.009025,
-.008553,.008346,
-.009104,.007559,
-.00951,.006688,
-.009759,.00576,
-.009843,.004803,
-.009843,-.004803,
-.009759,-.00576,
-.00951,-.006688,
-.009104,-.007559,
-.008553,-.008346,
-.007874,-.009025,
-.007087,-.009577,
-.006216,-.009983,
-.005288,-.010231,
-.004331,-.010315,
.004331,-.010315,
.005288,-.010231,
.006216,-.009983,
.007087,-.009577,
.007874,-.009025,
.008553,-.008346,
.009104,-.007559,
.00951,-.006688,
.009759,-.00576,
.009843,-.004803,
.009843,.004803,
.009759,.00576,
.00951,.006688,
.009104,.007559,
.008553,.008346,
.007874,.009025,
.007087,.009577,
.006216,.009983,
.005288,.010231,
.004331,.010315,
-.004331,.010315,
0.0*
%
%ADD19MACRO19*%
%AMMACRO16*
4,1,40,-.010315,-.004331,
-.010231,-.005288,
-.009983,-.006216,
-.009577,-.007087,
-.009025,-.007874,
-.008346,-.008553,
-.007559,-.009104,
-.006688,-.00951,
-.00576,-.009759,
-.004803,-.009843,
.004803,-.009843,
.00576,-.009759,
.006688,-.00951,
.007559,-.009104,
.008346,-.008553,
.009025,-.007874,
.009577,-.007087,
.009983,-.006216,
.010231,-.005288,
.010315,-.004331,
.010315,.004331,
.010231,.005288,
.009983,.006216,
.009577,.007087,
.009025,.007874,
.008346,.008553,
.007559,.009104,
.006688,.00951,
.00576,.009759,
.004803,.009843,
-.004803,.009843,
-.00576,.009759,
-.006688,.00951,
-.007559,.009104,
-.008346,.008553,
-.009025,.007874,
-.009577,.007087,
-.009983,.006216,
-.010231,.005288,
-.010315,.004331,
-.010315,-.004331,
0.0*
%
%ADD16MACRO16*%
%AMMACRO12*
4,1,44,.004213,.010354,
.003486,.010981,
.002652,.011459,
.001749,.011786,
.000802,.01195,
-.000158,.011948,
-.001104,.011779,
-.002006,.011449,
-.002837,.010967,
-.003572,.010347,
-.003583,.010354,
-.010354,.003583,
-.010965,.00284,
-.011448,.002009,
-.011779,.001107,
-.011948,.000161,
-.011951,-.0008,
-.011786,-.001746,
-.01146,-.00265,
-.010982,-.003483,
-.010367,-.004221,
-.010354,-.004213,
-.004213,-.010354,
-.003486,-.010981,
-.002652,-.011459,
-.001749,-.011786,
-.000802,-.01195,
.000158,-.011948,
.001104,-.011779,
.002006,-.011449,
.002837,-.010967,
.003572,-.010347,
.003583,-.010354,
.010354,-.003583,
.010965,-.00284,
.011448,-.002009,
.011779,-.001107,
.011948,-.000161,
.011951,.0008,
.011786,.001746,
.01146,.00265,
.010982,.003483,
.010367,.004221,
.010354,.004213,
.004213,.010354,
0.0*
%
%ADD12MACRO12*%
%AMMACRO11*
4,1,44,-.004213,-.010354,
-.003486,-.010981,
-.002652,-.011459,
-.001749,-.011786,
-.000802,-.01195,
.000158,-.011948,
.001104,-.011779,
.002006,-.011449,
.002837,-.010967,
.003572,-.010347,
.003583,-.010354,
.010354,-.003583,
.010965,-.00284,
.011448,-.002009,
.011779,-.001107,
.011948,-.000161,
.011951,.0008,
.011786,.001746,
.01146,.00265,
.010982,.003483,
.010367,.004221,
.010354,.004213,
.004213,.010354,
.003486,.010981,
.002652,.011459,
.001749,.011786,
.000802,.01195,
-.000158,.011948,
-.001104,.011779,
-.002006,.011449,
-.002837,.010967,
-.003572,.010347,
-.003583,.010354,
-.010354,.003583,
-.010965,.00284,
-.011448,.002009,
-.011779,.001107,
-.011948,.000161,
-.011951,-.0008,
-.011786,-.001746,
-.01146,-.00265,
-.010982,-.003483,
-.010367,-.004221,
-.010354,-.004213,
-.004213,-.010354,
0.0*
%
%ADD11MACRO11*%
%AMMACRO81*
4,1,41,0.0,.012795,
-.005315,.012795,
-.00658,.012685,
-.007806,.012356,
-.008957,.011819,
-.009997,.011091,
-.010894,.010194,
-.011623,.009154,
-.012159,.008003,
-.012488,.006777,
-.012598,.005512,
-.012598,-.005512,
-.012488,-.006777,
-.012159,-.008003,
-.011623,-.009154,
-.010894,-.010194,
-.009997,-.011091,
-.008957,-.011819,
-.007806,-.012356,
-.00658,-.012685,
-.005315,-.012795,
.005315,-.012795,
.00658,-.012685,
.007806,-.012356,
.008957,-.011819,
.009997,-.011091,
.010894,-.010194,
.011623,-.009154,
.012159,-.008003,
.012488,-.006777,
.012598,-.005512,
.012598,.005512,
.012488,.006777,
.012159,.008003,
.011623,.009154,
.010894,.010194,
.009997,.011091,
.008957,.011819,
.007806,.012356,
.00658,.012685,
.005315,.012795,
0.0,.012795,
0.0*
%
%ADD81MACRO81*%
%AMMACRO71*
4,1,41,.009055,.009055,
.005276,.012795,
.004315,.013623,
.003215,.014258,
.002022,.014692,
.000772,.014912,
-.000498,.014911,
-.001748,.01469,
-.002941,.014256,
-.00404,.013621,
-.005,.012795,
-.012795,.005,
-.013622,.004038,
-.014257,.002939,
-.014691,.001746,
-.014911,.000495,
-.014911,-.000774,
-.014691,-.002025,
-.014257,-.003218,
-.013622,-.004317,
-.012795,-.005276,
-.005276,-.012795,
-.004315,-.013623,
-.003215,-.014258,
-.002022,-.014692,
-.000772,-.014912,
.000498,-.014911,
.001748,-.01469,
.002941,-.014256,
.00404,-.013621,
.005,-.012795,
.012795,-.005,
.013622,-.004038,
.014257,-.002939,
.014691,-.001746,
.014911,-.000495,
.014911,.000774,
.014691,.002025,
.014257,.003218,
.013622,.004317,
.012795,.005276,
.009055,.009055,
0.0*
%
%ADD71MACRO71*%
%AMMACRO23*
4,1,41,-.012795,0.0,
-.012795,-.005315,
-.012685,-.00658,
-.012356,-.007806,
-.011819,-.008957,
-.011091,-.009997,
-.010194,-.010894,
-.009154,-.011623,
-.008003,-.012159,
-.006777,-.012488,
-.005512,-.012598,
.005512,-.012598,
.006777,-.012488,
.008003,-.012159,
.009154,-.011623,
.010194,-.010894,
.011091,-.009997,
.011819,-.008957,
.012356,-.007806,
.012685,-.00658,
.012795,-.005315,
.012795,.005315,
.012685,.00658,
.012356,.007806,
.011819,.008957,
.011091,.009997,
.010194,.010894,
.009154,.011623,
.008003,.012159,
.006777,.012488,
.005512,.012598,
-.005512,.012598,
-.006777,.012488,
-.008003,.012159,
-.009154,.011623,
-.010194,.010894,
-.011091,.009997,
-.011819,.008957,
-.012356,.007806,
-.012685,.00658,
-.012795,.005315,
-.012795,0.0,
0.0*
%
%ADD23MACRO23*%
%AMMACRO97*
4,1,41,.019685,0.0,
.019685,.010079,
.019556,.011574,
.019169,.013025,
.018536,.014386,
.017677,.015617,
.016616,.01668,
.015387,.017542,
.014028,.018178,
.012578,.018568,
.011102,.018701,
-.011102,.018701,
-.012597,.018565,
-.014046,.018171,
-.015404,.017532,
-.016631,.016667,
-.017689,.015602,
-.018546,.014369,
-.019176,.013006,
-.019559,.011555,
-.019685,.010079,
-.019685,-.010079,
-.019556,-.011574,
-.019169,-.013025,
-.018536,-.014386,
-.017677,-.015617,
-.016616,-.01668,
-.015387,-.017542,
-.014028,-.018178,
-.012578,-.018568,
-.011102,-.018701,
.011102,-.018701,
.012597,-.018565,
.014046,-.018171,
.015404,-.017532,
.016631,-.016667,
.017689,-.015602,
.018546,-.014369,
.019176,-.013006,
.019559,-.011555,
.019685,-.010079,
.019685,0.0,
0.0*
%
%ADD97MACRO97*%
%AMMACRO56*
4,1,45,-.014764,0.0,
-.014764,-.003465,
-.014723,-.003892,
-.014609,-.004305,
-.014424,-.004692,
-.014175,-.005042,
-.01387,-.005342,
-.013516,-.005586,
-.013126,-.005764,
-.012711,-.005872,
-.012284,-.005906,
-.012283,-.005906,
.012283,-.005906,
.012711,-.005872,
.013126,-.005764,
.013516,-.005586,
.01387,-.005343,
.014175,-.005042,
.014424,-.004692,
.014609,-.004305,
.014723,-.003892,
.014764,-.003465,
.014764,-.003465,
.014764,.003465,
.014723,.003892,
.014609,.004305,
.014424,.004692,
.014175,.005042,
.01387,.005342,
.013516,.005586,
.013126,.005764,
.012711,.005872,
.012284,.005906,
.012283,.005906,
-.012283,.005906,
-.012711,.005872,
-.013126,.005764,
-.013516,.005586,
-.01387,.005343,
-.014175,.005042,
-.014424,.004692,
-.014609,.004305,
-.014723,.003892,
-.014764,.003465,
-.014764,.003465,
-.014764,0.0,
0.0*
%
%ADD56MACRO56*%
%AMMACRO86*
4,1,45,-.015748,0.0,
-.015748,-.004173,
-.015709,-.004643,
-.015588,-.0051,
-.01539,-.005528,
-.015121,-.005915,
-.014789,-.00625,
-.014403,-.006522,
-.013976,-.006723,
-.013521,-.006847,
-.013051,-.00689,
-.013031,-.00689,
.013031,-.00689,
.013502,-.00685,
.013958,-.00673,
.014386,-.006532,
.014774,-.006263,
.015108,-.00593,
.01538,-.005545,
.015581,-.005118,
.015705,-.004663,
.015748,-.004193,
.015748,-.004173,
.015748,.004173,
.015709,.004643,
.015588,.0051,
.01539,.005528,
.015121,.005915,
.014789,.00625,
.014403,.006522,
.013976,.006723,
.013521,.006847,
.013051,.00689,
.013031,.00689,
-.013031,.00689,
-.013502,.00685,
-.013958,.00673,
-.014386,.006532,
-.014774,.006263,
-.015108,.00593,
-.01538,.005545,
-.015581,.005118,
-.015705,.004663,
-.015748,.004193,
-.015748,.004173,
-.015748,0.0,
0.0*
%
%ADD86MACRO86*%
%AMMACRO78*
4,1,44,-.007402,.017717,
.007402,.017717,
.008686,.017605,
.009931,.017273,
.0111,.016729,
.012157,.015991,
.013069,.01508,
.013809,.014025,
.014355,.012857,
.01469,.011612,
.014803,.010328,
.014803,.010315,
.014803,-.010315,
.014692,-.011599,
.014359,-.012845,
.013816,-.014013,
.013077,-.01507,
.012167,-.015982,
.011111,-.016723,
.009944,-.017268,
.008699,-.017603,
.007415,-.017717,
.007402,-.017717,
-.007402,-.017717,
-.008686,-.017605,
-.009931,-.017273,
-.0111,-.016729,
-.012157,-.015991,
-.013069,-.01508,
-.013809,-.014025,
-.014355,-.012857,
-.01469,-.011612,
-.014803,-.010328,
-.014803,-.010315,
-.014803,.010315,
-.014692,.011599,
-.014359,.012845,
-.013816,.014013,
-.013077,.01507,
-.012167,.015982,
-.011111,.016723,
-.009944,.017268,
-.008699,.017603,
-.007415,.017717,
-.007402,.017717,
0.0*
%
%ADD78MACRO78*%
%AMMACRO75*
4,1,22,.015748,.005906,
-.012795,.005906,
-.013308,.005861,
-.013805,.005727,
-.014272,.00551,
-.014693,.005215,
-.015057,.004851,
-.015352,.004429,
-.01557,.003963,
-.015703,.003465,
-.015748,.002953,
-.015748,-.002953,
-.015703,-.003465,
-.01557,-.003963,
-.015352,-.004429,
-.015057,-.004851,
-.014693,-.005215,
-.014272,-.00551,
-.013805,-.005727,
-.013308,-.005861,
-.012795,-.005906,
.015748,-.005906,
.015748,.005906,
0.0*
%
%ADD75MACRO75*%
%AMMACRO76*
4,1,22,.005906,-.015748,
.005906,.012795,
.005861,.013308,
.005727,.013805,
.00551,.014272,
.005215,.014693,
.004851,.015057,
.004429,.015352,
.003963,.01557,
.003465,.015703,
.002953,.015748,
-.002953,.015748,
-.003465,.015703,
-.003963,.01557,
-.004429,.015352,
-.004851,.015057,
-.005215,.014693,
-.00551,.014272,
-.005727,.013805,
-.005861,.013308,
-.005906,.012795,
-.005906,-.015748,
.005906,-.015748,
0.0*
%
%ADD76MACRO76*%
%AMMACRO17*
4,1,45,-.014803,0.0,
-.014803,-.00811,
-.014706,-.009269,
-.014408,-.010393,
-.01392,-.011449,
-.013257,-.012403,
-.012437,-.013228,
-.011487,-.013898,
-.010434,-.014393,
-.009312,-.014698,
-.008154,-.014803,
-.00811,-.014803,
.00811,-.014803,
.009269,-.014706,
.010393,-.014408,
.011449,-.01392,
.012403,-.013257,
.013228,-.012437,
.013898,-.011487,
.014393,-.010434,
.014698,-.009312,
.014803,-.008154,
.014803,-.00811,
.014803,.00811,
.014706,.009269,
.014408,.010393,
.01392,.011449,
.013257,.012403,
.012437,.013228,
.011487,.013898,
.010434,.014393,
.009312,.014698,
.008154,.014803,
.00811,.014803,
-.00811,.014803,
-.009269,.014706,
-.010393,.014408,
-.011449,.01392,
-.012403,.013257,
-.013228,.012437,
-.013898,.011487,
-.014393,.010434,
-.014698,.009312,
-.014803,.008154,
-.014803,.00811,
-.014803,0.0,
0.0*
%
%ADD17MACRO17*%
%AMMACRO92*
4,1,41,.027559,0.0,
.027559,.011811,
.02738,.013862,
.026847,.015851,
.025977,.017717,
.024796,.019403,
.02334,.020859,
.021654,.02204,
.019788,.02291,
.017799,.023443,
.015748,.023622,
-.015748,.023622,
-.017799,.023443,
-.019788,.02291,
-.021654,.02204,
-.02334,.020859,
-.024796,.019403,
-.025977,.017717,
-.026847,.015851,
-.02738,.013862,
-.027559,.011811,
-.027559,-.011811,
-.02738,-.013862,
-.026847,-.015851,
-.025977,-.017717,
-.024796,-.019403,
-.02334,-.020859,
-.021654,-.02204,
-.019788,-.02291,
-.017799,-.023443,
-.015748,-.023622,
.015748,-.023622,
.017799,-.023443,
.019788,-.02291,
.021654,-.02204,
.02334,-.020859,
.024796,-.019403,
.025977,-.017717,
.026847,-.015851,
.02738,-.013862,
.027559,-.011811,
.027559,0.0,
0.0*
%
%ADD92MACRO92*%
%ADD91R,.098425X.064961*%
%ADD25O,.033504X.011811*%
%AMMACRO102*
4,1,20,-.047244,.03248,
.047244,.03248,
.047244,.01378,
.074803,.01378,
.074803,.005906,
.047244,.005906,
.047244,-.005906,
.074803,-.005906,
.074803,-.01378,
.047244,-.01378,
.047244,-.03248,
-.047244,-.03248,
-.047244,-.01378,
-.074803,-.01378,
-.074803,-.005906,
-.047244,-.005906,
-.047244,.005906,
-.074803,.005906,
-.074803,.01378,
-.047244,.01378,
-.047244,.03248,
0.0*
%
%ADD102MACRO102*%
%ADD57R,.064961X.098425*%
%ADD26O,.011811X.033504*%
%AMMACRO62*
4,1,42,-.019685,0.0,
-.019685,-.00937,
-.01954,-.010993,
-.019114,-.012567,
-.018422,-.014043,
-.017485,-.015376,
-.01633,-.016526,
-.014993,-.017458,
-.013514,-.018144,
-.011939,-.018562,
-.010315,-.018701,
.010315,-.018701,
.011939,-.018562,
.013514,-.018144,
.014993,-.017458,
.01633,-.016526,
.017485,-.015376,
.018422,-.014043,
.019114,-.012567,
.01954,-.010993,
.019685,-.00937,
.019685,.00937,
.01954,.010993,
.019114,.012567,
.018422,.014043,
.017485,.015376,
.01633,.016526,
.014993,.017458,
.013514,.018144,
.011939,.018562,
.010315,.018701,
.010315,.018701,
-.010315,.018701,
-.011939,.018562,
-.013514,.018144,
-.014993,.017458,
-.01633,.016526,
-.017485,.015376,
-.018422,.014043,
-.019114,.012567,
-.01954,.010993,
-.019685,.00937,
-.019685,0.0,
0.0*
%
%ADD62MACRO62*%
%AMMACRO46*
4,1,41,0.0,.019685,
-.00937,.019685,
-.010993,.01954,
-.012567,.019114,
-.014043,.018422,
-.015376,.017485,
-.016526,.01633,
-.017458,.014993,
-.018144,.013514,
-.018562,.011939,
-.018701,.010315,
-.018701,-.010315,
-.018562,-.011939,
-.018144,-.013514,
-.017458,-.014993,
-.016526,-.01633,
-.015376,-.017485,
-.014043,-.018422,
-.012567,-.019114,
-.010993,-.01954,
-.00937,-.019685,
.00937,-.019685,
.010993,-.01954,
.012567,-.019114,
.014043,-.018422,
.015376,-.017485,
.016526,-.01633,
.017458,-.014993,
.018144,-.013514,
.018562,-.011939,
.018701,-.010315,
.018701,.010315,
.018562,.011939,
.018144,.013514,
.017458,.014993,
.016526,.01633,
.015376,.017485,
.014043,.018422,
.012567,.019114,
.010993,.01954,
.00937,.019685,
0.0,.019685,
0.0*
%
%ADD46MACRO46*%
%AMMACRO42*
4,1,14,-.033465,-.011811,
-.033465,.011811,
.033465,.011811,
.033465,-.011811,
.019291,-.011811,
.01558,-.00876,
.011395,-.0064,
.006864,-.004803,
.002125,-.004016,
-.002679,-.004065,
-.007402,-.004947,
-.0119,-.006635,
-.016036,-.009079,
-.019291,-.011811,
-.033465,-.011811,
0.0*
%
%ADD42MACRO42*%
%AMMACRO113*
4,1,43,.035433,0.0,
.035433,.011339,
.035258,.013304,
.034744,.015209,
.033907,.016995,
.032772,.01861,
.031375,.020002,
.029757,.021131,
.027967,.021962,
.02606,.022469,
.024094,.022638,
.024094,.022638,
-.024094,.022638,
-.02606,.022469,
-.027967,.021962,
-.029757,.021131,
-.031375,.020002,
-.032772,.01861,
-.033907,.016995,
-.034744,.015209,
-.035258,.013304,
-.035433,.011339,
-.035433,.011339,
-.035433,-.011339,
-.035258,-.013304,
-.034744,-.015209,
-.033907,-.016995,
-.032772,-.01861,
-.031375,-.020002,
-.029757,-.021131,
-.027967,-.021962,
-.02606,-.022469,
-.024094,-.022638,
.024094,-.022638,
.02606,-.022469,
.027967,-.021962,
.029757,-.021131,
.031375,-.020002,
.032772,-.01861,
.033907,-.016995,
.034744,-.015209,
.035258,-.013304,
.035433,-.011339,
.035433,0.0,
0.0*
%
%ADD113MACRO113*%
%AMMACRO24*
4,1,45,0.0,-.007874,
.003465,-.007874,
.004062,-.007818,
.004642,-.00766,
.005184,-.007403,
.005674,-.007055,
.006096,-.006628,
.006438,-.006135,
.006689,-.005589,
.006841,-.005008,
.00689,-.004409,
.00689,-.004409,
.00689,.004409,
.006841,.005008,
.006689,.005589,
.006438,.006135,
.006096,.006628,
.005674,.007055,
.005184,.007403,
.004642,.00766,
.004062,.007818,
.003465,.007874,
.003465,.007874,
-.003465,.007874,
-.004062,.007818,
-.004642,.00766,
-.005184,.007403,
-.005674,.007055,
-.006096,.006628,
-.006438,.006135,
-.006689,.005589,
-.006841,.005008,
-.00689,.004409,
-.00689,.004409,
-.00689,-.004409,
-.006841,-.005008,
-.006689,-.005589,
-.006438,-.006135,
-.006096,-.006628,
-.005674,-.007055,
-.005184,-.007403,
-.004642,-.00766,
-.004062,-.007818,
-.003465,-.007874,
-.003465,-.007874,
0.0,-.007874,
0.0*
%
%ADD24MACRO24*%
%AMMACRO111*
4,1,41,-.019685,0.0,
-.019685,-.002953,
-.01964,-.003465,
-.019507,-.003963,
-.019289,-.004429,
-.018994,-.004851,
-.01863,-.005215,
-.018209,-.00551,
-.017742,-.005727,
-.017245,-.005861,
-.016732,-.005906,
.016732,-.005906,
.017245,-.005861,
.017742,-.005727,
.018209,-.00551,
.01863,-.005215,
.018994,-.004851,
.019289,-.004429,
.019507,-.003963,
.01964,-.003465,
.019685,-.002953,
.019685,.002953,
.01964,.003465,
.019507,.003963,
.019289,.004429,
.018994,.004851,
.01863,.005215,
.018209,.00551,
.017742,.005727,
.017245,.005861,
.016732,.005906,
-.016732,.005906,
-.017245,.005861,
-.017742,.005727,
-.018209,.00551,
-.01863,.005215,
-.018994,.004851,
-.019289,.004429,
-.019507,.003963,
-.01964,.003465,
-.019685,.002953,
-.019685,0.0,
0.0*
%
%ADD111MACRO111*%
%AMMACRO110*
4,1,41,0.0,.019685,
-.002953,.019685,
-.003465,.01964,
-.003963,.019507,
-.004429,.019289,
-.004851,.018994,
-.005215,.01863,
-.00551,.018209,
-.005727,.017742,
-.005861,.017245,
-.005906,.016732,
-.005906,-.016732,
-.005861,-.017245,
-.005727,-.017742,
-.00551,-.018209,
-.005215,-.01863,
-.004851,-.018994,
-.004429,-.019289,
-.003963,-.019507,
-.003465,-.01964,
-.002953,-.019685,
.002953,-.019685,
.003465,-.01964,
.003963,-.019507,
.004429,-.019289,
.004851,-.018994,
.005215,-.01863,
.00551,-.018209,
.005727,-.017742,
.005861,-.017245,
.005906,-.016732,
.005906,.016732,
.005861,.017245,
.005727,.017742,
.00551,.018209,
.005215,.01863,
.004851,.018994,
.004429,.019289,
.003963,.019507,
.003465,.01964,
.002953,.019685,
0.0,.019685,
0.0*
%
%ADD110MACRO110*%
%ADD59O,.029528X.033465*%
%AMMACRO104*
4,1,41,0.0,.023622,
-.002953,.023622,
-.003807,.023547,
-.004636,.023325,
-.005413,.022963,
-.006116,.022471,
-.006723,.021864,
-.007215,.021161,
-.007577,.020384,
-.007799,.019555,
-.007874,.018701,
-.007874,-.018701,
-.007799,-.019555,
-.007577,-.020384,
-.007215,-.021161,
-.006723,-.021864,
-.006116,-.022471,
-.005413,-.022963,
-.004636,-.023325,
-.003807,-.023547,
-.002953,-.023622,
.002953,-.023622,
.003807,-.023547,
.004636,-.023325,
.005413,-.022963,
.006116,-.022471,
.006723,-.021864,
.007215,-.021161,
.007577,-.020384,
.007799,-.019555,
.007874,-.018701,
.007874,.018701,
.007799,.019555,
.007577,.020384,
.007215,.021161,
.006723,.021864,
.006116,.022471,
.005413,.022963,
.004636,.023325,
.003807,.023547,
.002953,.023622,
0.0,.023622,
0.0*
%
%ADD104MACRO104*%
%AMMACRO66*
4,1,45,0.0,-.010827,
.003465,-.010827,
.004062,-.010771,
.004642,-.010612,
.005184,-.010355,
.005674,-.010008,
.006096,-.009581,
.006438,-.009087,
.006689,-.008542,
.006841,-.007961,
.00689,-.007362,
.00689,-.007362,
.00689,.007362,
.006841,.007961,
.006689,.008542,
.006438,.009087,
.006096,.009581,
.005674,.010008,
.005184,.010355,
.004642,.010612,
.004062,.010771,
.003465,.010827,
.003465,.010827,
-.003465,.010827,
-.004062,.010771,
-.004642,.010612,
-.005184,.010355,
-.005674,.010008,
-.006096,.009581,
-.006438,.009087,
-.006689,.008542,
-.006841,.007961,
-.00689,.007362,
-.00689,.007362,
-.00689,-.007362,
-.006841,-.007961,
-.006689,-.008542,
-.006438,-.009087,
-.006096,-.009581,
-.005674,-.010008,
-.005184,-.010355,
-.004642,-.010612,
-.004062,-.010771,
-.003465,-.010827,
-.003465,-.010827,
0.0,-.010827,
0.0*
%
%ADD66MACRO66*%
%AMMACRO14*
4,1,45,0.0,-.027559,
.008346,-.027559,
.010312,-.027391,
.012219,-.026883,
.014009,-.026052,
.015627,-.024924,
.017024,-.023531,
.018159,-.021917,
.018996,-.02013,
.01951,-.018225,
.019685,-.01626,
.019685,-.01622,
.019685,.01622,
.019516,.018186,
.019009,.020093,
.018178,.021883,
.01705,.023501,
.015657,.024898,
.014043,.026033,
.012256,.02687,
.010351,.027384,
.008386,.027559,
.008346,.027559,
-.008346,.027559,
-.010312,.027391,
-.012219,.026883,
-.014009,.026052,
-.015627,.024924,
-.017024,.023531,
-.018159,.021917,
-.018996,.02013,
-.01951,.018225,
-.019685,.01626,
-.019685,.01622,
-.019685,-.01622,
-.019516,-.018186,
-.019009,-.020093,
-.018178,-.021883,
-.01705,-.023501,
-.015657,-.024898,
-.014043,-.026033,
-.012256,-.02687,
-.010351,-.027384,
-.008386,-.027559,
-.008346,-.027559,
0.0,-.027559,
0.0*
%
%ADD14MACRO14*%
%AMMACRO60*
4,1,41,0.0,.025591,
-.008858,.025591,
-.010396,.025456,
-.011888,.025056,
-.013287,.024404,
-.014552,.023518,
-.015644,.022426,
-.01653,.021161,
-.017182,.019762,
-.017582,.018271,
-.017717,.016732,
-.017717,-.016732,
-.017582,-.018271,
-.017182,-.019762,
-.01653,-.021161,
-.015644,-.022426,
-.014552,-.023518,
-.013287,-.024404,
-.011888,-.025056,
-.010396,-.025456,
-.008858,-.025591,
.008858,-.025591,
.010396,-.025456,
.011888,-.025056,
.013287,-.024404,
.014552,-.023518,
.015644,-.022426,
.01653,-.021161,
.017182,-.019762,
.017582,-.018271,
.017717,-.016732,
.017717,.016732,
.017582,.018271,
.017182,.019762,
.01653,.021161,
.015644,.022426,
.014552,.023518,
.013287,.024404,
.011888,.025056,
.010396,.025456,
.008858,.025591,
0.0,.025591,
0.0*
%
%ADD60MACRO60*%
%AMMACRO13*
4,1,41,-.025591,0.0,
-.025591,-.008858,
-.025456,-.010396,
-.025056,-.011888,
-.024404,-.013287,
-.023518,-.014552,
-.022426,-.015644,
-.021161,-.01653,
-.019762,-.017182,
-.018271,-.017582,
-.016732,-.017717,
.016732,-.017717,
.018271,-.017582,
.019762,-.017182,
.021161,-.01653,
.022426,-.015644,
.023518,-.014552,
.024404,-.013287,
.025056,-.011888,
.025456,-.010396,
.025591,-.008858,
.025591,.008858,
.025456,.010396,
.025056,.011888,
.024404,.013287,
.023518,.014552,
.022426,.015644,
.021161,.01653,
.019762,.017182,
.018271,.017582,
.016732,.017717,
-.016732,.017717,
-.018271,.017582,
-.019762,.017182,
-.021161,.01653,
-.022426,.015644,
-.023518,.014552,
-.024404,.013287,
-.025056,.011888,
-.025456,.010396,
-.025591,.008858,
-.025591,0.0,
0.0*
%
%ADD13MACRO13*%
%AMMACRO69*
4,1,45,.009843,0.0,
.009843,.002441,
.009764,.003381,
.009523,.004294,
.009127,.00515,
.008589,.005925,
.007924,.006595,
.007153,.007139,
.006299,.007541,
.005389,.007788,
.004449,.007874,
.004409,.007874,
-.004409,.007874,
-.00535,.007795,
-.006262,.007554,
-.007119,.007159,
-.007894,.00662,
-.008563,.005955,
-.009107,.005184,
-.009509,.004331,
-.009757,.00342,
-.009843,.00248,
-.009843,.002441,
-.009843,-.002441,
-.009764,-.003381,
-.009523,-.004294,
-.009127,-.00515,
-.008589,-.005925,
-.007924,-.006595,
-.007153,-.007139,
-.006299,-.007541,
-.005389,-.007788,
-.004449,-.007874,
-.004409,-.007874,
.004409,-.007874,
.00535,-.007795,
.006262,-.007554,
.007119,-.007159,
.007894,-.00662,
.008563,-.005955,
.009107,-.005184,
.009509,-.004331,
.009757,-.00342,
.009843,-.00248,
.009843,-.002441,
.009843,0.0,
0.0*
%
%ADD69MACRO69*%
%AMMACRO32*
4,1,42,0.0,-.041339,
.014252,-.041339,
.016731,-.041125,
.019134,-.040485,
.02139,-.039436,
.02343,-.038012,
.025192,-.036256,
.026621,-.03422,
.027676,-.031967,
.028323,-.029565,
.028543,-.027087,
.028543,.027087,
.028323,.029565,
.027676,.031967,
.026621,.03422,
.025192,.036256,
.02343,.038012,
.02139,.039436,
.019134,.040485,
.016731,.041125,
.014252,.041339,
.014252,.041339,
-.014252,.041339,
-.016731,.041125,
-.019134,.040485,
-.02139,.039436,
-.02343,.038012,
-.025192,.036256,
-.026621,.03422,
-.027676,.031967,
-.028323,.029565,
-.028543,.027087,
-.028543,-.027087,
-.028323,-.029565,
-.027676,-.031967,
-.026621,-.03422,
-.025192,-.036256,
-.02343,-.038012,
-.02139,-.039436,
-.019134,-.040485,
-.016731,-.041125,
-.014252,-.041339,
0.0,-.041339,
0.0*
%
%ADD32MACRO32*%
%AMMACRO112*
4,1,41,0.0,.029528,
-.002953,.029528,
-.003978,.029438,
-.004973,.029171,
-.005906,.028736,
-.006749,.028146,
-.007477,.027418,
-.008067,.026575,
-.008502,.025642,
-.008769,.024648,
-.008858,.023622,
-.008858,-.023622,
-.008769,-.024648,
-.008502,-.025642,
-.008067,-.026575,
-.007477,-.027418,
-.006749,-.028146,
-.005906,-.028736,
-.004973,-.029171,
-.003978,-.029438,
-.002953,-.029528,
.002953,-.029528,
.003978,-.029438,
.004973,-.029171,
.005906,-.028736,
.006749,-.028146,
.007477,-.027418,
.008067,-.026575,
.008502,-.025642,
.008769,-.024648,
.008858,-.023622,
.008858,.023622,
.008769,.024648,
.008502,.025642,
.008067,.026575,
.007477,.027418,
.006749,.028146,
.005906,.028736,
.004973,.029171,
.003978,.029438,
.002953,.029528,
0.0,.029528,
0.0*
%
%ADD112MACRO112*%
%AMMACRO87*
4,1,43,-.026575,0.0,
-.026575,-.004409,
-.026466,-.005692,
-.026136,-.006935,
-.025596,-.008103,
-.02486,-.009159,
-.023953,-.010071,
-.022901,-.010812,
-.021736,-.011359,
-.020494,-.011695,
-.019213,-.011811,
-.019213,-.011811,
.019213,-.011811,
.020494,-.011695,
.021736,-.011359,
.022901,-.010812,
.023953,-.010071,
.02486,-.009159,
.025596,-.008103,
.026136,-.006935,
.026466,-.005692,
.026575,-.004409,
.026575,.004409,
.026466,.005692,
.026136,.006935,
.025596,.008103,
.02486,.009159,
.023953,.010071,
.022901,.010812,
.021736,.011359,
.020494,.011695,
.019213,.011811,
-.019213,.011811,
-.020494,.011695,
-.021736,.011359,
-.022901,.010812,
-.023953,.010071,
-.02486,.009159,
-.025596,.008103,
-.026136,.006935,
-.026466,.005692,
-.026575,.004409,
-.026575,.004409,
-.026575,0.0,
0.0*
%
%ADD87MACRO87*%
%AMMACRO48*
4,1,44,0.0,.026575,
-.004409,.026575,
-.005692,.026466,
-.006935,.026136,
-.008103,.025596,
-.009159,.02486,
-.010071,.023953,
-.010812,.022901,
-.011359,.021736,
-.011695,.020494,
-.011811,.019213,
-.011811,.019213,
-.011811,-.019213,
-.011695,-.020494,
-.011359,-.021736,
-.010812,-.022901,
-.010071,-.023953,
-.009159,-.02486,
-.008103,-.025596,
-.006935,-.026136,
-.005692,-.026466,
-.004409,-.026575,
.004409,-.026575,
.005692,-.026466,
.006935,-.026136,
.008103,-.025596,
.009159,-.02486,
.010071,-.023953,
.010812,-.022901,
.011359,-.021736,
.011695,-.020494,
.011811,-.019213,
.011811,-.019213,
.011811,.019213,
.011695,.020494,
.011359,.021736,
.010812,.022901,
.010071,.023953,
.009159,.02486,
.008103,.025596,
.006935,.026136,
.005692,.026466,
.004409,.026575,
.004409,.026575,
0.0,.026575,
0.0*
%
%ADD48MACRO48*%
%AMMACRO53*
4,1,41,.017717,0.0,
.017717,.001969,
.017687,.00231,
.017598,.002642,
.017453,.002953,
.017256,.003234,
.017013,.003476,
.016732,.003673,
.016421,.003818,
.01609,.003907,
.015748,.003937,
-.015748,.003937,
-.01609,.003907,
-.016421,.003818,
-.016732,.003673,
-.017013,.003476,
-.017256,.003234,
-.017453,.002953,
-.017598,.002642,
-.017687,.00231,
-.017717,.001969,
-.017717,-.001969,
-.017687,-.00231,
-.017598,-.002642,
-.017453,-.002953,
-.017256,-.003234,
-.017013,-.003476,
-.016732,-.003673,
-.016421,-.003818,
-.01609,-.003907,
-.015748,-.003937,
.015748,-.003937,
.01609,-.003907,
.016421,-.003818,
.016732,-.003673,
.017013,-.003476,
.017256,-.003234,
.017453,-.002953,
.017598,-.002642,
.017687,-.00231,
.017717,-.001969,
.017717,0.0,
0.0*
%
%ADD53MACRO53*%
%AMMACRO31*
4,1,41,0.0,-.037402,
.01378,-.037402,
.016172,-.037192,
.018492,-.036571,
.020669,-.035555,
.022637,-.034178,
.024335,-.032479,
.025713,-.030512,
.026728,-.028335,
.02735,-.026015,
.027559,-.023622,
.027559,.023622,
.02735,.026015,
.026728,.028335,
.025713,.030512,
.024335,.032479,
.022637,.034178,
.020669,.035555,
.018492,.036571,
.016172,.037192,
.01378,.037402,
-.01378,.037402,
-.016172,.037192,
-.018492,.036571,
-.020669,.035555,
-.022637,.034178,
-.024335,.032479,
-.025713,.030512,
-.026728,.028335,
-.02735,.026015,
-.027559,.023622,
-.027559,-.023622,
-.02735,-.026015,
-.026728,-.028335,
-.025713,-.030512,
-.024335,-.032479,
-.022637,-.034178,
-.020669,-.035555,
-.018492,-.036571,
-.016172,-.037192,
-.01378,-.037402,
0.0,-.037402,
0.0*
%
%ADD31MACRO31*%
%AMMACRO72*
4,1,41,.028543,0.0,
.028543,.011339,
.028368,.013304,
.027854,.015209,
.027017,.016995,
.025883,.01861,
.024485,.020002,
.022867,.021131,
.021077,.021962,
.019171,.022469,
.017244,.022638,
-.017244,.022638,
-.019209,.022462,
-.021114,.021948,
-.022901,.021112,
-.024515,.019977,
-.025908,.018579,
-.027037,.016961,
-.027867,.015172,
-.028375,.013265,
-.028543,.011339,
-.028543,-.011339,
-.028368,-.013304,
-.027854,-.015209,
-.027017,-.016995,
-.025883,-.01861,
-.024485,-.020002,
-.022867,-.021131,
-.021077,-.021962,
-.019171,-.022469,
-.017244,-.022638,
.017244,-.022638,
.019209,-.022462,
.021114,-.021948,
.022901,-.021112,
.024515,-.019977,
.025908,-.018579,
.027037,-.016961,
.027867,-.015172,
.028375,-.013265,
.028543,-.011339,
.028543,0.0,
0.0*
%
%ADD72MACRO72*%
%AMMACRO38*
4,1,41,.017717,0.0,
.017717,.002953,
.017672,.003465,
.017538,.003963,
.017321,.004429,
.017026,.004851,
.016662,.005215,
.01624,.00551,
.015774,.005727,
.015277,.005861,
.014764,.005906,
-.014764,.005906,
-.015277,.005861,
-.015774,.005727,
-.01624,.00551,
-.016662,.005215,
-.017026,.004851,
-.017321,.004429,
-.017538,.003963,
-.017672,.003465,
-.017717,.002953,
-.017717,-.002953,
-.017672,-.003465,
-.017538,-.003963,
-.017321,-.004429,
-.017026,-.004851,
-.016662,-.005215,
-.01624,-.00551,
-.015774,-.005727,
-.015277,-.005861,
-.014764,-.005906,
.014764,-.005906,
.015277,-.005861,
.015774,-.005727,
.01624,-.00551,
.016662,-.005215,
.017026,-.004851,
.017321,-.004429,
.017538,-.003963,
.017672,-.003465,
.017717,-.002953,
.017717,0.0,
0.0*
%
%ADD38MACRO38*%
%AMMACRO96*
4,1,41,0.0,-.008858,
.001969,-.008858,
.002652,-.008798,
.003315,-.008621,
.003937,-.008331,
.004499,-.007937,
.004984,-.007452,
.005378,-.00689,
.005668,-.006268,
.005846,-.005605,
.005906,-.004921,
.005906,.004921,
.005846,.005605,
.005668,.006268,
.005378,.00689,
.004984,.007452,
.004499,.007937,
.003937,.008331,
.003315,.008621,
.002652,.008798,
.001969,.008858,
-.001969,.008858,
-.002652,.008798,
-.003315,.008621,
-.003937,.008331,
-.004499,.007937,
-.004984,.007452,
-.005378,.00689,
-.005668,.006268,
-.005846,.005605,
-.005906,.004921,
-.005906,-.004921,
-.005846,-.005605,
-.005668,-.006268,
-.005378,-.00689,
-.004984,-.007452,
-.004499,-.007937,
-.003937,-.008331,
-.003315,-.008621,
-.002652,-.008798,
-.001969,-.008858,
0.0,-.008858,
0.0*
%
%ADD96MACRO96*%
%AMMACRO93*
4,1,41,0.0,-.028543,
.011339,-.028543,
.013304,-.028368,
.015209,-.027854,
.016995,-.027017,
.01861,-.025883,
.020002,-.024485,
.021131,-.022867,
.021962,-.021077,
.022469,-.019171,
.022638,-.017244,
.022638,.017244,
.022462,.019209,
.021948,.021114,
.021112,.022901,
.019977,.024515,
.018579,.025908,
.016961,.027037,
.015172,.027867,
.013265,.028375,
.011339,.028543,
-.011339,.028543,
-.013304,.028368,
-.015209,.027854,
-.016995,.027017,
-.01861,.025883,
-.020002,.024485,
-.021131,.022867,
-.021962,.021077,
-.022469,.019171,
-.022638,.017244,
-.022638,-.017244,
-.022462,-.019209,
-.021948,-.021114,
-.021112,-.022901,
-.019977,-.024515,
-.018579,-.025908,
-.016961,-.027037,
-.015172,-.027867,
-.013265,-.028375,
-.011339,-.028543,
0.0,-.028543,
0.0*
%
%ADD93MACRO93*%
%AMMACRO65*
4,1,41,0.0,-.03937,
.020433,-.03937,
.023723,-.039081,
.026913,-.038224,
.029905,-.036827,
.03261,-.034931,
.034944,-.032594,
.036837,-.029888,
.038231,-.026894,
.039084,-.023704,
.03937,-.020433,
.03937,.020433,
.039081,.023723,
.038224,.026913,
.036827,.029905,
.034931,.03261,
.032594,.034944,
.029888,.036837,
.026894,.038231,
.023704,.039084,
.020433,.03937,
-.020433,.03937,
-.023723,.039081,
-.026913,.038224,
-.029905,.036827,
-.03261,.034931,
-.034944,.032594,
-.036837,.029888,
-.038231,.026894,
-.039084,.023704,
-.03937,.020433,
-.03937,-.020433,
-.039081,-.023723,
-.038224,-.026913,
-.036827,-.029905,
-.034931,-.03261,
-.032594,-.034944,
-.029888,-.036837,
-.026894,-.038231,
-.023704,-.039084,
-.020433,-.03937,
0.0,-.03937,
0.0*
%
%ADD65MACRO65*%
%AMMACRO52*
4,1,41,.012795,0.0,
.012795,.001969,
.012765,.00231,
.012677,.002642,
.012532,.002953,
.012335,.003234,
.012092,.003476,
.011811,.003673,
.0115,.003818,
.011169,.003907,
.010827,.003937,
-.010827,.003937,
-.011169,.003907,
-.0115,.003818,
-.011811,.003673,
-.012092,.003476,
-.012335,.003234,
-.012532,.002953,
-.012677,.002642,
-.012765,.00231,
-.012795,.001969,
-.012795,-.001969,
-.012765,-.00231,
-.012677,-.002642,
-.012532,-.002953,
-.012335,-.003234,
-.012092,-.003476,
-.011811,-.003673,
-.0115,-.003818,
-.011169,-.003907,
-.010827,-.003937,
.010827,-.003937,
.011169,-.003907,
.0115,-.003818,
.011811,-.003673,
.012092,-.003476,
.012335,-.003234,
.012532,-.002953,
.012677,-.002642,
.012765,-.00231,
.012795,-.001969,
.012795,0.0,
0.0*
%
%ADD52MACRO52*%
%AMMACRO39*
4,1,41,0.0,-.017717,
.002953,-.017717,
.003465,-.017672,
.003963,-.017538,
.004429,-.017321,
.004851,-.017026,
.005215,-.016662,
.00551,-.01624,
.005727,-.015774,
.005861,-.015277,
.005906,-.014764,
.005906,.014764,
.005861,.015277,
.005727,.015774,
.00551,.01624,
.005215,.016662,
.004851,.017026,
.004429,.017321,
.003963,.017538,
.003465,.017672,
.002953,.017717,
-.002953,.017717,
-.003465,.017672,
-.003963,.017538,
-.004429,.017321,
-.004851,.017026,
-.005215,.016662,
-.00551,.01624,
-.005727,.015774,
-.005861,.015277,
-.005906,.014764,
-.005906,-.014764,
-.005861,-.015277,
-.005727,-.015774,
-.00551,-.01624,
-.005215,-.016662,
-.004851,-.017026,
-.004429,-.017321,
-.003963,-.017538,
-.003465,-.017672,
-.002953,-.017717,
0.0,-.017717,
0.0*
%
%ADD39MACRO39*%
%AMMACRO105*
4,1,41,.094488,0.0,
.094488,.011339,
.094313,.013304,
.093799,.015209,
.092962,.016995,
.091827,.01861,
.09043,.020002,
.088812,.021131,
.087022,.021962,
.085115,.022469,
.08315,.022638,
-.08315,.022638,
-.085115,.022469,
-.087022,.021962,
-.088812,.021131,
-.09043,.020002,
-.091827,.01861,
-.092962,.016995,
-.093799,.015209,
-.094313,.013304,
-.094488,.011339,
-.094488,-.011339,
-.094313,-.013304,
-.093799,-.015209,
-.092962,-.016995,
-.091827,-.01861,
-.09043,-.020002,
-.088812,-.021131,
-.087022,-.021962,
-.085115,-.022469,
-.08315,-.022638,
.08315,-.022638,
.085115,-.022469,
.087022,-.021962,
.088812,-.021131,
.09043,-.020002,
.091827,-.01861,
.092962,-.016995,
.093799,-.015209,
.094313,-.013304,
.094488,-.011339,
.094488,0.0,
0.0*
%
%ADD105MACRO105*%
%AMMACRO101*
4,1,41,0.0,-.015748,
.001969,-.015748,
.002481,-.015703,
.002978,-.01557,
.003445,-.015352,
.003866,-.015057,
.00423,-.014693,
.004526,-.014272,
.004743,-.013805,
.004876,-.013308,
.004921,-.012795,
.004921,.012795,
.004876,.013308,
.004743,.013805,
.004526,.014272,
.00423,.014693,
.003866,.015057,
.003445,.015352,
.002978,.01557,
.002481,.015703,
.001969,.015748,
-.001969,.015748,
-.002481,.015703,
-.002978,.01557,
-.003445,.015352,
-.003866,.015057,
-.00423,.014693,
-.004526,.014272,
-.004743,.013805,
-.004876,.013308,
-.004921,.012795,
-.004921,-.012795,
-.004876,-.013308,
-.004743,-.013805,
-.004526,-.014272,
-.00423,-.014693,
-.003866,-.015057,
-.003445,-.015352,
-.002978,-.01557,
-.002481,-.015703,
-.001969,-.015748,
0.0,-.015748,
0.0*
%
%ADD101MACRO101*%
%AMMACRO36*
4,1,44,.010354,-.004213,
.010981,-.003486,
.011459,-.002652,
.011786,-.001749,
.01195,-.000802,
.011948,.000158,
.011779,.001104,
.011449,.002006,
.010967,.002837,
.010347,.003572,
.010354,.003583,
.003583,.010354,
.00284,.010965,
.002009,.011448,
.001107,.011779,
.000161,.011948,
-.0008,.011951,
-.001746,.011786,
-.00265,.01146,
-.003483,.010982,
-.004221,.010367,
-.004213,.010354,
-.010354,.004213,
-.010981,.003486,
-.011459,.002652,
-.011786,.001749,
-.01195,.000802,
-.011948,-.000158,
-.011779,-.001104,
-.011449,-.002006,
-.010967,-.002837,
-.010347,-.003572,
-.010354,-.003583,
-.003583,-.010354,
-.00284,-.010965,
-.002009,-.011448,
-.001107,-.011779,
-.000161,-.011948,
.0008,-.011951,
.001746,-.011786,
.00265,-.01146,
.003483,-.010982,
.004221,-.010367,
.004213,-.010354,
.010354,-.004213,
0.0*
%
%ADD36MACRO36*%
%AMMACRO15*
4,1,40,.010315,.004331,
.010231,.005288,
.009983,.006216,
.009577,.007087,
.009025,.007874,
.008346,.008553,
.007559,.009104,
.006688,.00951,
.00576,.009759,
.004803,.009843,
-.004803,.009843,
-.00576,.009759,
-.006688,.00951,
-.007559,.009104,
-.008346,.008553,
-.009025,.007874,
-.009577,.007087,
-.009983,.006216,
-.010231,.005288,
-.010315,.004331,
-.010315,-.004331,
-.010231,-.005288,
-.009983,-.006216,
-.009577,-.007087,
-.009025,-.007874,
-.008346,-.008553,
-.007559,-.009104,
-.006688,-.00951,
-.00576,-.009759,
-.004803,-.009843,
.004803,-.009843,
.00576,-.009759,
.006688,-.00951,
.007559,-.009104,
.008346,-.008553,
.009025,-.007874,
.009577,-.007087,
.009983,-.006216,
.010231,-.005288,
.010315,-.004331,
.010315,.004331,
0.0*
%
%ADD15MACRO15*%
%AMMACRO67*
4,1,44,.035394,-.009803,
.035394,.009803,
.035253,.011511,
.034819,.013168,
.034103,.014725,
.033128,.016134,
.031923,.017352,
.030525,.018342,
.028976,.019074,
.027323,.019526,
.025617,.019685,
.025591,.019685,
-.025591,.019685,
-.027297,.019531,
-.028951,.019083,
-.030502,.018355,
-.031903,.017369,
-.033111,.016154,
-.03409,.014748,
-.03481,.013193,
-.035249,.011537,
-.035394,.00983,
-.035394,.009803,
-.035394,-.009803,
-.035253,-.011511,
-.034819,-.013168,
-.034103,-.014725,
-.033128,-.016134,
-.031923,-.017352,
-.030525,-.018342,
-.028976,-.019074,
-.027323,-.019526,
-.025617,-.019685,
-.025591,-.019685,
.025591,-.019685,
.027297,-.019531,
.028951,-.019083,
.030502,-.018355,
.031903,-.017369,
.033111,-.016154,
.03409,-.014748,
.03481,-.013193,
.035249,-.011537,
.035394,-.00983,
.035394,-.009803,
0.0*
%
%ADD67MACRO67*%
%AMMACRO18*
4,1,40,.004331,-.010315,
.005288,-.010231,
.006216,-.009983,
.007087,-.009577,
.007874,-.009025,
.008553,-.008346,
.009104,-.007559,
.00951,-.006688,
.009759,-.00576,
.009843,-.004803,
.009843,.004803,
.009759,.00576,
.00951,.006688,
.009104,.007559,
.008553,.008346,
.007874,.009025,
.007087,.009577,
.006216,.009983,
.005288,.010231,
.004331,.010315,
-.004331,.010315,
-.005288,.010231,
-.006216,.009983,
-.007087,.009577,
-.007874,.009025,
-.008553,.008346,
-.009104,.007559,
-.00951,.006688,
-.009759,.00576,
-.009843,.004803,
-.009843,-.004803,
-.009759,-.00576,
-.00951,-.006688,
-.009104,-.007559,
-.008553,-.008346,
-.007874,-.009025,
-.007087,-.009577,
-.006216,-.009983,
-.005288,-.010231,
-.004331,-.010315,
.004331,-.010315,
0.0*
%
%ADD18MACRO18*%
%AMMACRO70*
4,1,41,.009055,-.009055,
.012795,-.005276,
.013623,-.004315,
.014258,-.003215,
.014692,-.002022,
.014912,-.000772,
.014911,.000498,
.01469,.001748,
.014256,.002941,
.013621,.00404,
.012795,.005,
.005,.012795,
.004038,.013622,
.002939,.014257,
.001746,.014691,
.000495,.014911,
-.000774,.014911,
-.002025,.014691,
-.003218,.014257,
-.004317,.013622,
-.005276,.012795,
-.012795,.005276,
-.013623,.004315,
-.014258,.003215,
-.014692,.002022,
-.014912,.000772,
-.014911,-.000498,
-.01469,-.001748,
-.014256,-.002941,
-.013621,-.00404,
-.012795,-.005,
-.005,-.012795,
-.004038,-.013622,
-.002939,-.014257,
-.001746,-.014691,
-.000495,-.014911,
.000774,-.014911,
.002025,-.014691,
.003218,-.014257,
.004317,-.013622,
.005276,-.012795,
.009055,-.009055,
0.0*
%
%ADD70MACRO70*%
%AMMACRO54*
4,1,41,0.0,-.027559,
.011339,-.027559,
.013304,-.027384,
.015209,-.02687,
.016995,-.026033,
.01861,-.024898,
.020002,-.023501,
.021131,-.021883,
.021962,-.020093,
.022469,-.018186,
.022638,-.01622,
.022638,.01622,
.022469,.018186,
.021962,.020093,
.021131,.021883,
.020002,.023501,
.01861,.024898,
.016995,.026033,
.015209,.02687,
.013304,.027384,
.011339,.027559,
-.011339,.027559,
-.013304,.027384,
-.015209,.02687,
-.016995,.026033,
-.01861,.024898,
-.020002,.023501,
-.021131,.021883,
-.021962,.020093,
-.022469,.018186,
-.022638,.01622,
-.022638,-.01622,
-.022469,-.018186,
-.021962,-.020093,
-.021131,-.021883,
-.020002,-.023501,
-.01861,-.024898,
-.016995,-.026033,
-.015209,-.02687,
-.013304,-.027384,
-.011339,-.027559,
0.0,-.027559,
0.0*
%
%ADD54MACRO54*%
%AMMACRO49*
4,1,41,.012795,0.0,
.012795,.005315,
.012685,.00658,
.012356,.007806,
.011819,.008957,
.011091,.009997,
.010194,.010894,
.009154,.011623,
.008003,.012159,
.006777,.012488,
.005512,.012598,
-.005512,.012598,
-.006777,.012488,
-.008003,.012159,
-.009154,.011623,
-.010194,.010894,
-.011091,.009997,
-.011819,.008957,
-.012356,.007806,
-.012685,.00658,
-.012795,.005315,
-.012795,-.005315,
-.012685,-.00658,
-.012356,-.007806,
-.011819,-.008957,
-.011091,-.009997,
-.010194,-.010894,
-.009154,-.011623,
-.008003,-.012159,
-.006777,-.012488,
-.005512,-.012598,
.005512,-.012598,
.006777,-.012488,
.008003,-.012159,
.009154,-.011623,
.010194,-.010894,
.011091,-.009997,
.011819,-.008957,
.012356,-.007806,
.012685,-.00658,
.012795,-.005315,
.012795,0.0,
0.0*
%
%ADD49MACRO49*%
%AMMACRO34*
4,1,41,0.0,-.007913,
.003189,-.007913,
.003661,-.007871,
.004119,-.007748,
.004549,-.007547,
.004937,-.007274,
.005272,-.006939,
.005543,-.00655,
.005743,-.00612,
.005865,-.005662,
.005906,-.005197,
.005906,.005197,
.005864,.005669,
.00574,.006127,
.005539,.006556,
.005267,.006944,
.004931,.007279,
.004543,.007551,
.004113,.00775,
.003655,.007873,
.003189,.007913,
-.003189,.007913,
-.003661,.007871,
-.004119,.007748,
-.004549,.007547,
-.004937,.007274,
-.005272,.006939,
-.005543,.00655,
-.005743,.00612,
-.005865,.005662,
-.005906,.005197,
-.005906,-.005197,
-.005864,-.005669,
-.00574,-.006127,
-.005539,-.006556,
-.005267,-.006944,
-.004931,-.007279,
-.004543,-.007551,
-.004113,-.00775,
-.003655,-.007873,
-.003189,-.007913,
0.0,-.007913,
0.0*
%
%ADD34MACRO34*%
%ADD22O,.035394X.015709*%
%AMMACRO50*
4,1,41,0.0,-.012795,
.005315,-.012795,
.00658,-.012685,
.007806,-.012356,
.008957,-.011819,
.009997,-.011091,
.010894,-.010194,
.011623,-.009154,
.012159,-.008003,
.012488,-.006777,
.012598,-.005512,
.012598,.005512,
.012488,.006777,
.012159,.008003,
.011623,.009154,
.010894,.010194,
.009997,.011091,
.008957,.011819,
.007806,.012356,
.00658,.012685,
.005315,.012795,
-.005315,.012795,
-.00658,.012685,
-.007806,.012356,
-.008957,.011819,
-.009997,.011091,
-.010894,.010194,
-.011623,.009154,
-.012159,.008003,
-.012488,.006777,
-.012598,.005512,
-.012598,-.005512,
-.012488,-.006777,
-.012159,-.008003,
-.011623,-.009154,
-.010894,-.010194,
-.009997,-.011091,
-.008957,-.011819,
-.007806,-.012356,
-.00658,-.012685,
-.005315,-.012795,
0.0,-.012795,
0.0*
%
%ADD50MACRO50*%
%ADD114C,.003937*%
%ADD115C,.003898*%
%ADD116C,.007087*%
G75*
%LPD*%
G75*
G54D100*
X1001181Y1069370D03*
G54D101*
X1005118Y1063583D03*
X1003150D03*
X1001181D03*
X999213D03*
X997244D03*
Y1075157D03*
X999213D03*
X1001181D03*
X1003150D03*
X1005118D03*
G54D110*
X960571Y1086417D03*
G54D111*
X964055Y1080118D03*
Y1082087D03*
Y1084055D03*
Y1086024D03*
X957087Y1080118D03*
Y1082087D03*
Y1084055D03*
Y1086024D03*
G54D102*
X1000000Y1031417D03*
G54D112*
X999311Y1123622D03*
X996752D03*
X994193D03*
X991634D03*
Y1140551D03*
X994193D03*
X996752D03*
X999311D03*
G54D103*
X1003937Y1025630D03*
X1001969D03*
X1000000D03*
X998031D03*
X996063D03*
Y1037205D03*
X998031D03*
X1000000D03*
X1001969D03*
X1003937D03*
G54D10*
X795866Y720472D03*
X806496Y1159449D03*
X1009646Y720472D03*
G54D104*
X980906Y1031024D03*
X986024D03*
X980906Y1038583D03*
X983465D03*
X986024D03*
G54D113*
X1008268Y1095276D03*
Y1107087D03*
G54D11*
X803150Y863386D03*
X800787Y865748D03*
X881528Y876787D03*
X882677Y885433D03*
X884063Y874248D03*
X883492Y859681D03*
X893122Y855130D03*
X890457Y846362D03*
X886709Y871594D03*
X914555Y847055D03*
X904283Y873402D03*
X911409Y871457D03*
X906406Y871142D03*
G54D20*
X802362Y1044882D03*
Y1046457D03*
Y1048031D03*
Y1049606D03*
Y1051181D03*
Y1052756D03*
Y1054331D03*
Y1055906D03*
Y1057480D03*
Y1059055D03*
Y1060630D03*
Y1062205D03*
Y1063780D03*
Y1065354D03*
Y1066929D03*
Y1068504D03*
Y1070079D03*
Y1071654D03*
Y1073228D03*
Y1074803D03*
Y1076378D03*
Y1077953D03*
Y1079528D03*
Y1081102D03*
Y1082677D03*
Y1084252D03*
Y1085827D03*
Y1087402D03*
Y1088976D03*
Y1090551D03*
Y1092126D03*
Y1093701D03*
X862992Y1068504D03*
Y1066929D03*
Y1065354D03*
Y1063780D03*
Y1062205D03*
Y1060630D03*
Y1059055D03*
Y1057480D03*
Y1055906D03*
Y1054331D03*
Y1052756D03*
Y1051181D03*
Y1049606D03*
Y1048031D03*
Y1046457D03*
Y1044882D03*
Y1093701D03*
Y1092126D03*
Y1090551D03*
Y1088976D03*
Y1087402D03*
Y1085827D03*
Y1084252D03*
Y1082677D03*
Y1081102D03*
Y1079528D03*
Y1077953D03*
Y1076378D03*
Y1074803D03*
Y1073228D03*
Y1071654D03*
Y1070079D03*
G54D114*
G01X790945Y638681D02*
Y579626D01*
X1086220D01*
Y638681D01*
X790945D01*
G01X938583D02*
Y579626D01*
G01Y599311D02*
X1086220D01*
G01Y618996D02*
X938583D01*
G01X988488D02*
Y599311D01*
G54D105*
X1000000Y1055709D03*
Y1044291D03*
G54D12*
X800579Y860815D03*
X798217Y863177D03*
X878957Y874217D03*
X880106Y882862D03*
X881492Y871677D03*
X880921Y857110D03*
X890551Y852559D03*
X887886Y843791D03*
X884138Y869024D03*
X911984Y844484D03*
X901713Y870831D03*
X908839Y868886D03*
X903835Y868571D03*
G54D30*
X834646Y1105669D03*
Y1107874D03*
X831890Y1105669D03*
Y1107874D03*
X829134Y1105669D03*
Y1107874D03*
X826378Y1105669D03*
Y1107874D03*
X823622Y1105669D03*
Y1107874D03*
X820866Y1105669D03*
Y1107874D03*
X818110Y1105669D03*
Y1107874D03*
X811811Y1107441D03*
Y1109646D03*
X839370Y1112756D03*
Y1114961D03*
X838583Y1130472D03*
Y1132677D03*
G54D21*
X835039Y1038976D03*
X833465D03*
X831890D03*
X830315D03*
X828740D03*
X827165D03*
X825591D03*
X824016D03*
X822441D03*
X820866D03*
X819291D03*
X817717D03*
X816142D03*
X814567D03*
X812992D03*
X811417D03*
X809843D03*
X808268D03*
Y1099606D03*
X809843D03*
X811417D03*
X812992D03*
X814567D03*
X816142D03*
X817717D03*
X819291D03*
X820866D03*
X822441D03*
X824016D03*
X825591D03*
X827165D03*
X828740D03*
X830315D03*
X831890D03*
X833465D03*
X835039D03*
X857087Y1038976D03*
X855512D03*
X853937D03*
X852362D03*
X850787D03*
X849213D03*
X847638D03*
X846063D03*
X844488D03*
X842913D03*
X841339D03*
X839764D03*
X838189D03*
X836614D03*
Y1099606D03*
X838189D03*
X839764D03*
X841339D03*
X842913D03*
X844488D03*
X846063D03*
X847638D03*
X849213D03*
X850787D03*
X852362D03*
X853937D03*
X855512D03*
X857087D03*
G54D115*
G01X794390Y692913D02*
X1011220D01*
G03X1017913Y700591I-552J7237D01*
G01Y964567D01*
G03X1013583Y976969I-19922J0D01*
G02X1009252Y989370I15591J12402D01*
G02X1013583Y1001772I19922J0D01*
G03X1017913Y1014173I-15591J12402D01*
G01Y1158811D01*
G03X1012157Y1164567I-5756J0D01*
G01X849803D01*
Y1159843D01*
X843504D01*
Y1151575D01*
X839961D01*
Y1159843D01*
X825000D01*
Y1151575D01*
X821457D01*
Y1159843D01*
X815157D01*
Y1164567D01*
X793354D01*
G03X787598Y1158811I0J-5756D01*
G01Y1014173D01*
G03X791929Y1001772I19922J0D01*
G02X796260Y989370I-15591J-12402D01*
G02X791929Y976969I-19922J0D01*
G03X787598Y964567I15591J-12402D01*
G01Y700591D01*
G03X794390Y692913I8087J312D01*
G01X950913Y586071D02*
Y593571D01*
X952780D01*
X953524Y593197D01*
X954083Y592697D01*
X954551Y591945D01*
X954925Y591071D01*
X955016Y589819D01*
X954925Y588571D01*
X954551Y587697D01*
X954083Y586945D01*
X953524Y586445D01*
X952780Y586071D01*
X950913D01*
G01X958130D02*
X960465Y593571D01*
X962799Y586071D01*
G01X961957Y588697D02*
X958972D01*
G01X967965Y593571D02*
Y586071D01*
G01X965819Y593571D02*
X970110D01*
G01X977331Y586071D02*
X973598D01*
Y593571D01*
X977331D01*
G01X975839Y589945D02*
X973598D01*
G01X982965Y585823D02*
X982780Y585945D01*
Y586197D01*
X982965Y586319D01*
X983150Y586197D01*
Y585945D01*
X982965Y585823D01*
G01Y589197D02*
X982780Y589319D01*
Y589571D01*
X982965Y589697D01*
X983150Y589571D01*
Y589319D01*
X982965Y589197D01*
G01X996193Y592323D02*
X996752Y593071D01*
X997406Y593445D01*
X998150Y593571D01*
X999083Y593323D01*
X999736Y592697D01*
X999925Y591945D01*
X999831Y591197D01*
X999457Y590571D01*
X997591Y589319D01*
X996752Y588445D01*
X996193Y587197D01*
X996004Y586071D01*
X999925D01*
G01X1005465Y593571D02*
X1004717Y593323D01*
X1004157Y592697D01*
X1003783Y591945D01*
X1003504Y590945D01*
X1003413Y589819D01*
X1003504Y588697D01*
X1003783Y587697D01*
X1004157Y586945D01*
X1004717Y586319D01*
X1005465Y586071D01*
X1006213Y586319D01*
X1006772Y586945D01*
X1007146Y587697D01*
X1007425Y588697D01*
X1007516Y589819D01*
X1007425Y590945D01*
X1007146Y591945D01*
X1006772Y592697D01*
X1006213Y593323D01*
X1005465Y593571D01*
G01X1012965Y586071D02*
Y593571D01*
X1011846Y592071D01*
G01Y586071D02*
X1014083D01*
G01X1020465D02*
X1021118Y586197D01*
X1021862Y586571D01*
X1022331Y587197D01*
X1022516Y588071D01*
X1022331Y588945D01*
X1021772Y589697D01*
X1020929Y590071D01*
X1020000D01*
X1019437Y590323D01*
X1018972Y590945D01*
X1018783Y591819D01*
X1019067Y592697D01*
X1019717Y593323D01*
X1020465Y593571D01*
X1021213Y593323D01*
X1021862Y592697D01*
X1022146Y591819D01*
X1021957Y590945D01*
X1021492Y590323D01*
X1020929Y590071D01*
X1020000D01*
X1019157Y589697D01*
X1018598Y588945D01*
X1018413Y588071D01*
X1018598Y587197D01*
X1019067Y586571D01*
X1019811Y586197D01*
X1020465Y586071D01*
G01X1026752Y588571D02*
X1029177D01*
G01X1035465Y586071D02*
Y593571D01*
X1034346Y592071D01*
G01Y586071D02*
X1036583D01*
G01X1042965Y593571D02*
X1042217Y593323D01*
X1041657Y592697D01*
X1041283Y591945D01*
X1041004Y590945D01*
X1040913Y589819D01*
X1041004Y588697D01*
X1041283Y587697D01*
X1041657Y586945D01*
X1042217Y586319D01*
X1042965Y586071D01*
X1043713Y586319D01*
X1044272Y586945D01*
X1044646Y587697D01*
X1044925Y588697D01*
X1045016Y589819D01*
X1044925Y590945D01*
X1044646Y591945D01*
X1044272Y592697D01*
X1043713Y593323D01*
X1042965Y593571D01*
G01X1049252Y588571D02*
X1051677D01*
G01X1056193Y592323D02*
X1056752Y593071D01*
X1057406Y593445D01*
X1058150Y593571D01*
X1059083Y593323D01*
X1059736Y592697D01*
X1059925Y591945D01*
X1059831Y591197D01*
X1059457Y590571D01*
X1057591Y589319D01*
X1056752Y588445D01*
X1056193Y587197D01*
X1056004Y586071D01*
X1059925D01*
G01X1063413Y587197D02*
X1063972Y586571D01*
X1064626Y586197D01*
X1065465Y586071D01*
X1066303Y586319D01*
X1066957Y586819D01*
X1067425Y587697D01*
X1067516Y588697D01*
X1067331Y589697D01*
X1066862Y590323D01*
X1066213Y590819D01*
X1065559Y590945D01*
X1064906Y590819D01*
X1064067Y590323D01*
X1064346Y593571D01*
X1066862D01*
G01X943650Y606201D02*
Y613701D01*
X945890D01*
X946634Y613327D01*
X947197Y612453D01*
X947382Y611453D01*
X947197Y610453D01*
X946728Y609701D01*
X945890Y609327D01*
X943650D01*
G01X950591Y606201D02*
Y613701D01*
X953016Y607449D01*
X955441Y613701D01*
Y606201D01*
G01X968016Y613701D02*
Y606201D01*
G01X965870Y613701D02*
X970161D01*
G01X975516Y606201D02*
X974768Y606327D01*
X974118Y606827D01*
X973555Y607575D01*
X973181Y608449D01*
X972996Y609449D01*
Y610453D01*
X973181Y611453D01*
X973555Y612327D01*
X974118Y613075D01*
X974768Y613575D01*
X975516Y613701D01*
X976264Y613575D01*
X976913Y613075D01*
X977476Y612327D01*
X977850Y611453D01*
X978035Y610453D01*
Y609449D01*
X977850Y608449D01*
X977476Y607575D01*
X976913Y606827D01*
X976264Y606327D01*
X975516Y606201D01*
G01X981150D02*
Y613701D01*
X983390D01*
X984134Y613327D01*
X984697Y612453D01*
X984882Y611453D01*
X984697Y610453D01*
X984228Y609701D01*
X983390Y609327D01*
X981150D01*
G01X952768Y632744D02*
Y625244D01*
G01X950622Y632744D02*
X954913D01*
G01X962134Y625244D02*
X958402D01*
Y632744D01*
X962134D01*
G01X960642Y629118D02*
X958402D01*
G01X965807Y625244D02*
X969728Y632744D01*
G01X965807D02*
X969728Y625244D01*
G01X972933D02*
X975268Y632744D01*
X977602Y625244D01*
G01X976760Y627870D02*
X973776D01*
G01X980807Y626244D02*
X981555Y625618D01*
X982394Y625244D01*
X983142D01*
X983886Y625618D01*
X984449Y626244D01*
X984728Y627118D01*
X984539Y627992D01*
X984075Y628744D01*
X983232Y629244D01*
X982114Y629496D01*
X981461Y629992D01*
X981181Y630870D01*
X981370Y631744D01*
X981835Y632370D01*
X982488Y632744D01*
X983142D01*
X983795Y632496D01*
X984354Y631870D01*
G01X996650Y632744D02*
X998886D01*
G01X997768D02*
Y625244D01*
G01X996650D02*
X998886D01*
G01X1003122D02*
Y632744D01*
X1007413Y625244D01*
Y632744D01*
G01X1010807Y626244D02*
X1011555Y625618D01*
X1012394Y625244D01*
X1013142D01*
X1013886Y625618D01*
X1014449Y626244D01*
X1014728Y627118D01*
X1014539Y627992D01*
X1014075Y628744D01*
X1013232Y629244D01*
X1012114Y629496D01*
X1011461Y629992D01*
X1011181Y630870D01*
X1011370Y631744D01*
X1011835Y632370D01*
X1012488Y632744D01*
X1013142D01*
X1013795Y632496D01*
X1014354Y631870D01*
G01X1020268Y632744D02*
Y625244D01*
G01X1018122Y632744D02*
X1022413D01*
G01X1025902Y625244D02*
Y632744D01*
X1028232D01*
X1028980Y632370D01*
X1029449Y631870D01*
X1029634Y630870D01*
X1029449Y629870D01*
X1028886Y629244D01*
X1028232Y628870D01*
X1025902D01*
G01X1028232D02*
X1029634Y625244D01*
G01X1033217Y632744D02*
Y627370D01*
X1033587Y626244D01*
X1034335Y625492D01*
X1035268Y625244D01*
X1036201Y625492D01*
X1036949Y626244D01*
X1037319Y627370D01*
Y632744D01*
G01X1040343Y625244D02*
Y632744D01*
X1042768Y626492D01*
X1045193Y632744D01*
Y625244D01*
G01X1052134D02*
X1048402D01*
Y632744D01*
X1052134D01*
G01X1050642Y629118D02*
X1048402D01*
G01X1055622Y625244D02*
Y632744D01*
X1059913Y625244D01*
Y632744D01*
G01X1065268D02*
Y625244D01*
G01X1063122Y632744D02*
X1067413D01*
G01X1070807Y626244D02*
X1071555Y625618D01*
X1072394Y625244D01*
X1073142D01*
X1073886Y625618D01*
X1074449Y626244D01*
X1074728Y627118D01*
X1074539Y627992D01*
X1074075Y628744D01*
X1073232Y629244D01*
X1072114Y629496D01*
X1071461Y629992D01*
X1071181Y630870D01*
X1071370Y631744D01*
X1071835Y632370D01*
X1072488Y632744D01*
X1073142D01*
X1073795Y632496D01*
X1074354Y631870D01*
G54D22*
X835039Y1027559D03*
Y1030118D03*
Y1032677D03*
X843701D03*
Y1027559D03*
G54D31*
X835976Y1152165D03*
X828591D03*
G54D13*
X804232Y981102D03*
Y997638D03*
G54D106*
X969488Y1108071D03*
X967520D03*
X965551D03*
X963583D03*
X961614D03*
X959646D03*
X957677D03*
X955709D03*
Y1133268D03*
X957677D03*
X959646D03*
X961614D03*
X963583D03*
X965551D03*
X967520D03*
X969488D03*
G54D40*
X903445Y898425D03*
G54D116*
G01X993799Y609350D02*
X994441Y605217D01*
X995177Y609350D01*
X995913Y605217D01*
X996555Y609350D01*
G01X999339Y609004D02*
X999063Y609213D01*
X998740Y609350D01*
X998374D01*
X997961Y609142D01*
X997638Y608799D01*
X997409Y608386D01*
X997224Y607697D01*
X997177Y607075D01*
X997272Y606457D01*
X997409Y606043D01*
X997685Y605630D01*
X998004Y605354D01*
X998327Y605217D01*
X998650D01*
X998969Y605354D01*
X999244Y605559D01*
X999476Y605835D01*
G01X1000512Y605768D02*
X1000878Y605421D01*
X1001291Y605217D01*
X1001661D01*
X1002028Y605421D01*
X1002303Y605768D01*
X1002441Y606252D01*
X1002350Y606732D01*
X1002118Y607146D01*
X1001705Y607421D01*
X1001154Y607559D01*
X1000835Y607835D01*
X1000697Y608315D01*
X1000787Y608799D01*
X1001016Y609142D01*
X1001339Y609350D01*
X1001661D01*
X1001980Y609213D01*
X1002256Y608866D01*
G01X1004626Y609350D02*
X1004260Y609213D01*
X1003984Y608866D01*
X1003799Y608457D01*
X1003661Y607902D01*
X1003614Y607283D01*
X1003661Y606661D01*
X1003799Y606110D01*
X1003984Y605697D01*
X1004260Y605354D01*
X1004626Y605217D01*
X1004992Y605354D01*
X1005268Y605697D01*
X1005453Y606110D01*
X1005591Y606661D01*
X1005638Y607283D01*
X1005591Y607902D01*
X1005453Y608457D01*
X1005268Y608866D01*
X1004992Y609213D01*
X1004626Y609350D01*
G01X1006764Y606043D02*
X1007039Y605559D01*
X1007409Y605283D01*
X1007823Y605217D01*
X1008189Y605283D01*
X1008555Y605630D01*
X1008787Y606043D01*
X1008831Y606457D01*
X1008740Y606937D01*
X1008417Y607283D01*
X1008098Y607421D01*
X1007685D01*
G01X1008098D02*
X1008374Y607626D01*
X1008602Y607972D01*
X1008693Y608386D01*
X1008602Y608799D01*
X1008374Y609142D01*
X1007961Y609350D01*
X1007547Y609283D01*
X1007134Y609004D01*
G01X1010925Y605217D02*
X1011248Y605283D01*
X1011614Y605492D01*
X1011843Y605835D01*
X1011937Y606319D01*
X1011843Y606799D01*
X1011567Y607213D01*
X1011154Y607421D01*
X1010697D01*
X1010421Y607559D01*
X1010189Y607902D01*
X1010098Y608386D01*
X1010236Y608866D01*
X1010559Y609213D01*
X1010925Y609350D01*
X1011291Y609213D01*
X1011614Y608866D01*
X1011752Y608386D01*
X1011661Y607902D01*
X1011429Y607559D01*
X1011154Y607421D01*
X1010697D01*
X1010283Y607213D01*
X1010008Y606799D01*
X1009913Y606319D01*
X1010008Y605835D01*
X1010236Y605492D01*
X1010602Y605283D01*
X1010925Y605217D01*
G01X993669Y616831D02*
Y612697D01*
X995504D01*
G01X996587D02*
X997736Y616831D01*
X998886Y612697D01*
G01X998472Y614142D02*
X997000D01*
G01X999874Y616831D02*
Y613870D01*
X1000059Y613248D01*
X1000425Y612835D01*
X1000886Y612697D01*
X1001346Y612835D01*
X1001713Y613248D01*
X1001898Y613870D01*
Y616831D01*
G01X1002980Y612697D02*
Y616831D01*
X1005091Y612697D01*
Y616831D01*
G01X1008197Y616484D02*
X1007921Y616693D01*
X1007598Y616831D01*
X1007232D01*
X1006819Y616622D01*
X1006496Y616280D01*
X1006268Y615866D01*
X1006083Y615177D01*
X1006035Y614555D01*
X1006130Y613937D01*
X1006268Y613524D01*
X1006543Y613110D01*
X1006862Y612835D01*
X1007185Y612697D01*
X1007508D01*
X1007827Y612835D01*
X1008102Y613039D01*
X1008335Y613315D01*
G01X1009370Y612697D02*
Y616831D01*
G01X1011299D02*
Y612697D01*
G01Y614764D02*
X1009370D01*
G01X1012520Y612697D02*
X1014449Y616831D01*
G01X1012520D02*
X1014449Y612697D01*
G01X1015717Y616831D02*
Y612697D01*
X1017551D01*
G01X1019185Y614075D02*
X1020382D01*
G01X1023945Y616484D02*
X1023669Y616693D01*
X1023346Y616831D01*
X1022980D01*
X1022567Y616622D01*
X1022244Y616280D01*
X1022016Y615866D01*
X1021831Y615177D01*
X1021783Y614555D01*
X1021878Y613937D01*
X1022016Y613524D01*
X1022291Y613110D01*
X1022610Y612835D01*
X1022933Y612697D01*
X1023256D01*
X1023575Y612835D01*
X1023850Y613039D01*
X1024083Y613315D01*
G01X1027094Y616484D02*
X1026819Y616693D01*
X1026496Y616831D01*
X1026130D01*
X1025717Y616622D01*
X1025394Y616280D01*
X1025165Y615866D01*
X1024980Y615177D01*
X1024933Y614555D01*
X1025028Y613937D01*
X1025165Y613524D01*
X1025441Y613110D01*
X1025760Y612835D01*
X1026083Y612697D01*
X1026406D01*
X1026724Y612835D01*
X1027000Y613039D01*
X1027232Y613315D01*
G01X1029232Y612697D02*
Y616831D01*
X1028681Y616004D01*
G01Y612697D02*
X1029783D01*
G01X1031370Y613524D02*
X1031646Y613039D01*
X1032016Y612764D01*
X1032429Y612697D01*
X1032795Y612764D01*
X1033161Y613110D01*
X1033394Y613524D01*
X1033437Y613937D01*
X1033346Y614417D01*
X1033024Y614764D01*
X1032705Y614902D01*
X1032291D01*
G01X1032705D02*
X1032980Y615106D01*
X1033209Y615453D01*
X1033299Y615866D01*
X1033209Y616280D01*
X1032980Y616622D01*
X1032567Y616831D01*
X1032154Y616764D01*
X1031740Y616484D01*
G01X1034520Y613315D02*
X1034795Y612972D01*
X1035118Y612764D01*
X1035531Y612697D01*
X1035945Y612835D01*
X1036268Y613110D01*
X1036496Y613591D01*
X1036543Y614142D01*
X1036449Y614693D01*
X1036220Y615039D01*
X1035898Y615315D01*
X1035579Y615382D01*
X1035256Y615315D01*
X1034843Y615039D01*
X1034980Y616831D01*
X1036220D01*
G01X1037807Y616142D02*
X1038083Y616555D01*
X1038406Y616764D01*
X1038772Y616831D01*
X1039232Y616693D01*
X1039555Y616346D01*
X1039646Y615937D01*
X1039598Y615520D01*
X1039417Y615177D01*
X1038496Y614488D01*
X1038083Y614004D01*
X1037807Y613315D01*
X1037717Y612697D01*
X1039646D01*
G01X1040913D02*
Y616831D01*
X1042059D01*
X1042429Y616622D01*
X1042657Y616346D01*
X1042748Y615795D01*
X1042657Y615244D01*
X1042382Y614902D01*
X1042059Y614693D01*
X1040913D01*
G01X1042059D02*
X1042748Y612697D01*
G01X1044980D02*
Y616831D01*
X1044429Y616004D01*
G01Y612697D02*
X1045531D01*
G01X1023098Y605315D02*
Y609449D01*
X1024244D01*
X1024614Y609240D01*
X1024843Y608965D01*
X1024933Y608413D01*
X1024843Y607862D01*
X1024567Y607520D01*
X1024244Y607311D01*
X1023098D01*
G01X1024244D02*
X1024933Y605315D01*
G01X1026476Y607173D02*
X1027945D01*
X1027807Y607657D01*
X1027579Y607933D01*
X1027256Y608071D01*
X1026937Y608000D01*
X1026661Y607795D01*
X1026476Y607311D01*
X1026386Y606898D01*
Y606488D01*
X1026476Y606071D01*
X1026705Y605657D01*
X1026980Y605382D01*
X1027303Y605315D01*
X1027626Y605453D01*
X1027945Y605866D01*
G01X1029488Y608071D02*
X1030315Y605315D01*
X1031142Y608071D01*
G01X1033465Y605177D02*
X1033374Y605248D01*
Y605382D01*
X1033465Y605453D01*
X1033555Y605382D01*
Y605248D01*
X1033465Y605177D01*
G01X1040130Y607520D02*
X1040315Y607724D01*
X1040453Y608071D01*
X1040543Y608555D01*
X1040453Y608965D01*
X1040268Y609240D01*
X1039949Y609449D01*
X1038709D01*
Y605315D01*
X1040224D01*
X1040543Y605591D01*
X1040728Y606004D01*
X1040819Y606488D01*
X1040728Y606969D01*
X1040453Y607382D01*
X1040130Y607520D01*
X1038709D01*
G54D50*
X877362Y1053543D03*
Y1057087D03*
X943701Y1091339D03*
Y1094882D03*
X917520Y1111220D03*
Y1114764D03*
X920669Y1091535D03*
Y1095079D03*
X947047Y1081496D03*
Y1085039D03*
X958661Y1062598D03*
Y1066142D03*
X966535Y1062598D03*
Y1066142D03*
X955118Y1070276D03*
X966142D03*
X962598Y1062598D03*
Y1066142D03*
X974213Y1081496D03*
Y1085039D03*
X955118Y1073819D03*
X966142D03*
X956693Y1094488D03*
Y1098031D03*
X964567Y1094488D03*
Y1098031D03*
X1010039Y1079921D03*
Y1083465D03*
X1005315Y1119882D03*
Y1123425D03*
G54D32*
X822591Y1143110D03*
X841976D03*
G54D14*
X797146Y976083D03*
Y1002657D03*
G54D23*
X792913Y1057480D03*
X796457D03*
X840157Y1136811D03*
X843701D03*
X944094Y1068307D03*
X947638D03*
X919685Y1047835D03*
X923228D03*
X988976Y1082480D03*
X992520D03*
X980709Y1106102D03*
X984252D03*
X988976Y1086220D03*
X992520D03*
X988976Y1089764D03*
X992520D03*
X988976Y1078740D03*
X992520D03*
X965354Y1090748D03*
X968898D03*
G54D107*
X1005906Y1086220D03*
Y1084646D03*
X998425D03*
Y1086220D03*
G54D41*
X874646Y838315D03*
X930094Y838472D03*
G54D15*
X809843Y981102D03*
X825787Y1029921D03*
X792819Y1061024D03*
Y1064567D03*
X825591Y1033661D03*
X797000Y1117961D03*
X880220Y893504D03*
Y896850D03*
X857283Y1020472D03*
X848425Y1033071D03*
X885339Y1069882D03*
X891047Y1106299D03*
X871559Y1089567D03*
X871654Y1085827D03*
Y1082283D03*
X871559Y1078937D03*
X855906Y1107480D03*
X871559Y1092717D03*
X891142Y1103150D03*
X840457Y1125197D03*
X854134Y1126969D03*
X847150Y1104528D03*
X854331D03*
X863142Y1142717D03*
X902165Y805709D03*
Y824213D03*
X898528Y809646D03*
X922000Y887402D03*
X910866Y850591D03*
X914764Y860433D03*
X921260Y905413D03*
X934748Y1060236D03*
X923819Y1019488D03*
X944094Y1071850D03*
X914276Y1076181D03*
X902559D03*
X914370Y1073031D03*
X927559Y1099409D03*
X902165Y1092717D03*
X915157Y1134252D03*
X919197Y1155906D03*
X958567Y863583D03*
X956992Y847441D03*
X1007480Y968898D03*
X953937Y1009055D03*
X984055Y1048425D03*
Y1051969D03*
X981102Y1045079D03*
X981008Y1055118D03*
X981205Y1128740D03*
Y1122638D03*
X972150Y1102953D03*
X981299Y1119685D03*
X981205Y1131693D03*
X990551Y1145866D03*
X970969Y1138189D03*
G54D60*
X859547Y1148031D03*
X876083D03*
G54D24*
X829646Y1023622D03*
X827441D03*
X829646Y1020472D03*
X827441D03*
X804567Y1103937D03*
X802362D03*
X804567Y1100984D03*
X802362D03*
X825630Y1137205D03*
X823425D03*
X811929Y1133071D03*
X809724D03*
X841378Y1127953D03*
X839173D03*
X842362Y1122441D03*
X840157D03*
X840787Y1109843D03*
X838583D03*
G54D42*
X874646Y844614D03*
X930094Y844772D03*
G54D33*
X834843Y1141732D03*
X832283D03*
X829724D03*
X827165D03*
X837402D03*
G54D51*
X893937Y1023917D03*
X892362D03*
X890787D03*
Y1033563D03*
X892362D03*
X893937D03*
X864606Y1023917D03*
X863031D03*
X861457D03*
X859882D03*
Y1033563D03*
X861457D03*
X863031D03*
X864606D03*
X879764Y1023917D03*
X878189D03*
X876614D03*
X875039D03*
Y1033563D03*
X876614D03*
X878189D03*
X879764D03*
X895512Y1023917D03*
Y1033563D03*
G54D108*
X1005315Y1081693D03*
X1003740D03*
X1002165D03*
X1000591D03*
X999016D03*
Y1089173D03*
X1000591D03*
X1002165D03*
X1003740D03*
X1005315D03*
G54D34*
X832283Y1136969D03*
X830315D03*
X828346D03*
X832283Y1134646D03*
X830315D03*
X828346D03*
G54D70*
X899157Y873283D03*
X896654Y875787D03*
X901913Y875843D03*
X899409Y878346D03*
X913724Y864031D03*
X911220Y866535D03*
G54D52*
X889941Y1026378D03*
Y1027953D03*
Y1029528D03*
Y1031102D03*
X859035Y1026378D03*
Y1027953D03*
Y1029528D03*
Y1031102D03*
X865453D03*
Y1029528D03*
Y1027953D03*
X874193Y1026378D03*
Y1027953D03*
Y1029528D03*
Y1031102D03*
X880610D03*
Y1029528D03*
Y1027953D03*
X896358Y1031102D03*
Y1029528D03*
Y1027953D03*
G54D25*
X835039Y1128150D03*
Y1126181D03*
Y1124213D03*
Y1122244D03*
Y1120276D03*
Y1118307D03*
Y1116339D03*
Y1114370D03*
X815748D03*
Y1116339D03*
Y1118307D03*
Y1120276D03*
Y1122244D03*
Y1124213D03*
Y1126181D03*
Y1128150D03*
G54D16*
X813480Y981102D03*
X829425Y1029921D03*
X796457Y1061024D03*
Y1064567D03*
X829228Y1033661D03*
X800638Y1117961D03*
X883858Y893504D03*
Y896850D03*
X860921Y1020472D03*
X852063Y1033071D03*
X888976Y1069882D03*
X894685Y1106299D03*
X875197Y1089567D03*
X875291Y1085827D03*
Y1082283D03*
X875197Y1078937D03*
X859543Y1107480D03*
X875197Y1092717D03*
X894780Y1103150D03*
X844094Y1125197D03*
X857772Y1126969D03*
X850787Y1104528D03*
X857969D03*
X866780Y1142717D03*
X905803Y805709D03*
Y824213D03*
X902165Y809646D03*
X925638Y887402D03*
X914504Y850591D03*
X918402Y860433D03*
X924898Y905413D03*
X938386Y1060236D03*
X927457Y1019488D03*
X947732Y1071850D03*
X917913Y1076181D03*
X906197D03*
X918008Y1073031D03*
X931197Y1099409D03*
X905803Y1092717D03*
X918795Y1134252D03*
X922835Y1155906D03*
X962205Y863583D03*
X960630Y847441D03*
X1011118Y968898D03*
X957575Y1009055D03*
X987693Y1048425D03*
Y1051969D03*
X984740Y1045079D03*
X984646Y1055118D03*
X984843Y1128740D03*
Y1122638D03*
X975787Y1102953D03*
X984937Y1119685D03*
X984843Y1131693D03*
X994189Y1145866D03*
X974606Y1138189D03*
G54D43*
X870906Y841465D03*
X878386D03*
G54D109*
X960571Y1079449D03*
G54D61*
X854528Y1155118D03*
X881102D03*
G54D53*
X864961Y1026378D03*
X880118D03*
X895866D03*
G54D62*
X881890Y1135827D03*
Y1142126D03*
X940945Y1041732D03*
Y1048031D03*
G54D26*
X832283Y1111614D03*
X830315D03*
X828346D03*
X826378D03*
X824409D03*
X822441D03*
X820472D03*
X818504D03*
Y1130906D03*
X820472D03*
X822441D03*
X824409D03*
X826378D03*
X828346D03*
X830315D03*
X832283D03*
X955709Y1147244D03*
X957677D03*
X959646D03*
X961614D03*
X955709Y1159449D03*
X957677D03*
X959646D03*
X961614D03*
G54D17*
X791339Y1047831D03*
Y1053740D03*
X796457Y1047831D03*
Y1053740D03*
G54D71*
X906244Y866480D03*
X903740Y863976D03*
G54D80*
X930157Y1064370D03*
X939173Y1068110D03*
Y1064370D03*
X930157Y1071850D03*
X939173D03*
G54D44*
X874850Y891606D03*
X870953Y887709D03*
X877913Y888543D03*
X874016Y884646D03*
G54D35*
X849016Y851776D03*
Y845866D03*
X858858Y851776D03*
Y845866D03*
G54D54*
X860630Y1122047D03*
Y1112205D03*
X852756D03*
Y1122047D03*
G54D18*
X822441Y1033465D03*
X796457Y1044291D03*
X791339Y1044094D03*
X815945Y1031496D03*
X819291D03*
X796654Y1087402D03*
X796457Y1072535D03*
X807087Y1127953D03*
X810039Y1151669D03*
X858858Y859150D03*
X849016D03*
X880709Y865945D03*
X879035Y914961D03*
X875000Y915055D03*
X877362Y1064173D03*
X871260Y1055512D03*
X893110Y1060528D03*
X868701Y1027953D03*
Y1034740D03*
X883858Y1027953D03*
Y1034740D03*
X894291Y1113386D03*
X862402Y1103638D03*
X869291D03*
X865945D03*
X848031Y1121354D03*
X886614Y1096551D03*
X843504Y1115449D03*
X872835Y1073228D03*
X865354Y1119685D03*
X868898Y1073228D03*
X859055Y1140748D03*
X877559Y1140252D03*
X862402Y1137299D03*
X902165Y816732D03*
Y824213D03*
Y801969D03*
X932677Y867417D03*
Y874409D03*
X914594Y857272D03*
X920965Y913874D03*
X895571Y921551D03*
X947441Y1056197D03*
Y1063386D03*
X926772Y1051669D03*
X947835Y1047732D03*
X925197Y1068008D03*
X899606Y1027953D03*
Y1034740D03*
X925000Y1079425D03*
X917913Y1083268D03*
X941142Y1126575D03*
X940354Y1119291D03*
X921457Y1079331D03*
X952362Y1101181D03*
X949213D03*
X944685Y1127260D03*
X944882Y1117417D03*
X906299Y1122535D03*
X923031Y1122142D03*
X940157Y1094882D03*
X950787Y1085134D03*
X923228Y1134252D03*
X926181Y1134346D03*
X944685Y1135724D03*
X957087Y854528D03*
X955906Y861220D03*
X972441Y1028346D03*
X1009449Y1037598D03*
X980906Y1051921D03*
X991535Y1068205D03*
X989764Y1033362D03*
X976575Y1074409D03*
X973622D03*
X970472Y1085134D03*
X960630Y1094291D03*
X980315Y1116236D03*
X968701Y1100000D03*
X1009843Y1090646D03*
X959449Y1141929D03*
X987205Y1140551D03*
X964764Y1154228D03*
G54D36*
X890449Y846362D03*
X889106Y873961D03*
X889122Y879055D03*
X883697Y879067D03*
X885827Y857283D03*
X914555Y847059D03*
X906299Y861417D03*
X908858Y863976D03*
G54D72*
X901083Y926378D03*
Y919291D03*
X913386Y1055709D03*
Y1048622D03*
X935236Y1127756D03*
Y1117913D03*
Y1110827D03*
X928543Y1155315D03*
Y1148228D03*
X935236Y1134843D03*
G54D81*
X896457Y1060827D03*
Y1057283D03*
X902362Y1122638D03*
Y1119094D03*
X1001575Y1105512D03*
Y1101969D03*
Y1097835D03*
Y1094291D03*
X955709Y1143110D03*
Y1139567D03*
G54D27*
X825394Y1121260D03*
G54D63*
X851378Y1133858D03*
G54D45*
X882677Y926378D03*
Y920866D03*
G54D90*
X918701Y1118701D03*
X916142D03*
X913583D03*
X911024D03*
X918701Y1130512D03*
X916142D03*
X913583D03*
X911024D03*
G54D46*
X888878Y930118D03*
X895177D03*
G54D91*
X914862Y1124606D03*
G54D19*
X822441Y1029827D03*
X796457Y1040654D03*
X791339Y1040457D03*
X796457Y1068898D03*
X815945Y1027858D03*
X819291D03*
X796654Y1083764D03*
X807087Y1124315D03*
X810039Y1148031D03*
X858858Y855512D03*
X849016D03*
X880709Y862307D03*
X879035Y911323D03*
X875000Y911417D03*
X877362Y1060535D03*
X871260Y1051874D03*
X872835Y1069591D03*
X893110Y1056890D03*
X868701Y1024315D03*
Y1031102D03*
X883858Y1024315D03*
X868898Y1069591D03*
X883858Y1031102D03*
X894291Y1109748D03*
X862402Y1100000D03*
X869291D03*
X865945D03*
X848031Y1117717D03*
X886614Y1092913D03*
X843504Y1111811D03*
X865354Y1116047D03*
X859055Y1137110D03*
X877559Y1136614D03*
X862402Y1133661D03*
X902165Y813094D03*
Y820575D03*
Y798331D03*
X932677Y863780D03*
Y870772D03*
X914594Y853634D03*
X920965Y910236D03*
X895571Y917913D03*
X947441Y1052559D03*
Y1059748D03*
X926772Y1048031D03*
X947835Y1044094D03*
X925197Y1064370D03*
X899606Y1024315D03*
Y1031102D03*
X925000Y1075787D03*
X917913Y1079630D03*
X941142Y1122937D03*
X940354Y1115654D03*
X921457Y1075693D03*
X952362Y1097543D03*
X949213D03*
X944685Y1123622D03*
X944882Y1113780D03*
X906299Y1118898D03*
X923031Y1118504D03*
X940157Y1091244D03*
X950787Y1081496D03*
X923228Y1130614D03*
X926181Y1130709D03*
X944685Y1132087D03*
X957087Y850890D03*
X955906Y857583D03*
X972441Y1024709D03*
X1009449Y1033961D03*
X980906Y1048283D03*
X991535Y1064567D03*
X989764Y1029724D03*
X976575Y1070772D03*
X973622D03*
X970472Y1081496D03*
X960630Y1090654D03*
X980315Y1112598D03*
X968701Y1096362D03*
X1009843Y1087008D03*
X959449Y1138291D03*
X987205Y1136913D03*
X964764Y1150591D03*
G54D37*
X893020Y843791D03*
X891677Y871390D03*
X891693Y876484D03*
X886268Y876496D03*
X888398Y854713D03*
X917126Y844488D03*
X908870Y858846D03*
X911429Y861406D03*
G54D28*
X801969Y1122835D03*
X793307D03*
Y1129528D03*
X801969D03*
G54D64*
X855512Y1130906D03*
Y1132874D03*
Y1134843D03*
Y1136811D03*
X847244Y1130906D03*
Y1132874D03*
Y1134843D03*
Y1136811D03*
G54D73*
X952638Y998819D03*
X947638D03*
X952638Y980709D03*
X947638D03*
X947555Y1015484D03*
X952555D03*
X947555Y1033594D03*
X952555D03*
X967638Y998819D03*
X962638D03*
X957638D03*
X967638Y980709D03*
X962638D03*
X957638D03*
X957555Y1015484D03*
X962555D03*
X967555D03*
X957555Y1033594D03*
X962555D03*
X967555D03*
G54D82*
X911220Y1066339D03*
X902559D03*
G54D55*
X890551Y1096850D03*
X867126Y1135433D03*
X873425D03*
X896850Y1096850D03*
G54D65*
X946850Y829331D03*
Y807283D03*
X968898Y829331D03*
Y807283D03*
G54D38*
X889862Y887598D03*
Y889567D03*
Y891535D03*
Y893504D03*
Y895472D03*
Y897441D03*
Y899409D03*
Y901378D03*
Y903346D03*
Y905315D03*
Y907283D03*
Y909252D03*
X917028Y893504D03*
Y891535D03*
Y889567D03*
Y887598D03*
Y909252D03*
Y907283D03*
Y905315D03*
Y903346D03*
Y901378D03*
Y899409D03*
Y897441D03*
Y895472D03*
G54D92*
X948189Y1156890D03*
X938189D03*
X948189Y1148228D03*
X938189D03*
G54D56*
X890354Y1110827D03*
Y1113386D03*
Y1115945D03*
Y1118504D03*
X878543Y1110827D03*
Y1113386D03*
Y1115945D03*
Y1118504D03*
G54D47*
X890945Y924213D03*
Y917913D03*
X873031Y1118110D03*
Y1111811D03*
X926181Y972244D03*
Y965945D03*
X931890Y972244D03*
Y965945D03*
X937598Y972244D03*
Y965945D03*
X943307Y972244D03*
Y965945D03*
X926969Y1124606D03*
Y1118307D03*
G54D29*
X810000Y1112205D03*
X812205D03*
X809213Y1116929D03*
X811417D03*
X808819Y1119685D03*
X811024D03*
X818465Y1136024D03*
X820669D03*
G54D83*
X915157Y1023425D03*
Y1035236D03*
X993307Y1094685D03*
Y1106496D03*
G54D74*
X942323Y988780D03*
X942126Y1021654D03*
Y1023622D03*
Y1025591D03*
G54D39*
X892618Y884843D03*
Y912008D03*
X914272Y884843D03*
X912303D03*
X910335D03*
X908366D03*
X906398D03*
X904429D03*
X902461D03*
X900492D03*
X898524D03*
X896555D03*
X894587D03*
Y912008D03*
X896555D03*
X898524D03*
X900492D03*
X902461D03*
X904429D03*
X906398D03*
X908366D03*
X910335D03*
X912303D03*
X914272D03*
G54D93*
X947638Y1141732D03*
X940551D03*
X1000000Y1115945D03*
X992913D03*
X982283Y1097244D03*
X975197D03*
G54D48*
X881693Y1055945D03*
X889173D03*
X881693Y1064961D03*
X885433D03*
X889173D03*
G54D66*
X904724Y834941D03*
X902165D03*
X899606D03*
X904724Y829724D03*
X902165D03*
X899606D03*
G54D57*
X884449Y1114665D03*
X908071Y1084547D03*
G54D75*
X936417Y988780D03*
X936220Y1021654D03*
Y1023622D03*
Y1025591D03*
G54D84*
X908268Y1072047D03*
X901969D03*
X908268Y1096850D03*
X901969D03*
G54D49*
X892520Y1069882D03*
X882480Y1105906D03*
X878937D03*
X882480Y1123228D03*
X878937D03*
X896063Y1069882D03*
X952165Y1090748D03*
X962402Y1069882D03*
X958858D03*
X976181Y1037992D03*
X972638D03*
X962402Y1101772D03*
X958858D03*
X962402Y1073819D03*
X958858D03*
X955709Y1090748D03*
G54D67*
X938189Y874209D03*
Y864370D03*
G54D76*
X941339Y991732D03*
X939370D03*
X937402D03*
X939173Y1026575D03*
G54D85*
X950000Y1113780D03*
Y1115748D03*
Y1117717D03*
Y1119685D03*
Y1121654D03*
Y1123622D03*
Y1125591D03*
Y1127559D03*
X975197D03*
Y1125591D03*
Y1123622D03*
Y1121654D03*
Y1119685D03*
Y1117717D03*
Y1115748D03*
Y1113780D03*
G54D94*
X957874Y818307D03*
G54D58*
X893898Y1132480D03*
Y1156890D03*
G54D59*
X881496Y1129331D03*
X867717D03*
G54D86*
X913976Y1080709D03*
Y1083268D03*
Y1085827D03*
Y1088386D03*
X902165Y1080709D03*
Y1083268D03*
Y1085827D03*
Y1088386D03*
G54D95*
X963189Y856102D03*
G54D77*
X941339Y985827D03*
X939370D03*
X937402D03*
X939173Y1020669D03*
G54D68*
X951181Y854921D03*
Y861220D03*
G54D96*
X966142Y860827D03*
X964173D03*
X962205D03*
X960236D03*
X966142Y851378D03*
X964173D03*
X962205D03*
X960236D03*
G54D87*
X935197Y1087598D03*
Y1095079D03*
X926181Y1087598D03*
Y1091339D03*
Y1095079D03*
G54D69*
X933835Y841622D03*
X926354D03*
G54D78*
X930512Y1048228D03*
X936024D03*
G54D97*
X960630Y972835D03*
Y966535D03*
X955118Y972835D03*
Y966535D03*
G54D88*
X932087Y1077953D03*
X939173D03*
G54D79*
X953228Y1042618D03*
Y1047618D03*
Y1052618D03*
Y1057618D03*
X974488D03*
Y1052618D03*
Y1047618D03*
Y1042618D03*
G54D98*
X1001181Y997539D03*
Y981004D03*
G54D89*
X942520Y1102067D03*
Y1109154D03*
X1005512Y1130315D03*
Y1137402D03*
G54D99*
X1008268Y1002559D03*
Y975984D03*
M02*
