G04 ================== begin FILE IDENTIFICATION RECORD ==================*
G04 Layout Name:  LAUNCHXL-CC1352R1.brd*
G04 Film Name:    LAUNCHXL-CC1352R1_Bottom*
G04 File Format:  Gerber RS274X*
G04 File Origin:  Cadence Allegro 17.2-S041*
G04 Origin Date:  Thu Oct 25 19:57:46 2018*
G04 *
G04 Layer:  DRAWING FORMAT/TITLE_BLOCK*
G04 Layer:  BOARD GEOMETRY/LAYER4*
G04 Layer:  BOARD GEOMETRY/OUTLINE*
G04 Layer:  VIA CLASS/BOTTOM*
G04 Layer:  PIN/BOTTOM*
G04 Layer:  ETCH/BOTTOM*
G04 *
G04 Offset:    (0.000 0.000)*
G04 Mirror:    No*
G04 Mode:      Positive*
G04 Rotation:  0*
G04 FullContactRelief:  No*
G04 UndefLineWidth:     0.099*
G04 ================== end FILE IDENTIFICATION RECORD ====================*
%FSLAX25Y25*MOIN*%
%IR0*IPPOS*OFA0.00000B0.00000*MIA0B0*SFA1.00000B1.00000*%
%ADD10C,.05*%
%ADD11C,.149606*%
%ADD13C,.064961*%
%ADD15C,.003898*%
%ADD14C,.06689*%
%ADD18O,.055118X.082677*%
%ADD16C,.003937*%
%ADD12C,.015748*%
%ADD19C,.019685*%
%ADD17C,.031496*%
%ADD20C,.007874*%
%ADD21C,.011811*%
%ADD22C,.005906*%
%ADD23C,.007087*%
%ADD27C,.052126*%
%ADD26C,.056063*%
%ADD24C,.076929*%
%ADD25C,.027717*%
G75*
%LPD*%
G75*
G36*
G01X906102Y792520D02*
X898228D01*
Y764961D01*
X827362D01*
Y737402D01*
X969094D01*
Y725591D01*
X827362D01*
Y698031D01*
X895866D01*
Y705906D01*
X835236D01*
Y717717D01*
X976969D01*
Y745276D01*
X835236D01*
Y757087D01*
X906102D01*
Y792520D01*
G37*
G36*
G01X938346Y1160630D02*
X1002315D01*
G02X1002693Y1160346I0J-394D01*
G01X1002945Y1159484D01*
X1002850Y1159244D01*
X1002740Y1159173D01*
G03X1014256Y1148638I4347J-6810D01*
G01X1014319Y1148760D01*
X1014567Y1148874D01*
X1015449Y1148657D01*
G02X1015748Y1148276I-95J-383D01*
G01Y1011575D01*
G02X1015744Y1011520I-394J0D01*
G02X1012039Y1003000I-17753J2654D01*
G03X1008449Y996433I17133J-13633D01*
G01X1008421Y996354D01*
X1008295Y996228D01*
X1007626Y995988D01*
G02X1007287Y996024I-132J371D01*
G01X1007283Y996028D01*
G03X1006370Y991252I-1378J-2212D01*
G01X1006378D01*
G02X1006705Y991161I68J-388D01*
G01X1007315Y990626D01*
Y990591D01*
G03X1007319Y988079I21860J-1222D01*
G01Y988047D01*
X1007252Y987890D01*
X1006713Y987413D01*
G02X1006382Y987323I-259J296D01*
G01X1006378D01*
G03X1007323Y982571I-472J-2564D01*
G01X1007402Y982622D01*
X1007579Y982646D01*
X1008433Y982350D01*
X1008461Y982272D01*
G03X1012039Y975740I20711J7102D01*
G02X1015744Y967220I-14048J-11174D01*
G02X1015748Y967165I-390J-56D01*
G01Y797835D01*
G02X1015354Y797441I-394J0D01*
G01X789965D01*
G02X789571Y797835I0J394D01*
G01Y964571D01*
G02X793472Y975740I17950J-4D01*
G03X797016Y982173I-17135J13630D01*
G01Y982177D01*
G02X797252Y982413I371J-134D01*
G01X797917Y982654D01*
X798091Y982638D01*
X798169Y982591D01*
G03X799114Y987402I1339J2235D01*
G01X799110D01*
G02X798787Y987500I-58J389D01*
G01X798193Y988039D01*
X798197Y988102D01*
G03X798228Y989720I-21860J1235D01*
G03X798205Y990484I-21892J-295D01*
G01X798201Y990555D01*
G03X798193Y990669I-21847J-1449D01*
G01X798791Y991209D01*
G02X799114Y991307I265J-291D01*
G03X798177Y996122I395J2575D01*
G02X797843Y996091I-201J339D01*
G01X797177Y996331D01*
X797055Y996461D01*
X797035Y996516D01*
G03X793472Y1003000I-20695J-7151D01*
G02X792512Y1004331I14058J11160D01*
G01X792508D01*
G02X789571Y1014169I15014J9840D01*
G01Y1146768D01*
G02X789835Y1147142I394J2D01*
G01X790539Y1147390D01*
G02X790972Y1147268I129J-372D01*
G01X790976Y1147264D01*
G03X805224Y1153610I6267J5098D01*
G01Y1153618D01*
G02X805327Y1153941I389J54D01*
G01X805815Y1154469D01*
X805988Y1154531D01*
X806075Y1154524D01*
G03X810728Y1156882I431J4919D01*
G01X810732Y1156886D01*
G02X811173Y1157059I335J-206D01*
G01X811909Y1156850D01*
G02X812197Y1156472I-106J-379D01*
G01Y1147039D01*
G03X812591Y1146646I394J0D01*
G01X813181D01*
G02X813575Y1146252I0J-394D01*
G01Y1138575D01*
X813618D01*
Y1138138D01*
X813606Y1138094D01*
G03X815579Y1136555I1354J-299D01*
G02X815961Y1136539I177J-352D01*
G01X816539Y1136181D01*
G02X816724Y1135846I-209J-334D01*
G01Y1134906D01*
X816681Y1134780D01*
X816638Y1134728D01*
G03X816610Y1133024I1079J-870D01*
G02X816689Y1132787I-315J-236D01*
G01Y1132783D01*
G02X816295Y1132390I-394J0D01*
G01X815886D01*
G02X815610Y1132504I2J394D01*
G01X815280Y1132835D01*
G02X815165Y1133102I279J277D01*
G03X813780Y1134457I-1386J-32D01*
G03X812394Y1133071I0J-1386D01*
G03X813748Y1131685I1386J0D01*
G01X813827Y1131681D01*
X813961Y1131626D01*
X814870Y1130717D01*
G03X815146Y1130602I277J280D01*
G01X822453D01*
G03X822728Y1130717I-2J394D01*
G01X823500Y1131488D01*
X823508D01*
X824378Y1132358D01*
G02X824646Y1132472I277J-279D01*
G03X823220Y1133886I-39J1386D01*
G01Y1133882D01*
G02X823106Y1133614I-394J10D01*
G01X822768Y1133276D01*
X822760D01*
X821988Y1132504D01*
G02X821713Y1132390I-277J280D01*
G01X821500D01*
G02X821106Y1132783I0J394D01*
G01Y1132787D01*
G02X821185Y1133024I394J0D01*
G03X821157Y1134728I-1106J835D01*
G01X821114Y1134780D01*
X821071Y1134906D01*
Y1138157D01*
G02X821185Y1138433I394J-2D01*
G01X821213Y1138461D01*
G02X821488Y1138575I277J-280D01*
G01X825386D01*
G02X825780Y1138185I0J-394D01*
G01Y1138181D01*
G03X828551I1386J8D01*
G01Y1138185D01*
G02X828945Y1138575I394J-4D01*
G01X850598D01*
G03X850992Y1138969I0J394D01*
G01Y1146252D01*
G02X851386Y1146646I394J0D01*
G01X851976D01*
G03X852370Y1147039I0J394D01*
G01Y1157882D01*
G03X851976Y1158276I-394J0D01*
G01X851776Y1158476D01*
Y1160236D01*
G02X852169Y1160630I394J0D01*
G01X920890D01*
G02X921224Y1160445I1J-394D01*
G01X921583Y1159866D01*
G02X921598Y1159484I-336J-205D01*
G03X922835Y1157472I1236J-626D01*
G01X936469D01*
G02X936744Y1157358I-2J-394D01*
G01X947343Y1146760D01*
G03X947618Y1146646I277J280D01*
G01X964764D01*
G03Y1149417I0J1386D01*
G01X948768D01*
G02X948492Y1149531I2J394D01*
G01X938067Y1159957D01*
G02X937980Y1160386I278J279D01*
G01X937984D01*
G02X938346Y1160630I364J-149D01*
G37*
G36*
G01X817441Y1134693D02*
X817161Y1134413D01*
X817717Y1133760D01*
X818272Y1134413D01*
X817992Y1134693D01*
G03X817441I-276J-280D01*
G37*
G36*
G01X819803D02*
X819524Y1134413D01*
X820079Y1133760D01*
X820634Y1134413D01*
X820354Y1134693D01*
G03X819803I-276J-280D01*
G37*
G36*
G01X814567Y1132579D02*
Y1133071D01*
X813728Y1133122D01*
X813780Y1132283D01*
X814272D01*
G03X814567Y1132579I0J295D01*
G37*
G36*
G01X824118Y1133063D02*
X824610Y1133075D01*
X824657Y1133909D01*
X823819Y1133858D01*
Y1133358D01*
G03X824118Y1133063I295J0D01*
G37*
G36*
G01X812795Y1157476D02*
G02X813189Y1157870I394J0D01*
G01X818898D01*
G02X819291Y1157476I0J-394D01*
G01Y1149803D01*
G03X819685Y1149409I394J0D01*
G01X826772D01*
G03X827165Y1149803I0J394D01*
G01Y1155906D01*
G02X827559Y1156299I394J0D01*
G01X837402D01*
G02X837795Y1155906I0J-394D01*
G01Y1149803D01*
G03X838189Y1149409I394J0D01*
G01X845276D01*
G03X845669Y1149803I0J394D01*
G01Y1157283D01*
G02X846063Y1157677I394J0D01*
G01X851378D01*
G02X851772Y1157283I0J-394D01*
G01Y1147638D01*
G02X851378Y1147244I-394J0D01*
G01X835189D01*
X835154D01*
G03X835047Y1147252I-155J-1375D01*
G03X835031I-8J-394D01*
G03X834925Y1147244I49J-1383D01*
G01X813189D01*
G02X812795Y1147638I0J394D01*
G01Y1157476D01*
G37*
G36*
G01X814567Y1155512D02*
X818504D01*
G02X818898Y1155118I0J-394D01*
G01Y1147638D01*
G03X819291Y1147244I394J0D01*
G01X825098D01*
G02X825417Y1147083I1J-394D01*
G01X825791Y1146563D01*
G02X825850Y1146209I-316J-235D01*
G01X825846D01*
G03X825780Y1145776I1320J-426D01*
G03X825811Y1145484I1386J2D01*
G02X825732Y1145154I-385J-83D01*
G01X825343Y1144673D01*
G02X825039Y1144528I-306J248D01*
G01X824189D01*
G03X823909Y1144413I-2J-394D01*
G01X821551Y1142051D01*
G02X821272Y1141937I-277J280D01*
G01X820098D01*
G03X819819Y1141823I-2J-394D01*
G01X817287Y1139287D01*
G02X817008Y1139173I-277J280D01*
G01X815091D01*
G03X814961Y1139181I-149J-1377D01*
G03X814831Y1139173I19J-1385D01*
G01X814567D01*
G02X814173Y1139567I0J394D01*
G01Y1155118D01*
G02X814567Y1155512I394J0D01*
G37*
G36*
G01X827559D02*
X837008D01*
G02X837402Y1155118I0J-394D01*
G01Y1147512D01*
G02X837094Y1147126I-394J-2D01*
G03X836622Y1146921I305J-1351D01*
G02X836382Y1146850I-226J323D01*
G01X836138Y1146862D01*
G02X835906Y1146949I14J393D01*
G03X835039Y1147252I-866J-1086D01*
G03X834087Y1146870I2J-1385D01*
G02X833843Y1146764I-270J287D01*
G01X833339Y1146728D01*
G02X833087Y1146799I-25J393D01*
G01X833083D01*
G03X832283Y1147055I-802J-1129D01*
G03X831469Y1146791I0J-1391D01*
G02X831236Y1146717I-231J318D01*
G01X830772D01*
G02X830539Y1146791I-2J393D01*
G03X829724Y1147055I-815J-1127D01*
G03X828957Y1146823I0J-1385D01*
G02X828720Y1146756I-220J327D01*
G01X828256Y1146776D01*
G02X828028Y1146862I18J393D01*
G03X827472Y1147126I-858J-1089D01*
G02X827165Y1147512I87J384D01*
G01Y1155118D01*
G02X827559Y1155512I394J0D01*
G37*
G36*
G01X846063D02*
X850000D01*
G02X850394Y1155118I0J-394D01*
G01Y1145094D01*
G02X850087Y1144709I-394J-2D01*
G03Y1142008I306J-1350D01*
G02X850394Y1141622I-87J-384D01*
G01Y1140319D01*
G02X850087Y1139933I-394J-2D01*
G03X849240Y1139350I306J-1351D01*
G02X848909Y1139173I-329J217D01*
G01X828291D01*
G02X828043Y1139264I3J393D01*
G03X827165Y1139575I-875J-1076D01*
G03X826287Y1139264I-3J-1387D01*
G02X826039Y1139173I-251J302D01*
G01X824480D01*
G02X824118Y1139417I2J393D01*
G02X824201Y1139846I363J153D01*
G01X825012Y1140657D01*
G02X825291Y1140772I277J-280D01*
G01X829563D01*
G03X829843Y1140886I2J394D01*
G01X833161Y1144205D01*
G03X833276Y1144484I-280J277D01*
G01Y1144551D01*
G02X833362Y1144799I394J2D01*
G03X833417Y1144874I-1087J859D01*
G01X833858Y1144906D01*
G02X834142Y1144811I26J-393D01*
G03X835039Y1144480I898J1053D01*
G03X835819Y1144720I0J1385D01*
G02X836059Y1144791I226J-323D01*
G01X836303Y1144780D01*
G02X836535Y1144693I-14J-393D01*
G03X837402Y1144390I866J1086D01*
G03X838787Y1145776I0J1386D01*
G03X838720Y1146209I-1387J7D01*
G01X838717D01*
G02X838776Y1146563I375J120D01*
G01X839150Y1147083D01*
G02X839469Y1147244I318J-233D01*
G01X845276D01*
G03X845669Y1147638I0J394D01*
G01Y1155118D01*
G02X846063Y1155512I394J0D01*
G37*
%LPC*%
G75*
G36*
G01X950244Y903752D02*
G02X951756Y902760I1332J382D01*
G03X951094Y901760I101J-785D01*
G02X949583Y902752I-1332J-382D01*
G03X950244Y903752I-101J785D01*
G37*
G36*
G01X901508Y916539D02*
G03X901713Y916646I-71J388D01*
G02X902122Y914378I964J-997D01*
G03X901894Y914406I-159J-359D01*
G01X901661Y914366D01*
G03X901457Y914260I71J-388D01*
G02X901047Y916528I-964J997D01*
G03X901276Y916500I159J359D01*
G01X901508Y916539D01*
G37*
G36*
G01X882240Y919031D02*
X882287Y919079D01*
G02X884583Y918531I979J-980D01*
G03X884736Y918331I372J126D01*
G01X884937Y918189D01*
G03X885181Y918118I226J322D01*
G02X885343Y918114I47J-1386D01*
G03X885571Y918169I26J394D01*
G01X885780Y918295D01*
G03X885937Y918472I-202J338D01*
G02X887102Y916531I1268J-559D01*
G03X886870Y916476I-29J-394D01*
G01X886661Y916350D01*
G03X886504Y916173I202J-338D01*
G02X883921Y916299I-1267J560D01*
G03X883768Y916500I-372J-126D01*
G01X883567Y916646D01*
G03X883323Y916713I-221J-327D01*
G02X882618Y916874I-54J1385D01*
G01X882563Y916906D01*
X882437Y916925D01*
X881843Y916835D01*
X881736Y916783D01*
X881689Y916736D01*
G02X881358Y918941I-980J980D01*
G01X881413Y918909D01*
X881539Y918890D01*
X882134Y918980D01*
X882240Y919031D01*
G37*
G36*
G01X883268Y931343D02*
G02X885870Y930846I1378J153D01*
G03X885827Y930626I348J-183D01*
G01X885846Y930398D01*
G03X885929Y930189I392J35D01*
G02X886228Y929331I-1081J-858D01*
G02X884843Y927945I-1386J0D01*
G02X883984Y928244I0J1381D01*
G03X883776Y928327I-243J-310D01*
G01X883547Y928346D01*
G03X883327Y928303I-38J-392D01*
G02X881299Y929386I-649J1224D01*
G03X881185Y929626I-392J-39D01*
G01X881004Y929807D01*
G03X880764Y929921I-279J-278D01*
G02X879520Y931299I141J1378D01*
G02X880906Y932685I1386J0D01*
G02X882283Y931441I0J-1385D01*
G03X882398Y931201I392J39D01*
G01X882579Y931020D01*
G03X882819Y930906I279J278D01*
G01X882831D01*
G03X883268Y931343I45J392D01*
G37*
G36*
G01X890909Y932945D02*
G02X891055Y935039I-830J1110D01*
G01X891106Y934988D01*
X891232Y934933D01*
X891823Y934890D01*
G03X892079Y934969I19J393D01*
G01X892083D01*
G02X893819Y934909I831J-1110D01*
G03X894075Y934815I256J299D01*
G01X894587D01*
G03X894843Y934909I0J393D01*
G02X895744Y935244I903J-1052D01*
G01X895748D01*
G02Y932472I0J-1386D01*
G01X895744D01*
G02X894843Y932807I2J1387D01*
G03X894587Y932902I-256J-299D01*
G01X894075D01*
G03X893819Y932807I0J-393D01*
G02X891937Y932874I-905J1051D01*
G01X891886Y932925D01*
X891760Y932980D01*
X891169Y933024D01*
G03X890913Y932945I-19J-393D01*
G01X890909D01*
G37*
G36*
G01X963272Y944197D02*
G02X963661Y945854I-870J1079D01*
G03X964878Y945567I720J328D01*
G02X964488Y943909I870J-1079D01*
G03X963272Y944197I-720J-328D01*
G37*
G36*
G01X824925Y945449D02*
G03X826197Y945925I493J620D01*
G02X827224Y944323I1362J-257D01*
G03X826264Y943366I-193J-767D01*
G02X824925Y945449I-3732J-927D01*
G37*
G36*
G01X912256Y949205D02*
G02X913579Y950094I28J1386D01*
G01X913543Y950004D01*
X913563Y949819D01*
X914035Y949114D01*
X914201Y949024D01*
X914299D01*
G02X915370Y948484I-27J-1386D01*
G01Y948480D01*
G03X915602Y948335I313J241D01*
G01X916173Y948217D01*
X916307Y948232D01*
X916370Y948268D01*
G02X915929Y946201I657J-1221D01*
G01Y946205D01*
G03X915697Y946350I-313J-241D01*
G01X915126Y946469D01*
X914992Y946453D01*
X914929Y946417D01*
G02X912976Y948134I-658J1220D01*
G01X913012Y948224D01*
X912992Y948409D01*
X912520Y949114D01*
X912354Y949205D01*
X912256D01*
G37*
G36*
G01X908248Y954921D02*
G02X909768Y956173I139J1379D01*
G03X910472Y955315I788J-72D01*
G02X908953Y954063I-139J-1379D01*
G03X908248Y954921I-788J72D01*
G37*
G36*
G01X870232Y982315D02*
G03X871378Y982386I539J579D01*
G02X871500Y980480I1063J-889D01*
G03X870354Y980409I-539J-579D01*
G02X870232Y982315I-1063J889D01*
G37*
G36*
G01X829693Y980307D02*
G02X828339Y981693I32J1386D01*
G02X829724Y983079I1386J0D01*
G02X831110Y981724I0J-1386D01*
G03X831224Y981457I394J10D01*
G01X838839Y973843D01*
G03X839114Y973728I277J280D01*
G01X880768D01*
G03X881043Y973843I-2J394D01*
G01X882555Y975354D01*
G03X882669Y975622I-279J277D01*
G02X884055Y976976I1386J-32D01*
G02X885441Y975591I0J-1386D01*
G02X884087Y974205I-1386J0D01*
G01X884008Y974201D01*
X883874Y974146D01*
X882949Y973220D01*
G03X882862Y972791I278J-279D01*
G01X882866D01*
G03X883228Y972547I364J149D01*
G01X884744D01*
G03X885020Y972661I-2J394D01*
G01X885311Y972953D01*
G03X885425Y973220I-279J277D01*
G02X886811Y974575I1386J-32D01*
G02X888197Y973189I0J-1386D01*
G02X886843Y971803I-1386J0D01*
G01X886764Y971799D01*
X886630Y971744D01*
X885760Y970874D01*
G02X885484Y970760I-277J280D01*
G01X832862D01*
G02X832587Y970874I2J394D01*
G01X827008Y976453D01*
G03X826740Y976567I-277J-279D01*
G02X825386Y977953I32J1386D01*
G02X826772Y979339I1386J0D01*
G02X828157Y977984I0J-1386D01*
G01X828161Y977906D01*
X828217Y977772D01*
X833327Y972661D01*
G03X833602Y972547I277J280D01*
G01X836654D01*
G03X837016Y972791I-2J393D01*
G01X837020D01*
G03X836933Y973220I-365J150D01*
G01X829961Y980193D01*
G03X829693Y980307I-277J-279D01*
G37*
G36*
G01X952594Y990681D02*
G02X952114Y991732I910J1051D01*
G02X954886I1386J0D01*
G02X954406Y990681I-1390J0D01*
G01X954394Y990673D01*
Y984634D01*
X954339Y984579D01*
Y983925D01*
X954394Y983870D01*
Y973567D01*
G02X954280Y973291I-394J2D01*
G01X949894Y968906D01*
G02X949618Y968791I-277J280D01*
G01X937272D01*
G02X936996Y968906I2J394D01*
G01X932205Y973697D01*
G03X931937Y973811I-277J-279D01*
G02X930583Y975197I32J1386D01*
G02X931969Y976583I1386J0D01*
G02X933354Y975228I0J-1386D01*
G01X933358Y975150D01*
X933413Y975016D01*
X937736Y970693D01*
G03X938012Y970579I277J280D01*
G01X948878D01*
G03X949154Y970693I-2J394D01*
G01X949327Y970866D01*
G03X949323Y971425I-279J278D01*
G03X949177Y971516I-275J-281D01*
G01X949169Y971520D01*
G02X948701Y973886I436J1316D01*
G01X948713Y973894D01*
Y974862D01*
G03X948598Y975138I-394J-2D01*
G01X943031Y980705D01*
G03X942756Y980819I-277J-280D01*
G01X942114D01*
X941972Y980760D01*
X941917Y980705D01*
G02X939618Y982102I-976J984D01*
G01X939638Y982161D01*
Y982224D01*
G03X939244Y982618I-394J0D01*
G01X938961D01*
X938815Y982555D01*
X938783Y982524D01*
X938756Y982260D01*
G02X938268Y981331I-1378J131D01*
G03X938217Y981280I252J-303D01*
G02X937157Y980783I-1062J888D01*
G02X935772Y982169I0J1386D01*
G02X936268Y983228I1385J-3D01*
G03X936319Y983280I-252J303D01*
G02X937346Y983776I1062J-889D01*
G01X937421D01*
X937555Y983835D01*
X937866Y984146D01*
G02X937925Y984201I641J-627D01*
G01X938016Y984291D01*
G02X938291Y984406I277J-280D01*
G01X938433D01*
G02X938500Y984409I86J-893D01*
G02X938567Y984406I-19J-897D01*
G01X941697D01*
G02X941972Y984291I-2J-394D01*
G01X950386Y975878D01*
G02X950500Y975602I-280J-277D01*
G01Y973894D01*
X950512Y973886D01*
G02X950752Y973618I-904J-1052D01*
G01X950803Y973543D01*
X950949Y973457D01*
X951646Y973390D01*
G03X951961Y973500I40J391D01*
G01X952492Y974031D01*
G03X952606Y974307I-280J277D01*
G01Y983130D01*
X952551Y983185D01*
Y985319D01*
X952606Y985374D01*
Y990673D01*
X952594Y990681D01*
G37*
G36*
G01X942280Y993169D02*
G03X942394Y993437I-279J277D01*
G02X943780Y994791I1386J-32D01*
G02X945165Y993406I0J-1386D01*
G02X943811Y992020I-1386J0D01*
G03X943543Y991906I10J-394D01*
G01X935063Y983425D01*
G03X934949Y983150I280J-277D01*
G01Y979114D01*
G03X935063Y978839I394J2D01*
G01X937402Y976500D01*
G03X937669Y976386I277J279D01*
G02X939024Y975000I-32J-1386D01*
G02X937638Y973614I-1386J0D01*
G02X936252Y974969I0J1386D01*
G01X936248Y975047D01*
X936193Y975181D01*
X933276Y978098D01*
G02X933161Y978374I280J277D01*
G01Y983890D01*
G02X933276Y984165I394J-2D01*
G01X942280Y993169D01*
G37*
G36*
G01X892531Y998594D02*
G02X896378Y1002441I0J3846D01*
G01Y1000020D01*
G03X896492Y999744I394J2D01*
G01X905661Y990575D01*
G03X905937Y990461I277J280D01*
G01X931224D01*
X931232Y990472D01*
G02X932283Y990953I1051J-910D01*
G02Y988181I0J-1386D01*
G02X931232Y988661I0J1390D01*
G01X931224Y988673D01*
X905406D01*
G02X904772Y988933I-3J895D01*
G01X895228Y998480D01*
G03X894953Y998594I-277J-280D01*
G01X892531D01*
G37*
G36*
G01X879937Y999598D02*
G02X878681Y1002441I2594J2845D01*
G02X886382I3850J0D01*
G02X885126Y999598I-3849J2D01*
G01X885118Y999594D01*
X883539Y998008D01*
G03X883425Y997732I279J-277D01*
G01Y979370D01*
G02X883311Y979094I-394J2D01*
G01X881421Y977205D01*
G03X881307Y976937I279J-277D01*
G02X879921Y975583I-1386J32D01*
G02X878535Y976969I0J1386D01*
G02X879890Y978354I1386J0D01*
G01X879969Y978358D01*
X880102Y978413D01*
X881524Y979835D01*
G03X881638Y980110I-280J277D01*
G01Y997732D01*
G03X881524Y998008I-394J-2D01*
G01X879945Y999594D01*
X879937Y999598D01*
G37*
G36*
G01X873244Y1109756D02*
G03X873461Y1109819I3J394D01*
G02X875575Y1108917I753J-1165D01*
G03X875713Y1108685I387J73D01*
G01X876106Y1108362D01*
G03X876358Y1108276I247J308D01*
G02X877531Y1106122I20J-1386D01*
G03Y1105689I329J-217D01*
G02X877764Y1104921I-1153J-768D01*
G02X874992I-1386J0D01*
G02X875224Y1105689I1385J0D01*
G03X875220Y1106122I-330J214D01*
G02X875016Y1106626I1158J764D01*
G03X874878Y1106858I-387J-73D01*
G01X874484Y1107181D01*
G03X874232Y1107268I-247J-308D01*
G02X873461Y1107488I-21J1386D01*
G03X873248Y1107551I-214J-331D01*
G01X873016D01*
G03X872799Y1107488I-3J-394D01*
G02X872051Y1107268I-750J1166D01*
G01X872047D01*
G02Y1110039I0J1386D01*
G01X872051D01*
G02X872799Y1109819I-2J-1386D01*
G03X873016Y1109756I214J331D01*
G01X873244D01*
G37*
G36*
G01X877559Y1124598D02*
G02Y1127370I0J1386D01*
G02X878327Y1127138I0J-1385D01*
G03X878760I217J330D01*
G02X879528Y1124598I768J-1154D01*
G02X878760Y1124831I0J1385D01*
G03X878327I-217J-330D01*
G02X877559Y1124598I-768J1153D01*
G37*
G36*
G01X843307Y1132551D02*
G02X845673Y1132543I1185J717D01*
G03X845614Y1132339I334J-207D01*
G01Y1132114D01*
G03X845669Y1131909I394J-4D01*
G02X843303Y1131917I-1185J-717D01*
G03X843362Y1132122I-334J207D01*
G01Y1132346D01*
G03X843307Y1132551I-394J4D01*
G37*
G36*
G01X1006429Y1142378D02*
G03X1006657Y1142453I-3J394D01*
G02X1007480Y1142724I823J-1110D01*
G02Y1139953I0J-1386D01*
G02X1006657Y1140224I0J1382D01*
G03X1006429Y1140299I-231J-319D01*
G01X1006169D01*
G03X1005941Y1140224I3J-394D01*
G02X1004295I-823J1110D01*
G03X1004067Y1140299I-231J-319D01*
G01X1003807D01*
G03X1003579Y1140224I3J-394D01*
G02X1002756Y1139953I-823J1110D01*
G02Y1142724I0J1386D01*
G02X1003579Y1142453I0J-1382D01*
G03X1003807Y1142378I231J319D01*
G01X1004067D01*
G03X1004295Y1142453I-3J394D01*
G02X1005941I823J-1110D01*
G03X1006169Y1142378I231J319D01*
G01X1006429D01*
G37*
G36*
G01X860118Y1141665D02*
G02X859638Y1142717I910J1051D01*
G02X862409I1386J0D01*
G02X861929Y1141665I-1390J0D01*
G01X861917Y1141657D01*
Y1133602D01*
G03X862031Y1133327I394J2D01*
G01X869677Y1125681D01*
G02X869791Y1125406I-280J-277D01*
G01Y1104909D01*
G02X869677Y1104634I-394J2D01*
G01X865429Y1100386D01*
G03X865343Y1099957I278J-279D01*
G01X865346D01*
G03X865709Y1099713I364J149D01*
G01X881752D01*
G03X882028Y1099827I-2J394D01*
G01X883177Y1100976D01*
G02X883453Y1101091I277J-280D01*
G01X884909D01*
G03X885185Y1101205I-2J394D01*
G01X899031Y1115051D01*
G02X899307Y1115165I277J-280D01*
G01X900260D01*
G03X900575Y1115319I3J394D01*
G01X900957Y1115823D01*
G03X901024Y1116165I-313J239D01*
G02X903181Y1117646I1338J362D01*
G03X903413Y1117567I236J315D01*
G01X903665Y1117571D01*
G03X903898Y1117646I1J394D01*
G02X906059Y1116165I826J-1112D01*
G03X906126Y1115823I380J-104D01*
G01X906508Y1115319D01*
G03X906823Y1115165I312J240D01*
G01X921059D01*
G03X921350Y1115291I2J394D01*
G01X921799Y1115783D01*
X921854Y1115941D01*
X921846Y1116024D01*
G02X921843Y1116142I1382J105D01*
G02X924614I1386J0D01*
G02X924610Y1116024I-1386J-13D01*
G01X924602Y1115941D01*
X924657Y1115783D01*
X925106Y1115291D01*
G03X925398Y1115165I289J268D01*
G01X929087D01*
G03X929362Y1115280I-2J394D01*
G01X929539Y1115457D01*
G03Y1116016I-277J280D01*
G01X929512Y1116043D01*
X929476Y1116063D01*
G02X929087Y1117972I771J1152D01*
G03X929154Y1118177I-326J220D01*
G01X929157Y1118402D01*
G03X929106Y1118606I-393J11D01*
G02X931413Y1118449I1206J685D01*
G01X931335Y1118346D01*
X931327Y1118098D01*
X931406Y1117980D01*
G03X931693Y1117807I328J219D01*
G01X931780Y1117799D01*
X931941Y1117858D01*
X935039Y1120957D01*
G03Y1121512I-279J278D01*
G01X934992Y1121559D01*
X934929Y1121591D01*
G02X934819Y1121650I599J1250D01*
G03X934614Y1121709I-207J-334D01*
G01X934390D01*
G03X934185Y1121650I3J-393D01*
G02X933469Y1121449I-719J1186D01*
G01X933465D01*
G02Y1124220I0J1386D01*
G01X933469D01*
G02X934185Y1124020I-2J-1386D01*
G03X934390Y1123961I207J334D01*
G01X934614D01*
G03X934819Y1124020I-3J393D01*
G02X936598Y1123728I720J-1185D01*
G01X936650Y1123665D01*
X936799Y1123591D01*
X937465Y1123563D01*
G03X937760Y1123677I18J393D01*
G01X940921Y1126839D01*
G03X941035Y1127114I-280J277D01*
G01Y1130717D01*
G02X941150Y1130992I394J-2D01*
G01X946567Y1136409D01*
G02X946843Y1136524I277J-280D01*
G01X965413D01*
G03X965689Y1136638I-2J394D01*
G01X967004Y1137953D01*
G03X967118Y1138220I-279J277D01*
G02X967150Y1138488I1386J-27D01*
G01X967161Y1138531D01*
Y1138575D01*
G03X966768Y1138969I-394J0D01*
G01X937465D01*
X937323Y1138909D01*
X937276Y1138862D01*
G02X935791Y1141083I-1053J902D01*
G01X935799D01*
X935886Y1141114D01*
X936008Y1141232D01*
G02X936283Y1141346I277J-279D01*
G01X975134D01*
G02X975409Y1141232I-2J-394D01*
G01X977043Y1139602D01*
G03X977193Y1139508I280J277D01*
G01X977197D01*
G02X978091Y1138618I-424J-1320D01*
G01Y1138610D01*
X978122Y1138524D01*
X985917Y1130724D01*
G02X986031Y1130449I-280J-277D01*
G01Y1125673D01*
X986055Y1125583D01*
X986075Y1125543D01*
G02X985728Y1123843I-1232J-635D01*
G01X985665Y1123791D01*
X985591Y1123642D01*
X985559Y1122972D01*
G03X985673Y1122677I393J-18D01*
G01X1014567Y1093783D01*
G02X1014681Y1093508I-280J-277D01*
G01Y1084457D01*
G02X1014567Y1084181I-394J2D01*
G01X1014087Y1083701D01*
G03X1013972Y1083433I279J-277D01*
G02X1012476Y1082083I-1386J31D01*
G01X1012394Y1082091D01*
X1012236Y1082035D01*
X1011748Y1081587D01*
G03X1011622Y1081295I268J-289D01*
G01Y1017906D01*
G02X1011228Y1017512I-394J0D01*
G01X944331D01*
G03X944055Y1017398I2J-394D01*
G01X942610Y1015953D01*
G02X942335Y1015839I-277J280D01*
G01X936366D01*
G03X936020Y1015630I1J-394D01*
G01X935689Y1015008D01*
G03X935713Y1014602I349J-183D01*
G02X936378Y1012441I-3178J-2161D01*
G02X928685I-3846J0D01*
G02X929350Y1014602I3843J0D01*
G03X929374Y1015008I-325J222D01*
G01X929043Y1015630D01*
G03X928697Y1015839I-347J-185D01*
G01X926366D01*
G03X926020Y1015630I1J-394D01*
G01X925689Y1015008D01*
G03X925713Y1014602I349J-183D01*
G02X926378Y1012441I-3178J-2161D01*
G02X918685I-3846J0D01*
G02X919350Y1014602I3843J0D01*
G03X919374Y1015008I-325J222D01*
G01X919043Y1015630D01*
G03X918697Y1015839I-347J-185D01*
G01X916366D01*
G03X916020Y1015630I1J-394D01*
G01X915689Y1015008D01*
G03X915713Y1014602I349J-183D01*
G02X916378Y1012441I-3178J-2161D01*
G02X908685I-3846J0D01*
G02X909350Y1014602I3843J0D01*
G03X909374Y1015008I-325J222D01*
G01X909043Y1015630D01*
G03X908697Y1015839I-347J-185D01*
G01X906366D01*
G03X906020Y1015630I1J-394D01*
G01X905689Y1015008D01*
G03X905713Y1014602I349J-183D01*
G02X906378Y1012441I-3178J-2161D01*
G01Y1010020D01*
G03X906492Y1009744I394J2D01*
G01X908138Y1008098D01*
G03X908323Y1007992I282J276D01*
G01X908362Y1007984D01*
G02X909654Y1006445I-94J-1390D01*
G01Y1006366D01*
X910504Y1005839D01*
X910709Y1005831D01*
X910799Y1005878D01*
G02X914843Y999366I1736J-3434D01*
G01X914839Y999362D01*
G03X914705Y998925I239J-312D01*
G01X914941Y998209D01*
G03X915315Y997941I373J126D01*
G01X919748D01*
G03X920122Y998209I1J394D01*
G01X920358Y998925D01*
G03X920224Y999362I-373J125D01*
G01X920220Y999366D01*
G02X918685Y1002441I2311J3075D01*
G02X926378I3846J0D01*
G02X924843Y999366I-3846J0D01*
G01X924839Y999362D01*
G03X924705Y998925I239J-312D01*
G01X924941Y998209D01*
G03X925315Y997941I373J126D01*
G01X929748D01*
G03X930122Y998209I1J394D01*
G01X930358Y998925D01*
G03X930224Y999362I-373J125D01*
G01X930220Y999366D01*
G02X928685Y1002441I2311J3075D01*
G02X936378I3846J0D01*
G02X934843Y999366I-3846J0D01*
G01X934839Y999362D01*
G03X934705Y998925I239J-312D01*
G01X934941Y998209D01*
G03X935315Y997941I373J126D01*
G01X936083D01*
G03X936358Y998055I-2J394D01*
G01X940626Y1002323D01*
G03X940740Y1002591I-279J277D01*
G02X940780Y1002886I1385J-34D01*
G01X940799Y1002961D01*
X940780Y1003098D01*
X940492Y1003630D01*
G03X940280Y1003815I-347J-185D01*
G02X942094Y1004791I469J1304D01*
G01X942075Y1004717D01*
X942094Y1004579D01*
X942382Y1004047D01*
G03X942594Y1003862I347J185D01*
G02X942157Y1001173I-469J-1304D01*
G01X942079Y1001169D01*
X941945Y1001114D01*
X937098Y996268D01*
G02X936823Y996154I-277J280D01*
G01X907717D01*
G02X907441Y996268I2J394D01*
G01X905228Y998480D01*
G03X904953Y998594I-277J-280D01*
G01X902531D01*
G02X906378Y1002441I0J3846D01*
G01Y1000020D01*
G03X906492Y999744I394J2D01*
G01X908181Y998055D01*
G03X908457Y997941I277J280D01*
G01X909748D01*
G03X910122Y998209I1J394D01*
G01X910358Y998925D01*
G03X910224Y999362I-373J125D01*
G01X910220Y999366D01*
G02X909051Y1004083I2310J3076D01*
G03X909024Y1004469I-356J168D01*
G01X908531Y1005217D01*
X908461Y1005213D01*
G02X906874Y1006594I-192J1382D01*
G01Y1006673D01*
G03X906760Y1006949I-394J-2D01*
G01X905228Y1008480D01*
G03X904953Y1008594I-277J-280D01*
G01X902531D01*
G02X899350Y1014602I0J3846D01*
G03X899374Y1015008I-325J222D01*
G01X899043Y1015630D01*
G03X898697Y1015839I-347J-185D01*
G01X895941D01*
X895933Y1015827D01*
G02X895803Y1015697I-1043J913D01*
G01X895799Y1015693D01*
G03X895673Y1015445I265J-291D01*
G01X895610Y1014921D01*
G03X895677Y1014654I392J-44D01*
G01X895681Y1014650D01*
G02X889937Y1015283I-3151J-2208D01*
G01X889945Y1015287D01*
X891575Y1016925D01*
X891634Y1017067D01*
Y1017134D01*
X891579Y1017268D01*
G03X891213Y1017512I-364J-150D01*
G01X889803D01*
G03X889528Y1017398I2J-394D01*
G01X887138Y1015008D01*
G03X887035Y1014831I278J-279D01*
G01X886378Y1012327D01*
X886374Y1012283D01*
G02X882531Y1008594I-3843J157D01*
G01X880110D01*
G03X879835Y1008480I2J-394D01*
G01X877268Y1005913D01*
G02X876992Y1005799I-277J280D01*
G01X876394D01*
G03X876047Y1005591I1J-393D01*
G01X875661Y1004878D01*
X875673Y1004665D01*
X875736Y1004571D01*
G02X875126Y999598I-3204J-2130D01*
G01X875118Y999594D01*
X873539Y998008D01*
G03X873425Y997732I279J-277D01*
G01Y988039D01*
G03X873539Y987764I394J2D01*
G01X874173Y987130D01*
G03X874441Y987016I277J279D01*
G02X875795Y985630I-32J-1386D01*
G02X874409Y984244I-1386J0D01*
G02X873024Y985598I0J1386D01*
G01X873020Y985677D01*
X872965Y985811D01*
X871898Y986874D01*
G02X871638Y987508I635J631D01*
G01Y997732D01*
G03X871524Y998008I-394J-2D01*
G01X869945Y999594D01*
X869937Y999598D01*
G02X869327Y1004571I2594J2842D01*
G01X869390Y1004665D01*
X869402Y1004878D01*
X869016Y1005591D01*
G03X868669Y1005799I-347J-184D01*
G01X866394D01*
G03X866047Y1005591I1J-393D01*
G01X865661Y1004878D01*
X865673Y1004665D01*
X865736Y1004571D01*
G02X865126Y999598I-3204J-2130D01*
G01X865118Y999594D01*
X863539Y998008D01*
G03X863425Y997732I279J-277D01*
G01Y985567D01*
X863484Y985425D01*
X863492Y985417D01*
Y984524D01*
X863504Y984516D01*
G02X861543Y984366I-906J-1050D01*
G03X861638Y984618I-299J256D01*
G01Y997732D01*
G03X861524Y998008I-394J-2D01*
G01X859945Y999594D01*
X859937Y999598D01*
G02X859327Y1004571I2594J2842D01*
G01X859390Y1004665D01*
X859402Y1004878D01*
X859016Y1005591D01*
G03X858669Y1005799I-347J-184D01*
G01X856394D01*
G03X856047Y1005591I1J-393D01*
G01X855661Y1004878D01*
X855673Y1004665D01*
X855736Y1004571D01*
G02X856378Y1002445I-3205J-2127D01*
G01Y1002441D01*
G02X848685I-3846J0D01*
G01Y1002445D01*
G02X849327Y1004571I3847J-1D01*
G01X849390Y1004665D01*
X849402Y1004878D01*
X849016Y1005591D01*
G03X848669Y1005799I-347J-184D01*
G01X846394D01*
G03X846047Y1005591I1J-393D01*
G01X845661Y1004878D01*
X845673Y1004665D01*
X845736Y1004571D01*
G02X842531Y998594I-3205J-2129D01*
G01X841087D01*
G03X840811Y998480I2J-394D01*
G01X824228Y981898D01*
G03X824114Y981622I280J-277D01*
G01Y966461D01*
G03X824228Y966185I394J2D01*
G01X825165Y965244D01*
X825169Y965240D01*
G02X826378Y962441I-2637J-2799D01*
G02X818685I-3846J0D01*
G02X819894Y965240I3846J0D01*
G01X819898Y965244D01*
X820835Y966185D01*
G03X820949Y966461I-279J277D01*
G01Y977665D01*
G03X820709Y978031I-394J3D01*
G01X820705D01*
G03X820276Y977949I-153J-363D01*
G01X803665Y961335D01*
G03X803551Y961059I280J-277D01*
G01Y843811D01*
G03X803665Y843535I394J2D01*
G01X810878Y836323D01*
G03X811154Y836209I277J280D01*
G01X812598D01*
G02X808752Y832362I0J-3846D01*
G01Y833807D01*
G03X808638Y834083I-394J-2D01*
G01X800500Y842220D01*
G02X800386Y842496I280J277D01*
G01Y962374D01*
G02X800500Y962650I394J-2D01*
G01X838571Y1000720D01*
G03X838685Y1000996I-280J277D01*
G01Y1002441D01*
G02X839886Y1005232I3845J0D01*
G01X839945Y1005287D01*
X840004Y1005429D01*
X840012Y1006083D01*
G03X839898Y1006366I-393J6D01*
G01X837618Y1008646D01*
G02X837504Y1008921I280J277D01*
G01Y1014417D01*
G03X837390Y1014693I-394J-2D01*
G01X828091Y1023992D01*
G03X827815Y1024106I-277J-280D01*
G01X813965D01*
G02X813689Y1024220I2J394D01*
G01X804339Y1033571D01*
G02X804224Y1033846I280J277D01*
G01Y1075012D01*
G02X804339Y1075287I394J-2D01*
G01X807906Y1078854D01*
G03Y1079413I-277J280D01*
G01X798039Y1089280D01*
G02X797925Y1089555I280J277D01*
G01Y1099413D01*
G02X798039Y1099689I394J-2D01*
G01X800252Y1101902D01*
G03X800366Y1102177I-280J277D01*
G01Y1102720D01*
G03X800189Y1103047I-394J-2D01*
G01X799638Y1103413D01*
G03X799268Y1103445I-215J-330D01*
G01X799264D01*
G02X795878Y1107638I-1094J2580D01*
G01Y1107642D01*
G03X795917Y1108020I-322J225D01*
G01X795654Y1108638D01*
G03X795346Y1108874I-362J-153D01*
G02X795028Y1108949I335J2147D01*
G01X794937Y1108976D01*
X794756Y1108949D01*
X794161Y1108508D01*
G03X794004Y1108193I237J-315D01*
G01Y1099339D01*
G03X794118Y1099063I394J2D01*
G01X794492Y1098689D01*
G03X794760Y1098575I277J279D01*
G02X794236Y1095894I-32J-1386D01*
G01X794232D01*
G03X793815Y1095803I-139J-368D01*
G03Y1095244I277J-280D01*
G01X794252Y1094807D01*
G03X794520Y1094693I277J279D01*
G02X795874Y1093307I-32J-1386D01*
G02X794488Y1091921I-1386J0D01*
G02X793102Y1093276I0J1386D01*
G01X793098Y1093354D01*
X793043Y1093488D01*
X791150Y1095382D01*
G02X791035Y1095657I280J277D01*
G01Y1122492D01*
G02X791150Y1122768I394J-2D01*
G01X793382Y1125000D01*
G03X793496Y1125276I-280J277D01*
G01Y1126024D01*
G02X795736Y1128197I2174J0D01*
G03X796004Y1128291I12J394D01*
G01X796469Y1128693D01*
X796535Y1128823D01*
X796543Y1128898D01*
G02X797783Y1130118I1377J-159D01*
G01X797787D01*
G03X798043Y1130252I-42J391D01*
G01X798453Y1130720D01*
X798500Y1130858D01*
X798496Y1130937D01*
G02X799748Y1132992I2172J86D01*
G03X799969Y1133264I-164J358D01*
G01X800102Y1133882D01*
G03X800020Y1134220I-384J86D01*
G02X802969Y1133339I2146J1803D01*
G03X802709Y1133098I109J-379D01*
G01X802488Y1132512D01*
G03X802520Y1132165I367J-141D01*
G02X802843Y1131028I-1851J-1140D01*
G01Y1130276D01*
G03X802957Y1130000I394J2D01*
G01X805134Y1127823D01*
G02X805248Y1127547I-280J-277D01*
G01Y1120850D01*
G03X805492Y1120488I393J2D01*
G01Y1120484D01*
G03X805921Y1120571I150J365D01*
G01X809917Y1124567D01*
G03X810031Y1124835I-279J277D01*
G02X812799Y1124744I1384J-30D01*
G03X812858Y1124520I394J-16D01*
G01X812984Y1124315D01*
G03X813157Y1124161I336J205D01*
G02X813886Y1122433I-575J-1260D01*
G03X813870Y1122217I370J-136D01*
G01X813917Y1122000D01*
G03X814016Y1121811I385J81D01*
G02X813031Y1119480I-1015J-945D01*
G01X812953Y1119476D01*
X812819Y1119421D01*
X811492Y1118094D01*
G03X811378Y1117819I280J-277D01*
G01Y1117138D01*
G03X811500Y1116850I394J-2D01*
G01X811913Y1116457D01*
G03X812205Y1116346I274J283D01*
G02X812898Y1116193I57J-1385D01*
G01X812937Y1116173D01*
X813028Y1116150D01*
X814937D01*
G02X815213Y1116035I-2J-394D01*
G01X816953Y1114295D01*
G03X817228Y1114181I277J280D01*
G01X839110D01*
G03X839386Y1114295I-2J394D01*
G01X841520Y1116429D01*
G02X841795Y1116543I277J-280D01*
G01X844815D01*
X844906Y1116567D01*
X844945Y1116587D01*
G02X845579Y1116740I634J-1232D01*
G02Y1113969I0J-1386D01*
G02X844945Y1114122I0J1385D01*
G01X844906Y1114142D01*
X844815Y1114165D01*
X842780D01*
G03X842504Y1114051I2J-394D01*
G01X840370Y1111917D01*
G02X840094Y1111803I-277J280D01*
G01X816740D01*
G03X816346Y1111413I0J-394D01*
G01Y1111409D01*
G02X814421Y1112693I-1386J7D01*
G01X814492Y1112724D01*
X814547Y1112780D01*
G03Y1113339I-277J280D01*
G01X814228Y1113657D01*
G03X813953Y1113772I-277J-280D01*
G01X813028D01*
X812937Y1113748D01*
X812898Y1113728D01*
G02X812205Y1113575I-636J1232D01*
G03X811913Y1113465I-18J-393D01*
G01X811500Y1113071D01*
G03X811378Y1112783I272J-285D01*
G01Y1111701D01*
G03X811492Y1111425I394J2D01*
G01X815118Y1107799D01*
G03X815386Y1107685I277J279D01*
G02X816740Y1106224I-30J-1386D01*
G01X816736Y1106130D01*
X816811Y1105957D01*
X817386Y1105492D01*
G03X817740Y1105421I246J308D01*
G02X819496Y1104087I371J-1335D01*
G01Y1103976D01*
G03X819610Y1103701I394J2D01*
G01X822925Y1100386D01*
G02X823039Y1100110I-280J-277D01*
G01Y1090047D01*
G02X822925Y1089772I-394J2D01*
G01X821579Y1088425D01*
G03X821465Y1088157I279J-277D01*
G02X820079Y1086803I-1386J32D01*
G02X818693Y1088189I0J1386D01*
G02X820047Y1089575I1386J0D01*
G01X820126Y1089579D01*
X820260Y1089634D01*
X821138Y1090512D01*
G03X821252Y1090787I-280J277D01*
G01Y1091528D01*
G03X821138Y1091803I-394J-2D01*
G01X820744Y1092197D01*
G03X820465Y1092315I-281J-275D01*
G02X819685Y1092563I11J1385D01*
G03X819457Y1092634I-225J-323D01*
G01X819217D01*
G03X818992Y1092563I1J-394D01*
G02X817028Y1092972I-788J1139D01*
G01Y1092976D01*
G03X816799Y1093142I-330J-215D01*
G01X816280Y1093287D01*
G03X815992Y1093256I-104J-380D01*
G02X815173Y1093114I-635J1232D01*
G01X815087Y1093126D01*
X814929Y1093079D01*
X814413Y1092626D01*
G03X814280Y1092331I260J-296D01*
G01Y1084783D01*
G03X814394Y1084508I394J2D01*
G01X815118Y1083783D01*
G03X815386Y1083669I277J279D01*
G02X816622Y1081732I-34J-1384D01*
G01Y1081724D01*
G03X816654Y1081358I362J-153D01*
G01X817016Y1080795D01*
G03X817343Y1080618I329J217D01*
G01X819650D01*
G03X819925Y1080732I-2J394D01*
G01X841154Y1101961D01*
G02X841429Y1102075I277J-280D01*
G01X859461D01*
G03X859736Y1102189I-2J394D01*
G01X863610Y1106063D01*
G03X863724Y1106331I-279J277D01*
G02X863732Y1106441I1385J-44D01*
G03X863736Y1106469I-388J69D01*
G03X863020Y1106717I-396J15D01*
G03X863012Y1106705I324J-224D01*
G02X863185Y1107898I-1149J776D01*
G01Y1107894D01*
G03X863429Y1107642I375J120D01*
G01X864016Y1107429D01*
G03X864366Y1107469I136J370D01*
G02X865142Y1104913I744J-1169D01*
G01X865063Y1104909D01*
X864929Y1104854D01*
X861642Y1101567D01*
G03X861555Y1101138I278J-279D01*
G01X861559D01*
G03X861921Y1100894I364J149D01*
G01X863248D01*
G03X863524Y1101008I-2J394D01*
G01X867890Y1105374D01*
G03X868004Y1105650I-280J277D01*
G01Y1124665D01*
G03X867890Y1124941I-394J-2D01*
G01X860244Y1132587D01*
G02X860130Y1132862I280J277D01*
G01Y1141657D01*
X860118Y1141665D01*
G37*
G54D27*
X863272Y1152756D03*
X872327D03*
G54D26*
X794173Y1136024D03*
G54D24*
X992520Y832362D03*
X812598Y842362D03*
X992520D03*
X812598Y852362D03*
X992520D03*
X848969Y865248D03*
X858969D03*
X812531Y872441D03*
X822531D03*
X982610D03*
X992610D03*
X848969Y875248D03*
X858969D03*
X812531Y882441D03*
X822531D03*
X982610D03*
X992610D03*
X812531Y892441D03*
X822531D03*
X982610D03*
X992610D03*
X812531Y902441D03*
X822531D03*
X982610D03*
X992610D03*
X812531Y912441D03*
X822531D03*
X982610D03*
X992610D03*
X812531Y922441D03*
X822531D03*
X982610D03*
X992610D03*
X812531Y932441D03*
X822531D03*
X982610D03*
X992610D03*
X812531Y942441D03*
X982610D03*
X992610D03*
X812531Y952441D03*
X822531D03*
X982610D03*
X992610D03*
X812531Y962441D03*
X982610D03*
X992610D03*
X832531Y1002441D03*
X983858D03*
X832531Y1012441D03*
X983858D03*
G54D25*
X952457Y850890D03*
X954921Y853740D03*
X796433Y864961D03*
X902205Y865748D03*
X957283Y866142D03*
X964173Y867126D03*
X885827Y881150D03*
X902205Y881193D03*
X882677Y883071D03*
X922047Y885039D03*
X882677Y891240D03*
X942992Y893504D03*
X963386Y897835D03*
X882185Y898524D03*
X922453Y907862D03*
X858071Y907874D03*
X961575Y908307D03*
X881591Y911323D03*
X908386Y922441D03*
X906496Y932441D03*
X904252Y936024D03*
X957795Y937992D03*
X906299Y944154D03*
X882480Y945276D03*
X882539Y950925D03*
X905768D03*
X969606Y954528D03*
X943307Y975394D03*
X926181Y975402D03*
X925197Y980118D03*
X945618Y983858D03*
X869291Y993543D03*
X794094Y1068898D03*
X794382Y1087402D03*
X850787Y1106602D03*
X838583Y1107087D03*
X893504Y1118504D03*
X889764Y1126567D03*
X893701D03*
X897638Y1126772D03*
X811024Y1128740D03*
X840748Y1130472D03*
X911024Y1133276D03*
X889764Y1138583D03*
X893701D03*
X897638D03*
%LPD*%
G75*
G36*
G01X809350Y834626D02*
Y832362D01*
X812772Y832189D01*
X812598Y835610D01*
X810335D01*
G03X809350Y834626I0J-984D01*
G37*
G36*
G01X827559Y977461D02*
Y977953D01*
X826720Y978004D01*
X826772Y977165D01*
X827264D01*
G03X827559Y977461I0J295D01*
G37*
G36*
G01X830512Y981201D02*
Y981693D01*
X829673Y981744D01*
X829724Y980906D01*
X830217D01*
G03X830512Y981201I0J295D01*
G37*
G36*
G01X822531Y979941D02*
Y982441D01*
X820587Y980500D01*
X821835Y979248D01*
X822531Y979941D01*
G37*
G36*
G01X821835Y966339D02*
X820236Y964736D01*
X822531Y962197D01*
X824827Y964736D01*
X823228Y966339D01*
G03X821835I-697J-697D01*
G37*
G36*
G01X833531Y1022717D02*
X833539Y1022728D01*
X843736D01*
G02X844012Y1022614I-2J-394D01*
G01X844028Y1022598D01*
X844087Y1022457D01*
Y1016681D01*
G02X843693Y1016287I-394J0D01*
G01X842531D01*
G03X840012Y1015346I0J-3844D01*
G02X839748Y1015252I-256J299D01*
G01X839512Y1015256D01*
G02X839240Y1015370I6J393D01*
G01X833260Y1021350D01*
G02X833146Y1021650I279J278D01*
G01X833185Y1022244D01*
G02X833335Y1022531I393J-22D01*
G03X833531Y1022717I-847J1098D01*
G37*
G36*
G01X818839Y1057768D02*
X885760D01*
G02X886126Y1057524I2J-394D01*
G02X886039Y1057094I-365J-150D01*
G01X881921Y1052976D01*
G02X881646Y1052862I-277J280D01*
G01X871059D01*
G02X870764Y1052996I0J393D01*
G01X870370Y1053445D01*
G02X870276Y1053756I296J260D01*
G01Y1053760D01*
G03X870287Y1053941I-1374J181D01*
G03X867516I-1386J0D01*
G03X867528Y1053760I1386J-1D01*
G01Y1053756D01*
G02X867433Y1053445I-390J-51D01*
G01X867039Y1052996D01*
G02X866744Y1052862I-296J260D01*
G01X816185D01*
G02X815909Y1052976I2J394D01*
G01X815622Y1053260D01*
X815614Y1053272D01*
G03X815488Y1053398I-1041J-915D01*
G02X815358Y1053681I263J292D01*
G01X815339Y1054256D01*
G02X815457Y1054547I394J10D01*
G01X818563Y1057654D01*
G02X818839Y1057768I277J-280D01*
G37*
G36*
G01X888713Y1055406D02*
X892331D01*
G02X892626Y1055272I0J-394D01*
G01X893020Y1054823D01*
G02X893114Y1054512I-296J-260D01*
G03X893102Y1054331I1374J-181D01*
G03X894488Y1052945I1386J0D01*
G01X894551D01*
G02X894839Y1052839I18J-393D01*
G01X895252Y1052441D01*
G02X895374Y1052157I-272J-285D01*
G01Y1049953D01*
G03X895488Y1049677I394J2D01*
G01X903720Y1041445D01*
G03X903996Y1041331I277J279D01*
G01X943449D01*
G02X943728Y1041217I2J-394D01*
G01X946268Y1038677D01*
X946409Y1038618D01*
X946480D01*
X947213Y1037886D01*
G02X947299Y1037457I-278J-279D01*
G01X947295D01*
G02X946933Y1037213I-364J149D01*
G01X921126D01*
G02X920799Y1037382I-3J394D01*
G01X920429Y1037925D01*
G02X920386Y1038287I325J223D01*
G03X920480Y1038787I-1291J503D01*
G03X919094Y1040173I-1386J0D01*
G03X918213Y1039858I-2J-1387D01*
G02X917965Y1039768I-251J303D01*
G01X917465D01*
G02X917213Y1039854I-6J393D01*
G03X916339Y1040165I-874J-1073D01*
G03X915528Y1039902I2J-1385D01*
G02X915295Y1039827I-231J320D01*
G01X914831Y1039831D01*
G02X914598Y1039906I-2J393D01*
G03X913780Y1040173I-819J-1119D01*
G03X912957Y1039902I0J-1382D01*
G02X912720Y1039827I-231J318D01*
G01X912476D01*
G02X912240Y1039902I-5J393D01*
G03X911417Y1040173I-823J-1110D01*
G03X910031Y1038787I0J-1386D01*
G03X910126Y1038287I1385J3D01*
G02X910083Y1037925I-368J-140D01*
G01X909713Y1037382D01*
G02X909386Y1037213I-324J225D01*
G01X881512D01*
G02X881161Y1037429I1J394D01*
G01Y1037433D01*
G03X880154Y1038177I-1239J-623D01*
G02X879898Y1038343I69J387D01*
G01X879575Y1038807D01*
G02X879512Y1039106I323J224D01*
G03X879516Y1039134I-1370J210D01*
G01X879524Y1039173D01*
X879567Y1039283D01*
G02X879654Y1039417I367J-142D01*
G01X881642Y1041406D01*
G03X881756Y1041681I-280J277D01*
G01Y1044118D01*
X881768Y1044126D01*
G03X882248Y1045177I-910J1051D01*
G03X882236Y1045358I-1386J1D01*
G02X882331Y1045669I390J51D01*
G01X882724Y1046118D01*
G02X883020Y1046252I296J-260D01*
G01X884646D01*
G03X885933Y1047126I0J1385D01*
G01X885965Y1047201D01*
X886657Y1047894D01*
X886732Y1047925D01*
G03X887606Y1049213I-511J1287D01*
G03X886220Y1050598I-1386J0D01*
G01X886016D01*
G03X885035Y1050193I0J-1388D01*
G01X883980Y1049138D01*
G02X883705Y1049024I-277J279D01*
G01X862083D01*
G03X861102Y1048618I0J-1388D01*
G01X844201Y1031717D01*
G03X844087Y1031437I280J-277D01*
G01Y1024866D01*
G02X843972Y1024591I-394J2D01*
G01X843957Y1024575D01*
X843815Y1024516D01*
X833539D01*
X833531Y1024528D01*
G03X832480Y1025008I-1051J-910D01*
G03X831390Y1024476I0J-1385D01*
G02X831102Y1024327I-309J243D01*
G01X830508Y1024287D01*
G02X830209Y1024402I-21J394D01*
G01X828831Y1025780D01*
G03X828555Y1025894I-277J-280D01*
G01X827713D01*
G02X827406Y1026043I2J393D01*
G01X827020Y1026528D01*
G02X826941Y1026858I306J248D01*
G03X826976Y1027165I-1350J311D01*
G03X826496Y1028217I-1390J0D01*
G01X826484Y1028224D01*
Y1042248D01*
X826496Y1042256D01*
G03X826976Y1043307I-910J1051D01*
G03X824205I-1386J0D01*
G03X824685Y1042256I1390J0D01*
G01X824697Y1042248D01*
Y1028224D01*
X824685Y1028217D01*
G03X824366Y1027815I908J-1048D01*
G02X823665I-350J183D01*
G03X822441Y1028551I-1224J-650D01*
G03X821055Y1027165I0J-1386D01*
G03X821091Y1026858I1385J4D01*
G02X821012Y1026528I-384J-83D01*
G01X820626Y1026043D01*
G02X820319Y1025894I-309J244D01*
G01X814705D01*
G02X814429Y1026008I2J394D01*
G01X806126Y1034311D01*
G02X806012Y1034587I280J277D01*
G01Y1048909D01*
G02X806134Y1049193I394J-1D01*
G01X806543Y1049587D01*
G02X806835Y1049697I273J-283D01*
G01X806890D01*
G03X807941Y1050177I0J1390D01*
G01X807949Y1050189D01*
X810937D01*
G03X811213Y1050303I-2J394D01*
G01X812382Y1051472D01*
G02X812673Y1051591I282J-276D01*
G01X813248Y1051571D01*
G02X813531Y1051441I-9J-393D01*
G03X814567Y1050976I1035J922D01*
G03X815020Y1051051I3J1386D01*
G01X815083Y1051075D01*
X850925D01*
G02X851291Y1050831I2J-394D01*
G02X851205Y1050402I-365J-150D01*
G01X848071Y1047268D01*
G02X847803Y1047154I-277J279D01*
G03X846449Y1045768I32J-1386D01*
G03X847835Y1044382I1386J0D01*
G03X849220Y1045736I0J1386D01*
G02X849335Y1046004I393J-10D01*
G01X853110Y1049780D01*
G02X853386Y1049894I277J-280D01*
G01X882878D01*
G03X883154Y1050008I-2J394D01*
G01X888437Y1055291D01*
G02X888713Y1055406I277J-280D01*
G37*
G36*
G01X806012Y1071843D02*
Y1072220D01*
G02X806406Y1072614I394J0D01*
G01X806409D01*
G02X806732Y1072441I-3J-394D01*
G03X807843Y1071843I1141J788D01*
G02X808110Y1071728I-10J-393D01*
G01X808177Y1071661D01*
G03X808453Y1071547I277J280D01*
G01X890197D01*
G02X890563Y1071303I2J-394D01*
G02X890476Y1070874I-365J-150D01*
G01X881634Y1062031D01*
G02X881358Y1061917I-277J280D01*
G01X809535D01*
G03X809260Y1061803I2J-394D01*
G01X808205Y1060748D01*
G02X808008Y1060642I-278J279D01*
G01X807972Y1060634D01*
X807949D01*
G03X807264Y1060378I125J-1380D01*
G02X806854Y1060346I-231J320D01*
G01X806224Y1060669D01*
G02X806012Y1061020I182J350D01*
G01Y1067528D01*
G02X806146Y1067823I394J0D01*
G01X806594Y1068217D01*
G02X806906Y1068311I260J-296D01*
G03X807087Y1068299I181J1374D01*
G03Y1071071I0J1386D01*
G03X806906Y1071059I-1J-1386D01*
G02X806594Y1071154I-51J390D01*
G01X806146Y1071547D01*
G02X806012Y1071843I260J296D01*
G37*
G36*
G01X808504Y1060134D02*
X808012Y1060031D01*
X808024Y1059197D01*
X808858Y1059252D01*
Y1059843D01*
G03X808504Y1060134I-297J0D01*
G37*
G36*
G01X810335Y1053543D02*
X809843D01*
X809791Y1052705D01*
X810630Y1052756D01*
Y1053248D01*
G03X810335Y1053543I-295J0D01*
G37*
G36*
G01X807795Y1051291D02*
X807441Y1051638D01*
X806815Y1051083D01*
X807441Y1050528D01*
X807795Y1050874D01*
G03Y1051291I-209J209D01*
G37*
G36*
G01X833386Y1023831D02*
X833031Y1024177D01*
X832406Y1023622D01*
X833031Y1023067D01*
X833386Y1023413D01*
G03Y1023831I-209J209D01*
G37*
G36*
G01X815866Y1052177D02*
X815122Y1052913D01*
X814496Y1052386D01*
X814961Y1051969D01*
X815657D01*
X815866Y1052177D01*
G37*
G36*
G01X825382Y1028071D02*
X825035Y1027717D01*
X825591Y1027091D01*
X826146Y1027717D01*
X825799Y1028071D01*
G03X825382I-209J-209D01*
G37*
G36*
G01X825799Y1042402D02*
X826146Y1042756D01*
X825591Y1043382D01*
X825035Y1042756D01*
X825382Y1042402D01*
G03X825799I209J209D01*
G37*
G36*
G01X808409Y1119579D02*
Y1088906D01*
G03X808524Y1088630I394J2D01*
G01X809622Y1087531D01*
G02X809736Y1087256I-280J-277D01*
G01Y1087079D01*
G02X809343Y1086685I-394J0D01*
G01X809264D01*
X809189Y1086713D01*
G03X808693Y1086819I-533J-1278D01*
G02X808425Y1086933I10J393D01*
G01X805732Y1089626D01*
G02X805618Y1089902I280J277D01*
G01Y1095433D01*
G02X805732Y1095709I394J-2D01*
G01X806315Y1096291D01*
G03X806429Y1096567I-280J277D01*
G01Y1118390D01*
G02X806543Y1118665I394J-2D01*
G01X807736Y1119858D01*
G02X808165Y1119945I279J-278D01*
G02X808409Y1119579I-150J-364D01*
G37*
G36*
G01X810197Y1089646D02*
Y1097429D01*
G02X810441Y1097795I394J2D01*
G02X810870Y1097709I150J-365D01*
G01X812378Y1096201D01*
G02X812492Y1095925I-280J-277D01*
G01Y1083787D01*
G02X812098Y1083394I-394J0D01*
G01X812094D01*
G02X811772Y1083567I3J394D01*
G03X811535Y1083831I-1143J-786D01*
G01X811524Y1083839D01*
Y1087996D01*
G03X811409Y1088272I-394J-2D01*
G01X810311Y1089370D01*
G02X810197Y1089646I280J277D01*
G37*
G36*
G01X926614Y1108654D02*
X931433D01*
G02X931756Y1108484I-1J-394D01*
G01X932126Y1107945D01*
G02X932169Y1107583I-324J-222D01*
G01Y1107579D01*
G03X932079Y1107087I1292J-492D01*
G03X933465Y1105701I1386J0D01*
G03X934287Y1105972I0J1382D01*
G02X934524Y1106047I231J-318D01*
G01X934768D01*
G02X935004Y1105972I5J-393D01*
G03X935827Y1105701I823J1110D01*
G03X936547Y1105902I2J1386D01*
G02X936752Y1105961I207J-334D01*
G01X936976D01*
G02X937181Y1105902I-3J-394D01*
G03X937358Y1105811I718J1186D01*
G01X937362D01*
G02X937594Y1105524I-155J-363D01*
G01X937720Y1104878D01*
G02X937610Y1104524I-387J-74D01*
G01X921520Y1088433D01*
G02X921224Y1088319I-278J279D01*
G01X920642Y1088346D01*
G02X920354Y1088488I15J393D01*
G03X919291Y1088984I-1063J-891D01*
G03X917906Y1087598I0J-1386D01*
G03X918402Y1086535I1387J0D01*
G02X918543Y1086248I-251J-303D01*
G01X918571Y1085665D01*
G02X918457Y1085370I-394J-18D01*
G01X913228Y1080142D01*
G02X912953Y1080028I-277J280D01*
G01X898118D01*
G03X897843Y1079913I2J-394D01*
G01X891378Y1073449D01*
G02X891102Y1073335I-277J280D01*
G01X809583D01*
G02X809205Y1073618I0J393D01*
G03X808012Y1074606I-1330J-391D01*
G02X807681Y1074866I40J392D01*
G01X807441Y1075543D01*
G02X807531Y1075953I370J133D01*
G01X809114Y1077535D01*
G02X809390Y1077650I277J-280D01*
G01X820882D01*
G03X821157Y1077764I-2J394D01*
G01X834256Y1090862D01*
G02X834571Y1090972I275J-281D01*
G01X835177Y1090917D01*
G02X835469Y1090744I-36J-392D01*
G03X836583Y1090138I1146J779D01*
G02X836850Y1090024I-10J-393D01*
G01X837425Y1089449D01*
X837437D01*
X841543Y1085343D01*
G03X841819Y1085228I277J280D01*
G01X847705D01*
G02X848020Y1085075I3J-394D01*
G01X848402Y1084571D01*
G02X848469Y1084228I-313J-239D01*
G03X848417Y1083858I1334J-373D01*
G03X849772Y1082472I1386J0D01*
G02X850039Y1082358I-10J-393D01*
G01X852370Y1080028D01*
G03X852646Y1079913I277J280D01*
G01X876988D01*
G03X877264Y1080028I-2J394D01*
G01X881169Y1083933D01*
G02X881445Y1084047I277J-280D01*
G01X892039D01*
G03X892315Y1084161I-2J394D01*
G01X913740Y1105587D01*
G02X914016Y1105701I277J-280D01*
G01X922646D01*
G03X922921Y1105815I-2J394D01*
G01X922945Y1105839D01*
X923087Y1105898D01*
X923535D01*
G03X923811Y1106012I-2J394D01*
G01X926339Y1108539D01*
G02X926614Y1108654I277J-280D01*
G37*
G36*
G01X795669Y1123850D02*
G03X795791Y1123854I-9J2173D01*
G01X796094Y1123614D01*
G02X796232Y1123406I-243J-310D01*
G03X797571Y1122374I1339J353D01*
G03X797693Y1122378I16J1386D01*
G02X798020Y1122252I37J-392D01*
G01X798441Y1121780D01*
G02X798535Y1121441I-291J-264D01*
G03X798496Y1121024I2134J-412D01*
G03X800669Y1118850I2173J0D01*
G01X801417D01*
G02X801693Y1118736I-2J-394D01*
G01X802165Y1118264D01*
G02X802280Y1117988I-280J-277D01*
G01Y1113870D01*
G02X802122Y1113559I-393J4D01*
G01X801618Y1113177D01*
G02X801272Y1113110I-240J313D01*
G01Y1113114D01*
G03X800669Y1113197I-594J-2092D01*
G03X799870Y1113043I3J-2173D01*
G02X799583I-144J367D01*
G01X799083Y1113232D01*
G02X798870Y1113425I140J368D01*
G03X798114Y1114106I-1241J-617D01*
G02X797890Y1114319I137J369D01*
G01X797661Y1114850D01*
G02X797665Y1115161I364J151D01*
G03X797843Y1116024I-1997J860D01*
G03X795669Y1118197I-2173J0D01*
G03X794161Y1117591I0J-2178D01*
G02X793736Y1117512I-272J283D01*
G01X793063Y1117795D01*
G02X792823Y1118157I154J363D01*
G01Y1121752D01*
G02X792937Y1122028I394J-2D01*
G01X794646Y1123736D01*
G02X794921Y1123850I277J-280D01*
G01X795669D01*
G37*
G36*
G01X802850Y1096059D02*
X802358D01*
X802307Y1095220D01*
X803146Y1095272D01*
Y1095764D01*
G03X802850Y1096059I-295J0D01*
G37*
G36*
G01X801083Y1098031D02*
X800591D01*
X800539Y1097193D01*
X801378Y1097244D01*
Y1097736D01*
G03X801083Y1098031I-295J0D01*
G37*
G36*
G01X802244Y1119744D02*
Y1121024D01*
X800618Y1121075D01*
X800669Y1119449D01*
X801949D01*
G03X802244Y1119744I0J295D01*
G37*
G36*
G01X793701Y1093799D02*
Y1093307D01*
X794539Y1093256D01*
X794488Y1094094D01*
X793996D01*
G03X793701Y1093799I0J-295D01*
G37*
G36*
G01X794390Y1124449D02*
X795669D01*
X795720Y1126075D01*
X794094Y1126024D01*
Y1124744D01*
G03X794390Y1124449I295J0D01*
G37*
G36*
G01X793941Y1097681D02*
Y1097189D01*
X794780Y1097138D01*
X794728Y1097976D01*
X794236D01*
G03X793941Y1097681I0J-295D01*
G37*
G36*
G01X794390Y1114449D02*
X795669D01*
X795720Y1116075D01*
X794094Y1116024D01*
Y1114744D01*
G03X794390Y1114449I295J0D01*
G37*
G36*
G01X801547Y1108563D02*
X801858Y1110059D01*
X800654Y1111094D01*
X799559Y1109913D01*
X801051Y1108413D01*
G03X801547Y1108563I208J209D01*
G37*
G36*
G01X812091Y1122114D02*
X812583D01*
X812634Y1122953D01*
X811795Y1122902D01*
Y1122409D01*
G03X812091Y1122114I295J0D01*
G37*
G36*
G01X810421Y1083685D02*
X810075Y1083331D01*
X810630Y1082705D01*
X811185Y1083331D01*
X810839Y1083685D01*
G03X810421I-209J-209D01*
G37*
G36*
G01X812508Y1120079D02*
X813000D01*
X813051Y1120917D01*
X812213Y1120866D01*
Y1120374D01*
G03X812508Y1120079I295J0D01*
G37*
G36*
G01X814567Y1106791D02*
Y1106299D01*
X815406Y1106248D01*
X815354Y1107087D01*
X814862D01*
G03X814567Y1106791I0J-295D01*
G37*
G36*
G01X818898Y1103445D02*
Y1104087D01*
X818067Y1104146D01*
X818024Y1103315D01*
X818516Y1103161D01*
G03X818898Y1103445I86J283D01*
G37*
G36*
G01X820571Y1088976D02*
X820079D01*
X820028Y1088138D01*
X820866Y1088189D01*
Y1088681D01*
G03X820571Y1088976I-295J0D01*
G37*
G36*
G01X812020Y1104803D02*
X812366Y1105157D01*
X811811Y1105783D01*
X811256Y1105157D01*
X811602Y1104803D01*
G03X812020I209J209D01*
G37*
G36*
G01X814567Y1082776D02*
Y1082283D01*
X815406Y1082232D01*
X815354Y1083071D01*
X814862D01*
G03X814567Y1082776I0J-295D01*
G37*
G36*
G01X810925Y1124016D02*
X811417D01*
X811469Y1124854D01*
X810630Y1124803D01*
Y1124311D01*
G03X810925Y1124016I295J0D01*
G37*
G36*
G01X807874Y1085925D02*
Y1085433D01*
X808713Y1085382D01*
X808661Y1086220D01*
X808169D01*
G03X807874Y1085925I0J-295D01*
G37*
G36*
G01X808661Y1072736D02*
Y1073228D01*
X807823Y1073280D01*
X807874Y1072441D01*
X808366D01*
G03X808661Y1072736I0J295D01*
G37*
G36*
G01X797024Y1112535D02*
X795744Y1112594D01*
X795614Y1110972D01*
X797240Y1110953D01*
X797303Y1112228D01*
G03X797024Y1112535I-295J12D01*
G37*
G36*
G01X797098Y1112043D02*
X797591Y1112024D01*
X797685Y1112858D01*
X796846Y1112846D01*
X796819Y1112354D01*
G03X797098Y1112043I295J-16D01*
G37*
G36*
G01X802244Y1129744D02*
Y1131024D01*
X800618Y1131075D01*
X800669Y1129449D01*
X801949D01*
G03X802244Y1129744I0J295D01*
G37*
G36*
G01X880413Y977756D02*
X879921D01*
X879870Y976917D01*
X880709Y976969D01*
Y977461D01*
G03X880413Y977756I-295J0D01*
G37*
G36*
G01X882740Y998055D02*
X884823Y1000146D01*
X882531Y1002516D01*
X880240Y1000146D01*
X882323Y998055D01*
G03X882740I209J209D01*
G37*
G36*
G01X895780Y999488D02*
Y1002441D01*
X892480Y1002492D01*
X892531Y999193D01*
X895484D01*
G03X895780Y999488I0J295D01*
G37*
G36*
G01X873622Y986122D02*
Y985630D01*
X874461Y985579D01*
X874409Y986417D01*
X873917D01*
G03X873622Y986122I0J-295D01*
G37*
G36*
G01X872740Y998055D02*
X874823Y1000146D01*
X872531Y1002516D01*
X870240Y1000146D01*
X872323Y998055D01*
G03X872740I209J209D01*
G37*
G36*
G01X862740D02*
X864823Y1000146D01*
X862531Y1002516D01*
X860240Y1000146D01*
X862323Y998055D01*
G03X862740I209J209D01*
G37*
G36*
G01X862390Y984370D02*
X862043Y984016D01*
X862598Y983390D01*
X863154Y984016D01*
X862807Y984370D01*
G03X862390I-209J-209D01*
G37*
G36*
G01X886319Y972402D02*
X886811D01*
X886862Y973240D01*
X886024Y973189D01*
Y972697D01*
G03X886319Y972402I295J0D01*
G37*
G36*
G01X883563Y974803D02*
X884055D01*
X884106Y975642D01*
X883268Y975591D01*
Y975098D01*
G03X883563Y974803I295J0D01*
G37*
G36*
G01X879579Y1009193D02*
X882531D01*
X882583Y1012492D01*
X879283Y1012441D01*
Y1009488D01*
G03X879579Y1009193I295J0D01*
G37*
G36*
G01X840268Y999193D02*
X842531D01*
X842705Y1002614D01*
X839283Y1002441D01*
Y1000177D01*
G03X840268Y999193I984J0D01*
G37*
G36*
G01X989988Y1039272D02*
X992287D01*
G02X992567Y1039157I2J-394D01*
G01X995791Y1035933D01*
G03X996067Y1035819I277J279D01*
G01X1006870D01*
G03X1007146Y1035933I-2J394D01*
G01X1009713Y1038500D01*
G02X1009874Y1038598I280J-277D01*
G03X1009949Y1038626I-441J1313D01*
G02X1010311Y1038583I140J-368D01*
G01X1010854Y1038213D01*
G02X1011024Y1037886I-225J-324D01*
G01Y1033638D01*
G02X1010882Y1033335I-394J-1D01*
G01X1010413Y1032945D01*
G02X1010091Y1032858I-254J301D01*
G03X1009843Y1032882I-255J-1362D01*
G03Y1030110I0J-1386D01*
G03X1010091Y1030134I-7J1385D01*
G02X1010413Y1030047I69J-388D01*
G01X1010882Y1029657D01*
G02X1011024Y1029354I-252J-302D01*
G01Y1018504D01*
G02X1010630Y1018110I-394J0D01*
G01X1004657D01*
G03X1004528Y1018118I-149J-1377D01*
G03X1004398Y1018110I19J-1385D01*
G01X986854D01*
G02X986484Y1018370I0J393D01*
G01X986228Y1019067D01*
G02X986343Y1019504I369J137D01*
G03X987705Y1022441I-2485J2937D01*
G03X980012I-3846J0D01*
G03X981374Y1019504I3847J0D01*
G02X981488Y1019067I-255J-300D01*
G01X981232Y1018370D01*
G02X980862Y1018110I-370J134D01*
G01X973240D01*
G02X972961Y1018224I-2J394D01*
G01X972563Y1018622D01*
G02X972449Y1018898I280J277D01*
G01Y1018902D01*
G03X969677I-1386J-4D01*
G01Y1018898D01*
G02X969563Y1018622I-394J2D01*
G01X969165Y1018224D01*
G02X968886Y1018110I-277J280D01*
G01X945720D01*
G02X945354Y1018354I-2J394D01*
G02X945441Y1018783I365J150D01*
G01X947791Y1021130D01*
G02X947917Y1021217I281J-274D01*
G01X948035Y1021268D01*
X948079Y1021272D01*
G03X949220Y1022638I-246J1366D01*
G03X946449I-1386J0D01*
G01Y1022480D01*
G02X946335Y1022205I-394J2D01*
G01X943843Y1019713D01*
G02X943500Y1019602I-278J278D01*
G01X942866Y1019705D01*
G02X942575Y1019913I58J389D01*
G03X942193Y1020382I-1239J-620D01*
G02X942043Y1020669I243J309D01*
G01X942004Y1021264D01*
G02X942118Y1021563I394J21D01*
G01X944646Y1024091D01*
G02X944913Y1024205I277J-279D01*
G03X946268Y1025591I-32J1386D01*
G03X944882Y1026976I-1386J0D01*
G03X943496Y1025622I0J-1386D01*
G02X943382Y1025354I-393J10D01*
G01X937579Y1019551D01*
G02X937303Y1019437I-277J280D01*
G01X933673D01*
G02X933390Y1019555I-2J394D01*
G01X932992Y1019961D01*
G02X932882Y1020244I284J273D01*
G01Y1020276D01*
G03X931496Y1021661I-1386J0D01*
G03X930453Y1021189I0J-1388D01*
G02X930433Y1021165I-312J240D01*
G01X930394Y1021130D01*
X930252Y1021071D01*
X929504D01*
G02X929201Y1021213I0J394D01*
G01X928811Y1021677D01*
G02X928724Y1022000I302J254D01*
G01X928728D01*
G03X928748Y1022244I-1367J233D01*
G03X927362Y1023630I-1386J0D01*
G03X926012Y1022559I0J-1387D01*
G01Y1022555D01*
G02X925630Y1022252I-383J91D01*
G01X923858D01*
G02X923543Y1022406I-3J394D01*
G01X923161Y1022909D01*
G02X923094Y1023252I313J239D01*
G03X923146Y1023622I-1334J373D01*
G03X920374I-1386J0D01*
G03X920425Y1023252I1385J3D01*
G02X920358Y1022909I-380J-103D01*
G01X919976Y1022406D01*
G02X919661Y1022252I-312J241D01*
G01X910496D01*
G02X910173Y1022421I1J394D01*
G01X909803Y1022961D01*
G02X909760Y1023323I324J222D01*
G01Y1023327D01*
G03X909850Y1023819I-1292J492D01*
G03X907079I-1386J0D01*
G03X907169Y1023327I1383J0D01*
G01Y1023323D01*
G02X907126Y1022961I-367J-140D01*
G01X906756Y1022421D01*
G02X906433Y1022252I-324J225D01*
G01X903823D01*
G02X903488Y1022437I0J394D01*
G01X903134Y1023012D01*
G02X903118Y1023398I335J207D01*
G03X903264Y1024016I-1239J618D01*
G03X900492I-1386J0D01*
G03X900638Y1023398I1384J0D01*
G02X900622Y1023012I-351J-179D01*
G01X900268Y1022437D01*
G02X899933Y1022252I-334J209D01*
G01X899138D01*
G02X898803Y1022437I0J394D01*
G01X898449Y1023012D01*
G02X898433Y1023398I335J207D01*
G03X898579Y1024016I-1239J618D01*
G03X895807I-1386J0D01*
G03X895953Y1023398I1384J0D01*
G02X895937Y1023012I-351J-179D01*
G01X895583Y1022437D01*
G02X895248Y1022252I-334J209D01*
G01X891138D01*
G02X890815Y1022421I1J394D01*
G01X890445Y1022961D01*
G02X890402Y1023323I324J222D01*
G01Y1023327D01*
G03X890492Y1023819I-1292J492D01*
G03X887720I-1386J0D01*
G03X888740Y1022484I1383J0D01*
G01Y1022480D01*
G02X889016Y1022205I-103J-379D01*
G01X889193Y1021539D01*
G02X889091Y1021161I-381J-100D01*
G01X886154Y1018224D01*
G02X885878Y1018110I-277J280D01*
G01X858902D01*
X858839Y1018134D01*
G03X858366Y1018217I-472J-1308D01*
G03X856980Y1016831I0J-1386D01*
G03X858161Y1015461I1385J0D01*
G02X858390Y1015343I-57J-390D01*
G01X858555Y1015165D01*
G02X858661Y1014894I-288J-269D01*
G01Y1007980D01*
G02X858268Y1007587I-394J0D01*
G01X846850D01*
G02X846457Y1007980I0J394D01*
G01Y1014244D01*
G02X846571Y1014520I394J-2D01*
G01X846744Y1014693D01*
G03X846858Y1014972I-280J277D01*
G01Y1028886D01*
G02X847028Y1029209I394J-1D01*
G01X847567Y1029579D01*
G02X847929Y1029622I222J-324D01*
G01X847933D01*
G03X848425Y1029531I492J1292D01*
G03X849811Y1030917I0J1386D01*
G03X849409Y1031894I-1388J0D01*
G02X849295Y1032169I279J277D01*
G01Y1032732D01*
G02X849413Y1033008I394J-6D01*
G01X852906Y1036500D01*
G02X853181Y1036614I277J-279D01*
G01X861764D01*
G02X862039Y1036500I-2J-394D01*
G01X862508Y1036031D01*
G03X862783Y1035917I277J280D01*
G01X878862D01*
X878870Y1035906D01*
G03X879921Y1035425I1051J910D01*
G03X881228Y1036350I0J1386D01*
G02X881598Y1036614I372J-130D01*
G01X881740D01*
G02X882035Y1036480I0J-394D01*
G03X884106I1035J922D01*
G02X884402Y1036614I296J-260D01*
G01X922917D01*
G02X923276Y1036390I3J-394D01*
G01X923583Y1035740D01*
G02X923531Y1035323I-356J-168D01*
G03X923220Y1034449I1073J-874D01*
G03X925992I1386J0D01*
G03X925681Y1035323I-1384J0D01*
G02X925630Y1035740I305J249D01*
G01X925937Y1036390D01*
G02X926295Y1036614I356J-170D01*
G01X943587D01*
G02X943945Y1036390I3J-394D01*
G01X944252Y1035740D01*
G02X944201Y1035323I-356J-168D01*
G03X943890Y1034449I1073J-874D01*
G03X946661I1386J0D01*
G03X946350Y1035323I-1384J0D01*
G02X946299Y1035740I305J249D01*
G01X946606Y1036390D01*
G02X946965Y1036614I356J-170D01*
G01X948319D01*
G02X948598Y1036500I2J-394D01*
G01X949165Y1035933D01*
G03X949441Y1035819I277J279D01*
G01X970157D01*
G02X970512Y1035594I-1J-394D01*
G01X970819Y1034949D01*
G02X970772Y1034531I-354J-171D01*
G03X970465Y1033661I1079J-870D01*
G03X970921Y1032634I1384J0D01*
G02X971047Y1032398I-264J-292D01*
G01X971118Y1031894D01*
G02X971063Y1031634I-389J-53D01*
G03X970858Y1030906I1182J-725D01*
G03X973630I1386J0D01*
G03X973173Y1031933I-1384J0D01*
G02X973047Y1032169I264J292D01*
G01X972976Y1032673D01*
G02X973031Y1032933I389J53D01*
G03X973236Y1033661I-1182J725D01*
G03X972929Y1034531I-1386J0D01*
G02X972882Y1034949I307J246D01*
G01X973189Y1035594D01*
G02X973543Y1035819I355J-169D01*
G01X981295D01*
G02X981587Y1035693I2J-394D01*
G01X981980Y1035260D01*
G02X982083Y1034961I-289J-266D01*
G03X982079Y1034843I1382J-105D01*
G03X984850I1386J0D01*
G03X984768Y1035319I-1387J5D01*
G01X984764D01*
G02X984858Y1035736I370J135D01*
G01X985622Y1036500D01*
G02X985902Y1036614I277J-280D01*
G01X986614D01*
G03X987008Y1037008I0J394D01*
G01Y1037720D01*
G02X987122Y1038000I394J2D01*
G01X988217Y1039094D01*
G02X988646Y1039181I279J-278D01*
G01Y1039177D01*
G03X989173Y1039075I523J1284D01*
G03X989807Y1039228I0J1385D01*
G02X989988Y1039272I180J-350D01*
G37*
G36*
G01X961807Y1126972D02*
X961846Y1126980D01*
G03X962142Y1127067I-240J1364D01*
G01X962217Y1127094D01*
X962295D01*
G02X962689Y1126701I0J-394D01*
G01Y1125827D01*
G02X962575Y1125551I-394J2D01*
G01X956701Y1119677D01*
G03X956587Y1119402I280J-277D01*
G01Y1109980D01*
G02X956472Y1109705I-394J2D01*
G01X932224Y1085457D01*
G02X931949Y1085343I-277J280D01*
G01X928240D01*
G03X927965Y1085228I2J-394D01*
G01X902406Y1059669D01*
G02X902130Y1059555I-277J280D01*
G01X884311D01*
G02X883945Y1059799I-2J394D01*
G02X884031Y1060228I365J150D01*
G01X890634Y1066831D01*
G02X891193I280J-277D01*
G01X891240Y1066783D01*
X891272Y1066724D01*
G03X891366Y1066555I1254J589D01*
G02Y1066122I-329J-217D01*
G03Y1064587I1153J-768D01*
G02Y1064154I-329J-217D01*
G03X891134Y1063386I1153J-768D01*
G03X893906I1386J0D01*
G03X893673Y1064154I-1385J0D01*
G02Y1064587I329J217D01*
G03Y1066122I-1153J768D01*
G02Y1066555I329J217D01*
G03X893906Y1067323I-1153J768D01*
G03X893409Y1068386I-1387J0D01*
G02X893268Y1068673I251J303D01*
G01X893240Y1069256D01*
G02X893354Y1069551I394J18D01*
G01X899567Y1075764D01*
G02X899843Y1075878I277J-280D01*
G01X914677D01*
G03X914953Y1075992I-2J394D01*
G01X952650Y1113689D01*
G03X952764Y1113965I-280J277D01*
G01Y1117882D01*
G02X952878Y1118157I394J-2D01*
G01X961563Y1126843D01*
G02X961697Y1126933I283J-275D01*
G01X961807Y1126972D01*
G37*
G36*
G01X862819Y1046252D02*
X869280D01*
G02X869673Y1045858I0J-394D01*
G01Y1045854D01*
Y1045831D01*
X869465Y1045531D01*
G02X869283Y1045394I-319J231D01*
G03X868394Y1044098I498J-1295D01*
G03X869780Y1042713I1386J0D01*
G03X870831Y1043193I0J1390D01*
G01X870839Y1043205D01*
X877094D01*
X877102Y1043193D01*
G03X878154Y1042713I1051J910D01*
G03X879256Y1043260I0J1384D01*
G01X879260D01*
G02X879571Y1043417I315J-235D01*
G01X879575D01*
G02X879969Y1043024I0J-394D01*
G01Y1042421D01*
G02X879854Y1042146I-394J2D01*
G01X878579Y1040870D01*
G02X878303Y1040756I-277J280D01*
G01X878150D01*
G03X876764Y1039370I0J-1386D01*
G03X876882Y1038815I1385J5D01*
G01Y1038811D01*
G02X876850Y1038441I-362J-156D01*
G01X876488Y1037882D01*
G02X876157Y1037705I-329J217D01*
G01X863524D01*
G02X863248Y1037819I2J394D01*
G01X862130Y1038937D01*
G02X862016Y1039205I279J277D01*
G03X860630Y1040559I-1386J-32D01*
G03X859244Y1039173I0J-1386D01*
G03X859461Y1038429I1387J0D01*
G02X859476Y1038028I-331J-214D01*
G01X859142Y1037417D01*
G02X858795Y1037213I-346J189D01*
G01X854571D01*
G02X854205Y1037457I-2J394D01*
G02X854291Y1037886I364J150D01*
G01X862543Y1046138D01*
G02X862819Y1046252I277J-279D01*
G37*
G36*
G01X881071Y1044272D02*
X881417Y1044626D01*
X880862Y1045252D01*
X880307Y1044626D01*
X880654Y1044272D01*
G03X881071I209J209D01*
G37*
G36*
G01X878835Y1040157D02*
X878150D01*
X878091Y1039327D01*
X878913Y1039264D01*
X879110Y1039756D01*
G03X878835Y1040157I-276J106D01*
G37*
G36*
G01X870685Y1044307D02*
X870331Y1044654D01*
X869705Y1044098D01*
X870331Y1043543D01*
X870685Y1043890D01*
G03Y1044307I-209J209D01*
G37*
G36*
G01X877248Y1043890D02*
X877602Y1043543D01*
X878228Y1044098D01*
X877602Y1044654D01*
X877248Y1044307D01*
G03Y1043890I209J-209D01*
G37*
G36*
G01X859272Y1017039D02*
X858917Y1017386D01*
X858291Y1016831D01*
X858917Y1016276D01*
X859272Y1016622D01*
G03Y1017039I-209J209D01*
G37*
G36*
G01X886260Y1015689D02*
X882531D01*
X882472Y1012394D01*
X885768Y1012366D01*
X886547Y1015319D01*
G03X886260Y1015689I-287J73D01*
G37*
G36*
G01X892323Y1016827D02*
X890240Y1014736D01*
X892531Y1012366D01*
X894823Y1014736D01*
X892740Y1016827D01*
G03X892323I-209J-209D01*
G37*
G36*
G01X861417Y1038681D02*
Y1039173D01*
X860579Y1039224D01*
X860630Y1038386D01*
X861122D01*
G03X861417Y1038681I0J295D01*
G37*
G36*
G01X879016Y1036602D02*
X879370Y1036256D01*
X879996Y1036811D01*
X879370Y1037366D01*
X879016Y1037020D01*
G03Y1036602I209J-209D01*
G37*
G36*
G01X844059Y1023413D02*
X845264Y1022209D01*
X845547Y1023327D01*
Y1023917D01*
X845264Y1025035D01*
X844059Y1023831D01*
G03Y1023413I209J-209D01*
G37*
G36*
G01X844992Y1015689D02*
X842531D01*
X842394Y1012303D01*
X845780Y1012441D01*
Y1014902D01*
G03X844992Y1015689I-787J0D01*
G37*
G36*
G01X848327Y1046555D02*
X847835D01*
X847783Y1045717D01*
X848622Y1045768D01*
Y1046260D01*
G03X848327Y1046555I-295J0D01*
G37*
G36*
G01X851902Y1085228D02*
X878984D01*
G02X879350Y1084984I2J-394D01*
G02X879264Y1084555I-365J-150D01*
G01X876524Y1081815D01*
G02X876248Y1081701I-277J280D01*
G01X853386D01*
G02X853110Y1081815I2J394D01*
G01X851303Y1083622D01*
G02X851189Y1083890I279J277D01*
G03X851138Y1084228I-1385J-36D01*
G02X851205Y1084571I380J103D01*
G01X851587Y1085075D01*
G02X851902Y1085228I312J-241D01*
G37*
G36*
G01X900047Y1113378D02*
X912835D01*
G02X913201Y1113134I2J-394D01*
G02X913114Y1112705I-365J-150D01*
G01X889902Y1089492D01*
G02X889626Y1089378I-277J280D01*
G01X879701D01*
G02X879398Y1089520I0J394D01*
G01X879008Y1089984D01*
G02X878921Y1090307I302J254D01*
G01X878925D01*
G03X878945Y1090551I-1367J233D01*
G03X878709Y1091327I-1391J0D01*
G02X878642Y1091539I326J219D01*
G01X878634Y1091772D01*
G02X878693Y1091988I395J9D01*
G03X878902Y1092717I-1176J731D01*
G03X876130I-1386J0D01*
G03X876366Y1091941I1391J0D01*
G02X876433Y1091728I-326J-219D01*
G01X876441Y1091496D01*
G02X876382Y1091280I-395J-9D01*
G03X876173Y1090551I1176J-731D01*
G03X876193Y1090307I1387J-11D01*
G01X876197D01*
G02X876110Y1089984I-389J-69D01*
G01X875720Y1089520D01*
G02X875417Y1089378I-303J252D01*
G01X846693D01*
G02X846417Y1089492I2J394D01*
G01X844413Y1091496D01*
G02X844299Y1091764I279J277D01*
G03X842913Y1093118I-1386J-32D01*
G03X841795Y1092551I0J-1386D01*
G02X841508Y1092390I-319J232D01*
G01X840909Y1092346D01*
G02X840598Y1092461I-32J392D01*
G01X840236Y1092823D01*
G02Y1093378I279J278D01*
G01X840240Y1093382D01*
G02X840524Y1093496I277J-279D01*
G01X840551D01*
G03X841937Y1094850I0J1386D01*
G02X842051Y1095118I393J-10D01*
G01X844744Y1097811D01*
G02X845020Y1097925I277J-280D01*
G01X849638D01*
G02X850004Y1097681I2J-394D01*
G02X849917Y1097252I-365J-150D01*
G01X849445Y1096780D01*
G02X849177Y1096665I-277J279D01*
G03X847823Y1095280I32J-1386D01*
G03X849209Y1093894I1386J0D01*
G03X850594Y1095248I0J1386D01*
G02X850709Y1095516I393J-10D01*
G01X851429Y1096236D01*
G02X851705Y1096350I277J-280D01*
G01X861480D01*
G02X861858Y1096067I0J-393D01*
G03X863189Y1095071I1331J391D01*
G03X864575Y1096457I0J1386D01*
G03X864508Y1096890I-1387J7D01*
G01X864504D01*
G02X864563Y1097244I375J120D01*
G01X864937Y1097764D01*
G02X865256Y1097925I318J-233D01*
G01X882500D01*
G02X882886Y1097598I-2J-394D01*
G03X883098Y1097067I1365J238D01*
G02Y1096634I-329J-217D01*
G03X882866Y1095866I1153J-768D01*
G03X885638I1386J0D01*
G03X885406Y1096634I-1385J0D01*
G02Y1097067I329J217D01*
G03X885638Y1097835I-1153J768D01*
G03X885358Y1098669I-1386J0D01*
G02X885280Y1098906I315J236D01*
G01Y1098909D01*
G02X885673Y1099303I394J0D01*
G01X885728D01*
X885870Y1099362D01*
X899772Y1113264D01*
G02X900047Y1113378I277J-280D01*
G37*
G36*
G01X862402Y1096949D02*
Y1096457D01*
X863240Y1096406D01*
X863189Y1097244D01*
X862697D01*
G03X862402Y1096949I0J-295D01*
G37*
G36*
G01X849701Y1096067D02*
X849209D01*
X849157Y1095228D01*
X849996Y1095280D01*
Y1095772D01*
G03X849701Y1096067I-295J0D01*
G37*
G36*
G01X864618Y1105512D02*
X865110D01*
X865161Y1106350D01*
X864323Y1106299D01*
Y1105807D01*
G03X864618Y1105512I295J0D01*
G37*
G36*
G01X841043Y1095669D02*
X840551D01*
X840500Y1094831D01*
X841339Y1094882D01*
Y1095374D01*
G03X841043Y1095669I-295J0D01*
G37*
G36*
G01X843701Y1091240D02*
Y1091732D01*
X842862Y1091783D01*
X842913Y1090945D01*
X843406D01*
G03X843701Y1091240I0J295D01*
G37*
G36*
G01X850591Y1083366D02*
Y1083858D01*
X849752Y1083909D01*
X849803Y1083071D01*
X850295D01*
G03X850591Y1083366I0J295D01*
G37*
G36*
G01X839079Y1093012D02*
Y1093504D01*
X838240Y1093555D01*
X838291Y1092717D01*
X838783D01*
G03X839079Y1093012I0J295D01*
G37*
G36*
G01X837402Y1091031D02*
Y1091524D01*
X836563Y1091575D01*
X836614Y1090736D01*
X837106D01*
G03X837402Y1091031I0J295D01*
G37*
G36*
G01X861232Y1141811D02*
X861579Y1142165D01*
X861024Y1142791D01*
X860469Y1142165D01*
X860815Y1141811D01*
G03X861232I209J209D01*
G37*
G36*
G01X937870Y983177D02*
X937378D01*
X937327Y982339D01*
X938165Y982390D01*
Y982882D01*
G03X937870Y983177I-295J0D01*
G37*
G36*
G01X949398Y973740D02*
X949051Y973386D01*
X949606Y972760D01*
X950161Y973386D01*
X949815Y973740D01*
G03X949398I-209J-209D01*
G37*
G36*
G01X905780Y999488D02*
Y1002441D01*
X902480Y1002492D01*
X902531Y999193D01*
X905484D01*
G03X905780Y999488I0J295D01*
G37*
G36*
G01X936850Y975492D02*
Y975000D01*
X937689Y974949D01*
X937638Y975787D01*
X937146D01*
G03X936850Y975492I0J-295D01*
G37*
G36*
G01X943287Y992618D02*
X943780D01*
X943831Y993457D01*
X942992Y993406D01*
Y992913D01*
G03X943287Y992618I295J0D01*
G37*
G36*
G01X941634Y1001772D02*
X942126D01*
X942177Y1002610D01*
X941339Y1002559D01*
Y1002067D01*
G03X941634Y1001772I295J0D01*
G37*
G36*
G01X931378Y989358D02*
X931732Y989012D01*
X932358Y989567D01*
X931732Y990122D01*
X931378Y989776D01*
G03Y989358I209J-209D01*
G37*
G36*
G01X932756Y974705D02*
Y975197D01*
X931917Y975248D01*
X931969Y974409D01*
X932461D01*
G03X932756Y974705I0J295D01*
G37*
G36*
G01X907480Y1007197D02*
Y1006594D01*
X908315Y1006535D01*
X908331Y1007370D01*
X907839Y1007484D01*
G03X907480Y1007197I-64J-287D01*
G37*
G36*
G01X905780Y1009488D02*
Y1012441D01*
X902480Y1012492D01*
X902531Y1009193D01*
X905484D01*
G03X905780Y1009488I0J295D01*
G37*
G36*
G01X910280Y1061508D02*
X917618D01*
G02X917937Y1061346I1J-394D01*
G01X918311Y1060827D01*
G02X918370Y1060472I-316J-235D01*
G01X918366D01*
G03X918299Y1060039I1320J-426D01*
G03X919654Y1058654I1386J0D01*
G02X919921Y1058539I-10J-393D01*
G01X922350Y1056110D01*
G03X922626Y1055996I277J280D01*
G01X963839D01*
G02X964114Y1055882I-2J-394D01*
G01X977823Y1042173D01*
G02X977937Y1041898I-280J-277D01*
G01Y1040626D01*
X977925Y1040618D01*
G03X977445Y1039567I910J-1051D01*
G03X977496Y1039197I1385J3D01*
G02X977429Y1038854I-380J-103D01*
G01X977047Y1038350D01*
G02X976732Y1038197I-312J241D01*
G01X950429D01*
G02X950150Y1038311I-2J394D01*
G01X947524Y1040937D01*
X947382Y1040996D01*
X947311D01*
X944713Y1043594D01*
G03X944437Y1043709I-277J-279D01*
G01X904984D01*
G02X904705Y1043823I-2J394D01*
G01X897866Y1050661D01*
G02X897752Y1050941I280J277D01*
G01Y1053516D01*
G02X897795Y1053697I394J2D01*
G03X897949Y1054331I-1232J634D01*
G03X897937Y1054512I-1386J1D01*
G02X898031Y1054823I390J51D01*
G01X898425Y1055272D01*
G02X898720Y1055406I296J-260D01*
G01X903854D01*
G03X904130Y1055520I-2J394D01*
G01X910004Y1061394D01*
G02X910280Y1061508I277J-280D01*
G37*
G36*
G01X996575Y1090815D02*
X996563Y1090823D01*
Y1104791D01*
G02X996807Y1105157I394J2D01*
G02X997236Y1105071I150J-365D01*
G01X1005685Y1096622D01*
G02X1005799Y1096346I-280J-277D01*
G01Y1077862D01*
G02X1005406Y1077469I-394J0D01*
G01X1003157D01*
G02X1002882Y1077583I2J394D01*
G01X1002681Y1077783D01*
G02X1002567Y1078051I279J277D01*
G03X1001181Y1079406I-1386J-32D01*
G03X1000429Y1079185I-2J-1386D01*
G02X1000217Y1079122I-213J330D01*
G01X999980D01*
G02X999768Y1079185I1J393D01*
G03X999311Y1079374I-750J-1166D01*
G02X999020Y1079646I86J384D01*
G01X998823Y1080315D01*
G02X998921Y1080705I377J112D01*
G01X1002429Y1084213D01*
G02X1002591Y1084311I280J-277D01*
G03X1003551Y1085630I-425J1319D01*
G03X1002165Y1087016I-1386J0D01*
G03X1000846Y1086055I0J-1386D01*
G02X1000748Y1085894I-376J118D01*
G01X995776Y1080921D01*
G03X995661Y1080646I279J-277D01*
G01Y1046717D01*
G03X995776Y1046441I394J2D01*
G01X999409Y1042807D01*
G02X999496Y1042378I-278J-279D01*
G01X999492D01*
G02X999130Y1042134I-364J149D01*
G01X989055D01*
G02X988661Y1042528I0J394D01*
G01Y1063591D01*
X988689Y1063661D01*
G03X988787Y1064173I-1287J513D01*
G03X986016I-1386J0D01*
G03X986224Y1063441I1389J0D01*
G02X986283Y1063236I-334J-207D01*
G01Y1040689D01*
G02X986169Y1040409I-394J-2D01*
G01X984071Y1038311D01*
G02X983791Y1038197I-277J280D01*
G01X980929D01*
G02X980614Y1038350I-3J394D01*
G01X980232Y1038854D01*
G02X980165Y1039197I313J239D01*
G03X980217Y1039567I-1334J373D01*
G03X979736Y1040618I-1390J0D01*
G01X979724Y1040626D01*
Y1042638D01*
G03X979610Y1042913I-394J-2D01*
G01X964854Y1057669D01*
G03X964579Y1057783I-277J-280D01*
G01X923366D01*
G02X923091Y1057898I2J394D01*
G01X921185Y1059803D01*
G02X921071Y1060071I279J277D01*
G03X921004Y1060472I-1387J-25D01*
G01X921000D01*
G02X921059Y1060827I375J120D01*
G01X921433Y1061346D01*
G02X921752Y1061508I318J-233D01*
G01X971965D01*
G03X972240Y1061622I-2J394D01*
G01X995339Y1084720D01*
G02X995606Y1084835I277J-279D01*
G03X996961Y1086220I-32J1386D01*
G03X996409Y1087327I-1386J0D01*
G02X996252Y1087654I236J315D01*
G01X996268Y1088299D01*
G02X996445Y1088614I394J-14D01*
G03X997055Y1089764I-778J1150D01*
G03X996575Y1090815I-1390J0D01*
G37*
G36*
G01X967598Y1130012D02*
X970461D01*
G02X970736Y1129898I-2J-394D01*
G01X994661Y1105972D01*
G02X994776Y1105697I-280J-277D01*
G01Y1090823D01*
X994764Y1090815D01*
G03X994283Y1089764I910J-1051D01*
G03X994835Y1088657I1386J0D01*
G02X994992Y1088331I-236J-315D01*
G01X994976Y1087685D01*
G02X994799Y1087370I-394J14D01*
G03X994189Y1086252I776J-1149D01*
G02X994075Y1085984I-393J10D01*
G01X971500Y1063409D01*
G02X971224Y1063295I-277J280D01*
G01X924598D01*
G02X924303Y1063429I0J394D01*
G01X923909Y1063878D01*
G02X923815Y1064189I296J260D01*
G03X923827Y1064370I-1374J181D01*
G03X921055I-1386J0D01*
G03X921067Y1064189I1386J-1D01*
G02X920972Y1063878I-390J-51D01*
G01X920579Y1063429D01*
G02X920283Y1063295I-296J260D01*
G01X911185D01*
G02X910819Y1063539I-2J394D01*
G02X910906Y1063969I365J150D01*
G01X929197Y1082260D01*
G02X929472Y1082374I277J-280D01*
G01X933181D01*
G03X933457Y1082488I-2J394D01*
G01X959441Y1108472D01*
G03X959555Y1108748I-280J277D01*
G01Y1118169D01*
G02X959669Y1118445I394J-2D01*
G01X966331Y1125106D01*
G03X966445Y1125382I-280J277D01*
G01Y1127413D01*
X966461Y1127425D01*
G03X966941Y1128476I-910J1051D01*
G03X966858Y1128949I-1391J0D01*
G01Y1128953D01*
G02X966906Y1129311I369J134D01*
G01X967276Y1129843D01*
G02X967598Y1130012I324J-225D01*
G37*
G36*
G01X926870Y1021457D02*
X927362D01*
X927413Y1022295D01*
X926575Y1022244D01*
Y1021752D01*
G03X926870Y1021457I295J0D01*
G37*
G36*
G01X930559Y1019917D02*
X931008Y1019673D01*
X931571Y1020283D01*
X930945Y1020831D01*
X930492Y1020386D01*
G03X930559Y1019917I209J-209D01*
G37*
G36*
G01X944390Y1024803D02*
X944882D01*
X944933Y1025642D01*
X944094Y1025591D01*
Y1025098D01*
G03X944390Y1024803I295J0D01*
G37*
G36*
G01X895787Y1016941D02*
X895433Y1017287D01*
X894807Y1016732D01*
X895433Y1016177D01*
X895787Y1016524D01*
G03Y1016941I-209J209D01*
G37*
G36*
G01X947453Y1021673D02*
X947941Y1021874D01*
X947878Y1022697D01*
X947047Y1022638D01*
Y1021949D01*
G03X947453Y1021673I296J0D01*
G37*
G36*
G01X912323Y1016811D02*
X910256Y1014736D01*
X912531Y1012366D01*
X914807Y1014736D01*
X912740Y1016811D01*
G03X912323I-209J-209D01*
G37*
G36*
G01X920472Y1059547D02*
Y1060039D01*
X919634Y1060091D01*
X919685Y1059252D01*
X920177D01*
G03X920472Y1059547I0J295D01*
G37*
G36*
G01X915787Y1111016D02*
X922969D01*
G02X923335Y1110772I2J-394D01*
G02X923248Y1110343I-365J-150D01*
G01X921689Y1108783D01*
G02X921413Y1108669I-277J280D01*
G01X914232D01*
G02X913866Y1108913I-2J394D01*
G02X913953Y1109343I365J150D01*
G01X915512Y1110902D01*
G02X915787Y1111016I277J-280D01*
G37*
G36*
G01X953488Y1130012D02*
X957472D01*
G02X957756Y1129890I-1J-394D01*
G01X958154Y1129476D01*
G02X958260Y1129189I-287J-269D01*
G01Y1129185D01*
Y1129126D01*
G03X958472Y1128390I1381J0D01*
G01Y1128386D01*
G02X958417Y1127898I-333J-210D01*
G01X949909Y1119390D01*
G03X949795Y1119114I280J-277D01*
G01Y1115197D01*
G02X949681Y1114921I-394J2D01*
G01X947244Y1112484D01*
G02X946815Y1112398I-279J278D01*
G02X946571Y1112764I150J364D01*
G01Y1120193D01*
X946583Y1120201D01*
G03X947063Y1121252I-910J1051D01*
G03X946661Y1122228I-1388J0D01*
G01X946657D01*
G02X946543Y1122508I281J278D01*
G01X946547Y1123067D01*
G02X946661Y1123346I393J2D01*
G01X953213Y1129898D01*
G02X953488Y1130012I277J-280D01*
G37*
G36*
G01X947583Y1134736D02*
X949551D01*
G02X949917Y1134492I2J-394D01*
G02X949831Y1134063I-365J-150D01*
G01X943496Y1127728D01*
G02X943067Y1127642I-279J278D01*
G02X942823Y1128008I150J364D01*
G01Y1129976D01*
G02X942937Y1130252I394J-2D01*
G01X947307Y1134622D01*
G02X947583Y1134736I277J-280D01*
G37*
G36*
G01X937539Y1114224D02*
X943894Y1120579D01*
G02X944453I280J-278D01*
G01X944484Y1120547D01*
X944508Y1120512D01*
G03X944772Y1120201I1177J731D01*
G01X944783Y1120193D01*
Y1111858D01*
G02X944669Y1111583I-394J2D01*
G01X940465Y1107378D01*
G02X940110Y1107268I-281J277D01*
G01X939465Y1107394D01*
G02X939177Y1107626I75J387D01*
G01Y1107630D01*
G03X937902Y1108472I-1276J-544D01*
G03X937181Y1108272I-2J-1386D01*
G02X936976Y1108213I-207J334D01*
G01X936752D01*
G02X936547Y1108272I3J394D01*
G03X935827Y1108472I-719J-1186D01*
G03X935004Y1108201I0J-1382D01*
G02X934768Y1108126I-231J318D01*
G01X934524D01*
G02X934287Y1108201I-5J393D01*
G03X933630Y1108461I-821J-1115D01*
G01Y1108465D01*
G02X933303Y1108724I44J391D01*
G01X933071Y1109402D01*
G02X933165Y1109807I373J127D01*
G01X937539Y1114181D01*
Y1114224D01*
G37*
G36*
G01X945886Y1120346D02*
X946232Y1120701D01*
X945677Y1121327D01*
X945122Y1120701D01*
X945469Y1120346D01*
G03X945886I209J209D01*
G37*
G36*
G01X936894Y1140157D02*
X936614D01*
X936094Y1139689D01*
X936772Y1139209D01*
X937311Y1139740D01*
X936894Y1140157D01*
G37*
G36*
G01X953709Y990827D02*
X954055Y991181D01*
X953500Y991807D01*
X952945Y991181D01*
X953291Y990827D01*
G03X953709I209J209D01*
G37*
G36*
G01X998898Y1076638D02*
G03X999016Y1076634I105J1382D01*
G03X999768Y1076854I2J1386D01*
G02X999980Y1076917I213J-330D01*
G01X1000217D01*
G02X1000429Y1076854I-1J-393D01*
G03X1001150Y1076634I751J1166D01*
G02X1001417Y1076520I-10J-393D01*
G01X1002142Y1075795D01*
G03X1002417Y1075681I277J280D01*
G01X1005406D01*
G02X1005799Y1075287I0J-394D01*
G01Y1062083D01*
X1005787Y1062075D01*
G03X1005307Y1061024I910J-1051D01*
G03X1006693Y1059638I1386J0D01*
G01X1006748D01*
G02X1007039Y1059528I18J-393D01*
G01X1007449Y1059134D01*
G02X1007571Y1058850I-272J-285D01*
G01Y1042854D01*
G02X1007457Y1042579I-394J2D01*
G01X1007126Y1042248D01*
G02X1006850Y1042134I-277J280D01*
G01X1003610D01*
G02X1003331Y1042248I-2J394D01*
G01X998154Y1047425D01*
G02X998039Y1047705I280J277D01*
G01Y1075850D01*
G02X998165Y1076142I394J2D01*
G01X998598Y1076535D01*
G02X998898Y1076638I266J-289D01*
G37*
G36*
G01X997047Y1039665D02*
Y1040157D01*
X996209Y1040209D01*
X996260Y1039370D01*
X996752D01*
G03X997047Y1039665I0J295D01*
G37*
G36*
G01X978622Y1040472D02*
X978276Y1040118D01*
X978831Y1039492D01*
X979386Y1040118D01*
X979039Y1040472D01*
G03X978622I-209J-209D01*
G37*
G36*
G01X1006484Y1061929D02*
X1006138Y1061575D01*
X1006693Y1060949D01*
X1007248Y1061575D01*
X1006902Y1061929D01*
G03X1006484I-209J-209D01*
G37*
G36*
G01X970681Y1138969D02*
X974146D01*
G02X974425Y1138854I2J-394D01*
G01X975354Y1137925D01*
G02X975453Y1137764I-277J-280D01*
G03X976346Y1136870I1319J425D01*
G02X976508Y1136772I-118J-376D01*
G01X983539Y1129740D01*
G02X983654Y1129461I-280J-277D01*
G01Y1125724D01*
G02X983610Y1125543I-394J-2D01*
G03X983591Y1125504I1230J-639D01*
G01X983563Y1125445D01*
X983512Y1125394D01*
G02X982957I-278J279D01*
G01X973122Y1135228D01*
G03X972846Y1135343I-277J-280D01*
G01X967874D01*
G02X967508Y1135587I-2J394D01*
G02X967594Y1136016I365J150D01*
G01X968268Y1136689D01*
G02X968535Y1136803I277J-279D01*
G03X969890Y1138181I-32J1386D01*
G02X970004Y1138461I394J2D01*
G01X970402Y1138854D01*
G02X970681Y1138969I277J-280D01*
G37*
G36*
G01X961228Y1127390D02*
X961720Y1127583D01*
X961657Y1128406D01*
X960827Y1128346D01*
Y1127665D01*
G03X961228Y1127390I295J0D01*
G37*
G36*
G01X965760Y1127567D02*
X966110Y1127925D01*
X965555Y1128551D01*
X965000Y1127929D01*
X965339Y1127571D01*
G03X965760Y1127567I213J205D01*
G37*
G36*
G01X995461Y1090669D02*
X995114Y1090315D01*
X995669Y1089689D01*
X996224Y1090315D01*
X995878Y1090669D01*
G03X995461I-209J-209D01*
G37*
G36*
G01X995083Y1085433D02*
X995575D01*
X995626Y1086272D01*
X994787Y1086220D01*
Y1085728D01*
G03X995083Y1085433I295J0D01*
G37*
G36*
G01X1001969Y1077528D02*
Y1078020D01*
X1001130Y1078071D01*
X1001181Y1077232D01*
X1001673D01*
G03X1001969Y1077528I0J295D01*
G37*
G36*
G01X959854Y1128220D02*
X960201Y1128575D01*
X959646Y1129201D01*
X959091Y1128575D01*
X959437Y1128220D01*
G03X959854I209J209D01*
G37*
G36*
G01X963791D02*
X964138Y1128575D01*
X963583Y1129201D01*
X963028Y1128575D01*
X963374Y1128220D01*
G03X963791I209J209D01*
G37*
G36*
G01X968012Y1137402D02*
X968504D01*
X968555Y1138240D01*
X967717Y1138189D01*
Y1137697D01*
G03X968012Y1137402I295J0D01*
G37*
G36*
G01X1013079Y1084252D02*
X1012587D01*
X1012535Y1083413D01*
X1013374Y1083465D01*
Y1083957D01*
G03X1013079Y1084252I-295J0D01*
G37*
%LPC*%
G75*
G36*
G01X917043Y1095862D02*
X917055Y1096087D01*
G03X917008Y1096295I-394J21D01*
G02X916839Y1096957I1216J664D01*
G02X918232Y1098343I1386J0D01*
G03X918437Y1098398I4J394D01*
G01X918630Y1098516D01*
G03X918776Y1098669I-202J338D01*
G02X920004Y1099413I1228J-642D01*
G02X921390Y1098028I0J-1386D01*
G02X919996Y1096642I-1386J0D01*
G03X919791Y1096587I-4J-394D01*
G01X919598Y1096469D01*
G03X919453Y1096315I202J-338D01*
G02X919370Y1096177I-1228J643D01*
G03X919303Y1095976I326J-220D01*
G01X919291Y1095752D01*
G03X919339Y1095543I394J-21D01*
G02X919508Y1094882I-1216J-664D01*
G02X916736I-1386J0D01*
G02X916976Y1095661I1385J0D01*
G03X917043Y1095862I-326J220D01*
G37*
G36*
G01X914315Y1026169D02*
G02X913189Y1028362I-1126J807D01*
G02X914315Y1027783I0J-1385D01*
G03X915606I646J458D01*
G02X916732Y1028362I1126J-806D01*
G02Y1025591I0J-1386D01*
G02X915606Y1026169I0J1385D01*
G03X914315I-646J-458D01*
G37*
G36*
G01X991783Y1028949D02*
G02X993110Y1027157I1327J-404D01*
G02X992307Y1027413I0J1388D01*
G03X991091Y1027000I-460J-643D01*
G02X989764Y1026020I-1327J408D01*
G02Y1028791I0J1386D01*
G02X990567Y1028535I0J-1388D01*
G03X991783Y1028949I460J643D01*
G37*
G36*
G01X965008Y1028358D02*
G02X964764Y1031110I-244J1365D01*
G02X966150Y1029709I0J-1386D01*
G03X967079Y1028925I791J-5D01*
G02X967323Y1028945I233J-1367D01*
G02Y1026173I0J-1386D01*
G02X965937Y1027575I0J1386D01*
G03X965008Y1028358I-791J5D01*
G37*
G36*
G01X870016Y1030098D02*
G02X872358Y1031102I956J1004D01*
G02X871929Y1030098I-1389J0D01*
G03Y1028957I546J-571D01*
G02X872358Y1027953I-960J-1004D01*
G02X869587I-1386J0D01*
G02X870016Y1028957I1389J0D01*
G03Y1030098I-546J571D01*
G37*
G36*
G01X885173D02*
G02X887516Y1031102I956J1004D01*
G02X887087Y1030098I-1389J0D01*
G03Y1028957I546J-571D01*
G02X887516Y1027953I-960J-1004D01*
G02X884744I-1386J0D01*
G02X885173Y1028957I1389J0D01*
G03Y1030098I-546J571D01*
G37*
G36*
G01X900921D02*
G02X903264Y1031102I956J1004D01*
G02X902835Y1030098I-1389J0D01*
G03Y1028957I546J-571D01*
G02X903264Y1027953I-960J-1004D01*
G02X900492I-1386J0D01*
G02X900921Y1028957I1389J0D01*
G03Y1030098I-546J571D01*
G37*
G36*
G01X902185Y1065130D02*
G02X902953Y1062591I768J-1154D01*
G02X902185Y1062823I0J1385D01*
G03X901752I-217J-329D01*
G02X900984Y1062591I-768J1153D01*
G02Y1065362I0J1386D01*
G02X901752Y1065130I0J-1385D01*
G03X902185I217J329D01*
G37*
G36*
G01Y1069854D02*
G02X902953Y1067315I768J-1154D01*
G02X902185Y1067547I0J1385D01*
G03X901752I-217J-329D01*
G02X900984Y1067315I-768J1153D01*
G02Y1070087I0J1386D01*
G02X901752Y1069854I0J-1385D01*
G03X902185I217J329D01*
G37*
G36*
G01X905654Y1048697D02*
Y1048941D01*
G03X905579Y1049177I-393J5D01*
G02X905307Y1050000I1110J823D01*
G02X908079I1386J0D01*
G02X907807Y1049177I-1382J0D01*
G03X907732Y1048941I318J-231D01*
G01Y1048697D01*
G03X907807Y1048461I393J-5D01*
G02X908079Y1047638I-1110J-823D01*
G02X905307I-1386J0D01*
G02X905579Y1048461I1382J0D01*
G03X905654Y1048697I-318J231D01*
G37*
G36*
G01X983020Y1111965D02*
G02X982866Y1112598I1232J634D01*
G02X985638I1386J0D01*
G02X985484Y1111965I-1385J0D01*
G03X985441Y1111783I350J-180D01*
G01Y1104394D01*
G02X985327Y1104118I-394J2D01*
G01X967272Y1086063D01*
G03X967173Y1085669I278J-279D01*
G01X967378Y1084996D01*
G03X967677Y1084728I375J118D01*
G01Y1084724D01*
G02X968728Y1083807I-261J-1361D01*
G01X968748Y1083740D01*
X968949Y1083500D01*
G03X968972Y1083472I310J242D01*
G01X973976Y1078469D01*
G03X974244Y1078354I277J279D01*
G02X975598Y1076969I-32J-1386D01*
G02X974213Y1075583I-1386J0D01*
G02X972827Y1076937I0J1386D01*
G03X972713Y1077205I-393J-10D01*
G01X968051Y1081866D01*
G03X967776Y1081980I-277J-280D01*
G01X967413D01*
G02X966028Y1083366I0J1386D01*
G02X966110Y1083835I1385J-3D01*
G03X966016Y1084248I-371J133D01*
G03X965457I-280J-277D01*
G01X964886Y1083677D01*
G03X964772Y1083398I280J-277D01*
G01Y1073882D01*
G02X964657Y1073606I-394J2D01*
G01X958283Y1067232D01*
G02X958008Y1067118I-277J279D01*
G01X950772D01*
G03X950591Y1067075I-2J-394D01*
G02X949957Y1066921I-634J1232D01*
G02Y1069693I0J1386D01*
G02X950591Y1069539I0J-1385D01*
G03X950772Y1069496I180J350D01*
G01X957020D01*
G03X957299Y1069610I2J394D01*
G01X962280Y1074591D01*
G03X962394Y1074870I-280J277D01*
G01Y1084386D01*
G02X962508Y1084661I394J-2D01*
G01X970858Y1093012D01*
G03X970972Y1093315I-279J278D01*
G01X970941Y1093906D01*
G03X970791Y1094189I-393J-26D01*
G02X970268Y1095276I866J1087D01*
G02X970496Y1096035I1385J-2D01*
G03X970559Y1096256I-331J214D01*
G01Y1096488D01*
G03X970492Y1096709I-394J1D01*
G02X970260Y1097476I1153J768D01*
G02X970469Y1098209I1389J0D01*
G03X970531Y1098413I-331J214D01*
G01Y1098638D01*
G03X970476Y1098843I-393J4D01*
G02X970283Y1099551I1194J706D01*
G02X973055I1386J0D01*
G02X972846Y1098819I-1389J0D01*
G03X972783Y1098614I331J-214D01*
G01Y1098390D01*
G03X972839Y1098185I393J-4D01*
G02X973031Y1097476I-1194J-706D01*
G02X972803Y1096717I-1385J2D01*
G03X972740Y1096496I331J-214D01*
G01Y1096264D01*
G03X972807Y1096043I394J-1D01*
G02X972921Y1095835I-1154J-767D01*
G01X972953Y1095768D01*
X973004Y1095717D01*
G03X973563I280J277D01*
G01X982949Y1105102D01*
G03X983063Y1105382I-280J277D01*
G01Y1111783D01*
G03X983020Y1111965I-394J2D01*
G37*
G54D24*
X852531Y1012441D03*
G54D25*
X829134Y1043701D03*
X867169Y1066925D03*
X881693Y1068906D03*
X872835Y1075787D03*
X872047Y1023031D03*
X857480Y1022744D03*
X855906Y1028543D03*
X854382Y1033268D03*
X862008Y1030118D03*
X866429Y1024213D03*
X884843Y1021457D03*
X881693Y1023228D03*
X876378Y1029134D03*
X928346D03*
X893307Y1029724D03*
X996063Y1022835D03*
X954724Y1020472D03*
X959843Y1032283D03*
X955118Y1030315D03*
X941142Y1028150D03*
X1003150Y1022835D03*
X1007087Y1028740D03*
X962598Y1090157D03*
X958661D03*
X953764Y1083268D03*
X939567Y1112402D03*
X1001969Y1060827D03*
%LPD*%
G75*
G36*
G01X794252Y1119654D02*
X793764Y1119602D01*
X793787Y1118768D01*
X794614Y1118890D01*
X794575Y1119386D01*
G03X794252Y1119654I-295J-28D01*
G37*
G36*
G01X794539Y1119339D02*
X795811Y1119457D01*
X795717Y1121079D01*
X794102Y1120882D01*
X794217Y1119606D01*
G03X794539Y1119339I295J28D01*
G37*
G36*
G01X973425Y1077461D02*
Y1076969D01*
X974264Y1076917D01*
X974213Y1077756D01*
X973720D01*
G03X973425Y1077461I0J-295D01*
G37*
G36*
G01X968535Y1083059D02*
X968130Y1083551D01*
X967350Y1083402D01*
X967413Y1082579D01*
X968307D01*
G03X968535Y1083059I0J294D01*
G37*
G54D10*
X795866Y720472D03*
X806496Y1159449D03*
X1009646Y720472D03*
G54D20*
G01X829724Y1145669D02*
Y1144681D01*
X828579Y1143535D01*
X824437D01*
X821846Y1140945D01*
X820346D01*
X817717Y1138315D01*
Y1133858D01*
G01X820079D02*
Y1138728D01*
X820917Y1139567D01*
X822520D01*
X824717Y1141764D01*
X829315D01*
X832283Y1144732D01*
Y1145669D01*
G54D11*
X797244Y702756D03*
Y1152362D03*
X1007087Y702756D03*
Y1152362D03*
G54D21*
G01X812264Y1114961D02*
X814606D01*
X816575Y1112992D01*
X839764D01*
X842126Y1115354D01*
X845579D01*
G01X896563Y1054331D02*
X894488D01*
G01X987472Y1040461D02*
Y1040031D01*
X984449Y1037008D01*
X949772D01*
X946972Y1039807D01*
X946819D01*
X944106Y1042520D01*
X904327D01*
X896563Y1050283D01*
Y1054331D01*
G01X984252Y1112598D02*
Y1104724D01*
X963583Y1084055D01*
Y1074213D01*
X957677Y1068307D01*
X949957D01*
G01X936220Y1139764D02*
X936614Y1140157D01*
X974803D01*
X976772Y1138189D01*
G01X987472Y1040461D02*
Y1064102D01*
X987402Y1064173D01*
G01X989173Y1040461D02*
X987472D01*
G01X1009449Y1039917D02*
X1006539Y1037008D01*
X996398D01*
X992945Y1040461D01*
X989173D01*
G01X1012114Y1087008D02*
X1010433Y1085327D01*
Y1040902D01*
X1009449Y1039917D01*
G01X1002165Y1085630D02*
X996850Y1080315D01*
Y1047047D01*
X1003740Y1040157D01*
G01X984843Y1124909D02*
Y1130118D01*
X976772Y1138189D01*
G54D12*
G01X842531Y1012441D02*
X845472Y1015382D01*
Y1023622D01*
G01X861787Y1047343D02*
X845472Y1031028D01*
Y1023622D01*
G01X861787Y1047343D02*
X862083Y1047638D01*
X884441D01*
G01D02*
X884646D01*
G01X886220Y1049213D02*
X886016D01*
X884441Y1047638D01*
G01X922835Y1158858D02*
X937205D01*
X948031Y1148031D01*
X964764D01*
X828543Y716339D03*
X833858Y711024D03*
X828543Y700000D03*
X828150Y738386D03*
X835630Y724803D03*
X833661Y757283D03*
X828150Y763583D03*
X828346Y748425D03*
X807874Y804134D03*
X821654Y824409D03*
X830906Y805709D03*
X821457Y810630D03*
X811024Y820866D03*
X823228Y834055D03*
X807283Y812795D03*
X801378Y832087D03*
X833465D03*
X827559Y817126D03*
X790354Y832480D03*
Y818110D03*
Y806890D03*
X793701Y799409D03*
X818898Y799016D03*
X828150Y854921D03*
X817717Y868110D03*
X817913Y887992D03*
X809646Y859055D03*
X820079Y843898D03*
X819685Y852362D03*
X794685Y840748D03*
X805709Y846654D03*
X829724Y885827D03*
X828543Y876378D03*
X814370Y863780D03*
X805118Y880512D03*
X799606Y888583D03*
X829134Y847441D03*
X824606Y863583D03*
X790748Y893898D03*
X790945Y866535D03*
X790354Y848622D03*
X797244Y853543D03*
X796433Y864961D03*
X817717Y937598D03*
X791929Y939173D03*
X795472Y914173D03*
X817520Y916929D03*
X830079Y905315D03*
X817520Y897638D03*
X829331D03*
X797638Y905118D03*
X798031Y920669D03*
X797835Y935236D03*
X798622Y950394D03*
X832283Y942520D03*
X834252Y923228D03*
X828740Y920472D03*
X829331Y927756D03*
X831890Y949213D03*
X790551Y947244D03*
Y918504D03*
X829134Y937205D03*
X827559Y945669D03*
X823622Y1000591D03*
X815748Y990945D03*
X832480Y967520D03*
X830315Y963189D03*
X798031Y962598D03*
X799409Y969291D03*
X827362Y968701D03*
X829134Y956890D03*
X802953Y1000591D03*
X802756Y991339D03*
X791142Y967717D03*
X800000Y973819D03*
X790748Y962008D03*
X807244Y994291D03*
X808268Y987402D03*
X814961Y1000394D03*
X827165Y1007677D03*
X798228Y998031D03*
X826772Y977953D03*
X829724Y981693D03*
X827559Y1016929D03*
X813780Y1028346D03*
X810039Y1025787D03*
X831299Y1018406D03*
X804331Y1031102D03*
X791142Y1036614D03*
X801575Y1037795D03*
X811614Y1069685D03*
X822835Y1062992D03*
X827756Y1053937D03*
X808661Y1067323D03*
X811024Y1062992D03*
X822441Y1044094D03*
X790748Y1066732D03*
X796457Y1050972D03*
X791339D03*
X794094Y1066535D03*
X790945Y1062795D03*
X790748Y1058858D03*
X801772Y1042717D03*
X831980Y1033965D03*
Y1031890D03*
X834646Y1062992D03*
X833465Y1043307D03*
X808071Y1059252D03*
X809843Y1052756D03*
X806890Y1051083D03*
X832480Y1023622D03*
X814567Y1052362D03*
X825591Y1043307D03*
Y1027165D03*
X809646Y1055118D03*
X807087Y1069685D03*
X794094Y1068898D03*
X829134Y1043701D03*
X822441Y1027165D03*
X831102Y1095079D03*
X824803Y1090551D03*
X817323Y1084449D03*
Y1090157D03*
X811417Y1089370D03*
Y1093701D03*
X824803Y1094882D03*
X812795Y1074409D03*
X794382Y1083858D03*
X796260Y1074854D03*
X794185Y1072835D03*
X796850Y1081445D03*
X807630Y1112205D03*
X807209Y1116925D03*
X820669Y1125787D03*
X830315Y1116142D03*
Y1126181D03*
X820472Y1116339D03*
X825394Y1121260D03*
X795669Y1101969D03*
X799213D03*
X833232Y1095374D03*
X834646Y1078740D03*
X835039Y1110630D03*
X793835Y1118823D03*
X820472Y1093701D03*
X802358Y1095272D03*
X800591Y1097244D03*
X794488Y1093307D03*
X794728Y1097189D03*
X818205Y1093701D03*
X797571Y1123760D03*
X810630Y1082780D03*
X812583Y1122902D03*
X815354Y1106299D03*
X813000Y1120866D03*
X812264Y1114961D03*
X820079Y1088189D03*
X818110Y1104087D03*
X815354Y1082283D03*
X811811Y1105709D03*
X808661Y1085433D03*
X811417Y1124803D03*
X807874Y1073228D03*
X814961Y1111417D03*
X797630Y1112807D03*
X815354Y1094488D03*
X794382Y1087402D03*
X810039Y1145713D03*
X815945Y1135827D03*
X812598D03*
X809843Y1140945D03*
X805512Y1132787D03*
X797244Y1140748D03*
X834252Y1133858D03*
X835039Y1145866D03*
X834252Y1131890D03*
X797921Y1128740D03*
X827165Y1145776D03*
Y1138189D03*
X829724Y1145669D03*
X817717Y1133858D03*
X832283Y1145669D03*
X820079Y1133858D03*
X824606D03*
X813780Y1133071D03*
X811024Y1128740D03*
X814961Y1137795D03*
X838386Y704921D03*
X847047Y699606D03*
X859843Y704921D03*
X868307Y699606D03*
X875000Y718504D03*
X881299Y704724D03*
X894094Y699803D03*
X836417Y743701D03*
X846457Y738583D03*
X858268Y744094D03*
X868504Y738583D03*
X858661Y724409D03*
X847244Y719094D03*
X880315Y744488D03*
X891339Y738583D03*
X888976Y724606D03*
X866929Y763780D03*
X855315Y758071D03*
X840748Y764173D03*
X891929Y763976D03*
X876969Y757874D03*
X860827Y835236D03*
X861614Y816732D03*
X840354Y823622D03*
X890748Y813189D03*
X883268Y808268D03*
X889567Y822638D03*
X881496Y819094D03*
X861417Y808465D03*
X862402Y827953D03*
X840945Y810236D03*
X849803Y818701D03*
X871850Y816929D03*
X853346Y833465D03*
X840748Y799016D03*
X858661Y798819D03*
X874606Y799016D03*
X886024Y798819D03*
X893701Y835630D03*
X842323Y854724D03*
X863583Y857874D03*
Y870866D03*
X862598Y880315D03*
X843898Y884843D03*
X854331Y869685D03*
X837598Y848425D03*
X836811Y859843D03*
X841535Y836417D03*
X839764Y879134D03*
X854134Y889764D03*
X861575Y892520D03*
X841142Y892717D03*
X836614Y888976D03*
X874409Y888189D03*
X838189Y870079D03*
X845669Y894291D03*
X862795Y848228D03*
X844094Y846063D03*
X853346Y843504D03*
X863583Y843701D03*
X877528Y882252D03*
X867913Y886220D03*
X868819Y889961D03*
X889764Y883661D03*
X886811Y883858D03*
X881496Y880709D03*
X877559Y872835D03*
Y875591D03*
X890354Y870079D03*
X893110Y869882D03*
Y872638D03*
X893701Y874606D03*
X878740Y871063D03*
X891535Y856693D03*
X894488Y856890D03*
X879331Y858661D03*
X882480Y855709D03*
X879331D03*
X893701Y847441D03*
X886811D03*
X881890Y846457D03*
X880906Y836614D03*
X889764Y839567D03*
X885827Y836614D03*
X870079D03*
Y847441D03*
X877953D03*
X878937Y878937D03*
X886811Y867126D03*
X884843Y864173D03*
X887795Y862205D03*
X891732Y860236D03*
Y866142D03*
X872047Y877953D03*
X868110Y874016D03*
Y866142D03*
X872047Y870079D03*
X868110Y858268D03*
X872047Y862205D03*
X868110Y850394D03*
X872047Y854331D03*
X877953Y894094D03*
X882677Y891240D03*
Y883071D03*
X885827Y881150D03*
X839528Y946260D03*
X864173Y951772D03*
X862992Y939370D03*
X866339Y930906D03*
X859528Y913976D03*
X845866Y910827D03*
X854134Y896063D03*
X890354Y940551D03*
X858465Y949016D03*
X865354Y922244D03*
X842126Y914764D03*
X850394Y905906D03*
X841339Y910433D03*
X868189Y911024D03*
X852165Y935236D03*
X859252Y932677D03*
X871457Y921850D03*
X842520Y933661D03*
X853346Y921850D03*
X858071Y917126D03*
X857874Y926575D03*
X846457Y941535D03*
X871496Y935827D03*
X855315Y940945D03*
X871063Y951181D03*
X837795Y939764D03*
X878150Y934843D03*
Y919685D03*
X891732Y927953D03*
X887795Y925984D03*
X866929Y944094D03*
X846654Y951181D03*
X836220Y916142D03*
X848031Y929331D03*
X868898Y928346D03*
X877756Y941142D03*
X876969Y929724D03*
X881890Y936811D03*
X887598Y922638D03*
X877953Y897047D03*
X869094Y896457D03*
X868701Y915157D03*
X854921Y911614D03*
X841732Y924606D03*
X885236Y916732D03*
X880709Y917717D03*
X882185Y898524D03*
X881591Y911323D03*
X887205Y917913D03*
X883268Y918098D03*
X890079Y934055D03*
X892913Y933858D03*
X882539Y950925D03*
X882480Y945276D03*
X884843Y929331D03*
X880906Y931299D03*
X884646Y931496D03*
X882677Y929528D03*
X858071Y907874D03*
X842717Y957480D03*
X855276Y962008D03*
X859055Y975394D03*
X847244Y975197D03*
X850197Y967126D03*
X862992Y965354D03*
X877638Y953346D03*
X893504Y970079D03*
X875984Y993701D03*
X885433Y994488D03*
X886024Y962402D03*
X887992Y969882D03*
X878937Y967717D03*
Y957677D03*
X856693Y956102D03*
X870472Y960433D03*
X856890Y969094D03*
X866929Y977756D03*
X870866Y969094D03*
X875394Y976575D03*
X860039Y980315D03*
X846654Y979528D03*
X847047Y961811D03*
X838780Y953740D03*
X836614Y963976D03*
X838583Y980906D03*
X843307Y969291D03*
X853346Y977756D03*
X864764Y959055D03*
X839764Y977362D03*
X837480Y1007677D03*
X879921Y976969D03*
X872441Y981496D03*
X874409Y985630D03*
X862598Y983465D03*
X886811Y973189D03*
X884055Y975591D03*
X869291Y993543D03*
Y981299D03*
X889106Y1023819D03*
X883071Y1037402D03*
X884843Y1021457D03*
X881693Y1023228D03*
X876378Y1029134D03*
X872047Y1023031D03*
X857480Y1022744D03*
X855906Y1028543D03*
X854382Y1033268D03*
X862008Y1030118D03*
X866429Y1024213D03*
X838189Y1032874D03*
X836024Y1020866D03*
X868504Y1063386D03*
X877165Y1066492D03*
X872835Y1067272D03*
X886220Y1060827D03*
X875091Y1064173D03*
X869291Y1067272D03*
X875106Y1069291D03*
X891339Y1044291D03*
X875787Y1038780D03*
X869366Y1039409D03*
X871850Y1040945D03*
X850394Y1062992D03*
X856496Y1054134D03*
X857087Y1046654D03*
X843110Y1047244D03*
X854331Y1068898D03*
X842520D03*
X893307Y1029724D03*
X878150Y1039370D03*
X880862Y1045177D03*
X878154Y1044098D03*
X869780D03*
X858366Y1016831D03*
X879921Y1036811D03*
X860630Y1039173D03*
X884646Y1047638D03*
X881693Y1068906D03*
X892520Y1065354D03*
Y1067323D03*
Y1063386D03*
X886220Y1049213D03*
X847835Y1045768D03*
X894488Y1054331D03*
X886130Y1027953D03*
X870972D03*
X867169Y1066925D03*
X868902Y1053941D03*
X886130Y1031102D03*
X870972D03*
X848425Y1030917D03*
X883268Y1070669D03*
X867232Y1079134D03*
X877953Y1079232D03*
X867323Y1082488D03*
X877953Y1084350D03*
X850394Y1078740D03*
X852756Y1094882D03*
X866142Y1096063D03*
X858661Y1084055D03*
X858465Y1079134D03*
X858268Y1094882D03*
X855512D03*
X871850Y1121260D03*
X874213D03*
X882480Y1118504D03*
X885047Y1123228D03*
X886417Y1111024D03*
X882480D03*
X884449Y1114567D03*
X886417Y1118504D03*
X882480Y1125776D03*
X871543Y1101575D03*
X885047Y1105118D03*
X884843Y1107480D03*
X887598Y1106299D03*
X871567Y1103650D03*
X845776Y1111811D03*
X843307Y1109492D03*
X840945Y1107768D03*
X841409Y1111764D03*
X844339Y1122441D03*
X849606Y1125984D03*
X856307Y1113386D03*
X849205D03*
X845669Y1127953D03*
X862992Y1127165D03*
X856307Y1111311D03*
X847244Y1106799D03*
X849205Y1111024D03*
X846457Y1125197D03*
X865354Y1124803D03*
X859449Y1117717D03*
X857079Y1123228D03*
X860236Y1127165D03*
X857079Y1120866D03*
X865354Y1122441D03*
X843079Y1128031D03*
X844886Y1106732D03*
X852953Y1108358D03*
X844831Y1104657D03*
X860287Y1105118D03*
X884343Y1092717D03*
X888886D03*
X883858Y1080709D03*
X889764D03*
X849209Y1095280D03*
X863189Y1096457D03*
X865110Y1106299D03*
X845579Y1115354D03*
X893504Y1118504D03*
X889764Y1126567D03*
X893701D03*
X879528Y1125984D03*
X877559D03*
X884252Y1097835D03*
Y1095866D03*
X840551Y1094882D03*
X842913Y1091732D03*
X849803Y1083858D03*
X838291Y1093504D03*
X876378Y1106890D03*
X872047Y1108654D03*
X874213D03*
X861862Y1107480D03*
X838583Y1107087D03*
X850787Y1106602D03*
X877516Y1092717D03*
X877559Y1090551D03*
X872835Y1075787D03*
X876378Y1104921D03*
X836614Y1091524D03*
X887591Y1154724D03*
X875287Y1140157D03*
X885146Y1142520D03*
X881890Y1145283D03*
X867323Y1149409D03*
X880118Y1151772D03*
X836614Y1131890D03*
Y1133965D03*
X837402Y1145776D03*
X851969Y1129134D03*
X858268Y1143906D03*
X855906D03*
X853543D03*
X850394Y1143358D03*
X862205Y1148031D03*
X856693D03*
X854331Y1150984D03*
X874016Y1158661D03*
X860433Y1158465D03*
X837402Y1137689D03*
X887591Y1158268D03*
X891732Y1150583D03*
Y1145669D03*
X865035Y1138854D03*
X862697Y1139618D03*
X857087Y1140945D03*
X852756Y1138583D03*
X850394D03*
X849894Y1129134D03*
X877559Y1142717D03*
X844492Y1133268D03*
X844484Y1131193D03*
X861024Y1142717D03*
X889764Y1138583D03*
X893701D03*
X840748Y1130472D03*
X902165Y743701D03*
X915354Y738386D03*
X928543Y744094D03*
X934646Y719291D03*
X916142Y724803D03*
X905512Y719094D03*
X942520Y738386D03*
X939961Y724213D03*
X899409Y770472D03*
X904528Y758465D03*
X949016Y800787D03*
X933858Y804528D03*
X920669Y806299D03*
X932677Y828346D03*
X896260Y803346D03*
X908858Y814764D03*
X909055Y805709D03*
X907874Y808465D03*
X951575Y812795D03*
X942126Y813780D03*
X932087Y813583D03*
X920669Y813189D03*
X939370Y799409D03*
X926969Y799213D03*
X916142D03*
X950197Y823031D03*
X937008D03*
X897047Y798819D03*
X896654Y820276D03*
X896260Y807480D03*
X896654Y812402D03*
X907283Y799213D03*
X927165Y823228D03*
X902165Y832283D03*
X906496Y830512D03*
Y828740D03*
X898031Y830512D03*
Y828740D03*
X904724Y781496D03*
X899409Y791142D03*
X931496Y856693D03*
X941732Y843898D03*
X934843Y836024D03*
X942913Y850000D03*
X928543Y885236D03*
X929331Y849016D03*
X933858Y850394D03*
X947835Y841142D03*
X943898Y857677D03*
X942126Y869094D03*
X935630Y859843D03*
X944094Y886417D03*
X937795Y886024D03*
X940551Y836417D03*
X937008Y856693D03*
X923819Y874409D03*
X948031Y875591D03*
X930315Y869291D03*
X934843D03*
X928740Y887402D03*
X904331Y878740D03*
X906496Y876378D03*
X909843Y873031D03*
X912992Y872835D03*
Y870079D03*
X911614Y858071D03*
X906299Y858268D03*
X909055Y856299D03*
X910630Y852559D03*
X908858Y850591D03*
X910630Y848622D03*
X918504Y858071D03*
X920866Y860433D03*
X918504Y862705D03*
X894685Y853740D03*
X902165Y837598D03*
X897638Y845472D03*
X906496D03*
X914370Y840551D03*
X910433Y836614D03*
X903543Y842520D03*
X900591D03*
X920276Y836614D03*
X924213D03*
X920276Y847441D03*
X925197D03*
X896654Y871063D03*
X899606Y868110D03*
X897638Y862205D03*
X901575Y856299D03*
Y860236D03*
X897638Y858268D03*
Y850394D03*
X905512Y848425D03*
X901575D03*
X905512Y852362D03*
X895669Y866142D03*
X915354Y868110D03*
Y872047D03*
X919291D03*
X927165Y860236D03*
X921260Y868110D03*
Y864173D03*
Y852362D03*
X925197Y856299D03*
X922047Y885039D03*
X942992Y893504D03*
X952457Y850890D03*
X902205Y881193D03*
Y865748D03*
X919685Y946063D03*
X952559Y935630D03*
X941535Y937598D03*
X940157Y915551D03*
X931890Y927165D03*
X923228Y928740D03*
X941929Y912205D03*
X931299Y915551D03*
X933071Y905709D03*
X931299Y911220D03*
X926575Y907874D03*
X942717Y920079D03*
X936417Y910630D03*
X929134Y936024D03*
X935827Y927362D03*
X952559Y929331D03*
X946850Y909843D03*
X940157Y907087D03*
X935039Y919291D03*
X921260Y925591D03*
X920945Y935039D03*
X923228Y938780D03*
X899016Y935433D03*
X901772Y933071D03*
X898228Y938780D03*
X904528Y939961D03*
X895866Y924803D03*
X918898Y912992D03*
X926142Y925197D03*
X927953Y905315D03*
X948819Y916732D03*
X945512Y934252D03*
X932087Y945669D03*
X921102Y916339D03*
X924213Y916142D03*
X926457Y913976D03*
X946654Y946260D03*
X922453Y907862D03*
X895748Y933858D03*
X914272Y947638D03*
X917028Y947047D03*
X912283Y950591D03*
X905768Y950925D03*
X906299Y944154D03*
X900492Y915256D03*
X902677Y915650D03*
X904252Y936024D03*
X949764Y901378D03*
X908386Y922441D03*
X906496Y932441D03*
X951575Y904134D03*
X949016Y966535D03*
X902756Y982874D03*
X906496Y992520D03*
X897047Y987008D03*
X918701Y984646D03*
X915157Y968701D03*
X931102Y955709D03*
X940945Y954921D03*
X905512Y959055D03*
X895276Y957087D03*
X900591Y964173D03*
X909449Y986220D03*
X911417Y976772D03*
X923622Y961220D03*
X929134Y986417D03*
X929331Y980118D03*
X945276Y989764D03*
X950264Y983071D03*
X938268Y1001378D03*
X951181Y1009449D03*
X896850Y1004331D03*
X937157Y982169D03*
X949606Y972835D03*
X937378Y982390D03*
X942126Y1002559D03*
X943780Y993406D03*
X937638Y975000D03*
X943307Y975394D03*
X932283Y989567D03*
X931969Y975197D03*
X940748Y1005118D03*
X926181Y975402D03*
X910335Y953937D03*
X940941Y981689D03*
X945618Y983858D03*
X925197Y980118D03*
X908386Y956299D03*
X908268Y1006594D03*
X928346Y1029134D03*
X941339Y1019291D03*
X945276Y1034449D03*
X924606D03*
X908465Y1023819D03*
X921760Y1023622D03*
X897193Y1024016D03*
X901878D03*
X950000Y1055118D03*
X943504Y1065354D03*
X946457D03*
X948425D03*
X927469Y1067913D03*
X929043Y1052756D03*
X938976Y1038575D03*
X945563Y1043898D03*
X947638Y1041776D03*
X950394Y1039173D03*
X917323Y1068701D03*
X916142Y1065067D03*
X896457Y1067335D03*
Y1063394D03*
X899004Y1061024D03*
X912008Y1059260D03*
X924500Y1052559D03*
X907677Y1040157D03*
X903937Y1040551D03*
X898909Y1038976D03*
X912795Y1064173D03*
X914764Y1059260D03*
X909244Y1055906D03*
X917528D03*
X943110Y1038583D03*
X913189Y1026976D03*
X916732D03*
X908268Y1066732D03*
X927362Y1022244D03*
X931496Y1020276D03*
X944882Y1025591D03*
X947835Y1022638D03*
X894882Y1016732D03*
X922441Y1064370D03*
X906693Y1050000D03*
Y1047638D03*
X919685Y1060039D03*
X896563Y1054331D03*
X949957Y1068307D03*
X941142Y1028150D03*
X901878Y1027953D03*
Y1031102D03*
X900984Y1068701D03*
X902953D03*
Y1063976D03*
X900984D03*
X919094Y1038787D03*
X911417D03*
X913780D03*
X916339Y1038780D03*
X935197Y1070520D03*
X950051Y1071850D03*
X947835Y1074122D03*
X928740Y1076772D03*
Y1079528D03*
X946248Y1091311D03*
X949213Y1095224D03*
X930571Y1090500D03*
X935433Y1081496D03*
X933071Y1090551D03*
X943531Y1088772D03*
X897835Y1072335D03*
X918791Y1090551D03*
X925197Y1070327D03*
X922831Y1082681D03*
X950394Y1110236D03*
X942626Y1115642D03*
X942520Y1117717D03*
X926969Y1107480D03*
X933465Y1102362D03*
X950591Y1106496D03*
X943701Y1098819D03*
X941339D03*
X931102Y1102154D03*
X924016Y1127559D03*
X923622Y1124409D03*
X921260D03*
X902362Y1125205D03*
X906299Y1124854D03*
X899815Y1122638D03*
X896260Y1113386D03*
X911417Y1092913D03*
X899213Y1118701D03*
X919685Y1109449D03*
X914961Y1124606D03*
X918307Y1123031D03*
Y1125984D03*
X911417D03*
Y1123031D03*
X915354Y1109449D03*
X911425Y1097638D03*
X924016Y1105118D03*
X952362Y1095224D03*
X908661Y1122638D03*
X910039Y1087992D03*
X906102D03*
X908071Y1084449D03*
X910039Y1080906D03*
X906102D03*
X907634Y1090772D03*
X911417Y1095472D03*
X908122Y1092791D03*
X911417Y1074213D03*
Y1071850D03*
X909449Y1075098D03*
X895669Y1082677D03*
X930315Y1119291D03*
X935539Y1122835D03*
X933465D03*
X930248Y1117217D03*
X923228Y1116142D03*
X939567Y1112402D03*
X933465Y1107087D03*
X935827D03*
X937902D03*
X902362Y1116528D03*
X904724Y1116535D03*
X919291Y1087598D03*
X920004Y1098028D03*
X918224Y1096957D03*
X918122Y1094882D03*
X897638Y1126772D03*
X945677Y1121252D03*
X895669Y1145669D03*
X929134Y1135039D03*
X942126Y1135827D03*
X947638Y1133465D03*
X943602Y1129579D03*
X947638Y1137795D03*
X944882D03*
X950787D03*
X951189Y1142126D03*
X951087Y1144882D03*
X916535Y1155906D03*
X919291Y1153543D03*
X912992Y1134646D03*
X900205Y1154724D03*
X916732Y1148819D03*
Y1141929D03*
X909843Y1137992D03*
X902953Y1141929D03*
X909843Y1152756D03*
X923622Y1137008D03*
X914961Y1136524D03*
X919291Y1158268D03*
X900205D03*
X895669Y1150583D03*
X936220Y1139764D03*
X911024Y1133276D03*
X897638Y1138583D03*
X922835Y1158858D03*
X953937Y718504D03*
X955315Y744291D03*
X965945Y738386D03*
X975197Y744094D03*
X970472Y731496D03*
X975591Y719488D03*
X963583Y724409D03*
X956890Y829134D03*
X1011417Y832677D03*
X1001969Y826575D03*
X1006890Y807480D03*
X976378Y803150D03*
X954134Y806299D03*
X996850Y801181D03*
X982087Y817913D03*
X1004724Y832677D03*
X1004331Y818504D03*
X981299Y826969D03*
X983071Y806890D03*
X1000394Y806496D03*
X991142Y822244D03*
X993898Y813386D03*
X963583Y818898D03*
X957874Y811811D03*
X967126Y814961D03*
X976378Y811417D03*
X974016Y824213D03*
X959055Y824409D03*
X1008858Y799409D03*
X989567D03*
X967717D03*
X956890D03*
X973228Y868898D03*
X968504Y881890D03*
X962598Y858268D03*
X958268Y858071D03*
X978346Y860433D03*
X985039Y853740D03*
X954134Y873228D03*
X969488Y848425D03*
X992913Y864567D03*
X980709Y866142D03*
X967126Y871063D03*
X982677Y840748D03*
X991929Y860433D03*
X1010433Y850787D03*
X1004528Y876181D03*
X1001378Y889370D03*
X979724Y848425D03*
X958071Y837008D03*
X1001575Y866142D03*
X1002165Y848425D03*
X971457Y840945D03*
X973031Y858268D03*
X963976Y877756D03*
X975394Y875197D03*
X969094Y889764D03*
X976378Y883858D03*
Y893701D03*
X964173Y867126D03*
X957283Y866142D03*
X954921Y853740D03*
X967520Y951181D03*
X1011417Y922047D03*
X1010433Y938189D03*
X978543Y917717D03*
X988189Y928740D03*
X987402Y937402D03*
X987598Y947047D03*
X1003543Y950984D03*
X1002953Y935039D03*
X1001575Y916732D03*
X1001378Y901772D03*
X955906Y920669D03*
X976378Y903543D03*
X962205Y934646D03*
X957677Y947441D03*
X962402Y913386D03*
X957795Y937992D03*
X961575Y908307D03*
X963386Y897835D03*
X965748Y944488D03*
X962402Y945276D03*
X982677Y973031D03*
X990945Y984843D03*
X973622Y1006890D03*
X979921Y982283D03*
X957677Y955315D03*
X976575Y965157D03*
X974213Y972047D03*
X988583Y976969D03*
X1008268Y971941D03*
X965354Y987402D03*
X957874Y991732D03*
X985039D03*
X973622Y982283D03*
X955118Y984252D03*
X976378Y999606D03*
X995276Y991339D03*
X997244Y986614D03*
X971457Y1005906D03*
X963583D03*
X953500Y991732D03*
X969606Y954528D03*
X989764Y1027406D03*
X1004528Y1016732D03*
X993110Y1028543D03*
X1003150Y1022835D03*
X1007087Y1028740D03*
X1009843Y1031496D03*
X996063Y1022835D03*
X972047Y1013386D03*
X954724Y1020472D03*
X971063Y1018898D03*
X983465Y1034843D03*
X972244Y1030906D03*
X971850Y1033661D03*
X959843Y1032283D03*
X964764Y1029724D03*
X955118Y1030315D03*
X1003937Y1050197D03*
X980315Y1064961D03*
X979528Y1058661D03*
X969488Y1067126D03*
X955906Y1066142D03*
Y1060630D03*
X960630Y1058858D03*
X984646Y1057390D03*
X971260Y1055161D03*
X977953Y1055217D03*
X974409Y1060087D03*
X966142Y1060236D03*
X973031Y1068453D03*
X967717Y1040945D03*
Y1044488D03*
X957480D03*
X984646Y1042807D03*
X962598Y1038976D03*
X957480D03*
X992126Y1036417D03*
X994201D03*
X992126Y1038492D03*
X996260Y1040157D03*
X978831Y1039567D03*
X987402Y1064173D03*
X989173Y1040461D03*
X1009449Y1039917D03*
X1003740Y1040157D03*
X1001969Y1060827D03*
X967323Y1027559D03*
X1006693Y1061024D03*
X1002756Y1079528D03*
X994094Y1072047D03*
X991339Y1070472D03*
X988976Y1075984D03*
X996063Y1083858D03*
X986614Y1070472D03*
X983858Y1080709D03*
X978740D03*
X983858Y1086614D03*
X978740D03*
X981890Y1093102D03*
X985827Y1094882D03*
X985835Y1097244D03*
X953150Y1078740D03*
X968110D03*
X971350Y1070669D03*
X986614Y1082283D03*
Y1086220D03*
Y1089764D03*
X968504Y1094094D03*
X959449Y1096598D03*
X962008Y1096551D03*
X960630Y1082705D03*
Y1076575D03*
X988094Y1121362D03*
X998819Y1111024D03*
X1001575Y1122047D03*
X988583Y1110047D03*
X1001579Y1108079D03*
X1006299Y1110638D03*
X1009449D03*
X1001575Y1124803D03*
X996457Y1127862D03*
X999213Y1127953D03*
X1006693Y1126764D03*
X1003937D03*
X999213Y1098425D03*
X970866Y1123622D03*
Y1121654D03*
X963780Y1117717D03*
X976575Y1109843D03*
X954327Y1113622D03*
X980709Y1108866D03*
X954331Y1125591D03*
X971055Y1115748D03*
X982283Y1116142D03*
X963583Y1112213D03*
X954339Y1115697D03*
X954327Y1117772D03*
X974016Y1105512D03*
X985835Y1099606D03*
X986614Y1106299D03*
X965059Y1101969D03*
X960669Y1098280D03*
X962598Y1090157D03*
X958661D03*
X953764Y1083268D03*
X984843Y1124909D03*
X971654Y1095276D03*
X971646Y1097476D03*
X971669Y1099551D03*
X961614Y1128346D03*
X965555Y1128476D03*
X995669Y1089764D03*
X995575Y1086220D03*
X967413Y1083366D03*
X974213Y1076969D03*
X984252Y1112598D03*
X1002165Y1085630D03*
X999016Y1078020D03*
X1001181D03*
X987598Y1149213D03*
Y1156102D03*
X987161Y1128740D03*
X987205Y1131693D03*
X988232Y1145866D03*
X989476Y1137008D03*
X962598Y1137795D03*
X965354D03*
X967717Y1128740D03*
X961811Y1142520D03*
X955906Y1156299D03*
X962492Y1154331D03*
X967035D03*
X976181Y1134646D03*
X973819Y1149213D03*
X980709Y1145276D03*
Y1153150D03*
X973819Y1156102D03*
X955906Y1128740D03*
X959449Y1144094D03*
X953161Y1144882D03*
X964567Y1156547D03*
X984933Y1137008D03*
X953831Y1159449D03*
X1007480Y1141339D03*
X1005118D03*
X1002756D03*
X976772Y1138189D03*
X959646Y1129126D03*
X963583D03*
X968504Y1138189D03*
X964764Y1148031D03*
X1013780Y822638D03*
X1013583Y805709D03*
X1013780Y890748D03*
Y875197D03*
X1013189Y858858D03*
X1013386Y839173D03*
X1011811Y901969D03*
X1013780Y945866D03*
Y930118D03*
Y914370D03*
X1013976Y958071D03*
X1014173Y966535D03*
X1013780Y1028937D03*
Y1019685D03*
X1014961Y1068110D03*
X1013780Y1047244D03*
Y1075787D03*
X1012598Y1079528D03*
X1014764Y1098425D03*
X1012587Y1083465D03*
X1012114Y1087008D03*
G54D22*
G01X812598Y838122D02*
Y842362D01*
G01D02*
Y846602D01*
G01X808358Y842362D02*
X812598D01*
G01D02*
X816839D01*
G01X812598Y848122D02*
Y852362D01*
G01D02*
Y856602D01*
G01X808358Y852362D02*
X812598D01*
G01D02*
X816839D01*
G01X822531Y948201D02*
Y952441D01*
G01D02*
Y956681D01*
G01X818291Y952441D02*
X822531D01*
G01D02*
X826772D01*
G01X799213Y1009835D02*
Y1014173D01*
G01X795752Y1010713D02*
X799213Y1014173D01*
G01D02*
X802673Y1010713D01*
G01X797228Y1009701D02*
X799213Y1014173D01*
G01D02*
X801197Y1009701D01*
G01X832531Y1008201D02*
Y1012441D01*
G01Y998201D02*
Y1002441D01*
G01D02*
Y1006681D01*
G01X828291Y1002441D02*
X832531D01*
G01D02*
X836772D01*
G01X826772Y977953D02*
X833071Y971654D01*
X885276D01*
X886811Y973189D01*
G01X829724Y981693D02*
X838583Y972835D01*
X881299D01*
X884055Y975591D01*
G01X799213Y1014173D02*
Y1018512D01*
G01X794874Y1014173D02*
X799213D01*
G01D02*
X803551D01*
G01X799213D02*
X802673Y1017634D01*
G01X795752D02*
X799213Y1014173D01*
G01D02*
X801197Y1018646D01*
G01X794740Y1012189D02*
X799213Y1014173D01*
G01D02*
X803685Y1016157D01*
G01X794740D02*
X799213Y1014173D01*
G01D02*
X803685Y1012189D01*
G01X797228Y1018646D02*
X799213Y1014173D01*
G01X832531Y1012441D02*
Y1016681D01*
G01X828291Y1012441D02*
X832531D01*
G01D02*
X836772D01*
G01X861024Y1142717D02*
Y1133071D01*
X868898Y1125197D01*
Y1105118D01*
X863780Y1100000D01*
X842130D01*
X820673Y1078543D01*
X808858D01*
X805118Y1074803D01*
Y1034055D01*
X814173Y1025000D01*
X828346D01*
X838398Y1014949D01*
Y1009130D01*
X840835Y1006693D01*
X876783D01*
X882531Y1012441D01*
G01X808071Y1059252D02*
Y1059350D01*
X809744Y1061024D01*
X881890D01*
X898819Y1077953D01*
X913976D01*
X950689Y1114665D01*
Y1118906D01*
X959646Y1127862D01*
Y1129126D01*
G01X961614Y1128346D02*
Y1128157D01*
X951870Y1118413D01*
Y1114173D01*
X914469Y1076772D01*
X899311D01*
X882382Y1059843D01*
X816929D01*
X809843Y1052756D01*
G01X963583Y1129126D02*
Y1125295D01*
X957480Y1119193D01*
Y1109449D01*
X932480Y1084449D01*
X928449D01*
X902661Y1058661D01*
X818307D01*
X810728Y1051083D01*
X806890D01*
G01X845472Y1023622D02*
X832480D01*
G01X965555Y1128476D02*
X965551Y1128472D01*
Y1125591D01*
X958661Y1118701D01*
Y1108957D01*
X932972Y1083268D01*
X928941D01*
X903154Y1057480D01*
X887689D01*
X882177Y1051969D01*
X814961D01*
X814567Y1052362D01*
G01X825591Y1027165D02*
Y1043307D01*
G01X793835Y1118823D02*
X793898D01*
Y1118898D01*
X795669Y1121024D01*
G01X800669Y1131024D02*
X804354Y1127339D01*
Y1097268D01*
X802358Y1095272D01*
G01X800669Y1121024D02*
X803173Y1118520D01*
Y1099827D01*
X800591Y1097244D01*
G01X795669Y1126024D02*
X791929Y1122283D01*
Y1095866D01*
X794488Y1093307D01*
G01X795669Y1116024D02*
X793110Y1113465D01*
Y1098807D01*
X794728Y1097189D01*
G01X865110Y1106299D02*
X859992Y1101181D01*
X841638D01*
X820181Y1079724D01*
X808858D01*
X798819Y1089764D01*
Y1099205D01*
X801260Y1101646D01*
Y1110433D01*
X800669Y1111024D01*
G01X810630Y1082780D02*
Y1087787D01*
X809303Y1089114D01*
Y1119622D01*
X812583Y1122902D01*
G01X815354Y1106299D02*
X810484Y1111169D01*
Y1118350D01*
X813000Y1120866D01*
G01X820079Y1088189D02*
X822146Y1090256D01*
Y1099902D01*
X818110Y1103937D01*
Y1104087D01*
G01X811811Y1105709D02*
Y1098031D01*
X813386Y1096457D01*
Y1084252D01*
X815354Y1082283D01*
G01X811417Y1124803D02*
X805535Y1118921D01*
Y1096776D01*
X804724Y1095965D01*
Y1089370D01*
X808661Y1085433D01*
G01X945677Y1121252D02*
Y1111327D01*
X913484Y1079134D01*
X898327D01*
X891634Y1072441D01*
X808661D01*
X807874Y1073228D01*
G01X797630Y1112807D02*
X795669Y1111024D01*
G01X797244Y1143890D02*
Y1152362D01*
G01D02*
X805717D01*
G01X824606Y1133858D02*
X824114Y1133366D01*
Y1133358D01*
X823138Y1132382D01*
X823130D01*
X822244Y1131496D01*
X815354D01*
X813780Y1133071D01*
G01X882531Y982283D02*
Y1002441D01*
G01Y982283D02*
Y979579D01*
X879921Y976969D01*
G01X905406Y989567D02*
X892531Y1002441D01*
G01X872531Y987508D02*
X874409Y985630D01*
G01X872531Y987508D02*
Y1002441D01*
G01X862531D02*
Y985114D01*
X862598Y985047D01*
Y983465D01*
G01X852531Y1008201D02*
Y1012441D01*
G01X880862Y1045177D02*
Y1041890D01*
X878343Y1039370D01*
X878150D01*
G01X869780Y1044098D02*
X878154D01*
G01X927362Y1022244D02*
X926476Y1021358D01*
X890551D01*
X886024Y1016831D01*
X858366D01*
G01X931496Y1020276D02*
X931398Y1020177D01*
X891043D01*
X883307Y1012441D01*
X882531D01*
G01X944882Y1025591D02*
X937835Y1018543D01*
X893752D01*
X892531Y1017323D01*
Y1012441D01*
G01X879921Y1036811D02*
X862992D01*
X860630Y1039173D01*
G01X995575Y1086220D02*
X971756Y1062402D01*
X909748D01*
X903646Y1056299D01*
X888181D01*
X882669Y1050787D01*
X852854D01*
X847835Y1045768D01*
G01X852531Y1012441D02*
Y1016681D01*
G01X848291Y1012441D02*
X852531D01*
G01D02*
X856772D01*
G01X849209Y1095280D02*
X851173Y1097244D01*
X862402D01*
X863189Y1096457D01*
G01X968504Y1138189D02*
X965945Y1135630D01*
X947051D01*
X941929Y1130508D01*
Y1126583D01*
X931921Y1116575D01*
Y1116520D01*
X930945Y1115543D01*
X930890D01*
X929618Y1114272D01*
X899516D01*
X885441Y1100197D01*
X883661D01*
X882283Y1098819D01*
X844488D01*
X840551Y1094882D01*
G01X1012587Y1083465D02*
X1013787Y1084665D01*
Y1093299D01*
X972638Y1134449D01*
X951480D01*
X933102Y1116071D01*
Y1116028D01*
X931437Y1114362D01*
X931382D01*
X930110Y1113091D01*
X914764D01*
X890157Y1088484D01*
X846161D01*
X842913Y1091732D01*
G01X849803Y1083858D02*
X852854Y1080807D01*
X876780D01*
X880913Y1084941D01*
X891831D01*
X913484Y1106594D01*
X922437D01*
X922634Y1106791D01*
X923327D01*
X926083Y1109547D01*
X931642D01*
X936646Y1114551D01*
Y1114594D01*
X952957Y1130906D01*
X970992D01*
X995669Y1106228D01*
Y1089764D01*
G01X996260Y1040157D02*
X997933Y1038484D01*
X1004626D01*
X1008465Y1042323D01*
Y1096949D01*
X972146Y1133268D01*
X951972D01*
X934283Y1115579D01*
Y1115535D01*
X931929Y1113181D01*
X931874D01*
X931201Y1112508D01*
Y1112496D01*
X930614Y1111909D01*
X915256D01*
X890650Y1087303D01*
X844492D01*
X838291Y1093504D01*
G01X1006693Y1077165D02*
Y1096878D01*
X971484Y1132087D01*
X952465D01*
X935465Y1115087D01*
Y1115043D01*
X931150Y1110728D01*
X924898D01*
X921945Y1107776D01*
X912898D01*
X891244Y1086122D01*
X842028D01*
X837807Y1090343D01*
X837795D01*
X836614Y1091524D01*
G01X937378Y982390D02*
X938500Y983512D01*
X941488D01*
X949606Y975394D01*
Y972835D01*
G01X943780Y993406D02*
X934055Y983681D01*
Y978583D01*
X937638Y975000D01*
G01X902531Y1002441D02*
X907925Y997047D01*
X936614D01*
X942126Y1002559D01*
G01X932283Y989567D02*
X905406D01*
G01X931969Y975197D02*
X937480Y969685D01*
X949409D01*
X953500Y973776D01*
Y983500D01*
X953445Y983555D01*
Y984949D01*
X953500Y985004D01*
Y991732D01*
G01X908268Y1006594D02*
Y1006705D01*
X902531Y1012441D01*
G01X912531D02*
Y1016602D01*
X912402Y1016732D01*
G01D02*
X942126D01*
X947835Y1022441D01*
Y1022638D01*
G01X894882Y1016732D02*
X912402D01*
G01X919685Y1060039D02*
X922835Y1056890D01*
X964370D01*
X978831Y1042429D01*
Y1039567D01*
G01X992520Y838122D02*
Y842362D01*
G01D02*
Y846602D01*
G01X988280Y842362D02*
X992520D01*
G01D02*
X996760D01*
G01X992520Y848122D02*
Y852362D01*
G01D02*
Y856602D01*
G01X988280Y852362D02*
X992520D01*
G01D02*
X996760D01*
G01X992610Y958201D02*
Y962441D01*
G01D02*
Y966681D01*
G01X988370Y962441D02*
X992610D01*
G01D02*
X996850D01*
G01X1006693Y1076575D02*
Y1061024D01*
G01X967413Y1083366D02*
X967815D01*
X974213Y1076969D01*
G01X1006693Y1077165D02*
Y1076575D01*
G01X1001181Y1078020D02*
X1002626Y1076575D01*
X1006693D01*
G01X1007087Y1143890D02*
Y1152362D01*
G01X998614D02*
X1007087D01*
G54D13*
X812598Y832362D03*
X822531Y872441D03*
Y882441D03*
Y892441D03*
X812531Y872441D03*
Y882441D03*
Y892441D03*
X812598Y852362D03*
Y842362D03*
X822531Y902441D03*
Y912441D03*
Y922441D03*
Y932441D03*
Y942441D03*
Y952441D03*
X812531Y902441D03*
Y912441D03*
Y922441D03*
Y932441D03*
Y942441D03*
Y952441D03*
X822531Y962441D03*
X812531D03*
X832531Y1002441D03*
Y1012441D03*
X858969Y875248D03*
X848969D03*
X858969Y865248D03*
X848969D03*
X842531Y1002441D03*
X852531D03*
X862531D03*
X872531D03*
X882531D03*
X892531D03*
X842531Y1012441D03*
X852531D03*
X862531D03*
X872531D03*
X882531D03*
X892531D03*
X902531Y1002441D03*
X912531D03*
X922531D03*
X932531D03*
X902531Y1012441D03*
X912531D03*
X922531D03*
X932531D03*
X992520Y832362D03*
X992610Y872441D03*
Y882441D03*
Y892441D03*
X982610Y872441D03*
Y882441D03*
Y892441D03*
X992520Y852362D03*
Y842362D03*
X992610Y902441D03*
Y912441D03*
Y922441D03*
Y932441D03*
Y942441D03*
Y952441D03*
X982610Y902441D03*
Y912441D03*
Y922441D03*
Y932441D03*
Y942441D03*
Y952441D03*
X992610Y962441D03*
X982610D03*
X983858Y1002441D03*
Y1012441D03*
Y1022441D03*
G54D23*
G01X993799Y609350D02*
X994441Y605217D01*
X995177Y609350D01*
X995913Y605217D01*
X996555Y609350D01*
G01X999339Y609004D02*
X999063Y609213D01*
X998740Y609350D01*
X998374D01*
X997961Y609142D01*
X997638Y608799D01*
X997409Y608386D01*
X997224Y607697D01*
X997177Y607075D01*
X997272Y606457D01*
X997409Y606043D01*
X997685Y605630D01*
X998004Y605354D01*
X998327Y605217D01*
X998650D01*
X998969Y605354D01*
X999244Y605559D01*
X999476Y605835D01*
G01X1000512Y605768D02*
X1000878Y605421D01*
X1001291Y605217D01*
X1001661D01*
X1002028Y605421D01*
X1002303Y605768D01*
X1002441Y606252D01*
X1002350Y606732D01*
X1002118Y607146D01*
X1001705Y607421D01*
X1001154Y607559D01*
X1000835Y607835D01*
X1000697Y608315D01*
X1000787Y608799D01*
X1001016Y609142D01*
X1001339Y609350D01*
X1001661D01*
X1001980Y609213D01*
X1002256Y608866D01*
G01X1004626Y609350D02*
X1004260Y609213D01*
X1003984Y608866D01*
X1003799Y608457D01*
X1003661Y607902D01*
X1003614Y607283D01*
X1003661Y606661D01*
X1003799Y606110D01*
X1003984Y605697D01*
X1004260Y605354D01*
X1004626Y605217D01*
X1004992Y605354D01*
X1005268Y605697D01*
X1005453Y606110D01*
X1005591Y606661D01*
X1005638Y607283D01*
X1005591Y607902D01*
X1005453Y608457D01*
X1005268Y608866D01*
X1004992Y609213D01*
X1004626Y609350D01*
G01X1006764Y606043D02*
X1007039Y605559D01*
X1007409Y605283D01*
X1007823Y605217D01*
X1008189Y605283D01*
X1008555Y605630D01*
X1008787Y606043D01*
X1008831Y606457D01*
X1008740Y606937D01*
X1008417Y607283D01*
X1008098Y607421D01*
X1007685D01*
G01X1008098D02*
X1008374Y607626D01*
X1008602Y607972D01*
X1008693Y608386D01*
X1008602Y608799D01*
X1008374Y609142D01*
X1007961Y609350D01*
X1007547Y609283D01*
X1007134Y609004D01*
G01X1010925Y605217D02*
X1011248Y605283D01*
X1011614Y605492D01*
X1011843Y605835D01*
X1011937Y606319D01*
X1011843Y606799D01*
X1011567Y607213D01*
X1011154Y607421D01*
X1010697D01*
X1010421Y607559D01*
X1010189Y607902D01*
X1010098Y608386D01*
X1010236Y608866D01*
X1010559Y609213D01*
X1010925Y609350D01*
X1011291Y609213D01*
X1011614Y608866D01*
X1011752Y608386D01*
X1011661Y607902D01*
X1011429Y607559D01*
X1011154Y607421D01*
X1010697D01*
X1010283Y607213D01*
X1010008Y606799D01*
X1009913Y606319D01*
X1010008Y605835D01*
X1010236Y605492D01*
X1010602Y605283D01*
X1010925Y605217D01*
G01X993669Y616831D02*
Y612697D01*
X995504D01*
G01X996587D02*
X997736Y616831D01*
X998886Y612697D01*
G01X998472Y614142D02*
X997000D01*
G01X999874Y616831D02*
Y613870D01*
X1000059Y613248D01*
X1000425Y612835D01*
X1000886Y612697D01*
X1001346Y612835D01*
X1001713Y613248D01*
X1001898Y613870D01*
Y616831D01*
G01X1002980Y612697D02*
Y616831D01*
X1005091Y612697D01*
Y616831D01*
G01X1008197Y616484D02*
X1007921Y616693D01*
X1007598Y616831D01*
X1007232D01*
X1006819Y616622D01*
X1006496Y616280D01*
X1006268Y615866D01*
X1006083Y615177D01*
X1006035Y614555D01*
X1006130Y613937D01*
X1006268Y613524D01*
X1006543Y613110D01*
X1006862Y612835D01*
X1007185Y612697D01*
X1007508D01*
X1007827Y612835D01*
X1008102Y613039D01*
X1008335Y613315D01*
G01X1009370Y612697D02*
Y616831D01*
G01X1011299D02*
Y612697D01*
G01Y614764D02*
X1009370D01*
G01X1012520Y612697D02*
X1014449Y616831D01*
G01X1012520D02*
X1014449Y612697D01*
G01X1015717Y616831D02*
Y612697D01*
X1017551D01*
G01X1019185Y614075D02*
X1020382D01*
G01X1023945Y616484D02*
X1023669Y616693D01*
X1023346Y616831D01*
X1022980D01*
X1022567Y616622D01*
X1022244Y616280D01*
X1022016Y615866D01*
X1021831Y615177D01*
X1021783Y614555D01*
X1021878Y613937D01*
X1022016Y613524D01*
X1022291Y613110D01*
X1022610Y612835D01*
X1022933Y612697D01*
X1023256D01*
X1023575Y612835D01*
X1023850Y613039D01*
X1024083Y613315D01*
G01X1027094Y616484D02*
X1026819Y616693D01*
X1026496Y616831D01*
X1026130D01*
X1025717Y616622D01*
X1025394Y616280D01*
X1025165Y615866D01*
X1024980Y615177D01*
X1024933Y614555D01*
X1025028Y613937D01*
X1025165Y613524D01*
X1025441Y613110D01*
X1025760Y612835D01*
X1026083Y612697D01*
X1026406D01*
X1026724Y612835D01*
X1027000Y613039D01*
X1027232Y613315D01*
G01X1029232Y612697D02*
Y616831D01*
X1028681Y616004D01*
G01Y612697D02*
X1029783D01*
G01X1031370Y613524D02*
X1031646Y613039D01*
X1032016Y612764D01*
X1032429Y612697D01*
X1032795Y612764D01*
X1033161Y613110D01*
X1033394Y613524D01*
X1033437Y613937D01*
X1033346Y614417D01*
X1033024Y614764D01*
X1032705Y614902D01*
X1032291D01*
G01X1032705D02*
X1032980Y615106D01*
X1033209Y615453D01*
X1033299Y615866D01*
X1033209Y616280D01*
X1032980Y616622D01*
X1032567Y616831D01*
X1032154Y616764D01*
X1031740Y616484D01*
G01X1034520Y613315D02*
X1034795Y612972D01*
X1035118Y612764D01*
X1035531Y612697D01*
X1035945Y612835D01*
X1036268Y613110D01*
X1036496Y613591D01*
X1036543Y614142D01*
X1036449Y614693D01*
X1036220Y615039D01*
X1035898Y615315D01*
X1035579Y615382D01*
X1035256Y615315D01*
X1034843Y615039D01*
X1034980Y616831D01*
X1036220D01*
G01X1037807Y616142D02*
X1038083Y616555D01*
X1038406Y616764D01*
X1038772Y616831D01*
X1039232Y616693D01*
X1039555Y616346D01*
X1039646Y615937D01*
X1039598Y615520D01*
X1039417Y615177D01*
X1038496Y614488D01*
X1038083Y614004D01*
X1037807Y613315D01*
X1037717Y612697D01*
X1039646D01*
G01X1040913D02*
Y616831D01*
X1042059D01*
X1042429Y616622D01*
X1042657Y616346D01*
X1042748Y615795D01*
X1042657Y615244D01*
X1042382Y614902D01*
X1042059Y614693D01*
X1040913D01*
G01X1042059D02*
X1042748Y612697D01*
G01X1044980D02*
Y616831D01*
X1044429Y616004D01*
G01Y612697D02*
X1045531D01*
G01X1023098Y605315D02*
Y609449D01*
X1024244D01*
X1024614Y609240D01*
X1024843Y608965D01*
X1024933Y608413D01*
X1024843Y607862D01*
X1024567Y607520D01*
X1024244Y607311D01*
X1023098D01*
G01X1024244D02*
X1024933Y605315D01*
G01X1026476Y607173D02*
X1027945D01*
X1027807Y607657D01*
X1027579Y607933D01*
X1027256Y608071D01*
X1026937Y608000D01*
X1026661Y607795D01*
X1026476Y607311D01*
X1026386Y606898D01*
Y606488D01*
X1026476Y606071D01*
X1026705Y605657D01*
X1026980Y605382D01*
X1027303Y605315D01*
X1027626Y605453D01*
X1027945Y605866D01*
G01X1029488Y608071D02*
X1030315Y605315D01*
X1031142Y608071D01*
G01X1033465Y605177D02*
X1033374Y605248D01*
Y605382D01*
X1033465Y605453D01*
X1033555Y605382D01*
Y605248D01*
X1033465Y605177D01*
G01X1040130Y607520D02*
X1040315Y607724D01*
X1040453Y608071D01*
X1040543Y608555D01*
X1040453Y608965D01*
X1040268Y609240D01*
X1039949Y609449D01*
X1038709D01*
Y605315D01*
X1040224D01*
X1040543Y605591D01*
X1040728Y606004D01*
X1040819Y606488D01*
X1040728Y606969D01*
X1040453Y607382D01*
X1040130Y607520D01*
X1038709D01*
G54D14*
X799213Y1014173D03*
G54D15*
G01X794390Y692913D02*
X1011220D01*
G03X1017913Y700591I-552J7237D01*
G01Y964567D01*
G03X1013583Y976969I-19922J0D01*
G02X1009252Y989370I15591J12402D01*
G02X1013583Y1001772I19922J0D01*
G03X1017913Y1014173I-15591J12402D01*
G01Y1158811D01*
G03X1012157Y1164567I-5756J0D01*
G01X849803D01*
Y1159843D01*
X843504D01*
Y1151575D01*
X839961D01*
Y1159843D01*
X825000D01*
Y1151575D01*
X821457D01*
Y1159843D01*
X815157D01*
Y1164567D01*
X793354D01*
G03X787598Y1158811I0J-5756D01*
G01Y1014173D01*
G03X791929Y1001772I19922J0D01*
G02X796260Y989370I-15591J-12402D01*
G02X791929Y976969I-19922J0D01*
G03X787598Y964567I15591J-12402D01*
G01Y700591D01*
G03X794390Y692913I8087J312D01*
G01X950913Y586071D02*
Y593571D01*
X952780D01*
X953524Y593197D01*
X954083Y592697D01*
X954551Y591945D01*
X954925Y591071D01*
X955016Y589819D01*
X954925Y588571D01*
X954551Y587697D01*
X954083Y586945D01*
X953524Y586445D01*
X952780Y586071D01*
X950913D01*
G01X958130D02*
X960465Y593571D01*
X962799Y586071D01*
G01X961957Y588697D02*
X958972D01*
G01X967965Y593571D02*
Y586071D01*
G01X965819Y593571D02*
X970110D01*
G01X977331Y586071D02*
X973598D01*
Y593571D01*
X977331D01*
G01X975839Y589945D02*
X973598D01*
G01X982965Y585823D02*
X982780Y585945D01*
Y586197D01*
X982965Y586319D01*
X983150Y586197D01*
Y585945D01*
X982965Y585823D01*
G01Y589197D02*
X982780Y589319D01*
Y589571D01*
X982965Y589697D01*
X983150Y589571D01*
Y589319D01*
X982965Y589197D01*
G01X996193Y592323D02*
X996752Y593071D01*
X997406Y593445D01*
X998150Y593571D01*
X999083Y593323D01*
X999736Y592697D01*
X999925Y591945D01*
X999831Y591197D01*
X999457Y590571D01*
X997591Y589319D01*
X996752Y588445D01*
X996193Y587197D01*
X996004Y586071D01*
X999925D01*
G01X1005465Y593571D02*
X1004717Y593323D01*
X1004157Y592697D01*
X1003783Y591945D01*
X1003504Y590945D01*
X1003413Y589819D01*
X1003504Y588697D01*
X1003783Y587697D01*
X1004157Y586945D01*
X1004717Y586319D01*
X1005465Y586071D01*
X1006213Y586319D01*
X1006772Y586945D01*
X1007146Y587697D01*
X1007425Y588697D01*
X1007516Y589819D01*
X1007425Y590945D01*
X1007146Y591945D01*
X1006772Y592697D01*
X1006213Y593323D01*
X1005465Y593571D01*
G01X1012965Y586071D02*
Y593571D01*
X1011846Y592071D01*
G01Y586071D02*
X1014083D01*
G01X1020465D02*
X1021118Y586197D01*
X1021862Y586571D01*
X1022331Y587197D01*
X1022516Y588071D01*
X1022331Y588945D01*
X1021772Y589697D01*
X1020929Y590071D01*
X1020000D01*
X1019437Y590323D01*
X1018972Y590945D01*
X1018783Y591819D01*
X1019067Y592697D01*
X1019717Y593323D01*
X1020465Y593571D01*
X1021213Y593323D01*
X1021862Y592697D01*
X1022146Y591819D01*
X1021957Y590945D01*
X1021492Y590323D01*
X1020929Y590071D01*
X1020000D01*
X1019157Y589697D01*
X1018598Y588945D01*
X1018413Y588071D01*
X1018598Y587197D01*
X1019067Y586571D01*
X1019811Y586197D01*
X1020465Y586071D01*
G01X1026752Y588571D02*
X1029177D01*
G01X1035465Y586071D02*
Y593571D01*
X1034346Y592071D01*
G01Y586071D02*
X1036583D01*
G01X1042965Y593571D02*
X1042217Y593323D01*
X1041657Y592697D01*
X1041283Y591945D01*
X1041004Y590945D01*
X1040913Y589819D01*
X1041004Y588697D01*
X1041283Y587697D01*
X1041657Y586945D01*
X1042217Y586319D01*
X1042965Y586071D01*
X1043713Y586319D01*
X1044272Y586945D01*
X1044646Y587697D01*
X1044925Y588697D01*
X1045016Y589819D01*
X1044925Y590945D01*
X1044646Y591945D01*
X1044272Y592697D01*
X1043713Y593323D01*
X1042965Y593571D01*
G01X1049252Y588571D02*
X1051677D01*
G01X1056193Y592323D02*
X1056752Y593071D01*
X1057406Y593445D01*
X1058150Y593571D01*
X1059083Y593323D01*
X1059736Y592697D01*
X1059925Y591945D01*
X1059831Y591197D01*
X1059457Y590571D01*
X1057591Y589319D01*
X1056752Y588445D01*
X1056193Y587197D01*
X1056004Y586071D01*
X1059925D01*
G01X1063413Y587197D02*
X1063972Y586571D01*
X1064626Y586197D01*
X1065465Y586071D01*
X1066303Y586319D01*
X1066957Y586819D01*
X1067425Y587697D01*
X1067516Y588697D01*
X1067331Y589697D01*
X1066862Y590323D01*
X1066213Y590819D01*
X1065559Y590945D01*
X1064906Y590819D01*
X1064067Y590323D01*
X1064346Y593571D01*
X1066862D01*
G01X952768Y632744D02*
Y625244D01*
G01X950622Y632744D02*
X954913D01*
G01X962134Y625244D02*
X958402D01*
Y632744D01*
X962134D01*
G01X960642Y629118D02*
X958402D01*
G01X965807Y625244D02*
X969728Y632744D01*
G01X965807D02*
X969728Y625244D01*
G01X972933D02*
X975268Y632744D01*
X977602Y625244D01*
G01X976760Y627870D02*
X973776D01*
G01X980807Y626244D02*
X981555Y625618D01*
X982394Y625244D01*
X983142D01*
X983886Y625618D01*
X984449Y626244D01*
X984728Y627118D01*
X984539Y627992D01*
X984075Y628744D01*
X983232Y629244D01*
X982114Y629496D01*
X981461Y629992D01*
X981181Y630870D01*
X981370Y631744D01*
X981835Y632370D01*
X982488Y632744D01*
X983142D01*
X983795Y632496D01*
X984354Y631870D01*
G01X996650Y632744D02*
X998886D01*
G01X997768D02*
Y625244D01*
G01X996650D02*
X998886D01*
G01X1003122D02*
Y632744D01*
X1007413Y625244D01*
Y632744D01*
G01X1010807Y626244D02*
X1011555Y625618D01*
X1012394Y625244D01*
X1013142D01*
X1013886Y625618D01*
X1014449Y626244D01*
X1014728Y627118D01*
X1014539Y627992D01*
X1014075Y628744D01*
X1013232Y629244D01*
X1012114Y629496D01*
X1011461Y629992D01*
X1011181Y630870D01*
X1011370Y631744D01*
X1011835Y632370D01*
X1012488Y632744D01*
X1013142D01*
X1013795Y632496D01*
X1014354Y631870D01*
G01X1020268Y632744D02*
Y625244D01*
G01X1018122Y632744D02*
X1022413D01*
G01X1025902Y625244D02*
Y632744D01*
X1028232D01*
X1028980Y632370D01*
X1029449Y631870D01*
X1029634Y630870D01*
X1029449Y629870D01*
X1028886Y629244D01*
X1028232Y628870D01*
X1025902D01*
G01X1028232D02*
X1029634Y625244D01*
G01X1033217Y632744D02*
Y627370D01*
X1033587Y626244D01*
X1034335Y625492D01*
X1035268Y625244D01*
X1036201Y625492D01*
X1036949Y626244D01*
X1037319Y627370D01*
Y632744D01*
G01X1040343Y625244D02*
Y632744D01*
X1042768Y626492D01*
X1045193Y632744D01*
Y625244D01*
G01X1052134D02*
X1048402D01*
Y632744D01*
X1052134D01*
G01X1050642Y629118D02*
X1048402D01*
G01X1055622Y625244D02*
Y632744D01*
X1059913Y625244D01*
Y632744D01*
G01X1065268D02*
Y625244D01*
G01X1063122Y632744D02*
X1067413D01*
G01X1070807Y626244D02*
X1071555Y625618D01*
X1072394Y625244D01*
X1073142D01*
X1073886Y625618D01*
X1074449Y626244D01*
X1074728Y627118D01*
X1074539Y627992D01*
X1074075Y628744D01*
X1073232Y629244D01*
X1072114Y629496D01*
X1071461Y629992D01*
X1071181Y630870D01*
X1071370Y631744D01*
X1071835Y632370D01*
X1072488Y632744D01*
X1073142D01*
X1073795Y632496D01*
X1074354Y631870D01*
G01X958807Y613701D02*
Y606201D01*
X962539D01*
G01X969291D02*
Y613701D01*
X965839Y608327D01*
X970508D01*
X799508Y984827D03*
Y993882D03*
X872933Y780807D03*
X863272Y1152756D03*
X872327D03*
X931988Y780807D03*
X1005906Y993815D03*
Y984760D03*
G54D16*
G01X790945Y638681D02*
Y579626D01*
X1086220D01*
Y638681D01*
X790945D01*
G01X938583D02*
Y579626D01*
G01Y599311D02*
X1086220D01*
G01Y618996D02*
X938583D01*
G01X988488D02*
Y599311D01*
X798169Y1106024D03*
X802165Y1136024D03*
X794173D03*
G54D17*
X800669Y1126024D03*
Y1121024D03*
Y1116024D03*
Y1111024D03*
X795669Y1126024D03*
Y1121024D03*
Y1116024D03*
Y1111024D03*
X800669Y1131024D03*
X795669D03*
G54D18*
X816732Y1152165D03*
X847835D03*
G54D19*
G01X812598Y832362D02*
X801969Y842992D01*
Y961878D01*
X822531Y982441D01*
G01Y962441D02*
Y982441D01*
G01D02*
X842531Y1002441D01*
X895374Y890354D03*
X899311D03*
X903248D03*
X907185D03*
X911122D03*
Y894291D03*
X907185D03*
X903248D03*
X899311D03*
X895374D03*
X911122Y898228D03*
X907185D03*
X903248D03*
X899311D03*
X895374D03*
X911122Y902165D03*
X907185D03*
X903248D03*
X899311D03*
X895374D03*
X911122Y906102D03*
X907185D03*
X903248D03*
X899311D03*
X895374D03*
M02*
