G04 ================== begin FILE IDENTIFICATION RECORD ==================*
G04 Layout Name:  LAUNCHXL-CC1352R1.brd*
G04 Film Name:    LAUNCHXL-CC1352R1_assembly_bottom*
G04 File Format:  Gerber RS274X*
G04 File Origin:  Cadence Allegro 17.2-S041*
G04 Origin Date:  Thu Oct 25 19:57:46 2018*
G04 *
G04 Layer:  DRAWING FORMAT/TITLE_BLOCK*
G04 Layer:  BOARD GEOMETRY/BOTTOM ASSEMBLY*
G04 Layer:  REF DES/ASSEMBLY_BOTTOM*
G04 Layer:  PACKAGE GEOMETRY/ASSEMBLY_BOTTOM*
G04 Layer:  BOARD GEOMETRY/OUTLINE*
G04 *
G04 Offset:    (0.000 0.000)*
G04 Mirror:    No*
G04 Mode:      Positive*
G04 Rotation:  0*
G04 FullContactRelief:  No*
G04 UndefLineWidth:     0.099*
G04 ================== end FILE IDENTIFICATION RECORD ====================*
%FSLAX25Y25*MOIN*%
%IR0*IPPOS*OFA0.00000B0.00000*MIA0B0*SFA1.00000B1.00000*%
%ADD10C,.001969*%
%ADD11C,.003937*%
%ADD12C,.003898*%
%ADD13C,.007087*%
G75*
%LPD*%
G75*
G54D10*
G01X803181Y703819D02*
Y706024D01*
X802567Y704185D01*
X801953Y706024D01*
Y703819D01*
G01X800953D02*
Y706024D01*
X801236Y705583D01*
G01Y703819D02*
X800669D01*
G01X799386D02*
X799339Y704295D01*
X799268Y704701D01*
X799173Y705067D01*
X799055Y705472D01*
X798866Y706024D01*
X799811D01*
G01X803181Y1153425D02*
Y1155630D01*
X802567Y1153791D01*
X801953Y1155630D01*
Y1153425D01*
G01X800953D02*
Y1155630D01*
X801236Y1155189D01*
G01Y1153425D02*
X800669D01*
G01X799858Y1153756D02*
X799717Y1153571D01*
X799551Y1153461D01*
X799339Y1153425D01*
X799126Y1153500D01*
X798961Y1153646D01*
X798843Y1153902D01*
X798819Y1154197D01*
X798866Y1154492D01*
X798984Y1154673D01*
X799150Y1154823D01*
X799315Y1154858D01*
X799480Y1154823D01*
X799693Y1154673D01*
X799622Y1155630D01*
X798984D01*
G01X1013024Y703819D02*
Y706024D01*
X1012409Y704185D01*
X1011795Y706024D01*
Y703819D01*
G01X1010795D02*
Y706024D01*
X1011079Y705583D01*
G01Y703819D02*
X1010512D01*
G01X1009181D02*
X1009016Y703854D01*
X1008827Y703965D01*
X1008709Y704150D01*
X1008661Y704406D01*
X1008709Y704665D01*
X1008850Y704886D01*
X1009063Y704996D01*
X1009299D01*
X1009441Y705067D01*
X1009559Y705252D01*
X1009606Y705508D01*
X1009535Y705768D01*
X1009370Y705949D01*
X1009181Y706024D01*
X1008992Y705949D01*
X1008827Y705768D01*
X1008756Y705508D01*
X1008803Y705252D01*
X1008921Y705067D01*
X1009063Y704996D01*
X1009299D01*
X1009512Y704886D01*
X1009654Y704665D01*
X1009701Y704406D01*
X1009654Y704150D01*
X1009535Y703965D01*
X1009346Y703854D01*
X1009181Y703819D01*
G01X1013024Y1153425D02*
Y1155630D01*
X1012409Y1153791D01*
X1011795Y1155630D01*
Y1153425D01*
G01X1010795D02*
Y1155630D01*
X1011079Y1155189D01*
G01Y1153425D02*
X1010512D01*
G01X1009630Y1154343D02*
X1009465Y1154602D01*
X1009323Y1154748D01*
X1009134Y1154823D01*
X1008969Y1154748D01*
X1008850Y1154602D01*
X1008756Y1154382D01*
X1008732Y1154122D01*
X1008756Y1153902D01*
X1008850Y1153681D01*
X1008992Y1153500D01*
X1009157Y1153425D01*
X1009346Y1153500D01*
X1009512Y1153720D01*
X1009606Y1154051D01*
X1009630Y1154417D01*
X1009583Y1154894D01*
X1009512Y1155154D01*
X1009394Y1155409D01*
X1009228Y1155594D01*
X1009063Y1155630D01*
X1008898Y1155555D01*
X1008780Y1155374D01*
G54D11*
G01X790945Y638681D02*
Y579626D01*
X1086220D01*
Y638681D01*
X790945D01*
G01X818268Y972378D02*
X818079Y972028D01*
X817850Y971795D01*
X817583Y971677D01*
X817280Y971795D01*
X817051Y972028D01*
X816823Y972378D01*
X816748Y972846D01*
Y975181D01*
G01X814909Y971677D02*
Y975181D01*
X815366Y974480D01*
G01Y971677D02*
X814453D01*
G01X938583Y638681D02*
Y579626D01*
G01Y599311D02*
X1086220D01*
G01Y618996D02*
X938583D01*
G01X988488D02*
Y599311D01*
G01X988346Y972378D02*
X988157Y972028D01*
X987929Y971795D01*
X987661Y971677D01*
X987358Y971795D01*
X987130Y972028D01*
X986902Y972378D01*
X986827Y972846D01*
Y975181D01*
G01X985713Y974598D02*
X985484Y974949D01*
X985217Y975122D01*
X984913Y975181D01*
X984531Y975063D01*
X984264Y974772D01*
X984189Y974421D01*
X984228Y974071D01*
X984378Y973780D01*
X985142Y973197D01*
X985484Y972787D01*
X985713Y972201D01*
X985787Y971677D01*
X984189D01*
G54D12*
G01X794390Y692913D02*
X1011220D01*
G03X1017913Y700591I-552J7237D01*
G01Y964567D01*
G03X1013583Y976969I-19922J0D01*
G02X1009252Y989370I15591J12402D01*
G02X1013583Y1001772I19922J0D01*
G03X1017913Y1014173I-15591J12402D01*
G01Y1158811D01*
G03X1012157Y1164567I-5756J0D01*
G01X849803D01*
Y1159843D01*
X843504D01*
Y1151575D01*
X839961D01*
Y1159843D01*
X825000D01*
Y1151575D01*
X821457D01*
Y1159843D01*
X815157D01*
Y1164567D01*
X793354D01*
G03X787598Y1158811I0J-5756D01*
G01Y1014173D01*
G03X791929Y1001772I19922J0D01*
G02X796260Y989370I-15591J-12402D01*
G02X791929Y976969I-19922J0D01*
G03X787598Y964567I15591J-12402D01*
G01Y700591D01*
G03X794390Y692913I8087J312D01*
G01X810630Y702756D02*
G03I-13386J0D01*
G01X827280Y968441D02*
Y866441D01*
G01D02*
X807783D01*
G01D02*
Y968441D01*
G01X810980Y880890D02*
Y883992D01*
G01D02*
X814083D01*
G01Y880890D02*
X810980D01*
G01X814083Y883992D02*
Y880890D01*
G01X820980D02*
Y883992D01*
G01D02*
X824083D01*
G01Y880890D02*
X820980D01*
G01X824083Y883992D02*
Y880890D01*
G01X810980Y890890D02*
Y893992D01*
G01X814083Y890890D02*
X810980D01*
G01X814083Y893992D02*
Y890890D01*
G01X820980D02*
Y893992D01*
G01X824083Y890890D02*
X820980D01*
G01X824083Y893992D02*
Y890890D01*
G01X810980Y870890D02*
Y873992D01*
G01D02*
X814083D01*
G01Y870890D02*
X810980D01*
G01X814083Y873992D02*
Y870890D01*
G01X824083Y873992D02*
Y870890D01*
G01D02*
X820980D01*
G01Y873992D02*
X824083D01*
G01X820980Y870890D02*
Y873992D01*
G01X810980Y893992D02*
X814083D01*
G01X820980D02*
X824083D01*
G01X810980Y900890D02*
Y903992D01*
G01D02*
X814083D01*
G01Y900890D02*
X810980D01*
G01X814083Y903992D02*
Y900890D01*
G01X820980D02*
Y903992D01*
G01D02*
X824083D01*
G01Y900890D02*
X820980D01*
G01X824083Y903992D02*
Y900890D01*
G01X810980Y910890D02*
Y913992D01*
G01D02*
X814083D01*
G01Y910890D02*
X810980D01*
G01X814083Y913992D02*
Y910890D01*
G01X820980D02*
Y913992D01*
G01D02*
X824083D01*
G01Y910890D02*
X820980D01*
G01X824083Y913992D02*
Y910890D01*
G01X810980Y920890D02*
Y923992D01*
G01D02*
X814083D01*
G01Y920890D02*
X810980D01*
G01X814083Y923992D02*
Y920890D01*
G01X820980D02*
Y923992D01*
G01D02*
X824083D01*
G01Y920890D02*
X820980D01*
G01X824083Y923992D02*
Y920890D01*
G01X810980Y930890D02*
Y933992D01*
G01D02*
X814083D01*
G01Y930890D02*
X810980D01*
G01X814083Y933992D02*
Y930890D01*
G01X820980D02*
Y933992D01*
G01D02*
X824083D01*
G01Y930890D02*
X820980D01*
G01X824083Y933992D02*
Y930890D01*
G01X810980Y940890D02*
Y943992D01*
G01D02*
X814083D01*
G01Y940890D02*
X810980D01*
G01X814083Y943992D02*
Y940890D01*
G01X820980D02*
Y943992D01*
G01D02*
X824083D01*
G01Y940890D02*
X820980D01*
G01X824083Y943992D02*
Y940890D01*
G01X810980Y950890D02*
Y953992D01*
G01X814083Y950890D02*
X810980D01*
G01X814083Y953992D02*
Y950890D01*
G01X820980D02*
Y953992D01*
G01X824083Y950890D02*
X820980D01*
G01X824083Y953992D02*
Y950890D01*
G01X807783Y968441D02*
X827280D01*
G01X810980Y953992D02*
X814083D01*
G01X820980D02*
X824083D01*
G01X810980Y960890D02*
Y963992D01*
G01D02*
X814083D01*
G01Y960890D02*
X810980D01*
G01X814083Y963992D02*
Y960890D01*
G01X824083D02*
X820980D01*
G01D02*
Y963992D01*
G01X824083D02*
Y960890D01*
G01X820980Y963992D02*
X824083D01*
G01X810630Y1152362D02*
G03I-13386J0D01*
G01X950913Y586071D02*
Y593571D01*
X952780D01*
X953524Y593197D01*
X954083Y592697D01*
X954551Y591945D01*
X954925Y591071D01*
X955016Y589819D01*
X954925Y588571D01*
X954551Y587697D01*
X954083Y586945D01*
X953524Y586445D01*
X952780Y586071D01*
X950913D01*
G01X958130D02*
X960465Y593571D01*
X962799Y586071D01*
G01X961957Y588697D02*
X958972D01*
G01X967965Y593571D02*
Y586071D01*
G01X965819Y593571D02*
X970110D01*
G01X977331Y586071D02*
X973598D01*
Y593571D01*
X977331D01*
G01X975839Y589945D02*
X973598D01*
G01X982965Y585823D02*
X982780Y585945D01*
Y586197D01*
X982965Y586319D01*
X983150Y586197D01*
Y585945D01*
X982965Y585823D01*
G01Y589197D02*
X982780Y589319D01*
Y589571D01*
X982965Y589697D01*
X983150Y589571D01*
Y589319D01*
X982965Y589197D01*
G01X996193Y592323D02*
X996752Y593071D01*
X997406Y593445D01*
X998150Y593571D01*
X999083Y593323D01*
X999736Y592697D01*
X999925Y591945D01*
X999831Y591197D01*
X999457Y590571D01*
X997591Y589319D01*
X996752Y588445D01*
X996193Y587197D01*
X996004Y586071D01*
X999925D01*
G01X1005465Y593571D02*
X1004717Y593323D01*
X1004157Y592697D01*
X1003783Y591945D01*
X1003504Y590945D01*
X1003413Y589819D01*
X1003504Y588697D01*
X1003783Y587697D01*
X1004157Y586945D01*
X1004717Y586319D01*
X1005465Y586071D01*
X1006213Y586319D01*
X1006772Y586945D01*
X1007146Y587697D01*
X1007425Y588697D01*
X1007516Y589819D01*
X1007425Y590945D01*
X1007146Y591945D01*
X1006772Y592697D01*
X1006213Y593323D01*
X1005465Y593571D01*
G01X1012965Y586071D02*
Y593571D01*
X1011846Y592071D01*
G01Y586071D02*
X1014083D01*
G01X1020465D02*
X1021118Y586197D01*
X1021862Y586571D01*
X1022331Y587197D01*
X1022516Y588071D01*
X1022331Y588945D01*
X1021772Y589697D01*
X1020929Y590071D01*
X1020000D01*
X1019437Y590323D01*
X1018972Y590945D01*
X1018783Y591819D01*
X1019067Y592697D01*
X1019717Y593323D01*
X1020465Y593571D01*
X1021213Y593323D01*
X1021862Y592697D01*
X1022146Y591819D01*
X1021957Y590945D01*
X1021492Y590323D01*
X1020929Y590071D01*
X1020000D01*
X1019157Y589697D01*
X1018598Y588945D01*
X1018413Y588071D01*
X1018598Y587197D01*
X1019067Y586571D01*
X1019811Y586197D01*
X1020465Y586071D01*
G01X1026752Y588571D02*
X1029177D01*
G01X1035465Y586071D02*
Y593571D01*
X1034346Y592071D01*
G01Y586071D02*
X1036583D01*
G01X1042965Y593571D02*
X1042217Y593323D01*
X1041657Y592697D01*
X1041283Y591945D01*
X1041004Y590945D01*
X1040913Y589819D01*
X1041004Y588697D01*
X1041283Y587697D01*
X1041657Y586945D01*
X1042217Y586319D01*
X1042965Y586071D01*
X1043713Y586319D01*
X1044272Y586945D01*
X1044646Y587697D01*
X1044925Y588697D01*
X1045016Y589819D01*
X1044925Y590945D01*
X1044646Y591945D01*
X1044272Y592697D01*
X1043713Y593323D01*
X1042965Y593571D01*
G01X1049252Y588571D02*
X1051677D01*
G01X1056193Y592323D02*
X1056752Y593071D01*
X1057406Y593445D01*
X1058150Y593571D01*
X1059083Y593323D01*
X1059736Y592697D01*
X1059925Y591945D01*
X1059831Y591197D01*
X1059457Y590571D01*
X1057591Y589319D01*
X1056752Y588445D01*
X1056193Y587197D01*
X1056004Y586071D01*
X1059925D01*
G01X1063413Y587197D02*
X1063972Y586571D01*
X1064626Y586197D01*
X1065465Y586071D01*
X1066303Y586319D01*
X1066957Y586819D01*
X1067425Y587697D01*
X1067516Y588697D01*
X1067331Y589697D01*
X1066862Y590323D01*
X1066213Y590819D01*
X1065559Y590945D01*
X1064906Y590819D01*
X1064067Y590323D01*
X1064346Y593571D01*
X1066862D01*
G01X938850Y606201D02*
X941185Y613701D01*
X943520Y606201D01*
G01X942677Y608827D02*
X939693D01*
G01X946724Y607201D02*
X947472Y606575D01*
X948311Y606201D01*
X949059D01*
X949803Y606575D01*
X950366Y607201D01*
X950646Y608075D01*
X950457Y608949D01*
X949992Y609701D01*
X949150Y610201D01*
X948031Y610453D01*
X947378Y610949D01*
X947098Y611827D01*
X947287Y612701D01*
X947752Y613327D01*
X948406Y613701D01*
X949059D01*
X949713Y613453D01*
X950272Y612827D01*
G01X954224Y607201D02*
X954972Y606575D01*
X955811Y606201D01*
X956559D01*
X957303Y606575D01*
X957866Y607201D01*
X958146Y608075D01*
X957957Y608949D01*
X957492Y609701D01*
X956650Y610201D01*
X955531Y610453D01*
X954878Y610949D01*
X954598Y611827D01*
X954787Y612701D01*
X955252Y613327D01*
X955906Y613701D01*
X956559D01*
X957213Y613453D01*
X957772Y612827D01*
G01X963685Y606201D02*
Y609575D01*
X961819Y613701D01*
G01X965551D02*
X963685Y609575D01*
G01X971933Y610201D02*
X972303Y610575D01*
X972583Y611201D01*
X972772Y612075D01*
X972583Y612827D01*
X972213Y613327D01*
X971559Y613701D01*
X969039D01*
Y606201D01*
X972118D01*
X972772Y606701D01*
X973146Y607449D01*
X973331Y608327D01*
X973146Y609201D01*
X972583Y609949D01*
X971933Y610201D01*
X969039D01*
G01X978685Y606201D02*
X977937Y606327D01*
X977287Y606827D01*
X976724Y607575D01*
X976350Y608449D01*
X976165Y609449D01*
Y610453D01*
X976350Y611453D01*
X976724Y612327D01*
X977287Y613075D01*
X977937Y613575D01*
X978685Y613701D01*
X979433Y613575D01*
X980083Y613075D01*
X980646Y612327D01*
X981020Y611453D01*
X981205Y610453D01*
Y609449D01*
X981020Y608449D01*
X980646Y607575D01*
X980083Y606827D01*
X979433Y606327D01*
X978685Y606201D01*
G01X986185Y613701D02*
Y606201D01*
G01X984039Y613701D02*
X988331D01*
G01X952768Y632744D02*
Y625244D01*
G01X950622Y632744D02*
X954913D01*
G01X962134Y625244D02*
X958402D01*
Y632744D01*
X962134D01*
G01X960642Y629118D02*
X958402D01*
G01X965807Y625244D02*
X969728Y632744D01*
G01X965807D02*
X969728Y625244D01*
G01X972933D02*
X975268Y632744D01*
X977602Y625244D01*
G01X976760Y627870D02*
X973776D01*
G01X980807Y626244D02*
X981555Y625618D01*
X982394Y625244D01*
X983142D01*
X983886Y625618D01*
X984449Y626244D01*
X984728Y627118D01*
X984539Y627992D01*
X984075Y628744D01*
X983232Y629244D01*
X982114Y629496D01*
X981461Y629992D01*
X981181Y630870D01*
X981370Y631744D01*
X981835Y632370D01*
X982488Y632744D01*
X983142D01*
X983795Y632496D01*
X984354Y631870D01*
G01X996650Y632744D02*
X998886D01*
G01X997768D02*
Y625244D01*
G01X996650D02*
X998886D01*
G01X1003122D02*
Y632744D01*
X1007413Y625244D01*
Y632744D01*
G01X1010807Y626244D02*
X1011555Y625618D01*
X1012394Y625244D01*
X1013142D01*
X1013886Y625618D01*
X1014449Y626244D01*
X1014728Y627118D01*
X1014539Y627992D01*
X1014075Y628744D01*
X1013232Y629244D01*
X1012114Y629496D01*
X1011461Y629992D01*
X1011181Y630870D01*
X1011370Y631744D01*
X1011835Y632370D01*
X1012488Y632744D01*
X1013142D01*
X1013795Y632496D01*
X1014354Y631870D01*
G01X1020268Y632744D02*
Y625244D01*
G01X1018122Y632744D02*
X1022413D01*
G01X1025902Y625244D02*
Y632744D01*
X1028232D01*
X1028980Y632370D01*
X1029449Y631870D01*
X1029634Y630870D01*
X1029449Y629870D01*
X1028886Y629244D01*
X1028232Y628870D01*
X1025902D01*
G01X1028232D02*
X1029634Y625244D01*
G01X1033217Y632744D02*
Y627370D01*
X1033587Y626244D01*
X1034335Y625492D01*
X1035268Y625244D01*
X1036201Y625492D01*
X1036949Y626244D01*
X1037319Y627370D01*
Y632744D01*
G01X1040343Y625244D02*
Y632744D01*
X1042768Y626492D01*
X1045193Y632744D01*
Y625244D01*
G01X1052134D02*
X1048402D01*
Y632744D01*
X1052134D01*
G01X1050642Y629118D02*
X1048402D01*
G01X1055622Y625244D02*
Y632744D01*
X1059913Y625244D01*
Y632744D01*
G01X1065268D02*
Y625244D01*
G01X1063122Y632744D02*
X1067413D01*
G01X1070807Y626244D02*
X1071555Y625618D01*
X1072394Y625244D01*
X1073142D01*
X1073886Y625618D01*
X1074449Y626244D01*
X1074728Y627118D01*
X1074539Y627992D01*
X1074075Y628744D01*
X1073232Y629244D01*
X1072114Y629496D01*
X1071461Y629992D01*
X1071181Y630870D01*
X1071370Y631744D01*
X1071835Y632370D01*
X1072488Y632744D01*
X1073142D01*
X1073795Y632496D01*
X1074354Y631870D01*
G01X1020472Y702756D02*
G03I-13386J0D01*
G01X997358Y968441D02*
Y866441D01*
G01D02*
X977862D01*
G01D02*
Y968441D01*
G01X981059Y880890D02*
Y883992D01*
G01D02*
X984161D01*
G01Y880890D02*
X981059D01*
G01X984161Y883992D02*
Y880890D01*
G01X991059D02*
Y883992D01*
G01D02*
X994161D01*
G01Y880890D02*
X991059D01*
G01X994161Y883992D02*
Y880890D01*
G01X981059Y890890D02*
Y893992D01*
G01X984161Y890890D02*
X981059D01*
G01X984161Y893992D02*
Y890890D01*
G01X991059D02*
Y893992D01*
G01X994161Y890890D02*
X991059D01*
G01X994161Y893992D02*
Y890890D01*
G01X981059Y870890D02*
Y873992D01*
G01D02*
X984161D01*
G01Y870890D02*
X981059D01*
G01X984161Y873992D02*
Y870890D01*
G01X994161Y873992D02*
Y870890D01*
G01D02*
X991059D01*
G01Y873992D02*
X994161D01*
G01X991059Y870890D02*
Y873992D01*
G01X981059Y893992D02*
X984161D01*
G01X991059D02*
X994161D01*
G01X981059Y900890D02*
Y903992D01*
G01D02*
X984161D01*
G01Y900890D02*
X981059D01*
G01X984161Y903992D02*
Y900890D01*
G01X991059D02*
Y903992D01*
G01D02*
X994161D01*
G01Y900890D02*
X991059D01*
G01X994161Y903992D02*
Y900890D01*
G01X981059Y910890D02*
Y913992D01*
G01D02*
X984161D01*
G01Y910890D02*
X981059D01*
G01X984161Y913992D02*
Y910890D01*
G01X991059D02*
Y913992D01*
G01D02*
X994161D01*
G01Y910890D02*
X991059D01*
G01X994161Y913992D02*
Y910890D01*
G01X981059Y920890D02*
Y923992D01*
G01D02*
X984161D01*
G01Y920890D02*
X981059D01*
G01X984161Y923992D02*
Y920890D01*
G01X991059D02*
Y923992D01*
G01D02*
X994161D01*
G01Y920890D02*
X991059D01*
G01X994161Y923992D02*
Y920890D01*
G01X981059Y930890D02*
Y933992D01*
G01D02*
X984161D01*
G01Y930890D02*
X981059D01*
G01X984161Y933992D02*
Y930890D01*
G01X991059D02*
Y933992D01*
G01D02*
X994161D01*
G01Y930890D02*
X991059D01*
G01X994161Y933992D02*
Y930890D01*
G01X981059Y940890D02*
Y943992D01*
G01D02*
X984161D01*
G01Y940890D02*
X981059D01*
G01X984161Y943992D02*
Y940890D01*
G01X991059D02*
Y943992D01*
G01D02*
X994161D01*
G01Y940890D02*
X991059D01*
G01X994161Y943992D02*
Y940890D01*
G01X981059Y950890D02*
Y953992D01*
G01X984161Y950890D02*
X981059D01*
G01X984161Y953992D02*
Y950890D01*
G01X991059D02*
Y953992D01*
G01X994161Y950890D02*
X991059D01*
G01X994161Y953992D02*
Y950890D01*
G01X977862Y968441D02*
X997358D01*
G01X981059Y953992D02*
X984161D01*
G01X991059D02*
X994161D01*
G01X981059Y960890D02*
Y963992D01*
G01D02*
X984161D01*
G01Y960890D02*
X981059D01*
G01X984161Y963992D02*
Y960890D01*
G01X994161D02*
X991059D01*
G01D02*
Y963992D01*
G01X994161D02*
Y960890D01*
G01X991059Y963992D02*
X994161D01*
G01X1020472Y1152362D02*
G03I-13386J0D01*
G54D13*
G01X993799Y609350D02*
X994441Y605217D01*
X995177Y609350D01*
X995913Y605217D01*
X996555Y609350D01*
G01X999339Y609004D02*
X999063Y609213D01*
X998740Y609350D01*
X998374D01*
X997961Y609142D01*
X997638Y608799D01*
X997409Y608386D01*
X997224Y607697D01*
X997177Y607075D01*
X997272Y606457D01*
X997409Y606043D01*
X997685Y605630D01*
X998004Y605354D01*
X998327Y605217D01*
X998650D01*
X998969Y605354D01*
X999244Y605559D01*
X999476Y605835D01*
G01X1000512Y605768D02*
X1000878Y605421D01*
X1001291Y605217D01*
X1001661D01*
X1002028Y605421D01*
X1002303Y605768D01*
X1002441Y606252D01*
X1002350Y606732D01*
X1002118Y607146D01*
X1001705Y607421D01*
X1001154Y607559D01*
X1000835Y607835D01*
X1000697Y608315D01*
X1000787Y608799D01*
X1001016Y609142D01*
X1001339Y609350D01*
X1001661D01*
X1001980Y609213D01*
X1002256Y608866D01*
G01X1004626Y609350D02*
X1004260Y609213D01*
X1003984Y608866D01*
X1003799Y608457D01*
X1003661Y607902D01*
X1003614Y607283D01*
X1003661Y606661D01*
X1003799Y606110D01*
X1003984Y605697D01*
X1004260Y605354D01*
X1004626Y605217D01*
X1004992Y605354D01*
X1005268Y605697D01*
X1005453Y606110D01*
X1005591Y606661D01*
X1005638Y607283D01*
X1005591Y607902D01*
X1005453Y608457D01*
X1005268Y608866D01*
X1004992Y609213D01*
X1004626Y609350D01*
G01X1006764Y606043D02*
X1007039Y605559D01*
X1007409Y605283D01*
X1007823Y605217D01*
X1008189Y605283D01*
X1008555Y605630D01*
X1008787Y606043D01*
X1008831Y606457D01*
X1008740Y606937D01*
X1008417Y607283D01*
X1008098Y607421D01*
X1007685D01*
G01X1008098D02*
X1008374Y607626D01*
X1008602Y607972D01*
X1008693Y608386D01*
X1008602Y608799D01*
X1008374Y609142D01*
X1007961Y609350D01*
X1007547Y609283D01*
X1007134Y609004D01*
G01X1010925Y605217D02*
X1011248Y605283D01*
X1011614Y605492D01*
X1011843Y605835D01*
X1011937Y606319D01*
X1011843Y606799D01*
X1011567Y607213D01*
X1011154Y607421D01*
X1010697D01*
X1010421Y607559D01*
X1010189Y607902D01*
X1010098Y608386D01*
X1010236Y608866D01*
X1010559Y609213D01*
X1010925Y609350D01*
X1011291Y609213D01*
X1011614Y608866D01*
X1011752Y608386D01*
X1011661Y607902D01*
X1011429Y607559D01*
X1011154Y607421D01*
X1010697D01*
X1010283Y607213D01*
X1010008Y606799D01*
X1009913Y606319D01*
X1010008Y605835D01*
X1010236Y605492D01*
X1010602Y605283D01*
X1010925Y605217D01*
G01X993669Y616831D02*
Y612697D01*
X995504D01*
G01X996587D02*
X997736Y616831D01*
X998886Y612697D01*
G01X998472Y614142D02*
X997000D01*
G01X999874Y616831D02*
Y613870D01*
X1000059Y613248D01*
X1000425Y612835D01*
X1000886Y612697D01*
X1001346Y612835D01*
X1001713Y613248D01*
X1001898Y613870D01*
Y616831D01*
G01X1002980Y612697D02*
Y616831D01*
X1005091Y612697D01*
Y616831D01*
G01X1008197Y616484D02*
X1007921Y616693D01*
X1007598Y616831D01*
X1007232D01*
X1006819Y616622D01*
X1006496Y616280D01*
X1006268Y615866D01*
X1006083Y615177D01*
X1006035Y614555D01*
X1006130Y613937D01*
X1006268Y613524D01*
X1006543Y613110D01*
X1006862Y612835D01*
X1007185Y612697D01*
X1007508D01*
X1007827Y612835D01*
X1008102Y613039D01*
X1008335Y613315D01*
G01X1009370Y612697D02*
Y616831D01*
G01X1011299D02*
Y612697D01*
G01Y614764D02*
X1009370D01*
G01X1012520Y612697D02*
X1014449Y616831D01*
G01X1012520D02*
X1014449Y612697D01*
G01X1015717Y616831D02*
Y612697D01*
X1017551D01*
G01X1019185Y614075D02*
X1020382D01*
G01X1023945Y616484D02*
X1023669Y616693D01*
X1023346Y616831D01*
X1022980D01*
X1022567Y616622D01*
X1022244Y616280D01*
X1022016Y615866D01*
X1021831Y615177D01*
X1021783Y614555D01*
X1021878Y613937D01*
X1022016Y613524D01*
X1022291Y613110D01*
X1022610Y612835D01*
X1022933Y612697D01*
X1023256D01*
X1023575Y612835D01*
X1023850Y613039D01*
X1024083Y613315D01*
G01X1027094Y616484D02*
X1026819Y616693D01*
X1026496Y616831D01*
X1026130D01*
X1025717Y616622D01*
X1025394Y616280D01*
X1025165Y615866D01*
X1024980Y615177D01*
X1024933Y614555D01*
X1025028Y613937D01*
X1025165Y613524D01*
X1025441Y613110D01*
X1025760Y612835D01*
X1026083Y612697D01*
X1026406D01*
X1026724Y612835D01*
X1027000Y613039D01*
X1027232Y613315D01*
G01X1029232Y612697D02*
Y616831D01*
X1028681Y616004D01*
G01Y612697D02*
X1029783D01*
G01X1031370Y613524D02*
X1031646Y613039D01*
X1032016Y612764D01*
X1032429Y612697D01*
X1032795Y612764D01*
X1033161Y613110D01*
X1033394Y613524D01*
X1033437Y613937D01*
X1033346Y614417D01*
X1033024Y614764D01*
X1032705Y614902D01*
X1032291D01*
G01X1032705D02*
X1032980Y615106D01*
X1033209Y615453D01*
X1033299Y615866D01*
X1033209Y616280D01*
X1032980Y616622D01*
X1032567Y616831D01*
X1032154Y616764D01*
X1031740Y616484D01*
G01X1034520Y613315D02*
X1034795Y612972D01*
X1035118Y612764D01*
X1035531Y612697D01*
X1035945Y612835D01*
X1036268Y613110D01*
X1036496Y613591D01*
X1036543Y614142D01*
X1036449Y614693D01*
X1036220Y615039D01*
X1035898Y615315D01*
X1035579Y615382D01*
X1035256Y615315D01*
X1034843Y615039D01*
X1034980Y616831D01*
X1036220D01*
G01X1037807Y616142D02*
X1038083Y616555D01*
X1038406Y616764D01*
X1038772Y616831D01*
X1039232Y616693D01*
X1039555Y616346D01*
X1039646Y615937D01*
X1039598Y615520D01*
X1039417Y615177D01*
X1038496Y614488D01*
X1038083Y614004D01*
X1037807Y613315D01*
X1037717Y612697D01*
X1039646D01*
G01X1040913D02*
Y616831D01*
X1042059D01*
X1042429Y616622D01*
X1042657Y616346D01*
X1042748Y615795D01*
X1042657Y615244D01*
X1042382Y614902D01*
X1042059Y614693D01*
X1040913D01*
G01X1042059D02*
X1042748Y612697D01*
G01X1044980D02*
Y616831D01*
X1044429Y616004D01*
G01Y612697D02*
X1045531D01*
G01X1023098Y605315D02*
Y609449D01*
X1024244D01*
X1024614Y609240D01*
X1024843Y608965D01*
X1024933Y608413D01*
X1024843Y607862D01*
X1024567Y607520D01*
X1024244Y607311D01*
X1023098D01*
G01X1024244D02*
X1024933Y605315D01*
G01X1026476Y607173D02*
X1027945D01*
X1027807Y607657D01*
X1027579Y607933D01*
X1027256Y608071D01*
X1026937Y608000D01*
X1026661Y607795D01*
X1026476Y607311D01*
X1026386Y606898D01*
Y606488D01*
X1026476Y606071D01*
X1026705Y605657D01*
X1026980Y605382D01*
X1027303Y605315D01*
X1027626Y605453D01*
X1027945Y605866D01*
G01X1029488Y608071D02*
X1030315Y605315D01*
X1031142Y608071D01*
G01X1033465Y605177D02*
X1033374Y605248D01*
Y605382D01*
X1033465Y605453D01*
X1033555Y605382D01*
Y605248D01*
X1033465Y605177D01*
G01X1040130Y607520D02*
X1040315Y607724D01*
X1040453Y608071D01*
X1040543Y608555D01*
X1040453Y608965D01*
X1040268Y609240D01*
X1039949Y609449D01*
X1038709D01*
Y605315D01*
X1040224D01*
X1040543Y605591D01*
X1040728Y606004D01*
X1040819Y606488D01*
X1040728Y606969D01*
X1040453Y607382D01*
X1040130Y607520D01*
X1038709D01*
M02*
