G04 ================== begin FILE IDENTIFICATION RECORD ==================*
G04 Layout Name:  LAUNCHXL-CC1352R1.brd*
G04 Film Name:    LAUNCHXL-CC1352R1_silk_top*
G04 File Format:  Gerber RS274X*
G04 File Origin:  Cadence Allegro 17.2-S041*
G04 Origin Date:  Thu Oct 25 19:57:46 2018*
G04 *
G04 Layer:  DRAWING FORMAT/TITLE_BLOCK*
G04 Layer:  BOARD GEOMETRY/TOP SILK*
G04 Layer:  DEVICE TYPE/SILKSCREEN_TOP*
G04 Layer:  PACKAGE GEOMETRY/SILKSCREEN_TOP*
G04 Layer:  MANUFACTURING/AUTOSILK_TOP*
G04 Layer:  BOARD GEOMETRY/OUTLINE*
G04 *
G04 Offset:    (0.000 0.000)*
G04 Mirror:    No*
G04 Mode:      Positive*
G04 Rotation:  0*
G04 FullContactRelief:  No*
G04 UndefLineWidth:     0.099*
G04 ================== end FILE IDENTIFICATION RECORD ====================*
%FSLAX25Y25*MOIN*%
%IR0*IPPOS*OFA0.00000B0.00000*MIA0B0*SFA1.00000B1.00000*%
%ADD10C,.003937*%
%ADD11C,.019685*%
%ADD12C,.003898*%
%ADD13C,.007087*%
G75*
%LPD*%
G75*
G36*
G01X789193Y827862D02*
X803394D01*
X807969Y832437D01*
X803445Y836961D01*
X789193D01*
Y832413D01*
Y827862D01*
G37*
G36*
G01X831583Y828150D02*
X830685D01*
Y830807D01*
X826969D01*
Y825252D01*
X823024D01*
X823055Y825110D01*
X823091Y824972D01*
X823126Y824835D01*
X823165Y824701D01*
X823213Y824567D01*
X823260Y824441D01*
X823319Y824319D01*
X823386Y824205D01*
X823461Y824094D01*
X823504Y824043D01*
X823642Y823902D01*
X823744Y823811D01*
X823854Y823724D01*
X823961Y823642D01*
X824071Y823555D01*
X824193Y823457D01*
X824280Y823378D01*
X824378Y823280D01*
X824472Y823181D01*
X824559Y823075D01*
X824646Y822972D01*
X824732Y822862D01*
X824815Y822756D01*
X824858Y822614D01*
X824898Y822476D01*
X824937Y822335D01*
X824980Y822193D01*
X825024Y822055D01*
X825067Y821917D01*
X825118Y821780D01*
X825165Y821642D01*
X825220Y821508D01*
X825280Y821374D01*
X825362Y821197D01*
X825409Y821110D01*
X825480Y820980D01*
X825563Y820862D01*
X825661Y820748D01*
X825776Y820650D01*
X825902Y820571D01*
X826047Y820512D01*
X826197Y820476D01*
X826343Y820472D01*
X826453Y820496D01*
X826606Y820567D01*
X826720Y820657D01*
X826827Y820768D01*
X826921Y820886D01*
X827020Y821008D01*
X827110Y821126D01*
X827209Y821240D01*
X827307Y821343D01*
X827417Y821433D01*
X827547Y821508D01*
X827677Y821559D01*
X827858Y821587D01*
X827969Y821575D01*
X828110Y821535D01*
X828244Y821469D01*
X828402Y821350D01*
X828480Y821283D01*
X828579Y821173D01*
X828669Y821059D01*
X828748Y820937D01*
X828823Y820811D01*
X828870Y820728D01*
X828965Y820555D01*
X829031Y820425D01*
X829098Y820295D01*
X829165Y820165D01*
X829228Y820035D01*
X829287Y819902D01*
X829339Y819791D01*
X829409Y819638D01*
X829469Y819504D01*
X829531Y819370D01*
X829591Y819236D01*
X829650Y819106D01*
X829713Y818972D01*
X829807Y818780D01*
X829843Y818713D01*
X829906Y818583D01*
X829976Y818453D01*
X830047Y818327D01*
X830126Y818205D01*
X830205Y818079D01*
X830283Y817961D01*
X830374Y817839D01*
X830429Y817764D01*
X830559Y817610D01*
X830661Y817500D01*
X830764Y817394D01*
X830874Y817291D01*
X830984Y817193D01*
X831098Y817102D01*
X831213Y817016D01*
X831366Y816909D01*
X831441Y816862D01*
X831559Y816795D01*
X831677Y816732D01*
X831803Y816681D01*
X831929Y816638D01*
X832063Y816598D01*
X832205Y816567D01*
X832350Y816543D01*
X832508Y816528D01*
X832677Y816520D01*
X832925Y816516D01*
X833047Y816524D01*
X833244Y816535D01*
X833433Y816563D01*
X833602Y816602D01*
X833736Y816654D01*
X833827Y816724D01*
X833862Y816831D01*
X833831Y816925D01*
X833748Y817051D01*
X833642Y817185D01*
X833587Y817559D01*
X833539Y817929D01*
X833516Y818287D01*
X833524Y818630D01*
X833563Y818902D01*
X833677Y819256D01*
X833831Y819535D01*
X834024Y819791D01*
X834256Y820035D01*
X834524Y820260D01*
X834819Y820469D01*
X835142Y820669D01*
X835488Y820854D01*
X835850Y821035D01*
X836224Y821213D01*
X836606Y821382D01*
X836992Y821551D01*
X837681D01*
Y824705D01*
X836980Y825406D01*
Y828150D01*
X833783D01*
X833394Y826071D01*
X834331D01*
X834094Y824748D01*
X833236D01*
X832713Y821972D01*
X833390Y821976D01*
Y820862D01*
G02X833106Y820500I-316J-45D01*
G01X830921D01*
G02X830276Y821004I-43J611D01*
G01Y821319D01*
X830890Y824748D01*
X829976D01*
X830260Y826071D01*
X831236D01*
X831583Y828150D01*
G37*
G36*
G01X831913Y828370D02*
X832272Y829937D01*
X833909D01*
X833551Y828370D01*
X831913D01*
G37*
G36*
G01Y828150D02*
X830665Y821976D01*
X832303D01*
X833551Y828150D01*
X831913D01*
G37*
G36*
G01X814961Y820866D02*
Y801181D01*
X795276D01*
Y820866D01*
X814961D01*
G37*
G36*
G01X789031Y847736D02*
X803232D01*
X807807Y852311D01*
X805543Y854571D01*
X803283Y856835D01*
X789031D01*
Y852283D01*
Y847736D01*
G37*
G36*
G01Y837894D02*
X803232D01*
X807807Y842469D01*
X805543Y844728D01*
X803283Y846992D01*
X789031D01*
Y842441D01*
Y837894D01*
G37*
G36*
G01X846008Y957382D02*
X831807D01*
X827232Y952807D01*
X829496Y950547D01*
X831756Y948283D01*
X846008D01*
Y952835D01*
Y957382D01*
G37*
G36*
G01X845807Y966941D02*
X831606D01*
X827031Y962366D01*
X831555Y957843D01*
X845807D01*
Y962390D01*
Y966941D01*
G37*
G36*
G01X804106Y967094D02*
X789906D01*
Y958047D01*
X804106D01*
X806370Y960307D01*
X808630Y962571D01*
X806370Y964831D01*
X804106Y967094D01*
G37*
G36*
G01X837303Y979583D02*
Y993783D01*
X832728Y998358D01*
X830469Y996094D01*
X828205Y993835D01*
Y979583D01*
X832756D01*
X837303D01*
G37*
G36*
G01X843315Y822366D02*
Y821996D01*
X841291D01*
Y822366D01*
X841516D01*
G03X841709Y822559I-1J194D01*
G01Y827063D01*
G03X841516Y827260I-194J3D01*
G01X840366D01*
G03X840228Y827201I2J-194D01*
G01X839713Y826689D01*
X839902Y827894D01*
X844701D01*
X844894Y826689D01*
X844374Y827201D01*
G03X844240Y827260I-139J-135D01*
G01X843091D01*
G03X842894Y827063I-2J-195D01*
G01Y822559D01*
G03X843091Y822366I195J2D01*
G01X843315D01*
G37*
G36*
G01X855150Y815358D02*
Y815067D01*
X853551D01*
Y815358D01*
X853728D01*
G03X853882Y815508I1J152D01*
G01Y819067D01*
G03X853728Y819220I-153J1D01*
G01X852823D01*
G03X852713Y819177I-3J-153D01*
G01X852307Y818772D01*
X852457Y819724D01*
X856248D01*
X856398Y818772D01*
X855988Y819177D01*
G03X855882Y819220I-107J-110D01*
G01X854972D01*
G03X854819Y819067I0J-153D01*
G01Y815508D01*
G03X854972Y815358I153J3D01*
G01X855150D01*
G37*
G36*
G01X884240D02*
Y815067D01*
X882642D01*
Y815358D01*
X882819D01*
G03X882972Y815508I1J153D01*
G01Y819067D01*
G03X882819Y819220I-153J0D01*
G01X881909D01*
G03X881803Y819177I0J-153D01*
G01X881394Y818772D01*
X881543Y819724D01*
X885339D01*
X885488Y818772D01*
X885079Y819177D01*
G03X884969Y819220I-107J-110D01*
G01X884063D01*
G03X883909Y819067I-1J-153D01*
G01Y815508D01*
G03X884063Y815358I152J3D01*
G01X884240D01*
G37*
G36*
G01X848606Y826110D02*
X849819Y824398D01*
G02Y824217I-128J-91D01*
G01X848618Y822484D01*
G02X848488Y822417I-128J89D01*
G01X848185D01*
Y821996D01*
X849610D01*
Y822417D01*
X849343D01*
X850248Y823791D01*
X851217Y822417D01*
X850929D01*
Y821996D01*
X852547D01*
Y822417D01*
X852500D01*
G02X852374Y822484I2J156D01*
G01X851157Y824220D01*
G02Y824394I130J87D01*
G01X852248Y826102D01*
G02X852378Y826177I133J-81D01*
G01X852732D01*
Y826685D01*
X851051D01*
Y826319D01*
Y826177D01*
X851504D01*
X850693Y824941D01*
X849878Y826177D01*
X850374D01*
Y826685D01*
X848173D01*
Y826177D01*
X848480D01*
G02X848606Y826110I-2J-156D01*
G37*
G36*
G01X855563Y821996D02*
Y822417D01*
X855697D01*
G03X855846Y822626I2J156D01*
G01X854744Y825705D01*
X854000Y823787D01*
X855406D01*
X855567Y823339D01*
X853827Y823335D01*
X853551Y822630D01*
G03X853697Y822417I146J-56D01*
G01X853724D01*
Y821996D01*
X852646D01*
Y822417D01*
X852669D01*
G03X852815Y822516I0J157D01*
G01X854425Y826685D01*
X855480D01*
X857008Y822520D01*
G03X857154Y822417I146J53D01*
G01X857323D01*
Y821996D01*
X855563D01*
G37*
G36*
G01X857047Y815504D02*
Y819295D01*
G03X856890Y819453I-156J1D01*
G01X856602D01*
Y819717D01*
X859508D01*
X859602Y819701D01*
X859697Y819685D01*
X859744Y819677D01*
X859787Y819665D01*
X859846Y819650D01*
X859882Y819642D01*
X859925Y819626D01*
X859972Y819606D01*
X860016Y819587D01*
X860059Y819567D01*
X860102Y819543D01*
X860142Y819520D01*
X860185Y819492D01*
X860220Y819465D01*
X860260Y819437D01*
X860299Y819406D01*
X860335Y819370D01*
X860354Y819350D01*
X860402Y819299D01*
X860433Y819264D01*
X860461Y819224D01*
X860488Y819185D01*
X860516Y819142D01*
X860539Y819098D01*
X860559Y819055D01*
X860579Y819012D01*
X860594Y818969D01*
X860610Y818921D01*
X860622Y818870D01*
X860630Y818831D01*
X860638Y818783D01*
X860642Y818736D01*
X860646Y818689D01*
X860650Y818642D01*
X860654Y818449D01*
Y818406D01*
X860657Y818350D01*
X860661Y818256D01*
X860665Y818205D01*
Y818157D01*
Y818110D01*
X860661Y818063D01*
X860657Y818016D01*
X860650Y817992D01*
X860646Y817969D01*
X860642Y817953D01*
X860634Y817925D01*
X860622Y817902D01*
X860614Y817878D01*
X860602Y817858D01*
X860591Y817839D01*
X860567Y817795D01*
X860539Y817752D01*
X860508Y817717D01*
X860476Y817677D01*
X860441Y817642D01*
X860406Y817610D01*
X860370Y817579D01*
X860343Y817559D01*
X860291Y817528D01*
X860252Y817504D01*
X860217Y817484D01*
X860173Y817461D01*
X860134Y817445D01*
X860051Y817406D01*
X860012Y817390D01*
X859969Y817370D01*
X859925Y817350D01*
X859882Y817327D01*
X859835Y817303D01*
X859791Y817276D01*
X859744Y817248D01*
X859693Y817213D01*
X859677Y817197D01*
X859665Y817189D01*
X859654Y817181D01*
X859646Y817173D01*
X859638Y817161D01*
X859634Y817154D01*
X859630Y817142D01*
Y817138D01*
X859634Y817130D01*
X859638Y817122D01*
X859646Y817114D01*
X859654Y817106D01*
X859665Y817098D01*
X859689Y817083D01*
X859732Y817059D01*
X859764Y817039D01*
X859787Y817024D01*
X859811Y817012D01*
X859835Y816996D01*
X859854Y816980D01*
X859874Y816969D01*
X859909Y816937D01*
X859941Y816906D01*
X859972Y816874D01*
X860004Y816843D01*
X860035Y816803D01*
X860063Y816776D01*
X860091Y816740D01*
X860122Y816705D01*
X860150Y816665D01*
X860177Y816626D01*
X860236Y816547D01*
X860264Y816508D01*
X860287Y816469D01*
X860315Y816425D01*
X860327Y816402D01*
X860386Y816299D01*
X860429Y816213D01*
X860472Y816130D01*
X860520Y816043D01*
X860543Y816004D01*
X860567Y815965D01*
X860587Y815941D01*
X860622Y815886D01*
X860654Y815850D01*
X860681Y815811D01*
X860713Y815776D01*
X860748Y815740D01*
X860815Y815673D01*
X860898Y815591D01*
X860953Y815539D01*
X861024Y815476D01*
X861122Y815390D01*
G03X861224Y815350I103J115D01*
G01X861421D01*
Y815055D01*
X860339D01*
G02X860220Y815106I-2J157D01*
G01X860004Y815350D01*
X859969Y815390D01*
X859933Y815429D01*
X859898Y815469D01*
X859862Y815508D01*
X859827Y815547D01*
X859795Y815591D01*
X859764Y815634D01*
X859728Y815673D01*
X859701Y815713D01*
X859669Y815760D01*
X859638Y815807D01*
X859610Y815854D01*
X859583Y815898D01*
X859559Y815945D01*
X859535Y815996D01*
X859512Y816043D01*
X859492Y816091D01*
X859472Y816142D01*
X859453Y816193D01*
X859437Y816244D01*
X859417Y816291D01*
X859398Y816343D01*
X859378Y816394D01*
X859358Y816441D01*
X859346Y816469D01*
X859307Y816535D01*
X859283Y816583D01*
X859256Y816626D01*
X859224Y816673D01*
X859197Y816717D01*
X859177Y816748D01*
X859138Y816811D01*
X859110Y816854D01*
X859079Y816898D01*
X859047Y816941D01*
X859008Y816980D01*
X858980Y817004D01*
X858925Y817043D01*
X858878Y817067D01*
X858831Y817091D01*
X858780Y817114D01*
X857976D01*
Y817555D01*
X858902D01*
X858957Y817559D01*
X859012Y817563D01*
X859051Y817567D01*
X859118Y817575D01*
X859173Y817587D01*
X859224Y817598D01*
X859252Y817606D01*
X859327Y817638D01*
X859378Y817665D01*
X859425Y817693D01*
X859469Y817728D01*
X859512Y817764D01*
X859551Y817803D01*
X859587Y817846D01*
X859622Y817894D01*
X859650Y817941D01*
X859669Y817984D01*
X859689Y818039D01*
X859705Y818091D01*
X859713Y818146D01*
X859720Y818197D01*
X859724Y818252D01*
Y818307D01*
Y818362D01*
Y818429D01*
X859720Y818476D01*
X859717Y818531D01*
X859713Y818587D01*
X859705Y818642D01*
X859697Y818693D01*
X859685Y818748D01*
X859669Y818799D01*
X859654Y818850D01*
X859630Y818898D01*
X859614Y818925D01*
X859571Y818992D01*
X859535Y819035D01*
X859500Y819075D01*
X859457Y819110D01*
X859413Y819146D01*
X859366Y819173D01*
X859335Y819189D01*
X859264Y819213D01*
X859213Y819224D01*
X859157Y819232D01*
X859106Y819240D01*
X859051Y819248D01*
X857961D01*
Y815504D01*
G03X858118Y815350I155J2D01*
G01X858472D01*
Y815055D01*
X856602D01*
Y815350D01*
X856890D01*
G03X857047Y815504I2J156D01*
G37*
G36*
G01X862567Y815067D02*
X864705D01*
G03X865500Y815933I-82J873D01*
G01Y819295D01*
G02X865654Y819453I156J2D01*
G01X865886D01*
Y819740D01*
X864370D01*
Y819453D01*
X864693D01*
G02X864850Y819295I1J-156D01*
G01Y816181D01*
G02X864106Y815606I-707J147D01*
G01X863252D01*
G02X862579Y816181I19J704D01*
G01Y819295D01*
G02X862732Y819453I156J2D01*
G01X863071D01*
Y819740D01*
X861016D01*
Y819453D01*
X861417D01*
G02X861575Y819295I1J-157D01*
G01Y816295D01*
G03X862567Y815067I1268J9D01*
G37*
G36*
G01X866122Y815059D02*
X867594D01*
Y815421D01*
X867276D01*
G02X867118Y815579I-1J156D01*
G01Y818555D01*
X868843Y815059D01*
X870500Y818500D01*
Y815579D01*
G02X870343Y815421I-157J-1D01*
G01X870161D01*
Y815067D01*
X871945D01*
Y815421D01*
X871878D01*
G02X871720Y815579I-1J156D01*
G01Y819315D01*
G02X871878Y819472I156J2D01*
G01X872035D01*
Y819740D01*
X870500D01*
G03X870358Y819646I2J-156D01*
G01X869157Y816874D01*
X867878Y819650D01*
G03X867736Y819740I-142J-66D01*
G01X866122D01*
Y819453D01*
X866484D01*
G02X866642Y819295I2J-156D01*
G01Y815579D01*
G02X866484Y815421I-156J-1D01*
G01X866122D01*
Y815059D01*
G37*
G36*
G01X875551Y818020D02*
X875665D01*
Y816854D01*
X875551D01*
X875394Y817055D01*
G03X875272Y817114I-122J-97D01*
G01X873677D01*
Y815606D01*
X875685D01*
G03X875799Y815654I2J156D01*
G01X876283Y816161D01*
X876421D01*
X876075Y815165D01*
G02X875929Y815059I-148J49D01*
G01X872358D01*
Y815228D01*
X872799Y815457D01*
G03X872882Y815594I-74J138D01*
G01Y819075D01*
G03X872803Y819209I-156J-1D01*
G01X872358Y819472D01*
Y819740D01*
X875740D01*
G02X875886Y819642I0J-157D01*
G01X876307Y818618D01*
X876075Y818524D01*
X875661Y818976D01*
G03X875547Y819028I-116J-106D01*
G01X873677D01*
Y817827D01*
X875283D01*
G03X875394Y817870I3J155D01*
G01X875551Y818020D01*
G37*
G36*
G01X847224Y824957D02*
X847335D01*
Y823791D01*
X847224D01*
X847067Y823992D01*
G03X846945Y824051I-122J-97D01*
G01X845350D01*
Y822543D01*
X847358D01*
G03X847472Y822591I2J157D01*
G01X847957Y823098D01*
X848091D01*
X847748Y822102D01*
G02X847598Y821996I-148J50D01*
G01X844031D01*
Y822165D01*
X844469Y822394D01*
G03X844555Y822531I-70J140D01*
G01Y826012D01*
G03X844476Y826146I-156J-2D01*
G01X844031Y826409D01*
Y826677D01*
X847413D01*
G02X847555Y826579I-3J-155D01*
G01X847980Y825559D01*
X847748Y825461D01*
X847335Y825913D01*
G03X847220Y825965I-116J-105D01*
G01X845350D01*
Y824764D01*
X846957D01*
G03X847063Y824807I-1J155D01*
G01X847224Y824957D01*
G37*
G36*
G01X842866Y815732D02*
G03X843177Y815421I312J1D01*
G01X843346D01*
Y815067D01*
X841291Y815059D01*
Y815421D01*
X841457D01*
G03X841772Y815732I2J313D01*
G01Y820567D01*
G03X841457Y820878I-312J-1D01*
G01X841291D01*
Y821146D01*
X843315D01*
Y820878D01*
X843177D01*
G03X842866Y820567I0J-312D01*
G01Y815732D01*
G37*
G36*
G01X843618Y815421D02*
X843913D01*
G03X844071Y815579I1J157D01*
G01Y819240D01*
G03X843913Y819394I-156J-3D01*
G01X843594D01*
Y819740D01*
X845031D01*
G02X845150Y819685I-1J-156D01*
G01X847386Y817098D01*
Y819209D01*
G03X847228Y819362I-156J-2D01*
G01X846846D01*
Y819740D01*
X848417D01*
Y819362D01*
X848087D01*
G03X847933Y819209I2J-155D01*
G01Y815067D01*
X847689D01*
G02X847571Y815118I-3J155D01*
G01X844870Y818248D01*
Y815579D01*
G03X845024Y815421I156J-2D01*
G01X845260D01*
Y815067D01*
X843618D01*
Y815421D01*
G37*
G36*
G01X876484D02*
X876780D01*
G03X876937Y815579I2J156D01*
G01Y819240D01*
G03X876780Y819394I-156J-2D01*
G01X876465D01*
Y819740D01*
X877902D01*
G02X878020Y819685I-1J-156D01*
G01X880252Y817098D01*
Y819209D01*
G03X880098Y819362I-155J-2D01*
G01X879717D01*
Y819740D01*
X881287D01*
Y819362D01*
X880957D01*
G03X880799Y819209I-2J-156D01*
G01Y815067D01*
X880559D01*
G02X880441Y815118I-3J155D01*
G01X877736Y818248D01*
Y815579D01*
G03X877894Y815421I156J-1D01*
G01X878126D01*
Y815067D01*
X876484D01*
Y815421D01*
G37*
G36*
G01X886083Y815138D02*
X885693Y816579D01*
X885874Y816626D01*
X885949Y816520D01*
X886024Y816417D01*
X886102Y816319D01*
X886185Y816224D01*
X886268Y816134D01*
X886354Y816051D01*
X886445Y815972D01*
X886543Y815906D01*
X886650Y815846D01*
X886756Y815803D01*
X886870Y815768D01*
X886992Y815736D01*
X887134Y815709D01*
X887236Y815689D01*
X887362Y815665D01*
X887484Y815646D01*
X887610Y815634D01*
X887732Y815630D01*
X887854Y815634D01*
X887976Y815650D01*
X888094Y815681D01*
X888220Y815732D01*
X888319Y815791D01*
X888417Y815870D01*
X888504Y815965D01*
X888575Y816114D01*
X888591Y816189D01*
X888587Y816311D01*
X888555Y816437D01*
X888500Y816555D01*
X888398Y816689D01*
X888335Y816744D01*
X888232Y816811D01*
X888122Y816862D01*
X888004Y816902D01*
X887835Y816945D01*
X887764Y816957D01*
X887642Y816980D01*
X887524Y817000D01*
X887402Y817016D01*
X887283Y817031D01*
X887165Y817051D01*
X887043Y817071D01*
X886925Y817091D01*
X886803Y817114D01*
X886728Y817134D01*
X886563Y817181D01*
X886445Y817224D01*
X886331Y817272D01*
X886220Y817331D01*
X886122Y817402D01*
X886039Y817480D01*
X885961Y817575D01*
X885902Y817677D01*
X885850Y817787D01*
X885815Y817906D01*
X885787Y818031D01*
X885768Y818157D01*
X885760Y818346D01*
Y818417D01*
X885764Y818543D01*
X885780Y818669D01*
X885807Y818795D01*
X885843Y818913D01*
X885886Y819024D01*
X885941Y819130D01*
X886012Y819236D01*
X886087Y819319D01*
X886177Y819402D01*
X886276Y819476D01*
X886378Y819539D01*
X886488Y819598D01*
X886606Y819650D01*
X886780Y819709D01*
X886843Y819728D01*
X886961Y819756D01*
X887083Y819780D01*
X887201Y819795D01*
X887323Y819807D01*
X887441Y819811D01*
X887567Y819807D01*
X887689Y819799D01*
X887811Y819787D01*
X887933Y819760D01*
X888051Y819728D01*
X888142Y819697D01*
X888272Y819638D01*
X888382Y819579D01*
X888488Y819516D01*
Y819815D01*
X888831D01*
X889134Y818496D01*
X889024Y818382D01*
X888929Y818457D01*
X888835Y818528D01*
X888740Y818598D01*
X888642Y818665D01*
X888543Y818728D01*
X888437Y818791D01*
X888335Y818839D01*
X888224Y818886D01*
X888114Y818925D01*
X888000Y818961D01*
X887886Y818988D01*
X887768Y819012D01*
X887697Y819020D01*
X887535Y819035D01*
X887417D01*
X887299Y819031D01*
X887197Y819020D01*
X887059Y818992D01*
X886945Y818953D01*
X886843Y818894D01*
X886791Y818843D01*
X886709Y818693D01*
X886681Y818567D01*
X886685Y818445D01*
X886717Y818346D01*
X886787Y818240D01*
X886882Y818169D01*
X886992Y818110D01*
X887110Y818071D01*
X887224Y818039D01*
X887358Y818012D01*
X887476Y817992D01*
X887591Y817972D01*
X887709Y817961D01*
X887819Y817945D01*
X887937Y817925D01*
X888047Y817906D01*
X888161Y817878D01*
X888276Y817850D01*
X888390Y817819D01*
X888500Y817783D01*
X888622Y817744D01*
X888732Y817701D01*
X888843Y817654D01*
X888949Y817594D01*
X889043Y817531D01*
X889126Y817465D01*
X889213Y817370D01*
X889283Y817276D01*
X889343Y817173D01*
X889394Y817063D01*
X889437Y816949D01*
X889469Y816831D01*
X889492Y816713D01*
X889504Y816594D01*
X889508Y816476D01*
X889504Y816358D01*
X889492Y816240D01*
X889469Y816114D01*
X889441Y816008D01*
X889402Y815894D01*
X889354Y815783D01*
X889295Y815681D01*
X889232Y815579D01*
X889161Y815484D01*
X889075Y815390D01*
X888992Y815315D01*
X888898Y815244D01*
X888795Y815177D01*
X888689Y815122D01*
X888579Y815075D01*
X888465Y815031D01*
X888346Y815000D01*
X888228Y814972D01*
X888106Y814957D01*
X887984Y814945D01*
X887850Y814941D01*
X887744Y814949D01*
X887626Y814957D01*
X887512Y814976D01*
X887394Y815000D01*
X887280Y815028D01*
X887165Y815059D01*
X887055Y815094D01*
X886941Y815134D01*
X886831Y815177D01*
X886720Y815220D01*
X886610Y815268D01*
X886496Y815311D01*
Y815138D01*
X886083D01*
G37*
G36*
G01X848906Y815110D02*
X848512Y816555D01*
X848693Y816598D01*
X848768Y816496D01*
X848846Y816394D01*
X848925Y816291D01*
X849004Y816197D01*
X849087Y816106D01*
X849173Y816024D01*
X849268Y815945D01*
X849362Y815878D01*
X849472Y815823D01*
X849575Y815776D01*
X849693Y815740D01*
X849811Y815713D01*
X849957Y815681D01*
X850055Y815661D01*
X850181Y815638D01*
X850307Y815618D01*
X850429Y815606D01*
X850555Y815602D01*
X850677Y815606D01*
X850795Y815626D01*
X850913Y815654D01*
X851039Y815705D01*
X851138Y815764D01*
X851240Y815843D01*
X851323Y815937D01*
X851398Y816091D01*
X851409Y816161D01*
X851406Y816283D01*
X851374Y816409D01*
X851319Y816528D01*
X851217Y816661D01*
X851157Y816717D01*
X851055Y816783D01*
X850941Y816839D01*
X850827Y816878D01*
X850657Y816917D01*
X850583Y816933D01*
X850461Y816953D01*
X850343Y816972D01*
X850224Y816988D01*
X850102Y817008D01*
X849984Y817024D01*
X849866Y817043D01*
X849744Y817063D01*
X849626Y817091D01*
X849547Y817106D01*
X849382Y817154D01*
X849264Y817197D01*
X849150Y817248D01*
X849043Y817307D01*
X848945Y817374D01*
X848858Y817453D01*
X848783Y817547D01*
X848720Y817650D01*
X848673Y817760D01*
X848634Y817878D01*
X848606Y818004D01*
X848591Y818130D01*
X848579Y818319D01*
Y818390D01*
X848587Y818520D01*
X848602Y818646D01*
X848626Y818768D01*
X848661Y818886D01*
X848705Y819000D01*
X848760Y819106D01*
X848835Y819209D01*
X848906Y819295D01*
X848996Y819374D01*
X849094Y819449D01*
X849201Y819516D01*
X849311Y819571D01*
X849425Y819622D01*
X849598Y819681D01*
X849661Y819701D01*
X849783Y819728D01*
X849902Y819752D01*
X850020Y819768D01*
X850142Y819780D01*
X850260Y819783D01*
X850386D01*
X850512Y819776D01*
X850634Y819760D01*
X850752Y819736D01*
X850870Y819701D01*
X850961Y819669D01*
X851094Y819610D01*
X851201Y819551D01*
X851307Y819492D01*
Y819787D01*
X851650D01*
X851953Y818469D01*
X851843Y818358D01*
X851748Y818429D01*
X851654Y818504D01*
X851559Y818571D01*
X851465Y818642D01*
X851362Y818705D01*
X851256Y818764D01*
X851157Y818815D01*
X851047Y818862D01*
X850933Y818902D01*
X850819Y818933D01*
X850705Y818961D01*
X850587Y818984D01*
X850516Y818992D01*
X850354Y819008D01*
X850236Y819012D01*
X850118Y819004D01*
X850020Y818992D01*
X849878Y818965D01*
X849764Y818925D01*
X849661Y818866D01*
X849610Y818815D01*
X849528Y818665D01*
X849500Y818543D01*
X849504Y818417D01*
X849535Y818319D01*
X849606Y818213D01*
X849701Y818142D01*
X849811Y818087D01*
X849933Y818043D01*
X850043Y818012D01*
X850177Y817984D01*
X850295Y817965D01*
X850413Y817949D01*
X850528Y817933D01*
X850642Y817917D01*
X850760Y817898D01*
X850870Y817878D01*
X850984Y817850D01*
X851098Y817823D01*
X851213Y817791D01*
X851319Y817760D01*
X851441Y817717D01*
X851555Y817673D01*
X851661Y817626D01*
X851768Y817571D01*
X851866Y817504D01*
X851945Y817441D01*
X852035Y817343D01*
X852102Y817248D01*
X852165Y817146D01*
X852213Y817035D01*
X852256Y816921D01*
X852287Y816803D01*
X852311Y816689D01*
X852323Y816567D01*
X852331Y816449D01*
X852327Y816331D01*
X852311Y816213D01*
X852287Y816091D01*
X852260Y815980D01*
X852220Y815870D01*
X852173Y815760D01*
X852118Y815654D01*
X852051Y815551D01*
X851980Y815457D01*
X851894Y815362D01*
X851811Y815287D01*
X851717Y815217D01*
X851614Y815154D01*
X851508Y815094D01*
X851398Y815047D01*
X851283Y815008D01*
X851165Y814972D01*
X851047Y814949D01*
X850925Y814929D01*
X850803Y814917D01*
X850669D01*
X850567Y814921D01*
X850449Y814933D01*
X850331Y814949D01*
X850217Y814972D01*
X850102Y815000D01*
X849988Y815031D01*
X849874Y815071D01*
X849764Y815110D01*
X849650Y815150D01*
X849539Y815193D01*
X849429Y815240D01*
X849319Y815287D01*
Y815110D01*
X848906D01*
G37*
G36*
G01X857646Y822047D02*
X857252Y823492D01*
X857433Y823535D01*
X857512Y823433D01*
X857587Y823331D01*
X857665Y823232D01*
X857748Y823134D01*
X857831Y823043D01*
X857917Y822961D01*
X858008Y822886D01*
X858106Y822819D01*
X858213Y822760D01*
X858319Y822717D01*
X858433Y822681D01*
X858551Y822650D01*
X858697Y822618D01*
X858799Y822598D01*
X858921Y822575D01*
X859047Y822559D01*
X859173Y822547D01*
X859295Y822539D01*
X859417Y822547D01*
X859539Y822563D01*
X859657Y822594D01*
X859780Y822646D01*
X859882Y822701D01*
X859980Y822783D01*
X860063Y822874D01*
X860138Y823028D01*
X860150Y823098D01*
Y823224D01*
X860118Y823346D01*
X860063Y823465D01*
X859961Y823598D01*
X859898Y823657D01*
X859795Y823724D01*
X859685Y823776D01*
X859567Y823815D01*
X859398Y823854D01*
X859323Y823870D01*
X859205Y823890D01*
X859083Y823909D01*
X858965Y823929D01*
X858846Y823945D01*
X858724Y823961D01*
X858606Y823980D01*
X858488Y824004D01*
X858366Y824028D01*
X858291Y824047D01*
X858126Y824091D01*
X858004Y824134D01*
X857890Y824185D01*
X857783Y824244D01*
X857685Y824311D01*
X857602Y824390D01*
X857524Y824484D01*
X857465Y824587D01*
X857413Y824701D01*
X857378Y824819D01*
X857346Y824941D01*
X857331Y825067D01*
X857319Y825256D01*
Y825327D01*
X857327Y825457D01*
X857343Y825583D01*
X857370Y825705D01*
X857402Y825823D01*
X857449Y825937D01*
X857504Y826043D01*
X857575Y826150D01*
X857650Y826232D01*
X857736Y826315D01*
X857835Y826386D01*
X857941Y826453D01*
X858051Y826508D01*
X858165Y826559D01*
X858339Y826618D01*
X858406Y826638D01*
X858524Y826669D01*
X858642Y826689D01*
X858764Y826709D01*
X858886Y826717D01*
X859004Y826720D01*
X859130D01*
X859252Y826713D01*
X859374Y826697D01*
X859496Y826673D01*
X859610Y826642D01*
X859705Y826606D01*
X859835Y826547D01*
X859945Y826488D01*
X860047Y826429D01*
Y826728D01*
X860390D01*
X860697Y825406D01*
X860583Y825295D01*
X860492Y825366D01*
X860398Y825441D01*
X860303Y825512D01*
X860205Y825579D01*
X860106Y825642D01*
X859996Y825705D01*
X859898Y825752D01*
X859787Y825799D01*
X859677Y825839D01*
X859563Y825870D01*
X859445Y825902D01*
X859331Y825921D01*
X859260Y825933D01*
X859098Y825945D01*
X858980Y825949D01*
X858862Y825945D01*
X858760Y825933D01*
X858622Y825906D01*
X858504Y825866D01*
X858406Y825803D01*
X858354Y825752D01*
X858272Y825602D01*
X858244Y825480D01*
X858248Y825354D01*
X858276Y825256D01*
X858350Y825154D01*
X858441Y825079D01*
X858551Y825024D01*
X858673Y824980D01*
X858787Y824949D01*
X858917Y824921D01*
X859039Y824902D01*
X859154Y824886D01*
X859268Y824870D01*
X859382Y824854D01*
X859500Y824835D01*
X859610Y824815D01*
X859724Y824791D01*
X859839Y824760D01*
X859953Y824728D01*
X860063Y824697D01*
X860181Y824654D01*
X860295Y824614D01*
X860406Y824563D01*
X860508Y824508D01*
X860606Y824445D01*
X860685Y824378D01*
X860776Y824283D01*
X860846Y824185D01*
X860906Y824083D01*
X860957Y823972D01*
X860996Y823858D01*
X861031Y823740D01*
X861051Y823626D01*
X861067Y823508D01*
X861071Y823390D01*
X861067Y823272D01*
X861055Y823154D01*
X861031Y823028D01*
X861004Y822921D01*
X860961Y822807D01*
X860913Y822697D01*
X860858Y822591D01*
X860795Y822488D01*
X860724Y822394D01*
X860634Y822299D01*
X860555Y822228D01*
X860461Y822154D01*
X860358Y822091D01*
X860252Y822035D01*
X860142Y821984D01*
X860024Y821945D01*
X859909Y821909D01*
X859787Y821886D01*
X859669Y821866D01*
X859547Y821858D01*
X859409Y821854D01*
X859307Y821858D01*
X859189Y821870D01*
X859071Y821886D01*
X858957Y821909D01*
X858843Y821937D01*
X858728Y821972D01*
X858618Y822008D01*
X858504Y822047D01*
X858394Y822091D01*
X858283Y822134D01*
X858169Y822177D01*
X858059Y822224D01*
Y822047D01*
X857646D01*
G37*
G36*
G01X847866Y993870D02*
Y979669D01*
X856913D01*
Y993870D01*
X854654Y996134D01*
X852390Y998394D01*
X850130Y996134D01*
X847866Y993870D01*
G37*
G36*
G01X846941Y979744D02*
Y993945D01*
X842366Y998520D01*
X837843Y993996D01*
Y979744D01*
X842390D01*
X846941D01*
G37*
G36*
G01X1001846Y827677D02*
X1016047D01*
Y836724D01*
X1001846D01*
X999583Y834465D01*
X997323Y832201D01*
X999583Y829941D01*
X1001846Y827677D01*
G37*
G36*
G01X1016087Y856988D02*
X1001886D01*
X997311Y852413D01*
X999575Y850154D01*
X1001835Y847890D01*
X1016087D01*
Y852441D01*
Y856988D01*
G37*
G36*
G01Y847146D02*
X1001886D01*
X997311Y842571D01*
X999575Y840311D01*
X1001835Y838047D01*
X1016087D01*
Y842598D01*
Y847146D01*
G37*
G36*
G01X1015693Y966831D02*
X1001492D01*
X996917Y962256D01*
X999181Y959996D01*
X1001441Y957732D01*
X1015693D01*
Y962283D01*
Y966831D01*
G37*
%LPC*%
G75*
G36*
G01X793614Y834760D02*
X794878Y834744D01*
X796142Y834732D01*
Y833976D01*
X795205Y833965D01*
X794268Y833949D01*
X794185Y833504D01*
X794118Y833122D01*
X794110Y833004D01*
G03X794138Y832984I23J3D01*
G03X794193Y833008I-14J109D01*
G01X794350Y833122D01*
X794528Y833201D01*
G02X794728Y833248I358J-1071D01*
G01X794961Y833264D01*
X795256Y833248D01*
G02X795496Y833189I-134J-1063D01*
G02X795709Y833079I-346J-928D01*
G02X795921Y832909I-978J-1447D01*
G02X796122Y832677I-990J-1059D01*
G02X796264Y832413I-1061J-740D01*
G02X796346Y832114I-1336J-530D01*
G02X796374Y831768I-2170J-347D01*
G02X796287Y831205I-1870J-1D01*
G02X796039Y830732I-1427J448D01*
G02X795638Y830374I-1189J929D01*
G01X795110Y830154D01*
X794925Y830110D01*
X794776Y830094D01*
G02X794626Y830098I-46J1104D01*
G01X794421Y830126D01*
X793886Y830272D01*
G02X793472Y830528I542J1338D01*
G01X793185Y830890D01*
G02X793028Y831350I1395J734D01*
G01X792996Y831539D01*
X793476D01*
X793752Y831535D01*
G02X793874Y831524I-12J-757D01*
G02X793933Y831496I-25J-130D01*
G02X793953Y831453I-39J-44D01*
G03X793980Y831331I285J0D01*
G01X794071Y831185D01*
X794185Y831047D01*
X794311Y830961D01*
X794484Y830898D01*
X794697Y830882D01*
G03X794902Y830906I-15J1031D01*
G01X795071Y830969D01*
X795217Y831094D01*
X795346Y831287D01*
X795433Y831512D01*
X795461Y831724D01*
G03X795339Y832197I-961J4D01*
G03X795004Y832512I-665J-371D01*
G01X794551Y832571D01*
G03X794114Y832366I162J-915D01*
G01X794016Y832299D01*
G02X793921Y832264I-169J306D01*
G01X793795Y832248D01*
X793563Y832244D01*
X793161D01*
X793280Y832909D01*
X793335Y833209D01*
X793394Y833555D01*
X793457Y833894D01*
X793504Y834165D01*
X793614Y834760D01*
G37*
G36*
G01X796476Y834807D02*
X797520D01*
X797843Y833787D01*
X797980Y833354D01*
X798130Y832894D01*
X798264Y832472D01*
X798358Y832177D01*
G03X798437Y831941I8073J2560D01*
G03X798504Y831768I2713J949D01*
G01X798559Y831650D01*
G03X798583I12J6D01*
G01X798602Y831701D01*
X798752Y832150D01*
X798917Y832665D01*
X799110Y833260D01*
X799602Y834807D01*
X800122D01*
X800319Y834803D01*
X800488Y834795D01*
X800626Y834783D01*
G02X800642Y834768I0J-16D01*
G01X800634Y834740D01*
X800417Y834075D01*
X800173Y833331D01*
G02X799882Y832457I-468750J155765D01*
G01X799122Y830177D01*
X798547Y830193D01*
X797969Y830209D01*
X797343Y832118D01*
X797094Y832878D01*
X796866Y833583D01*
X796677Y834173D01*
X796598Y834417D01*
X796476Y834807D01*
G37*
G36*
G01X812575Y803614D02*
X796098D01*
X800232Y810791D01*
X801248Y810201D01*
X801122Y810028D01*
X801094Y809980D01*
X801031Y809894D01*
X801000Y809846D01*
X800972Y809803D01*
X800941Y809756D01*
X800913Y809713D01*
X800882Y809669D01*
X800827Y809575D01*
X800799Y809531D01*
X800768Y809484D01*
X800740Y809437D01*
X800713Y809394D01*
X800630Y809252D01*
X800602Y809209D01*
X800547Y809114D01*
X800520Y809071D01*
X800488Y809024D01*
X800461Y808980D01*
X800433Y808933D01*
X800402Y808890D01*
X800370Y808843D01*
X800307Y808756D01*
X800272Y808713D01*
X800240Y808673D01*
X800217Y808626D01*
X800209Y808571D01*
Y808406D01*
X800213Y808354D01*
X800217Y808299D01*
X800220Y808248D01*
X800228Y808193D01*
X800236Y808142D01*
X800248Y808087D01*
X800256Y808035D01*
X800268Y807980D01*
X800280Y807929D01*
X800291Y807874D01*
X800303Y807823D01*
X800315Y807768D01*
X800323Y807717D01*
X800335Y807661D01*
X800358Y807559D01*
X800370Y807504D01*
X800386Y807453D01*
X800398Y807398D01*
X800421Y807295D01*
X800433Y807240D01*
X800457Y807138D01*
X800472Y807087D01*
X800484Y807031D01*
X800496Y806980D01*
X800512Y806929D01*
X800524Y806874D01*
X800535Y806823D01*
X800551Y806772D01*
X800563Y806720D01*
X800579Y806669D01*
X800591Y806614D01*
X800606Y806563D01*
X800618Y806512D01*
X800634Y806461D01*
X800646Y806409D01*
G03X800941Y805496I7569J1943D01*
G01X800961Y805425D01*
X800976Y805382D01*
X800996Y805339D01*
X801035Y805260D01*
X801055Y805224D01*
X801102Y805154D01*
X801122Y805118D01*
X801146Y805087D01*
X801165Y805051D01*
X801236Y804945D01*
X801260Y804906D01*
X801370Y804732D01*
X801402Y804689D01*
X801433Y804654D01*
X801469Y804630D01*
X801504Y804618D01*
G03X801941Y804630I22J7289D01*
G01X801996Y804642D01*
X802031Y804681D01*
X802055Y804732D01*
X802087Y804780D01*
X802114Y804823D01*
X802142Y804870D01*
X802173Y804913D01*
X802201Y804961D01*
X802248Y805055D01*
X802268Y805106D01*
X802315Y805260D01*
X802327Y805315D01*
X802335Y805370D01*
X802346Y805421D01*
X802350Y805476D01*
X802354Y805528D01*
X802362Y805638D01*
Y805744D01*
X802358Y805799D01*
X802354Y805850D01*
X802346Y805906D01*
X802343Y805961D01*
X802331Y806012D01*
X802323Y806067D01*
X802307Y806118D01*
X802295Y806173D01*
X802276Y806224D01*
X802228Y806319D01*
X802197Y806366D01*
X802161Y806406D01*
X802118Y806445D01*
X802075Y806480D01*
X802031Y806520D01*
X801992Y806555D01*
X801957Y806594D01*
X801929Y806638D01*
X801909Y806685D01*
X801898Y806736D01*
Y806902D01*
X801902Y806957D01*
Y807067D01*
X801906Y807118D01*
Y807441D01*
X801909Y807492D01*
Y807547D01*
X801913Y807598D01*
Y807815D01*
X801917Y807870D01*
Y807921D01*
X801913Y807976D01*
Y808142D01*
X801909Y808193D01*
X801898Y808358D01*
X801890Y808409D01*
X801886Y808465D01*
X801902Y808516D01*
X801933Y808559D01*
X801969Y808606D01*
X802031Y808701D01*
X802087Y808787D01*
X802118Y808835D01*
X802142Y808878D01*
X802173Y808925D01*
X802201Y808969D01*
X802232Y809012D01*
X802260Y809055D01*
X802295Y809098D01*
X802358Y809185D01*
X802394Y809228D01*
X802425Y809268D01*
X802461Y809311D01*
X802492Y809354D01*
X802528Y809398D01*
X802563Y809437D01*
X804504Y808307D01*
X804496Y808276D01*
X804488Y808264D01*
X804480Y808248D01*
X804469Y808232D01*
X804461Y808220D01*
X804441Y808189D01*
X804421Y808161D01*
X804402Y808138D01*
X804378Y808110D01*
X804339Y808063D01*
X804272Y807996D01*
X804224Y807953D01*
X804181Y807909D01*
X804087Y807827D01*
X804039Y807783D01*
X803996Y807740D01*
X803953Y807693D01*
X803906Y807650D01*
X803862Y807602D01*
X803819Y807559D01*
X803646Y807370D01*
X803559Y807272D01*
X803429Y807130D01*
X803390Y807079D01*
X803346Y807031D01*
X803307Y806980D01*
X803272Y806929D01*
X803252Y806906D01*
X803232Y806878D01*
X803217Y806850D01*
X803197Y806827D01*
X803134Y806717D01*
X803122Y806685D01*
X803106Y806657D01*
X803094Y806630D01*
X803071Y806567D01*
X803059Y806539D01*
X803047Y806508D01*
X803039Y806476D01*
X803031Y806449D01*
X803016Y806386D01*
X803004Y806291D01*
Y806260D01*
X803000Y806228D01*
Y806165D01*
X802996Y806035D01*
Y805972D01*
X802992Y805941D01*
Y805909D01*
X802984Y805846D01*
X802980Y805811D01*
X802976Y805780D01*
X802961Y805717D01*
X802949Y805654D01*
X802945Y805622D01*
X802937Y805591D01*
X802933Y805563D01*
X802925Y805500D01*
Y805240D01*
G03X803193Y804736I611J2D01*
G01X803201Y804720D01*
X803220Y804697D01*
X803236Y804673D01*
X803260Y804650D01*
X803307Y804610D01*
X803335Y804594D01*
X803362Y804583D01*
X803394Y804575D01*
X803421Y804571D01*
X803453Y804567D01*
X803484D01*
X803512Y804571D01*
X803575Y804587D01*
X803602Y804594D01*
X803630Y804606D01*
X803657Y804622D01*
X803685Y804634D01*
X803713Y804650D01*
X803760Y804685D01*
X803807Y804724D01*
X803850Y804768D01*
X803929Y804854D01*
X804087Y805039D01*
X804126Y805087D01*
X804161Y805134D01*
X804224Y805236D01*
X804252Y805291D01*
G03X804654Y805783I-101895J83556D01*
G01X804665Y805799D01*
X804713Y805854D01*
X804732Y805882D01*
X804756Y805909D01*
X804776Y805937D01*
X804799Y805961D01*
X804898Y806079D01*
X804972Y806169D01*
X805012Y806217D01*
X805051Y806260D01*
X805130Y806354D01*
X805173Y806402D01*
X805213Y806449D01*
X805472Y806732D01*
X805744Y807016D01*
X806016Y807287D01*
X806110Y807374D01*
X812575Y803614D01*
G37*
G36*
G01X813346Y805047D02*
X807484Y808433D01*
X809917Y810976D01*
X813346Y805047D01*
G37*
G36*
G01X802091Y811551D02*
X801028Y812169D01*
X805118Y819272D01*
Y819268D01*
X808307Y813764D01*
X808114Y813669D01*
X807591Y813413D01*
X806736Y813087D01*
X805953Y812898D01*
X805150Y812764D01*
X803823Y812563D01*
X803354Y812461D01*
X803154Y812417D01*
X802882Y812311D01*
X802654Y812177D01*
X802626Y812165D01*
X802602Y812150D01*
X802575Y812134D01*
X802551Y812118D01*
X802528Y812098D01*
X802504Y812083D01*
X802457Y812043D01*
X802437Y812024D01*
X802417Y812000D01*
X802398Y811980D01*
X802358Y811933D01*
X802339Y811913D01*
X802299Y811866D01*
X802283Y811843D01*
X802244Y811795D01*
X802228Y811772D01*
X802209Y811748D01*
X802193Y811724D01*
X802173Y811701D01*
X802157Y811673D01*
X802142Y811650D01*
X802130Y811622D01*
X802114Y811598D01*
X802102Y811571D01*
X802091Y811551D01*
G37*
G36*
G01X802976Y848488D02*
X789783D01*
Y856079D01*
X802980D01*
X804854Y854209D01*
G02X805571Y853488I-139819J-139771D01*
G01X806173Y852870D01*
X806713Y852319D01*
G02X806724Y852283I-39J-33D01*
G01X806713Y852248D01*
X806173Y851697D01*
G02X805571Y851083I-73556J71539D01*
G01X802976Y848488D01*
G37*
G36*
G01Y838646D02*
X789783D01*
Y846236D01*
X802980D01*
X804854Y844366D01*
G02X805571Y843646I-139819J-139771D01*
G01X806173Y843028D01*
X806713Y842476D01*
G02X806724Y842441I-39J-33D01*
G01X806713Y842406D01*
X806173Y841854D01*
G02X805571Y841240I-73556J71539D01*
G01X802976Y838646D01*
G37*
G36*
G01X832063Y956630D02*
X845256D01*
Y949039D01*
X832059D01*
X830185Y950909D01*
G02X829469Y951630I139819J139771D01*
G01X828866Y952248D01*
X828327Y952799D01*
G02X828315Y952835I39J33D01*
G01X828327Y952870D01*
X828866Y953421D01*
G02X829469Y954035I73556J-71539D01*
G01X832063Y956630D01*
G37*
G36*
G01X834559Y964681D02*
X835823Y964665D01*
X837087Y964654D01*
Y963898D01*
X836150Y963886D01*
X835213Y963870D01*
X835130Y963425D01*
X835063Y963043D01*
X835055Y962925D01*
G03X835083Y962906I23J3D01*
G03X835138Y962929I-14J109D01*
G01X835295Y963043D01*
X835472Y963122D01*
G02X835673Y963169I358J-1071D01*
G01X835906Y963185D01*
X836201Y963169D01*
G02X836441Y963110I-134J-1063D01*
G02X836654Y963000I-346J-928D01*
G02X836866Y962831I-978J-1447D01*
G02X837067Y962598I-990J-1059D01*
G02X837209Y962335I-1061J-740D01*
G02X837291Y962035I-1336J-530D01*
G02X837319Y961689I-2170J-347D01*
G02X837232Y961126I-1870J-1D01*
G02X836984Y960654I-1427J448D01*
G02X836583Y960295I-1189J929D01*
G01X836055Y960075D01*
X835870Y960031D01*
X835720Y960016D01*
G02X835571Y960020I-46J1104D01*
G01X835366Y960047D01*
X834831Y960193D01*
G02X834417Y960449I542J1338D01*
G01X834130Y960811D01*
G02X833972Y961272I1395J734D01*
G01X833941Y961461D01*
X834421D01*
X834697Y961457D01*
G02X834819Y961445I-12J-757D01*
G02X834878Y961417I-25J-130D01*
G02X834898Y961374I-39J-44D01*
G03X834925Y961252I285J0D01*
G01X835016Y961106D01*
X835130Y960969D01*
X835256Y960882D01*
X835429Y960819D01*
X835642Y960803D01*
G03X835846Y960827I-15J1031D01*
G01X836016Y960890D01*
X836161Y961016D01*
X836291Y961209D01*
X836378Y961433D01*
X836406Y961646D01*
G03X836283Y962118I-961J4D01*
G03X835949Y962433I-665J-371D01*
G01X835496Y962492D01*
G03X835059Y962287I162J-915D01*
G01X834961Y962220D01*
G02X834866Y962185I-169J306D01*
G01X834740Y962169D01*
X834508Y962165D01*
X834106D01*
X834224Y962831D01*
X834280Y963130D01*
X834339Y963476D01*
X834402Y963815D01*
X834449Y964087D01*
X834559Y964681D01*
G37*
G36*
G01X837421Y964728D02*
X838465D01*
X838787Y963709D01*
X838925Y963276D01*
X839075Y962815D01*
X839209Y962394D01*
X839303Y962098D01*
G03X839382Y961862I8073J2560D01*
G03X839449Y961689I2713J949D01*
G01X839504Y961571D01*
G03X839528I12J6D01*
G01X839547Y961622D01*
X839697Y962071D01*
X839862Y962587D01*
X840055Y963181D01*
X840547Y964728D01*
X841067D01*
X841264Y964724D01*
X841433Y964717D01*
X841571Y964705D01*
G02X841587Y964689I0J-16D01*
G01X841579Y964661D01*
X841362Y963996D01*
X841118Y963252D01*
G02X840827Y962378I-468750J155765D01*
G01X840067Y960098D01*
X839492Y960114D01*
X838913Y960130D01*
X838287Y962039D01*
X838039Y962799D01*
X837811Y963504D01*
X837622Y964094D01*
X837543Y964339D01*
X837421Y964728D01*
G37*
G36*
G01X793791Y964925D02*
X794146Y964909D01*
X794504Y964866D01*
X794736Y964795D01*
X794957Y964673D01*
X795161Y964516D01*
G02X795331Y964335I-1035J-1137D01*
G02X795441Y964154I-682J-540D01*
G01X795535Y963791D01*
X795500Y963402D01*
G02X795350Y963063I-1065J268D01*
G02X795110Y962839I-586J386D01*
G01X794921Y962732D01*
X795102Y962673D01*
G02X795386Y962496I-222J-670D01*
G01X795598Y962185D01*
X795709Y961799D01*
G02X795689Y961406I-1210J-137D01*
G02X795622Y961177I-1579J339D01*
G01X795528Y960980D01*
X795390Y960803D01*
X795205Y960614D01*
X794665Y960315D01*
X794000Y960217D01*
G02X793335Y960335I34J2126D01*
G02X792803Y960654I489J1417D01*
G02X792654Y960831I673J720D01*
G01X792524Y961063D01*
X792429Y961323D01*
G02X792382Y961575I1315J377D01*
G01X792354Y961866D01*
X793213D01*
X793248Y961681D01*
X793390Y961307D01*
X793646Y961063D01*
X793976Y960972D01*
G03X794346Y961051I-3J921D01*
G01X794520Y961161D01*
G03X794646Y961303I-359J446D01*
G03X794720Y961484I-516J319D01*
G01X794748Y961705D01*
X794705Y961976D01*
X794587Y962165D01*
X794366Y962283D01*
G03X794028Y962350I-542J-1850D01*
G01X793724Y962382D01*
Y963024D01*
X793953D01*
G03X794173Y963043I2J1225D01*
G01X794362Y963102D01*
X794508Y963201D01*
G03X794606Y963327I-301J336D01*
G03X794665Y963614I-476J248D01*
G03X794567Y963898I-578J-42D01*
G01X794335Y964106D01*
X794028Y964177D01*
X793803Y964142D01*
X793610Y964028D01*
G03X793461Y963850I442J-525D01*
G03X793366Y963618I781J-453D01*
G01X793303Y963374D01*
X792457D01*
X792488Y963606D01*
G02X792606Y964031I1617J-220D01*
G02X792835Y964402I1362J-585D01*
G02X793165Y964693I1156J-979D01*
G02X793575Y964890I967J-1487D01*
G02X793791Y964925I218J-653D01*
G37*
G36*
G01X795795Y964933D02*
X796839D01*
X797146Y963965D01*
X797280Y963547D01*
X797425Y963094D01*
X797559Y962669D01*
X797657Y962354D01*
X797740Y962110D01*
X797815Y961917D01*
G03X797878Y961768I4970J2005D01*
G03X797898Y961764I11J3D01*
G03X797917Y961807I-177J107D01*
G01X798067Y962260D01*
X798236Y962776D01*
G03X798429Y963374I-173712J56330D01*
G01X798925Y964933D01*
X799441D01*
X799642Y964929D01*
X799807Y964921D01*
X799945Y964909D01*
G02X799961Y964894I0J-15D01*
G01X799953Y964866D01*
X799736Y964201D01*
X799492Y963457D01*
G02X799201Y962583I-468750J155764D01*
G01X798441Y960303D01*
X797283Y960335D01*
X796760Y961941D01*
X796327Y963280D01*
X796138Y963870D01*
X796020Y964240D01*
X795795Y964933D01*
G37*
G36*
G01X801831Y964913D02*
G02X802169Y964874I-161J-2858D01*
G01X802425Y964799D01*
X802772Y964594D01*
G02X803024Y964335I-694J-925D01*
G02X803173Y964024I-854J-602D01*
G02X803224Y963665I-1215J-356D01*
G01X803201Y963394D01*
G02X803122Y963165I-877J175D01*
G01X802992Y962984D01*
X802811Y962846D01*
X802626Y962740D01*
X802795Y962677D01*
X802874Y962642D01*
X802969Y962579D01*
X803063Y962500D01*
X803146Y962421D01*
G02X803398Y961898I-773J-695D01*
G02X803354Y961280I-1285J-221D01*
G02X803020Y960717I-1411J458D01*
G02X802476Y960350I-1096J1040D01*
G02X802122Y960256I-579J1460D01*
G02X801701Y960228I-392J2756D01*
G02X801287Y960264I23J2702D01*
G01X800965Y960362D01*
X800846Y960421D01*
X800720Y960496D01*
X800610Y960567D01*
X800528Y960630D01*
G02X800374Y960799I543J647D01*
G01X800232Y961043D01*
X800130Y961319D01*
X800075Y961583D01*
X800047Y961866D01*
X800906D01*
X800965Y961610D01*
G03X801110Y961283I948J227D01*
G01X801358Y961063D01*
X801669Y960976D01*
X802008Y961039D01*
G03X802240Y961189I-266J668D01*
G01X802398Y961413D01*
G03X802457Y961685I-655J285D01*
G03X802409Y961965I-792J10D01*
G03X802323Y962114I-443J-157D01*
G03X802185Y962228I-402J-345D01*
G03X801988Y962307I-386J-680D01*
G01X801728Y962350D01*
X801417Y962382D01*
Y963024D01*
X801646D01*
X801945Y963059D01*
G03X802173Y963169I-165J634D01*
G03X802319Y963343I-291J393D01*
G01X802370Y963567D01*
X802283Y963878D01*
G03X802035Y964102I-535J-342D01*
G03X801705Y964177I-309J-597D01*
G03X801378Y964079I24J-672D01*
G03X801268Y963988I279J-452D01*
G03X801169Y963858I545J-515D01*
G03X801094Y963701I801J-477D01*
G01X801043Y963512D01*
G02X801012Y963429I-279J59D01*
G01X800961Y963394D01*
X800866Y963378D01*
X800583Y963374D01*
X800150D01*
X800185Y963606D01*
X800303Y964039D01*
X800524Y964398D01*
G02X800835Y964673I1064J-888D01*
G02X801232Y964862I928J-1439D01*
G01X801831Y964913D01*
G37*
G36*
G01X836551Y993528D02*
Y980335D01*
X828961D01*
Y993531D01*
X830831Y995406D01*
G02X831551Y996122I139771J-139819D01*
G01X832169Y996724D01*
X832720Y997264D01*
G02X832756Y997276I33J-39D01*
G01X832791Y997264D01*
X833343Y996724D01*
G02X833957Y996122I-71539J-73556D01*
G01X836551Y993528D01*
G37*
G36*
G01X850047Y991594D02*
G02X850087Y991933I2858J-161D01*
G01X850161Y992189D01*
X850366Y992535D01*
G02X850626Y992787I925J-694D01*
G02X850937Y992937I602J-854D01*
G02X851295Y992988I356J-1215D01*
G01X851567Y992965D01*
G02X851795Y992886I-175J-877D01*
G01X851976Y992756D01*
X852114Y992575D01*
X852220Y992390D01*
X852283Y992559D01*
X852319Y992638D01*
X852382Y992732D01*
X852461Y992827D01*
X852539Y992909D01*
G02X853063Y993161I695J-773D01*
G02X853681Y993118I221J-1285D01*
G02X854244Y992783I-458J-1411D01*
G02X854610Y992240I-1040J-1096D01*
G02X854705Y991886I-1460J-579D01*
G02X854732Y991465I-2756J-392D01*
G02X854697Y991051I-2702J23D01*
G01X854598Y990728D01*
X854539Y990610D01*
X854465Y990484D01*
X854394Y990374D01*
X854331Y990291D01*
G02X854161Y990138I-647J543D01*
G01X853917Y989996D01*
X853642Y989894D01*
X853378Y989839D01*
X853094Y989811D01*
Y990669D01*
X853350Y990728D01*
G03X853677Y990874I-227J948D01*
G01X853898Y991122D01*
X853984Y991433D01*
X853921Y991772D01*
G03X853772Y992004I-668J-266D01*
G01X853547Y992161D01*
G03X853276Y992220I-285J-655D01*
G03X852996Y992173I-10J-792D01*
G03X852846Y992087I157J-443D01*
G03X852732Y991949I345J-402D01*
G03X852654Y991752I680J-386D01*
G01X852610Y991492D01*
X852579Y991181D01*
X851937D01*
Y991409D01*
X851902Y991709D01*
G03X851791Y991937I-634J-165D01*
G03X851618Y992083I-393J-291D01*
G01X851394Y992134D01*
X851083Y992047D01*
G03X850858Y991799I342J-535D01*
G03X850783Y991469I597J-309D01*
G03X850882Y991142I672J24D01*
G03X850972Y991031I452J279D01*
G03X851102Y990933I515J545D01*
G03X851260Y990858I477J801D01*
G01X851449Y990807D01*
G02X851531Y990776I-59J-279D01*
G01X851567Y990724D01*
X851583Y990630D01*
X851587Y990346D01*
Y989913D01*
X851354Y989949D01*
X850921Y990067D01*
X850563Y990287D01*
G02X850287Y990598I888J1064D01*
G02X850098Y990996I1439J928D01*
G01X850047Y991594D01*
G37*
G36*
G01X850028Y985559D02*
Y986602D01*
X850996Y986909D01*
X851413Y987043D01*
X851866Y987189D01*
X852291Y987323D01*
X852606Y987421D01*
X852850Y987504D01*
X853043Y987579D01*
G03X853193Y987642I-2005J4970D01*
G03X853197Y987661I-3J11D01*
G03X853154Y987681I-107J-177D01*
G01X852701Y987831D01*
X852185Y988000D01*
G03X851587Y988193I-56330J-173712D01*
G01X850028Y988689D01*
Y989205D01*
X850031Y989406D01*
X850039Y989571D01*
X850051Y989709D01*
G02X850067Y989724I15J0D01*
G01X850094Y989717D01*
X850760Y989500D01*
X851504Y989256D01*
G02X852378Y988965I-155764J-468750D01*
G01X854657Y988205D01*
X854626Y987047D01*
X853020Y986524D01*
X851681Y986091D01*
X851091Y985902D01*
X850720Y985783D01*
X850028Y985559D01*
G37*
G36*
G01X850035Y983555D02*
X850051Y983909D01*
X850094Y984268D01*
X850165Y984500D01*
X850287Y984720D01*
X850445Y984925D01*
G02X850626Y985094I1137J-1035D01*
G02X850807Y985205I540J-682D01*
G01X851169Y985299D01*
X851559Y985264D01*
G02X851898Y985114I-268J-1065D01*
G02X852122Y984874I-386J-586D01*
G01X852228Y984685D01*
X852287Y984866D01*
G02X852465Y985150I670J-222D01*
G01X852776Y985362D01*
X853161Y985472D01*
G02X853555Y985453I137J-1210D01*
G02X853783Y985386I-339J-1579D01*
G01X853980Y985291D01*
X854157Y985154D01*
X854346Y984969D01*
X854646Y984429D01*
X854744Y983764D01*
G02X854626Y983098I-2126J34D01*
G02X854307Y982567I-1417J489D01*
G02X854130Y982417I-720J673D01*
G01X853898Y982287D01*
X853638Y982193D01*
G02X853386Y982146I-377J1315D01*
G01X853094Y982118D01*
Y982976D01*
X853280Y983012D01*
X853654Y983154D01*
X853898Y983409D01*
X853988Y983740D01*
G03X853909Y984110I-921J-3D01*
G01X853799Y984283D01*
G03X853657Y984409I-446J-359D01*
G03X853476Y984484I-319J-516D01*
G01X853256Y984512D01*
X852984Y984469D01*
X852795Y984350D01*
X852677Y984130D01*
G03X852610Y983791I1850J-542D01*
G01X852579Y983488D01*
X851937D01*
Y983717D01*
G03X851917Y983937I-1225J2D01*
G01X851858Y984126D01*
X851760Y984272D01*
G03X851634Y984370I-336J-301D01*
G03X851346Y984429I-248J-476D01*
G03X851063Y984331I42J-578D01*
G01X850854Y984098D01*
X850783Y983791D01*
X850819Y983567D01*
X850933Y983374D01*
G03X851110Y983224I525J442D01*
G03X851343Y983130I453J781D01*
G01X851587Y983067D01*
Y982220D01*
X851354Y982252D01*
G02X850929Y982370I220J1617D01*
G02X850559Y982598I585J1362D01*
G02X850268Y982929I979J1156D01*
G02X850071Y983339I1487J967D01*
G02X850035Y983555I653J218D01*
G37*
G36*
G01X839996Y987028D02*
Y988071D01*
X841016Y988394D01*
X841449Y988531D01*
X841909Y988681D01*
X842331Y988815D01*
X842626Y988909D01*
G03X842862Y988988I-2560J8073D01*
G03X843035Y989055I-949J2713D01*
G01X843154Y989110D01*
G03Y989134I-6J12D01*
G01X843102Y989154D01*
X842654Y989303D01*
X842138Y989469D01*
X841543Y989661D01*
X839996Y990154D01*
Y990673D01*
X840000Y990870D01*
X840008Y991039D01*
X840020Y991177D01*
G02X840035Y991193I16J0D01*
G01X840063Y991185D01*
X840728Y990969D01*
X841472Y990724D01*
G02X842346Y990433I-155765J-468750D01*
G01X844626Y989673D01*
X844610Y989098D01*
X844594Y988520D01*
X842685Y987894D01*
X841925Y987646D01*
X841220Y987417D01*
X840630Y987228D01*
X840386Y987150D01*
X839996Y987028D01*
G37*
G36*
G01X840043Y984165D02*
X840059Y985429D01*
X840071Y986693D01*
X840827D01*
X840839Y985756D01*
X840854Y984819D01*
X841299Y984736D01*
X841681Y984669D01*
X841799Y984661D01*
G03X841819Y984689I-3J23D01*
G03X841795Y984744I-109J-14D01*
G01X841681Y984902D01*
X841602Y985079D01*
G02X841555Y985280I1071J358D01*
G01X841539Y985512D01*
X841555Y985807D01*
G02X841614Y986047I1063J-134D01*
G02X841724Y986260I928J-346D01*
G02X841894Y986472I1447J-978D01*
G02X842126Y986673I1059J-990D01*
G02X842390Y986815I740J-1061D01*
G02X842689Y986898I530J-1336D01*
G02X843035Y986925I347J-2170D01*
G02X843598Y986839I1J-1870D01*
G02X844071Y986591I-448J-1427D01*
G02X844429Y986189I-929J-1189D01*
G01X844650Y985661D01*
X844693Y985476D01*
X844709Y985327D01*
G02X844705Y985177I-1104J-46D01*
G01X844677Y984972D01*
X844531Y984437D01*
G02X844276Y984024I-1338J542D01*
G01X843913Y983736D01*
G02X843453Y983579I-734J1395D01*
G01X843264Y983547D01*
Y984028D01*
X843268Y984303D01*
G02X843280Y984425I757J-12D01*
G02X843307Y984484I130J-25D01*
G02X843350Y984504I44J-39D01*
G03X843472Y984531I0J285D01*
G01X843618Y984622D01*
X843756Y984736D01*
X843843Y984862D01*
X843906Y985035D01*
X843921Y985248D01*
G03X843898Y985453I-1031J-15D01*
G01X843835Y985622D01*
X843709Y985768D01*
X843516Y985898D01*
X843291Y985984D01*
X843079Y986012D01*
G03X842606Y985890I-4J-961D01*
G03X842291Y985555I371J-665D01*
G01X842232Y985102D01*
G03X842437Y984665I915J162D01*
G01X842504Y984567D01*
G02X842539Y984472I-306J-169D01*
G01X842555Y984346D01*
X842559Y984114D01*
Y983713D01*
X841894Y983831D01*
X841594Y983886D01*
X841248Y983945D01*
X840909Y984008D01*
X840638Y984055D01*
X840043Y984165D01*
G37*
G36*
G01X1005319Y834130D02*
X1005673Y834114D01*
X1006031Y834071D01*
X1006264Y834000D01*
X1006484Y833878D01*
X1006689Y833720D01*
G02X1006858Y833539I-1035J-1137D01*
G02X1006969Y833358I-682J-540D01*
G01X1007063Y832996D01*
X1007028Y832606D01*
G02X1006878Y832268I-1065J268D01*
G02X1006638Y832043I-586J386D01*
G01X1006449Y831937D01*
X1006630Y831878D01*
G02X1006913Y831701I-222J-670D01*
G01X1007126Y831390D01*
X1007236Y831004D01*
G02X1007217Y830610I-1210J-137D01*
G02X1007150Y830382I-1579J339D01*
G01X1007055Y830185D01*
X1006917Y830008D01*
X1006732Y829819D01*
X1006193Y829520D01*
X1005528Y829421D01*
G02X1004862Y829539I34J2126D01*
G02X1004331Y829858I489J1417D01*
G02X1004181Y830035I673J720D01*
G01X1004051Y830268D01*
X1003957Y830528D01*
G02X1003909Y830780I1315J377D01*
G01X1003882Y831071D01*
X1004740D01*
X1004776Y830886D01*
X1004917Y830512D01*
X1005173Y830268D01*
X1005504Y830177D01*
G03X1005874Y830256I-3J921D01*
G01X1006047Y830366D01*
G03X1006173Y830508I-359J446D01*
G03X1006248Y830689I-516J319D01*
G01X1006276Y830909D01*
X1006232Y831181D01*
X1006114Y831370D01*
X1005894Y831488D01*
G03X1005555Y831555I-542J-1850D01*
G01X1005252Y831587D01*
Y832228D01*
X1005480D01*
G03X1005701Y832248I2J1225D01*
G01X1005890Y832307D01*
X1006035Y832406D01*
G03X1006134Y832531I-301J336D01*
G03X1006193Y832819I-476J248D01*
G03X1006094Y833102I-578J-42D01*
G01X1005862Y833311D01*
X1005555Y833382D01*
X1005331Y833346D01*
X1005138Y833232D01*
G03X1004988Y833055I442J-525D01*
G03X1004894Y832823I781J-453D01*
G01X1004831Y832579D01*
X1003984D01*
X1004016Y832811D01*
G02X1004134Y833236I1617J-220D01*
G02X1004362Y833606I1362J-585D01*
G02X1004693Y833898I1156J-979D01*
G02X1005102Y834094I967J-1487D01*
G02X1005319Y834130I218J-653D01*
G37*
G36*
G01X1007323Y834138D02*
X1008366D01*
X1008673Y833169D01*
X1008807Y832752D01*
X1008953Y832299D01*
X1009087Y831874D01*
X1009185Y831559D01*
X1009268Y831315D01*
X1009343Y831122D01*
G03X1009406Y830972I4970J2005D01*
G03X1009425Y830969I11J3D01*
G03X1009445Y831012I-177J107D01*
G01X1009594Y831465D01*
X1009764Y831980D01*
G03X1009957Y832579I-173712J56330D01*
G01X1010453Y834138D01*
X1010969D01*
X1011169Y834134D01*
X1011335Y834126D01*
X1011472Y834114D01*
G02X1011488Y834098I0J-15D01*
G01X1011480Y834071D01*
X1011264Y833406D01*
X1011020Y832661D01*
G02X1010728Y831787I-468750J155764D01*
G01X1009969Y829508D01*
X1008811Y829539D01*
X1008287Y831146D01*
X1007854Y832484D01*
X1007665Y833075D01*
X1007547Y833445D01*
X1007323Y834138D01*
G37*
G36*
G01X1013358Y834118D02*
G02X1013697Y834079I-161J-2858D01*
G01X1013953Y834004D01*
X1014299Y833799D01*
G02X1014551Y833539I-694J-925D01*
G02X1014701Y833228I-854J-602D01*
G02X1014752Y832870I-1215J-356D01*
G01X1014728Y832598D01*
G02X1014650Y832370I-877J175D01*
G01X1014520Y832189D01*
X1014339Y832051D01*
X1014154Y831945D01*
X1014323Y831882D01*
X1014402Y831846D01*
X1014496Y831783D01*
X1014591Y831705D01*
X1014673Y831626D01*
G02X1014925Y831102I-773J-695D01*
G02X1014882Y830484I-1285J-221D01*
G02X1014547Y829921I-1411J458D01*
G02X1014004Y829555I-1096J1040D01*
G02X1013650Y829461I-579J1460D01*
G02X1013228Y829433I-392J2756D01*
G02X1012815Y829469I23J2702D01*
G01X1012492Y829567D01*
X1012374Y829626D01*
X1012248Y829701D01*
X1012138Y829772D01*
X1012055Y829835D01*
G02X1011902Y830004I543J647D01*
G01X1011760Y830248D01*
X1011657Y830524D01*
X1011602Y830787D01*
X1011575Y831071D01*
X1012433D01*
X1012492Y830815D01*
G03X1012638Y830488I948J227D01*
G01X1012886Y830268D01*
X1013197Y830181D01*
X1013535Y830244D01*
G03X1013768Y830394I-266J668D01*
G01X1013925Y830618D01*
G03X1013984Y830890I-655J285D01*
G03X1013937Y831169I-792J10D01*
G03X1013850Y831319I-443J-157D01*
G03X1013713Y831433I-402J-345D01*
G03X1013516Y831512I-386J-680D01*
G01X1013256Y831555D01*
X1012945Y831587D01*
Y832228D01*
X1013173D01*
X1013472Y832264D01*
G03X1013701Y832374I-165J634D01*
G03X1013846Y832547I-291J393D01*
G01X1013898Y832772D01*
X1013811Y833083D01*
G03X1013563Y833307I-535J-342D01*
G03X1013232Y833382I-309J-597D01*
G03X1012906Y833283I24J-672D01*
G03X1012795Y833193I279J-452D01*
G03X1012697Y833063I545J-515D01*
G03X1012622Y832906I801J-477D01*
G01X1012571Y832717D01*
G02X1012539Y832634I-279J59D01*
G01X1012488Y832598D01*
X1012394Y832583D01*
X1012110Y832579D01*
X1011677D01*
X1011713Y832811D01*
X1011831Y833244D01*
X1012051Y833602D01*
G02X1012362Y833878I1064J-888D01*
G02X1012760Y834067I928J-1439D01*
G01X1013358Y834118D01*
G37*
G36*
G01X1002142Y856236D02*
X1015335D01*
Y848646D01*
X1002138D01*
X1000264Y850516D01*
G02X999547Y851236I139819J139771D01*
G01X998945Y851854D01*
X998406Y852406D01*
G02X998394Y852441I39J33D01*
G01X998406Y852476D01*
X998945Y853028D01*
G02X999547Y853642I73556J-71539D01*
G01X1002142Y856236D01*
G37*
G36*
G01Y846394D02*
X1015335D01*
Y838803D01*
X1002138D01*
X1000264Y840673D01*
G02X999547Y841394I139819J139771D01*
G01X998945Y842012D01*
X998406Y842563D01*
G02X998394Y842598I39J33D01*
G01X998406Y842634D01*
X998945Y843185D01*
G02X999547Y843799I73556J-71539D01*
G01X1002142Y846394D01*
G37*
G36*
G01X1001748Y966079D02*
X1014941D01*
Y958488D01*
X1001744D01*
X999870Y960358D01*
G02X999154Y961079I139819J139771D01*
G01X998551Y961697D01*
X998012Y962248D01*
G02X998000Y962283I39J33D01*
G01X998012Y962319D01*
X998551Y962870D01*
G02X999154Y963484I73556J-71539D01*
G01X1001748Y966079D01*
G37*
%LPD*%
G75*
G36*
G01X802252Y854535D02*
X801949Y854551D01*
X801146Y854567D01*
X799929Y854583D01*
Y850244D01*
X801122Y850260D01*
X801906Y850276D01*
X802205Y850295D01*
X802406Y850339D01*
X802630Y850421D01*
G03X803035Y850681I-741J1602D01*
G01X803354Y851043D01*
X803583Y851500D01*
X803709Y852039D01*
X803720Y852811D01*
X803535Y853492D01*
X803177Y854039D01*
G03X802669Y854409I-1216J-1135D01*
G01X802252Y854535D01*
G37*
G36*
G01X796425Y854551D02*
X795941Y854563D01*
X795453Y854579D01*
Y850252D01*
X796358D01*
X796370Y851685D01*
X796386Y853114D01*
X797264Y851685D01*
X798142Y850252D01*
X798622Y850264D01*
X799098Y850280D01*
X799110Y852425D01*
X799126Y854575D01*
X798220D01*
X798209Y853130D01*
X798193Y851689D01*
X797311Y853118D01*
X796425Y854551D01*
G37*
G36*
G01X792811Y854673D02*
X792445Y854661D01*
G03X792150Y854602I124J-1390D01*
G03X791791Y854445I523J-1675D01*
G01X791445Y854197D01*
G03X791150Y853894I1524J-1780D01*
G01X790937Y853563D01*
G03X790843Y853323I1539J-744D01*
G01X790760Y853004D01*
X790701Y852681D01*
G03X790681Y852413I1817J-268D01*
G03X790760Y851791I2498J0D01*
G03X790988Y851213I2420J621D01*
G01X791343Y850728D01*
G03X791783Y850402I1180J1132D01*
G01X792335Y850205D01*
X792878Y850165D01*
X793378Y850283D01*
G03X793815Y850555I-611J1470D01*
G01X793988Y850709D01*
X794031Y850492D01*
X794075Y850280D01*
X794386Y850264D01*
X794701Y850248D01*
Y852614D01*
X792890D01*
Y851909D01*
X793508D01*
X793657Y851902D01*
X793783Y851894D01*
G02X793807Y851882I-6J-41D01*
G02X793827Y851803I-55J-56D01*
G01X793760Y851598D01*
X793661Y851390D01*
G02X793563Y851252I-545J285D01*
G02X793299Y851067I-600J574D01*
G02X792961Y850972I-491J1106D01*
G01X792594Y850980D01*
G02X792256Y851091I176J1116D01*
G01X792071Y851224D01*
X791902Y851433D01*
X791764Y851685D01*
G02X791681Y851949I1286J548D01*
G02X791638Y852390I2011J420D01*
G02X791685Y852850I2511J-25D01*
G01X791811Y853264D01*
G02X792000Y853563I929J-378D01*
G02X792236Y853736I565J-523D01*
G01X792563Y853846D01*
X792909Y853870D01*
G02X793209Y853803I-42J-891D01*
G02X793350Y853720I-231J-558D01*
G01X793496Y853583D01*
G02X793614Y853429I-880J-799D01*
G02X793673Y853291I-394J-250D01*
G03X793709Y853220I182J47D01*
G03X793764Y853185I79J62D01*
G01X793870Y853169D01*
X794154D01*
G03X794488Y853177I-7J7399D01*
G03X794579Y853220I-6J128D01*
G03X794602Y853315I-79J70D01*
G01X794516Y853598D01*
G03X794366Y853886I-1010J-343D01*
G03X794114Y854173I-1710J-1245D01*
G01X793807Y854413D01*
X793496Y854567D01*
G03X792811Y854673I-839J-3149D01*
G37*
G36*
G01Y844831D02*
X792445Y844819D01*
G03X792150Y844760I124J-1390D01*
G03X791791Y844602I523J-1675D01*
G01X791445Y844354D01*
G03X791150Y844051I1524J-1780D01*
G01X790937Y843720D01*
G03X790843Y843480I1539J-744D01*
G01X790760Y843161D01*
X790701Y842839D01*
G03X790681Y842571I1817J-268D01*
G03X790760Y841949I2498J0D01*
G03X790988Y841370I2420J621D01*
G01X791343Y840886D01*
G03X791783Y840559I1180J1132D01*
G01X792335Y840362D01*
X792878Y840323D01*
X793378Y840441D01*
G03X793815Y840713I-611J1470D01*
G01X793988Y840866D01*
X794031Y840650D01*
X794075Y840437D01*
X794386Y840421D01*
X794701Y840406D01*
Y842772D01*
X792890D01*
Y842067D01*
X793508D01*
X793657Y842059D01*
X793783Y842051D01*
G02X793807Y842039I-6J-41D01*
G02X793827Y841961I-55J-56D01*
G01X793760Y841756D01*
X793661Y841547D01*
G02X793563Y841409I-545J285D01*
G02X793299Y841224I-600J574D01*
G02X792961Y841130I-491J1106D01*
G01X792594Y841138D01*
G02X792256Y841248I176J1116D01*
G01X792071Y841382D01*
X791902Y841591D01*
X791764Y841843D01*
G02X791681Y842106I1286J548D01*
G02X791638Y842547I2011J420D01*
G02X791685Y843008I2511J-25D01*
G01X791811Y843421D01*
G02X792000Y843720I929J-378D01*
G02X792236Y843894I565J-523D01*
G01X792563Y844004D01*
X792909Y844028D01*
G02X793209Y843961I-42J-891D01*
G02X793350Y843878I-231J-558D01*
G01X793496Y843740D01*
G02X793614Y843587I-880J-799D01*
G02X793673Y843449I-394J-250D01*
G03X793709Y843378I182J47D01*
G03X793764Y843343I79J62D01*
G01X793870Y843327D01*
X794154D01*
G03X794488Y843335I-7J7399D01*
G03X794579Y843378I-6J128D01*
G03X794602Y843472I-79J70D01*
G01X794516Y843756D01*
G03X794366Y844043I-1010J-343D01*
G03X794114Y844331I-1710J-1245D01*
G01X793807Y844571D01*
X793496Y844724D01*
G03X792811Y844831I-839J-3149D01*
G37*
G36*
G01X796425Y844709D02*
X795941Y844720D01*
X795453Y844736D01*
Y840409D01*
X796358D01*
X796370Y841843D01*
X796386Y843272D01*
X797264Y841843D01*
X798142Y840409D01*
X798622Y840421D01*
X799098Y840437D01*
X799110Y842583D01*
X799126Y844732D01*
X798220D01*
X798209Y843287D01*
X798193Y841846D01*
X797311Y843276D01*
X796425Y844709D01*
G37*
G36*
G01X802252Y844693D02*
X801949Y844709D01*
X801146Y844724D01*
X799929Y844740D01*
Y840402D01*
X801122Y840417D01*
X801906Y840433D01*
X802205Y840453D01*
X802406Y840496D01*
X802630Y840579D01*
G03X803035Y840839I-741J1602D01*
G01X803354Y841201D01*
X803583Y841657D01*
X803709Y842197D01*
X803720Y842969D01*
X803535Y843650D01*
X803177Y844197D01*
G03X802669Y844567I-1216J-1135D01*
G01X802252Y844693D01*
G37*
G36*
G01X833362Y955067D02*
X832996Y955055D01*
G03X832701Y954996I124J-1390D01*
G03X832343Y954839I523J-1675D01*
G01X831996Y954591D01*
G03X831701Y954287I1524J-1780D01*
G01X831488Y953957D01*
G03X831394Y953717I1539J-744D01*
G01X831311Y953398D01*
X831252Y953075D01*
G03X831232Y952807I1817J-268D01*
G03X831311Y952185I2498J0D01*
G03X831539Y951606I2420J621D01*
G01X831894Y951122D01*
G03X832335Y950795I1180J1132D01*
G01X832886Y950598D01*
X833429Y950559D01*
X833929Y950677D01*
G03X834366Y950949I-611J1470D01*
G01X834539Y951102D01*
X834583Y950886D01*
X834626Y950673D01*
X834937Y950657D01*
X835252Y950642D01*
Y953008D01*
X833441D01*
Y952303D01*
X834059D01*
X834209Y952295D01*
X834335Y952287D01*
G02X834358Y952276I-6J-41D01*
G02X834378Y952197I-55J-56D01*
G01X834311Y951992D01*
X834213Y951783D01*
G02X834114Y951646I-545J285D01*
G02X833850Y951461I-600J574D01*
G02X833512Y951366I-491J1106D01*
G01X833146Y951374D01*
G02X832807Y951484I176J1116D01*
G01X832622Y951618D01*
X832453Y951827D01*
X832315Y952079D01*
G02X832232Y952343I1286J548D01*
G02X832189Y952783I2011J420D01*
G02X832236Y953244I2511J-25D01*
G01X832362Y953657D01*
G02X832551Y953957I929J-378D01*
G02X832787Y954130I565J-523D01*
G01X833114Y954240D01*
X833461Y954264D01*
G02X833760Y954197I-42J-891D01*
G02X833902Y954114I-231J-558D01*
G01X834047Y953976D01*
G02X834165Y953823I-880J-799D01*
G02X834224Y953685I-394J-250D01*
G03X834260Y953614I182J47D01*
G03X834315Y953579I79J62D01*
G01X834421Y953563D01*
X834705D01*
G03X835039Y953571I-7J7399D01*
G03X835130Y953614I-6J128D01*
G03X835154Y953709I-79J70D01*
G01X835067Y953992D01*
G03X834917Y954280I-1010J-343D01*
G03X834665Y954567I-1710J-1245D01*
G01X834358Y954807D01*
X834047Y954961D01*
G03X833362Y955067I-839J-3149D01*
G37*
G36*
G01X830366Y983362D02*
X830378Y982996D01*
G03X830437Y982701I1390J124D01*
G03X830594Y982343I1675J523D01*
G01X830843Y981996D01*
G03X831146Y981701I1780J1524D01*
G01X831476Y981488D01*
G03X831717Y981394I744J1539D01*
G01X832035Y981311D01*
X832358Y981252D01*
G03X832626Y981232I268J1817D01*
G03X833248Y981311I0J2498D01*
G03X833827Y981539I-621J2420D01*
G01X834311Y981894D01*
G03X834638Y982335I-1132J1180D01*
G01X834835Y982886D01*
X834874Y983429D01*
X834756Y983929D01*
G03X834484Y984366I-1470J-611D01*
G01X834331Y984539D01*
X834547Y984583D01*
X834760Y984626D01*
X834776Y984937D01*
X834791Y985252D01*
X832425D01*
Y983441D01*
X833130D01*
Y984059D01*
X833138Y984209D01*
X833146Y984335D01*
G02X833157Y984358I41J-6D01*
G02X833236Y984378I56J-55D01*
G01X833441Y984311D01*
X833650Y984213D01*
G02X833787Y984114I-285J-545D01*
G02X833972Y983850I-574J-600D01*
G02X834067Y983512I-1106J-491D01*
G01X834059Y983146D01*
G02X833949Y982807I-1116J176D01*
G01X833815Y982622D01*
X833606Y982453D01*
X833354Y982315D01*
G02X833091Y982232I-548J1286D01*
G02X832650Y982189I-420J2011D01*
G02X832189Y982236I25J2511D01*
G01X831776Y982362D01*
G02X831476Y982551I378J929D01*
G02X831303Y982787I523J565D01*
G01X831193Y983114D01*
X831169Y983461D01*
G02X831236Y983760I891J-42D01*
G02X831319Y983902I558J-231D01*
G01X831457Y984047D01*
G02X831610Y984165I799J-880D01*
G02X831748Y984224I250J-394D01*
G03X831819Y984260I-47J182D01*
G03X831854Y984315I-62J79D01*
G01X831870Y984421D01*
Y984705D01*
G03X831862Y985039I-7399J-7D01*
G03X831819Y985130I-128J-6D01*
G03X831724Y985154I-70J-79D01*
G01X831441Y985067D01*
G03X831154Y984917I343J-1010D01*
G03X830866Y984665I1245J-1710D01*
G01X830626Y984358D01*
X830472Y984047D01*
G03X830366Y983362I3149J-839D01*
G37*
G36*
G01X830488Y986976D02*
X830476Y986492D01*
X830461Y986004D01*
X834787D01*
Y986909D01*
X833354Y986921D01*
X831925Y986937D01*
X833354Y987815D01*
X834787Y988693D01*
X834776Y989173D01*
X834760Y989650D01*
X832614Y989661D01*
X830465Y989677D01*
Y988772D01*
X831909Y988760D01*
X833350Y988744D01*
X831921Y987862D01*
X830488Y986976D01*
G37*
G36*
G01X830504Y992803D02*
X830488Y992500D01*
X830472Y991697D01*
X830457Y990480D01*
X834795D01*
X834780Y991673D01*
X834764Y992457D01*
X834744Y992756D01*
X834701Y992957D01*
X834618Y993181D01*
G03X834358Y993587I-1602J-741D01*
G01X833996Y993906D01*
X833539Y994134D01*
X833000Y994260D01*
X832228Y994272D01*
X831547Y994087D01*
X831000Y993728D01*
G03X830630Y993220I1135J-1216D01*
G01X830504Y992803D01*
G37*
G36*
G01X842803Y954929D02*
X842500Y954945D01*
X841697Y954961D01*
X840480Y954976D01*
Y950638D01*
X841673Y950654D01*
X842457Y950669D01*
X842756Y950689D01*
X842957Y950732D01*
X843181Y950815D01*
G03X843587Y951075I-741J1602D01*
G01X843906Y951437D01*
X844134Y951894D01*
X844260Y952433D01*
X844272Y953205D01*
X844087Y953886D01*
X843728Y954433D01*
G03X843220Y954803I-1216J-1135D01*
G01X842803Y954929D01*
G37*
G36*
G01X836976Y954945D02*
X836492Y954957D01*
X836004Y954972D01*
Y950646D01*
X836909D01*
X836921Y952079D01*
X836937Y953508D01*
X837815Y952079D01*
X838693Y950646D01*
X839173Y950657D01*
X839650Y950673D01*
X839661Y952819D01*
X839677Y954969D01*
X838772D01*
X838760Y953524D01*
X838744Y952083D01*
X837862Y953512D01*
X836976Y954945D01*
G37*
G36*
G01X1003441Y854673D02*
X1003075Y854661D01*
G03X1002780Y854602I124J-1390D01*
G03X1002421Y854445I523J-1675D01*
G01X1002075Y854197D01*
G03X1001780Y853894I1524J-1780D01*
G01X1001567Y853563D01*
G03X1001472Y853323I1539J-744D01*
G01X1001390Y853004D01*
X1001331Y852681D01*
G03X1001311Y852413I1817J-268D01*
G03X1001390Y851791I2498J0D01*
G03X1001618Y851213I2420J621D01*
G01X1001972Y850728D01*
G03X1002413Y850402I1180J1132D01*
G01X1002965Y850205D01*
X1003508Y850165D01*
X1004008Y850283D01*
G03X1004445Y850555I-611J1470D01*
G01X1004618Y850709D01*
X1004661Y850492D01*
X1004705Y850280D01*
X1005016Y850264D01*
X1005331Y850248D01*
Y852614D01*
X1003520D01*
Y851909D01*
X1004138D01*
X1004287Y851902D01*
X1004413Y851894D01*
G02X1004437Y851882I-6J-41D01*
G02X1004457Y851803I-55J-56D01*
G01X1004390Y851598D01*
X1004291Y851390D01*
G02X1004193Y851252I-545J285D01*
G02X1003929Y851067I-600J574D01*
G02X1003591Y850972I-491J1106D01*
G01X1003224Y850980D01*
G02X1002886Y851091I176J1116D01*
G01X1002701Y851224D01*
X1002531Y851433D01*
X1002394Y851685D01*
G02X1002311Y851949I1286J548D01*
G02X1002268Y852390I2011J420D01*
G02X1002315Y852850I2511J-25D01*
G01X1002441Y853264D01*
G02X1002630Y853563I929J-378D01*
G02X1002866Y853736I565J-523D01*
G01X1003193Y853846D01*
X1003539Y853870D01*
G02X1003839Y853803I-42J-891D01*
G02X1003980Y853720I-231J-558D01*
G01X1004126Y853583D01*
G02X1004244Y853429I-880J-799D01*
G02X1004303Y853291I-394J-250D01*
G03X1004339Y853220I182J47D01*
G03X1004394Y853185I79J62D01*
G01X1004500Y853169D01*
X1004783D01*
G03X1005118Y853177I-7J7399D01*
G03X1005209Y853220I-6J128D01*
G03X1005232Y853315I-79J70D01*
G01X1005146Y853598D01*
G03X1004996Y853886I-1010J-343D01*
G03X1004744Y854173I-1710J-1245D01*
G01X1004437Y854413D01*
X1004126Y854567D01*
G03X1003441Y854673I-839J-3149D01*
G37*
G36*
G01X1007055Y854551D02*
X1006571Y854563D01*
X1006083Y854579D01*
Y850252D01*
X1006988D01*
X1007000Y851685D01*
X1007016Y853114D01*
X1007894Y851685D01*
X1008772Y850252D01*
X1009252Y850264D01*
X1009728Y850280D01*
X1009740Y852425D01*
X1009756Y854575D01*
X1008850D01*
X1008839Y853130D01*
X1008823Y851689D01*
X1007941Y853118D01*
X1007055Y854551D01*
G37*
G36*
G01X1012882Y854535D02*
X1012579Y854551D01*
X1011776Y854567D01*
X1010559Y854583D01*
Y850244D01*
X1011752Y850260D01*
X1012535Y850276D01*
X1012835Y850295D01*
X1013035Y850339D01*
X1013260Y850421D01*
G03X1013665Y850681I-741J1602D01*
G01X1013984Y851043D01*
X1014213Y851500D01*
X1014339Y852039D01*
X1014350Y852811D01*
X1014165Y853492D01*
X1013807Y854039D01*
G03X1013299Y854409I-1216J-1135D01*
G01X1012882Y854535D01*
G37*
G36*
G01X1003441Y844831D02*
X1003075Y844819D01*
G03X1002780Y844760I124J-1390D01*
G03X1002421Y844602I523J-1675D01*
G01X1002075Y844354D01*
G03X1001780Y844051I1524J-1780D01*
G01X1001567Y843720D01*
G03X1001472Y843480I1539J-744D01*
G01X1001390Y843161D01*
X1001331Y842839D01*
G03X1001311Y842571I1817J-268D01*
G03X1001390Y841949I2498J0D01*
G03X1001618Y841370I2420J621D01*
G01X1001972Y840886D01*
G03X1002413Y840559I1180J1132D01*
G01X1002965Y840362D01*
X1003508Y840323D01*
X1004008Y840441D01*
G03X1004445Y840713I-611J1470D01*
G01X1004618Y840866D01*
X1004661Y840650D01*
X1004705Y840437D01*
X1005016Y840421D01*
X1005331Y840406D01*
Y842772D01*
X1003520D01*
Y842067D01*
X1004138D01*
X1004287Y842059D01*
X1004413Y842051D01*
G02X1004437Y842039I-6J-41D01*
G02X1004457Y841961I-55J-56D01*
G01X1004390Y841756D01*
X1004291Y841547D01*
G02X1004193Y841409I-545J285D01*
G02X1003929Y841224I-600J574D01*
G02X1003591Y841130I-491J1106D01*
G01X1003224Y841138D01*
G02X1002886Y841248I176J1116D01*
G01X1002701Y841382D01*
X1002531Y841591D01*
X1002394Y841843D01*
G02X1002311Y842106I1286J548D01*
G02X1002268Y842547I2011J420D01*
G02X1002315Y843008I2511J-25D01*
G01X1002441Y843421D01*
G02X1002630Y843720I929J-378D01*
G02X1002866Y843894I565J-523D01*
G01X1003193Y844004D01*
X1003539Y844028D01*
G02X1003839Y843961I-42J-891D01*
G02X1003980Y843878I-231J-558D01*
G01X1004126Y843740D01*
G02X1004244Y843587I-880J-799D01*
G02X1004303Y843449I-394J-250D01*
G03X1004339Y843378I182J47D01*
G03X1004394Y843343I79J62D01*
G01X1004500Y843327D01*
X1004783D01*
G03X1005118Y843335I-7J7399D01*
G03X1005209Y843378I-6J128D01*
G03X1005232Y843472I-79J70D01*
G01X1005146Y843756D01*
G03X1004996Y844043I-1010J-343D01*
G03X1004744Y844331I-1710J-1245D01*
G01X1004437Y844571D01*
X1004126Y844724D01*
G03X1003441Y844831I-839J-3149D01*
G37*
G36*
G01X1007055Y844709D02*
X1006571Y844720D01*
X1006083Y844736D01*
Y840409D01*
X1006988D01*
X1007000Y841843D01*
X1007016Y843272D01*
X1007894Y841843D01*
X1008772Y840409D01*
X1009252Y840421D01*
X1009728Y840437D01*
X1009740Y842583D01*
X1009756Y844732D01*
X1008850D01*
X1008839Y843287D01*
X1008823Y841846D01*
X1007941Y843276D01*
X1007055Y844709D01*
G37*
G36*
G01X1012882Y844693D02*
X1012579Y844709D01*
X1011776Y844724D01*
X1010559Y844740D01*
Y840402D01*
X1011752Y840417D01*
X1012535Y840433D01*
X1012835Y840453D01*
X1013035Y840496D01*
X1013260Y840579D01*
G03X1013665Y840839I-741J1602D01*
G01X1013984Y841201D01*
X1014213Y841657D01*
X1014339Y842197D01*
X1014350Y842969D01*
X1014165Y843650D01*
X1013807Y844197D01*
G03X1013299Y844567I-1216J-1135D01*
G01X1012882Y844693D01*
G37*
G36*
G01X1012488Y964378D02*
X1012185Y964394D01*
X1011382Y964409D01*
X1010165Y964425D01*
Y960087D01*
X1011358Y960102D01*
X1012142Y960118D01*
X1012441Y960138D01*
X1012642Y960181D01*
X1012866Y960264D01*
G03X1013272Y960524I-741J1602D01*
G01X1013591Y960886D01*
X1013819Y961343D01*
X1013945Y961882D01*
X1013957Y962654D01*
X1013772Y963335D01*
X1013413Y963882D01*
G03X1012906Y964252I-1216J-1135D01*
G01X1012488Y964378D01*
G37*
G36*
G01X1006661Y964394D02*
X1006177Y964406D01*
X1005689Y964421D01*
Y960094D01*
X1006594D01*
X1006606Y961528D01*
X1006622Y962957D01*
X1007500Y961528D01*
X1008378Y960094D01*
X1008858Y960106D01*
X1009335Y960122D01*
X1009346Y962268D01*
X1009362Y964417D01*
X1008457D01*
X1008445Y962972D01*
X1008429Y961531D01*
X1007547Y962961D01*
X1006661Y964394D01*
G37*
G36*
G01X1003047Y964516D02*
X1002681Y964504D01*
G03X1002386Y964445I124J-1390D01*
G03X1002028Y964287I523J-1675D01*
G01X1001681Y964039D01*
G03X1001386Y963736I1524J-1780D01*
G01X1001173Y963406D01*
G03X1001079Y963165I1539J-744D01*
G01X1000996Y962846D01*
X1000937Y962524D01*
G03X1000917Y962256I1817J-268D01*
G03X1000996Y961634I2498J0D01*
G03X1001224Y961055I2420J621D01*
G01X1001579Y960571D01*
G03X1002020Y960244I1180J1132D01*
G01X1002571Y960047D01*
X1003114Y960008D01*
X1003614Y960126D01*
G03X1004051Y960398I-611J1470D01*
G01X1004224Y960551D01*
X1004268Y960335D01*
X1004311Y960122D01*
X1004622Y960106D01*
X1004937Y960091D01*
Y962457D01*
X1003126D01*
Y961752D01*
X1003744D01*
X1003894Y961744D01*
X1004020Y961736D01*
G02X1004043Y961724I-6J-41D01*
G02X1004063Y961646I-55J-56D01*
G01X1003996Y961441D01*
X1003898Y961232D01*
G02X1003799Y961094I-545J285D01*
G02X1003535Y960909I-600J574D01*
G02X1003197Y960815I-491J1106D01*
G01X1002831Y960823D01*
G02X1002492Y960933I176J1116D01*
G01X1002307Y961067D01*
X1002138Y961276D01*
X1002000Y961528D01*
G02X1001917Y961791I1286J548D01*
G02X1001874Y962232I2011J420D01*
G02X1001921Y962693I2511J-25D01*
G01X1002047Y963106D01*
G02X1002236Y963406I929J-378D01*
G02X1002472Y963579I565J-523D01*
G01X1002799Y963689D01*
X1003146Y963713D01*
G02X1003445Y963646I-42J-891D01*
G02X1003587Y963563I-231J-558D01*
G01X1003732Y963425D01*
G02X1003850Y963272I-880J-799D01*
G02X1003909Y963134I-394J-250D01*
G03X1003945Y963063I182J47D01*
G03X1004000Y963028I79J62D01*
G01X1004106Y963012D01*
X1004390D01*
G03X1004724Y963020I-7J7399D01*
G03X1004815Y963063I-6J128D01*
G03X1004839Y963157I-79J70D01*
G01X1004752Y963441D01*
G03X1004602Y963728I-1010J-343D01*
G03X1004350Y964016I-1710J-1245D01*
G01X1004043Y964256D01*
X1003732Y964409D01*
G03X1003047Y964516I-839J-3149D01*
G37*
%LPC*%
G75*
G36*
G01X800882Y853783D02*
X801480Y853764D01*
X801854Y853748D01*
X802028Y853728D01*
X802150Y853681D01*
X802295Y853594D01*
X802500Y853409D01*
X802642Y853185D01*
G02X802732Y852906I-1131J-521D01*
G01X802780Y852551D01*
Y852165D01*
G02X802724Y851843I-1611J109D01*
G02X802614Y851575I-1184J331D01*
G02X802449Y851354I-869J479D01*
G01X802260Y851209D01*
X802055Y851118D01*
G02X801780Y851071I-371J1338D01*
G01X801374Y851055D01*
X800882D01*
Y853783D01*
G37*
G36*
G01Y843941D02*
X801480Y843921D01*
X801854Y843906D01*
X802028Y843886D01*
X802150Y843839D01*
X802295Y843752D01*
X802500Y843567D01*
X802642Y843343D01*
G02X802732Y843063I-1131J-521D01*
G01X802780Y842709D01*
Y842323D01*
G02X802724Y842000I-1611J109D01*
G02X802614Y841732I-1184J331D01*
G02X802449Y841512I-869J479D01*
G01X802260Y841366D01*
X802055Y841276D01*
G02X801780Y841228I-371J1338D01*
G01X801374Y841213D01*
X800882D01*
Y843941D01*
G37*
G36*
G01X831256Y991433D02*
X831276Y992031D01*
X831291Y992406D01*
X831311Y992579D01*
X831358Y992701D01*
X831445Y992846D01*
X831630Y993051D01*
X831854Y993193D01*
G02X832134Y993283I521J-1131D01*
G01X832488Y993331D01*
X832874D01*
G02X833197Y993276I-109J-1611D01*
G02X833465Y993165I-331J-1184D01*
G02X833685Y993000I-479J-869D01*
G01X833831Y992811D01*
X833921Y992606D01*
G02X833969Y992331I-1338J-371D01*
G01X833984Y991925D01*
Y991433D01*
X831256D01*
G37*
G36*
G01X841433Y954177D02*
X842031Y954157D01*
X842406Y954142D01*
X842579Y954122D01*
X842701Y954075D01*
X842846Y953988D01*
X843051Y953803D01*
X843193Y953579D01*
G02X843283Y953299I-1131J-521D01*
G01X843331Y952945D01*
Y952559D01*
G02X843276Y952236I-1611J109D01*
G02X843165Y951969I-1184J331D01*
G02X843000Y951748I-869J479D01*
G01X842811Y951602D01*
X842606Y951512D01*
G02X842331Y951465I-371J1338D01*
G01X841925Y951449D01*
X841433D01*
Y954177D01*
G37*
G36*
G01X1011512Y853783D02*
X1012110Y853764D01*
X1012484Y853748D01*
X1012657Y853728D01*
X1012780Y853681D01*
X1012925Y853594D01*
X1013130Y853409D01*
X1013272Y853185D01*
G02X1013362Y852906I-1131J-521D01*
G01X1013409Y852551D01*
Y852165D01*
G02X1013354Y851843I-1611J109D01*
G02X1013244Y851575I-1184J331D01*
G02X1013079Y851354I-869J479D01*
G01X1012890Y851209D01*
X1012685Y851118D01*
G02X1012409Y851071I-371J1338D01*
G01X1012004Y851055D01*
X1011512D01*
Y853783D01*
G37*
G36*
G01Y843941D02*
X1012110Y843921D01*
X1012484Y843906D01*
X1012657Y843886D01*
X1012780Y843839D01*
X1012925Y843752D01*
X1013130Y843567D01*
X1013272Y843343D01*
G02X1013362Y843063I-1131J-521D01*
G01X1013409Y842709D01*
Y842323D01*
G02X1013354Y842000I-1611J109D01*
G02X1013244Y841732I-1184J331D01*
G02X1013079Y841512I-869J479D01*
G01X1012890Y841366D01*
X1012685Y841276D01*
G02X1012409Y841228I-371J1338D01*
G01X1012004Y841213D01*
X1011512D01*
Y843941D01*
G37*
G36*
G01X1011118Y963626D02*
X1011717Y963606D01*
X1012091Y963591D01*
X1012264Y963571D01*
X1012386Y963524D01*
X1012531Y963437D01*
X1012736Y963252D01*
X1012878Y963028D01*
G02X1012969Y962748I-1131J-521D01*
G01X1013016Y962394D01*
Y962008D01*
G02X1012961Y961685I-1611J109D01*
G02X1012850Y961417I-1184J331D01*
G02X1012685Y961197I-869J479D01*
G01X1012496Y961051D01*
X1012291Y960961D01*
G02X1012016Y960913I-371J1338D01*
G01X1011610Y960898D01*
X1011118D01*
Y963626D01*
G37*
%LPD*%
G75*
G54D10*
G01X790945Y638681D02*
Y579626D01*
X1086220D01*
Y638681D01*
X790945D01*
G01X794685Y821457D02*
X815551D01*
Y800591D01*
X794685D01*
Y821457D01*
G01X820776Y864874D02*
X821004Y864465D01*
X821311Y864232D01*
X821654Y864173D01*
X821957Y864232D01*
X822260Y864524D01*
X822453Y864874D01*
X822488Y865224D01*
X822413Y865634D01*
X822146Y865925D01*
X821882Y866043D01*
X821539D01*
G01X821882D02*
X822110Y866217D01*
X822299Y866508D01*
X822374Y866858D01*
X822299Y867209D01*
X822110Y867500D01*
X821768Y867677D01*
X821425Y867618D01*
X821083Y867386D01*
G01X824213Y867677D02*
X823909Y867559D01*
X823681Y867268D01*
X823528Y866917D01*
X823413Y866449D01*
X823374Y865925D01*
X823413Y865398D01*
X823528Y864933D01*
X823681Y864583D01*
X823909Y864291D01*
X824213Y864173D01*
X824516Y864291D01*
X824744Y864583D01*
X824898Y864933D01*
X825012Y865398D01*
X825051Y865925D01*
X825012Y866449D01*
X824898Y866917D01*
X824744Y867268D01*
X824516Y867559D01*
X824213Y867677D01*
G01X811378Y864173D02*
Y867677D01*
X810921Y866976D01*
G01Y864173D02*
X811835D01*
G01X813976Y867677D02*
X813673Y867559D01*
X813445Y867268D01*
X813291Y866917D01*
X813177Y866449D01*
X813138Y865925D01*
X813177Y865398D01*
X813291Y864933D01*
X813445Y864583D01*
X813673Y864291D01*
X813976Y864173D01*
X814280Y864291D01*
X814508Y864583D01*
X814661Y864933D01*
X814776Y865398D01*
X814815Y865925D01*
X814776Y866449D01*
X814661Y866917D01*
X814508Y867268D01*
X814280Y867559D01*
X813976Y867677D01*
G01X812559Y967323D02*
Y970827D01*
X812102Y970126D01*
G01Y967323D02*
X813016D01*
G01X820890Y970244D02*
X821118Y970594D01*
X821386Y970768D01*
X821689Y970827D01*
X822071Y970709D01*
X822339Y970417D01*
X822413Y970067D01*
X822374Y969717D01*
X822224Y969425D01*
X821461Y968843D01*
X821118Y968433D01*
X820890Y967846D01*
X820815Y967323D01*
X822413D01*
G01X824213D02*
Y970827D01*
X823756Y970126D01*
G01Y967323D02*
X824669D01*
G01X805500Y970386D02*
X805689Y970035D01*
X805917Y969803D01*
X806185Y969685D01*
X806488Y969803D01*
X806717Y970035D01*
X806945Y970386D01*
X807020Y970854D01*
Y973189D01*
G01X808858Y969685D02*
Y973189D01*
X808402Y972488D01*
G01Y969685D02*
X809315D01*
G01X826760Y970386D02*
X826949Y970035D01*
X827177Y969803D01*
X827445Y969685D01*
X827748Y969803D01*
X827976Y970035D01*
X828205Y970386D01*
X828280Y970854D01*
Y973189D01*
G01X829280Y970386D02*
X829508Y969976D01*
X829815Y969744D01*
X830157Y969685D01*
X830461Y969744D01*
X830764Y970035D01*
X830957Y970386D01*
X830992Y970736D01*
X830917Y971146D01*
X830650Y971437D01*
X830386Y971555D01*
X830043D01*
G01X830386D02*
X830614Y971728D01*
X830803Y972020D01*
X830878Y972370D01*
X830803Y972720D01*
X830614Y973012D01*
X830272Y973189D01*
X829929Y973130D01*
X829587Y972898D01*
G01X938583Y638681D02*
Y579626D01*
G01Y599311D02*
X1086220D01*
G01Y618996D02*
X938583D01*
G01X948024Y855630D02*
X944520Y855606D01*
X944516Y856559D01*
X944689Y856862D01*
X944921Y857055D01*
X945386Y857134D01*
X945854Y857063D01*
X946150Y856835D01*
X946327Y856571D01*
X946331Y855618D01*
G01X946327Y856571D02*
X948016Y857150D01*
G01X948004Y858988D02*
X944500Y858965D01*
X945205Y858512D01*
G01X948008Y858531D02*
X948000Y859445D01*
G01X928150Y956583D02*
X924646D01*
Y957531D01*
X924823Y957839D01*
X925055Y958028D01*
X925524Y958102D01*
X925988Y958028D01*
X926280Y957799D01*
X926457Y957531D01*
Y956583D01*
G01Y957531D02*
X928150Y958102D01*
G01Y960398D02*
X924646D01*
X927157Y958988D01*
Y960894D01*
G01X927740Y961894D02*
X928031Y962157D01*
X928150Y962465D01*
X928031Y962768D01*
X927681Y963035D01*
X927157Y963224D01*
X926630Y963299D01*
X925988D01*
X925465Y963224D01*
X924996Y963035D01*
X924764Y962807D01*
X924646Y962539D01*
X924764Y962236D01*
X924996Y962008D01*
X925346Y961854D01*
X925815Y961780D01*
X926220Y961854D01*
X926630Y962043D01*
X926866Y962272D01*
X926925Y962539D01*
X926807Y962843D01*
X926516Y963071D01*
X925988Y963299D01*
G01X934035Y956484D02*
X930531D01*
Y957433D01*
X930709Y957740D01*
X930941Y957929D01*
X931409Y958004D01*
X931874Y957929D01*
X932165Y957701D01*
X932343Y957433D01*
Y956484D01*
G01Y957433D02*
X934035Y958004D01*
G01Y960299D02*
X930531D01*
X933043Y958890D01*
Y960795D01*
G01X934035Y962441D02*
X933976Y962709D01*
X933803Y963012D01*
X933512Y963201D01*
X933102Y963280D01*
X932693Y963201D01*
X932343Y962972D01*
X932165Y962630D01*
Y962252D01*
X932051Y962024D01*
X931760Y961831D01*
X931350Y961756D01*
X930941Y961870D01*
X930650Y962138D01*
X930531Y962441D01*
X930650Y962744D01*
X930941Y963012D01*
X931350Y963126D01*
X931760Y963051D01*
X932051Y962858D01*
X932165Y962630D01*
Y962252D01*
X932343Y961909D01*
X932693Y961681D01*
X933102Y961602D01*
X933512Y961681D01*
X933803Y961870D01*
X933976Y962173D01*
X934035Y962441D01*
G01X939547Y956484D02*
X936043D01*
Y957433D01*
X936220Y957740D01*
X936453Y957929D01*
X936921Y958004D01*
X937386Y957929D01*
X937677Y957701D01*
X937854Y957433D01*
Y956484D01*
G01Y957433D02*
X939547Y958004D01*
G01Y960299D02*
X936043D01*
X938555Y958890D01*
Y960795D01*
G01X939547Y962366D02*
X938787Y962441D01*
X938146Y962555D01*
X937563Y962709D01*
X936921Y962898D01*
X936043Y963201D01*
Y961681D01*
G01X945453Y956484D02*
X941949D01*
Y957433D01*
X942126Y957740D01*
X942358Y957929D01*
X942827Y958004D01*
X943291Y957929D01*
X943583Y957701D01*
X943760Y957433D01*
Y956484D01*
G01Y957433D02*
X945453Y958004D01*
G01Y960299D02*
X941949D01*
X944461Y958890D01*
Y960795D01*
G01X943992Y961717D02*
X943583Y961984D01*
X943350Y962213D01*
X943232Y962516D01*
X943350Y962783D01*
X943583Y962972D01*
X943933Y963126D01*
X944343Y963165D01*
X944693Y963126D01*
X945043Y962972D01*
X945335Y962744D01*
X945453Y962480D01*
X945335Y962173D01*
X944984Y961909D01*
X944461Y961756D01*
X943878Y961717D01*
X943118Y961795D01*
X942709Y961909D01*
X942299Y962098D01*
X942008Y962366D01*
X941949Y962630D01*
X942067Y962898D01*
X942358Y963087D01*
G01X988488Y618996D02*
Y599311D01*
G01X980224Y865268D02*
X980453Y864858D01*
X980760Y864626D01*
X981102Y864567D01*
X981406Y864626D01*
X981709Y864917D01*
X981902Y865268D01*
X981937Y865618D01*
X981862Y866028D01*
X981594Y866319D01*
X981331Y866437D01*
X980988D01*
G01X981331D02*
X981559Y866610D01*
X981748Y866902D01*
X981823Y867252D01*
X981748Y867602D01*
X981559Y867894D01*
X981217Y868071D01*
X980874Y868012D01*
X980531Y867780D01*
G01X983661Y864567D02*
Y868071D01*
X983205Y867370D01*
G01Y864567D02*
X984118D01*
G01X991299D02*
Y868071D01*
X990843Y867370D01*
G01Y864567D02*
X991756D01*
G01X993898D02*
Y868071D01*
X993441Y867370D01*
G01Y864567D02*
X994354D01*
G01X990575Y970244D02*
X990803Y970594D01*
X991071Y970768D01*
X991374Y970827D01*
X991756Y970709D01*
X992024Y970417D01*
X992098Y970067D01*
X992059Y969717D01*
X991909Y969425D01*
X991146Y968843D01*
X990803Y968433D01*
X990575Y967846D01*
X990500Y967323D01*
X992098D01*
G01X993898Y970827D02*
X993594Y970709D01*
X993366Y970417D01*
X993213Y970067D01*
X993098Y969598D01*
X993059Y969075D01*
X993098Y968547D01*
X993213Y968083D01*
X993366Y967732D01*
X993594Y967441D01*
X993898Y967323D01*
X994201Y967441D01*
X994429Y967732D01*
X994583Y968083D01*
X994697Y968547D01*
X994736Y969075D01*
X994697Y969598D01*
X994583Y970067D01*
X994429Y970417D01*
X994201Y970709D01*
X993898Y970827D01*
G01X981520Y967323D02*
Y970827D01*
X980110Y968315D01*
X982016D01*
G01X983661Y970827D02*
X983358Y970709D01*
X983130Y970417D01*
X982976Y970067D01*
X982862Y969598D01*
X982823Y969075D01*
X982862Y968547D01*
X982976Y968083D01*
X983130Y967732D01*
X983358Y967441D01*
X983661Y967323D01*
X983965Y967441D01*
X984193Y967732D01*
X984346Y968083D01*
X984461Y968547D01*
X984500Y969075D01*
X984461Y969598D01*
X984346Y970067D01*
X984193Y970417D01*
X983965Y970709D01*
X983661Y970827D01*
G01X956870Y956484D02*
X953366D01*
Y957433D01*
X953543Y957740D01*
X953776Y957929D01*
X954244Y958004D01*
X954709Y957929D01*
X955000Y957701D01*
X955177Y957433D01*
Y956484D01*
G01Y957433D02*
X956870Y958004D01*
G01X956346Y959004D02*
X956638Y959232D01*
X956811Y959500D01*
X956870Y959843D01*
X956752Y960185D01*
X956520Y960453D01*
X956110Y960642D01*
X955646Y960681D01*
X955177Y960602D01*
X954886Y960413D01*
X954650Y960146D01*
X954594Y959882D01*
X954650Y959614D01*
X954886Y959272D01*
X953366Y959386D01*
Y960413D01*
G01X956870Y962441D02*
X953366D01*
X954067Y961984D01*
G01X956870D02*
Y962898D01*
G01X962776Y956484D02*
X959272D01*
Y957433D01*
X959449Y957740D01*
X959681Y957929D01*
X960150Y958004D01*
X960614Y957929D01*
X960906Y957701D01*
X961083Y957433D01*
Y956484D01*
G01Y957433D02*
X962776Y958004D01*
G01X962252Y959004D02*
X962543Y959232D01*
X962717Y959500D01*
X962776Y959843D01*
X962657Y960185D01*
X962425Y960453D01*
X962016Y960642D01*
X961551Y960681D01*
X961083Y960602D01*
X960791Y960413D01*
X960555Y960146D01*
X960500Y959882D01*
X960555Y959614D01*
X960791Y959272D01*
X959272Y959386D01*
Y960413D01*
G01X959854Y961717D02*
X959504Y961945D01*
X959331Y962213D01*
X959272Y962516D01*
X959390Y962898D01*
X959681Y963165D01*
X960031Y963240D01*
X960382Y963201D01*
X960673Y963051D01*
X961256Y962287D01*
X961665Y961945D01*
X962252Y961717D01*
X962776Y961642D01*
Y963240D01*
G01X996445Y970386D02*
X996634Y970035D01*
X996862Y969803D01*
X997130Y969685D01*
X997433Y969803D01*
X997661Y970035D01*
X997890Y970386D01*
X997965Y970854D01*
Y973189D01*
G01X999079Y972606D02*
X999307Y972957D01*
X999575Y973130D01*
X999878Y973189D01*
X1000260Y973071D01*
X1000528Y972780D01*
X1000602Y972429D01*
X1000563Y972079D01*
X1000413Y971787D01*
X999650Y971205D01*
X999307Y970795D01*
X999079Y970209D01*
X999004Y969685D01*
X1000602D01*
G01X974398Y970386D02*
X974587Y970035D01*
X974815Y969803D01*
X975083Y969685D01*
X975386Y969803D01*
X975614Y970035D01*
X975843Y970386D01*
X975917Y970854D01*
Y973189D01*
G01X978213Y969685D02*
Y973189D01*
X976803Y970677D01*
X978709D01*
G54D11*
G01X992118Y1009075D02*
Y1000020D01*
G01X992126Y1021654D02*
Y1012598D01*
G54D12*
G01X794390Y692913D02*
X1011220D01*
G03X1017913Y700591I-552J7237D01*
G01Y964567D01*
G03X1013583Y976969I-19922J0D01*
G02X1009252Y989370I15591J12402D01*
G02X1013583Y1001772I19922J0D01*
G03X1017913Y1014173I-15591J12402D01*
G01Y1158811D01*
G03X1012157Y1164567I-5756J0D01*
G01X849803D01*
Y1159843D01*
X843504D01*
Y1151575D01*
X839961D01*
Y1159843D01*
X825000D01*
Y1151575D01*
X821457D01*
Y1159843D01*
X815157D01*
Y1164567D01*
X793354D01*
G03X787598Y1158811I0J-5756D01*
G01Y1014173D01*
G03X791929Y1001772I19922J0D01*
G02X796260Y989370I-15591J-12402D01*
G02X791929Y976969I-19922J0D01*
G03X787598Y964567I15591J-12402D01*
G01Y700591D01*
G03X794390Y692913I8087J312D01*
G01X950913Y586071D02*
Y593571D01*
X952780D01*
X953524Y593197D01*
X954083Y592697D01*
X954551Y591945D01*
X954925Y591071D01*
X955016Y589819D01*
X954925Y588571D01*
X954551Y587697D01*
X954083Y586945D01*
X953524Y586445D01*
X952780Y586071D01*
X950913D01*
G01X958130D02*
X960465Y593571D01*
X962799Y586071D01*
G01X961957Y588697D02*
X958972D01*
G01X967965Y593571D02*
Y586071D01*
G01X965819Y593571D02*
X970110D01*
G01X977331Y586071D02*
X973598D01*
Y593571D01*
X977331D01*
G01X975839Y589945D02*
X973598D01*
G01X982965Y585823D02*
X982780Y585945D01*
Y586197D01*
X982965Y586319D01*
X983150Y586197D01*
Y585945D01*
X982965Y585823D01*
G01Y589197D02*
X982780Y589319D01*
Y589571D01*
X982965Y589697D01*
X983150Y589571D01*
Y589319D01*
X982965Y589197D01*
G01X996193Y592323D02*
X996752Y593071D01*
X997406Y593445D01*
X998150Y593571D01*
X999083Y593323D01*
X999736Y592697D01*
X999925Y591945D01*
X999831Y591197D01*
X999457Y590571D01*
X997591Y589319D01*
X996752Y588445D01*
X996193Y587197D01*
X996004Y586071D01*
X999925D01*
G01X1005465Y593571D02*
X1004717Y593323D01*
X1004157Y592697D01*
X1003783Y591945D01*
X1003504Y590945D01*
X1003413Y589819D01*
X1003504Y588697D01*
X1003783Y587697D01*
X1004157Y586945D01*
X1004717Y586319D01*
X1005465Y586071D01*
X1006213Y586319D01*
X1006772Y586945D01*
X1007146Y587697D01*
X1007425Y588697D01*
X1007516Y589819D01*
X1007425Y590945D01*
X1007146Y591945D01*
X1006772Y592697D01*
X1006213Y593323D01*
X1005465Y593571D01*
G01X1012965Y586071D02*
Y593571D01*
X1011846Y592071D01*
G01Y586071D02*
X1014083D01*
G01X1020465D02*
X1021118Y586197D01*
X1021862Y586571D01*
X1022331Y587197D01*
X1022516Y588071D01*
X1022331Y588945D01*
X1021772Y589697D01*
X1020929Y590071D01*
X1020000D01*
X1019437Y590323D01*
X1018972Y590945D01*
X1018783Y591819D01*
X1019067Y592697D01*
X1019717Y593323D01*
X1020465Y593571D01*
X1021213Y593323D01*
X1021862Y592697D01*
X1022146Y591819D01*
X1021957Y590945D01*
X1021492Y590323D01*
X1020929Y590071D01*
X1020000D01*
X1019157Y589697D01*
X1018598Y588945D01*
X1018413Y588071D01*
X1018598Y587197D01*
X1019067Y586571D01*
X1019811Y586197D01*
X1020465Y586071D01*
G01X1026752Y588571D02*
X1029177D01*
G01X1035465Y586071D02*
Y593571D01*
X1034346Y592071D01*
G01Y586071D02*
X1036583D01*
G01X1042965Y593571D02*
X1042217Y593323D01*
X1041657Y592697D01*
X1041283Y591945D01*
X1041004Y590945D01*
X1040913Y589819D01*
X1041004Y588697D01*
X1041283Y587697D01*
X1041657Y586945D01*
X1042217Y586319D01*
X1042965Y586071D01*
X1043713Y586319D01*
X1044272Y586945D01*
X1044646Y587697D01*
X1044925Y588697D01*
X1045016Y589819D01*
X1044925Y590945D01*
X1044646Y591945D01*
X1044272Y592697D01*
X1043713Y593323D01*
X1042965Y593571D01*
G01X1049252Y588571D02*
X1051677D01*
G01X1056193Y592323D02*
X1056752Y593071D01*
X1057406Y593445D01*
X1058150Y593571D01*
X1059083Y593323D01*
X1059736Y592697D01*
X1059925Y591945D01*
X1059831Y591197D01*
X1059457Y590571D01*
X1057591Y589319D01*
X1056752Y588445D01*
X1056193Y587197D01*
X1056004Y586071D01*
X1059925D01*
G01X1063413Y587197D02*
X1063972Y586571D01*
X1064626Y586197D01*
X1065465Y586071D01*
X1066303Y586319D01*
X1066957Y586819D01*
X1067425Y587697D01*
X1067516Y588697D01*
X1067331Y589697D01*
X1066862Y590323D01*
X1066213Y590819D01*
X1065559Y590945D01*
X1064906Y590819D01*
X1064067Y590323D01*
X1064346Y593571D01*
X1066862D01*
G01X939224Y607201D02*
X939972Y606575D01*
X940811Y606201D01*
X941559D01*
X942303Y606575D01*
X942866Y607201D01*
X943146Y608075D01*
X942957Y608949D01*
X942492Y609701D01*
X941650Y610201D01*
X940531Y610453D01*
X939878Y610949D01*
X939598Y611827D01*
X939787Y612701D01*
X940252Y613327D01*
X940906Y613701D01*
X941559D01*
X942213Y613453D01*
X942772Y612827D01*
G01X947567Y613701D02*
X949803D01*
G01X948685D02*
Y606201D01*
G01X947567D02*
X949803D01*
G01X954319Y613701D02*
Y606201D01*
X958051D01*
G01X961634D02*
Y613701D01*
G01X965177D02*
X961634Y609075D01*
G01X965736Y606201D02*
X963220Y611201D01*
G01X971185Y613701D02*
Y606201D01*
G01X969039Y613701D02*
X973331D01*
G01X978685Y606201D02*
X977937Y606327D01*
X977287Y606827D01*
X976724Y607575D01*
X976350Y608449D01*
X976165Y609449D01*
Y610453D01*
X976350Y611453D01*
X976724Y612327D01*
X977287Y613075D01*
X977937Y613575D01*
X978685Y613701D01*
X979433Y613575D01*
X980083Y613075D01*
X980646Y612327D01*
X981020Y611453D01*
X981205Y610453D01*
Y609449D01*
X981020Y608449D01*
X980646Y607575D01*
X980083Y606827D01*
X979433Y606327D01*
X978685Y606201D01*
G01X984319D02*
Y613701D01*
X986559D01*
X987303Y613327D01*
X987866Y612453D01*
X988051Y611453D01*
X987866Y610453D01*
X987398Y609701D01*
X986559Y609327D01*
X984319D01*
G01X952768Y632744D02*
Y625244D01*
G01X950622Y632744D02*
X954913D01*
G01X962134Y625244D02*
X958402D01*
Y632744D01*
X962134D01*
G01X960642Y629118D02*
X958402D01*
G01X965807Y625244D02*
X969728Y632744D01*
G01X965807D02*
X969728Y625244D01*
G01X972933D02*
X975268Y632744D01*
X977602Y625244D01*
G01X976760Y627870D02*
X973776D01*
G01X980807Y626244D02*
X981555Y625618D01*
X982394Y625244D01*
X983142D01*
X983886Y625618D01*
X984449Y626244D01*
X984728Y627118D01*
X984539Y627992D01*
X984075Y628744D01*
X983232Y629244D01*
X982114Y629496D01*
X981461Y629992D01*
X981181Y630870D01*
X981370Y631744D01*
X981835Y632370D01*
X982488Y632744D01*
X983142D01*
X983795Y632496D01*
X984354Y631870D01*
G01X996650Y632744D02*
X998886D01*
G01X997768D02*
Y625244D01*
G01X996650D02*
X998886D01*
G01X1003122D02*
Y632744D01*
X1007413Y625244D01*
Y632744D01*
G01X1010807Y626244D02*
X1011555Y625618D01*
X1012394Y625244D01*
X1013142D01*
X1013886Y625618D01*
X1014449Y626244D01*
X1014728Y627118D01*
X1014539Y627992D01*
X1014075Y628744D01*
X1013232Y629244D01*
X1012114Y629496D01*
X1011461Y629992D01*
X1011181Y630870D01*
X1011370Y631744D01*
X1011835Y632370D01*
X1012488Y632744D01*
X1013142D01*
X1013795Y632496D01*
X1014354Y631870D01*
G01X1020268Y632744D02*
Y625244D01*
G01X1018122Y632744D02*
X1022413D01*
G01X1025902Y625244D02*
Y632744D01*
X1028232D01*
X1028980Y632370D01*
X1029449Y631870D01*
X1029634Y630870D01*
X1029449Y629870D01*
X1028886Y629244D01*
X1028232Y628870D01*
X1025902D01*
G01X1028232D02*
X1029634Y625244D01*
G01X1033217Y632744D02*
Y627370D01*
X1033587Y626244D01*
X1034335Y625492D01*
X1035268Y625244D01*
X1036201Y625492D01*
X1036949Y626244D01*
X1037319Y627370D01*
Y632744D01*
G01X1040343Y625244D02*
Y632744D01*
X1042768Y626492D01*
X1045193Y632744D01*
Y625244D01*
G01X1052134D02*
X1048402D01*
Y632744D01*
X1052134D01*
G01X1050642Y629118D02*
X1048402D01*
G01X1055622Y625244D02*
Y632744D01*
X1059913Y625244D01*
Y632744D01*
G01X1065268D02*
Y625244D01*
G01X1063122Y632744D02*
X1067413D01*
G01X1070807Y626244D02*
X1071555Y625618D01*
X1072394Y625244D01*
X1073142D01*
X1073886Y625618D01*
X1074449Y626244D01*
X1074728Y627118D01*
X1074539Y627992D01*
X1074075Y628744D01*
X1073232Y629244D01*
X1072114Y629496D01*
X1071461Y629992D01*
X1071181Y630870D01*
X1071370Y631744D01*
X1071835Y632370D01*
X1072488Y632744D01*
X1073142D01*
X1073795Y632496D01*
X1074354Y631870D01*
G54D13*
G01X792701Y880402D02*
X792677Y884535D01*
X793594Y884539D01*
X793965Y884335D01*
X794240Y884063D01*
X794472Y883650D01*
X794661Y883169D01*
X794709Y882480D01*
X794669Y881791D01*
X794488Y881307D01*
X794260Y880894D01*
X793988Y880614D01*
X793622Y880406D01*
X792701Y880402D01*
G01X796283Y884555D02*
X797386Y884563D01*
G01X796835Y884559D02*
X796862Y880425D01*
G01X796311Y880421D02*
X797413Y880429D01*
G01X800012Y880445D02*
X799646Y880512D01*
X799319Y880787D01*
X799043Y881197D01*
X798854Y881677D01*
X798760Y882228D01*
X798756Y882780D01*
X798846Y883331D01*
X799028Y883815D01*
X799299Y884232D01*
X799618Y884508D01*
X799984Y884579D01*
X800354Y884512D01*
X800677Y884240D01*
X800957Y883827D01*
X801142Y883346D01*
X801236Y882795D01*
X801240Y882244D01*
X801154Y881693D01*
X800972Y881209D01*
X800697Y880795D01*
X800378Y880516D01*
X800012Y880445D01*
G01X803713Y880469D02*
X803685Y884602D01*
X802004Y881630D01*
X804303Y881646D01*
G01X792701Y870402D02*
X792677Y874535D01*
X793594Y874539D01*
X793965Y874335D01*
X794240Y874063D01*
X794472Y873650D01*
X794661Y873169D01*
X794709Y872480D01*
X794669Y871791D01*
X794488Y871307D01*
X794260Y870894D01*
X793988Y870614D01*
X793622Y870406D01*
X792701Y870402D01*
G01X796283Y874555D02*
X797386Y874563D01*
G01X796835Y874559D02*
X796862Y870425D01*
G01X796311Y870421D02*
X797413Y870429D01*
G01X800012Y870445D02*
X799646Y870512D01*
X799319Y870787D01*
X799043Y871197D01*
X798854Y871677D01*
X798760Y872228D01*
X798756Y872780D01*
X798846Y873331D01*
X799028Y873815D01*
X799299Y874232D01*
X799618Y874508D01*
X799984Y874579D01*
X800354Y874512D01*
X800677Y874240D01*
X800957Y873827D01*
X801142Y873346D01*
X801236Y872795D01*
X801240Y872244D01*
X801154Y871693D01*
X800972Y871209D01*
X800697Y870795D01*
X800378Y870516D01*
X800012Y870445D01*
G01X802146Y871079D02*
X802425Y870736D01*
X802748Y870531D01*
X803161Y870465D01*
X803575Y870606D01*
X803894Y870882D01*
X804122Y871366D01*
X804161Y871917D01*
X804067Y872469D01*
X803835Y872811D01*
X803512Y873087D01*
X803189Y873154D01*
X802870Y873083D01*
X802457Y872803D01*
X802583Y874594D01*
X803823Y874602D01*
G01X792705Y890390D02*
X792681Y894524D01*
X793598Y894528D01*
X793969Y894323D01*
X794244Y894051D01*
X794476Y893638D01*
X794665Y893157D01*
X794713Y892469D01*
X794673Y891780D01*
X794492Y891295D01*
X794264Y890882D01*
X793992Y890602D01*
X793626Y890394D01*
X792705Y890390D01*
G01X796287Y894543D02*
X797390Y894551D01*
G01X796839Y894547D02*
X796866Y890413D01*
G01X796315Y890409D02*
X797417Y890417D01*
G01X800016Y890433D02*
X799650Y890500D01*
X799323Y890776D01*
X799047Y891185D01*
X798858Y891665D01*
X798764Y892217D01*
X798760Y892768D01*
X798850Y893319D01*
X799031Y893803D01*
X799303Y894220D01*
X799622Y894496D01*
X799988Y894567D01*
X800358Y894500D01*
X800681Y894228D01*
X800961Y893815D01*
X801146Y893335D01*
X801240Y892783D01*
X801244Y892232D01*
X801157Y891681D01*
X800976Y891197D01*
X800701Y890783D01*
X800382Y890504D01*
X800016Y890433D01*
G01X802272Y893894D02*
X802543Y894307D01*
X802862Y894516D01*
X803232Y894587D01*
X803693Y894453D01*
X804016Y894110D01*
X804110Y893697D01*
X804067Y893283D01*
X803886Y892937D01*
X802969Y892244D01*
X802559Y891760D01*
X802287Y891067D01*
X802201Y890449D01*
X804130Y890461D01*
G01X806315Y890472D02*
X806287Y894606D01*
X805744Y893776D01*
G01X805764Y890469D02*
X806866Y890476D01*
G01X828476Y890433D02*
Y894567D01*
X829398D01*
X829764Y894358D01*
X830039Y894083D01*
X830268Y893673D01*
X830453Y893189D01*
X830500Y892500D01*
X830453Y891811D01*
X830268Y891327D01*
X830039Y890913D01*
X829764Y890638D01*
X829398Y890433D01*
X828476D01*
G01X832087Y894567D02*
X833189D01*
G01X832638D02*
Y890433D01*
G01X832087D02*
X833189D01*
G01X835787D02*
X835421Y890500D01*
X835098Y890776D01*
X834823Y891189D01*
X834638Y891673D01*
X834547Y892224D01*
Y892776D01*
X834638Y893327D01*
X834823Y893811D01*
X835098Y894220D01*
X835421Y894500D01*
X835787Y894567D01*
X836154Y894500D01*
X836476Y894220D01*
X836752Y893811D01*
X836937Y893327D01*
X837028Y892776D01*
Y892224D01*
X836937Y891673D01*
X836752Y891189D01*
X836476Y890776D01*
X836154Y890500D01*
X835787Y890433D01*
G01X837925Y891260D02*
X838201Y890776D01*
X838571Y890500D01*
X838984Y890433D01*
X839350Y890500D01*
X839717Y890846D01*
X839949Y891260D01*
X839992Y891673D01*
X839902Y892154D01*
X839579Y892500D01*
X839260Y892638D01*
X838846D01*
G01X839260D02*
X839535Y892843D01*
X839764Y893189D01*
X839854Y893602D01*
X839764Y894016D01*
X839535Y894358D01*
X839122Y894567D01*
X838709Y894500D01*
X838295Y894220D01*
G01X842087Y894567D02*
X841720Y894429D01*
X841445Y894083D01*
X841260Y893673D01*
X841122Y893118D01*
X841075Y892500D01*
X841122Y891878D01*
X841260Y891327D01*
X841445Y890913D01*
X841720Y890571D01*
X842087Y890433D01*
X842453Y890571D01*
X842728Y890913D01*
X842913Y891327D01*
X843051Y891878D01*
X843098Y892500D01*
X843051Y893118D01*
X842913Y893673D01*
X842728Y894083D01*
X842453Y894429D01*
X842087Y894567D01*
G01X829988Y852953D02*
Y857087D01*
X831134D01*
X831504Y856878D01*
X831732Y856602D01*
X831823Y856051D01*
X831732Y855500D01*
X831457Y855157D01*
X831134Y854949D01*
X829988D01*
G01X831134D02*
X831823Y852953D01*
G01X833366Y854811D02*
X834835D01*
X834697Y855295D01*
X834469Y855571D01*
X834146Y855709D01*
X833827Y855638D01*
X833551Y855433D01*
X833366Y854949D01*
X833276Y854535D01*
Y854126D01*
X833366Y853709D01*
X833594Y853295D01*
X833870Y853020D01*
X834193Y852953D01*
X834516Y853091D01*
X834835Y853504D01*
G01X838031Y857087D02*
Y852953D01*
G01Y853571D02*
X837846Y853228D01*
X837571Y853020D01*
X837252Y852953D01*
X836882Y853091D01*
X836606Y853433D01*
X836425Y853846D01*
X836378Y854331D01*
X836425Y854811D01*
X836606Y855228D01*
X836882Y855571D01*
X837252Y855709D01*
X837571Y855638D01*
X837803Y855500D01*
X838031Y855228D01*
G01X840354Y852815D02*
X840264Y852886D01*
Y853020D01*
X840354Y853091D01*
X840445Y853020D01*
Y852886D01*
X840354Y852815D01*
G01Y854673D02*
X840264Y854744D01*
Y854882D01*
X840354Y854949D01*
X840445Y854882D01*
Y854744D01*
X840354Y854673D01*
G01X829894Y847343D02*
Y851476D01*
X830815D01*
X831181Y851268D01*
X831457Y850992D01*
X831685Y850583D01*
X831870Y850098D01*
X831917Y849409D01*
X831870Y848720D01*
X831685Y848236D01*
X831457Y847823D01*
X831181Y847547D01*
X830815Y847343D01*
X829894D01*
G01X833504Y851476D02*
X834606D01*
G01X834055D02*
Y847343D01*
G01X833504D02*
X834606D01*
G01X837205D02*
X836839Y847409D01*
X836516Y847685D01*
X836240Y848098D01*
X836055Y848583D01*
X835965Y849134D01*
Y849685D01*
X836055Y850236D01*
X836240Y850720D01*
X836516Y851130D01*
X836839Y851409D01*
X837205Y851476D01*
X837571Y851409D01*
X837894Y851130D01*
X838169Y850720D01*
X838354Y850236D01*
X838445Y849685D01*
Y849134D01*
X838354Y848583D01*
X838169Y848098D01*
X837894Y847685D01*
X837571Y847409D01*
X837205Y847343D01*
G01X839480Y849063D02*
X839803Y849547D01*
X840079Y849823D01*
X840445Y849961D01*
X840768Y849823D01*
X840996Y849547D01*
X841181Y849134D01*
X841228Y848650D01*
X841181Y848236D01*
X840996Y847823D01*
X840720Y847480D01*
X840402Y847343D01*
X840031Y847480D01*
X839713Y847894D01*
X839528Y848516D01*
X839480Y849201D01*
X839575Y850098D01*
X839713Y850583D01*
X839941Y851063D01*
X840264Y851409D01*
X840583Y851476D01*
X840906Y851339D01*
X841134Y850992D01*
G01X792689Y950433D02*
Y954567D01*
X793610D01*
X793976Y954358D01*
X794252Y954083D01*
X794480Y953673D01*
X794665Y953189D01*
X794713Y952500D01*
X794665Y951811D01*
X794480Y951327D01*
X794252Y950913D01*
X793976Y950638D01*
X793610Y950433D01*
X792689D01*
G01X796299Y954567D02*
X797402D01*
G01X796850D02*
Y950433D01*
G01X796299D02*
X797402D01*
G01X800000D02*
X799634Y950500D01*
X799311Y950776D01*
X799035Y951189D01*
X798850Y951673D01*
X798760Y952224D01*
Y952776D01*
X798850Y953327D01*
X799035Y953811D01*
X799311Y954220D01*
X799634Y954500D01*
X800000Y954567D01*
X800366Y954500D01*
X800689Y954220D01*
X800965Y953811D01*
X801150Y953327D01*
X801240Y952776D01*
Y952224D01*
X801150Y951673D01*
X800965Y951189D01*
X800689Y950776D01*
X800366Y950500D01*
X800000Y950433D01*
G01X802276Y953878D02*
X802551Y954291D01*
X802874Y954500D01*
X803240Y954567D01*
X803701Y954429D01*
X804024Y954083D01*
X804114Y953673D01*
X804067Y953256D01*
X803886Y952913D01*
X802965Y952224D01*
X802551Y951740D01*
X802276Y951051D01*
X802185Y950433D01*
X804114D01*
G01X805287Y951260D02*
X805563Y950776D01*
X805933Y950500D01*
X806346Y950433D01*
X806713Y950500D01*
X807079Y950846D01*
X807311Y951260D01*
X807354Y951673D01*
X807264Y952154D01*
X806941Y952500D01*
X806622Y952638D01*
X806209D01*
G01X806622D02*
X806898Y952843D01*
X807126Y953189D01*
X807217Y953602D01*
X807126Y954016D01*
X806898Y954358D01*
X806484Y954567D01*
X806071Y954500D01*
X805657Y954220D01*
G01X792689Y930433D02*
Y934567D01*
X793610D01*
X793976Y934358D01*
X794252Y934083D01*
X794480Y933673D01*
X794665Y933189D01*
X794713Y932500D01*
X794665Y931811D01*
X794480Y931327D01*
X794252Y930913D01*
X793976Y930638D01*
X793610Y930433D01*
X792689D01*
G01X796299Y934567D02*
X797402D01*
G01X796850D02*
Y930433D01*
G01X796299D02*
X797402D01*
G01X800000D02*
X799634Y930500D01*
X799311Y930776D01*
X799035Y931189D01*
X798850Y931673D01*
X798760Y932224D01*
Y932776D01*
X798850Y933327D01*
X799035Y933811D01*
X799311Y934220D01*
X799634Y934500D01*
X800000Y934567D01*
X800366Y934500D01*
X800689Y934220D01*
X800965Y933811D01*
X801150Y933327D01*
X801240Y932776D01*
Y932224D01*
X801150Y931673D01*
X800965Y931189D01*
X800689Y930776D01*
X800366Y930500D01*
X800000Y930433D01*
G01X803150D02*
Y934567D01*
X802598Y933740D01*
G01Y930433D02*
X803701D01*
G01X805287Y931260D02*
X805563Y930776D01*
X805933Y930500D01*
X806346Y930433D01*
X806713Y930500D01*
X807079Y930846D01*
X807311Y931260D01*
X807354Y931673D01*
X807264Y932154D01*
X806941Y932500D01*
X806622Y932638D01*
X806209D01*
G01X806622D02*
X806898Y932843D01*
X807126Y933189D01*
X807217Y933602D01*
X807126Y934016D01*
X806898Y934358D01*
X806484Y934567D01*
X806071Y934500D01*
X805657Y934220D01*
G01X792689Y940433D02*
Y944567D01*
X793610D01*
X793976Y944358D01*
X794252Y944083D01*
X794480Y943673D01*
X794665Y943189D01*
X794713Y942500D01*
X794665Y941811D01*
X794480Y941327D01*
X794252Y940913D01*
X793976Y940638D01*
X793610Y940433D01*
X792689D01*
G01X796299Y944567D02*
X797402D01*
G01X796850D02*
Y940433D01*
G01X796299D02*
X797402D01*
G01X800000D02*
X799634Y940500D01*
X799311Y940776D01*
X799035Y941189D01*
X798850Y941673D01*
X798760Y942224D01*
Y942776D01*
X798850Y943327D01*
X799035Y943811D01*
X799311Y944220D01*
X799634Y944500D01*
X800000Y944567D01*
X800366Y944500D01*
X800689Y944220D01*
X800965Y943811D01*
X801150Y943327D01*
X801240Y942776D01*
Y942224D01*
X801150Y941673D01*
X800965Y941189D01*
X800689Y940776D01*
X800366Y940500D01*
X800000Y940433D01*
G01X803150D02*
Y944567D01*
X802598Y943740D01*
G01Y940433D02*
X803701D01*
G01X805425Y943878D02*
X805701Y944291D01*
X806024Y944500D01*
X806390Y944567D01*
X806850Y944429D01*
X807173Y944083D01*
X807264Y943673D01*
X807217Y943256D01*
X807035Y942913D01*
X806114Y942224D01*
X805701Y941740D01*
X805425Y941051D01*
X805335Y940433D01*
X807264D01*
G01X792689Y920433D02*
Y924567D01*
X793610D01*
X793976Y924358D01*
X794252Y924083D01*
X794480Y923673D01*
X794665Y923189D01*
X794713Y922500D01*
X794665Y921811D01*
X794480Y921327D01*
X794252Y920913D01*
X793976Y920638D01*
X793610Y920433D01*
X792689D01*
G01X796299Y924567D02*
X797402D01*
G01X796850D02*
Y920433D01*
G01X796299D02*
X797402D01*
G01X800000D02*
X799634Y920500D01*
X799311Y920776D01*
X799035Y921189D01*
X798850Y921673D01*
X798760Y922224D01*
Y922776D01*
X798850Y923327D01*
X799035Y923811D01*
X799311Y924220D01*
X799634Y924500D01*
X800000Y924567D01*
X800366Y924500D01*
X800689Y924220D01*
X800965Y923811D01*
X801150Y923327D01*
X801240Y922776D01*
Y922224D01*
X801150Y921673D01*
X800965Y921189D01*
X800689Y920776D01*
X800366Y920500D01*
X800000Y920433D01*
G01X802276Y923878D02*
X802551Y924291D01*
X802874Y924500D01*
X803240Y924567D01*
X803701Y924429D01*
X804024Y924083D01*
X804114Y923673D01*
X804067Y923256D01*
X803886Y922913D01*
X802965Y922224D01*
X802551Y921740D01*
X802276Y921051D01*
X802185Y920433D01*
X804114D01*
G01X805425Y923878D02*
X805701Y924291D01*
X806024Y924500D01*
X806390Y924567D01*
X806850Y924429D01*
X807173Y924083D01*
X807264Y923673D01*
X807217Y923256D01*
X807035Y922913D01*
X806114Y922224D01*
X805701Y921740D01*
X805425Y921051D01*
X805335Y920433D01*
X807264D01*
G01X792689Y910433D02*
Y914567D01*
X793610D01*
X793976Y914358D01*
X794252Y914083D01*
X794480Y913673D01*
X794665Y913189D01*
X794713Y912500D01*
X794665Y911811D01*
X794480Y911327D01*
X794252Y910913D01*
X793976Y910638D01*
X793610Y910433D01*
X792689D01*
G01X796299Y914567D02*
X797402D01*
G01X796850D02*
Y910433D01*
G01X796299D02*
X797402D01*
G01X800000D02*
X799634Y910500D01*
X799311Y910776D01*
X799035Y911189D01*
X798850Y911673D01*
X798760Y912224D01*
Y912776D01*
X798850Y913327D01*
X799035Y913811D01*
X799311Y914220D01*
X799634Y914500D01*
X800000Y914567D01*
X800366Y914500D01*
X800689Y914220D01*
X800965Y913811D01*
X801150Y913327D01*
X801240Y912776D01*
Y912224D01*
X801150Y911673D01*
X800965Y911189D01*
X800689Y910776D01*
X800366Y910500D01*
X800000Y910433D01*
G01X802276Y913878D02*
X802551Y914291D01*
X802874Y914500D01*
X803240Y914567D01*
X803701Y914429D01*
X804024Y914083D01*
X804114Y913673D01*
X804067Y913256D01*
X803886Y912913D01*
X802965Y912224D01*
X802551Y911740D01*
X802276Y911051D01*
X802185Y910433D01*
X804114D01*
G01X806850D02*
Y914567D01*
X805150Y911606D01*
X807449D01*
G01X792705Y900390D02*
X792681Y904524D01*
X793598Y904528D01*
X793969Y904323D01*
X794244Y904051D01*
X794476Y903638D01*
X794665Y903157D01*
X794713Y902469D01*
X794673Y901780D01*
X794492Y901295D01*
X794264Y900882D01*
X793992Y900602D01*
X793626Y900394D01*
X792705Y900390D01*
G01X796287Y904543D02*
X797390Y904551D01*
G01X796839Y904547D02*
X796866Y900413D01*
G01X796315Y900409D02*
X797417Y900417D01*
G01X800016Y900433D02*
X799650Y900500D01*
X799323Y900776D01*
X799047Y901185D01*
X798858Y901665D01*
X798764Y902217D01*
X798760Y902768D01*
X798850Y903319D01*
X799031Y903803D01*
X799303Y904220D01*
X799622Y904496D01*
X799988Y904567D01*
X800358Y904500D01*
X800681Y904228D01*
X800961Y903815D01*
X801146Y903335D01*
X801240Y902783D01*
X801244Y902232D01*
X801157Y901681D01*
X800976Y901197D01*
X800701Y900783D01*
X800382Y900504D01*
X800016Y900433D01*
G01X803165Y900453D02*
X803138Y904587D01*
X802594Y903756D01*
G01X802614Y900449D02*
X803717Y900457D01*
G01X806287Y904606D02*
X805921Y904469D01*
X805650Y904122D01*
X805469Y903705D01*
X805335Y903154D01*
X805291Y902535D01*
X805343Y901913D01*
X805484Y901362D01*
X805669Y900953D01*
X805945Y900610D01*
X806315Y900472D01*
X806681Y900614D01*
X806957Y900961D01*
X807138Y901374D01*
X807272Y901925D01*
X807311Y902547D01*
X807264Y903165D01*
X807122Y903717D01*
X806933Y904130D01*
X806657Y904472D01*
X806287Y904606D01*
G01X828476Y900433D02*
Y904567D01*
X829398D01*
X829764Y904358D01*
X830039Y904083D01*
X830268Y903673D01*
X830453Y903189D01*
X830500Y902500D01*
X830453Y901811D01*
X830268Y901327D01*
X830039Y900913D01*
X829764Y900638D01*
X829398Y900433D01*
X828476D01*
G01X832087Y904567D02*
X833189D01*
G01X832638D02*
Y900433D01*
G01X832087D02*
X833189D01*
G01X835787D02*
X835421Y900500D01*
X835098Y900776D01*
X834823Y901189D01*
X834638Y901673D01*
X834547Y902224D01*
Y902776D01*
X834638Y903327D01*
X834823Y903811D01*
X835098Y904220D01*
X835421Y904500D01*
X835787Y904567D01*
X836154Y904500D01*
X836476Y904220D01*
X836752Y903811D01*
X836937Y903327D01*
X837028Y902776D01*
Y902224D01*
X836937Y901673D01*
X836752Y901189D01*
X836476Y900776D01*
X836154Y900500D01*
X835787Y900433D01*
G01X838063Y903878D02*
X838339Y904291D01*
X838661Y904500D01*
X839028Y904567D01*
X839488Y904429D01*
X839811Y904083D01*
X839902Y903673D01*
X839854Y903256D01*
X839673Y902913D01*
X838752Y902224D01*
X838339Y901740D01*
X838063Y901051D01*
X837972Y900433D01*
X839902D01*
G01X841307Y900913D02*
X841626Y900571D01*
X841996Y900433D01*
X842362Y900571D01*
X842685Y900984D01*
X842913Y901606D01*
X843004Y902224D01*
Y902980D01*
X842913Y903602D01*
X842685Y904154D01*
X842409Y904429D01*
X842087Y904567D01*
X841720Y904429D01*
X841445Y904154D01*
X841260Y903740D01*
X841169Y903189D01*
X841260Y902709D01*
X841488Y902224D01*
X841764Y901949D01*
X842087Y901878D01*
X842453Y902016D01*
X842728Y902362D01*
X843004Y902980D01*
G01X828476Y910433D02*
Y914567D01*
X829398D01*
X829764Y914358D01*
X830039Y914083D01*
X830268Y913673D01*
X830453Y913189D01*
X830500Y912500D01*
X830453Y911811D01*
X830268Y911327D01*
X830039Y910913D01*
X829764Y910638D01*
X829398Y910433D01*
X828476D01*
G01X832087Y914567D02*
X833189D01*
G01X832638D02*
Y910433D01*
G01X832087D02*
X833189D01*
G01X835787D02*
X835421Y910500D01*
X835098Y910776D01*
X834823Y911189D01*
X834638Y911673D01*
X834547Y912224D01*
Y912776D01*
X834638Y913327D01*
X834823Y913811D01*
X835098Y914220D01*
X835421Y914500D01*
X835787Y914567D01*
X836154Y914500D01*
X836476Y914220D01*
X836752Y913811D01*
X836937Y913327D01*
X837028Y912776D01*
Y912224D01*
X836937Y911673D01*
X836752Y911189D01*
X836476Y910776D01*
X836154Y910500D01*
X835787Y910433D01*
G01X838063Y913878D02*
X838339Y914291D01*
X838661Y914500D01*
X839028Y914567D01*
X839488Y914429D01*
X839811Y914083D01*
X839902Y913673D01*
X839854Y913256D01*
X839673Y912913D01*
X838752Y912224D01*
X838339Y911740D01*
X838063Y911051D01*
X837972Y910433D01*
X839902D01*
G01X842087D02*
X842409Y910500D01*
X842776Y910709D01*
X843004Y911051D01*
X843098Y911535D01*
X843004Y912016D01*
X842728Y912429D01*
X842315Y912638D01*
X841858D01*
X841583Y912776D01*
X841350Y913118D01*
X841260Y913602D01*
X841398Y914083D01*
X841720Y914429D01*
X842087Y914567D01*
X842453Y914429D01*
X842776Y914083D01*
X842913Y913602D01*
X842823Y913118D01*
X842591Y912776D01*
X842315Y912638D01*
X841858D01*
X841445Y912429D01*
X841169Y912016D01*
X841075Y911535D01*
X841169Y911051D01*
X841398Y910709D01*
X841764Y910500D01*
X842087Y910433D01*
G01X828476Y920433D02*
Y924567D01*
X829398D01*
X829764Y924358D01*
X830039Y924083D01*
X830268Y923673D01*
X830453Y923189D01*
X830500Y922500D01*
X830453Y921811D01*
X830268Y921327D01*
X830039Y920913D01*
X829764Y920638D01*
X829398Y920433D01*
X828476D01*
G01X832087Y924567D02*
X833189D01*
G01X832638D02*
Y920433D01*
G01X832087D02*
X833189D01*
G01X835787D02*
X835421Y920500D01*
X835098Y920776D01*
X834823Y921189D01*
X834638Y921673D01*
X834547Y922224D01*
Y922776D01*
X834638Y923327D01*
X834823Y923811D01*
X835098Y924220D01*
X835421Y924500D01*
X835787Y924567D01*
X836154Y924500D01*
X836476Y924220D01*
X836752Y923811D01*
X836937Y923327D01*
X837028Y922776D01*
Y922224D01*
X836937Y921673D01*
X836752Y921189D01*
X836476Y920776D01*
X836154Y920500D01*
X835787Y920433D01*
G01X838063Y923878D02*
X838339Y924291D01*
X838661Y924500D01*
X839028Y924567D01*
X839488Y924429D01*
X839811Y924083D01*
X839902Y923673D01*
X839854Y923256D01*
X839673Y922913D01*
X838752Y922224D01*
X838339Y921740D01*
X838063Y921051D01*
X837972Y920433D01*
X839902D01*
G01X841996D02*
X842087Y921327D01*
X842224Y922087D01*
X842409Y922776D01*
X842638Y923531D01*
X843004Y924567D01*
X841169D01*
G01X828476Y940433D02*
Y944567D01*
X829398D01*
X829764Y944358D01*
X830039Y944083D01*
X830268Y943673D01*
X830453Y943189D01*
X830500Y942500D01*
X830453Y941811D01*
X830268Y941327D01*
X830039Y940913D01*
X829764Y940638D01*
X829398Y940433D01*
X828476D01*
G01X832087Y944567D02*
X833189D01*
G01X832638D02*
Y940433D01*
G01X832087D02*
X833189D01*
G01X835787D02*
X835421Y940500D01*
X835098Y940776D01*
X834823Y941189D01*
X834638Y941673D01*
X834547Y942224D01*
Y942776D01*
X834638Y943327D01*
X834823Y943811D01*
X835098Y944220D01*
X835421Y944500D01*
X835787Y944567D01*
X836154Y944500D01*
X836476Y944220D01*
X836752Y943811D01*
X836937Y943327D01*
X837028Y942776D01*
Y942224D01*
X836937Y941673D01*
X836752Y941189D01*
X836476Y940776D01*
X836154Y940500D01*
X835787Y940433D01*
G01X838063Y943878D02*
X838339Y944291D01*
X838661Y944500D01*
X839028Y944567D01*
X839488Y944429D01*
X839811Y944083D01*
X839902Y943673D01*
X839854Y943256D01*
X839673Y942913D01*
X838752Y942224D01*
X838339Y941740D01*
X838063Y941051D01*
X837972Y940433D01*
X839902D01*
G01X841075Y941051D02*
X841350Y940709D01*
X841673Y940500D01*
X842087Y940433D01*
X842500Y940571D01*
X842823Y940846D01*
X843051Y941327D01*
X843098Y941878D01*
X843004Y942429D01*
X842776Y942776D01*
X842453Y943051D01*
X842134Y943118D01*
X841811Y943051D01*
X841398Y942776D01*
X841535Y944567D01*
X842776D01*
G01X828476Y930433D02*
Y934567D01*
X829398D01*
X829764Y934358D01*
X830039Y934083D01*
X830268Y933673D01*
X830453Y933189D01*
X830500Y932500D01*
X830453Y931811D01*
X830268Y931327D01*
X830039Y930913D01*
X829764Y930638D01*
X829398Y930433D01*
X828476D01*
G01X832087Y934567D02*
X833189D01*
G01X832638D02*
Y930433D01*
G01X832087D02*
X833189D01*
G01X835787D02*
X835421Y930500D01*
X835098Y930776D01*
X834823Y931189D01*
X834638Y931673D01*
X834547Y932224D01*
Y932776D01*
X834638Y933327D01*
X834823Y933811D01*
X835098Y934220D01*
X835421Y934500D01*
X835787Y934567D01*
X836154Y934500D01*
X836476Y934220D01*
X836752Y933811D01*
X836937Y933327D01*
X837028Y932776D01*
Y932224D01*
X836937Y931673D01*
X836752Y931189D01*
X836476Y930776D01*
X836154Y930500D01*
X835787Y930433D01*
G01X838063Y933878D02*
X838339Y934291D01*
X838661Y934500D01*
X839028Y934567D01*
X839488Y934429D01*
X839811Y934083D01*
X839902Y933673D01*
X839854Y933256D01*
X839673Y932913D01*
X838752Y932224D01*
X838339Y931740D01*
X838063Y931051D01*
X837972Y930433D01*
X839902D01*
G01X841213Y932154D02*
X841535Y932638D01*
X841811Y932913D01*
X842177Y933051D01*
X842500Y932913D01*
X842728Y932638D01*
X842913Y932224D01*
X842961Y931740D01*
X842913Y931327D01*
X842728Y930913D01*
X842453Y930571D01*
X842134Y930433D01*
X841764Y930571D01*
X841445Y930984D01*
X841260Y931606D01*
X841213Y932291D01*
X841307Y933189D01*
X841445Y933673D01*
X841673Y934154D01*
X841996Y934500D01*
X842315Y934567D01*
X842638Y934429D01*
X842866Y934083D01*
G01X809224Y995118D02*
X809409Y995323D01*
X809547Y995669D01*
X809638Y996154D01*
X809547Y996563D01*
X809362Y996839D01*
X809043Y997047D01*
X807803D01*
Y992913D01*
X809319D01*
X809638Y993189D01*
X809823Y993602D01*
X809913Y994087D01*
X809823Y994567D01*
X809547Y994980D01*
X809224Y995118D01*
X807803D01*
G01X812008Y997047D02*
Y992913D01*
G01X810953Y997047D02*
X813063D01*
G01X814102Y992913D02*
Y997047D01*
X816213Y992913D01*
Y997047D01*
G01X817709Y994291D02*
X818906D01*
G01X821457Y992913D02*
Y997047D01*
X820906Y996220D01*
G01Y992913D02*
X822008D01*
G01X807453Y985433D02*
Y989567D01*
X808374D01*
X808740Y989358D01*
X809016Y989083D01*
X809244Y988673D01*
X809429Y988189D01*
X809476Y987500D01*
X809429Y986811D01*
X809244Y986327D01*
X809016Y985913D01*
X808740Y985638D01*
X808374Y985433D01*
X807453D01*
G01X811063Y989567D02*
X812165D01*
G01X811614D02*
Y985433D01*
G01X811063D02*
X812165D01*
G01X814764D02*
X814398Y985500D01*
X814075Y985776D01*
X813799Y986189D01*
X813614Y986673D01*
X813524Y987224D01*
Y987776D01*
X813614Y988327D01*
X813799Y988811D01*
X814075Y989220D01*
X814398Y989500D01*
X814764Y989567D01*
X815130Y989500D01*
X815453Y989220D01*
X815728Y988811D01*
X815913Y988327D01*
X816004Y987776D01*
Y987224D01*
X815913Y986673D01*
X815728Y986189D01*
X815453Y985776D01*
X815130Y985500D01*
X814764Y985433D01*
G01X817913D02*
Y989567D01*
X817362Y988740D01*
G01Y985433D02*
X818465D01*
G01X820051Y986051D02*
X820327Y985709D01*
X820650Y985500D01*
X821063Y985433D01*
X821476Y985571D01*
X821799Y985846D01*
X822028Y986327D01*
X822075Y986878D01*
X821980Y987429D01*
X821752Y987776D01*
X821429Y988051D01*
X821110Y988118D01*
X820787Y988051D01*
X820374Y987776D01*
X820512Y989567D01*
X821752D01*
G01X864677Y834154D02*
X864953Y834567D01*
X865276Y834776D01*
X865642Y834843D01*
X866102Y834705D01*
X866425Y834358D01*
X866516Y833949D01*
X866469Y833531D01*
X866287Y833189D01*
X865366Y832500D01*
X864953Y832016D01*
X864677Y831327D01*
X864587Y830709D01*
X866516D01*
G01X868701Y830571D02*
X868610Y830642D01*
Y830776D01*
X868701Y830846D01*
X868791Y830776D01*
Y830642D01*
X868701Y830571D01*
G01X872402Y830709D02*
Y834843D01*
X870701Y831882D01*
X873000D01*
G01X878425Y832776D02*
X879343D01*
Y831535D01*
X879067Y831122D01*
X878748Y830846D01*
X878287Y830709D01*
X877827Y830846D01*
X877508Y831122D01*
X877232Y831535D01*
X877047Y832016D01*
X876957Y832567D01*
Y833051D01*
X877047Y833465D01*
X877232Y833949D01*
X877508Y834358D01*
X877783Y834634D01*
X878150Y834843D01*
X878472D01*
X878839Y834705D01*
X879114Y834429D01*
G01X880335Y830709D02*
Y834843D01*
G01X882264D02*
Y830709D01*
G01Y832776D02*
X880335D01*
G01X883760Y833465D02*
X885138D01*
X883760Y830709D01*
X885138D01*
G01X846858Y887067D02*
Y882933D01*
X848693D01*
G01X851843D02*
X850008D01*
Y887067D01*
X851843D01*
G01X851110Y885071D02*
X850008D01*
G01X853063Y882933D02*
Y887067D01*
X853984D01*
X854350Y886858D01*
X854626Y886583D01*
X854854Y886173D01*
X855039Y885689D01*
X855087Y885000D01*
X855039Y884311D01*
X854854Y883827D01*
X854626Y883413D01*
X854350Y883138D01*
X853984Y882933D01*
X853063D01*
G01X856535Y883413D02*
X856764Y883138D01*
X857087Y882933D01*
X857362D01*
X857638Y883071D01*
X857823Y883276D01*
X857913Y883551D01*
X857866Y883969D01*
X857685Y884173D01*
X856858Y884587D01*
X856673Y885071D01*
X856764Y885413D01*
X856949Y885618D01*
X857224Y885689D01*
X857500Y885618D01*
X857776Y885413D01*
G01X863465Y855020D02*
X864382D01*
Y853780D01*
X864106Y853366D01*
X863787Y853091D01*
X863327Y852953D01*
X862866Y853091D01*
X862547Y853366D01*
X862272Y853780D01*
X862087Y854260D01*
X861996Y854811D01*
Y855295D01*
X862087Y855709D01*
X862272Y856193D01*
X862547Y856602D01*
X862823Y856878D01*
X863189Y857087D01*
X863512D01*
X863878Y856949D01*
X864154Y856673D01*
G01X865697Y852953D02*
Y855709D01*
G01Y855157D02*
X865925Y855433D01*
X866154Y855638D01*
X866476Y855709D01*
X866705Y855638D01*
X866980Y855433D01*
G01X868799Y854811D02*
X870268D01*
X870130Y855295D01*
X869902Y855571D01*
X869579Y855709D01*
X869260Y855638D01*
X868984Y855433D01*
X868799Y854949D01*
X868709Y854535D01*
Y854126D01*
X868799Y853709D01*
X869028Y853295D01*
X869303Y853020D01*
X869626Y852953D01*
X869949Y853091D01*
X870268Y853504D01*
G01X871949Y854811D02*
X873417D01*
X873280Y855295D01*
X873051Y855571D01*
X872728Y855709D01*
X872409Y855638D01*
X872134Y855433D01*
X871949Y854949D01*
X871858Y854535D01*
Y854126D01*
X871949Y853709D01*
X872177Y853295D01*
X872453Y853020D01*
X872776Y852953D01*
X873098Y853091D01*
X873417Y853504D01*
G01X875008Y852953D02*
Y855709D01*
G01Y855020D02*
X875189Y855362D01*
X875465Y855638D01*
X875835Y855709D01*
X876154Y855638D01*
X876429Y855362D01*
X876567Y854882D01*
Y852953D01*
G01X878937Y852815D02*
X878846Y852886D01*
Y853020D01*
X878937Y853091D01*
X879028Y853020D01*
Y852886D01*
X878937Y852815D01*
G01Y854673D02*
X878846Y854744D01*
Y854882D01*
X878937Y854949D01*
X879028Y854882D01*
Y854744D01*
X878937Y854673D01*
G01X862374Y847343D02*
Y851476D01*
X863295D01*
X863661Y851268D01*
X863937Y850992D01*
X864165Y850583D01*
X864350Y850098D01*
X864398Y849409D01*
X864350Y848720D01*
X864165Y848236D01*
X863937Y847823D01*
X863661Y847547D01*
X863295Y847343D01*
X862374D01*
G01X865984Y851476D02*
X867087D01*
G01X866535D02*
Y847343D01*
G01X865984D02*
X867087D01*
G01X869685D02*
X869319Y847409D01*
X868996Y847685D01*
X868720Y848098D01*
X868535Y848583D01*
X868445Y849134D01*
Y849685D01*
X868535Y850236D01*
X868720Y850720D01*
X868996Y851130D01*
X869319Y851409D01*
X869685Y851476D01*
X870051Y851409D01*
X870374Y851130D01*
X870650Y850720D01*
X870835Y850236D01*
X870925Y849685D01*
Y849134D01*
X870835Y848583D01*
X870650Y848098D01*
X870374Y847685D01*
X870051Y847409D01*
X869685Y847343D01*
G01X872744D02*
X872835Y848236D01*
X872972Y848996D01*
X873157Y849685D01*
X873386Y850441D01*
X873752Y851476D01*
X871917D01*
G01X869488Y980906D02*
X873622D01*
G01X869488Y979850D02*
Y981961D01*
G01X873622Y983091D02*
X869488Y985020D01*
G01Y983091D02*
X873622Y985020D01*
G01Y986193D02*
X869488D01*
Y987114D01*
X869697Y987480D01*
X869972Y987756D01*
X870382Y987984D01*
X870866Y988169D01*
X871555Y988217D01*
X872244Y988169D01*
X872728Y987984D01*
X873142Y987756D01*
X873417Y987480D01*
X873622Y987114D01*
Y986193D01*
G01Y989437D02*
X872244Y991272D01*
X870866Y989437D01*
G01X873622Y992587D02*
X872244Y994421D01*
X870866Y992587D01*
G01X864567Y979988D02*
X860433D01*
Y981134D01*
X860642Y981504D01*
X860917Y981732D01*
X861469Y981823D01*
X862020Y981732D01*
X862362Y981457D01*
X862571Y981134D01*
Y979988D01*
G01Y981134D02*
X864567Y981823D01*
G01Y983091D02*
X860433Y985020D01*
G01Y983091D02*
X864567Y985020D01*
G01Y986193D02*
X860433D01*
Y987114D01*
X860642Y987480D01*
X860917Y987756D01*
X861327Y987984D01*
X861811Y988169D01*
X862500Y988217D01*
X863189Y988169D01*
X863673Y987984D01*
X864087Y987756D01*
X864362Y987480D01*
X864567Y987114D01*
Y986193D01*
G01Y991272D02*
X863189Y989437D01*
X861811Y991272D01*
G01X864567Y994421D02*
X863189Y992587D01*
X861811Y994421D01*
G01X890748Y987598D02*
X894882D01*
G01X890748Y986543D02*
Y988654D01*
G01X894882Y989555D02*
X890748D01*
X894193Y990748D01*
X890748Y991941D01*
X894882D01*
G01X894331Y992933D02*
X894677Y993299D01*
X894882Y993713D01*
Y994083D01*
X894677Y994449D01*
X894331Y994724D01*
X893846Y994862D01*
X893366Y994772D01*
X892953Y994539D01*
X892677Y994126D01*
X892539Y993575D01*
X892264Y993256D01*
X891783Y993118D01*
X891299Y993209D01*
X890957Y993437D01*
X890748Y993760D01*
Y994083D01*
X890886Y994402D01*
X891232Y994677D01*
G01X885433Y987075D02*
X881299D01*
Y988220D01*
X881508Y988591D01*
X881783Y988819D01*
X882335Y988909D01*
X882886Y988819D01*
X883228Y988543D01*
X883437Y988220D01*
Y987075D01*
G01Y988220D02*
X885433Y988909D01*
G01X884882Y990177D02*
X885228Y990543D01*
X885433Y990957D01*
Y991327D01*
X885228Y991693D01*
X884882Y991969D01*
X884398Y992106D01*
X883917Y992016D01*
X883504Y991783D01*
X883228Y991370D01*
X883091Y990819D01*
X882815Y990500D01*
X882335Y990362D01*
X881850Y990453D01*
X881508Y990681D01*
X881299Y991004D01*
Y991327D01*
X881437Y991646D01*
X881783Y991921D01*
G01X881299Y994291D02*
X885433D01*
G01X881299Y993236D02*
Y995346D01*
G01X911150Y763433D02*
X910874Y763642D01*
X910551Y763780D01*
X910185D01*
X909772Y763571D01*
X909449Y763228D01*
X909220Y762815D01*
X909035Y762126D01*
X908988Y761504D01*
X909083Y760886D01*
X909220Y760472D01*
X909496Y760059D01*
X909815Y759783D01*
X910138Y759646D01*
X910461D01*
X910780Y759783D01*
X911055Y759988D01*
X911287Y760264D01*
G01X914299Y763433D02*
X914024Y763642D01*
X913701Y763780D01*
X913335D01*
X912921Y763571D01*
X912598Y763228D01*
X912370Y762815D01*
X912185Y762126D01*
X912138Y761504D01*
X912232Y760886D01*
X912370Y760472D01*
X912646Y760059D01*
X912965Y759783D01*
X913287Y759646D01*
X913610D01*
X913929Y759783D01*
X914205Y759988D01*
X914437Y760264D01*
G01X915839Y761024D02*
X917035D01*
G01X918437Y759646D02*
X919587Y763780D01*
X920736Y759646D01*
G01X920323Y761091D02*
X918850D01*
G01X921681Y759646D02*
Y763780D01*
X923791Y759646D01*
Y763780D01*
G01X925886D02*
Y759646D01*
G01X924831Y763780D02*
X926941D01*
G01X929953Y759646D02*
X928118D01*
Y763780D01*
X929953D01*
G01X929220Y761783D02*
X928118D01*
G01X931130Y759646D02*
Y763780D01*
X933240Y759646D01*
Y763780D01*
G01X934280Y759646D02*
Y763780D01*
X936390Y759646D01*
Y763780D01*
G01X937335Y759646D02*
X938484Y763780D01*
X939634Y759646D01*
G01X939220Y761091D02*
X937748D01*
G01X941035Y761024D02*
X942232D01*
G01X943772Y759646D02*
Y763780D01*
X944693D01*
X945059Y763571D01*
X945335Y763295D01*
X945563Y762886D01*
X945748Y762402D01*
X945795Y761713D01*
X945748Y761024D01*
X945563Y760539D01*
X945335Y760126D01*
X945059Y759850D01*
X944693Y759646D01*
X943772D01*
G01X946921D02*
Y763780D01*
G01X948669D02*
X946921Y761228D01*
G01X948945Y759646D02*
X947705Y762402D01*
G01X914063Y765945D02*
Y770079D01*
X915256Y766634D01*
X916449Y770079D01*
Y765945D01*
G01X918406D02*
X918130Y766012D01*
X917854Y766287D01*
X917669Y766772D01*
X917579Y767323D01*
X917669Y767874D01*
X917854Y768354D01*
X918130Y768630D01*
X918406Y768701D01*
X918681Y768630D01*
X918957Y768354D01*
X919142Y767874D01*
X919185Y767323D01*
X919142Y766772D01*
X918957Y766287D01*
X918681Y766012D01*
X918406Y765945D01*
G01X920776Y768701D02*
Y766772D01*
X920957Y766287D01*
X921232Y766012D01*
X921555Y765945D01*
X921878Y766012D01*
X922154Y766287D01*
X922335Y766772D01*
G01Y765945D02*
Y768701D01*
G01X923925Y765945D02*
Y768701D01*
G01Y768012D02*
X924106Y768354D01*
X924382Y768630D01*
X924752Y768701D01*
X925071Y768630D01*
X925346Y768354D01*
X925484Y767874D01*
Y765945D01*
G01X927854Y770079D02*
Y765945D01*
G01X927213Y768701D02*
X928496D01*
G01X933878Y765945D02*
Y769461D01*
X933969Y769803D01*
X934154Y770012D01*
X934429Y770079D01*
X934705Y769941D01*
X934843Y769594D01*
G01X934291Y768425D02*
X933374D01*
G01X937303Y765945D02*
X937028Y766012D01*
X936752Y766287D01*
X936567Y766772D01*
X936476Y767323D01*
X936567Y767874D01*
X936752Y768354D01*
X937028Y768630D01*
X937303Y768701D01*
X937579Y768630D01*
X937854Y768354D01*
X938039Y767874D01*
X938083Y767323D01*
X938039Y766772D01*
X937854Y766287D01*
X937579Y766012D01*
X937303Y765945D01*
G01X939811D02*
Y768701D01*
G01Y768150D02*
X940039Y768425D01*
X940268Y768630D01*
X940591Y768701D01*
X940819Y768630D01*
X941094Y768425D01*
G01X943602Y765807D02*
X943512Y765878D01*
Y766012D01*
X943602Y766083D01*
X943693Y766012D01*
Y765878D01*
X943602Y765807D01*
G01Y767665D02*
X943512Y767736D01*
Y767874D01*
X943602Y767941D01*
X943693Y767874D01*
Y767736D01*
X943602Y767665D01*
G01X912815Y831260D02*
X913181Y830913D01*
X913594Y830709D01*
X913965D01*
X914331Y830913D01*
X914606Y831260D01*
X914744Y831744D01*
X914654Y832224D01*
X914421Y832638D01*
X914008Y832913D01*
X913457Y833051D01*
X913138Y833327D01*
X913000Y833807D01*
X913091Y834291D01*
X913319Y834634D01*
X913642Y834843D01*
X913965D01*
X914283Y834705D01*
X914559Y834358D01*
G01X916150Y833465D02*
Y831535D01*
X916331Y831051D01*
X916606Y830776D01*
X916929Y830709D01*
X917252Y830776D01*
X917528Y831051D01*
X917709Y831535D01*
G01Y830709D02*
Y833465D01*
G01X919252Y830709D02*
Y834843D01*
G01Y832776D02*
X919480Y833189D01*
X919756Y833394D01*
X920031Y833465D01*
X920445Y833327D01*
X920720Y833051D01*
X920906Y832567D01*
Y832016D01*
X920815Y831465D01*
X920630Y831051D01*
X920307Y830776D01*
X920031Y830709D01*
X919756Y830776D01*
X919480Y830984D01*
X919252Y831327D01*
G01X922630Y832087D02*
X923827D01*
G01X926378Y830709D02*
Y834843D01*
X925827Y834016D01*
G01Y830709D02*
X926929D01*
G01X932953Y832776D02*
X933870D01*
Y831535D01*
X933594Y831122D01*
X933276Y830846D01*
X932815Y830709D01*
X932354Y830846D01*
X932035Y831122D01*
X931760Y831535D01*
X931575Y832016D01*
X931484Y832567D01*
Y833051D01*
X931575Y833465D01*
X931760Y833949D01*
X932035Y834358D01*
X932311Y834634D01*
X932677Y834843D01*
X933000D01*
X933366Y834705D01*
X933642Y834429D01*
G01X934862Y830709D02*
Y834843D01*
G01X936791D02*
Y830709D01*
G01Y832776D02*
X934862D01*
G01X938287Y833465D02*
X939665D01*
X938287Y830709D01*
X939665D01*
G01X919882Y987598D02*
X924016D01*
G01X919882Y986543D02*
Y988654D01*
G01X924016Y989736D02*
X919882D01*
Y990657D01*
X920091Y991024D01*
X920366Y991299D01*
X920776Y991528D01*
X921260Y991713D01*
X921949Y991760D01*
X922638Y991713D01*
X923122Y991528D01*
X923535Y991299D01*
X923811Y991024D01*
X924016Y990657D01*
Y989736D01*
G01X919882Y993346D02*
Y994449D01*
G01Y993898D02*
X924016D01*
G01Y993346D02*
Y994449D01*
G01X910039Y987598D02*
X914173D01*
G01X910039Y986543D02*
Y988654D01*
G01X914173Y989736D02*
X910039D01*
Y990657D01*
X910248Y991024D01*
X910524Y991299D01*
X910933Y991528D01*
X911417Y991713D01*
X912106Y991760D01*
X912795Y991713D01*
X913280Y991528D01*
X913693Y991299D01*
X913969Y991024D01*
X914173Y990657D01*
Y989736D01*
G01Y993898D02*
X914106Y993531D01*
X913831Y993209D01*
X913417Y992933D01*
X912933Y992748D01*
X912382Y992657D01*
X911831D01*
X911280Y992748D01*
X910795Y992933D01*
X910386Y993209D01*
X910106Y993531D01*
X910039Y993898D01*
X910106Y994264D01*
X910386Y994587D01*
X910795Y994862D01*
X911280Y995047D01*
X911831Y995138D01*
X912382D01*
X912933Y995047D01*
X913417Y994862D01*
X913831Y994587D01*
X914106Y994264D01*
X914173Y993898D01*
G01X899803Y987598D02*
X903937D01*
G01X899803Y986543D02*
Y988654D01*
G01X900150Y991760D02*
X899941Y991484D01*
X899803Y991161D01*
Y990795D01*
X900012Y990382D01*
X900354Y990059D01*
X900768Y989831D01*
X901457Y989646D01*
X902079Y989598D01*
X902697Y989693D01*
X903110Y989831D01*
X903524Y990106D01*
X903799Y990425D01*
X903937Y990748D01*
Y991071D01*
X903799Y991390D01*
X903594Y991665D01*
X903319Y991898D01*
G01X903937Y992886D02*
X899803D01*
G01Y994634D02*
X902354Y992886D01*
G01X903937Y994909D02*
X901181Y993669D01*
G01X933307Y987028D02*
X933654Y987394D01*
X933858Y987807D01*
Y988177D01*
X933654Y988543D01*
X933307Y988819D01*
X932823Y988957D01*
X932343Y988866D01*
X931929Y988634D01*
X931654Y988220D01*
X931516Y987669D01*
X931240Y987350D01*
X930760Y987213D01*
X930276Y987303D01*
X929933Y987531D01*
X929724Y987854D01*
Y988177D01*
X929862Y988496D01*
X930209Y988772D01*
G01X929724Y989764D02*
X933858Y990406D01*
X929724Y991142D01*
X933858Y991878D01*
X929724Y992520D01*
G01X933858Y994291D02*
X933791Y993925D01*
X933516Y993602D01*
X933102Y993327D01*
X932618Y993142D01*
X932067Y993051D01*
X931516D01*
X930965Y993142D01*
X930480Y993327D01*
X930071Y993602D01*
X929791Y993925D01*
X929724Y994291D01*
X929791Y994657D01*
X930071Y994980D01*
X930480Y995256D01*
X930965Y995441D01*
X931516Y995531D01*
X932067D01*
X932618Y995441D01*
X933102Y995256D01*
X933516Y994980D01*
X933791Y994657D01*
X933858Y994291D01*
G01X917421Y981890D02*
Y977756D01*
G01X916366Y981890D02*
X918476D01*
G01X921398Y977756D02*
Y980512D01*
G01Y980031D02*
X921213Y980303D01*
X920937Y980441D01*
X920618Y980512D01*
X920295Y980374D01*
X920020Y980098D01*
X919835Y979685D01*
X919744Y979134D01*
X919835Y978583D01*
X920020Y978169D01*
X920295Y977894D01*
X920618Y977756D01*
X920937Y977823D01*
X921213Y978031D01*
X921398Y978307D01*
G01X923079Y977756D02*
Y980512D01*
G01Y979961D02*
X923307Y980236D01*
X923535Y980441D01*
X923858Y980512D01*
X924087Y980441D01*
X924362Y980236D01*
G01X926228Y976720D02*
X926547Y976449D01*
X926917Y976378D01*
X927236Y976449D01*
X927512Y976791D01*
X927697Y977272D01*
Y980512D01*
G01Y979961D02*
X927512Y980236D01*
X927236Y980441D01*
X926917Y980512D01*
X926547Y980374D01*
X926319Y980098D01*
X926134Y979614D01*
X926043Y979134D01*
X926091Y978720D01*
X926272Y978236D01*
X926547Y977894D01*
X926917Y977756D01*
X927193Y977823D01*
X927512Y978098D01*
X927697Y978374D01*
G01X929331Y979614D02*
X930799D01*
X930661Y980098D01*
X930433Y980374D01*
X930110Y980512D01*
X929791Y980441D01*
X929516Y980236D01*
X929331Y979752D01*
X929240Y979339D01*
Y978929D01*
X929331Y978512D01*
X929559Y978098D01*
X929835Y977823D01*
X930157Y977756D01*
X930480Y977894D01*
X930799Y978307D01*
G01X933169Y981890D02*
Y977756D01*
G01X932528Y980512D02*
X933811D01*
G01X938917Y981890D02*
X940020D01*
G01X939469D02*
Y977756D01*
G01X938917D02*
X940020D01*
G01X941839D02*
Y980512D01*
G01Y979823D02*
X942020Y980165D01*
X942295Y980441D01*
X942665Y980512D01*
X942984Y980441D01*
X943260Y980165D01*
X943398Y979685D01*
Y977756D01*
G01X924232Y1035039D02*
X926161Y1039173D01*
G01X924232D02*
X926161Y1035039D01*
G01X927335D02*
Y1039173D01*
X928256D01*
X928622Y1038965D01*
X928898Y1038689D01*
X929126Y1038280D01*
X929311Y1037795D01*
X929358Y1037106D01*
X929311Y1036417D01*
X929126Y1035933D01*
X928898Y1035520D01*
X928622Y1035244D01*
X928256Y1035039D01*
X927335D01*
G01X930531Y1035591D02*
X930898Y1035244D01*
X931311Y1035039D01*
X931681D01*
X932047Y1035244D01*
X932323Y1035591D01*
X932461Y1036075D01*
X932370Y1036555D01*
X932138Y1036969D01*
X931724Y1037244D01*
X931173Y1037382D01*
X930854Y1037657D01*
X930717Y1038138D01*
X930807Y1038622D01*
X931035Y1038965D01*
X931358Y1039173D01*
X931681D01*
X932000Y1039035D01*
X932276Y1038689D01*
G01X934646Y1035039D02*
Y1039173D01*
X934094Y1038346D01*
G01Y1035039D02*
X935197D01*
G01X937795D02*
Y1039173D01*
X937244Y1038346D01*
G01Y1035039D02*
X938346D01*
G01X940945Y1039173D02*
X940579Y1039035D01*
X940303Y1038689D01*
X940118Y1038280D01*
X939980Y1037724D01*
X939933Y1037106D01*
X939980Y1036484D01*
X940118Y1035933D01*
X940303Y1035520D01*
X940579Y1035177D01*
X940945Y1035039D01*
X941311Y1035177D01*
X941587Y1035520D01*
X941772Y1035933D01*
X941909Y1036484D01*
X941957Y1037106D01*
X941909Y1037724D01*
X941772Y1038280D01*
X941587Y1038689D01*
X941311Y1039035D01*
X940945Y1039173D01*
G01X925197Y1028740D02*
X924831Y1028807D01*
X924508Y1029083D01*
X924232Y1029496D01*
X924047Y1029980D01*
X923957Y1030531D01*
Y1031083D01*
X924047Y1031634D01*
X924232Y1032118D01*
X924508Y1032528D01*
X924831Y1032807D01*
X925197Y1032874D01*
X925563Y1032807D01*
X925886Y1032528D01*
X926161Y1032118D01*
X926346Y1031634D01*
X926437Y1031083D01*
Y1030531D01*
X926346Y1029980D01*
X926161Y1029496D01*
X925886Y1029083D01*
X925563Y1028807D01*
X925197Y1028740D01*
G01X927567Y1031496D02*
Y1029567D01*
X927748Y1029083D01*
X928024Y1028807D01*
X928346Y1028740D01*
X928669Y1028807D01*
X928945Y1029083D01*
X929126Y1029567D01*
G01Y1028740D02*
Y1031496D01*
G01X931496Y1032874D02*
Y1028740D01*
G01X930854Y1031496D02*
X932138D01*
G01X993799Y609350D02*
X994441Y605217D01*
X995177Y609350D01*
X995913Y605217D01*
X996555Y609350D01*
G01X999339Y609004D02*
X999063Y609213D01*
X998740Y609350D01*
X998374D01*
X997961Y609142D01*
X997638Y608799D01*
X997409Y608386D01*
X997224Y607697D01*
X997177Y607075D01*
X997272Y606457D01*
X997409Y606043D01*
X997685Y605630D01*
X998004Y605354D01*
X998327Y605217D01*
X998650D01*
X998969Y605354D01*
X999244Y605559D01*
X999476Y605835D01*
G01X1000512Y605768D02*
X1000878Y605421D01*
X1001291Y605217D01*
X1001661D01*
X1002028Y605421D01*
X1002303Y605768D01*
X1002441Y606252D01*
X1002350Y606732D01*
X1002118Y607146D01*
X1001705Y607421D01*
X1001154Y607559D01*
X1000835Y607835D01*
X1000697Y608315D01*
X1000787Y608799D01*
X1001016Y609142D01*
X1001339Y609350D01*
X1001661D01*
X1001980Y609213D01*
X1002256Y608866D01*
G01X1004626Y609350D02*
X1004260Y609213D01*
X1003984Y608866D01*
X1003799Y608457D01*
X1003661Y607902D01*
X1003614Y607283D01*
X1003661Y606661D01*
X1003799Y606110D01*
X1003984Y605697D01*
X1004260Y605354D01*
X1004626Y605217D01*
X1004992Y605354D01*
X1005268Y605697D01*
X1005453Y606110D01*
X1005591Y606661D01*
X1005638Y607283D01*
X1005591Y607902D01*
X1005453Y608457D01*
X1005268Y608866D01*
X1004992Y609213D01*
X1004626Y609350D01*
G01X1006764Y606043D02*
X1007039Y605559D01*
X1007409Y605283D01*
X1007823Y605217D01*
X1008189Y605283D01*
X1008555Y605630D01*
X1008787Y606043D01*
X1008831Y606457D01*
X1008740Y606937D01*
X1008417Y607283D01*
X1008098Y607421D01*
X1007685D01*
G01X1008098D02*
X1008374Y607626D01*
X1008602Y607972D01*
X1008693Y608386D01*
X1008602Y608799D01*
X1008374Y609142D01*
X1007961Y609350D01*
X1007547Y609283D01*
X1007134Y609004D01*
G01X1010925Y605217D02*
X1011248Y605283D01*
X1011614Y605492D01*
X1011843Y605835D01*
X1011937Y606319D01*
X1011843Y606799D01*
X1011567Y607213D01*
X1011154Y607421D01*
X1010697D01*
X1010421Y607559D01*
X1010189Y607902D01*
X1010098Y608386D01*
X1010236Y608866D01*
X1010559Y609213D01*
X1010925Y609350D01*
X1011291Y609213D01*
X1011614Y608866D01*
X1011752Y608386D01*
X1011661Y607902D01*
X1011429Y607559D01*
X1011154Y607421D01*
X1010697D01*
X1010283Y607213D01*
X1010008Y606799D01*
X1009913Y606319D01*
X1010008Y605835D01*
X1010236Y605492D01*
X1010602Y605283D01*
X1010925Y605217D01*
G01X993669Y616831D02*
Y612697D01*
X995504D01*
G01X996587D02*
X997736Y616831D01*
X998886Y612697D01*
G01X998472Y614142D02*
X997000D01*
G01X999874Y616831D02*
Y613870D01*
X1000059Y613248D01*
X1000425Y612835D01*
X1000886Y612697D01*
X1001346Y612835D01*
X1001713Y613248D01*
X1001898Y613870D01*
Y616831D01*
G01X1002980Y612697D02*
Y616831D01*
X1005091Y612697D01*
Y616831D01*
G01X1008197Y616484D02*
X1007921Y616693D01*
X1007598Y616831D01*
X1007232D01*
X1006819Y616622D01*
X1006496Y616280D01*
X1006268Y615866D01*
X1006083Y615177D01*
X1006035Y614555D01*
X1006130Y613937D01*
X1006268Y613524D01*
X1006543Y613110D01*
X1006862Y612835D01*
X1007185Y612697D01*
X1007508D01*
X1007827Y612835D01*
X1008102Y613039D01*
X1008335Y613315D01*
G01X1009370Y612697D02*
Y616831D01*
G01X1011299D02*
Y612697D01*
G01Y614764D02*
X1009370D01*
G01X1012520Y612697D02*
X1014449Y616831D01*
G01X1012520D02*
X1014449Y612697D01*
G01X1015717Y616831D02*
Y612697D01*
X1017551D01*
G01X1019185Y614075D02*
X1020382D01*
G01X1023945Y616484D02*
X1023669Y616693D01*
X1023346Y616831D01*
X1022980D01*
X1022567Y616622D01*
X1022244Y616280D01*
X1022016Y615866D01*
X1021831Y615177D01*
X1021783Y614555D01*
X1021878Y613937D01*
X1022016Y613524D01*
X1022291Y613110D01*
X1022610Y612835D01*
X1022933Y612697D01*
X1023256D01*
X1023575Y612835D01*
X1023850Y613039D01*
X1024083Y613315D01*
G01X1027094Y616484D02*
X1026819Y616693D01*
X1026496Y616831D01*
X1026130D01*
X1025717Y616622D01*
X1025394Y616280D01*
X1025165Y615866D01*
X1024980Y615177D01*
X1024933Y614555D01*
X1025028Y613937D01*
X1025165Y613524D01*
X1025441Y613110D01*
X1025760Y612835D01*
X1026083Y612697D01*
X1026406D01*
X1026724Y612835D01*
X1027000Y613039D01*
X1027232Y613315D01*
G01X1029232Y612697D02*
Y616831D01*
X1028681Y616004D01*
G01Y612697D02*
X1029783D01*
G01X1031370Y613524D02*
X1031646Y613039D01*
X1032016Y612764D01*
X1032429Y612697D01*
X1032795Y612764D01*
X1033161Y613110D01*
X1033394Y613524D01*
X1033437Y613937D01*
X1033346Y614417D01*
X1033024Y614764D01*
X1032705Y614902D01*
X1032291D01*
G01X1032705D02*
X1032980Y615106D01*
X1033209Y615453D01*
X1033299Y615866D01*
X1033209Y616280D01*
X1032980Y616622D01*
X1032567Y616831D01*
X1032154Y616764D01*
X1031740Y616484D01*
G01X1034520Y613315D02*
X1034795Y612972D01*
X1035118Y612764D01*
X1035531Y612697D01*
X1035945Y612835D01*
X1036268Y613110D01*
X1036496Y613591D01*
X1036543Y614142D01*
X1036449Y614693D01*
X1036220Y615039D01*
X1035898Y615315D01*
X1035579Y615382D01*
X1035256Y615315D01*
X1034843Y615039D01*
X1034980Y616831D01*
X1036220D01*
G01X1037807Y616142D02*
X1038083Y616555D01*
X1038406Y616764D01*
X1038772Y616831D01*
X1039232Y616693D01*
X1039555Y616346D01*
X1039646Y615937D01*
X1039598Y615520D01*
X1039417Y615177D01*
X1038496Y614488D01*
X1038083Y614004D01*
X1037807Y613315D01*
X1037717Y612697D01*
X1039646D01*
G01X1040913D02*
Y616831D01*
X1042059D01*
X1042429Y616622D01*
X1042657Y616346D01*
X1042748Y615795D01*
X1042657Y615244D01*
X1042382Y614902D01*
X1042059Y614693D01*
X1040913D01*
G01X1042059D02*
X1042748Y612697D01*
G01X1044980D02*
Y616831D01*
X1044429Y616004D01*
G01Y612697D02*
X1045531D01*
G01X997689Y880433D02*
Y884567D01*
X998610D01*
X998976Y884358D01*
X999252Y884083D01*
X999480Y883673D01*
X999665Y883189D01*
X999713Y882500D01*
X999665Y881811D01*
X999480Y881327D01*
X999252Y880913D01*
X998976Y880638D01*
X998610Y880433D01*
X997689D01*
G01X1001299Y884567D02*
X1002402D01*
G01X1001850D02*
Y880433D01*
G01X1001299D02*
X1002402D01*
G01X1005000D02*
X1004634Y880500D01*
X1004311Y880776D01*
X1004035Y881189D01*
X1003850Y881673D01*
X1003760Y882224D01*
Y882776D01*
X1003850Y883327D01*
X1004035Y883811D01*
X1004311Y884220D01*
X1004634Y884500D01*
X1005000Y884567D01*
X1005366Y884500D01*
X1005689Y884220D01*
X1005965Y883811D01*
X1006150Y883327D01*
X1006240Y882776D01*
Y882224D01*
X1006150Y881673D01*
X1005965Y881189D01*
X1005689Y880776D01*
X1005366Y880500D01*
X1005000Y880433D01*
G01X1008150D02*
Y884567D01*
X1007598Y883740D01*
G01Y880433D02*
X1008701D01*
G01X1011850D02*
Y884567D01*
X1010150Y881606D01*
X1012449D01*
G01X997689Y890433D02*
Y894567D01*
X998610D01*
X998976Y894358D01*
X999252Y894083D01*
X999480Y893673D01*
X999665Y893189D01*
X999713Y892500D01*
X999665Y891811D01*
X999480Y891327D01*
X999252Y890913D01*
X998976Y890638D01*
X998610Y890433D01*
X997689D01*
G01X1001299Y894567D02*
X1002402D01*
G01X1001850D02*
Y890433D01*
G01X1001299D02*
X1002402D01*
G01X1005000D02*
X1004634Y890500D01*
X1004311Y890776D01*
X1004035Y891189D01*
X1003850Y891673D01*
X1003760Y892224D01*
Y892776D01*
X1003850Y893327D01*
X1004035Y893811D01*
X1004311Y894220D01*
X1004634Y894500D01*
X1005000Y894567D01*
X1005366Y894500D01*
X1005689Y894220D01*
X1005965Y893811D01*
X1006150Y893327D01*
X1006240Y892776D01*
Y892224D01*
X1006150Y891673D01*
X1005965Y891189D01*
X1005689Y890776D01*
X1005366Y890500D01*
X1005000Y890433D01*
G01X1008150D02*
Y894567D01*
X1007598Y893740D01*
G01Y890433D02*
X1008701D01*
G01X1010287Y891051D02*
X1010563Y890709D01*
X1010886Y890500D01*
X1011299Y890433D01*
X1011713Y890571D01*
X1012035Y890846D01*
X1012264Y891327D01*
X1012311Y891878D01*
X1012217Y892429D01*
X1011988Y892776D01*
X1011665Y893051D01*
X1011346Y893118D01*
X1011024Y893051D01*
X1010610Y892776D01*
X1010748Y894567D01*
X1011988D01*
G01X962705Y880390D02*
X962681Y884524D01*
X963598Y884528D01*
X963969Y884323D01*
X964244Y884051D01*
X964476Y883638D01*
X964665Y883157D01*
X964713Y882469D01*
X964673Y881780D01*
X964492Y881295D01*
X964264Y880882D01*
X963992Y880602D01*
X963626Y880394D01*
X962705Y880390D01*
G01X966287Y884543D02*
X967390Y884551D01*
G01X966839Y884547D02*
X966866Y880413D01*
G01X966315Y880409D02*
X967417Y880417D01*
G01X970016Y880433D02*
X969650Y880500D01*
X969323Y880776D01*
X969047Y881185D01*
X968858Y881665D01*
X968764Y882217D01*
X968760Y882768D01*
X968850Y883319D01*
X969031Y883803D01*
X969303Y884220D01*
X969622Y884496D01*
X969988Y884567D01*
X970358Y884500D01*
X970681Y884228D01*
X970961Y883815D01*
X971146Y883335D01*
X971240Y882783D01*
X971244Y882232D01*
X971157Y881681D01*
X970976Y881197D01*
X970701Y880783D01*
X970382Y880504D01*
X970016Y880433D01*
G01X973165Y880453D02*
X973138Y884587D01*
X972594Y883756D01*
G01X972614Y880449D02*
X973717Y880457D01*
G01X975433Y882189D02*
X975748Y882673D01*
X976024Y882953D01*
X976390Y883091D01*
X976713Y882957D01*
X976945Y882681D01*
X977130Y882272D01*
X977181Y881787D01*
X977138Y881374D01*
X976957Y880961D01*
X976681Y880614D01*
X976362Y880472D01*
X975992Y880610D01*
X975669Y881020D01*
X975480Y881638D01*
X975429Y882327D01*
X975516Y883224D01*
X975650Y883709D01*
X975878Y884193D01*
X976197Y884539D01*
X976520Y884610D01*
X976843Y884472D01*
X977071Y884130D01*
G01X962705Y870390D02*
X962681Y874524D01*
X963598Y874528D01*
X963969Y874323D01*
X964244Y874051D01*
X964476Y873638D01*
X964665Y873157D01*
X964713Y872469D01*
X964673Y871780D01*
X964492Y871295D01*
X964264Y870882D01*
X963992Y870602D01*
X963626Y870394D01*
X962705Y870390D01*
G01X966287Y874543D02*
X967390Y874551D01*
G01X966839Y874547D02*
X966866Y870413D01*
G01X966315Y870409D02*
X967417Y870417D01*
G01X970016Y870433D02*
X969650Y870500D01*
X969323Y870776D01*
X969047Y871185D01*
X968858Y871665D01*
X968764Y872217D01*
X968760Y872768D01*
X968850Y873319D01*
X969031Y873803D01*
X969303Y874220D01*
X969622Y874496D01*
X969988Y874567D01*
X970358Y874500D01*
X970681Y874228D01*
X970961Y873815D01*
X971146Y873335D01*
X971240Y872783D01*
X971244Y872232D01*
X971157Y871681D01*
X970976Y871197D01*
X970701Y870783D01*
X970382Y870504D01*
X970016Y870433D01*
G01X973165Y870453D02*
X973138Y874587D01*
X972594Y873756D01*
G01X972614Y870449D02*
X973717Y870457D01*
G01X976224Y870472D02*
X976311Y871370D01*
X976441Y872126D01*
X976622Y872819D01*
X976846Y873579D01*
X977209Y874614D01*
X975370Y874602D01*
G01X966835Y894547D02*
X966862Y890413D01*
G01X965780Y894539D02*
X967894Y894555D01*
G01X971000Y894228D02*
X970720Y894433D01*
X970398Y894571D01*
X970031Y894567D01*
X969618Y894358D01*
X969299Y894012D01*
X969075Y893598D01*
X968894Y892906D01*
X968850Y892287D01*
X968949Y891669D01*
X969087Y891256D01*
X969366Y890843D01*
X969689Y890571D01*
X970012Y890433D01*
X970335Y890437D01*
X970654Y890575D01*
X970929Y890783D01*
X971157Y891063D01*
G01X972150Y890449D02*
X972126Y894583D01*
G01X973870Y894591D02*
X972142Y892031D01*
G01X974173Y890461D02*
X972913Y893209D01*
G01X997689Y900433D02*
Y904567D01*
X998610D01*
X998976Y904358D01*
X999252Y904083D01*
X999480Y903673D01*
X999665Y903189D01*
X999713Y902500D01*
X999665Y901811D01*
X999480Y901327D01*
X999252Y900913D01*
X998976Y900638D01*
X998610Y900433D01*
X997689D01*
G01X1001299Y904567D02*
X1002402D01*
G01X1001850D02*
Y900433D01*
G01X1001299D02*
X1002402D01*
G01X1005000D02*
X1004634Y900500D01*
X1004311Y900776D01*
X1004035Y901189D01*
X1003850Y901673D01*
X1003760Y902224D01*
Y902776D01*
X1003850Y903327D01*
X1004035Y903811D01*
X1004311Y904220D01*
X1004634Y904500D01*
X1005000Y904567D01*
X1005366Y904500D01*
X1005689Y904220D01*
X1005965Y903811D01*
X1006150Y903327D01*
X1006240Y902776D01*
Y902224D01*
X1006150Y901673D01*
X1005965Y901189D01*
X1005689Y900776D01*
X1005366Y900500D01*
X1005000Y900433D01*
G01X1008150D02*
X1008472Y900500D01*
X1008839Y900709D01*
X1009067Y901051D01*
X1009161Y901535D01*
X1009067Y902016D01*
X1008791Y902429D01*
X1008378Y902638D01*
X1007921D01*
X1007646Y902776D01*
X1007413Y903118D01*
X1007323Y903602D01*
X1007461Y904083D01*
X1007783Y904429D01*
X1008150Y904567D01*
X1008516Y904429D01*
X1008839Y904083D01*
X1008976Y903602D01*
X1008886Y903118D01*
X1008654Y902776D01*
X1008378Y902638D01*
X1007921D01*
X1007508Y902429D01*
X1007232Y902016D01*
X1007138Y901535D01*
X1007232Y901051D01*
X1007461Y900709D01*
X1007827Y900500D01*
X1008150Y900433D01*
G01X997689Y910433D02*
Y914567D01*
X998610D01*
X998976Y914358D01*
X999252Y914083D01*
X999480Y913673D01*
X999665Y913189D01*
X999713Y912500D01*
X999665Y911811D01*
X999480Y911327D01*
X999252Y910913D01*
X998976Y910638D01*
X998610Y910433D01*
X997689D01*
G01X1001299Y914567D02*
X1002402D01*
G01X1001850D02*
Y910433D01*
G01X1001299D02*
X1002402D01*
G01X1005000D02*
X1004634Y910500D01*
X1004311Y910776D01*
X1004035Y911189D01*
X1003850Y911673D01*
X1003760Y912224D01*
Y912776D01*
X1003850Y913327D01*
X1004035Y913811D01*
X1004311Y914220D01*
X1004634Y914500D01*
X1005000Y914567D01*
X1005366Y914500D01*
X1005689Y914220D01*
X1005965Y913811D01*
X1006150Y913327D01*
X1006240Y912776D01*
Y912224D01*
X1006150Y911673D01*
X1005965Y911189D01*
X1005689Y910776D01*
X1005366Y910500D01*
X1005000Y910433D01*
G01X1007370Y910913D02*
X1007689Y910571D01*
X1008059Y910433D01*
X1008425Y910571D01*
X1008748Y910984D01*
X1008976Y911606D01*
X1009067Y912224D01*
Y912980D01*
X1008976Y913602D01*
X1008748Y914154D01*
X1008472Y914429D01*
X1008150Y914567D01*
X1007783Y914429D01*
X1007508Y914154D01*
X1007323Y913740D01*
X1007232Y913189D01*
X1007323Y912709D01*
X1007551Y912224D01*
X1007827Y911949D01*
X1008150Y911878D01*
X1008516Y912016D01*
X1008791Y912362D01*
X1009067Y912980D01*
G01X997783Y924567D02*
Y920433D01*
X999618D01*
G01X1000933D02*
Y924567D01*
X1002035D01*
X1002402Y924358D01*
X1002677Y923878D01*
X1002768Y923327D01*
X1002677Y922776D01*
X1002449Y922362D01*
X1002035Y922154D01*
X1000933D01*
G01X1004083Y920433D02*
Y924567D01*
X1005228D01*
X1005598Y924358D01*
X1005827Y924083D01*
X1005917Y923531D01*
X1005827Y922980D01*
X1005551Y922638D01*
X1005228Y922429D01*
X1004083D01*
G01X1005228D02*
X1005917Y920433D01*
G01X1007185Y920984D02*
X1007551Y920638D01*
X1007965Y920433D01*
X1008335D01*
X1008701Y920638D01*
X1008976Y920984D01*
X1009114Y921469D01*
X1009024Y921949D01*
X1008791Y922362D01*
X1008378Y922638D01*
X1007827Y922776D01*
X1007508Y923051D01*
X1007370Y923531D01*
X1007461Y924016D01*
X1007689Y924358D01*
X1008012Y924567D01*
X1008335D01*
X1008654Y924429D01*
X1008929Y924083D01*
G01X1011299Y924567D02*
Y920433D01*
G01X1010244Y924567D02*
X1012354D01*
G01X997689Y940433D02*
Y944567D01*
X998610D01*
X998976Y944358D01*
X999252Y944083D01*
X999480Y943673D01*
X999665Y943189D01*
X999713Y942500D01*
X999665Y941811D01*
X999480Y941327D01*
X999252Y940913D01*
X998976Y940638D01*
X998610Y940433D01*
X997689D01*
G01X1001299Y944567D02*
X1002402D01*
G01X1001850D02*
Y940433D01*
G01X1001299D02*
X1002402D01*
G01X1005000D02*
X1004634Y940500D01*
X1004311Y940776D01*
X1004035Y941189D01*
X1003850Y941673D01*
X1003760Y942224D01*
Y942776D01*
X1003850Y943327D01*
X1004035Y943811D01*
X1004311Y944220D01*
X1004634Y944500D01*
X1005000Y944567D01*
X1005366Y944500D01*
X1005689Y944220D01*
X1005965Y943811D01*
X1006150Y943327D01*
X1006240Y942776D01*
Y942224D01*
X1006150Y941673D01*
X1005965Y941189D01*
X1005689Y940776D01*
X1005366Y940500D01*
X1005000Y940433D01*
G01X1008150D02*
Y944567D01*
X1007598Y943740D01*
G01Y940433D02*
X1008701D01*
G01X1011299D02*
Y944567D01*
X1010748Y943740D01*
G01Y940433D02*
X1011850D01*
G01X997689Y950433D02*
Y954567D01*
X998610D01*
X998976Y954358D01*
X999252Y954083D01*
X999480Y953673D01*
X999665Y953189D01*
X999713Y952500D01*
X999665Y951811D01*
X999480Y951327D01*
X999252Y950913D01*
X998976Y950638D01*
X998610Y950433D01*
X997689D01*
G01X1001299Y954567D02*
X1002402D01*
G01X1001850D02*
Y950433D01*
G01X1001299D02*
X1002402D01*
G01X1005000D02*
X1004634Y950500D01*
X1004311Y950776D01*
X1004035Y951189D01*
X1003850Y951673D01*
X1003760Y952224D01*
Y952776D01*
X1003850Y953327D01*
X1004035Y953811D01*
X1004311Y954220D01*
X1004634Y954500D01*
X1005000Y954567D01*
X1005366Y954500D01*
X1005689Y954220D01*
X1005965Y953811D01*
X1006150Y953327D01*
X1006240Y952776D01*
Y952224D01*
X1006150Y951673D01*
X1005965Y951189D01*
X1005689Y950776D01*
X1005366Y950500D01*
X1005000Y950433D01*
G01X1007138Y951260D02*
X1007413Y950776D01*
X1007783Y950500D01*
X1008197Y950433D01*
X1008563Y950500D01*
X1008929Y950846D01*
X1009161Y951260D01*
X1009205Y951673D01*
X1009114Y952154D01*
X1008791Y952500D01*
X1008472Y952638D01*
X1008059D01*
G01X1008472D02*
X1008748Y952843D01*
X1008976Y953189D01*
X1009067Y953602D01*
X1008976Y954016D01*
X1008748Y954358D01*
X1008335Y954567D01*
X1007921Y954500D01*
X1007508Y954220D01*
G01X964067Y912638D02*
X964252Y912843D01*
X964390Y913189D01*
X964480Y913673D01*
X964390Y914083D01*
X964205Y914358D01*
X963886Y914567D01*
X962646D01*
Y910433D01*
X964161D01*
X964480Y910709D01*
X964665Y911122D01*
X964756Y911606D01*
X964665Y912087D01*
X964390Y912500D01*
X964067Y912638D01*
X962646D01*
G01X965933Y910433D02*
Y914567D01*
X967035D01*
X967402Y914358D01*
X967677Y913878D01*
X967768Y913327D01*
X967677Y912776D01*
X967449Y912362D01*
X967035Y912154D01*
X965933D01*
G01X969083Y910433D02*
Y914567D01*
X970228D01*
X970598Y914358D01*
X970827Y914083D01*
X970917Y913531D01*
X970827Y912980D01*
X970551Y912638D01*
X970228Y912429D01*
X969083D01*
G01X970228D02*
X970917Y910433D01*
G01X972185Y910984D02*
X972551Y910638D01*
X972965Y910433D01*
X973335D01*
X973701Y910638D01*
X973976Y910984D01*
X974114Y911469D01*
X974024Y911949D01*
X973791Y912362D01*
X973378Y912638D01*
X972827Y912776D01*
X972508Y913051D01*
X972370Y913531D01*
X972461Y914016D01*
X972689Y914358D01*
X973012Y914567D01*
X973335D01*
X973654Y914429D01*
X973929Y914083D01*
G01X976299Y914567D02*
Y910433D01*
G01X975244Y914567D02*
X977354D01*
G01X962689Y920433D02*
Y924567D01*
X963610D01*
X963976Y924358D01*
X964252Y924083D01*
X964480Y923673D01*
X964665Y923189D01*
X964713Y922500D01*
X964665Y921811D01*
X964480Y921327D01*
X964252Y920913D01*
X963976Y920638D01*
X963610Y920433D01*
X962689D01*
G01X966299Y924567D02*
X967402D01*
G01X966850D02*
Y920433D01*
G01X966299D02*
X967402D01*
G01X970000D02*
X969634Y920500D01*
X969311Y920776D01*
X969035Y921189D01*
X968850Y921673D01*
X968760Y922224D01*
Y922776D01*
X968850Y923327D01*
X969035Y923811D01*
X969311Y924220D01*
X969634Y924500D01*
X970000Y924567D01*
X970366Y924500D01*
X970689Y924220D01*
X970965Y923811D01*
X971150Y923327D01*
X971240Y922776D01*
Y922224D01*
X971150Y921673D01*
X970965Y921189D01*
X970689Y920776D01*
X970366Y920500D01*
X970000Y920433D01*
G01X973150D02*
Y924567D01*
X972598Y923740D01*
G01Y920433D02*
X973701D01*
G01X976299D02*
X976622Y920500D01*
X976988Y920709D01*
X977217Y921051D01*
X977311Y921535D01*
X977217Y922016D01*
X976941Y922429D01*
X976528Y922638D01*
X976071D01*
X975795Y922776D01*
X975563Y923118D01*
X975472Y923602D01*
X975610Y924083D01*
X975933Y924429D01*
X976299Y924567D01*
X976665Y924429D01*
X976988Y924083D01*
X977126Y923602D01*
X977035Y923118D01*
X976803Y922776D01*
X976528Y922638D01*
X976071D01*
X975657Y922429D01*
X975382Y922016D01*
X975287Y921535D01*
X975382Y921051D01*
X975610Y920709D01*
X975976Y920500D01*
X976299Y920433D01*
G01X962689Y930433D02*
Y934567D01*
X963610D01*
X963976Y934358D01*
X964252Y934083D01*
X964480Y933673D01*
X964665Y933189D01*
X964713Y932500D01*
X964665Y931811D01*
X964480Y931327D01*
X964252Y930913D01*
X963976Y930638D01*
X963610Y930433D01*
X962689D01*
G01X966299Y934567D02*
X967402D01*
G01X966850D02*
Y930433D01*
G01X966299D02*
X967402D01*
G01X970000D02*
X969634Y930500D01*
X969311Y930776D01*
X969035Y931189D01*
X968850Y931673D01*
X968760Y932224D01*
Y932776D01*
X968850Y933327D01*
X969035Y933811D01*
X969311Y934220D01*
X969634Y934500D01*
X970000Y934567D01*
X970366Y934500D01*
X970689Y934220D01*
X970965Y933811D01*
X971150Y933327D01*
X971240Y932776D01*
Y932224D01*
X971150Y931673D01*
X970965Y931189D01*
X970689Y930776D01*
X970366Y930500D01*
X970000Y930433D01*
G01X973150D02*
Y934567D01*
X972598Y933740D01*
G01Y930433D02*
X973701D01*
G01X975520Y930913D02*
X975839Y930571D01*
X976209Y930433D01*
X976575Y930571D01*
X976898Y930984D01*
X977126Y931606D01*
X977217Y932224D01*
Y932980D01*
X977126Y933602D01*
X976898Y934154D01*
X976622Y934429D01*
X976299Y934567D01*
X975933Y934429D01*
X975657Y934154D01*
X975472Y933740D01*
X975382Y933189D01*
X975472Y932709D01*
X975701Y932224D01*
X975976Y931949D01*
X976299Y931878D01*
X976665Y932016D01*
X976941Y932362D01*
X977217Y932980D01*
G01X962689Y940433D02*
Y944567D01*
X963610D01*
X963976Y944358D01*
X964252Y944083D01*
X964480Y943673D01*
X964665Y943189D01*
X964713Y942500D01*
X964665Y941811D01*
X964480Y941327D01*
X964252Y940913D01*
X963976Y940638D01*
X963610Y940433D01*
X962689D01*
G01X966299Y944567D02*
X967402D01*
G01X966850D02*
Y940433D01*
G01X966299D02*
X967402D01*
G01X970000D02*
X969634Y940500D01*
X969311Y940776D01*
X969035Y941189D01*
X968850Y941673D01*
X968760Y942224D01*
Y942776D01*
X968850Y943327D01*
X969035Y943811D01*
X969311Y944220D01*
X969634Y944500D01*
X970000Y944567D01*
X970366Y944500D01*
X970689Y944220D01*
X970965Y943811D01*
X971150Y943327D01*
X971240Y942776D01*
Y942224D01*
X971150Y941673D01*
X970965Y941189D01*
X970689Y940776D01*
X970366Y940500D01*
X970000Y940433D01*
G01X972276Y943878D02*
X972551Y944291D01*
X972874Y944500D01*
X973240Y944567D01*
X973701Y944429D01*
X974024Y944083D01*
X974114Y943673D01*
X974067Y943256D01*
X973886Y942913D01*
X972965Y942224D01*
X972551Y941740D01*
X972276Y941051D01*
X972185Y940433D01*
X974114D01*
G01X976299Y944567D02*
X975933Y944429D01*
X975657Y944083D01*
X975472Y943673D01*
X975335Y943118D01*
X975287Y942500D01*
X975335Y941878D01*
X975472Y941327D01*
X975657Y940913D01*
X975933Y940571D01*
X976299Y940433D01*
X976665Y940571D01*
X976941Y940913D01*
X977126Y941327D01*
X977264Y941878D01*
X977311Y942500D01*
X977264Y943118D01*
X977126Y943673D01*
X976941Y944083D01*
X976665Y944429D01*
X976299Y944567D01*
G01X965976Y950433D02*
Y954567D01*
X966898D01*
X967264Y954358D01*
X967539Y954083D01*
X967768Y953673D01*
X967953Y953189D01*
X968000Y952500D01*
X967953Y951811D01*
X967768Y951327D01*
X967539Y950913D01*
X967264Y950638D01*
X966898Y950433D01*
X965976D01*
G01X969587Y954567D02*
X970689D01*
G01X970138D02*
Y950433D01*
G01X969587D02*
X970689D01*
G01X973287D02*
X972921Y950500D01*
X972598Y950776D01*
X972323Y951189D01*
X972138Y951673D01*
X972047Y952224D01*
Y952776D01*
X972138Y953327D01*
X972323Y953811D01*
X972598Y954220D01*
X972921Y954500D01*
X973287Y954567D01*
X973654Y954500D01*
X973976Y954220D01*
X974252Y953811D01*
X974437Y953327D01*
X974528Y952776D01*
Y952224D01*
X974437Y951673D01*
X974252Y951189D01*
X973976Y950776D01*
X973654Y950500D01*
X973287Y950433D01*
G01X975563Y952154D02*
X975886Y952638D01*
X976161Y952913D01*
X976528Y953051D01*
X976850Y952913D01*
X977079Y952638D01*
X977264Y952224D01*
X977311Y951740D01*
X977264Y951327D01*
X977079Y950913D01*
X976803Y950571D01*
X976484Y950433D01*
X976114Y950571D01*
X975795Y950984D01*
X975610Y951606D01*
X975563Y952291D01*
X975657Y953189D01*
X975795Y953673D01*
X976024Y954154D01*
X976346Y954500D01*
X976665Y954567D01*
X976988Y954429D01*
X977217Y954083D01*
G01X966835Y904547D02*
X966862Y900413D01*
G01X965780Y904539D02*
X967894Y904555D01*
G01X968819Y900425D02*
X968791Y904559D01*
X970008Y901122D01*
X971181Y904575D01*
X971205Y900441D01*
G01X972193Y901000D02*
X972563Y900657D01*
X972976Y900453D01*
X973346Y900457D01*
X973713Y900665D01*
X973984Y901012D01*
X974118Y901492D01*
X974024Y901976D01*
X973791Y902386D01*
X973378Y902661D01*
X972827Y902795D01*
X972500Y903067D01*
X972362Y903547D01*
X972449Y904031D01*
X972677Y904378D01*
X972996Y904587D01*
X973319Y904591D01*
X973642Y904453D01*
X973917Y904110D01*
G01X965976Y960433D02*
Y964567D01*
X966898D01*
X967264Y964358D01*
X967539Y964083D01*
X967768Y963673D01*
X967953Y963189D01*
X968000Y962500D01*
X967953Y961811D01*
X967768Y961327D01*
X967539Y960913D01*
X967264Y960638D01*
X966898Y960433D01*
X965976D01*
G01X969587Y964567D02*
X970689D01*
G01X970138D02*
Y960433D01*
G01X969587D02*
X970689D01*
G01X973287D02*
X972921Y960500D01*
X972598Y960776D01*
X972323Y961189D01*
X972138Y961673D01*
X972047Y962224D01*
Y962776D01*
X972138Y963327D01*
X972323Y963811D01*
X972598Y964220D01*
X972921Y964500D01*
X973287Y964567D01*
X973654Y964500D01*
X973976Y964220D01*
X974252Y963811D01*
X974437Y963327D01*
X974528Y962776D01*
Y962224D01*
X974437Y961673D01*
X974252Y961189D01*
X973976Y960776D01*
X973654Y960500D01*
X973287Y960433D01*
G01X976346D02*
X976437Y961327D01*
X976575Y962087D01*
X976760Y962776D01*
X976988Y963531D01*
X977354Y964567D01*
X975520D01*
G01X981272Y988425D02*
X981457Y988630D01*
X981594Y988976D01*
X981685Y989461D01*
X981594Y989870D01*
X981409Y990146D01*
X981091Y990354D01*
X979850D01*
Y986220D01*
X981366D01*
X981685Y986496D01*
X981870Y986909D01*
X981961Y987394D01*
X981870Y987874D01*
X981594Y988287D01*
X981272Y988425D01*
X979850D01*
G01X984055Y990354D02*
Y986220D01*
G01X983000Y990354D02*
X985110D01*
G01X986150Y986220D02*
Y990354D01*
X988260Y986220D01*
Y990354D01*
G01X989756Y987598D02*
X990953D01*
G01X992630Y989665D02*
X992906Y990079D01*
X993228Y990287D01*
X993594Y990354D01*
X994055Y990217D01*
X994378Y989870D01*
X994469Y989461D01*
X994421Y989043D01*
X994240Y988701D01*
X993319Y988012D01*
X992906Y987528D01*
X992630Y986839D01*
X992539Y986220D01*
X994469D01*
G01X979894Y979921D02*
Y984055D01*
X980815D01*
X981181Y983846D01*
X981457Y983571D01*
X981685Y983161D01*
X981870Y982677D01*
X981917Y981988D01*
X981870Y981299D01*
X981685Y980815D01*
X981457Y980402D01*
X981181Y980126D01*
X980815Y979921D01*
X979894D01*
G01X983504Y984055D02*
X984606D01*
G01X984055D02*
Y979921D01*
G01X983504D02*
X984606D01*
G01X987205D02*
X986839Y979988D01*
X986516Y980264D01*
X986240Y980677D01*
X986055Y981161D01*
X985965Y981713D01*
Y982264D01*
X986055Y982815D01*
X986240Y983299D01*
X986516Y983709D01*
X986839Y983988D01*
X987205Y984055D01*
X987571Y983988D01*
X987894Y983709D01*
X988169Y983299D01*
X988354Y982815D01*
X988445Y982264D01*
Y981713D01*
X988354Y981161D01*
X988169Y980677D01*
X987894Y980264D01*
X987571Y979988D01*
X987205Y979921D01*
G01X990354D02*
Y984055D01*
X989803Y983228D01*
G01Y979921D02*
X990906D01*
G01X994055D02*
Y984055D01*
X992354Y981094D01*
X994654D01*
G01X997177Y1007579D02*
X995343D01*
Y1011713D01*
X997177D01*
G01X996445Y1009717D02*
X995343D01*
G01X998720Y1010335D02*
X1000098Y1007579D01*
G01Y1010335D02*
X998720Y1007579D01*
G01X1002559Y1011713D02*
Y1007579D01*
G01X1001917Y1010335D02*
X1003201D01*
G01X1005020Y1009437D02*
X1006488D01*
X1006350Y1009921D01*
X1006122Y1010197D01*
X1005799Y1010335D01*
X1005480Y1010264D01*
X1005205Y1010059D01*
X1005020Y1009575D01*
X1004929Y1009161D01*
Y1008752D01*
X1005020Y1008335D01*
X1005248Y1007921D01*
X1005524Y1007646D01*
X1005846Y1007579D01*
X1006169Y1007717D01*
X1006488Y1008130D01*
G01X1008217Y1007579D02*
Y1010335D01*
G01Y1009783D02*
X1008445Y1010059D01*
X1008673Y1010264D01*
X1008996Y1010335D01*
X1009224Y1010264D01*
X1009500Y1010059D01*
G01X1011228Y1007579D02*
Y1010335D01*
G01Y1009646D02*
X1011409Y1009988D01*
X1011685Y1010264D01*
X1012055Y1010335D01*
X1012374Y1010264D01*
X1012650Y1009988D01*
X1012787Y1009508D01*
Y1007579D01*
G01X995343Y1002264D02*
Y1006398D01*
X996445D01*
X996811Y1006189D01*
X997087Y1005709D01*
X997177Y1005157D01*
X997087Y1004606D01*
X996858Y1004193D01*
X996445Y1003984D01*
X995343D01*
G01X998260Y1005020D02*
X998811Y1002264D01*
X999409Y1005020D01*
X1000008Y1002264D01*
X1000559Y1005020D01*
G01X1001917Y1002264D02*
Y1005020D01*
G01Y1004469D02*
X1002146Y1004744D01*
X1002374Y1004949D01*
X1002697Y1005020D01*
X1002925Y1004949D01*
X1003201Y1004744D01*
G01X995492Y1018110D02*
X997421Y1022244D01*
G01X995492D02*
X997421Y1018110D01*
G01X998594D02*
Y1022244D01*
X999516D01*
X999882Y1022035D01*
X1000157Y1021760D01*
X1000386Y1021350D01*
X1000571Y1020866D01*
X1000618Y1020177D01*
X1000571Y1019488D01*
X1000386Y1019004D01*
X1000157Y1018591D01*
X999882Y1018315D01*
X999516Y1018110D01*
X998594D01*
G01X1001791Y1018661D02*
X1002157Y1018315D01*
X1002571Y1018110D01*
X1002941D01*
X1003307Y1018315D01*
X1003583Y1018661D01*
X1003720Y1019146D01*
X1003630Y1019626D01*
X1003398Y1020039D01*
X1002984Y1020315D01*
X1002433Y1020453D01*
X1002114Y1020728D01*
X1001976Y1021209D01*
X1002067Y1021693D01*
X1002295Y1022035D01*
X1002618Y1022244D01*
X1002941D01*
X1003260Y1022106D01*
X1003535Y1021760D01*
G01X1005906Y1018110D02*
Y1022244D01*
X1005354Y1021417D01*
G01Y1018110D02*
X1006457D01*
G01X1009055D02*
Y1022244D01*
X1008504Y1021417D01*
G01Y1018110D02*
X1009606D01*
G01X1012205Y1022244D02*
X1011839Y1022106D01*
X1011563Y1021760D01*
X1011378Y1021350D01*
X1011240Y1020795D01*
X1011193Y1020177D01*
X1011240Y1019555D01*
X1011378Y1019004D01*
X1011563Y1018591D01*
X1011839Y1018248D01*
X1012205Y1018110D01*
X1012571Y1018248D01*
X1012846Y1018591D01*
X1013031Y1019004D01*
X1013169Y1019555D01*
X1013217Y1020177D01*
X1013169Y1020795D01*
X1013031Y1021350D01*
X1012846Y1021760D01*
X1012571Y1022106D01*
X1012205Y1022244D01*
G01X995343Y1012894D02*
Y1017028D01*
X996445D01*
X996811Y1016819D01*
X997087Y1016339D01*
X997177Y1015787D01*
X997087Y1015236D01*
X996858Y1014823D01*
X996445Y1014614D01*
X995343D01*
G01X999409Y1012894D02*
X999134Y1012961D01*
X998858Y1013236D01*
X998673Y1013720D01*
X998583Y1014272D01*
X998673Y1014823D01*
X998858Y1015303D01*
X999134Y1015579D01*
X999409Y1015650D01*
X999685Y1015579D01*
X999961Y1015303D01*
X1000146Y1014823D01*
X1000189Y1014272D01*
X1000146Y1013720D01*
X999961Y1013236D01*
X999685Y1012961D01*
X999409Y1012894D01*
G01X1001409Y1015650D02*
X1001961Y1012894D01*
X1002559Y1015650D01*
X1003157Y1012894D01*
X1003709Y1015650D01*
G01X1005020Y1014752D02*
X1006488D01*
X1006350Y1015236D01*
X1006122Y1015512D01*
X1005799Y1015650D01*
X1005480Y1015579D01*
X1005205Y1015374D01*
X1005020Y1014890D01*
X1004929Y1014476D01*
Y1014067D01*
X1005020Y1013650D01*
X1005248Y1013236D01*
X1005524Y1012961D01*
X1005846Y1012894D01*
X1006169Y1013031D01*
X1006488Y1013445D01*
G01X1008217Y1012894D02*
Y1015650D01*
G01Y1015098D02*
X1008445Y1015374D01*
X1008673Y1015579D01*
X1008996Y1015650D01*
X1009224Y1015579D01*
X1009500Y1015374D01*
G01X1023098Y605315D02*
Y609449D01*
X1024244D01*
X1024614Y609240D01*
X1024843Y608965D01*
X1024933Y608413D01*
X1024843Y607862D01*
X1024567Y607520D01*
X1024244Y607311D01*
X1023098D01*
G01X1024244D02*
X1024933Y605315D01*
G01X1026476Y607173D02*
X1027945D01*
X1027807Y607657D01*
X1027579Y607933D01*
X1027256Y608071D01*
X1026937Y608000D01*
X1026661Y607795D01*
X1026476Y607311D01*
X1026386Y606898D01*
Y606488D01*
X1026476Y606071D01*
X1026705Y605657D01*
X1026980Y605382D01*
X1027303Y605315D01*
X1027626Y605453D01*
X1027945Y605866D01*
G01X1029488Y608071D02*
X1030315Y605315D01*
X1031142Y608071D01*
G01X1033465Y605177D02*
X1033374Y605248D01*
Y605382D01*
X1033465Y605453D01*
X1033555Y605382D01*
Y605248D01*
X1033465Y605177D01*
G01X1040130Y607520D02*
X1040315Y607724D01*
X1040453Y608071D01*
X1040543Y608555D01*
X1040453Y608965D01*
X1040268Y609240D01*
X1039949Y609449D01*
X1038709D01*
Y605315D01*
X1040224D01*
X1040543Y605591D01*
X1040728Y606004D01*
X1040819Y606488D01*
X1040728Y606969D01*
X1040453Y607382D01*
X1040130Y607520D01*
X1038709D01*
G01X1011713Y1027232D02*
X1015846D01*
Y1029067D01*
G01Y1030150D02*
X1011713Y1031299D01*
X1015846Y1032449D01*
G01X1014402Y1032035D02*
Y1030563D01*
G01X1011713Y1033437D02*
X1014673D01*
X1015295Y1033622D01*
X1015709Y1033988D01*
X1015846Y1034449D01*
X1015709Y1034909D01*
X1015295Y1035276D01*
X1014673Y1035461D01*
X1011713D01*
G01X1015846Y1036543D02*
X1011713D01*
X1015846Y1038654D01*
X1011713D01*
G01X1012059Y1041760D02*
X1011850Y1041484D01*
X1011713Y1041161D01*
Y1040795D01*
X1011921Y1040382D01*
X1012264Y1040059D01*
X1012677Y1039831D01*
X1013366Y1039646D01*
X1013988Y1039598D01*
X1014606Y1039693D01*
X1015020Y1039831D01*
X1015433Y1040106D01*
X1015709Y1040425D01*
X1015846Y1040748D01*
Y1041071D01*
X1015709Y1041390D01*
X1015504Y1041665D01*
X1015228Y1041898D01*
G01X1015846Y1042933D02*
X1011713D01*
G01Y1044862D02*
X1015846D01*
G01X1013780D02*
Y1042933D01*
G01X1015846Y1046083D02*
X1011713Y1048012D01*
G01Y1046083D02*
X1015846Y1048012D01*
G01X1011713Y1049280D02*
X1015846D01*
Y1051114D01*
G01X1014469Y1052748D02*
Y1053945D01*
G01X1012059Y1057508D02*
X1011850Y1057232D01*
X1011713Y1056909D01*
Y1056543D01*
X1011921Y1056130D01*
X1012264Y1055807D01*
X1012677Y1055579D01*
X1013366Y1055394D01*
X1013988Y1055346D01*
X1014606Y1055441D01*
X1015020Y1055579D01*
X1015433Y1055854D01*
X1015709Y1056173D01*
X1015846Y1056496D01*
Y1056819D01*
X1015709Y1057138D01*
X1015504Y1057413D01*
X1015228Y1057646D01*
G01X1012059Y1060657D02*
X1011850Y1060382D01*
X1011713Y1060059D01*
Y1059693D01*
X1011921Y1059280D01*
X1012264Y1058957D01*
X1012677Y1058728D01*
X1013366Y1058543D01*
X1013988Y1058496D01*
X1014606Y1058591D01*
X1015020Y1058728D01*
X1015433Y1059004D01*
X1015709Y1059323D01*
X1015846Y1059646D01*
Y1059969D01*
X1015709Y1060287D01*
X1015504Y1060563D01*
X1015228Y1060795D01*
G01X1015846Y1062795D02*
X1011713D01*
X1012539Y1062244D01*
G01X1015846D02*
Y1063346D01*
G01X1015020Y1064933D02*
X1015504Y1065209D01*
X1015780Y1065579D01*
X1015846Y1065992D01*
X1015780Y1066358D01*
X1015433Y1066724D01*
X1015020Y1066957D01*
X1014606Y1067000D01*
X1014126Y1066909D01*
X1013780Y1066587D01*
X1013642Y1066268D01*
Y1065854D01*
G01Y1066268D02*
X1013437Y1066543D01*
X1013091Y1066772D01*
X1012677Y1066862D01*
X1012264Y1066772D01*
X1011921Y1066543D01*
X1011713Y1066130D01*
X1011780Y1065717D01*
X1012059Y1065303D01*
G01X1015228Y1068083D02*
X1015571Y1068358D01*
X1015780Y1068681D01*
X1015846Y1069094D01*
X1015709Y1069508D01*
X1015433Y1069831D01*
X1014953Y1070059D01*
X1014402Y1070106D01*
X1013850Y1070012D01*
X1013504Y1069783D01*
X1013228Y1069461D01*
X1013161Y1069142D01*
X1013228Y1068819D01*
X1013504Y1068406D01*
X1011713Y1068543D01*
Y1069783D01*
G01X1012402Y1071370D02*
X1011988Y1071646D01*
X1011780Y1071969D01*
X1011713Y1072335D01*
X1011850Y1072795D01*
X1012197Y1073118D01*
X1012606Y1073209D01*
X1013024Y1073161D01*
X1013366Y1072980D01*
X1014055Y1072059D01*
X1014539Y1071646D01*
X1015228Y1071370D01*
X1015846Y1071280D01*
Y1073209D01*
G01Y1074476D02*
X1011713D01*
Y1075622D01*
X1011921Y1075992D01*
X1012197Y1076220D01*
X1012748Y1076311D01*
X1013299Y1076220D01*
X1013642Y1075945D01*
X1013850Y1075622D01*
Y1074476D01*
G01Y1075622D02*
X1015846Y1076311D01*
G01Y1078543D02*
X1011713D01*
X1012539Y1077992D01*
G01X1015846D02*
Y1079094D01*
G01X1016732Y1101839D02*
X1012598D01*
Y1102984D01*
X1012807Y1103354D01*
X1013083Y1103583D01*
X1013634Y1103673D01*
X1014185Y1103583D01*
X1014528Y1103307D01*
X1014736Y1102984D01*
Y1101839D01*
G01Y1102984D02*
X1016732Y1103673D01*
G01X1014874Y1105217D02*
Y1106685D01*
X1014390Y1106547D01*
X1014114Y1106319D01*
X1013976Y1105996D01*
X1014047Y1105677D01*
X1014252Y1105402D01*
X1014736Y1105217D01*
X1015150Y1105126D01*
X1015559D01*
X1015976Y1105217D01*
X1016390Y1105445D01*
X1016665Y1105720D01*
X1016732Y1106043D01*
X1016594Y1106366D01*
X1016181Y1106685D01*
G01X1013976Y1108228D02*
X1016732Y1109055D01*
X1013976Y1109882D01*
G01X1016870Y1112205D02*
X1016799Y1112114D01*
X1016665D01*
X1016594Y1112205D01*
X1016665Y1112295D01*
X1016799D01*
X1016870Y1112205D01*
G01X1015012D02*
X1014941Y1112114D01*
X1014803D01*
X1014736Y1112205D01*
X1014803Y1112295D01*
X1014941D01*
X1015012Y1112205D01*
G01X1014528Y1118870D02*
X1014323Y1119055D01*
X1013976Y1119193D01*
X1013492Y1119283D01*
X1013083Y1119193D01*
X1012807Y1119008D01*
X1012598Y1118689D01*
Y1117449D01*
X1016732D01*
Y1118965D01*
X1016457Y1119283D01*
X1016043Y1119469D01*
X1015559Y1119559D01*
X1015079Y1119469D01*
X1014665Y1119193D01*
X1014528Y1118870D01*
Y1117449D01*
G01X1012500Y1127165D02*
X1016634Y1127807D01*
X1012500Y1128543D01*
X1016634Y1129280D01*
X1012500Y1129921D01*
G01X1012846Y1132705D02*
X1012638Y1132429D01*
X1012500Y1132106D01*
Y1131740D01*
X1012709Y1131327D01*
X1013051Y1131004D01*
X1013465Y1130776D01*
X1014154Y1130591D01*
X1014776Y1130543D01*
X1015394Y1130638D01*
X1015807Y1130776D01*
X1016220Y1131051D01*
X1016496Y1131370D01*
X1016634Y1131693D01*
Y1132016D01*
X1016496Y1132335D01*
X1016291Y1132610D01*
X1016016Y1132843D01*
G01X1016083Y1133878D02*
X1016429Y1134244D01*
X1016634Y1134657D01*
Y1135028D01*
X1016429Y1135394D01*
X1016083Y1135669D01*
X1015598Y1135807D01*
X1015118Y1135717D01*
X1014705Y1135484D01*
X1014429Y1135071D01*
X1014291Y1134520D01*
X1014016Y1134201D01*
X1013535Y1134063D01*
X1013051Y1134154D01*
X1012709Y1134382D01*
X1012500Y1134705D01*
Y1135028D01*
X1012638Y1135346D01*
X1012984Y1135622D01*
G01X1012500Y1137992D02*
X1012638Y1137626D01*
X1012984Y1137350D01*
X1013394Y1137165D01*
X1013949Y1137028D01*
X1014567Y1136980D01*
X1015189Y1137028D01*
X1015740Y1137165D01*
X1016154Y1137350D01*
X1016496Y1137626D01*
X1016634Y1137992D01*
X1016496Y1138358D01*
X1016154Y1138634D01*
X1015740Y1138819D01*
X1015189Y1138957D01*
X1014567Y1139004D01*
X1013949Y1138957D01*
X1013394Y1138819D01*
X1012984Y1138634D01*
X1012638Y1138358D01*
X1012500Y1137992D01*
G01X1015807Y1140130D02*
X1016291Y1140406D01*
X1016567Y1140776D01*
X1016634Y1141189D01*
X1016567Y1141555D01*
X1016220Y1141921D01*
X1015807Y1142154D01*
X1015394Y1142197D01*
X1014913Y1142106D01*
X1014567Y1141783D01*
X1014429Y1141465D01*
Y1141051D01*
G01Y1141465D02*
X1014224Y1141740D01*
X1013878Y1141969D01*
X1013465Y1142059D01*
X1013051Y1141969D01*
X1012709Y1141740D01*
X1012500Y1141327D01*
X1012567Y1140913D01*
X1012846Y1140500D01*
G01X1016634Y1144291D02*
X1016567Y1144614D01*
X1016358Y1144980D01*
X1016016Y1145209D01*
X1015531Y1145303D01*
X1015051Y1145209D01*
X1014638Y1144933D01*
X1014429Y1144520D01*
Y1144063D01*
X1014291Y1143787D01*
X1013949Y1143555D01*
X1013465Y1143465D01*
X1012984Y1143602D01*
X1012638Y1143925D01*
X1012500Y1144291D01*
X1012638Y1144657D01*
X1012984Y1144980D01*
X1013465Y1145118D01*
X1013949Y1145028D01*
X1014291Y1144795D01*
X1014429Y1144520D01*
Y1144063D01*
X1014638Y1143650D01*
X1015051Y1143374D01*
X1015531Y1143280D01*
X1016016Y1143374D01*
X1016358Y1143602D01*
X1016567Y1143969D01*
X1016634Y1144291D01*
M02*
