M48
METRIC
T01C.2
T02C.201
T03C.7
T04C.92
T05C1.
T06C1.05
T07C1.1
T08C2.3
T09C3.2
T10C.899
T11C1.
T12C3.2
;LEADER: 12 
;HEADER: 
;CODE  : ASCII 
;FILE  : ATILPD-1-4.drl for  ... layers TOP and BOTTOM
;DESIGN: WCS038B.brd
;T01 Holesize 1. = 0.200000 Tolerance = +0.000000/-0.000000 PLATED MM Quantity = 1257
;T02 Holesize 2. = 0.201000 Tolerance = +0.000000/-0.000000 PLATED MM Quantity = 25
;T03 Holesize 3. = 0.700000 Tolerance = +0.000000/-0.000000 PLATED MM Quantity = 2
;T04 Holesize 4. = 0.920000 Tolerance = +0.000000/-0.000000 PLATED MM Quantity = 4
;T05 Holesize 5. = 1.000000 Tolerance = +0.000000/-0.000000 PLATED MM Quantity = 3
;T06 Holesize 6. = 1.050000 Tolerance = +0.000000/-0.000000 PLATED MM Quantity = 75
;T07 Holesize 7. = 1.100000 Tolerance = +0.000000/-0.000000 PLATED MM Quantity = 73
;T08 Holesize 8. = 2.300000 Tolerance = +0.000000/-0.000000 PLATED MM Quantity = 2
;T09 Holesize 9. = 3.200000 Tolerance = +0.000000/-0.000000 PLATED MM Quantity = 4
;T10 Holesize 10. = 0.899000 Tolerance = +0.000000/-0.000000 NON_PLATED MM Quantity = 6
;T11 Holesize 11. = 1.000000 Tolerance = +0.000000/-0.000000 NON_PLATED MM Quantity = 3
;T12 Holesize 12. = 3.200000 Tolerance = +0.000000/-0.000000 NON_PLATED MM Quantity = 2
%
G90
T01
X0020550000Y0029725000
X0020775000Y0030425000
X0023975000Y0034225000
X0024040000Y0034225000
X0023275000Y0026385000
X0023210000Y0026385200
X0023150000Y0026385200
X0023345000Y0026385200
X0022885000Y0027025000
X0022935000Y0027025000
X0022935000Y0027145000
X0022885000Y0027145000
X0021250000Y0027724700
X0025570000Y0026950000
X0025430000Y0027381700
X0020700000Y0028900000
X0022260000Y0028065000
X0020890000Y0026090000
X0021060000Y0026510000
X0021550000Y0026185300
X0022122700Y0026190000
X0022507700Y0026190000
X0020177300Y0027620000
X0020170000Y0027150000
X0020500000Y0027170000
X0020565000Y0026800000
X0020710000Y0027800000
X0022070100Y0026770100
X0022026100Y0027099900
X0022170000Y0027325000
X0022290000Y0027700000
X0022288900Y0027755000
X0020259800Y0028265300
X0020600000Y0028670000
X0021610000Y0028107700
X0021300000Y0028120000
X0021891300Y0028130000
X0020700000Y0028230000
X0021355000Y0028714000
X0022205000Y0028159800
X0022150000Y0028159800
X0022260000Y0028115000
X0022907700Y0026190000
X0022907700Y0026110000
X0022122700Y0026110000
X0022507700Y0026110000
X0023905000Y0026115000
X0024570000Y0026100000
X0025450000Y0026945000
X0025375000Y0027381700
X0025455000Y0027575000
X0025495000Y0026420000
X0024505000Y0029160000
X0023440000Y0029435000
X0024128900Y0027135000
X0025000000Y0028260000
X0024745000Y0027355000
X0024572300Y0027517500
X0025707700Y0027610000
X0025640000Y0026413900
X0025125000Y0026427700
X0022720000Y0026780000
X0022772700Y0026780000
X0025080000Y0027030000
X0023360000Y0026925000
X0024862300Y0026405000
X0024170000Y0022965000
X0022080000Y0024925000
X0022080000Y0025236000
X0024628000Y0024245000
X0022710000Y0017775000
X0022845000Y0020095000
X0022275000Y0019250000
X0022655000Y0019405000
X0022975000Y0019265000
X0022845000Y0019570000
X0022980000Y0019850000
X0021040000Y0019010000
X0021035000Y0019395000
X0021175000Y0019235000
X0021355000Y0019410000
X0021725000Y0019255000
X0022020000Y0019400000
X0023875000Y0018395000
X0024230000Y0018250000
X0024475000Y0018400000
X0024780000Y0018275000
X0024650000Y0018580000
X0024770000Y0018900000
X0024535000Y0018755000
X0024265000Y0018905000
X0023940000Y0018755000
X0022385000Y0017900000
X0022225000Y0018250000
X0022580000Y0018405000
X0023000000Y0018265000
X0023270000Y0018410000
X0023740000Y0018270000
X0023585000Y0018900000
X0023250000Y0018755000
X0022915000Y0018890000
X0022640000Y0018760000
X0022360000Y0018910000
X0022055000Y0017770000
X0021840000Y0017905000
X0021515000Y0017770000
X0021295000Y0017905000
X0021045000Y0017780000
X0021180000Y0018060000
X0021045000Y0018195000
X0021225000Y0018410000
X0021520000Y0018265000
X0021810000Y0018400000
X0022060000Y0018760000
X0021800000Y0018900000
X0021500000Y0018760000
X0021245000Y0018890000
X0021035000Y0018755000
X0022916000Y0021990000
X0022500000Y0022381200
X0022916000Y0022382300
X0025305000Y0026420000
X0021292600Y0027775000
X0025200000Y0026377700
X0025252700Y0026325000
X0025200000Y0026325000
X0025287600Y0027590000
X0021535000Y0026562500
X0025290000Y0027680000
X0021585000Y0027530000
X0025719700Y0027520000
X0021410000Y0027730000
X0020970000Y0026090000
X0020970000Y0026500000
X0024020200Y0028479800
X0020520000Y0027260000
X0020610000Y0028570000
X0020540000Y0027570000
X0024600000Y0028910000
X0021350000Y0027810000
X0024525100Y0028663300
X0020690000Y0026730000
X0023030000Y0026610000
X0023030000Y0026670000
X0021145000Y0026000000
X0022460000Y0027835000
X0022460000Y0027885000
X0022290000Y0028600000
X0022340000Y0028600000
X0022800000Y0028620000
X0022700000Y0028614800
X0022600000Y0028614800
X0022800000Y0028920000
R02X-0000100000
X0022510000Y0026650000
X0022670000Y0027010000
X0022670000Y0027110000
X0022670000Y0027060000
X0023320300Y0027810000
X0023322900Y0027862700
X0023368100Y0027889900
X0023350000Y0027625000
X0022395000Y0027150200
X0023140000Y0028785200
X0022980000Y0028360000
X0022920000Y0028359800
X0022695000Y0028410000
X0022470000Y0026610000
X0024475000Y0028679800
X0020495000Y0026697500
X0024425000Y0028660000
X0020570000Y0026740000
X0024375000Y0028679800
X0020525000Y0026905000
X0020670000Y0028780000
X0020945000Y0028800000
X0024680400Y0027928600
X0024679800Y0027875900
X0023822700Y0028120000
X0023770000Y0028120000
X0023710000Y0028120000
X0023865000Y0028255000
X0024680000Y0027820000
X0020830000Y0028800000
X0021140000Y0029100000
X0020770000Y0028800000
X0021075000Y0029100000
X0020620000Y0028085000
X0020710000Y0027490000
X0020780000Y0028043800
X0020830000Y0027640000
X0025015000Y0028572700
X0024810000Y0028910000
X0023780000Y0028950000
X0020631500Y0028320000
X0021477700Y0028330000
X0023430000Y0027035000
X0024225600Y0027515000
X0024350000Y0027690000
X0023450000Y0028350000
X0023628300Y0028377300
X0023710000Y0028520000
X0023762700Y0028520000
X0023630000Y0028430000
X0025470000Y0028990000
R02X0000060000
X0024450000Y0027690000
X0020650200Y0028470000
X0020710000Y0028100000
X0020639600Y0028521700
X0020590000Y0027502600
X0021860000Y0026395000
X0022350000Y0026335000
X0022730000Y0025825000
X0024075000Y0025975000
X0023070000Y0025567500
X0024000000Y0026050000
X0021870000Y0029025000
X0023660000Y0025915000
X0021802500Y0025827500
X0023555000Y0025965000
X0023025000Y0023684000
X0023073000Y0023430000
X0023073000Y0024290000
X0023500000Y0024895000
X0021795000Y0023060000
X0024124000Y0022895000
X0022968000Y0023775000
X0024255000Y0021685000
X0022928000Y0023257500
X0022455000Y0024780000
X0021075000Y0024935000
X0022872500Y0023247500
X0022525000Y0024719000
X0021000000Y0024840000
X0024018700Y0024990000
X0020229400Y0021970000
X0022420000Y0023610000
X0022470000Y0023660000
X0022375000Y0023655000
X0022475000Y0023605000
X0024315000Y0022000000
X0024192400Y0021612600
X0024445000Y0024010000
X0023020000Y0023981500
X0022415000Y0024010000
X0021020000Y0024020000
X0023006500Y0024153500
X0022416500Y0024153500
X0024530000Y0023990000
X0025200000Y0028450000
X0025200000Y0028100000
X0024947500Y0027647500
X0025200000Y0026950000
X0025400000Y0025550000
X0025100000Y0025225000
X0023825000Y0023950000
X0021910000Y0024980000
X0025725000Y0027975000
X0025739800Y0027375000
X0025700000Y0026150000
X0024825000Y0025475000
X0023125000Y0025275000
X0022210000Y0025035000
X0022160000Y0024930000
X0024470000Y0022805000
X0023899900Y0024934900
X0023122500Y0024230000
X0023525000Y0024775200
X0023895000Y0025530000
X0024218900Y0025190000
X0023172000Y0024145000
X0023672000Y0024770000
X0023680000Y0025135000
X0023292500Y0024055000
X0023960000Y0024775000
X0023222500Y0024070000
X0023816000Y0024765000
X0023972000Y0025232500
X0023930000Y0025465000
X0022092400Y0026520100
X0022305100Y0026520100
X0022373900Y0026547500
X0022305000Y0026400000
X0020258300Y0028543500
X0020782400Y0027780000
X0024490000Y0022025000
X0023952000Y0022695000
X0024424000Y0023071000
X0024328000Y0023825000
X0022350000Y0024815000
X0023809400Y0024952700
X0024120000Y0024710000
X0023803800Y0024947100
X0021010000Y0029102700
X0021010000Y0028910000
X0021450100Y0028785000
X0021449900Y0028732300
X0021973800Y0028100000
X0020186100Y0027868600
X0020180000Y0027770000
X0020335000Y0027870000
X0020379900Y0027819900
X0020267200Y0028670000
X0020840000Y0027780000
X0021925000Y0027850000
X0021569900Y0027820100
X0022420000Y0022430000
X0022752000Y0023720000
X0022420000Y0022637500
X0022680000Y0023720000
X0022608000Y0023725000
X0022435000Y0023319700
X0022535000Y0023315000
X0023430300Y0023059700
X0023420000Y0022480000
X0022392400Y0023147600
X0022407500Y0022822500
X0022370000Y0023310000
X0022485000Y0023285000
X0024400000Y0036700000
X0025300000Y0036350000
X0024925000Y0036250000
X0025025000Y0035750000
X0024325000Y0034875000
X0023900000Y0035925000
X0024050000Y0035025000
X0023975000Y0034750000
X0023300000Y0034775000
X0021600000Y0035850000
X0022575000Y0035025000
X0022675000Y0036025000
X0021025000Y0035725000
X0023550000Y0034500000
X0024825000Y0030675000
X0020875000Y0030300000
X0021025000Y0030325000
X0021275000Y0029250000
X0021300000Y0029600000
X0021300000Y0029800000
X0020950000Y0030075000
X0021210000Y0029105000
X0020725000Y0028850000
X0021975000Y0030150000
X0023475000Y0034100000
X0022475000Y0030775000
X0022500000Y0030150000
X0023475000Y0031250000
X0022750000Y0031800000
X0024025000Y0030050000
X0025425000Y0030925000
X0025625000Y0035450000
X0025550000Y0033500000
X0025650000Y0035925000
X0025550000Y0036825000
X0022450000Y0036950000
X0025075000Y0037100000
X0025250000Y0031425000
X0023150000Y0030375000
X0020125000Y0035575000
X0021675000Y0030475000
X0022125000Y0030050000
X0022100000Y0030250000
X0022075000Y0030425000
X0024550000Y0031350000
X0023825000Y0031750000
X0023800000Y0030625000
X0024575000Y0030900000
X0022950000Y0031075000
X0024575000Y0031975000
X0024000000Y0031425000
X0023400000Y0032000000
X0022750000Y0027500000
X0022600000Y0027450000
X0022450000Y0027450000
X0020275000Y0025350000
X0023070000Y0027095000
X0023100000Y0027307500
X0023285000Y0026085200
X0023195000Y0026085200
X0023955000Y0026380000
X0023305200Y0026820000
X0023094800Y0026820000
X0023235000Y0026905200
X0023150000Y0027225000
X0023185000Y0027030000
X0023150000Y0027285000
X0022577700Y0027755000
X0022462300Y0027755000
X0023066300Y0027756900
X0023150000Y0027825000
X0023053900Y0027705600
X0023015000Y0027455000
X0023115000Y0027455000
X0023065000Y0027545000
X0023015000Y0027635000
X0023115000Y0027635000
X0022290000Y0029025000
X0023080000Y0028515000
X0021587300Y0028680000
X0021600000Y0028920000
X0021660000Y0028920000
X0021770000Y0028980000
X0021912500Y0028946300
X0021971900Y0028926900
X0022650000Y0029100000
X0022650000Y0029224800
X0022750000Y0029224800
X0022544800Y0029420000
X0022865200Y0029420000
X0021270000Y0028897300
X0020163400Y0028418100
X0025775000Y0027900000
X0025725000Y0027450000
X0025750000Y0026600000
X0025780000Y0027130000
X0025750000Y0027300000
X0025750000Y0025900000
X0025775000Y0026125000
X0024227300Y0029450000
X0024401000Y0027896300
X0024512500Y0027990000
X0025060000Y0028100000
X0025040200Y0027930000
X0024740000Y0028080000
X0025017300Y0028880000
X0024239900Y0028391400
X0024240200Y0028338700
X0024475000Y0028250200
X0024950000Y0028350000
X0024664800Y0028340000
X0024210300Y0029080000
X0024370000Y0029060000
X0024240000Y0028590000
X0024910000Y0028165200
X0024239900Y0028286000
X0024280000Y0028670000
X0024805000Y0028190000
X0024735000Y0029365000
X0024910000Y0029290000
X0024910000Y0029090000
X0024735000Y0029190000
X0024795000Y0028820000
X0024280000Y0029370000
X0024430000Y0029020000
X0024580000Y0028670000
X0024520000Y0028900000
X0024450000Y0028900000
X0024480000Y0028390000
X0024660000Y0028490000
X0024660000Y0028540000
X0025380000Y0027900000
X0025132700Y0028880000
X0025500000Y0028619800
X0025570000Y0028619800
X0025380000Y0028650000
X0025310000Y0028647700
X0025440000Y0028570000
X0025640000Y0028210200
X0025560000Y0028210200
X0025440100Y0028145200
X0025110000Y0028195200
X0025440000Y0028500000
X0025370000Y0028220000
X0025101100Y0029105000
X0025075000Y0028745000
X0025073900Y0028670000
X0025097600Y0028482600
X0025085000Y0029365000
X0025085000Y0029190000
X0024320000Y0026390000
X0024450000Y0026390000
X0025010000Y0026487300
X0024320000Y0026530000
X0024580000Y0026530000
X0024580000Y0026440000
X0024400000Y0027345000
X0024400000Y0027500700
X0024435000Y0027852400
X0024370000Y0027853600
X0024600000Y0027790000
X0024190000Y0027818700
X0025060000Y0027680000
X0025060000Y0027590000
X0025060000Y0027490000
X0024672300Y0027195000
X0024715000Y0027138700
X0024590000Y0027400000
X0024210000Y0027400000
X0025040200Y0027870000
X0025040000Y0027810000
X0024540000Y0026930000
X0024750000Y0026926200
X0024840000Y0026802500
X0024670000Y0026801100
X0025010000Y0026857700
X0024400000Y0026895000
X0024280000Y0026940000
X0024280000Y0027080000
X0024625000Y0027105000
X0024940000Y0027764800
X0024860000Y0027600000
X0024990000Y0027600000
X0024860000Y0027450000
X0024990000Y0027450000
X0024880000Y0026890000
X0024900000Y0027050000
X0025060000Y0027190000
X0025300000Y0027530000
X0025120000Y0027330000
X0025180000Y0027190000
X0025250000Y0027230000
X0025470000Y0027420000
X0025500000Y0026675000
X0024260000Y0026170000
X0024505000Y0026155000
X0024380000Y0026220000
X0024685000Y0026255000
X0024695000Y0026185000
X0024980000Y0026285000
X0024665000Y0025880000
X0024250000Y0025920000
X0024475000Y0025550000
X0024675000Y0025550000
X0024690000Y0025740000
X0025300000Y0025980000
X0025650000Y0026200000
X0025580000Y0026130000
X0025480000Y0025980000
X0025225000Y0026125000
X0025515000Y0025825000
X0025140000Y0026096100
X0023350000Y0029420000
X0023470000Y0028070000
X0023150200Y0027880000
X0023250000Y0028180000
X0023150000Y0028525000
X0023150000Y0028600000
X0023325000Y0028600000
X0023325000Y0028525000
X0023240000Y0028565000
X0023360000Y0028180000
X0023240000Y0028867700
X0023460000Y0028880000
X0022840000Y0028415000
X0023150000Y0027760000
X0023110000Y0029280000
X0022935000Y0029005000
X0023110000Y0028905000
X0023285000Y0029005000
X0023285000Y0029180000
X0022865200Y0029330000
X0022765000Y0028280000
X0022855300Y0028515000
X0023020000Y0028571300
X0023190000Y0028820000
X0022920000Y0028580200
X0023400000Y0028560000
X0023460000Y0028560000
X0023470000Y0028640000
X0023350000Y0029300000
X0023280000Y0029360000
X0023650000Y0027994700
X0023910000Y0027910000
X0023970000Y0027910000
X0024145000Y0028105000
X0023710000Y0028000000
X0023545000Y0028130000
X0023940000Y0028390000
X0024157600Y0029080000
X0024160200Y0029010000
X0024150000Y0028900000
X0024000000Y0028900000
X0024070000Y0028900000
X0023967500Y0028691300
X0024070000Y0028790000
X0023930000Y0028850000
X0023942700Y0028337300
X0023600000Y0028830000
X0024140000Y0028200000
X0022832300Y0026390000
X0022960000Y0026430000
X0023055000Y0026420000
X0023482300Y0026735000
X0023439900Y0027500100
X0023500000Y0027186300
X0023165000Y0026905200
X0023337300Y0027700000
X0022834700Y0026950000
X0022770000Y0027010200
X0022770000Y0027110300
X0022805000Y0027237300
X0023270000Y0027052700
X0023300000Y0027145000
X0024140000Y0026395000
X0024070000Y0026461100
X0024017300Y0026515000
X0023850000Y0026379800
X0023597700Y0026740000
X0023965700Y0027654800
X0023700000Y0027700000
X0023760000Y0027470000
X0023636500Y0027698700
X0024110000Y0027818700
X0024034700Y0027719300
X0023557700Y0027125000
X0024090000Y0027060000
X0024040000Y0027060000
X0023590000Y0027420000
X0023590000Y0027350000
X0024075000Y0027282700
X0024131300Y0027225000
X0023754000Y0027191200
X0023965000Y0027060000
X0024130000Y0026800000
X0022780000Y0025510000
X0022907700Y0026010000
X0022690000Y0026155000
X0022788700Y0026010000
X0023412700Y0026000000
X0023075000Y0026005000
X0023485000Y0026275000
X0024010000Y0026275000
X0023910000Y0025890000
X0024160000Y0025640000
X0023580000Y0026140000
X0021855000Y0029425000
X0022200000Y0029430000
X0021851300Y0028070000
X0021458700Y0028058300
X0021700000Y0029235000
X0021665000Y0028152300
X0021460100Y0028111000
X0021414200Y0028652000
X0021190000Y0028750000
X0021980000Y0028510000
X0021769800Y0028470000
X0021850000Y0028630000
X0021769800Y0028530000
X0021830000Y0028390000
X0021980000Y0028570000
X0021500000Y0028580000
X0021760000Y0029160000
X0021900000Y0029160000
X0021569800Y0028220000
X0021520000Y0028112700
X0021750200Y0028227300
X0021920000Y0028630000
X0021600000Y0029041300
X0021680000Y0029055200
R02X0000060000
X0021640000Y0028680000
X0021480000Y0028650000
X0021569800Y0028280000
X0021750200Y0028280000
X0021270000Y0029102700
X0021190000Y0028800000
X0021250000Y0028802700
X0021250000Y0028750000
X0021580000Y0028600000
X0021446200Y0028510000
X0021371800Y0028238800
X0021360000Y0028137300
X0021420000Y0028181100
X0021482700Y0028240000
X0021210000Y0028210000
X0022137800Y0028032700
X0022545000Y0028100000
X0022475000Y0028130000
X0022480200Y0028070000
X0022137200Y0027980000
X0022355000Y0029255000
X0022030000Y0029195000
X0022400000Y0029090200
X0022415000Y0028594700
X0022482700Y0029020000
X0022232300Y0028960000
X0022515000Y0028410000
X0022544800Y0029330000
X0022750000Y0029100000
X0022465000Y0028310000
X0022415000Y0028220000
X0022515000Y0028220000
X0022480200Y0028530000
X0022415000Y0028410000
X0022205000Y0028480000
X0022145000Y0028480000
X0021170000Y0026500000
X0021200000Y0027400000
X0021400000Y0027150000
X0021200000Y0027000000
X0021700000Y0027150000
X0021730000Y0027810000
X0021800000Y0027810000
X0021415000Y0026600000
X0021770000Y0026585000
X0021805000Y0027410000
X0021810000Y0027535000
X0021164100Y0027822500
X0022000000Y0027840000
X0021660000Y0027810000
X0021755000Y0026775000
X0021600000Y0027000000
X0021600000Y0027400000
X0022145000Y0026440000
X0022081900Y0026401000
X0022245000Y0026385000
X0022640000Y0026525000
X0022300000Y0027542500
X0022030000Y0027495200
X0022227700Y0027160000
X0022080000Y0027108700
X0022300000Y0027412500
X0022227300Y0027030000
X0022027700Y0027410000
X0022510000Y0026945000
X0022435000Y0027195000
X0022170000Y0027108700
X0022280000Y0027088900
X0022060000Y0027010000
X0021272000Y0025595000
X0021235000Y0025930000
X0021290000Y0026235000
X0022007300Y0026015000
X0021895000Y0026165000
X0021701300Y0026245000
X0021132300Y0026210000
X0021132300Y0026262700
X0021740000Y0026125000
X0021780000Y0025977700
X0022150000Y0025985000
X0022260000Y0026140000
X0022395000Y0025990000
X0022475000Y0025945000
X0022430000Y0026350000
X0022583300Y0026005000
X0020300000Y0027990000
X0020210000Y0027990000
X0020250000Y0028975000
X0020460000Y0028772800
X0020570000Y0028980000
X0020640000Y0028850000
X0020965000Y0028480000
X0020840000Y0028355000
X0021090000Y0028605000
X0021090000Y0028350000
X0020845000Y0028595000
X0020575000Y0029101100
X0020503100Y0028369900
X0020513800Y0028250000
X0020365000Y0026485000
X0020085000Y0026895000
X0020090000Y0026995000
X0020240000Y0027468700
X0020170000Y0027090000
X0020172300Y0027250000
X0020100000Y0026694700
X0020225000Y0027301300
X0020230000Y0026694700
X0020177300Y0027530000
X0020085000Y0027095000
X0020890000Y0026520000
X0020600000Y0027000000
X0020645000Y0027290000
X0020950000Y0027810000
X0020610000Y0027780000
X0020610000Y0027670000
X0020540000Y0027110000
X0020760000Y0027690000
X0020760000Y0027545000
X0020950000Y0027700000
X0021025000Y0026770000
X0020900000Y0027000000
X0021110000Y0027815000
X0020615000Y0027170000
X0020360000Y0026360000
X0020095000Y0026330000
X0020430000Y0026190000
X0021115000Y0025867500
X0021010000Y0025595000
X0020575000Y0026055000
X0020670000Y0026120000
X0021020000Y0025830000
X0022300000Y0022710000
X0024445000Y0023200000
X0024325000Y0024065000
X0024440000Y0023740000
X0021380000Y0023485000
X0021715000Y0023155000
X0021060000Y0023805000
X0024800000Y0022950000
R02Y-0000250000
X0023500000Y0021750000
X0023400000Y0021650000
X0023400000Y0021950000
X0023400000Y0022050000
X0023550000Y0021850000
X0023350000Y0022150000
X0023250000Y0022150000
X0023250000Y0022050000
X0022150000Y0021700000
X0022050000Y0021600000
X0022150000Y0021900000
X0022050000Y0021800000
X0022150000Y0022100000
X0022050000Y0022000000
X0022050000Y0022200000
X0022150000Y0022300000
X0022750000Y0022000000
X0023000000Y0021650000
X0022900000Y0021550000
X0023000000Y0021550000
X0022800000Y0021600000
X0022800000Y0021800000
X0022900000Y0021850000
X0022900000Y0021750000
X0022800000Y0021900000
X0022650000Y0022000000
X0022650000Y0021850000
X0022550000Y0021900000
X0022475000Y0021950000
X0022525000Y0022025000
X0022850000Y0022050000
X0022775000Y0022125000
X0022325000Y0022325000
X0022300000Y0021525000
X0022100000Y0021525000
X0022100000Y0021250000
X0023500000Y0021525000
X0023375000Y0021525000
X0023475000Y0021250000
X0023375000Y0021250000
X0022500000Y0021250000
X0022700000Y0021225000
X0022875000Y0021400000
X0022950000Y0021400000
X0023125000Y0021250000
X0023225000Y0021350000
X0022600000Y0021325000
X0022375000Y0021250000
X0022400000Y0021500000
X0022525000Y0021525000
X0022700000Y0021525000
X0023025000Y0021475000
X0022800000Y0021475000
X0022915000Y0021275000
X0022810000Y0021050000
X0022810000Y0021095000
X0023025000Y0021050000
X0023025000Y0021095000
X0022915000Y0021140000
X0022335000Y0021735000
X0022415000Y0021735000
X0022335000Y0021810000
X0022725000Y0021685000
X0022720000Y0021765000
X0022645000Y0021760000
X0022320000Y0022125000
X0023330000Y0021912700
X0023390000Y0021855000
X0023330000Y0021795000
X0023130000Y0021555000
X0023085000Y0021605000
X0023130000Y0021655000
X0023090000Y0021750000
X0023020000Y0021800000
X0023155000Y0021795000
X0023190000Y0022100000
X0023190000Y0022170000
X0023110000Y0022175000
X0023025000Y0022260000
X0022970000Y0022320000
X0022700000Y0022215000
X0022685000Y0022165000
X0022685000Y0022095000
X0022615000Y0022100000
X0022290000Y0022240000
X0022290000Y0022170000
X0022390000Y0022370000
X0022525000Y0022450000
X0022600000Y0022445000
X0023832000Y0025435000
X0024045000Y0024035000
X0023590000Y0022540000
X0025330000Y0025060000
X0025760000Y0024550000
X0025280000Y0025180000
X0020250000Y0021680000
X0024800000Y0025390000
X0024136700Y0024970000
X0024260000Y0025000000
X0024730000Y0024950000
X0025020000Y0025190000
X0024010000Y0025140000
X0024330000Y0025190000
X0024520000Y0025080000
X0020700000Y0025410000
X0020530000Y0025080000
X0020504000Y0025255000
X0025610000Y0024687300
X0023532000Y0023215000
X0023475000Y0023270000
X0023396000Y0023275000
X0022068000Y0022605000
X0022045000Y0022510000
X0022289200Y0022409200
X0023745000Y0022080000
X0023630000Y0022080000
X0023675000Y0024020000
X0024280000Y0023385000
X0024016000Y0023730000
X0023605000Y0024895000
X0023600000Y0025055000
X0024100000Y0023285000
X0023570000Y0022995000
X0023524000Y0023500000
X0024615000Y0022600000
X0024775000Y0022230000
X0024080000Y0022240000
X0023465000Y0022210000
X0023550000Y0020910000
X0023045000Y0020300000
X0022775000Y0020635000
X0022765000Y0020510000
X0022775000Y0020835000
X0022785000Y0020290000
X0022505000Y0020290000
X0022215000Y0020295000
X0021810000Y0020290000
X0021355000Y0020295000
X0020800000Y0020295000
X0020160000Y0020305000
X0020075000Y0020495000
X0020075000Y0020780000
X0020075000Y0021145000
X0020075000Y0021555000
X0020090000Y0022010000
X0020085000Y0022705000
X0020080000Y0023330000
X0020080000Y0024060000
X0020085000Y0024435000
X0020320000Y0024735000
X0020095000Y0024580000
X0020390000Y0025180000
X0020395000Y0025415000
X0021060000Y0024305000
X0021330000Y0024825000
X0022065000Y0023245000
X0022075000Y0022770000
X0021020000Y0020755000
X0021170000Y0021135000
X0021675000Y0021170000
X0022145000Y0020750000
X0021935000Y0021430000
X0021675000Y0021425000
X0021440000Y0021490000
X0021915000Y0021545000
X0021480000Y0022715000
X0023800000Y0021760000
X0023890000Y0021245000
X0023800000Y0020905000
X0024135000Y0020905000
X0023270000Y0020300000
X0023545000Y0020300000
X0023860000Y0020305000
X0024305000Y0020305000
X0024580000Y0020305000
X0025135000Y0020305000
X0025625000Y0020305000
X0025745000Y0020465000
X0025750000Y0020895000
X0025740000Y0021315000
X0025735000Y0021815000
X0025750000Y0022230000
X0025750000Y0022625000
X0025750000Y0023225000
R02Y0000400000
X0025755000Y0024335000
X0025110000Y0024815000
X0024745000Y0024690000
X0024805000Y0024515000
X0024325000Y0024265000
X0023460000Y0024415000
X0023150000Y0024810000
X0023100000Y0025050000
X0023820000Y0022505000
X0023980000Y0022515000
X0024485000Y0022295000
X0024715000Y0021800000
X0024675000Y0021360000
X0024360000Y0020940000
X0024740000Y0020935000
X0024800000Y0020610000
X0024565000Y0020700000
X0023385000Y0020655000
X0023675000Y0020665000
X0023930000Y0020670000
X0024170000Y0020645000
X0024330000Y0020620000
X0024475000Y0020800000
X0022300000Y0022785000
X0023340000Y0023190000
X0022755000Y0023490000
X0022545000Y0023435000
X0022400000Y0023795000
X0022275000Y0023615000
X0022975000Y0023875000
X0022295000Y0023905000
X0022070000Y0023580000
X0021540000Y0023605000
X0021240000Y0023270000
X0021505000Y0024160000
X0021965000Y0024360000
X0022020000Y0023980000
X0021675000Y0024835000
X0020945000Y0021935000
X0020355000Y0021135000
X0020505000Y0020645000
X0021290000Y0022100000
X0025245000Y0020660000
X0021585000Y0020795000
X0025175000Y0020885000
X0025455000Y0021550000
X0025440000Y0022000000
X0021060000Y0021525000
X0023060000Y0020535000
X0023090000Y0020465000
X0023085000Y0020695000
X0023765000Y0021840000
X0023930000Y0022075000
X0023975000Y0021785000
X0022815000Y0023845000
X0022550000Y0023520000
X0022650000Y0023570000
X0022305000Y0023360000
X0022305000Y0023745000
X0022905000Y0023700000
X0022765000Y0020405000
X0025410000Y0020485000
X0024970000Y0020495000
X0022835000Y0023760000
X0022210000Y0022560000
X0021420000Y0024620000
X0021015000Y0024605000
X0021300000Y0024915000
X0021250000Y0024485000
X0021130000Y0024110000
X0021280000Y0023870000
X0021305000Y0024225000
X0021515000Y0024430000
X0021505000Y0024880000
X0021845000Y0024900000
X0022235000Y0024805000
X0022120000Y0024615000
X0022020000Y0024835000
X0021765000Y0024615000
X0022110000Y0024395000
X0022125000Y0024160000
X0021760000Y0024285000
X0021725000Y0023900000
X0022136000Y0023770000
X0021500000Y0023915000
X0021790000Y0023535000
X0021795000Y0023295000
X0021675000Y0023415000
X0021400000Y0023715000
X0022135000Y0023415000
X0021825000Y0023690000
X0021645000Y0023755000
X0022052000Y0023140000
X0021065000Y0023565000
X0021050000Y0023380000
X0021370000Y0023125000
X0021600000Y0023010000
X0021390000Y0023235000
X0021190000Y0023450000
X0021140000Y0023940000
X0021980000Y0023425000
X0021805000Y0024105000
X0022325000Y0024325000
X0022325000Y0024580000
X0022555000Y0024635000
X0022875000Y0024490000
X0022505000Y0024445000
X0022740000Y0024310000
X0023000000Y0024360000
X0022615000Y0023890000
X0023450000Y0023845000
X0023392000Y0023750000
X0023400000Y0023510000
X0023750000Y0023350000
X0023880000Y0023040000
X0024050000Y0023110000
X0024195000Y0023605000
X0023770000Y0023555000
X0023600000Y0023775000
X0020305000Y0024620000
X0020270000Y0024450000
X0020285000Y0024140000
X0020265000Y0023755000
X0020270000Y0023385000
X0020260000Y0022990000
X0020310000Y0022570000
X0020450000Y0022365000
X0020685000Y0021940000
X0021045000Y0022260000
X0021075000Y0022500000
X0021250000Y0022580000
X0021365000Y0022675000
X0021695000Y0022760000
X0021884000Y0022670000
X0021695000Y0022600000
X0021330000Y0022330000
X0020910000Y0021185000
X0021360000Y0020580000
X0021905000Y0021030000
X0021880000Y0020535000
X0022390000Y0020805000
X0022595000Y0020895000
X0022435000Y0020530000
X0022625000Y0020655000
X0024335000Y0021260000
X0024075000Y0021365000
X0023720000Y0021600000
X0023605000Y0021565000
X0024925000Y0021005000
X0024885000Y0021550000
X0025510000Y0020790000
X0025520000Y0021150000
X0025435000Y0022590000
X0025435000Y0022905000
X0025440000Y0023285000
X0025475000Y0023750000
X0025490000Y0024155000
X0025085000Y0024055000
X0025080000Y0023810000
X0023900000Y0024255000
X0023650000Y0024275000
X0023245000Y0024605000
X0023335000Y0025010000
X0022785000Y0025070000
X0023025000Y0025210000
X0022930000Y0024965000
X0022490000Y0025260000
X0022250000Y0025240000
X0024890000Y0024950000
X0024730000Y0025575000
X0021090000Y0024465000
X0021145000Y0024575000
X0021065000Y0022800000
X0020765000Y0022800000
X0021084000Y0022995000
X0020765000Y0023290000
X0020205000Y0023220000
X0020115000Y0023855000
X0020770000Y0023815000
X0020600000Y0020850000
X0020465000Y0021505000
X0020865000Y0020590000
X0021105000Y0020465000
X0021345000Y0020920000
X0021375000Y0021245000
X0025515000Y0022255000
X0025665000Y0021610000
X0025195000Y0021855000
X0024960000Y0021355000
X0024565000Y0022125000
X0023785000Y0023130000
X0023945000Y0023370000
X0022695000Y0024640000
X0020720000Y0025170000
X0023585000Y0022485000
X0023535000Y0023060000
X0023655000Y0023145000
X0023700000Y0023005000
X0023655000Y0023255000
X0023925000Y0023170000
X0024910000Y0022000000
X0025220000Y0021960000
X0024625000Y0021550000
X0023950000Y0021590000
X0024235000Y0022180000
X0024945000Y0020775000
X0025320000Y0020350000
X0020185000Y0021355000
X0020870000Y0020940000
X0020520000Y0020425000
X0021885000Y0020745000
X0021255000Y0021840000
X0021275000Y0021550000
X0020820000Y0021650000
X0020830000Y0021435000
X0020565000Y0021820000
X0020775000Y0022555000
X0020770000Y0022050000
X0021700000Y0022090000
X0021435000Y0022475000
X0021485000Y0023135000
X0021832000Y0023215000
X0022005000Y0023645000
X0021920000Y0023860000
X0021950000Y0024175000
X0022292000Y0024215000
X0021920000Y0024520000
X0021324000Y0024035000
X0021595000Y0024565000
X0021520000Y0024770000
X0021820000Y0024775000
X0021724000Y0024435000
X0021405000Y0024320000
X0020920000Y0025415000
X0023690000Y0021040000
X0023385000Y0020480000
X0023720000Y0020435000
X0023450000Y0023590000
X0023670000Y0023550000
X0023880000Y0023255000
X0023915000Y0023815000
X0024195000Y0023765000
X0023360000Y0024030000
X0021865000Y0021215000
X0023745000Y0021235000
X0023920000Y0021435000
X0023660000Y0021760000
X0024235000Y0020480000
X0024105000Y0020340000
X0024800000Y0020400000
X0025575000Y0020510000
X0025450000Y0020995000
X0025690000Y0021150000
X0024305000Y0021060000
X0025020000Y0021685000
X0024850000Y0021855000
X0024340000Y0021795000
X0024450000Y0021800000
X0024600000Y0022400000
X0024720000Y0022070000
X0025700000Y0022910000
X0025100000Y0023590000
X0024855000Y0023310000
X0025665000Y0023830000
X0025690000Y0023420000
X0025170000Y0025015000
X0024960000Y0024715000
X0024105000Y0024550000
X0021910000Y0022360000
X0021935000Y0022120000
X0021935000Y0021790000
X0021395000Y0021710000
X0021035000Y0021715000
X0024575000Y0024160000
X0024150000Y0036925000
T02
X0022742500Y0023015000
R04X0000100000
X0022742500Y0022915000
R04X0000100000
X0022742500Y0022815000
R04X0000100000
X0022742500Y0022715000
R04X0000100000
X0023142500Y0022615000
R04X-0000100000
T03
X0020320000Y0030620000
X0020320000Y0029830000
T04
X0024225000Y0037000000
X0024475000Y0037000000
X0024675000Y0037000000
X0024925000Y0037000000
T05
X0020425000Y0036600000
X0021025000Y0036600000
X0020725000Y0037070000
T06
X0020638300Y0024446000
X0020892300Y0024446000
X0020638300Y0024192000
X0020892300Y0024192000
X0020638300Y0023938000
X0020892300Y0023938000
X0020638300Y0023684000
X0020892300Y0023684000
X0020638300Y0023430000
X0020892300Y0023430000
X0020638300Y0023176000
X0020892300Y0023176000
X0020638300Y0022922000
X0020892300Y0022922000
X0020638300Y0022668000
X0020892300Y0022668000
X0020638300Y0022414000
X0020892300Y0022414000
X0020638300Y0022160000
X0020892300Y0022160000
X0024958300Y0024446000
X0025212300Y0024446000
X0024958300Y0024192000
X0025212300Y0024192000
X0024958300Y0023938000
X0025212300Y0023938000
X0024958300Y0023684000
X0025212300Y0023684000
X0024958300Y0023430000
X0025212300Y0023430000
X0024958300Y0023176000
X0025212300Y0023176000
X0024958300Y0022922000
X0025212300Y0022922000
X0024958300Y0022668000
X0025212300Y0022668000
X0024958300Y0022414000
X0025212300Y0022414000
X0024958300Y0022160000
X0025212300Y0022160000
X0025210000Y0021142000
R02Y0000254000
X0020640000Y0021142000
R02Y0000254000
X0023686300Y0025716000
X0023686300Y0025462000
X0023432300Y0025716000
X0023432300Y0025462000
X0023178300Y0025716000
X0023178300Y0025462000
X0022924300Y0025716000
X0022924300Y0025462000
X0022670300Y0025716000
X0022670300Y0025462000
X0022416300Y0025716000
X0022416300Y0025462000
X0022162300Y0025716000
X0022162300Y0025462000
X0021908300Y0025716000
X0021908300Y0025462000
X0021654300Y0025716000
X0021654300Y0025462000
X0021400300Y0025716000
X0021400300Y0025462000
X0021146300Y0025716000
X0021146300Y0025462000
X0021563800Y0021977300
X0021563800Y0022231300
X0021817800Y0021977300
X0021817800Y0022231300
X0024990000Y0025970000
R02Y-0000254000
T07
X0020300000Y0025760000
X0025134000Y0033992000
X0025134000Y0033738000
X0024880000Y0033992000
X0024880000Y0033738000
X0024626000Y0033992000
X0024626000Y0033738000
X0024372000Y0033992000
X0024372000Y0033738000
X0024118000Y0033992000
X0024118000Y0033738000
X0023864000Y0033992000
X0023864000Y0033738000
X0023610000Y0033992000
X0023610000Y0033738000
X0023356000Y0033992000
X0023356000Y0033738000
X0023102000Y0033992000
X0023102000Y0033738000
X0022848000Y0033992000
X0022848000Y0033738000
X0022594000Y0033992000
X0022594000Y0033738000
X0022340000Y0033992000
X0022340000Y0033738000
X0022086000Y0033992000
X0022086000Y0033738000
X0021832000Y0033992000
X0021832000Y0033738000
X0021578000Y0033992000
X0021578000Y0033738000
X0021324000Y0033992000
X0021324000Y0033738000
X0021070000Y0033992000
X0021070000Y0033738000
X0020816000Y0033992000
X0020816000Y0033738000
X0025134000Y0031452000
X0025134000Y0031198000
X0024880000Y0031452000
X0024880000Y0031198000
X0024626000Y0031452000
X0024626000Y0031198000
X0024372000Y0031452000
X0024372000Y0031198000
X0024118000Y0031452000
X0024118000Y0031198000
X0023864000Y0031452000
X0023864000Y0031198000
X0023610000Y0031452000
X0023610000Y0031198000
X0023356000Y0031452000
X0023356000Y0031198000
X0023102000Y0031452000
X0023102000Y0031198000
X0022848000Y0031452000
X0022848000Y0031198000
X0022594000Y0031452000
X0022594000Y0031198000
X0022340000Y0031452000
X0022340000Y0031198000
X0022086000Y0031452000
X0022086000Y0031198000
X0021832000Y0031452000
X0021832000Y0031198000
X0021578000Y0031452000
X0021578000Y0031198000
X0021324000Y0031452000
X0021324000Y0031198000
X0021070000Y0031452000
X0021070000Y0031198000
X0020816000Y0031452000
X0020816000Y0031198000
T08
X0023918000Y0036729000
X0025232000Y0036729000
T09
X0020250000Y0017850000
X0020250000Y0029270000
X0025580000Y0029270000
X0025580000Y0017850000
T10
X0020307500Y0025244600
X0020307500Y0025014600
X0022157100Y0029280000
X0021927100Y0029280000
X0025550000Y0025012900
X0025550000Y0025242900
T11
X0020273500Y0028093000
X0020172000Y0028855000
X0020375000Y0028855000
T12
X0022172500Y0019832500
X0023672500Y0019832500
M30
