G04 ================== begin FILE IDENTIFICATION RECORD ==================*
G04 Layout Name:  WCS038B.brd*
G04 Film Name:    LAUNCHXL-CC1352R1_paste_top*
G04 File Format:  Gerber RS274X*
G04 File Origin:  Cadence Allegro 17.2-S007*
G04 Origin Date:  Thu Mar 12 10:23:52 2020*
G04 *
G04 Layer:  DRAWING FORMAT/TITLE_BLOCK*
G04 Layer:  BOARD GEOMETRY/TOP PASTE*
G04 Layer:  PIN/FILMMASKTOP*
G04 Layer:  BOARD GEOMETRY/OUTLINE*
G04 *
G04 Offset:    (0.000 0.000)*
G04 Mirror:    No*
G04 Mode:      Positive*
G04 Rotation:  0*
G04 FullContactRelief:  No*
G04 UndefLineWidth:     0.099*
G04 ================== end FILE IDENTIFICATION RECORD ====================*
%FSLAX25Y25*MOMM*%
%IR0*IPPOS*OFA0.00000B0.00000*MIA0B0*SFA1.00000B1.00000*%
%AMMACRO74*
4,1,41,-.5,0.0,
-.5,-.256,
-.49672,-.293989,
-.486894,-.330832,
-.470819,-.365409,
-.448983,-.396669,
-.422052,-.423662,
-.390842,-.445569,
-.356303,-.461723,
-.319483,-.471634,
-.282,-.475,
.282,-.475,
.319974,-.471546,
.356771,-.461551,
.391274,-.445318,
.422434,-.42334,
.449304,-.396285,
.471067,-.364976,
.487063,-.330363,
.496806,-.293498,
.5,-.256,
.5,.256,
.49672,.293989,
.486894,.330832,
.470819,.365409,
.448983,.396669,
.422052,.423662,
.390842,.445569,
.356303,.461723,
.319483,.471634,
.282,.475,
-.282,.475,
-.319974,.471546,
-.356771,.461551,
-.391274,.445318,
-.422434,.42334,
-.449304,.396285,
-.471067,.364976,
-.487063,.330363,
-.496806,.293498,
-.5,.256,
-.5,0.0,
0.0*
%
%ADD74MACRO74*%
%AMMACRO60*
4,1,41,0.0,.5,
-.256,.5,
-.293989,.49672,
-.330832,.486894,
-.365409,.470819,
-.396669,.448983,
-.423662,.422052,
-.445569,.390842,
-.461723,.356303,
-.471634,.319483,
-.475,.282,
-.475,-.282,
-.471546,-.319974,
-.461551,-.356771,
-.445318,-.391274,
-.42334,-.422434,
-.396285,-.449304,
-.364976,-.471067,
-.330363,-.487063,
-.293498,-.496806,
-.256,-.5,
.256,-.5,
.293989,-.49672,
.330832,-.486894,
.365409,-.470819,
.396669,-.448983,
.423662,-.422052,
.445569,-.390842,
.461723,-.356303,
.471634,-.319483,
.475,-.282,
.475,.282,
.471546,.319974,
.461551,.356771,
.445318,.391274,
.42334,.422434,
.396285,.449304,
.364976,.471067,
.330363,.487063,
.293498,.496806,
.256,.5,
0.0,.5,
0.0*
%
%ADD60MACRO60*%
%AMMACRO59*
4,1,41,0.0,-.35,
.169,-.35,
.191788,-.347963,
.213875,-.341999,
.234592,-.332291,
.253307,-.319133,
.269454,-.302924,
.282541,-.284158,
.29217,-.263405,
.298049,-.241295,
.3,-.219,
.3,.219,
.297963,.241788,
.291999,.263875,
.282291,.284592,
.269133,.303307,
.252924,.319454,
.234158,.332541,
.213405,.34217,
.191295,.348049,
.169,.35,
-.169,.35,
-.191788,.347963,
-.213875,.341999,
-.234592,.332291,
-.253307,.319133,
-.269454,.302924,
-.282541,.284158,
-.29217,.263405,
-.298049,.241295,
-.3,.219,
-.3,-.219,
-.297963,-.241788,
-.291999,-.263875,
-.282291,-.284592,
-.269133,-.303307,
-.252924,-.319454,
-.234158,-.332541,
-.213405,-.34217,
-.191295,-.348049,
-.169,-.35,
0.0,-.35,
0.0*
%
%ADD59MACRO59*%
%AMMACRO97*
4,1,45,0.0,-.375,
.088,-.375,
.098845,-.373964,
.109346,-.37106,
.119183,-.366377,
.128057,-.360057,
.135699,-.352292,
.141876,-.343318,
.146402,-.333407,
.149137,-.322862,
.15,-.312001,
.15,-.312,
.15,.312,
.149137,.322861,
.146402,.333406,
.141877,.343317,
.1357,.352291,
.128058,.360056,
.119184,.366376,
.109347,.37106,
.098847,.373964,
.088001,.375,
.088,.375,
-.088,.375,
-.098845,.373964,
-.109346,.37106,
-.119183,.366377,
-.128057,.360057,
-.135699,.352292,
-.141876,.343318,
-.146402,.333407,
-.149137,.322862,
-.15,.312001,
-.15,.312,
-.15,-.312,
-.149137,-.322861,
-.146402,-.333406,
-.141877,-.343317,
-.1357,-.352291,
-.128058,-.360056,
-.119184,-.366376,
-.109347,-.37106,
-.098847,-.373964,
-.088001,-.375,
-.088,-.375,
0.0,-.375,
0.0*
%
%ADD97MACRO97*%
%AMMACRO82*
4,1,22,-.15,.4,
-.15,-.325,
-.148861,-.338024,
-.145477,-.350652,
-.139952,-.3625,
-.132453,-.373209,
-.123209,-.382453,
-.1125,-.389952,
-.100652,-.395477,
-.088024,-.398861,
-.075,-.4,
.075,-.4,
.088024,-.398861,
.100652,-.395477,
.1125,-.389952,
.123209,-.382453,
.132453,-.373209,
.139952,-.3625,
.145477,-.350652,
.148861,-.338024,
.15,-.325,
.15,.4,
-.15,.4,
0.0*
%
%ADD82MACRO82*%
%AMMACRO79*
4,1,22,-.4,-.15,
.325,-.15,
.338024,-.148861,
.350652,-.145477,
.3625,-.139952,
.373209,-.132453,
.382453,-.123209,
.389952,-.1125,
.395477,-.100652,
.398861,-.088024,
.4,-.075,
.4,.075,
.398861,.088024,
.395477,.100652,
.389952,.1125,
.382453,.123209,
.373209,.132453,
.3625,.139952,
.350652,.145477,
.338024,.148861,
.325,.15,
-.4,.15,
-.4,-.15,
0.0*
%
%ADD79MACRO79*%
%AMMACRO67*
4,1,45,1.275,0.0,
1.275,.606,
1.266403,.704766,
1.240786,.800539,
1.198927,.890408,
1.142098,.971644,
1.072027,1.041777,
.990842,1.098677,
.901009,1.140615,
.805259,1.166316,
.7065,1.175,
.706,1.175,
-.706,1.175,
-.804766,1.166403,
-.900539,1.140786,
-.990408,1.098927,
-1.071644,1.042098,
-1.141777,.972027,
-1.198677,.890842,
-1.240615,.801009,
-1.266316,.705259,
-1.275,.6065,
-1.275,.606,
-1.275,-.606,
-1.266403,-.704766,
-1.240786,-.800539,
-1.198927,-.890408,
-1.142098,-.971644,
-1.072027,-1.041777,
-.990842,-1.098677,
-.901009,-1.140615,
-.805259,-1.166316,
-.7065,-1.175,
-.706,-1.175,
.706,-1.175,
.804766,-1.166403,
.900539,-1.140786,
.990408,-1.098927,
1.071644,-1.042098,
1.141777,-.972027,
1.198677,-.890842,
1.240615,-.801009,
1.266316,-.705259,
1.275,-.6065,
1.275,-.606,
1.275,0.0,
0.0*
%
%ADD67MACRO67*%
%ADD22O,1.501X.201*%
%ADD23O,.201X1.501*%
%AMMACRO46*
4,1,44,.45,.188,
.45,-.188,
.447175,-.22062,
.438729,-.252253,
.424918,-.281939,
.406162,-.308776,
.38303,-.331949,
.356227,-.350752,
.326565,-.364615,
.294946,-.373118,
.262332,-.376,
.262,-.376,
-.262,-.376,
-.29462,-.373175,
-.326253,-.364729,
-.355939,-.350918,
-.382776,-.332162,
-.405949,-.30903,
-.424752,-.282227,
-.438615,-.252565,
-.447118,-.220946,
-.45,-.188332,
-.45,-.188,
-.45,.188,
-.447175,.22062,
-.438729,.252253,
-.424918,.281939,
-.406162,.308776,
-.38303,.331949,
-.356227,.350752,
-.326565,.364615,
-.294946,.373118,
-.262332,.376,
-.262,.376,
.262,.376,
.29462,.373175,
.326253,.364729,
.355939,.350918,
.382776,.332162,
.405949,.30903,
.424752,.282227,
.438615,.252565,
.447118,.220946,
.45,.188332,
.45,.188,
0.0*
%
%ADD46MACRO46*%
%ADD75R,1.7X.3*%
%AMMACRO33*
4,1,45,.376,0.0,
.376,.206,
.373522,.235432,
.365972,.263987,
.353577,.290796,
.336715,.315046,
.315899,.336,
.29176,.353021,
.265032,.365591,
.236528,.373329,
.207113,.376,
.206,.376,
-.206,.376,
-.235432,.373522,
-.263987,.365972,
-.290796,.353577,
-.315046,.336715,
-.336,.315899,
-.353021,.29176,
-.365591,.265032,
-.373329,.236528,
-.376,.207113,
-.376,.206,
-.376,-.206,
-.373522,-.235432,
-.365972,-.263987,
-.353577,-.290796,
-.336715,-.315046,
-.315899,-.336,
-.29176,-.353021,
-.265032,-.365591,
-.236528,-.373329,
-.207113,-.376,
-.206,-.376,
.206,-.376,
.235432,-.373522,
.263987,-.365972,
.290796,-.353577,
.315046,-.336715,
.336,-.315899,
.353021,-.29176,
.365591,-.265032,
.373329,-.236528,
.376,-.207113,
.376,-.206,
.376,0.0,
0.0*
%
%ADD33MACRO33*%
%AMMACRO106*
4,1,20,1.2,-.825,
-1.2,-.825,
-1.2,-.35,
-1.9,-.35,
-1.9,-.15,
-1.2,-.15,
-1.2,.15,
-1.9,.15,
-1.9,.35,
-1.2,.35,
-1.2,.825,
1.2,.825,
1.2,.35,
1.9,.35,
1.9,.15,
1.2,.15,
1.2,-.15,
1.9,-.15,
1.9,-.35,
1.2,-.35,
1.2,-.825,
0.0*
%
%ADD106MACRO106*%
%ADD88O,1.55X.6*%
%ADD78O,.551X2.05*%
%AMMACRO32*
4,1,41,-.35,0.0,
-.35,-.075,
-.348861,-.088024,
-.345477,-.100652,
-.339952,-.1125,
-.332453,-.123209,
-.323209,-.132453,
-.3125,-.139952,
-.300652,-.145477,
-.288024,-.148861,
-.275,-.15,
.275,-.15,
.288024,-.148861,
.300652,-.145477,
.3125,-.139952,
.323209,-.132453,
.332453,-.123209,
.339952,-.1125,
.345477,-.100652,
.348861,-.088024,
.35,-.075,
.35,.075,
.348861,.088024,
.345477,.100652,
.339952,.1125,
.332453,.123209,
.323209,.132453,
.3125,.139952,
.300652,.145477,
.288024,.148861,
.275,.15,
-.275,.15,
-.288024,.148861,
-.300652,.145477,
-.3125,.139952,
-.323209,.132453,
-.332453,.123209,
-.339952,.1125,
-.345477,.100652,
-.348861,.088024,
-.35,.075,
-.35,0.0,
0.0*
%
%ADD32MACRO32*%
%AMMACRO83*
4,1,41,-1.35,0.0,
-1.35,-.288,
-1.345545,-.337916,
-1.332491,-.386301,
-1.311232,-.431683,
-1.282416,-.472684,
-1.246918,-.508059,
-1.205817,-.536732,
-1.160361,-.557833,
-1.111931,-.570719,
-1.062,-.575,
1.062,-.575,
1.111931,-.570719,
1.160361,-.557833,
1.205817,-.536732,
1.246918,-.508059,
1.282416,-.472684,
1.311232,-.431683,
1.332491,-.386301,
1.345545,-.337916,
1.35,-.288,
1.35,.288,
1.345545,.337916,
1.332491,.386301,
1.311232,.431683,
1.282416,.472684,
1.246918,.508059,
1.205817,.536732,
1.160361,.557833,
1.111931,.570719,
1.062,.575,
-1.062,.575,
-1.111931,.570719,
-1.160361,.557833,
-1.205817,.536732,
-1.246918,.508059,
-1.282416,.472684,
-1.311232,.431683,
-1.332491,.386301,
-1.345545,.337916,
-1.35,.288,
-1.35,0.0,
0.0*
%
%ADD83MACRO83*%
%ADD71C,1.8*%
%ADD68R,.9X1.7*%
%AMMACRO30*
4,1,45,-.2,0.0,
-.2,-.088,
-.198584,-.103187,
-.194552,-.117896,
-.188028,-.131683,
-.179208,-.144127,
-.168361,-.15485,
-.155818,-.163527,
-.141958,-.169894,
-.127203,-.173757,
-.112001,-.175,
-.112,-.175,
.112,-.175,
.127202,-.173758,
.141957,-.169894,
.155817,-.163528,
.168361,-.154851,
.179207,-.144127,
.188027,-.131684,
.194552,-.117897,
.198584,-.103187,
.2,-.088001,
.2,-.088,
.2,.088,
.198584,.103187,
.194552,.117896,
.188028,.131683,
.179208,.144127,
.168361,.15485,
.155818,.163527,
.141958,.169894,
.127203,.173757,
.112001,.175,
.112,.175,
-.112,.175,
-.127202,.173758,
-.141957,.169894,
-.155817,.163528,
-.168361,.154851,
-.179207,.144127,
-.188027,.131684,
-.194552,.117897,
-.198584,.103187,
-.2,.088001,
-.2,.088,
-.2,0.0,
0.0*
%
%ADD30MACRO30*%
%AMMACRO29*
4,1,45,0.0,.2,
-.088,.2,
-.103187,.198584,
-.117896,.194552,
-.131683,.188028,
-.144127,.179208,
-.15485,.168361,
-.163527,.155818,
-.169894,.141958,
-.173757,.127203,
-.175,.112001,
-.175,.112,
-.175,-.112,
-.173758,-.127202,
-.169894,-.141957,
-.163528,-.155817,
-.154851,-.168361,
-.144127,-.179207,
-.131684,-.188027,
-.117897,-.194552,
-.103187,-.198584,
-.088001,-.2,
-.088,-.2,
.088,-.2,
.103187,-.198584,
.117896,-.194552,
.131683,-.188028,
.144127,-.179208,
.15485,-.168361,
.163527,-.155818,
.169894,-.141958,
.173757,-.127203,
.175,-.112001,
.175,-.112,
.175,.112,
.173758,.127202,
.169894,.141957,
.163528,.155817,
.154851,.168361,
.144127,.179207,
.131684,.188027,
.117897,.194552,
.103187,.198584,
.088001,.2,
.088,.2,
0.0,.2,
0.0*
%
%ADD29MACRO29*%
%ADD10C,1.27*%
%AMMACRO48*
4,1,41,.5,0.0,
.5,.238,
.496305,.279234,
.485506,.3192,
.467931,.356683,
.444114,.390545,
.414779,.419757,
.380817,.443431,
.34326,.460848,
.303249,.471479,
.262,.475,
-.262,.475,
-.303249,.471479,
-.34326,.460848,
-.380817,.443431,
-.414779,.419757,
-.444114,.390545,
-.467931,.356683,
-.485506,.3192,
-.496305,.279234,
-.5,.238,
-.5,-.238,
-.496305,-.279234,
-.485506,-.3192,
-.467931,-.356683,
-.444114,-.390545,
-.414779,-.419757,
-.380817,-.443431,
-.34326,-.460848,
-.303249,-.471479,
-.262,-.475,
.262,-.475,
.303249,-.471479,
.34326,-.460848,
.380817,-.443431,
.414779,-.419757,
.444114,-.390545,
.467931,-.356683,
.485506,-.3192,
.496305,-.279234,
.5,-.238,
.5,0.0,
0.0*
%
%ADD48MACRO48*%
%AMMACRO36*
4,1,14,.85,.3,
.85,-.3,
-.85,-.3,
-.85,.3,
-.49,.3,
-.395732,.222508,
-.28944,.162564,
-.174353,.121987,
-.053969,.102012,
.068055,.103244,
.188012,.125647,
.302255,.16854,
.407315,.230619,
.49,.3,
.85,.3,
0.0*
%
%ADD36MACRO36*%
%AMMACRO53*
4,1,41,0.0,-.5,
.238,-.5,
.279234,-.496305,
.3192,-.485506,
.356683,-.467931,
.390545,-.444114,
.419757,-.414779,
.443431,-.380817,
.460848,-.34326,
.471479,-.303249,
.475,-.262,
.475,.262,
.471479,.303249,
.460848,.34326,
.443431,.380817,
.419757,.414779,
.390545,.444114,
.356683,.467931,
.3192,.485506,
.279234,.496305,
.238,.5,
-.238,.5,
-.279234,.496305,
-.3192,.485506,
-.356683,.467931,
-.390545,.444114,
-.419757,.414779,
-.443431,.380817,
-.460848,.34326,
-.471479,.303249,
-.475,.262,
-.475,-.262,
-.471479,-.303249,
-.460848,-.34326,
-.443431,-.380817,
-.419757,-.414779,
-.390545,-.444114,
-.356683,-.467931,
-.3192,-.485506,
-.279234,-.496305,
-.238,-.5,
0.0,-.5,
0.0*
%
%ADD53MACRO53*%
%AMMACRO43*
4,1,41,.318,.318,
.177,.46,
.14998,.482092,
.119778,.499506,
.087012,.511412,
.052676,.517447,
.017814,.517427,
-.016516,.511354,
-.049269,.499413,
-.079451,.481965,
-.106,.46,
-.46,.106,
-.482209,.079101,
-.499593,.048882,
-.511465,.016104,
-.517464,-.018238,
-.517409,-.053101,
-.511301,-.087424,
-.499326,-.120165,
-.481847,-.150329,
-.46,-.177,
-.177,-.46,
-.14998,-.482092,
-.119778,-.499506,
-.087012,-.511412,
-.052676,-.517447,
-.017814,-.517427,
.016516,-.511354,
.049269,-.499413,
.079451,-.481965,
.106,-.46,
.46,-.106,
.482209,-.079101,
.499593,-.048882,
.511465,-.016104,
.517464,.018238,
.517409,.053101,
.511301,.087424,
.499326,.120165,
.481847,.150329,
.46,.177,
.318,.318,
0.0*
%
%ADD43MACRO43*%
%AMMACRO100*
4,1,45,0.0,.7,
-.212,.7,
-.261931,.695719,
-.310361,.682833,
-.355817,.661732,
-.396918,.633059,
-.432416,.597684,
-.461232,.556683,
-.482491,.511301,
-.495545,.462916,
-.5,.413,
-.5,.412,
-.5,-.412,
-.495719,-.461931,
-.482833,-.510361,
-.461732,-.555817,
-.433059,-.596918,
-.397684,-.632416,
-.356683,-.661232,
-.311301,-.682491,
-.262916,-.695545,
-.213,-.7,
-.212,-.7,
.212,-.7,
.261931,-.695719,
.310361,-.682833,
.355817,-.661732,
.396918,-.633059,
.432416,-.597684,
.461232,-.556683,
.482491,-.511301,
.495545,-.462916,
.5,-.413,
.5,-.412,
.5,.412,
.495719,.461931,
.482833,.510361,
.461732,.555817,
.433059,.596918,
.397684,.632416,
.356683,.661232,
.311301,.682491,
.262916,.695545,
.213,.7,
.212,.7,
0.0,.7,
0.0*
%
%ADD100MACRO100*%
%AMMACRO63*
4,1,45,-.7,0.0,
-.7,-.212,
-.695719,-.261931,
-.682833,-.310361,
-.661732,-.355817,
-.633059,-.396918,
-.597684,-.432416,
-.556683,-.461232,
-.511301,-.482491,
-.462916,-.495545,
-.413,-.5,
-.412,-.5,
.412,-.5,
.461931,-.495719,
.510361,-.482833,
.555817,-.461732,
.596918,-.433059,
.632416,-.397684,
.661232,-.356683,
.682491,-.311301,
.695545,-.262916,
.7,-.213,
.7,-.212,
.7,.212,
.695719,.261931,
.682833,.310361,
.661732,.355817,
.633059,.396918,
.597684,.432416,
.556683,.461232,
.511301,.482491,
.462916,.495545,
.413,.5,
.412,.5,
-.412,.5,
-.461931,.495719,
-.510361,.482833,
-.555817,.461732,
-.596918,.433059,
-.632416,.397684,
-.661232,.356683,
-.682491,.311301,
-.695545,.262916,
-.7,.213,
-.7,.212,
-.7,0.0,
0.0*
%
%ADD63MACRO63*%
%ADD27R,3.25X3.25*%
%AMMACRO85*
4,1,41,0.0,-.5,
.075,-.5,
.088024,-.498861,
.100652,-.495477,
.1125,-.489952,
.123209,-.482453,
.132453,-.473209,
.139952,-.4625,
.145477,-.450652,
.148861,-.438024,
.15,-.425,
.15,.425,
.148861,.438024,
.145477,.450652,
.139952,.4625,
.132453,.473209,
.123209,.482453,
.1125,.489952,
.100652,.495477,
.088024,.498861,
.075,.5,
-.075,.5,
-.088024,.498861,
-.100652,.495477,
-.1125,.489952,
-.123209,.482453,
-.132453,.473209,
-.139952,.4625,
-.145477,.450652,
-.148861,.438024,
-.15,.425,
-.15,-.425,
-.148861,-.438024,
-.145477,-.450652,
-.139952,-.4625,
-.132453,-.473209,
-.123209,-.482453,
-.1125,-.489952,
-.100652,-.495477,
-.088024,-.498861,
-.075,-.5,
0.0,-.5,
0.0*
%
%ADD85MACRO85*%
%ADD42R,5.25X5.25*%
%AMMACRO38*
4,1,45,-.25,0.0,
-.25,-.062,
-.247998,-.085884,
-.241879,-.109058,
-.231828,-.130817,
-.218153,-.1505,
-.201266,-.16751,
-.181683,-.181328,
-.159998,-.191537,
-.136869,-.197824,
-.113,-.2,
-.112,-.2,
.112,-.2,
.135884,-.197998,
.159058,-.191879,
.180817,-.181828,
.2005,-.168153,
.21751,-.151266,
.231328,-.131683,
.241537,-.109998,
.247824,-.086869,
.25,-.063,
.25,-.062,
.25,.062,
.247998,.085884,
.241879,.109058,
.231828,.130817,
.218153,.1505,
.201266,.16751,
.181683,.181328,
.159998,.191537,
.136869,.197824,
.113,.2,
.112,.2,
-.112,.2,
-.135884,.197998,
-.159058,.191879,
-.180817,.181828,
-.2005,.168153,
-.21751,.151266,
-.231328,.131683,
-.241537,.109998,
-.247824,.086869,
-.25,.063,
-.25,.062,
-.25,0.0,
0.0*
%
%ADD38MACRO38*%
%AMMACRO105*
4,1,41,0.0,.4,
-.05,.4,
-.058682,.39924,
-.067101,.396985,
-.075,.393301,
-.082139,.388302,
-.088302,.382139,
-.093301,.375,
-.096985,.367101,
-.09924,.358682,
-.1,.35,
-.1,-.35,
-.09924,-.358682,
-.096985,-.367101,
-.093301,-.375,
-.088302,-.382139,
-.082139,-.388302,
-.075,-.393301,
-.067101,-.396985,
-.058682,-.39924,
-.05,-.4,
.05,-.4,
.058682,-.39924,
.067101,-.396985,
.075,-.393301,
.082139,-.388302,
.088302,-.382139,
.093301,-.375,
.096985,-.367101,
.09924,-.358682,
.1,-.35,
.1,.35,
.09924,.358682,
.096985,.367101,
.093301,.375,
.088302,.382139,
.082139,.388302,
.075,.393301,
.067101,.396985,
.058682,.39924,
.05,.4,
0.0,.4,
0.0*
%
%ADD105MACRO105*%
%AMMACRO104*
4,1,41,-.4,0.0,
-.4,-.05,
-.39924,-.058682,
-.396985,-.067101,
-.393301,-.075,
-.388302,-.082139,
-.382139,-.088302,
-.375,-.093301,
-.367101,-.096985,
-.358682,-.09924,
-.35,-.1,
.35,-.1,
.358682,-.09924,
.367101,-.096985,
.375,-.093301,
.382139,-.088302,
.388302,-.082139,
.393301,-.075,
.396985,-.067101,
.39924,-.058682,
.4,-.05,
.4,.05,
.39924,.058682,
.396985,.067101,
.393301,.075,
.388302,.082139,
.382139,.088302,
.375,.093301,
.367101,.096985,
.358682,.09924,
.35,.1,
-.35,.1,
-.358682,.09924,
-.367101,.096985,
-.375,.093301,
-.382139,.088302,
-.388302,.082139,
-.393301,.075,
-.396985,.067101,
-.39924,.058682,
-.4,.05,
-.4,0.0,
0.0*
%
%ADD104MACRO104*%
%AMMACRO95*
4,1,41,-.725,0.0,
-.725,-.288,
-.720545,-.337916,
-.707491,-.386301,
-.686232,-.431683,
-.657416,-.472684,
-.621918,-.508059,
-.580817,-.536732,
-.535361,-.557833,
-.486931,-.570719,
-.438,-.575,
.438,-.575,
.487916,-.570545,
.536301,-.557491,
.581683,-.536232,
.622684,-.507416,
.658059,-.471918,
.686732,-.430817,
.707833,-.385361,
.720719,-.336931,
.725,-.288,
.725,.288,
.720545,.337916,
.707491,.386301,
.686232,.431683,
.657416,.472684,
.621918,.508059,
.580817,.536732,
.535361,.557833,
.486931,.570719,
.438,.575,
-.438,.575,
-.487916,.570545,
-.536301,.557491,
-.581683,.536232,
-.622684,.507416,
-.658059,.471918,
-.686732,.430817,
-.707833,.385361,
-.720719,.336931,
-.725,.288,
-.725,0.0,
0.0*
%
%ADD95MACRO95*%
%AMMACRO91*
4,1,41,0.0,.725,
-.288,.725,
-.337916,.720545,
-.386301,.707491,
-.431683,.686232,
-.472684,.657416,
-.508059,.621918,
-.536732,.580817,
-.557833,.535361,
-.570719,.486931,
-.575,.438,
-.575,-.438,
-.570545,-.487916,
-.557491,-.536301,
-.536232,-.581683,
-.507416,-.622684,
-.471918,-.658059,
-.430817,-.686732,
-.385361,-.707833,
-.336931,-.720719,
-.288,-.725,
.288,-.725,
.337916,-.720545,
.386301,-.707491,
.431683,-.686232,
.472684,-.657416,
.508059,-.621918,
.536732,-.580817,
.557833,-.535361,
.570719,-.486931,
.575,-.438,
.575,.438,
.570545,.487916,
.557491,.536301,
.536232,.581683,
.507416,.622684,
.471918,.658059,
.430817,.686732,
.385361,.707833,
.336931,.720719,
.288,.725,
0.0,.725,
0.0*
%
%ADD91MACRO91*%
%AMMACRO99*
4,1,41,.65,0.0,
.65,.225,
.646582,.264071,
.636431,.301955,
.619856,.3375,
.59736,.369627,
.569627,.39736,
.5375,.419856,
.501955,.436431,
.464071,.446582,
.425,.45,
-.425,.45,
-.464071,.446582,
-.501955,.436431,
-.5375,.419856,
-.569627,.39736,
-.59736,.369627,
-.619856,.3375,
-.636431,.301955,
-.646582,.264071,
-.65,.225,
-.65,-.225,
-.646582,-.264071,
-.636431,-.301955,
-.619856,-.3375,
-.59736,-.369627,
-.569627,-.39736,
-.5375,-.419856,
-.501955,-.436431,
-.464071,-.446582,
-.425,-.45,
.425,-.45,
.464071,-.446582,
.501955,-.436431,
.5375,-.419856,
.569627,-.39736,
.59736,-.369627,
.619856,-.3375,
.636431,-.301955,
.646582,-.264071,
.65,-.225,
.65,0.0,
0.0*
%
%ADD99MACRO99*%
%AMMACRO92*
4,1,41,.725,0.0,
.725,.075,
.723861,.088024,
.720477,.100652,
.714952,.1125,
.707453,.123209,
.698209,.132453,
.6875,.139952,
.675652,.145477,
.663024,.148861,
.65,.15,
-.65,.15,
-.663024,.148861,
-.675652,.145477,
-.6875,.139952,
-.698209,.132453,
-.707453,.123209,
-.714952,.1125,
-.720477,.100652,
-.723861,.088024,
-.725,.075,
-.725,-.075,
-.723861,-.088024,
-.720477,-.100652,
-.714952,-.1125,
-.707453,-.123209,
-.698209,-.132453,
-.6875,-.139952,
-.675652,-.145477,
-.663024,-.148861,
-.65,-.15,
.65,-.15,
.663024,-.148861,
.675652,-.145477,
.6875,-.139952,
.698209,-.132453,
.707453,-.123209,
.714952,-.1125,
.720477,-.100652,
.723861,-.088024,
.725,-.075,
.725,0.0,
0.0*
%
%ADD92MACRO92*%
%AMMACRO51*
4,1,41,0.0,.325,
-.05,.325,
-.058682,.32424,
-.067101,.321985,
-.075,.318301,
-.082139,.313302,
-.088302,.307139,
-.093301,.3,
-.096985,.292101,
-.09924,.283682,
-.1,.275,
-.1,-.275,
-.09924,-.283682,
-.096985,-.292101,
-.093301,-.3,
-.088302,-.307139,
-.082139,-.313302,
-.075,-.318301,
-.067101,-.321985,
-.058682,-.32424,
-.05,-.325,
.05,-.325,
.058682,-.32424,
.067101,-.321985,
.075,-.318301,
.082139,-.313302,
.088302,-.307139,
.093301,-.3,
.096985,-.292101,
.09924,-.283682,
.1,-.275,
.1,.275,
.09924,.283682,
.096985,.292101,
.093301,.3,
.088302,.307139,
.082139,.313302,
.075,.318301,
.067101,.321985,
.058682,.32424,
.05,.325,
0.0,.325,
0.0*
%
%ADD51MACRO51*%
%AMMACRO93*
4,1,41,0.0,-.725,
.075,-.725,
.088024,-.723861,
.100652,-.720477,
.1125,-.714952,
.123209,-.707453,
.132453,-.698209,
.139952,-.6875,
.145477,-.675652,
.148861,-.663024,
.15,-.65,
.15,.65,
.148861,.663024,
.145477,.675652,
.139952,.6875,
.132453,.698209,
.123209,.707453,
.1125,.714952,
.100652,.720477,
.088024,.723861,
.075,.725,
-.075,.725,
-.088024,.723861,
-.100652,.720477,
-.1125,.714952,
-.123209,.707453,
-.132453,.698209,
-.139952,.6875,
-.145477,.675652,
-.148861,.663024,
-.15,.65,
-.15,-.65,
-.148861,-.663024,
-.145477,-.675652,
-.139952,-.6875,
-.132453,-.698209,
-.123209,-.707453,
-.1125,-.714952,
-.100652,-.720477,
-.088024,-.723861,
-.075,-.725,
0.0,-.725,
0.0*
%
%ADD93MACRO93*%
%AMMACRO102*
4,1,41,0.0,.4,
-.05,.4,
-.063024,.398861,
-.075652,.395477,
-.0875,.389952,
-.098209,.382453,
-.107453,.373209,
-.114952,.3625,
-.120477,.350652,
-.123861,.338024,
-.125,.325,
-.125,-.325,
-.123861,-.338024,
-.120477,-.350652,
-.114952,-.3625,
-.107453,-.373209,
-.098209,-.382453,
-.0875,-.389952,
-.075652,-.395477,
-.063024,-.398861,
-.05,-.4,
.05,-.4,
.063024,-.398861,
.075652,-.395477,
.0875,-.389952,
.098209,-.382453,
.107453,-.373209,
.114952,-.3625,
.120477,-.350652,
.123861,-.338024,
.125,-.325,
.125,.325,
.123861,.338024,
.120477,.350652,
.114952,.3625,
.107453,.373209,
.098209,.382453,
.0875,.389952,
.075652,.395477,
.063024,.398861,
.05,.4,
0.0,.4,
0.0*
%
%ADD102MACRO102*%
%AMMACRO90*
4,1,41,.675,0.0,
.675,.112,
.672238,.144567,
.663863,.176159,
.65013,.205817,
.631455,.23264,
.608406,.255812,
.581683,.27463,
.552099,.288521,
.520551,.297065,
.488,.3,
-.488,.3,
-.520551,.297065,
-.552099,.288521,
-.581683,.27463,
-.608406,.255812,
-.631455,.23264,
-.65013,.205817,
-.663863,.176159,
-.672238,.144567,
-.675,.112,
-.675,-.112,
-.672238,-.144567,
-.663863,-.176159,
-.65013,-.205817,
-.631455,-.23264,
-.608406,-.255812,
-.581683,-.27463,
-.552099,-.288521,
-.520551,-.297065,
-.488,-.3,
.488,-.3,
.520551,-.297065,
.552099,-.288521,
.581683,-.27463,
.608406,-.255812,
.631455,-.23264,
.65013,-.205817,
.663863,-.176159,
.672238,-.144567,
.675,-.112,
.675,0.0,
0.0*
%
%ADD90MACRO90*%
%AMMACRO28*
4,1,45,-.701,0.0,
-.701,-.312,
-.696546,-.361916,
-.683492,-.410301,
-.662235,-.455683,
-.63342,-.496685,
-.597922,-.53206,
-.556821,-.560734,
-.511366,-.581835,
-.462937,-.594722,
-.413006,-.599003,
-.412,-.599,
.412,-.599,
.461946,-.594893,
.51042,-.582175,
.555949,-.561233,
.59715,-.532704,
.632771,-.497453,
.661729,-.456552,
.683145,-.411244,
.696368,-.362906,
.700997,-.313006,
.701,-.312,
.701,.312,
.696546,.361916,
.683492,.410301,
.662235,.455683,
.63342,.496685,
.597922,.53206,
.556821,.560734,
.511366,.581835,
.462937,.594722,
.413006,.599003,
.412,.599,
-.412,.599,
-.461946,.594893,
-.51042,.582175,
-.555949,.561233,
-.59715,.532704,
-.632771,.497453,
-.661729,.456552,
-.683145,.411244,
-.696368,.362906,
-.700997,.313006,
-.701,.312,
-.701,0.0,
0.0*
%
%ADD28MACRO28*%
%AMMACRO35*
4,1,44,-.263,.107,
-.278907,.088532,
-.291062,.067371,
-.299358,.044421,
-.303543,.020379,
-.303489,-.004025,
-.299198,-.028048,
-.290801,-.050962,
-.278552,-.072069,
-.262825,-.090728,
-.263,-.091,
-.091,-.263,
-.072124,-.278514,
-.051023,-.290772,
-.028113,-.29918,
-.004092,-.303483,
.020312,-.303548,
.044356,-.299375,
.06731,-.291091,
.088477,-.278946,
.107213,-.26331,
.107,-.263,
.263,-.107,
.278907,-.088532,
.291062,-.067371,
.299358,-.044421,
.303543,-.020379,
.303489,.004025,
.299198,.028048,
.290801,.050962,
.278552,.072069,
.262825,.090728,
.263,.091,
.091,.263,
.072124,.278514,
.051023,.290772,
.028113,.29918,
.004092,.303483,
-.020312,.303548,
-.044356,.299375,
-.06731,.291091,
-.088477,.278946,
-.107213,.26331,
-.107,.263,
-.263,.107,
0.0*
%
%ADD35MACRO35*%
%AMMACRO18*
4,1,40,-.11,.262,
-.134311,.259873,
-.157883,.253557,
-.18,.243244,
-.19999,.229246,
-.217246,.21199,
-.231244,.192,
-.241557,.169883,
-.247873,.146311,
-.25,.122,
-.25,-.122,
-.247873,-.146311,
-.241557,-.169883,
-.231244,-.192,
-.217246,-.21199,
-.19999,-.229246,
-.18,-.243244,
-.157883,-.253557,
-.134311,-.259873,
-.11,-.262,
.11,-.262,
.134311,-.259873,
.157883,-.253557,
.18,-.243244,
.19999,-.229246,
.217246,-.21199,
.231244,-.192,
.241557,-.169883,
.247873,-.146311,
.25,-.122,
.25,.122,
.247873,.146311,
.241557,.169883,
.231244,.192,
.217246,.21199,
.19999,.229246,
.18,.243244,
.157883,.253557,
.134311,.259873,
.11,.262,
-.11,.262,
0.0*
%
%ADD18MACRO18*%
%AMMACRO16*
4,1,40,-.262,-.11,
-.259873,-.134311,
-.253557,-.157883,
-.243244,-.18,
-.229246,-.19999,
-.21199,-.217246,
-.192,-.231244,
-.169883,-.241557,
-.146311,-.247873,
-.122,-.25,
.122,-.25,
.146311,-.247873,
.169883,-.241557,
.192,-.231244,
.21199,-.217246,
.229246,-.19999,
.243244,-.18,
.253557,-.157883,
.259873,-.134311,
.262,-.11,
.262,.11,
.259873,.134311,
.253557,.157883,
.243244,.18,
.229246,.19999,
.21199,.217246,
.192,.231244,
.169883,.241557,
.146311,.247873,
.122,.25,
-.122,.25,
-.146311,.247873,
-.169883,.241557,
-.192,.231244,
-.21199,.217246,
-.229246,.19999,
-.243244,.18,
-.253557,.157883,
-.259873,.134311,
-.262,.11,
-.262,-.11,
0.0*
%
%ADD16MACRO16*%
%AMMACRO12*
4,1,44,.107,.263,
.088532,.278907,
.067371,.291062,
.044421,.299358,
.020379,.303543,
-.004025,.303489,
-.028048,.299198,
-.050962,.290801,
-.072069,.278552,
-.090728,.262825,
-.091,.263,
-.263,.091,
-.278514,.072124,
-.290772,.051023,
-.29918,.028113,
-.303483,.004092,
-.303548,-.020312,
-.299375,-.044356,
-.291091,-.06731,
-.278946,-.088477,
-.26331,-.107213,
-.263,-.107,
-.107,-.263,
-.088532,-.278907,
-.067371,-.291062,
-.044421,-.299358,
-.020379,-.303543,
.004025,-.303489,
.028048,-.299198,
.050962,-.290801,
.072069,-.278552,
.090728,-.262825,
.091,-.263,
.263,-.091,
.278514,-.072124,
.290772,-.051023,
.29918,-.028113,
.303483,-.004092,
.303548,.020312,
.299375,.044356,
.291091,.06731,
.278946,.088477,
.26331,.107213,
.263,.107,
.107,.263,
0.0*
%
%ADD12MACRO12*%
%AMMACRO11*
4,1,44,-.107,-.263,
-.088532,-.278907,
-.067371,-.291062,
-.044421,-.299358,
-.020379,-.303543,
.004025,-.303489,
.028048,-.299198,
.050962,-.290801,
.072069,-.278552,
.090728,-.262825,
.091,-.263,
.263,-.091,
.278514,-.072124,
.290772,-.051023,
.29918,-.028113,
.303483,-.004092,
.303548,.020312,
.299375,.044356,
.291091,.06731,
.278946,.088477,
.26331,.107213,
.263,.107,
.107,.263,
.088532,.278907,
.067371,.291062,
.044421,.299358,
.020379,.303543,
-.004025,.303489,
-.028048,.299198,
-.050962,.290801,
-.072069,.278552,
-.090728,.262825,
-.091,.263,
-.263,.091,
-.278514,.072124,
-.290772,.051023,
-.29918,.028113,
-.303483,.004092,
-.303548,-.020312,
-.299375,-.044356,
-.291091,-.06731,
-.278946,-.088477,
-.26331,-.107213,
-.263,-.107,
-.107,-.263,
0.0*
%
%ADD11MACRO11*%
%AMMACRO57*
4,1,41,0.0,.325,
-.135,.325,
-.167125,.322189,
-.198274,.313843,
-.2275,.300215,
-.253916,.281718,
-.276718,.258916,
-.295215,.2325,
-.308843,.203274,
-.317189,.172125,
-.32,.14,
-.32,-.14,
-.317189,-.172125,
-.308843,-.203274,
-.295215,-.2325,
-.276718,-.258916,
-.253916,-.281718,
-.2275,-.300215,
-.198274,-.313843,
-.167125,-.322189,
-.135,-.325,
.135,-.325,
.167125,-.322189,
.198274,-.313843,
.2275,-.300215,
.253916,-.281718,
.276718,-.258916,
.295215,-.2325,
.308843,-.203274,
.317189,-.172125,
.32,-.14,
.32,.14,
.317189,.172125,
.308843,.203274,
.295215,.2325,
.276718,.258916,
.253916,.281718,
.2275,.300215,
.198274,.313843,
.167125,.322189,
.135,.325,
0.0,.325,
0.0*
%
%ADD57MACRO57*%
%AMMACRO45*
4,1,41,.23,.23,
.134,.325,
.1096,.34603,
.081668,.362146,
.051361,.373166,
.019602,.378755,
-.012646,.378745,
-.044402,.373136,
-.074701,.362097,
-.102623,.345964,
-.127,.325,
-.325,.127,
-.346002,.10257,
-.362124,.074642,
-.373152,.044339,
-.378751,.012581,
-.37875,-.019666,
-.373149,-.051424,
-.362118,-.081726,
-.345993,-.109653,
-.325,-.134,
-.134,-.325,
-.1096,-.34603,
-.081668,-.362146,
-.051361,-.373166,
-.019602,-.378755,
.012646,-.378745,
.044402,-.373136,
.074701,-.362097,
.102623,-.345964,
.127,-.325,
.325,-.127,
.346002,-.10257,
.362124,-.074642,
.373152,-.044339,
.378751,-.012581,
.37875,.019666,
.373149,.051424,
.362118,.081726,
.345993,.109653,
.325,.134,
.23,.23,
0.0*
%
%ADD45MACRO45*%
%AMMACRO24*
4,1,41,-.325,0.0,
-.325,-.135,
-.322189,-.167125,
-.313843,-.198274,
-.300215,-.2275,
-.281718,-.253916,
-.258916,-.276718,
-.2325,-.295215,
-.203274,-.308843,
-.172125,-.317189,
-.14,-.32,
.14,-.32,
.172125,-.317189,
.203274,-.308843,
.2325,-.295215,
.258916,-.276718,
.281718,-.253916,
.300215,-.2275,
.313843,-.198274,
.322189,-.167125,
.325,-.135,
.325,.135,
.322189,.167125,
.313843,.198274,
.300215,.2275,
.281718,.253916,
.258916,.276718,
.2325,.295215,
.203274,.308843,
.172125,.317189,
.14,.32,
-.14,.32,
-.172125,.317189,
-.203274,.308843,
-.2325,.295215,
-.258916,.276718,
-.281718,.253916,
-.300215,.2275,
-.313843,.198274,
-.322189,.167125,
-.325,.135,
-.325,0.0,
0.0*
%
%ADD24MACRO24*%
%AMMACRO77*
4,1,41,.5,0.0,
.5,.256,
.49672,.293989,
.486894,.330832,
.470819,.365409,
.448983,.396669,
.422052,.423662,
.390842,.445569,
.356303,.461723,
.319483,.471634,
.282,.475,
-.282,.475,
-.319974,.471546,
-.356771,.461551,
-.391274,.445318,
-.422434,.42334,
-.449304,.396285,
-.471067,.364976,
-.487063,.330363,
-.496806,.293498,
-.5,.256,
-.5,-.256,
-.49672,-.293989,
-.486894,-.330832,
-.470819,-.365409,
-.448983,-.396669,
-.422052,-.423662,
-.390842,-.445569,
-.356303,-.461723,
-.319483,-.471634,
-.282,-.475,
.282,-.475,
.319974,-.471546,
.356771,-.461551,
.391274,-.445318,
.422434,-.42334,
.449304,-.396285,
.471067,-.364976,
.487063,-.330363,
.496806,-.293498,
.5,-.256,
.5,0.0,
0.0*
%
%ADD77MACRO77*%
%AMMACRO66*
4,1,45,-.375,0.0,
-.375,-.088,
-.373964,-.098845,
-.37106,-.109346,
-.366377,-.119183,
-.360057,-.128057,
-.352292,-.135699,
-.343318,-.141876,
-.333407,-.146402,
-.322862,-.149137,
-.312001,-.15,
-.312,-.15,
.312,-.15,
.322861,-.149137,
.333406,-.146402,
.343317,-.141877,
.352291,-.1357,
.360056,-.128058,
.366376,-.119184,
.37106,-.109347,
.373964,-.098847,
.375,-.088001,
.375,-.088,
.375,.088,
.373964,.098845,
.37106,.109346,
.366377,.119183,
.360057,.128057,
.352292,.135699,
.343318,.141876,
.333407,.146402,
.322862,.149137,
.312001,.15,
.312,.15,
-.312,.15,
-.322861,.149137,
-.333406,.146402,
-.343317,.141877,
-.352291,.1357,
-.360056,.128058,
-.366376,.119184,
-.37106,.109347,
-.373964,.098847,
-.375,.088001,
-.375,.088,
-.375,0.0,
0.0*
%
%ADD66MACRO66*%
%AMMACRO54*
4,1,45,-.4,0.0,
-.4,-.106,
-.398999,-.117942,
-.395939,-.129529,
-.390914,-.140408,
-.384076,-.15025,
-.375633,-.158755,
-.365842,-.165664,
-.354999,-.170768,
-.343435,-.173912,
-.3315,-.175,
-.331,-.175,
.331,-.175,
.342942,-.173999,
.354529,-.170939,
.365408,-.165914,
.37525,-.159076,
.383755,-.150633,
.390664,-.140842,
.395768,-.129999,
.398912,-.118435,
.4,-.1065,
.4,-.106,
.4,.106,
.398999,.117942,
.395939,.129529,
.390914,.140408,
.384076,.15025,
.375633,.158755,
.365842,.165664,
.354999,.170768,
.343435,.173912,
.3315,.175,
.331,.175,
-.331,.175,
-.342942,.173999,
-.354529,.170939,
-.365408,.165914,
-.37525,.159076,
-.383755,.150633,
-.390664,.140842,
-.395768,.129999,
-.398912,.118435,
-.4,.1065,
-.4,.106,
-.4,0.0,
0.0*
%
%ADD54MACRO54*%
%AMMACRO84*
4,1,44,-.188,.45,
.188,.45,
.22062,.447175,
.252253,.438729,
.281939,.424918,
.308776,.406162,
.331949,.38303,
.350752,.356227,
.364615,.326565,
.373118,.294946,
.376,.262332,
.376,.262,
.376,-.262,
.373175,-.29462,
.364729,-.326253,
.350918,-.355939,
.332162,-.382776,
.30903,-.405949,
.282227,-.424752,
.252565,-.438615,
.220946,-.447118,
.188332,-.45,
.188,-.45,
-.188,-.45,
-.22062,-.447175,
-.252253,-.438729,
-.281939,-.424918,
-.308776,-.406162,
-.331949,-.38303,
-.350752,-.356227,
-.364615,-.326565,
-.373118,-.294946,
-.376,-.262332,
-.376,-.262,
-.376,.262,
-.373175,.29462,
-.364729,.326253,
-.350918,.355939,
-.332162,.382776,
-.30903,.405949,
-.282227,.424752,
-.252565,.438615,
-.220946,.447118,
-.188332,.45,
-.188,.45,
0.0*
%
%ADD84MACRO84*%
%AMMACRO80*
4,1,22,.4,.15,
-.325,.15,
-.338024,.148861,
-.350652,.145477,
-.3625,.139952,
-.373209,.132453,
-.382453,.123209,
-.389952,.1125,
-.395477,.100652,
-.398861,.088024,
-.4,.075,
-.4,-.075,
-.398861,-.088024,
-.395477,-.100652,
-.389952,-.1125,
-.382453,-.123209,
-.373209,-.132453,
-.3625,-.139952,
-.350652,-.145477,
-.338024,-.148861,
-.325,-.15,
.4,-.15,
.4,.15,
0.0*
%
%ADD80MACRO80*%
%AMMACRO81*
4,1,22,.15,-.4,
.15,.325,
.148861,.338024,
.145477,.350652,
.139952,.3625,
.132453,.373209,
.123209,.382453,
.1125,.389952,
.100652,.395477,
.088024,.398861,
.075,.4,
-.075,.4,
-.088024,.398861,
-.100652,.395477,
-.1125,.389952,
-.123209,.382453,
-.132453,.373209,
-.139952,.3625,
-.145477,.350652,
-.148861,.338024,
-.15,.325,
-.15,-.4,
.15,-.4,
0.0*
%
%ADD81MACRO81*%
%AMMACRO21*
4,1,45,-.376,0.0,
-.376,-.206,
-.373522,-.235432,
-.365972,-.263987,
-.353577,-.290796,
-.336715,-.315046,
-.315899,-.336,
-.29176,-.353021,
-.265032,-.365591,
-.236528,-.373329,
-.207113,-.376,
-.206,-.376,
.206,-.376,
.235432,-.373522,
.263987,-.365972,
.290796,-.353577,
.315046,-.336715,
.336,-.315899,
.353021,-.29176,
.365591,-.265032,
.373329,-.236528,
.376,-.207113,
.376,-.206,
.376,.206,
.373522,.235432,
.365972,.263987,
.353577,.290796,
.336715,.315046,
.315899,.336,
.29176,.353021,
.265032,.365591,
.236528,.373329,
.207113,.376,
.206,.376,
-.206,.376,
-.235432,.373522,
-.263987,.365972,
-.290796,.353577,
-.315046,.336715,
-.336,.315899,
-.353021,.29176,
-.365591,.265032,
-.373329,.236528,
-.376,.207113,
-.376,.206,
-.376,0.0,
0.0*
%
%ADD21MACRO21*%
%AMMACRO94*
4,1,41,.7,0.0,
.7,.3,
.695442,.352094,
.681908,.402606,
.659808,.45,
.629813,.492836,
.592836,.529813,
.55,.559808,
.502606,.581908,
.452094,.595442,
.4,.6,
-.4,.6,
-.452094,.595442,
-.502606,.581908,
-.55,.559808,
-.592836,.529813,
-.629813,.492836,
-.659808,.45,
-.681908,.402606,
-.695442,.352094,
-.7,.3,
-.7,-.3,
-.695442,-.352094,
-.681908,-.402606,
-.659808,-.45,
-.629813,-.492836,
-.592836,-.529813,
-.55,-.559808,
-.502606,-.581908,
-.452094,-.595442,
-.4,-.6,
.4,-.6,
.452094,-.595442,
.502606,-.581908,
.55,-.559808,
.592836,-.529813,
.629813,-.492836,
.659808,-.45,
.681908,-.402606,
.695442,-.352094,
.7,-.3,
.7,0.0,
0.0*
%
%ADD94MACRO94*%
%ADD98R,2.5X1.65*%
%ADD25O,.851X.3*%
%AMMACRO101*
4,1,20,-1.2,.825,
1.2,.825,
1.2,.35,
1.9,.35,
1.9,.15,
1.2,.15,
1.2,-.15,
1.9,-.15,
1.9,-.35,
1.2,-.35,
1.2,-.825,
-1.2,-.825,
-1.2,-.35,
-1.9,-.35,
-1.9,-.15,
-1.2,-.15,
-1.2,.15,
-1.9,.15,
-1.9,.35,
-1.2,.35,
-1.2,.825,
0.0*
%
%ADD101MACRO101*%
%ADD55R,1.65X2.5*%
%ADD26O,.3X.851*%
%AMMACRO65*
4,1,41,-.5,0.0,
-.5,-.238,
-.496305,-.279234,
-.485506,-.3192,
-.467931,-.356683,
-.444114,-.390545,
-.414779,-.419757,
-.380817,-.443431,
-.34326,-.460848,
-.303249,-.471479,
-.262,-.475,
.262,-.475,
.303249,-.471479,
.34326,-.460848,
.380817,-.443431,
.414779,-.419757,
.444114,-.390545,
.467931,-.356683,
.485506,-.3192,
.496305,-.279234,
.5,-.238,
.5,.238,
.496305,.279234,
.485506,.3192,
.467931,.356683,
.444114,.390545,
.414779,.419757,
.380817,.443431,
.34326,.460848,
.303249,.471479,
.262,.475,
-.262,.475,
-.303249,.471479,
-.34326,.460848,
-.380817,.443431,
-.414779,.419757,
-.444114,.390545,
-.467931,.356683,
-.485506,.3192,
-.496305,.279234,
-.5,.238,
-.5,0.0,
0.0*
%
%ADD65MACRO65*%
%AMMACRO47*
4,1,41,0.0,.5,
-.238,.5,
-.279234,.496305,
-.3192,.485506,
-.356683,.467931,
-.390545,.444114,
-.419757,.414779,
-.443431,.380817,
-.460848,.34326,
-.471479,.303249,
-.475,.262,
-.475,-.262,
-.471479,-.303249,
-.460848,-.34326,
-.443431,-.380817,
-.419757,-.414779,
-.390545,-.444114,
-.356683,-.467931,
-.3192,-.485506,
-.279234,-.496305,
-.238,-.5,
.238,-.5,
.279234,-.496305,
.3192,-.485506,
.356683,-.467931,
.390545,-.444114,
.419757,-.414779,
.443431,-.380817,
.460848,-.34326,
.471479,-.303249,
.475,-.262,
.475,.262,
.471479,.303249,
.460848,.34326,
.443431,.380817,
.419757,.414779,
.390545,.444114,
.356683,.467931,
.3192,.485506,
.279234,.496305,
.238,.5,
0.0,.5,
0.0*
%
%ADD47MACRO47*%
%AMMACRO37*
4,1,14,-.85,-.3,
-.85,.3,
.85,.3,
.85,-.3,
.49,-.3,
.395732,-.222508,
.28944,-.162564,
.174353,-.121987,
.053969,-.102012,
-.068055,-.103244,
-.188012,-.125647,
-.302255,-.16854,
-.407315,-.230619,
-.49,-.3,
-.85,-.3,
0.0*
%
%ADD37MACRO37*%
%AMMACRO108*
4,1,42,.9,0.0,
.9,.288,
.895545,.337916,
.882491,.386301,
.861232,.431683,
.832416,.472684,
.796918,.508059,
.755817,.536732,
.710361,.557833,
.661931,.570719,
.612,.575,
-.612,.575,
-.661931,.570719,
-.710361,.557833,
-.755817,.536732,
-.796918,.508059,
-.832416,.472684,
-.861232,.431683,
-.882491,.386301,
-.895545,.337916,
-.9,.288,
-.9,-.288,
-.895545,-.337916,
-.882491,-.386301,
-.861232,-.431683,
-.832416,-.472684,
-.796918,-.508059,
-.755817,-.536732,
-.710361,-.557833,
-.661931,-.570719,
-.612,-.575,
.612,-.575,
.661931,-.570719,
.710361,-.557833,
.755817,-.536732,
.796918,-.508059,
.832416,-.472684,
.861232,-.431683,
.882491,-.386301,
.895545,-.337916,
.9,-.288,
.9,0.0,
0.0*
%
%ADD108MACRO108*%
%AMMACRO20*
4,1,45,0.0,-.2,
.088,-.2,
.103187,-.198584,
.117896,-.194552,
.131683,-.188028,
.144127,-.179208,
.15485,-.168361,
.163527,-.155818,
.169894,-.141958,
.173757,-.127203,
.175,-.112001,
.175,-.112,
.175,.112,
.173758,.127202,
.169894,.141957,
.163528,.155817,
.154851,.168361,
.144127,.179207,
.131684,.188027,
.117897,.194552,
.103187,.198584,
.088001,.2,
.088,.2,
-.088,.2,
-.103187,.198584,
-.117896,.194552,
-.131683,.188028,
-.144127,.179208,
-.15485,.168361,
-.163527,.155818,
-.169894,.141958,
-.173757,.127203,
-.175,.112001,
-.175,.112,
-.175,-.112,
-.173758,-.127202,
-.169894,-.141957,
-.163528,-.155817,
-.154851,-.168361,
-.144127,-.179207,
-.131684,-.188027,
-.117897,-.194552,
-.103187,-.198584,
-.088001,-.2,
-.088,-.2,
0.0,-.2,
0.0*
%
%ADD20MACRO20*%
%AMMACRO87*
4,1,41,-.5,0.0,
-.5,-.075,
-.498861,-.088024,
-.495477,-.100652,
-.489952,-.1125,
-.482453,-.123209,
-.473209,-.132453,
-.4625,-.139952,
-.450652,-.145477,
-.438024,-.148861,
-.425,-.15,
.425,-.15,
.438024,-.148861,
.450652,-.145477,
.4625,-.139952,
.473209,-.132453,
.482453,-.123209,
.489952,-.1125,
.495477,-.100652,
.498861,-.088024,
.5,-.075,
.5,.075,
.498861,.088024,
.495477,.100652,
.489952,.1125,
.482453,.123209,
.473209,.132453,
.4625,.139952,
.450652,.145477,
.438024,.148861,
.425,.15,
-.425,.15,
-.438024,.148861,
-.450652,.145477,
-.4625,.139952,
-.473209,.132453,
-.482453,.123209,
-.489952,.1125,
-.495477,.100652,
-.498861,.088024,
-.5,.075,
-.5,0.0,
0.0*
%
%ADD87MACRO87*%
%AMMACRO86*
4,1,41,0.0,.5,
-.075,.5,
-.088024,.498861,
-.100652,.495477,
-.1125,.489952,
-.123209,.482453,
-.132453,.473209,
-.139952,.4625,
-.145477,.450652,
-.148861,.438024,
-.15,.425,
-.15,-.425,
-.148861,-.438024,
-.145477,-.450652,
-.139952,-.4625,
-.132453,-.473209,
-.123209,-.482453,
-.1125,-.489952,
-.100652,-.495477,
-.088024,-.498861,
-.075,-.5,
.075,-.5,
.088024,-.498861,
.100652,-.495477,
.1125,-.489952,
.123209,-.482453,
.132453,-.473209,
.139952,-.4625,
.145477,-.450652,
.148861,-.438024,
.15,-.425,
.15,.425,
.148861,.438024,
.145477,.450652,
.139952,.4625,
.132453,.473209,
.123209,.482453,
.1125,.489952,
.100652,.495477,
.088024,.498861,
.075,.5,
0.0,.5,
0.0*
%
%ADD86MACRO86*%
%ADD69O,.75X.85*%
%AMMACRO103*
4,1,41,0.0,.6,
-.075,.6,
-.096706,.598101,
-.117753,.592462,
-.1375,.583253,
-.155348,.570756,
-.170756,.555348,
-.183253,.5375,
-.192462,.517753,
-.198101,.496706,
-.2,.475,
-.2,-.475,
-.198101,-.496706,
-.192462,-.517753,
-.183253,-.5375,
-.170756,-.555348,
-.155348,-.570756,
-.1375,-.583253,
-.117753,-.592462,
-.096706,-.598101,
-.075,-.6,
.075,-.6,
.096706,-.598101,
.117753,-.592462,
.1375,-.583253,
.155348,-.570756,
.170756,-.555348,
.183253,-.5375,
.192462,-.517753,
.198101,-.496706,
.2,-.475,
.2,.475,
.198101,.496706,
.192462,.517753,
.183253,.5375,
.170756,.555348,
.155348,.570756,
.1375,.583253,
.117753,.592462,
.096706,.598101,
.075,.6,
0.0,.6,
0.0*
%
%ADD103MACRO103*%
%AMMACRO39*
4,1,45,0.0,-.275,
.088,-.275,
.103187,-.273584,
.117896,-.269552,
.131683,-.263028,
.144127,-.254208,
.15485,-.243361,
.163527,-.230818,
.169894,-.216958,
.173757,-.202203,
.175,-.187001,
.175,-.187,
.175,.187,
.173758,.202202,
.169894,.216957,
.163528,.230817,
.154851,.243361,
.144127,.254207,
.131684,.263027,
.117897,.269552,
.103187,.273584,
.088001,.275,
.088,.275,
-.088,.275,
-.103187,.273584,
-.117896,.269552,
-.131683,.263028,
-.144127,.254208,
-.15485,.243361,
-.163527,.230818,
-.169894,.216958,
-.173757,.202203,
-.175,.187001,
-.175,.187,
-.175,-.187,
-.173758,-.202202,
-.169894,-.216957,
-.163528,-.230817,
-.154851,-.243361,
-.144127,-.254207,
-.131684,-.263027,
-.117897,-.269552,
-.103187,-.273584,
-.088001,-.275,
-.088,-.275,
0.0,-.275,
0.0*
%
%ADD39MACRO39*%
%AMMACRO14*
4,1,45,0.0,-.7,
.212,-.7,
.261931,-.695719,
.310361,-.682833,
.355817,-.661732,
.396918,-.633059,
.432416,-.597684,
.461232,-.556683,
.482491,-.511301,
.495545,-.462916,
.5,-.413,
.5,-.412,
.5,.412,
.495719,.461931,
.482833,.510361,
.461732,.555817,
.433059,.596918,
.397684,.632416,
.356683,.661232,
.311301,.682491,
.262916,.695545,
.213,.7,
.212,.7,
-.212,.7,
-.261931,.695719,
-.310361,.682833,
-.355817,.661732,
-.396918,.633059,
-.432416,.597684,
-.461232,.556683,
-.482491,.511301,
-.495545,.462916,
-.5,.413,
-.5,.412,
-.5,-.412,
-.495719,-.461931,
-.482833,-.510361,
-.461732,-.555817,
-.433059,-.596918,
-.397684,-.632416,
-.356683,-.661232,
-.311301,-.682491,
-.262916,-.695545,
-.213,-.7,
-.212,-.7,
0.0,-.7,
0.0*
%
%ADD14MACRO14*%
%AMMACRO62*
4,1,41,0.0,.65,
-.225,.65,
-.264071,.646582,
-.301955,.636431,
-.3375,.619856,
-.369627,.59736,
-.39736,.569627,
-.419856,.5375,
-.436431,.501955,
-.446582,.464071,
-.45,.425,
-.45,-.425,
-.446582,-.464071,
-.436431,-.501955,
-.419856,-.5375,
-.39736,-.569627,
-.369627,-.59736,
-.3375,-.619856,
-.301955,-.636431,
-.264071,-.646582,
-.225,-.65,
.225,-.65,
.264071,-.646582,
.301955,-.636431,
.3375,-.619856,
.369627,-.59736,
.39736,-.569627,
.419856,-.5375,
.436431,-.501955,
.446582,-.464071,
.45,-.425,
.45,.425,
.446582,.464071,
.436431,.501955,
.419856,.5375,
.39736,.569627,
.369627,.59736,
.3375,.619856,
.301955,.636431,
.264071,.646582,
.225,.65,
0.0,.65,
0.0*
%
%ADD62MACRO62*%
%AMMACRO13*
4,1,41,-.65,0.0,
-.65,-.225,
-.646582,-.264071,
-.636431,-.301955,
-.619856,-.3375,
-.59736,-.369627,
-.569627,-.39736,
-.5375,-.419856,
-.501955,-.436431,
-.464071,-.446582,
-.425,-.45,
.425,-.45,
.464071,-.446582,
.501955,-.436431,
.5375,-.419856,
.569627,-.39736,
.59736,-.369627,
.619856,-.3375,
.636431,-.301955,
.646582,-.264071,
.65,-.225,
.65,.225,
.646582,.264071,
.636431,.301955,
.619856,.3375,
.59736,.369627,
.569627,.39736,
.5375,.419856,
.501955,.436431,
.464071,.446582,
.425,.45,
-.425,.45,
-.464071,.446582,
-.501955,.436431,
-.5375,.419856,
-.569627,.39736,
-.59736,.369627,
-.619856,.3375,
-.636431,.301955,
-.646582,.264071,
-.65,.225,
-.65,0.0,
0.0*
%
%ADD13MACRO13*%
%AMMACRO72*
4,1,45,.25,0.0,
.25,.062,
.247998,.085884,
.241879,.109058,
.231828,.130817,
.218153,.1505,
.201266,.16751,
.181683,.181328,
.159998,.191537,
.136869,.197824,
.113,.2,
.112,.2,
-.112,.2,
-.135884,.197998,
-.159058,.191879,
-.180817,.181828,
-.2005,.168153,
-.21751,.151266,
-.231328,.131683,
-.241537,.109998,
-.247824,.086869,
-.25,.063,
-.25,.062,
-.25,-.062,
-.247998,-.085884,
-.241879,-.109058,
-.231828,-.130817,
-.218153,-.1505,
-.201266,-.16751,
-.181683,-.181328,
-.159998,-.191537,
-.136869,-.197824,
-.113,-.2,
-.112,-.2,
.112,-.2,
.135884,-.197998,
.159058,-.191879,
.180817,-.181828,
.2005,-.168153,
.21751,-.151266,
.231328,-.131683,
.241537,-.109998,
.247824,-.086869,
.25,-.063,
.25,-.062,
.25,0.0,
0.0*
%
%ADD72MACRO72*%
%AMMACRO110*
4,1,41,0.0,.75,
-.075,.75,
-.101047,.747721,
-.126303,.740954,
-.15,.729904,
-.171418,.714907,
-.189907,.696418,
-.204904,.675,
-.215954,.651303,
-.222721,.626047,
-.225,.6,
-.225,-.6,
-.222721,-.626047,
-.215954,-.651303,
-.204904,-.675,
-.189907,-.696418,
-.171418,-.714907,
-.15,-.729904,
-.126303,-.740954,
-.101047,-.747721,
-.075,-.75,
.075,-.75,
.101047,-.747721,
.126303,-.740954,
.15,-.729904,
.171418,-.714907,
.189907,-.696418,
.204904,-.675,
.215954,-.651303,
.222721,-.626047,
.225,-.6,
.225,.6,
.222721,.626047,
.215954,.651303,
.204904,.675,
.189907,.696418,
.171418,.714907,
.15,.729904,
.126303,.740954,
.101047,.747721,
.075,.75,
0.0,.75,
0.0*
%
%ADD110MACRO110*%
%AMMACRO89*
4,1,41,-.675,0.0,
-.675,-.112,
-.672238,-.144567,
-.663863,-.176159,
-.65013,-.205817,
-.631455,-.23264,
-.608406,-.255812,
-.581683,-.27463,
-.552099,-.288521,
-.520551,-.297065,
-.488,-.3,
.488,-.3,
.520551,-.297065,
.552099,-.288521,
.581683,-.27463,
.608406,-.255812,
.631455,-.23264,
.65013,-.205817,
.663863,-.176159,
.672238,-.144567,
.675,-.112,
.675,.112,
.672238,.144567,
.663863,.176159,
.65013,.205817,
.631455,.23264,
.608406,.255812,
.581683,.27463,
.552099,.288521,
.520551,.297065,
.488,.3,
-.488,.3,
-.520551,.297065,
-.552099,.288521,
-.581683,.27463,
-.608406,.255812,
-.631455,.23264,
-.65013,.205817,
-.663863,.176159,
-.672238,.144567,
-.675,.112,
-.675,0.0,
0.0*
%
%ADD89MACRO89*%
%AMMACRO56*
4,1,42,0.0,.675,
-.112,.675,
-.144567,.672238,
-.176159,.663863,
-.205817,.65013,
-.23264,.631455,
-.255812,.608406,
-.27463,.581683,
-.288521,.552099,
-.297065,.520551,
-.3,.488,
-.3,.488,
-.3,-.488,
-.297065,-.520551,
-.288521,-.552099,
-.27463,-.581683,
-.255812,-.608406,
-.23264,-.631455,
-.205817,-.65013,
-.176159,-.663863,
-.144567,-.672238,
-.112,-.675,
.112,-.675,
.144567,-.672238,
.176159,-.663863,
.205817,-.65013,
.23264,-.631455,
.255812,-.608406,
.27463,-.581683,
.288521,-.552099,
.297065,-.520551,
.3,-.488,
.3,.488,
.297065,.520551,
.288521,.552099,
.27463,.581683,
.255812,.608406,
.23264,.631455,
.205817,.65013,
.176159,.663863,
.144567,.672238,
.112,.675,
0.0,.675,
0.0*
%
%ADD56MACRO56*%
%AMMACRO50*
4,1,41,.45,0.0,
.45,.05,
.44924,.058682,
.446985,.067101,
.443301,.075,
.438302,.082139,
.432139,.088302,
.425,.093301,
.417101,.096985,
.408682,.09924,
.4,.1,
-.4,.1,
-.408682,.09924,
-.417101,.096985,
-.425,.093301,
-.432139,.088302,
-.438302,.082139,
-.443301,.075,
-.446985,.067101,
-.44924,.058682,
-.45,.05,
-.45,-.05,
-.44924,-.058682,
-.446985,-.067101,
-.443301,-.075,
-.438302,-.082139,
-.432139,-.088302,
-.425,-.093301,
-.417101,-.096985,
-.408682,-.09924,
-.4,-.1,
.4,-.1,
.408682,-.09924,
.417101,-.096985,
.425,-.093301,
.432139,-.088302,
.438302,-.082139,
.443301,-.075,
.446985,-.067101,
.44924,-.058682,
.45,-.05,
.45,0.0,
0.0*
%
%ADD50MACRO50*%
%AMMACRO49*
4,1,41,.725,0.0,
.725,.288,
.720545,.337916,
.707491,.386301,
.686232,.431683,
.657416,.472684,
.621918,.508059,
.580817,.536732,
.535361,.557833,
.486931,.570719,
.438,.575,
-.438,.575,
-.487916,.570545,
-.536301,.557491,
-.581683,.536232,
-.622684,.507416,
-.658059,.471918,
-.686732,.430817,
-.707833,.385361,
-.720719,.336931,
-.725,.288,
-.725,-.288,
-.720545,-.337916,
-.707491,-.386301,
-.686232,-.431683,
-.657416,-.472684,
-.621918,-.508059,
-.580817,-.536732,
-.535361,-.557833,
-.486931,-.570719,
-.438,-.575,
.438,-.575,
.487916,-.570545,
.536301,-.557491,
.581683,-.536232,
.622684,-.507416,
.658059,-.471918,
.686732,-.430817,
.707833,-.385361,
.720719,-.336931,
.725,-.288,
.725,0.0,
0.0*
%
%ADD49MACRO49*%
%AMMACRO40*
4,1,41,.45,0.0,
.45,.075,
.448861,.088024,
.445477,.100652,
.439952,.1125,
.432453,.123209,
.423209,.132453,
.4125,.139952,
.400652,.145477,
.388024,.148861,
.375,.15,
-.375,.15,
-.388024,.148861,
-.400652,.145477,
-.4125,.139952,
-.423209,.132453,
-.432453,.123209,
-.439952,.1125,
-.445477,.100652,
-.448861,.088024,
-.45,.075,
-.45,-.075,
-.448861,-.088024,
-.445477,-.100652,
-.439952,-.1125,
-.432453,-.123209,
-.423209,-.132453,
-.4125,-.139952,
-.400652,-.145477,
-.388024,-.148861,
-.375,-.15,
.375,-.15,
.388024,-.148861,
.400652,-.145477,
.4125,-.139952,
.423209,-.132453,
.432453,-.123209,
.439952,-.1125,
.445477,-.100652,
.448861,-.088024,
.45,-.075,
.45,0.0,
0.0*
%
%ADD40MACRO40*%
%AMMACRO96*
4,1,41,0.0,-.725,
.288,-.725,
.337916,-.720545,
.386301,-.707491,
.431683,-.686232,
.472684,-.657416,
.508059,-.621918,
.536732,-.580817,
.557833,-.535361,
.570719,-.486931,
.575,-.438,
.575,.438,
.570545,.487916,
.557491,.536301,
.536232,.581683,
.507416,.622684,
.471918,.658059,
.430817,.686732,
.385361,.707833,
.336931,.720719,
.288,.725,
-.288,.725,
-.337916,.720545,
-.386301,.707491,
-.431683,.686232,
-.472684,.657416,
-.508059,.621918,
-.536732,.580817,
-.557833,.535361,
-.570719,.486931,
-.575,.438,
-.575,-.438,
-.570545,-.487916,
-.557491,-.536301,
-.536232,-.581683,
-.507416,-.622684,
-.471918,-.658059,
-.430817,-.686732,
-.385361,-.707833,
-.336931,-.720719,
-.288,-.725,
0.0,-.725,
0.0*
%
%ADD96MACRO96*%
%AMMACRO76*
4,1,41,0.0,-.225,
.05,-.225,
.067365,-.223481,
.084202,-.218969,
.1,-.211603,
.114279,-.201604,
.126604,-.189279,
.136603,-.175,
.143969,-.159202,
.148481,-.142365,
.15,-.125,
.15,.125,
.148481,.142365,
.143969,.159202,
.136603,.175,
.126604,.189279,
.114279,.201604,
.1,.211603,
.084202,.218969,
.067365,.223481,
.05,.225,
-.05,.225,
-.067365,.223481,
-.084202,.218969,
-.1,.211603,
-.114279,.201604,
-.126604,.189279,
-.136603,.175,
-.143969,.159202,
-.148481,.142365,
-.15,.125,
-.15,-.125,
-.148481,-.142365,
-.143969,-.159202,
-.136603,-.175,
-.126604,-.189279,
-.114279,-.201604,
-.1,-.211603,
-.084202,-.218969,
-.067365,-.223481,
-.05,-.225,
0.0,-.225,
0.0*
%
%ADD76MACRO76*%
%AMMACRO70*
4,1,41,0.0,-1.,
.519,-1.,
.602564,-.992645,
.683582,-.970892,
.759592,-.9354,
.828283,-.887248,
.88757,-.8279,
.93565,-.759158,
.971063,-.683112,
.992732,-.602072,
1.,-.519,
1.,.519,
.992645,.602564,
.970892,.683582,
.9354,.759592,
.887248,.828283,
.8279,.88757,
.759158,.93565,
.683112,.971063,
.602072,.992732,
.519,1.,
-.519,1.,
-.602564,.992645,
-.683582,.970892,
-.759592,.9354,
-.828283,.887248,
-.88757,.8279,
-.93565,.759158,
-.971063,.683112,
-.992732,.602072,
-1.,.519,
-1.,-.519,
-.992645,-.602564,
-.970892,-.683582,
-.9354,-.759592,
-.887248,-.828283,
-.8279,-.88757,
-.759158,-.93565,
-.683112,-.971063,
-.602072,-.992732,
-.519,-1.,
0.0,-1.,
0.0*
%
%ADD70MACRO70*%
%AMMACRO52*
4,1,41,.325,0.0,
.325,.05,
.32424,.058682,
.321985,.067101,
.318301,.075,
.313302,.082139,
.307139,.088302,
.3,.093301,
.292101,.096985,
.283682,.09924,
.275,.1,
-.275,.1,
-.283682,.09924,
-.292101,.096985,
-.3,.093301,
-.307139,.088302,
-.313302,.082139,
-.318301,.075,
-.321985,.067101,
-.32424,.058682,
-.325,.05,
-.325,-.05,
-.32424,-.058682,
-.321985,-.067101,
-.318301,-.075,
-.313302,-.082139,
-.307139,-.088302,
-.3,-.093301,
-.292101,-.096985,
-.283682,-.09924,
-.275,-.1,
.275,-.1,
.283682,-.09924,
.292101,-.096985,
.3,-.093301,
.307139,-.088302,
.313302,-.082139,
.318301,-.075,
.321985,-.067101,
.32424,-.058682,
.325,-.05,
.325,0.0,
0.0*
%
%ADD52MACRO52*%
%AMMACRO41*
4,1,41,0.0,-.45,
.075,-.45,
.088024,-.448861,
.100652,-.445477,
.1125,-.439952,
.123209,-.432453,
.132453,-.423209,
.139952,-.4125,
.145477,-.400652,
.148861,-.388024,
.15,-.375,
.15,.375,
.148861,.388024,
.145477,.400652,
.139952,.4125,
.132453,.423209,
.123209,.432453,
.1125,.439952,
.100652,.445477,
.088024,.448861,
.075,.45,
-.075,.45,
-.088024,.448861,
-.100652,.445477,
-.1125,.439952,
-.123209,.432453,
-.132453,.423209,
-.139952,.4125,
-.145477,.400652,
-.148861,.388024,
-.15,.375,
-.15,-.375,
-.148861,-.388024,
-.145477,-.400652,
-.139952,-.4125,
-.132453,-.423209,
-.123209,-.432453,
-.1125,-.439952,
-.100652,-.445477,
-.088024,-.448861,
-.075,-.45,
0.0,-.45,
0.0*
%
%ADD41MACRO41*%
%AMMACRO109*
4,1,41,2.4,0.0,
2.4,.288,
2.395545,.337916,
2.382491,.386301,
2.361232,.431683,
2.332416,.472684,
2.296918,.508059,
2.255817,.536732,
2.210361,.557833,
2.161931,.570719,
2.112,.575,
-2.112,.575,
-2.161931,.570719,
-2.210361,.557833,
-2.255817,.536732,
-2.296918,.508059,
-2.332416,.472684,
-2.361232,.431683,
-2.382491,.386301,
-2.395545,.337916,
-2.4,.288,
-2.4,-.288,
-2.395545,-.337916,
-2.382491,-.386301,
-2.361232,-.431683,
-2.332416,-.472684,
-2.296918,-.508059,
-2.255817,-.536732,
-2.210361,-.557833,
-2.161931,-.570719,
-2.112,-.575,
2.112,-.575,
2.161931,-.570719,
2.210361,-.557833,
2.255817,-.536732,
2.296918,-.508059,
2.332416,-.472684,
2.361232,-.431683,
2.382491,-.386301,
2.395545,-.337916,
2.4,-.288,
2.4,0.0,
0.0*
%
%ADD109MACRO109*%
%AMMACRO107*
4,1,41,0.0,-.4,
.05,-.4,
.063024,-.398861,
.075652,-.395477,
.0875,-.389952,
.098209,-.382453,
.107453,-.373209,
.114952,-.3625,
.120477,-.350652,
.123861,-.338024,
.125,-.325,
.125,.325,
.123861,.338024,
.120477,.350652,
.114952,.3625,
.107453,.373209,
.098209,.382453,
.0875,.389952,
.075652,.395477,
.063024,.398861,
.05,.4,
-.05,.4,
-.063024,.398861,
-.075652,.395477,
-.0875,.389952,
-.098209,.382453,
-.107453,.373209,
-.114952,.3625,
-.120477,.350652,
-.123861,.338024,
-.125,.325,
-.125,-.325,
-.123861,-.338024,
-.120477,-.350652,
-.114952,-.3625,
-.107453,-.373209,
-.098209,-.382453,
-.0875,-.389952,
-.075652,-.395477,
-.063024,-.398861,
-.05,-.4,
0.0,-.4,
0.0*
%
%ADD107MACRO107*%
%AMMACRO34*
4,1,44,.263,-.107,
.278907,-.088532,
.291062,-.067371,
.299358,-.044421,
.303543,-.020379,
.303489,.004025,
.299198,.028048,
.290801,.050962,
.278552,.072069,
.262825,.090728,
.263,.091,
.091,.263,
.072124,.278514,
.051023,.290772,
.028113,.29918,
.004092,.303483,
-.020312,.303548,
-.044356,.299375,
-.06731,.291091,
-.088477,.278946,
-.107213,.26331,
-.107,.263,
-.263,.107,
-.278907,.088532,
-.291062,.067371,
-.299358,.044421,
-.303543,.020379,
-.303489,-.004025,
-.299198,-.028048,
-.290801,-.050962,
-.278552,-.072069,
-.262825,-.090728,
-.263,-.091,
-.091,-.263,
-.072124,-.278514,
-.051023,-.290772,
-.028113,-.29918,
-.004092,-.303483,
.020312,-.303548,
.044356,-.299375,
.06731,-.291091,
.088477,-.278946,
.107213,-.26331,
.107,-.263,
.263,-.107,
0.0*
%
%ADD34MACRO34*%
%AMMACRO15*
4,1,40,.262,.11,
.259873,.134311,
.253557,.157883,
.243244,.18,
.229246,.19999,
.21199,.217246,
.192,.231244,
.169883,.241557,
.146311,.247873,
.122,.25,
-.122,.25,
-.146311,.247873,
-.169883,.241557,
-.192,.231244,
-.21199,.217246,
-.229246,.19999,
-.243244,.18,
-.253557,.157883,
-.259873,.134311,
-.262,.11,
-.262,-.11,
-.259873,-.134311,
-.253557,-.157883,
-.243244,-.18,
-.229246,-.19999,
-.21199,-.217246,
-.192,-.231244,
-.169883,-.241557,
-.146311,-.247873,
-.122,-.25,
.122,-.25,
.146311,-.247873,
.169883,-.241557,
.192,-.231244,
.21199,-.217246,
.229246,-.19999,
.243244,-.18,
.253557,-.157883,
.259873,-.134311,
.262,-.11,
.262,.11,
0.0*
%
%ADD15MACRO15*%
%AMMACRO73*
4,1,44,.899,-.249,
.899,.249,
.895439,.292374,
.8844,.33447,
.866218,.37401,
.841447,.409793,
.810839,.44073,
.775323,.465882,
.73598,.484485,
.694004,.495973,
.65067,.499997,
.65,.5,
-.65,.5,
-.693344,.496092,
-.735351,.484716,
-.774744,.466219,
-.810327,.441163,
-.841018,.410308,
-.865886,.374592,
-.884173,.335101,
-.895325,.293034,
-.899003,.24967,
-.899,.249,
-.899,-.249,
-.895439,-.292374,
-.8844,-.33447,
-.866218,-.37401,
-.841447,-.409793,
-.810839,-.44073,
-.775323,-.465882,
-.73598,-.484485,
-.694004,-.495973,
-.65067,-.499997,
-.65,-.5,
.65,-.5,
.693344,-.496092,
.735351,-.484716,
.774744,-.466219,
.810327,-.441163,
.841018,-.410308,
.865886,-.374592,
.884173,-.335101,
.895325,-.293034,
.899003,-.24967,
.899,-.249,
0.0*
%
%ADD73MACRO73*%
%AMMACRO17*
4,1,40,.11,-.262,
.134311,-.259873,
.157883,-.253557,
.18,-.243244,
.19999,-.229246,
.217246,-.21199,
.231244,-.192,
.241557,-.169883,
.247873,-.146311,
.25,-.122,
.25,.122,
.247873,.146311,
.241557,.169883,
.231244,.192,
.217246,.21199,
.19999,.229246,
.18,.243244,
.157883,.253557,
.134311,.259873,
.11,.262,
-.11,.262,
-.134311,.259873,
-.157883,.253557,
-.18,.243244,
-.19999,.229246,
-.217246,.21199,
-.231244,.192,
-.241557,.169883,
-.247873,.146311,
-.25,.122,
-.25,-.122,
-.247873,-.146311,
-.241557,-.169883,
-.231244,-.192,
-.217246,-.21199,
-.19999,-.229246,
-.18,-.243244,
-.157883,-.253557,
-.134311,-.259873,
-.11,-.262,
.11,-.262,
0.0*
%
%ADD17MACRO17*%
%AMMACRO64*
4,1,41,0.0,-.7,
.288,-.7,
.337916,-.695545,
.386301,-.682491,
.431683,-.661232,
.472684,-.632416,
.508059,-.596918,
.536732,-.555817,
.557833,-.510361,
.570719,-.461931,
.575,-.412,
.575,.412,
.570719,.461931,
.557833,.510361,
.536732,.555817,
.508059,.596918,
.472684,.632416,
.431683,.661232,
.386301,.682491,
.337916,.695545,
.288,.7,
-.288,.7,
-.337916,.695545,
-.386301,.682491,
-.431683,.661232,
-.472684,.632416,
-.508059,.596918,
-.536732,.555817,
-.557833,.510361,
-.570719,.461931,
-.575,.412,
-.575,-.412,
-.570719,-.461931,
-.557833,-.510361,
-.536732,-.555817,
-.508059,-.596918,
-.472684,-.632416,
-.431683,-.661232,
-.386301,-.682491,
-.337916,-.695545,
-.288,-.7,
0.0,-.7,
0.0*
%
%ADD64MACRO64*%
%AMMACRO58*
4,1,41,.325,0.0,
.325,.135,
.322189,.167125,
.313843,.198274,
.300215,.2275,
.281718,.253916,
.258916,.276718,
.2325,.295215,
.203274,.308843,
.172125,.317189,
.14,.32,
-.14,.32,
-.172125,.317189,
-.203274,.308843,
-.2325,.295215,
-.258916,.276718,
-.281718,.253916,
-.300215,.2275,
-.313843,.198274,
-.322189,.167125,
-.325,.135,
-.325,-.135,
-.322189,-.167125,
-.313843,-.198274,
-.300215,-.2275,
-.281718,-.253916,
-.258916,-.276718,
-.2325,-.295215,
-.203274,-.308843,
-.172125,-.317189,
-.14,-.32,
.14,-.32,
.172125,-.317189,
.203274,-.308843,
.2325,-.295215,
.258916,-.276718,
.281718,-.253916,
.300215,-.2275,
.313843,-.198274,
.322189,-.167125,
.325,-.135,
.325,0.0,
0.0*
%
%ADD58MACRO58*%
%AMMACRO44*
4,1,41,.23,-.23,
.325,-.134,
.34603,-.1096,
.362146,-.081668,
.373166,-.051361,
.378755,-.019602,
.378745,.012646,
.373136,.044402,
.362097,.074701,
.345964,.102623,
.325,.127,
.127,.325,
.10257,.346002,
.074642,.362124,
.044339,.373152,
.012581,.378751,
-.019666,.37875,
-.051424,.373149,
-.081726,.362118,
-.109653,.345993,
-.134,.325,
-.325,.134,
-.34603,.1096,
-.362146,.081668,
-.373166,.051361,
-.378755,.019602,
-.378745,-.012646,
-.373136,-.044402,
-.362097,-.074701,
-.345964,-.102623,
-.325,-.127,
-.127,-.325,
-.10257,-.346002,
-.074642,-.362124,
-.044339,-.373152,
-.012581,-.378751,
.019666,-.37875,
.051424,-.373149,
.081726,-.362118,
.109653,-.345993,
.134,-.325,
.23,-.23,
0.0*
%
%ADD44MACRO44*%
%AMMACRO31*
4,1,41,0.0,-.201,
.081,-.201,
.092997,-.199933,
.104627,-.196799,
.115536,-.191694,
.125392,-.184771,
.133897,-.176242,
.140792,-.166366,
.145866,-.155443,
.148967,-.143804,
.15,-.132,
.15,.132,
.148936,.143995,
.145805,.155623,
.140702,.166531,
.133783,.176387,
.125257,.184892,
.115384,.191787,
.104464,.196863,
.092829,.199965,
.081,.201,
-.081,.201,
-.092997,.199933,
-.104627,.196799,
-.115536,.191694,
-.125392,.184771,
-.133897,.176242,
-.140792,.166366,
-.145866,.155443,
-.148967,.143804,
-.15,.132,
-.15,-.132,
-.148936,-.143995,
-.145805,-.155623,
-.140702,-.166531,
-.133783,-.176387,
-.125257,-.184892,
-.115384,-.191787,
-.104464,-.196863,
-.092829,-.199965,
-.081,-.201,
0.0,-.201,
0.0*
%
%ADD31MACRO31*%
%ADD19O,.899X.399*%
%AMMACRO61*
4,1,41,0.0,-.325,
.135,-.325,
.167125,-.322189,
.198274,-.313843,
.2275,-.300215,
.253916,-.281718,
.276718,-.258916,
.295215,-.2325,
.308843,-.203274,
.317189,-.172125,
.32,-.14,
.32,.14,
.317189,.172125,
.308843,.203274,
.295215,.2325,
.276718,.258916,
.253916,.281718,
.2275,.300215,
.198274,.313843,
.167125,.322189,
.135,.325,
-.135,.325,
-.167125,.322189,
-.198274,.313843,
-.2275,.300215,
-.253916,.281718,
-.276718,.258916,
-.295215,.2325,
-.308843,.203274,
-.317189,.172125,
-.32,.14,
-.32,-.14,
-.317189,-.172125,
-.308843,-.203274,
-.295215,-.2325,
-.276718,-.258916,
-.253916,-.281718,
-.2275,-.300215,
-.198274,-.313843,
-.167125,-.322189,
-.135,-.325,
0.0,-.325,
0.0*
%
%ADD61MACRO61*%
%ADD111C,.1*%
%ADD112C,.099*%
%ADD113C,.18*%
G75*
%LPD*%
G75*
G54D100*
X25610000Y25465000D03*
Y24790000D03*
G54D110*
X25382500Y28540000D03*
X25317500D03*
X25252500D03*
X25187500D03*
Y28970000D03*
X25252500D03*
X25317500D03*
X25382500D03*
G54D101*
X25400000Y26198000D03*
G54D111*
G01X20090000Y16222500D02*
Y14722500D01*
X27590000D01*
Y16222500D01*
X20090000D01*
G01X23840000D02*
Y14722500D01*
G01Y15222500D02*
X27590000D01*
G01Y15722500D02*
X23840000D01*
G01X25107600D02*
Y15222500D01*
G54D102*
X25500000Y26051000D03*
X25450000D03*
X25400000D03*
X25350000D03*
X25300000D03*
Y26345000D03*
X25350000D03*
X25400000D03*
X25450000D03*
X25500000D03*
G54D112*
G01X20177500Y17600000D02*
X25685000D01*
G03X25855000Y17795000I-14022J183827D01*
G01Y24500000D01*
G03X25745000Y24815000I-506023J0D01*
G02X25635000Y25130000I396023J315000D01*
G02X25745000Y25445000I506023J0D01*
G03X25855000Y25760000I-396023J315000D01*
G01Y29433800D01*
X25868700Y37200000D01*
X20020700D01*
X20003400Y30700000D01*
X20125000D01*
Y30500000D01*
X20375000D01*
Y30425000D01*
X20125000D01*
Y30025000D01*
X20375000D01*
Y29950000D01*
X20125000D01*
Y29775000D01*
X20112500Y29762500D01*
X20000900D01*
X20000000Y29425000D01*
X20005000Y25760000D01*
G03X20115000Y25445000I506023J0D01*
G02X20225000Y25130000I-396023J-315000D01*
G02X20115000Y24815000I-506023J0D01*
G03X20005000Y24500000I396023J-315000D01*
G01Y17795000D01*
G03X20177500Y17600000I205417J7917D01*
G01X24153200Y14886200D02*
Y15076700D01*
X24200600D01*
X24219500Y15067200D01*
X24233700Y15054500D01*
X24245600Y15035400D01*
X24255100Y15013200D01*
X24257400Y14981400D01*
X24255100Y14949700D01*
X24245600Y14927500D01*
X24233700Y14908400D01*
X24219500Y14895700D01*
X24200600Y14886200D01*
X24153200D01*
G01X24336500D02*
X24395800Y15076700D01*
X24455100Y14886200D01*
G01X24433700Y14952900D02*
X24357900D01*
G01X24586300Y15076700D02*
Y14886200D01*
G01X24531800Y15076700D02*
X24640800D01*
G01X24824200Y14886200D02*
X24729400D01*
Y15076700D01*
X24824200D01*
G01X24786300Y14984600D02*
X24729400D01*
G01X24967300Y14879900D02*
X24962600Y14883000D01*
Y14889400D01*
X24967300Y14892500D01*
X24972000Y14889400D01*
Y14883000D01*
X24967300Y14879900D01*
G01Y14965600D02*
X24962600Y14968700D01*
Y14975100D01*
X24967300Y14978300D01*
X24972000Y14975100D01*
Y14968700D01*
X24967300Y14965600D01*
G01X25303300Y15045000D02*
X25317500Y15064000D01*
X25334100Y15073500D01*
X25353000Y15076700D01*
X25376700Y15070400D01*
X25393300Y15054500D01*
X25398100Y15035400D01*
X25395700Y15016400D01*
X25386200Y15000500D01*
X25338800Y14968700D01*
X25317500Y14946500D01*
X25303300Y14914800D01*
X25298500Y14886200D01*
X25398100D01*
G01X25538800Y15076700D02*
X25519800Y15070400D01*
X25505600Y15054500D01*
X25496100Y15035400D01*
X25489000Y15010000D01*
X25486700Y14981400D01*
X25489000Y14952900D01*
X25496100Y14927500D01*
X25505600Y14908400D01*
X25519800Y14892500D01*
X25538800Y14886200D01*
X25557800Y14892500D01*
X25572000Y14908400D01*
X25581500Y14927500D01*
X25588600Y14952900D01*
X25590900Y14981400D01*
X25588600Y15010000D01*
X25581500Y15035400D01*
X25572000Y15054500D01*
X25557800Y15070400D01*
X25538800Y15076700D01*
G01X25729300Y14886200D02*
Y15076700D01*
X25700900Y15038600D01*
G01Y14886200D02*
X25757700D01*
G01X25919800D02*
X25936400Y14889400D01*
X25955300Y14898900D01*
X25967200Y14914800D01*
X25971900Y14937000D01*
X25967200Y14959200D01*
X25953000Y14978300D01*
X25931600Y14987800D01*
X25908000D01*
X25893700Y14994200D01*
X25881900Y15010000D01*
X25877100Y15032200D01*
X25884300Y15054500D01*
X25900800Y15070400D01*
X25919800Y15076700D01*
X25938800Y15070400D01*
X25955300Y15054500D01*
X25962500Y15032200D01*
X25957700Y15010000D01*
X25945900Y14994200D01*
X25931600Y14987800D01*
X25908000D01*
X25886600Y14978300D01*
X25872400Y14959200D01*
X25867700Y14937000D01*
X25872400Y14914800D01*
X25884300Y14898900D01*
X25903200Y14889400D01*
X25919800Y14886200D01*
G01X26079500Y14949700D02*
X26141100D01*
G01X26300800Y14886200D02*
Y15076700D01*
X26272400Y15038600D01*
G01Y14886200D02*
X26329200D01*
G01X26491300Y15076700D02*
X26472300Y15070400D01*
X26458100Y15054500D01*
X26448600Y15035400D01*
X26441500Y15010000D01*
X26439200Y14981400D01*
X26441500Y14952900D01*
X26448600Y14927500D01*
X26458100Y14908400D01*
X26472300Y14892500D01*
X26491300Y14886200D01*
X26510300Y14892500D01*
X26524500Y14908400D01*
X26534000Y14927500D01*
X26541100Y14952900D01*
X26543400Y14981400D01*
X26541100Y15010000D01*
X26534000Y15035400D01*
X26524500Y15054500D01*
X26510300Y15070400D01*
X26491300Y15076700D01*
G01X26651000Y14949700D02*
X26712600D01*
G01X26827300Y15045000D02*
X26841500Y15064000D01*
X26858100Y15073500D01*
X26877000Y15076700D01*
X26900700Y15070400D01*
X26917300Y15054500D01*
X26922100Y15035400D01*
X26919700Y15016400D01*
X26910200Y15000500D01*
X26862800Y14968700D01*
X26841500Y14946500D01*
X26827300Y14914800D01*
X26822500Y14886200D01*
X26922100D01*
G01X27010700Y14914800D02*
X27024900Y14898900D01*
X27041500Y14889400D01*
X27062800Y14886200D01*
X27084100Y14892500D01*
X27100700Y14905200D01*
X27112600Y14927500D01*
X27114900Y14952900D01*
X27110200Y14978300D01*
X27098300Y14994200D01*
X27081800Y15006800D01*
X27065200Y15010000D01*
X27048600Y15006800D01*
X27027300Y14994200D01*
X27034400Y15076700D01*
X27098300D01*
G01X23968700Y15397500D02*
Y15588000D01*
X24025600D01*
X24044500Y15578500D01*
X24058800Y15556300D01*
X24063500Y15530900D01*
X24058800Y15505500D01*
X24046900Y15486400D01*
X24025600Y15476900D01*
X23968700D01*
G01X24145000Y15397500D02*
Y15588000D01*
X24206600Y15429200D01*
X24268200Y15588000D01*
Y15397500D01*
G01X24587600Y15588000D02*
Y15397500D01*
G01X24533100Y15588000D02*
X24642100D01*
G01X24778100Y15397500D02*
X24759100Y15400700D01*
X24742600Y15413400D01*
X24728300Y15432400D01*
X24718800Y15454600D01*
X24714100Y15480000D01*
Y15505500D01*
X24718800Y15530900D01*
X24728300Y15553100D01*
X24742600Y15572100D01*
X24759100Y15584800D01*
X24778100Y15588000D01*
X24797100Y15584800D01*
X24813600Y15572100D01*
X24827900Y15553100D01*
X24837400Y15530900D01*
X24842100Y15505500D01*
Y15480000D01*
X24837400Y15454600D01*
X24827900Y15432400D01*
X24813600Y15413400D01*
X24797100Y15400700D01*
X24778100Y15397500D01*
G01X24921200D02*
Y15588000D01*
X24978100D01*
X24997000Y15578500D01*
X25011300Y15556300D01*
X25016000Y15530900D01*
X25011300Y15505500D01*
X24999400Y15486400D01*
X24978100Y15476900D01*
X24921200D01*
G01X24200300Y16071700D02*
Y15881200D01*
G01X24145800Y16071700D02*
X24254800D01*
G01X24438200Y15881200D02*
X24343400D01*
Y16071700D01*
X24438200D01*
G01X24400300Y15979600D02*
X24343400D01*
G01X24531500Y15881200D02*
X24631100Y16071700D01*
G01X24531500D02*
X24631100Y15881200D01*
G01X24712500D02*
X24771800Y16071700D01*
X24831100Y15881200D01*
G01X24809700Y15947900D02*
X24733900D01*
G01X24912500Y15906600D02*
X24931500Y15890700D01*
X24952800Y15881200D01*
X24971800D01*
X24990700Y15890700D01*
X25005000Y15906600D01*
X25012100Y15928800D01*
X25007300Y15951000D01*
X24995500Y15970100D01*
X24974100Y15982800D01*
X24945700Y15989200D01*
X24929100Y16001800D01*
X24922000Y16024100D01*
X24926800Y16046300D01*
X24938600Y16062200D01*
X24955200Y16071700D01*
X24971800D01*
X24988400Y16065400D01*
X25002600Y16049500D01*
G01X25314900Y16071700D02*
X25371700D01*
G01X25343300D02*
Y15881200D01*
G01X25314900D02*
X25371700D01*
G01X25479300D02*
Y16071700D01*
X25588300Y15881200D01*
Y16071700D01*
G01X25674500Y15906600D02*
X25693500Y15890700D01*
X25714800Y15881200D01*
X25733800D01*
X25752700Y15890700D01*
X25767000Y15906600D01*
X25774100Y15928800D01*
X25769300Y15951000D01*
X25757500Y15970100D01*
X25736100Y15982800D01*
X25707700Y15989200D01*
X25691100Y16001800D01*
X25684000Y16024100D01*
X25688800Y16046300D01*
X25700600Y16062200D01*
X25717200Y16071700D01*
X25733800D01*
X25750400Y16065400D01*
X25764600Y16049500D01*
G01X25914800Y16071700D02*
Y15881200D01*
G01X25860300Y16071700D02*
X25969300D01*
G01X26057900Y15881200D02*
Y16071700D01*
X26117100D01*
X26136100Y16062200D01*
X26148000Y16049500D01*
X26152700Y16024100D01*
X26148000Y15998700D01*
X26133700Y15982800D01*
X26117100Y15973300D01*
X26057900D01*
G01X26117100D02*
X26152700Y15881200D01*
G01X26243700Y16071700D02*
Y15935200D01*
X26253100Y15906600D01*
X26272100Y15887500D01*
X26295800Y15881200D01*
X26319500Y15887500D01*
X26338500Y15906600D01*
X26347900Y15935200D01*
Y16071700D01*
G01X26424700Y15881200D02*
Y16071700D01*
X26486300Y15912900D01*
X26547900Y16071700D01*
Y15881200D01*
G01X26724200D02*
X26629400D01*
Y16071700D01*
X26724200D01*
G01X26686300Y15979600D02*
X26629400D01*
G01X26812800Y15881200D02*
Y16071700D01*
X26921800Y15881200D01*
Y16071700D01*
G01X27057800D02*
Y15881200D01*
G01X27003300Y16071700D02*
X27112300D01*
G01X27198500Y15906600D02*
X27217500Y15890700D01*
X27238800Y15881200D01*
X27257800D01*
X27276700Y15890700D01*
X27291000Y15906600D01*
X27298100Y15928800D01*
X27293300Y15951000D01*
X27281500Y15970100D01*
X27260100Y15982800D01*
X27231700Y15989200D01*
X27215100Y16001800D01*
X27208000Y16024100D01*
X27212800Y16046300D01*
X27224600Y16062200D01*
X27241200Y16071700D01*
X27257800D01*
X27274400Y16065400D01*
X27288600Y16049500D01*
G54D103*
X24915000Y26188000D03*
X25045000D03*
X24915000Y26380000D03*
X24980000D03*
X25045000D03*
G54D10*
X20215000Y18300000D03*
X20485000Y29450000D03*
X25645000Y18300000D03*
G54D113*
G01X25242500Y15477500D02*
X25258800Y15372500D01*
X25277500Y15477500D01*
X25296200Y15372500D01*
X25312500Y15477500D01*
G01X25383200Y15468700D02*
X25376200Y15474000D01*
X25368000Y15477500D01*
X25358700D01*
X25348200Y15472200D01*
X25340000Y15463500D01*
X25334200Y15453000D01*
X25329500Y15435500D01*
X25328300Y15419700D01*
X25330700Y15404000D01*
X25334200Y15393500D01*
X25341200Y15383000D01*
X25349300Y15376000D01*
X25357500Y15372500D01*
X25365700D01*
X25373800Y15376000D01*
X25380800Y15381200D01*
X25386700Y15388200D01*
G01X25413000Y15386500D02*
X25422300Y15377700D01*
X25432800Y15372500D01*
X25442200D01*
X25451500Y15377700D01*
X25458500Y15386500D01*
X25462000Y15398800D01*
X25459700Y15411000D01*
X25453800Y15421500D01*
X25443300Y15428500D01*
X25429300Y15432000D01*
X25421200Y15439000D01*
X25417700Y15451200D01*
X25420000Y15463500D01*
X25425800Y15472200D01*
X25434000Y15477500D01*
X25442200D01*
X25450300Y15474000D01*
X25457300Y15465200D01*
G01X25517500Y15477500D02*
X25508200Y15474000D01*
X25501200Y15465200D01*
X25496500Y15454800D01*
X25493000Y15440700D01*
X25491800Y15425000D01*
X25493000Y15409200D01*
X25496500Y15395200D01*
X25501200Y15384700D01*
X25508200Y15376000D01*
X25517500Y15372500D01*
X25526800Y15376000D01*
X25533800Y15384700D01*
X25538500Y15395200D01*
X25542000Y15409200D01*
X25543200Y15425000D01*
X25542000Y15440700D01*
X25538500Y15454800D01*
X25533800Y15465200D01*
X25526800Y15474000D01*
X25517500Y15477500D01*
G01X25571800Y15393500D02*
X25578800Y15381200D01*
X25588200Y15374200D01*
X25598700Y15372500D01*
X25608000Y15374200D01*
X25617300Y15383000D01*
X25623200Y15393500D01*
X25624300Y15404000D01*
X25622000Y15416200D01*
X25613800Y15425000D01*
X25605700Y15428500D01*
X25595200D01*
G01X25605700D02*
X25612700Y15433700D01*
X25618500Y15442500D01*
X25620800Y15453000D01*
X25618500Y15463500D01*
X25612700Y15472200D01*
X25602200Y15477500D01*
X25591700Y15475800D01*
X25581200Y15468700D01*
G01X25677500Y15372500D02*
X25685700Y15374200D01*
X25695000Y15379500D01*
X25700800Y15388200D01*
X25703200Y15400500D01*
X25700800Y15412700D01*
X25693800Y15423200D01*
X25683300Y15428500D01*
X25671700D01*
X25664700Y15432000D01*
X25658800Y15440700D01*
X25656500Y15453000D01*
X25660000Y15465200D01*
X25668200Y15474000D01*
X25677500Y15477500D01*
X25686800Y15474000D01*
X25695000Y15465200D01*
X25698500Y15453000D01*
X25696200Y15440700D01*
X25690300Y15432000D01*
X25683300Y15428500D01*
X25671700D01*
X25661200Y15423200D01*
X25654200Y15412700D01*
X25651800Y15400500D01*
X25654200Y15388200D01*
X25660000Y15379500D01*
X25669300Y15374200D01*
X25677500Y15372500D01*
G01X25986700Y15375000D02*
Y15480000D01*
X26015800D01*
X26025200Y15474700D01*
X26031000Y15467700D01*
X26033300Y15453700D01*
X26031000Y15439700D01*
X26024000Y15431000D01*
X26015800Y15425700D01*
X25986700D01*
G01X26015800D02*
X26033300Y15375000D01*
G01X26072500Y15422200D02*
X26109800D01*
X26106300Y15434500D01*
X26100500Y15441500D01*
X26092300Y15445000D01*
X26084200Y15443200D01*
X26077200Y15438000D01*
X26072500Y15425700D01*
X26070200Y15415200D01*
Y15404800D01*
X26072500Y15394200D01*
X26078300Y15383700D01*
X26085300Y15376700D01*
X26093500Y15375000D01*
X26101700Y15378500D01*
X26109800Y15389000D01*
G01X26149000Y15445000D02*
X26170000Y15375000D01*
X26191000Y15445000D01*
G01X26250000Y15371500D02*
X26247700Y15373300D01*
Y15376700D01*
X26250000Y15378500D01*
X26252300Y15376700D01*
Y15373300D01*
X26250000Y15371500D01*
G01X26419300Y15431000D02*
X26424000Y15436200D01*
X26427500Y15445000D01*
X26429800Y15457300D01*
X26427500Y15467700D01*
X26422800Y15474700D01*
X26414700Y15480000D01*
X26383200D01*
Y15375000D01*
X26421700D01*
X26429800Y15382000D01*
X26434500Y15392500D01*
X26436800Y15404800D01*
X26434500Y15417000D01*
X26427500Y15427500D01*
X26419300Y15431000D01*
X26383200D01*
G01X25239200Y15667500D02*
Y15562500D01*
X25285800D01*
G01X25313300D02*
X25342500Y15667500D01*
X25371700Y15562500D01*
G01X25361200Y15599200D02*
X25323800D01*
G01X25396800Y15667500D02*
Y15592300D01*
X25401500Y15576500D01*
X25410800Y15566000D01*
X25422500Y15562500D01*
X25434200Y15566000D01*
X25443500Y15576500D01*
X25448200Y15592300D01*
Y15667500D01*
G01X25475700Y15562500D02*
Y15667500D01*
X25529300Y15562500D01*
Y15667500D01*
G01X25608200Y15658700D02*
X25601200Y15664000D01*
X25593000Y15667500D01*
X25583700D01*
X25573200Y15662200D01*
X25565000Y15653500D01*
X25559200Y15643000D01*
X25554500Y15625500D01*
X25553300Y15609700D01*
X25555700Y15594000D01*
X25559200Y15583500D01*
X25566200Y15573000D01*
X25574300Y15566000D01*
X25582500Y15562500D01*
X25590700D01*
X25598800Y15566000D01*
X25605800Y15571200D01*
X25611700Y15578200D01*
G01X25638000Y15562500D02*
Y15667500D01*
G01X25687000D02*
Y15562500D01*
G01Y15615000D02*
X25638000D01*
G01X25718000Y15562500D02*
X25767000Y15667500D01*
G01X25718000D02*
X25767000Y15562500D01*
G01X25799200Y15667500D02*
Y15562500D01*
X25845800D01*
G01X25887300Y15597500D02*
X25917700D01*
G01X26008200Y15658700D02*
X26001200Y15664000D01*
X25993000Y15667500D01*
X25983700D01*
X25973200Y15662200D01*
X25965000Y15653500D01*
X25959200Y15643000D01*
X25954500Y15625500D01*
X25953300Y15609700D01*
X25955700Y15594000D01*
X25959200Y15583500D01*
X25966200Y15573000D01*
X25974300Y15566000D01*
X25982500Y15562500D01*
X25990700D01*
X25998800Y15566000D01*
X26005800Y15571200D01*
X26011700Y15578200D01*
G01X26088200Y15658700D02*
X26081200Y15664000D01*
X26073000Y15667500D01*
X26063700D01*
X26053200Y15662200D01*
X26045000Y15653500D01*
X26039200Y15643000D01*
X26034500Y15625500D01*
X26033300Y15609700D01*
X26035700Y15594000D01*
X26039200Y15583500D01*
X26046200Y15573000D01*
X26054300Y15566000D01*
X26062500Y15562500D01*
X26070700D01*
X26078800Y15566000D01*
X26085800Y15571200D01*
X26091700Y15578200D01*
G01X26142500Y15562500D02*
Y15667500D01*
X26128500Y15646500D01*
G01Y15562500D02*
X26156500D01*
G01X26196800Y15583500D02*
X26203800Y15571200D01*
X26213200Y15564200D01*
X26223700Y15562500D01*
X26233000Y15564200D01*
X26242300Y15573000D01*
X26248200Y15583500D01*
X26249300Y15594000D01*
X26247000Y15606200D01*
X26238800Y15615000D01*
X26230700Y15618500D01*
X26220200D01*
G01X26230700D02*
X26237700Y15623700D01*
X26243500Y15632500D01*
X26245800Y15643000D01*
X26243500Y15653500D01*
X26237700Y15662200D01*
X26227200Y15667500D01*
X26216700Y15665800D01*
X26206200Y15658700D01*
G01X26276800Y15578200D02*
X26283800Y15569500D01*
X26292000Y15564200D01*
X26302500Y15562500D01*
X26313000Y15566000D01*
X26321200Y15573000D01*
X26327000Y15585200D01*
X26328200Y15599200D01*
X26325800Y15613200D01*
X26320000Y15622000D01*
X26311800Y15629000D01*
X26303700Y15630700D01*
X26295500Y15629000D01*
X26285000Y15622000D01*
X26288500Y15667500D01*
X26320000D01*
G01X26360300Y15650000D02*
X26367300Y15660500D01*
X26375500Y15665800D01*
X26384800Y15667500D01*
X26396500Y15664000D01*
X26404700Y15655200D01*
X26407000Y15644800D01*
X26405800Y15634200D01*
X26401200Y15625500D01*
X26377800Y15608000D01*
X26367300Y15595700D01*
X26360300Y15578200D01*
X26358000Y15562500D01*
X26407000D01*
G01X26439200D02*
Y15667500D01*
X26468300D01*
X26477700Y15662200D01*
X26483500Y15655200D01*
X26485800Y15641200D01*
X26483500Y15627200D01*
X26476500Y15618500D01*
X26468300Y15613200D01*
X26439200D01*
G01X26468300D02*
X26485800Y15562500D01*
G01X26542500D02*
Y15667500D01*
X26528500Y15646500D01*
G01Y15562500D02*
X26556500D01*
G54D20*
X21073000Y26000000D03*
X21017000D03*
X21073000Y25920000D03*
X21017000D03*
X21371000Y28650000D03*
X21315000D03*
X21396000Y28510000D03*
X21340000D03*
X21356000Y28190000D03*
X21300000D03*
X20971000Y28885000D03*
X20915000D03*
X20623000Y28780000D03*
X20567000D03*
X20436000Y28040000D03*
X20380000D03*
X20436000Y27965000D03*
X20380000D03*
G54D11*
X20400000Y21930000D03*
X20340000Y21990000D03*
X22617600Y21497600D03*
X22390800Y22270400D03*
X22420000Y22490000D03*
X22455200Y22205900D03*
X22440700Y21835900D03*
X22968800Y22184400D03*
X22685300Y21720300D03*
X22522400Y22138500D03*
X23022700Y22127000D03*
X23229700Y21515200D03*
X23149800Y22135000D03*
G54D104*
X25550000Y27590000D03*
Y27550000D03*
X25360000D03*
Y27590000D03*
G54D21*
X20100000Y26614900D03*
Y26765000D03*
X20230000Y26614900D03*
Y26765000D03*
G54D12*
X20334700Y21864700D03*
X20274700Y21924700D03*
X22552300Y21432300D03*
X22325500Y22205100D03*
X22354700Y22424700D03*
X22389900Y22140600D03*
X22375400Y21770600D03*
X22903500Y22119100D03*
X23084500Y22069700D03*
X22620000Y21655000D03*
X22457100Y22073200D03*
X22957400Y22061700D03*
X23164400Y21449900D03*
G54D105*
X25535000Y27475000D03*
X25495000D03*
X25455000D03*
X25415000D03*
X25375000D03*
Y27665000D03*
X25415000D03*
X25455000D03*
X25495000D03*
X25535000D03*
G54D30*
X21320000Y28264000D03*
Y28320000D03*
X21200000Y28084000D03*
Y28140000D03*
X21130000Y28084000D03*
Y28140000D03*
X21060000Y28084000D03*
Y28140000D03*
X20990000Y28084000D03*
Y28140000D03*
X20920000Y28084000D03*
Y28140000D03*
X20850000Y28084000D03*
Y28140000D03*
X21300000Y28714000D03*
Y28770000D03*
X20780000Y28084000D03*
Y28140000D03*
X20620000Y28129000D03*
Y28185000D03*
G54D31*
X21140000Y28879000D03*
X21090000D03*
X21040000D03*
X21140000Y28820000D03*
X21090000D03*
X21040000D03*
G54D40*
X22602500Y22545000D03*
Y22595000D03*
Y22645000D03*
Y22695000D03*
Y22745000D03*
Y22795000D03*
Y22845000D03*
Y22895000D03*
Y22945000D03*
Y22995000D03*
Y23045000D03*
Y23095000D03*
X23292500D03*
Y23045000D03*
Y22995000D03*
Y22945000D03*
Y22895000D03*
Y22845000D03*
Y22795000D03*
Y22745000D03*
Y22695000D03*
Y22645000D03*
Y22595000D03*
Y22545000D03*
G54D13*
X20427500Y24920000D03*
Y25340000D03*
G54D106*
X25430000Y27162000D03*
G54D22*
X20380000Y26540000D03*
Y26580000D03*
Y26620000D03*
Y26660000D03*
Y26700000D03*
Y26740000D03*
Y26780000D03*
Y26820000D03*
Y26860000D03*
Y26900000D03*
Y26940000D03*
Y26980000D03*
Y27020000D03*
Y27060000D03*
Y27100000D03*
Y27140000D03*
Y27180000D03*
Y27220000D03*
Y27260000D03*
Y27300000D03*
Y27340000D03*
Y27380000D03*
Y27420000D03*
Y27460000D03*
Y27500000D03*
Y27540000D03*
Y27580000D03*
Y27620000D03*
Y27660000D03*
Y27700000D03*
Y27740000D03*
Y27780000D03*
X21920000D03*
Y27740000D03*
Y27700000D03*
Y27660000D03*
Y27620000D03*
Y27580000D03*
Y27540000D03*
Y27500000D03*
Y27460000D03*
Y27420000D03*
Y27380000D03*
Y27340000D03*
Y27300000D03*
Y27260000D03*
Y27220000D03*
Y27180000D03*
Y27140000D03*
Y27100000D03*
Y27060000D03*
Y27020000D03*
Y26980000D03*
Y26940000D03*
Y26900000D03*
Y26860000D03*
Y26820000D03*
Y26780000D03*
Y26740000D03*
Y26700000D03*
Y26660000D03*
Y26620000D03*
Y26580000D03*
Y26540000D03*
G54D107*
X25330000Y27309000D03*
X25380000D03*
X25430000D03*
X25480000D03*
X25530000D03*
Y27015000D03*
X25480000D03*
X25430000D03*
X25380000D03*
X25330000D03*
G54D41*
X23072500Y22475000D03*
X23022500D03*
X22972500D03*
X22922500D03*
X22872500D03*
X22822500D03*
X22772500D03*
X22722500D03*
X22672500D03*
Y23165000D03*
X22722500D03*
X22772500D03*
X22822500D03*
X22872500D03*
X22922500D03*
X22972500D03*
X23022500D03*
X23072500D03*
X23222500Y22475000D03*
X23172500D03*
X23122500D03*
Y23165000D03*
X23172500D03*
X23222500D03*
G54D50*
X22755000Y26070000D03*
X21970000D03*
X22355000D03*
G54D14*
X20247500Y24792500D03*
Y25467500D03*
G54D32*
X21520000Y28725000D03*
Y28775000D03*
Y28825000D03*
Y28875000D03*
X21730000Y28725000D03*
Y28775000D03*
Y28825000D03*
Y28875000D03*
G54D23*
X21490000Y26390000D03*
X21450000D03*
X21410000D03*
X21370000D03*
X21330000D03*
X21290000D03*
X21250000D03*
X21210000D03*
X21170000D03*
X21130000D03*
X21090000D03*
X21050000D03*
X21010000D03*
X20970000D03*
X20930000D03*
X20890000D03*
X20850000D03*
X20810000D03*
X20770000D03*
X20730000D03*
X20690000D03*
X20650000D03*
X20610000D03*
X20570000D03*
X20530000D03*
Y27930000D03*
X20570000D03*
X20610000D03*
X20650000D03*
X20690000D03*
X20730000D03*
X20770000D03*
X20810000D03*
X20850000D03*
X20890000D03*
X20930000D03*
X20970000D03*
X21010000D03*
X21050000D03*
X21090000D03*
X21130000D03*
X21170000D03*
X21210000D03*
X21250000D03*
X21290000D03*
X21330000D03*
X21370000D03*
X21410000D03*
X21450000D03*
X21490000D03*
X21770000Y26390000D03*
X21730000D03*
X21690000D03*
X21650000D03*
X21610000D03*
X21570000D03*
X21530000D03*
Y27930000D03*
X21570000D03*
X21610000D03*
X21650000D03*
X21690000D03*
X21730000D03*
X21770000D03*
G54D15*
X20570000Y24920000D03*
X20975000Y26160000D03*
X20970000Y26255000D03*
X20137600Y26950000D03*
Y27040000D03*
X21347600Y28580000D03*
X20243800Y28396200D03*
X21517600Y28055000D03*
X20857600Y30475000D03*
X20732600Y29825000D03*
X22915000Y20465000D03*
Y20935000D03*
X22822600Y20565000D03*
X22357600Y22780000D03*
Y22695000D03*
X21775000Y25920000D03*
X21550000Y26240000D03*
X22137600Y27675000D03*
X22140000Y27580000D03*
Y27490000D03*
X22137600Y27405000D03*
Y27755000D03*
X22925000Y27335000D03*
X22487600Y27175000D03*
X22915000Y27755000D03*
X22632600Y28100000D03*
X21923800Y29025000D03*
X21740000Y28130000D03*
X22635000Y28020000D03*
X21695000Y28625000D03*
X21700000Y28055000D03*
X24307600Y21525000D03*
X24347600Y21935000D03*
X23418800Y22540000D03*
X23400000Y22997500D03*
X23136000Y21605000D03*
X23235000Y21855000D03*
X23465000Y25895000D03*
X24230000Y25630000D03*
X23742600Y26930000D03*
X23980000Y27225000D03*
X23222600Y27335000D03*
X23225000Y27255000D03*
X23245000Y28810000D03*
X24662600Y28910000D03*
X23347600Y29360000D03*
X23560000Y27925000D03*
X25590000Y24610000D03*
X24995000Y26630000D03*
Y26720000D03*
X24920000Y26545000D03*
X24917600Y26800000D03*
X24922600Y28745000D03*
Y28670000D03*
Y28515000D03*
X25160000Y29105000D03*
X24692600Y28015000D03*
X24925000Y28440000D03*
G54D108*
X25610000Y27820000D03*
Y28120000D03*
G54D24*
X20140000Y26860000D03*
X20230000D03*
X21340000Y28875000D03*
X21430000D03*
X23980000Y27135000D03*
X24070000D03*
X24520000Y27705000D03*
X24610000D03*
X23360000Y26615000D03*
X23450000D03*
X25120000Y27495000D03*
X25210000D03*
X25120000Y27590000D03*
X25210000D03*
X25120000Y27680000D03*
X25210000D03*
X25120000Y27400000D03*
X25210000D03*
X24910000Y28095000D03*
X25000000D03*
G54D51*
X22746000Y26007500D03*
X22706000D03*
X22666000D03*
X22626000D03*
Y26252500D03*
X22666000D03*
X22706000D03*
X22746000D03*
X21961000Y26007500D03*
X21921000D03*
X21881000D03*
X21841000D03*
Y26252500D03*
X21881000D03*
X21921000D03*
X21961000D03*
X22346000Y26007500D03*
X22306000D03*
X22266000D03*
X22226000D03*
Y26252500D03*
X22266000D03*
X22306000D03*
X22346000D03*
G54D42*
X22947500Y22820000D03*
G54D33*
X21565000Y21485000D03*
X21815000D03*
X21565000Y21635100D03*
X21815000D03*
G54D60*
X22620000Y27860000D03*
X22780000D03*
X22025000Y28840000D03*
X22185000D03*
G54D61*
X22285000Y26760000D03*
Y26850000D03*
X23970000Y27720000D03*
Y27810000D03*
X23385000Y27725000D03*
Y27815000D03*
X24350000Y26990000D03*
Y27080000D03*
X24550000Y26990000D03*
Y27080000D03*
X24055000Y27470000D03*
Y27560000D03*
X24260000Y27185000D03*
Y27275000D03*
X24540000Y27185000D03*
Y27275000D03*
X24300000Y27800000D03*
X24500000D03*
X24450000Y26990000D03*
Y27080000D03*
X23305000Y28225000D03*
Y28315000D03*
X24300000Y27890000D03*
X24500000D03*
X24745000Y27470000D03*
Y27560000D03*
X25655000Y27430000D03*
Y27520000D03*
X25535000Y28445000D03*
Y28535000D03*
G54D34*
X22617400Y21497600D03*
X22583300Y22198600D03*
X23020000Y21880000D03*
X23085000Y21945000D03*
X22583700Y22328000D03*
X22445900Y22328300D03*
X22500000Y21775000D03*
X23229700Y21515300D03*
G54D109*
X25400000Y26815000D03*
Y26525000D03*
G54D52*
X22604500Y26070000D03*
Y26110000D03*
Y26150000D03*
Y26190000D03*
X22767500D03*
Y26150000D03*
Y26110000D03*
X21819500Y26070000D03*
Y26110000D03*
Y26150000D03*
Y26190000D03*
X21982500D03*
Y26150000D03*
Y26110000D03*
X22204500Y26070000D03*
Y26110000D03*
Y26150000D03*
Y26190000D03*
X22367500D03*
Y26150000D03*
Y26110000D03*
G54D70*
X24050000Y21065000D03*
X24610000D03*
Y20505000D03*
X24050000D03*
G54D25*
X21210000Y28655000D03*
Y28605000D03*
Y28555000D03*
Y28505000D03*
Y28455000D03*
Y28405000D03*
Y28355000D03*
Y28305000D03*
X20720000D03*
Y28355000D03*
Y28405000D03*
Y28455000D03*
Y28505000D03*
Y28555000D03*
Y28605000D03*
Y28655000D03*
G54D16*
X20662400Y24920000D03*
X21067400Y26160000D03*
X21062400Y26255000D03*
X20230000Y26950000D03*
Y27040000D03*
X21440000Y28580000D03*
X20336200Y28396200D03*
X20950000Y30475000D03*
X20825000Y29825000D03*
X23007400Y20465000D03*
Y20935000D03*
X22915000Y20565000D03*
X22450000Y22780000D03*
Y22695000D03*
X21867400Y25920000D03*
X21642400Y26240000D03*
X22230000Y27675000D03*
X22232400Y27580000D03*
Y27490000D03*
X22230000Y27405000D03*
Y27755000D03*
X23017400Y27335000D03*
X22580000Y27175000D03*
X23007400Y27755000D03*
X22725000Y28100000D03*
X22016200Y29025000D03*
X21832400Y28130000D03*
X22727400Y28020000D03*
X21787400Y28625000D03*
X21610000Y28055000D03*
X21792400D03*
X24400000Y21525000D03*
X24440000Y21935000D03*
X23511200Y22540000D03*
X23492400Y22997500D03*
X23228400Y21605000D03*
X23327400Y21855000D03*
X23557400Y25895000D03*
X24322400Y25630000D03*
X23835000Y26930000D03*
X24072400Y27225000D03*
X23315000Y27335000D03*
X23317400Y27255000D03*
X23337400Y28810000D03*
X23440000Y29360000D03*
X23652400Y27925000D03*
X25682400Y24610000D03*
X25087400Y26630000D03*
Y26720000D03*
X25012400Y26545000D03*
X25010000Y26800000D03*
X25015000Y28745000D03*
Y28670000D03*
Y28515000D03*
X25252400Y29105000D03*
X24755000Y28910000D03*
X24785000Y28015000D03*
X25017400Y28440000D03*
G54D43*
X22221200Y22646800D03*
X22122200Y22547800D03*
X22299000Y22569000D03*
X22200000Y22470000D03*
G54D44*
X22838600Y22181400D03*
X22775000Y22245000D03*
X22908600Y22246400D03*
X22845000Y22310000D03*
X23208600Y21946400D03*
X23145000Y22010000D03*
G54D17*
X20890000Y26250000D03*
X20725000Y26200000D03*
X20810000D03*
X20230000Y26525000D03*
X20100000Y26520000D03*
X20235000Y27620000D03*
X20230000Y27242400D03*
X20575000Y29252400D03*
X21425000Y28332400D03*
X20500000Y28650000D03*
X22915000Y20745000D03*
Y20935000D03*
Y20370000D03*
X21815000Y21822400D03*
X21565000D03*
X22370000Y21995000D03*
X22327500Y23240000D03*
X22225000Y23242400D03*
X22747500Y23407400D03*
X22065000Y26110000D03*
X22850000D03*
X22450000D03*
X22285000Y27030000D03*
X22130000Y26810000D03*
X22170000Y27260000D03*
X22685000Y26937400D03*
X22065000Y26282400D03*
X22850000D03*
X22070000Y27260000D03*
X22450000Y26282400D03*
X22715000Y28280000D03*
X21905000Y28032400D03*
X22080000D03*
X21995000D03*
X21540000Y28482400D03*
X21820000Y28975000D03*
X22520000Y27852400D03*
X21980000Y28440000D03*
X22290000Y28962400D03*
X23020000Y28512400D03*
X21905000Y28887400D03*
X24310000Y21705000D03*
X24280000Y21875000D03*
X23690000Y22032400D03*
Y22210000D03*
X23230700Y21774700D03*
X23392500Y23212400D03*
X24065000Y26827400D03*
Y27010000D03*
X23495000Y27417400D03*
X23315000Y27515000D03*
X23405000Y27415000D03*
X23540000Y26712400D03*
X24650000Y27562400D03*
X24075000Y26612400D03*
X24400000Y27795000D03*
X23500000Y27127400D03*
X23880000Y27810000D03*
X24150000Y27562400D03*
X23450000Y28810000D03*
X24370000Y29005000D03*
X23905000Y28615000D03*
X23885000Y28430000D03*
X23525000Y28812400D03*
X23995000Y28847400D03*
X24190000Y27970000D03*
X24110000D03*
X23995000Y28632400D03*
X24000000Y28382400D03*
X23445000Y28502400D03*
X24505000Y29317400D03*
X24605000Y27940000D03*
X24700000Y26120000D03*
X25140000Y26247400D03*
X24805000Y27290000D03*
X24730000D03*
X25640000Y26355000D03*
X24915000Y26718800D03*
X25185000Y27132400D03*
X25650000Y27702400D03*
X25075000Y28970000D03*
X24900000Y28352400D03*
G54D62*
X21832500Y29160000D03*
X22252500D03*
G54D26*
X21140000Y28235000D03*
X21090000D03*
X21040000D03*
X20990000D03*
X20940000D03*
X20890000D03*
X20840000D03*
X20790000D03*
Y28725000D03*
X20840000D03*
X20890000D03*
X20940000D03*
X20990000D03*
X21040000D03*
X21090000D03*
X21140000D03*
X24275000Y29140000D03*
X24325000D03*
X24375000D03*
X24425000D03*
X24275000Y29450000D03*
X24325000D03*
X24375000D03*
X24425000D03*
G54D80*
X23785000Y25115000D03*
X23780000Y25950000D03*
Y26000000D03*
Y26050000D03*
G54D35*
X22682700Y21432300D03*
X22648600Y22133300D03*
X23085300Y21814700D03*
X22649000Y22262700D03*
X22511200Y22263000D03*
X22565300Y21709700D03*
X23295000Y21450000D03*
X23150300Y21879700D03*
G54D53*
X23070000Y27230000D03*
X22910000D03*
X23070000Y27860000D03*
X22910000D03*
G54D71*
X24330000Y20785000D03*
G54D72*
X23719400Y21377200D03*
X23529400D03*
G54D81*
X23910000Y25190000D03*
X23860000D03*
X23810000D03*
X23855000Y26075000D03*
G54D54*
X22915000Y27450000D03*
Y27515000D03*
Y27580000D03*
Y27645000D03*
X23215000Y27450000D03*
Y27515000D03*
Y27580000D03*
Y27645000D03*
G54D45*
X23018600Y22008600D03*
X22955000Y21945000D03*
G54D18*
X20890000Y26157600D03*
X20725000Y26107600D03*
X20810000D03*
X20230000Y26432600D03*
X20100000Y26427600D03*
X20235000Y27527600D03*
X20230000Y27150000D03*
X20575000Y29160000D03*
X21425000Y28240000D03*
X20500000Y28557600D03*
X22915000Y20652600D03*
Y20842600D03*
Y20277600D03*
X21815000Y21730000D03*
X21565000D03*
X22370000Y21902600D03*
X22327500Y23147600D03*
X22225000Y23150000D03*
X22747500Y23315000D03*
X22065000Y26017600D03*
Y26190000D03*
X22850000Y26017600D03*
Y26190000D03*
X22450000Y26017600D03*
Y26190000D03*
X22285000Y26937600D03*
X22130000Y26717600D03*
X22520000Y27760000D03*
X22170000Y27167600D03*
X22685000Y26845000D03*
X22070000Y27167600D03*
X22715000Y28187600D03*
X21905000Y27940000D03*
X22080000D03*
X21995000D03*
X21540000Y28390000D03*
X21820000Y28882600D03*
X21980000Y28347600D03*
X22290000Y28870000D03*
X23020000Y28420000D03*
X21905000Y28795000D03*
X24310000Y21612600D03*
X24280000Y21782600D03*
X23690000Y21940000D03*
Y22117600D03*
X23230700Y21682300D03*
X23392500Y23120000D03*
X24065000Y26735000D03*
Y26917600D03*
X23495000Y27325000D03*
X23315000Y27422600D03*
X23405000Y27322600D03*
X23540000Y26620000D03*
X24650000Y27470000D03*
X24075000Y26520000D03*
X24400000Y27702600D03*
X23500000Y27035000D03*
X23880000Y27717600D03*
X24150000Y27470000D03*
X23450000Y28717600D03*
X24370000Y28912600D03*
X23905000Y28522600D03*
X23885000Y28337600D03*
X23525000Y28720000D03*
X23995000Y28755000D03*
X24190000Y27877600D03*
X24110000D03*
X23995000Y28540000D03*
X24000000Y28290000D03*
X23445000Y28410000D03*
X24505000Y29225000D03*
X24605000Y27847600D03*
X24700000Y26027600D03*
X25640000Y26262600D03*
X25140000Y26155000D03*
X24805000Y27197600D03*
X24730000D03*
X24915000Y26626400D03*
X25185000Y27040000D03*
X25650000Y27610000D03*
X25075000Y28877600D03*
X24900000Y28260000D03*
G54D90*
X23626000Y27225000D03*
Y27035000D03*
X23855000Y27225000D03*
Y27130000D03*
Y27035000D03*
G54D27*
X20965000Y28480000D03*
G54D63*
X21705000Y29340000D03*
X22380000D03*
G54D36*
X22216000Y21293200D03*
X23624400Y21297200D03*
G54D19*
X21210000Y26100000D03*
Y26165000D03*
Y26230000D03*
X21430000D03*
Y26100000D03*
G54D64*
X21860000Y28500000D03*
Y28250000D03*
X21660000D03*
Y28500000D03*
G54D73*
X23830000Y22204900D03*
Y21955000D03*
G54D37*
X22216000Y21453200D03*
X23624400Y21457200D03*
G54D55*
X23065000Y27547500D03*
X22465000Y28312500D03*
G54D28*
X20370000Y28520000D03*
X20150000D03*
Y28690000D03*
X20370000D03*
G54D91*
X23675000Y27380000D03*
X23855000D03*
G54D46*
X22420000Y23530000D03*
Y23390000D03*
G54D82*
X23910000Y25040000D03*
X23860000D03*
X23810000D03*
X23855000Y25925000D03*
G54D56*
X22395000Y26821000D03*
X22585000D03*
X22395000Y27050000D03*
X22490000D03*
X22585000D03*
G54D47*
X22577500Y23625000D03*
X22737500D03*
G54D65*
X22400000Y28850000D03*
Y29010000D03*
X23900000Y26460000D03*
Y26620000D03*
G54D92*
X24130000Y28290000D03*
Y28340000D03*
Y28390000D03*
Y28440000D03*
Y28490000D03*
Y28540000D03*
Y28590000D03*
Y28640000D03*
X24770000D03*
Y28590000D03*
Y28540000D03*
Y28490000D03*
Y28440000D03*
Y28390000D03*
Y28340000D03*
Y28290000D03*
G54D38*
X22121000Y21373200D03*
X22311000D03*
G54D29*
X20574000Y28250000D03*
X20630000D03*
X20789000Y28855000D03*
X20845000D03*
X20554000Y28370000D03*
X20610000D03*
X20544000Y28440000D03*
X20600000D03*
G54D83*
X23245000Y25995000D03*
Y26295000D03*
X25230000Y27805000D03*
Y28105000D03*
G54D74*
X24160000Y21715000D03*
Y21875000D03*
G54D39*
X22980000Y21207500D03*
X22915000D03*
X22850000D03*
X22980000Y21075000D03*
X22915000D03*
X22850000D03*
G54D84*
X23635000Y26625000D03*
X23775000D03*
G54D66*
X22615000Y28215000D03*
Y28280000D03*
Y28345000D03*
Y28410000D03*
X22315000Y28215000D03*
Y28280000D03*
Y28345000D03*
Y28410000D03*
G54D57*
X22770000Y26945000D03*
Y26855000D03*
X22920000Y28515000D03*
Y28425000D03*
X24275000Y29035000D03*
Y28945000D03*
X25440000Y27795000D03*
Y28080000D03*
Y27990000D03*
Y27885000D03*
G54D93*
X24275000Y28785000D03*
X24325000D03*
X24375000D03*
X24425000D03*
X24475000D03*
X24525000D03*
X24575000D03*
X24625000D03*
Y28145000D03*
X24575000D03*
X24525000D03*
X24475000D03*
X24425000D03*
X24375000D03*
X24325000D03*
X24275000D03*
G54D48*
X22630000Y23475000D03*
Y23315000D03*
X22175000Y28400000D03*
Y28240000D03*
X23525000Y24695000D03*
Y24535000D03*
X23670000Y24695000D03*
Y24535000D03*
X23815000Y24695000D03*
Y24535000D03*
X23960000Y24695000D03*
Y24535000D03*
X23545000Y28565000D03*
Y28405000D03*
G54D75*
X24465000Y21745000D03*
G54D58*
X22760000Y27175000D03*
X22670000D03*
X22415000Y28090000D03*
X22325000D03*
X22415000Y28530000D03*
X22325000D03*
X24445000Y27275000D03*
X24355000D03*
X24445000Y27175000D03*
X24355000D03*
X24275000Y27705000D03*
X24185000D03*
X24445000Y27985000D03*
X24355000D03*
X24795000Y26365000D03*
X24705000D03*
G54D76*
X24540000Y21865000D03*
X24490000D03*
X24440000D03*
X24390000D03*
X24540000Y21625000D03*
X24490000D03*
X24440000D03*
X24390000D03*
G54D49*
X22887500Y23530000D03*
Y23350000D03*
X23200000Y26815000D03*
Y26635000D03*
X23585000Y29345000D03*
Y29165000D03*
X23755000Y28825000D03*
Y28645000D03*
Y28395000D03*
Y28215000D03*
G54D94*
X24084000Y29385000D03*
X23830000D03*
X24084000Y29165000D03*
X23830000D03*
G54D85*
X24398500Y27418000D03*
G54D67*
X22705000Y29385000D03*
Y28765000D03*
G54D86*
X24398500Y27595000D03*
G54D77*
X24400000Y24550000D03*
X24260000D03*
X24400000Y24710000D03*
X24260000D03*
G54D95*
X23940000Y27992500D03*
Y28172500D03*
X25540000Y28710000D03*
Y28890000D03*
G54D68*
X21625000Y28800000D03*
G54D59*
X22925000Y27085000D03*
X23145000D03*
G54D96*
X24070000Y29000000D03*
X23890000D03*
X24950000Y27870000D03*
X24770000D03*
X25400000Y28345000D03*
X25220000D03*
G54D69*
X22390000Y28685000D03*
X22040000D03*
G54D87*
X24487000Y27435000D03*
Y27485000D03*
Y27535000D03*
Y27585000D03*
X24310000Y27435000D03*
Y27485000D03*
Y27535000D03*
Y27585000D03*
G54D78*
X24578000Y25370000D03*
X24451000D03*
X24324000D03*
X24197000D03*
X24070000D03*
X24578000Y24910000D03*
X24451000D03*
X24324000D03*
X24197000D03*
X24070000D03*
X24067900Y25793300D03*
X24194900D03*
X24321900D03*
X24448900D03*
X24575900D03*
X24067900Y26253300D03*
X24194900D03*
X24321900D03*
X24448900D03*
X24575900D03*
G54D88*
X24212000Y26482500D03*
Y26609500D03*
Y26736500D03*
Y26863500D03*
X24752000D03*
Y26736500D03*
Y26609500D03*
Y26482500D03*
G54D79*
X23935000Y25115000D03*
X23930000Y25950000D03*
Y26000000D03*
Y26050000D03*
G54D97*
X23335000Y28715000D03*
X23270000D03*
X23205000D03*
X23140000D03*
X23335000Y28415000D03*
X23270000D03*
X23205000D03*
X23140000D03*
G54D89*
X23754000Y27625000D03*
Y27815000D03*
X23525000Y27625000D03*
Y27720000D03*
Y27815000D03*
G54D98*
X23237500Y28565000D03*
G54D99*
X25430000Y25337500D03*
Y24917500D03*
M02*
