G04 ================== begin FILE IDENTIFICATION RECORD ==================*
G04 Layout Name:  WCS038B.brd*
G04 Film Name:    LAUNCHXL-CC1352R1_WorkView*
G04 File Format:  Gerber RS274X*
G04 File Origin:  Cadence Allegro 17.2-S007*
G04 Origin Date:  Thu Mar 12 10:23:56 2020*
G04 *
G04 Layer:  ROUTE KEEPIN/ALL*
G04 Layer:  PACKAGE GEOMETRY/ASSEMBLY_TOP*
G04 Layer:  PACKAGE GEOMETRY/ASSEMBLY_BOTTOM*
G04 Layer:  PACKAGE GEOMETRY/PLACE_BOTTOM*
G04 Layer:  PACKAGE GEOMETRY/PLACE_TOP*
G04 Layer:  DRAWING FORMAT/ANTENNA_GROUND*
G04 Layer:  BOARD GEOMETRY/OUTLINE*
G04 *
G04 Offset:    (0.000 0.000)*
G04 Mirror:    No*
G04 Mode:      Positive*
G04 Rotation:  0*
G04 FullContactRelief:  No*
G04 UndefLineWidth:     0.000*
G04 ================== end FILE IDENTIFICATION RECORD ====================*
%FSLAX25Y25*MOMM*%
%IR0*IPPOS*OFA0.00000B0.00000*MIA0B0*SFA1.00000B1.00000*%
%ADD10C,.2*%
%ADD11C,.3*%
%ADD12C,.127*%
G75*
%LPD*%
G75*
G36*
G01X20136100Y26751000D02*
X20063400D01*
Y26728900D01*
X20136100D01*
Y26751000D01*
G37*
G36*
G01X20266100D02*
X20193400D01*
Y26728900D01*
X20266100D01*
Y26751000D01*
G37*
G36*
G01X21528900Y21499000D02*
X21601600D01*
Y21521100D01*
X21528900D01*
Y21499000D01*
G37*
G36*
G01X21778900D02*
X21851600D01*
Y21521100D01*
X21778900D01*
Y21499000D01*
G37*
G36*
G01X22842500Y21133800D02*
Y21148800D01*
X22857500D01*
Y21133800D01*
X22842500D01*
G37*
G36*
G01X22616400Y22330700D02*
X22581000Y22295300D01*
X22587200Y22289100D01*
X22622600Y22324500D01*
X22616400Y22330700D01*
G37*
G36*
G01X22478500Y22260300D02*
X22513900Y22295700D01*
X22507700Y22301900D01*
X22472300Y22266500D01*
X22478500Y22260300D01*
G37*
G36*
G01X22395000Y21973800D02*
X22345000D01*
Y21965000D01*
X22395000D01*
Y21973800D01*
G37*
G36*
G01X22532700Y21777700D02*
X22497300Y21742300D01*
X22503500Y21736100D01*
X22538900Y21771500D01*
X22532700Y21777700D01*
G37*
G36*
G01X22525100Y22105800D02*
X22489700Y22141200D01*
X22483500Y22135000D01*
X22518900Y22099600D01*
X22525100Y22105800D01*
G37*
G36*
G01X22954700Y22094400D02*
X22990100Y22059000D01*
X22996300Y22065200D01*
X22960900Y22100600D01*
X22954700Y22094400D01*
G37*
G36*
G01X22806800Y22248500D02*
X22771500Y22213200D01*
X22778500Y22206100D01*
X22813900Y22241500D01*
X22806800Y22248500D01*
G37*
G36*
G01X22951500Y21976800D02*
X22986800Y21941500D01*
X22993900Y21948500D01*
X22958500Y21983900D01*
X22951500Y21976800D01*
G37*
G36*
G01X22876800Y22313500D02*
X22841500Y22278200D01*
X22848500Y22271100D01*
X22883900Y22306500D01*
X22876800Y22313500D01*
G37*
G36*
G01X22954800Y27142700D02*
Y27027300D01*
X22984800D01*
Y27142700D01*
X22954800D01*
G37*
G36*
G01X22490000Y28725000D02*
X22920000D01*
Y28825000D01*
X22490000D01*
Y28725000D01*
G37*
G36*
G01X22090000Y28755000D02*
Y28615000D01*
X22130000D01*
Y28755000D01*
X22090000D01*
G37*
G36*
G01X23255700Y21753500D02*
X23205700D01*
Y21744700D01*
X23255700D01*
Y21753500D01*
G37*
G36*
G01X23176800Y22013500D02*
X23141500Y21978200D01*
X23148500Y21971100D01*
X23183900Y22006500D01*
X23176800Y22013500D01*
G37*
G54D10*
G01X20725000Y30095000D02*
G03I-10000J0D01*
G54D11*
G01X24240000Y37000000D02*
G03I-15000J0D01*
G54D12*
G01X20105000Y29815000D02*
Y30635000D01*
X20620000D01*
Y29815000D01*
X20105000D01*
G01X21795000Y36150000D02*
X20355000D01*
Y37050000D01*
X21795000D01*
Y36150000D01*
G01X23918500Y35701000D02*
X25231500D01*
Y37101000D01*
X23918500D01*
Y35701000D01*
M02*
