G04 ================== begin FILE IDENTIFICATION RECORD ==================*
G04 Layout Name:  WCS038B.brd*
G04 Film Name:    LAUNCHXL-CC1352R1_Layer2*
G04 File Format:  Gerber RS274X*
G04 File Origin:  Cadence Allegro 17.2-S007*
G04 Origin Date:  Thu Mar 12 10:23:55 2020*
G04 *
G04 Layer:  BOARD GEOMETRY/LAYER2*
G04 Layer:  DRAWING FORMAT/TITLE_BLOCK*
G04 Layer:  BOARD GEOMETRY/OUTLINE*
G04 Layer:  ETCH/L2*
G04 Layer:  PIN/L2*
G04 Layer:  VIA CLASS/L2*
G04 *
G04 Offset:    (0.000 0.000)*
G04 Mirror:    No*
G04 Mode:      Positive*
G04 Rotation:  0*
G04 FullContactRelief:  No*
G04 UndefLineWidth:     0.020*
G04 ================== end FILE IDENTIFICATION RECORD ====================*
%FSLAX25Y25*MOMM*%
%IR0*IPPOS*OFA0.00000B0.00000*MIA0B0*SFA1.00000B1.00000*%
%ADD10C,3.8*%
%ADD11C,1.65*%
%ADD20C,3.316*%
%ADD21C,1.428*%
%ADD22R,1.428X1.428*%
%ADD14C,.099*%
%ADD13C,1.699*%
%ADD15C,.1*%
%ADD12C,.4*%
%ADD19C,.5*%
%ADD18O,1.508X3.016*%
%ADD17O,3.016X1.508*%
%ADD16O,2.416X1.208*%
%ADD23C,.02*%
%ADD24C,.15*%
%ADD25C,.18*%
%ADD29C,2.004*%
%ADD31C,1.324*%
%ADD32C,3.62*%
%ADD30C,1.424*%
%ADD33C,1.732*%
%ADD27C,1.954*%
%ADD26O,1.812X3.32*%
%ADD28C,.624*%
G75*
%LPD*%
G75*
G36*
G01X20055100Y20265000D02*
Y24500100D01*
G02X20154200Y24783800I455929J-103D01*
G03X20244200Y24947200I-435221J346203D01*
G02X20250200Y24953300I9445J-3290D01*
G01X20264900Y24958600D01*
G02X20273500Y24957800I3465J-9372D01*
G03X20297500Y25080000I34016J56776D01*
G01X20297400D01*
G02X20289200Y25082500I-1462J9903D01*
G01X20277600Y25093000D01*
G02X20274300Y25100900I6703J7439D01*
G03X20274400Y25158300I-555325J29668D01*
G02X20277700Y25166200I9968J475D01*
G01X20289300Y25176700D01*
G02X20297500Y25179200I6736J-7395D01*
G03X20273700Y25301500I10026J65417D01*
G01X20273600D01*
G02X20265100Y25300700I-5096J8590D01*
G01X20250400Y25306100D01*
G02X20244400Y25312200I3437J9382D01*
G03X20154200Y25476200I-525433J-182183D01*
G02X20055100Y25759900I356829J283803D01*
G01Y29127900D01*
G02X20061800Y29137300I9988J-31D01*
G01X20079700Y29143700D01*
G02X20090800Y29140600I3347J-9440D01*
G01Y29140500D01*
G03Y29399500I159200J129500D01*
G01Y29399400D01*
G02X20079700Y29396300I-7753J6340D01*
G01X20061800Y29402700D01*
G02X20055100Y29412100I3288J9431D01*
G01Y29575000D01*
X20051600Y37165000D01*
G02X20061600Y37175000I10000J0D01*
G01X20578600D01*
G02X20588000Y37168400I-2J-9997D01*
G01X20594500Y37150600D01*
G02X20591500Y37139500I-9414J-3411D01*
G03X20649600Y36979400I58100J-69508D01*
G01X20800400D01*
G03X20858500Y37139500I0J90592D01*
G02X20855500Y37150600I6414J7689D01*
G01X20862000Y37168400D01*
G02X20871400Y37175000I9402J-3397D01*
G01X25789700D01*
G03X25796700Y37177900I-42J10000D01*
G01X25796800Y37178000D01*
G02X25807700Y37180200I7094J-7047D01*
G01X25812500Y37178200D01*
G02X25818700Y37169000I-3802J-9251D01*
G01Y37168900D01*
X25804900Y29433800D01*
Y29363800D01*
G02X25797000Y29354100I-9990J69D01*
G01X25777800Y29349900D01*
G02X25766600Y29355500I-2128J9745D01*
G01X25766500D01*
G03Y29184500I-186500J-85500D01*
G01X25766600D01*
G02X25777800Y29190100I9072J-4145D01*
G01X25797000Y29185900D01*
G02X25804900Y29176200I-2090J-9769D01*
G01Y25759900D01*
G02X25705800Y25476200I-455929J103D01*
G03X25614700Y25309600I435225J-346197D01*
G02X25608600Y25303400I-9472J3219D01*
G01X25593700Y25298100D01*
G02X25585100Y25299000I-3360J9430D01*
G01X25585000Y25299100D01*
G03X25561900Y25177800I-35003J-56184D01*
G02X25570300Y25175500I1817J-9854D01*
G01X25582200Y25165100D01*
G02X25585600Y25157100I-6622J-7537D01*
G01Y25157000D01*
G03X25585800Y25098900I555436J-27138D01*
G02X25582400Y25090800I-9993J-569D01*
G01X25570500Y25080300D01*
G02X25562100Y25078000I-6577J7532D01*
G01X25562000D01*
G03X25586000Y24957300I-11981J-65118D01*
G02X25594700Y24958400I5477J-8361D01*
G01X25609600Y24953200D01*
G02X25615800Y24947100I-3191J-9445D01*
G01X25615900D01*
G03X25705800Y24783800I525209J182743D01*
G02X25804900Y24500100I-356829J-283803D01*
G01Y20265000D01*
G02X25794900Y20255000I-10000J0D01*
G01X20065100D01*
G02X20055100Y20265000I0J10000D01*
G37*
%LPC*%
G75*
G36*
G01X21005300Y29401900D02*
G02X21013100Y29409700I9800J-2000D01*
G01X21276900D01*
G02X21284700Y29401900I-2000J-9800D01*
G01Y29393200D01*
G02X21274900Y29385200I-9800J2003D01*
G01X21015100D01*
G02X21005300Y29393200I0J10003D01*
G01Y29401900D01*
G37*
G36*
G01X24138400Y36928600D02*
Y37071400D01*
G02X24153600Y37086600I15200J0D01*
G01X24296400D01*
G02X24311600Y37071400I0J-15200D01*
G01Y36928600D01*
G02X24296400Y36913400I-15200J0D01*
G01X24153600D01*
G02X24138400Y36928600I0J15200D01*
G37*
G36*
G01X20259600Y30544400D02*
G02Y30695600I0J75600D01*
G01X20380400D01*
G02Y30544400I0J-75600D01*
G01X20259600D01*
G37*
G36*
G01Y29754400D02*
G02Y29905600I0J75600D01*
G01X20380400D01*
G02Y29754400I0J-75600D01*
G01X20259600D01*
G37*
G36*
G01X21103700Y29030500D02*
G02X21007200Y29067600I-28662J69501D01*
G03X21001000Y29072800I-8984J-4415D01*
G02X21003500Y29133200I8992J29880D01*
G03X21010100Y29138000I-2072J9786D01*
G02X21103700Y29169500I64890J-38004D01*
G03X21111300I3800J9258D01*
G02Y29030500I28700J-69500D01*
G03X21103700I-3800J-9258D01*
G37*
G36*
G01X25505900Y28966600D02*
X25494100D01*
G03X25488300Y28964700I63J-9995D01*
G01X25488200D01*
G02Y29015300I-18200J25300D01*
G01X25488300D01*
G03X25494100Y29013400I5863J8095D01*
G01X25505900D01*
G03X25511700Y29015300I-63J9995D01*
G01X25511800D01*
G02X25548200I18200J-25300D01*
G01X25548300D01*
G03X25554100Y29013400I5863J8095D01*
G01X25565900D01*
G03X25571700Y29015300I-63J9995D01*
G01X25571800D01*
G02Y28964700I18200J-25300D01*
G01X25571700D01*
G03X25565900Y28966600I-5863J-8095D01*
G01X25554100D01*
G03X25548300Y28964700I63J-9995D01*
G01X25548200D01*
G02X25511800I-18200J25300D01*
G01X25511700D01*
G03X25505900Y28966600I-5863J-8095D01*
G37*
G36*
G01X21426000Y28752300D02*
G03Y28765200I-7725J6450D01*
G02X21474000Y28765000I24083J19812D01*
G03Y28752100I7725J-6450D01*
G02X21426000Y28752300I-24083J-19812D01*
G37*
G36*
G01X24461600Y28649100D02*
X24455800Y28646700D01*
G03X24451100Y28642900I3633J-9299D01*
G02X24398900I-26100J17100D01*
G03X24394200Y28646700I-8333J-5499D01*
G01X24388400Y28649100D01*
G03X24382300Y28649500I-3675J-9330D01*
G02X24401100Y28696900I-7300J30324D01*
G03X24405800Y28693100I8333J5499D01*
G01X24411600Y28690700D01*
G03X24417700Y28690300I3675J9330D01*
G02X24432300I7300J-30300D01*
G03X24438400Y28690700I2425J9730D01*
G01X24444200Y28693100D01*
G03X24448900Y28696900I-3633J9299D01*
G02X24499800Y28698700I26087J-17105D01*
G03X24504600Y28695300I7930J6107D01*
G01X24510500Y28693400D01*
G03X24516400Y28693300I3112J9479D01*
G02X24500300Y28644400I8706J-29967D01*
G03X24495500Y28647800I-7930J-6107D01*
G01X24489600Y28649700D01*
G03X24483700Y28649800I-3112J-9479D01*
G02X24467700Y28649500I-8565J30002D01*
G03X24461600Y28649100I-2425J-9730D01*
G37*
G36*
G01X22321100Y28575200D02*
G03X22308900I-6100J-8009D01*
G02Y28624800I-18900J24800D01*
G03X22321100I6100J8009D01*
G02Y28575200I18900J-24800D01*
G37*
G36*
G01X23742800Y28496000D02*
G03X23729900I-6450J-7735D01*
G02Y28544000I-19900J24000D01*
G03X23742800I6450J7735D01*
G02Y28496000I19900J-24000D01*
G37*
G36*
G01X20607200Y28531200D02*
X20603800Y28536800D01*
G03X20598800Y28540900I-8515J-5286D01*
G02X20641000Y28566700I11191J29108D01*
G03X20642400Y28560500I9964J-1008D01*
G01X20645800Y28554900D01*
G03X20650800Y28550800I8515J5286D01*
G02X20668400Y28509600I-11180J-29135D01*
G03X20667800Y28503700I9178J-3914D01*
G01X20669000Y28497600D01*
G03X20671900Y28492500I9749J2169D01*
G02X20621400Y28482100I-21694J-22469D01*
G03X20622000Y28488000I-9178J3914D01*
G01X20620800Y28494100D01*
G03X20617900Y28499200I-9749J-2169D01*
G02X20608600Y28525000I21727J22408D01*
G03X20607200Y28531200I-9964J1008D01*
G37*
G36*
G01X23605000Y28398000D02*
G03X23605400Y28410800I-7552J6642D01*
G02X23653300Y28409300I24575J19208D01*
G03X23652900Y28396500I7552J-6642D01*
G02X23605000Y28398000I-24575J-19208D01*
G37*
G36*
G01X22961800Y28334600D02*
G03X22938300I-11750J-16308D01*
G02X22938200Y28385200I-18303J25264D01*
G03X22961700I11750J16308D01*
G02X22961800Y28334600I18303J-25264D01*
G37*
G36*
G01X23745900Y28096600D02*
X23734100D01*
G03X23728300Y28094700I63J-9995D01*
G01X23728200D01*
G02Y28145300I-18200J25300D01*
G01X23728300D01*
G03X23734100Y28143400I5863J8095D01*
G01X23745900D01*
G03X23751700Y28145300I-63J9995D01*
G01X23751800D01*
G02X23787600Y28145800I18257J-25300D01*
G03X23793300Y28144000I5721J8191D01*
G01X23799400D01*
G03X23805100Y28145800I-21J9991D01*
G02Y28094200I17600J-25800D01*
G03X23799400Y28096000I-5721J-8191D01*
G01X23793300D01*
G03X23787600Y28094200I21J-9991D01*
G02X23751800Y28094700I-17543J25800D01*
G01X23751700D01*
G03X23745900Y28096600I-5863J-8095D01*
G37*
G36*
G01X22484800Y27866100D02*
G03Y27853900I8009J-6100D01*
G02X22435200I-24800J-18900D01*
G03Y27866100I-8009J6100D01*
G02X22484800I24800J18900D01*
G37*
G36*
G01X24702800Y27851200D02*
X24702900Y27844800D01*
G03X24704900Y27838800I9986J-5D01*
G02X24655000Y27838600I-24875J-18811D01*
G03X24657000Y27844700I-8024J6009D01*
G01X24656900Y27851100D01*
G03X24654900Y27857100I-9986J5D01*
G02X24654300Y27893800I24910J18762D01*
G03X24656100Y27899400I-8226J5733D01*
G01Y27905600D01*
G03X24654500Y27911300I-10005J266D01*
G02X24705900Y27910700I25906J17329D01*
G03X24704100Y27905100I8226J-5733D01*
G01Y27898900D01*
G03X24705700Y27893200I10005J-266D01*
G02X24704800Y27857300I-25919J-17311D01*
G03X24702800Y27851200I8024J-6009D01*
G37*
G36*
G01X23345700Y27838300D02*
X23345400Y27832100D01*
G03X23346900Y27826300I9989J-511D01*
G02X23295500Y27828900I-26591J-16307D01*
G03X23297500Y27834400I-7996J6021D01*
G01X23297800Y27840600D01*
G03X23296300Y27846400I-9989J511D01*
G02X23324700Y27893800I26603J16269D01*
G03X23330500Y27895300I509J9994D01*
G01X23335800Y27898400D01*
G03X23339700Y27902900I-5270J8507D01*
G02X23366300Y27858800I28378J-12955D01*
G03X23360500Y27857300I-509J-9994D01*
G01X23355200Y27854200D01*
G03X23351300Y27849700I5270J-8507D01*
G02X23347700Y27843800I-28275J13204D01*
G03X23345700Y27838300I7996J-6021D01*
G37*
G36*
G01X22266300Y27720300D02*
G03X22266100Y27733700I-7584J6588D01*
G02X22312600Y27734700I22803J21298D01*
G03X22312800Y27721300I7584J-6588D01*
G02X22266300Y27720300I-22803J-21298D01*
G37*
G36*
G01X25409200Y27358400D02*
G03X25395800I-6700J-7444D01*
G02Y27405000I-20800J23300D01*
G03X25409200I6700J7444D01*
G02Y27358400I20800J-23300D01*
G37*
G36*
G01X22916100Y27120200D02*
G03X22903900I-6100J-8009D01*
G02Y27169800I-18900J24800D01*
G03X22916100I6100J8009D01*
G02Y27120200I18900J-24800D01*
G37*
G36*
G01Y27000200D02*
G03X22903900I-6100J-8009D01*
G02Y27049800I-18900J24800D01*
G03X22916100I6100J8009D01*
G02Y27000200I18900J-24800D01*
G37*
G36*
G01X22694800Y27038000D02*
Y27032000D01*
G03X22696400Y27026700I9992J125D01*
G02X22643600I-26400J-16700D01*
G03X22645200Y27032000I-8392J5425D01*
G01Y27038000D01*
G03X22643600Y27043300I-9992J-125D01*
G02Y27076700I26400J16700D01*
G03X22645200Y27082000I-8392J5425D01*
G01Y27088000D01*
G03X22643600Y27093300I-9992J-125D01*
G02X22696400I26400J16700D01*
G03X22694800Y27088000I8392J-5425D01*
G01Y27082000D01*
G03X22696400Y27076700I9992J125D01*
G02Y27043300I-26400J-16700D01*
G03X22694800Y27038000I8392J-5425D01*
G37*
G36*
G01X22752800Y26756000D02*
G03X22739900I-6450J-7735D01*
G02Y26804000I-19900J24000D01*
G03X22752800I6450J7735D01*
G02Y26756000I19900J-24000D01*
G37*
G36*
G01X20543300Y26756100D02*
G03X20541300Y26779700I-17186J10428D01*
G02X20591700Y26783900I23683J20303D01*
G03X20593700Y26760300I17186J-10428D01*
G02X20543300Y26756100I-23683J-20303D01*
G37*
G36*
G01X23055300Y26651800D02*
G03Y26628200I16310J-11800D01*
G02X23004700I-25300J-18200D01*
G03Y26651800I-16310J11800D01*
G02X23055300I25300J18200D01*
G37*
G36*
G01X22510900Y26618800D02*
G03X22501200Y26609100I330J-10030D01*
G02X22469100Y26641200I-31200J900D01*
G03X22478800Y26650900I-330J10030D01*
G02X22510900Y26618800I31200J-900D01*
G37*
G36*
G01X25229400Y26301000D02*
X25223300D01*
G03X25217600Y26299200I21J-9991D01*
G02X25174200Y26342600I-17600J25800D01*
G03X25176000Y26348300I-8191J5721D01*
G01Y26354400D01*
G03X25174200Y26360100I-9991J-21D01*
G02X25231200Y26376800I25797J17574D01*
G03X25234100Y26369500I9987J-259D01*
G01X25244500Y26359100D01*
G03X25251800Y26356200I7041J7087D01*
G02X25235100Y26299200I874J-31203D01*
G03X25229400Y26301000I-5721J-8191D01*
G37*
G36*
G01X22750900Y25801800D02*
G03X22748300Y25774800I13460J-14921D01*
G02X22677800Y25813400I-78011J-58800D01*
G03X22699200Y25830100I1584J20032D01*
G02X22750900Y25801800I30792J-5122D01*
G37*
G36*
G01X23785300Y24972500D02*
G02X23829200Y24928600I24100J-19800D01*
G03X23827900Y24927300I6398J-7698D01*
G02X23784000Y24971200I-24100J19800D01*
G03X23785300Y24972500I-6398J7698D01*
G37*
G36*
G01X22911000Y23231300D02*
G03X22897500Y23228900I-5464J-8436D01*
G02X22889500Y23273700I-25011J18648D01*
G03X22903000Y23276100I5464J8436D01*
G02X22911000Y23231300I25011J-18648D01*
G37*
G36*
G01X23994800Y34200900D02*
G02Y34249100I-19800J24100D01*
G03X24020200I12700J15588D01*
G02Y34200900I19800J-24100D01*
G03X23994800I-12700J-15588D01*
G37*
G36*
G01X20796500Y28729600D02*
G02X20713400Y28750500I-26475J70391D01*
G03X20707200Y28753800I-7501J-6618D01*
G01X20694100Y28755600D01*
G03X20687200Y28754000I-1332J-9933D01*
G02X20675900Y28810600I-17226J25989D01*
G03X20682800Y28811800I1843J9842D01*
G01X20694300Y28818500D01*
G03X20698700Y28824000I-5104J8593D01*
G02X20705900Y28839400I71308J-23955D01*
G01X20706000D01*
G03X20706700Y28848600I-8535J5276D01*
G01X20700300Y28863700D01*
G03X20693200Y28869500I-9171J-3980D01*
G02X20730900Y28896000I6751J30463D01*
G01Y28895900D01*
G03X20734000Y28887300I9941J-1275D01*
G01X20746100Y28876100D01*
G03X20754900Y28873700I6738J7374D01*
G02X20796500Y28870400I15085J-73690D01*
G03X20803500I3500J9344D01*
G02X20897500Y28833100I26470J-70388D01*
G03X20904000Y28827800I9001J4403D01*
G01X20918800Y28824000D01*
G03X20927100Y28825500I2532J9703D01*
G02Y28774500I17900J-25500D01*
G03X20918800Y28776000I-5768J-8203D01*
G01X20904000Y28772200D01*
G03X20897500Y28766900I2501J-9703D01*
G02X20803500Y28729600I-67530J33088D01*
G03X20796500I-3500J-9344D01*
G37*
G36*
G01X22286400Y28081700D02*
G02X22233600I-26400J-16700D01*
G03X22235200Y28087000I-8392J5425D01*
G01Y28093000D01*
G03X22233600Y28098300I-9992J-125D01*
G02X22229000Y28111100I26382J16708D01*
G01Y28111200D01*
G03X22225400Y28117700I-9910J-1241D01*
G01X22214600Y28126500D01*
G03X22207500Y28128700I-6297J-7766D01*
G02X22186600Y28134600I-2503J31100D01*
G03X22180700Y28136500I-5859J-8084D01*
G01X22174300D01*
G03X22168400Y28134600I-41J-9984D01*
G02Y28185000I-18400J25200D01*
G03X22174300Y28183100I5859J8084D01*
G01X22180700D01*
G03X22186600Y28185000I41J9984D01*
G02X22236000Y28163700I18428J-25195D01*
G01Y28163600D01*
G03X22239600Y28157100I9910J1241D01*
G01X22250400Y28148300D01*
G03X22257500Y28146100I6297J7766D01*
G02X22286400Y28098300I2523J-31111D01*
G03X22284800Y28093000I8392J-5425D01*
G01Y28087000D01*
G03X22286400Y28081700I9992J125D01*
G37*
G36*
G01X20383800Y27850900D02*
G02X20348700Y27819400I-3888J-30973D01*
G03X20331100Y27839000I-20078J-327D01*
G02X20366200Y27870500I3888J30973D01*
G03X20383800Y27850900I20078J327D01*
G37*
G36*
G01X20801700Y27755500D02*
G02X20754700Y27765600I-19320J24502D01*
G03X20748500Y27770600I-8845J-4624D01*
G01X20734300Y27774600D01*
G03X20726400Y27773400I-2574J-9658D01*
G02X20737700Y27814400I-16391J26575D01*
G03X20743900Y27809400I8845J4624D01*
G01X20758100Y27805400D01*
G03X20766000Y27806600I2574J9658D01*
G02X20801700Y27804500I16348J-26589D01*
G03X20807900Y27802300I6264J7816D01*
G01X20814500D01*
G03X20820700Y27804500I-64J10016D01*
G02Y27755500I19300J-24500D01*
G03X20814500Y27757700I-6264J-7816D01*
G01X20807900D01*
G03X20801700Y27755500I64J-10016D01*
G37*
G36*
G01X21281200Y27724600D02*
Y27724500D01*
G02X21244700Y27755400I-31184J171D01*
G01Y27755500D01*
G03X21250700Y27758800I-1528J9883D01*
G01X21259000Y27768700D01*
G03X21261400Y27775100I-7597J6499D01*
G01Y27775200D01*
G02X21297800Y27805800I31212J-178D01*
G03X21304700Y27807100I1719J9840D01*
G01X21315900Y27814000D01*
G03X21320300Y27819500I-5097J8588D01*
G02X21344800Y27779200I29714J-9533D01*
G03X21337900Y27777900I-1719J-9840D01*
G01X21326700Y27771000D01*
G03X21322300Y27765500I5097J-8588D01*
G02X21297900Y27744300I-29688J9527D01*
G01Y27744200D01*
G03X21291900Y27740900I1528J-9883D01*
G01X21283600Y27731000D01*
G03X21281200Y27724600I7597J-6499D01*
G37*
G36*
G01X22334000Y26508400D02*
G02X22318000Y26548500I-28910J11707D01*
G03X22345000Y26559200I8376J18279D01*
G02X22361000Y26519100I28910J-11707D01*
G03X22334000Y26508400I-8376J-18279D01*
G37*
G36*
G01X23296400Y26362300D02*
G02X23255200Y26360900I-21395J22703D01*
G01X23255100D01*
G03X23248800Y26363200I-6372J-7676D01*
G01X23236000Y26363300D01*
G03X23229700Y26361000I86J-10013D01*
G02X23191800Y26359900I-19669J24207D01*
G03X23168200I-11800J-16310D01*
G02Y26410500I-18200J25300D01*
G03X23191800I11800J16310D01*
G02X23229800Y26409300I18220J-25310D01*
G01X23229900D01*
G03X23236200Y26407000I6372J7676D01*
G01X23249000Y26406900D01*
G03X23255300Y26409200I-86J10013D01*
G02X23296200Y26407900I19702J-24198D01*
G03X23303100Y26405200I6832J7293D01*
G01X23316800D01*
G03X23323600Y26407900I-38J10010D01*
G02X23323800Y26362300I21399J-22707D01*
G03X23316900Y26365000I-6832J-7293D01*
G01X23303200D01*
G03X23296400Y26362300I38J-10010D01*
G37*
G36*
G01X22352700Y26366100D02*
G02X22320000Y26343400I-2656J-31077D01*
G03X22302300Y26368900I-19351J5461D01*
G02X22335000Y26391600I2656J31077D01*
G03X22352700Y26366100I19351J-5461D01*
G37*
G36*
G01X22927200Y26134300D02*
G02X22888200I-19500J-24300D01*
G03Y26165700I-12615J15700D01*
G02X22927200I19500J24300D01*
G03Y26134300I12615J-15700D01*
G37*
G36*
G01X22527200D02*
G02X22488200I-19500J-24300D01*
G03Y26165700I-12615J15700D01*
G02X22527200I19500J24300D01*
G03Y26134300I12615J-15700D01*
G37*
G36*
G01X22142200D02*
G02X22103200I-19500J-24300D01*
G03Y26165700I-12615J15700D01*
G02X22142200I19500J24300D01*
G03Y26134300I12615J-15700D01*
G37*
G36*
G01X20914300Y26070500D02*
G02Y26109500I-24300J19500D01*
G03X20945700I15700J12615D01*
G02Y26070500I24300J-19500D01*
G03X20914300I-15700J-12615D01*
G37*
G36*
G01X23938400Y25495000D02*
G02X23900300Y25474500I-8411J-30023D01*
G03X23886600Y25500000I-19159J6137D01*
G02X23924700Y25520500I8411J30023D01*
G03X23938400Y25495000I19159J-6137D01*
G37*
G36*
G01X22105500Y24907100D02*
G02X22103100Y24946000I-25509J17950D01*
G03X22134500Y24947900I14944J13451D01*
G02X22136900Y24909000I25509J-17950D01*
G03X22105500Y24907100I-14944J-13451D01*
G37*
G36*
G01X23123100Y24261200D02*
G02X23091800Y24235300I-564J-31182D01*
G03X23072400Y24258800I-19822J3394D01*
G02X23103700Y24284700I564J31182D01*
G03X23123100Y24261200I19822J-3394D01*
G37*
G36*
G01X23275900Y24081400D02*
G02X23266500Y24037700I16590J-26430D01*
G03X23239100Y24043600I-16731J-11125D01*
G02X23248500Y24087300I-16590J26430D01*
G03X23275900Y24081400I16731J11125D01*
G37*
G36*
G01X22701900Y23697800D02*
G02X22656600Y23699400I-21894J22210D01*
G03X22649700Y23702800I-7535J-6591D01*
G01X22635600Y23703800D01*
G03X22628400Y23701400I-670J-9989D01*
G02X22631400Y23745600I-20408J23587D01*
G03X22638300Y23742200I7535J6591D01*
G01X22652400Y23741200D01*
G03X22659600Y23743600I670J9989D01*
G02X22701900Y23742200I20392J-23605D01*
G03X22708900Y23739300I7049J7117D01*
G01X22723100D01*
G03X22730100Y23742200I-49J10017D01*
G02Y23697800I21900J-22200D01*
G03X22723100Y23700700I-7049J-7117D01*
G01X22708900D01*
G03X22701900Y23697800I49J-10017D01*
G37*
G36*
G01X22498300Y23625700D02*
G02X22454300Y23581700I-23300J-20700D01*
G03X22448600Y23584100I-6541J-7567D01*
G01X22442200Y23584700D01*
G03X22436100Y23583300I-924J-9961D01*
G02X22389000Y23606400I-16114J26711D01*
G03X22386100Y23612300I-9911J-1209D01*
G01X22377300Y23621100D01*
G03X22371400Y23624000I-7109J-7011D01*
G02X22406100Y23652000I3628J31006D01*
G03X22417000Y23641100I9960J-940D01*
G02X22419200Y23641200I2517J-31122D01*
G03X22426100Y23644100I-147J10008D01*
G01X22435900Y23653900D01*
G03X22438800Y23660800I-7108J7047D01*
G02X22496700Y23643900I31186J-788D01*
G03X22495300Y23637800I8561J-5176D01*
G01X22495900Y23631400D01*
G03X22498300Y23625700I9967J841D01*
G37*
G36*
G01X22514300Y23274300D02*
G02X22455500Y23274900I-29294J10713D01*
G03X22451700Y23279900I-9459J-3245D01*
G01X22441900Y23286700D01*
G03X22435900Y23288500I-5726J-8186D01*
G02X22418800Y23293100I-782J31176D01*
G03X22412100Y23294400I-5143J-8591D01*
G01X22399300Y23292500D01*
G03X22393300Y23289300I1430J-9906D01*
G02X22386200Y23336600I-23321J20682D01*
G03X22392900Y23335300I5143J8591D01*
G01X22405700Y23337200D01*
G03X22411700Y23340400I-1430J9906D01*
G02X22464500Y23329800I23305J-20718D01*
G03X22468300Y23324800I9459J3245D01*
G01X22478100Y23318000D01*
G03X22484100Y23316200I5726J8186D01*
G02X22489300Y23315900I809J-31193D01*
G03X22495800Y23317200I1398J9908D01*
G01X22501500Y23320600D01*
G03X22505700Y23325700I-5197J8559D01*
G02X22530700Y23284100I29304J-10702D01*
G03X22524200Y23282800I-1398J-9908D01*
G01X22518500Y23279400D01*
G03X22514300Y23274300I5197J-8559D01*
G37*
G54D29*
X20300000Y25760000D03*
G54D31*
X21927100Y29280000D03*
X22157100D03*
G54D32*
X23918000Y36729000D03*
X25232000D03*
G54D30*
X20273500Y28093000D03*
X20375000Y28855000D03*
X20172000D03*
G54D33*
X24475000Y37000000D03*
X24675000D03*
X24925000D03*
G54D27*
X20640000Y21142000D03*
X20892300Y22160000D03*
Y22414000D03*
Y22668000D03*
X20638300Y22160000D03*
Y22414000D03*
Y22668000D03*
X20640000Y21650000D03*
Y21396000D03*
X20892300Y22922000D03*
Y23176000D03*
Y23430000D03*
Y23684000D03*
Y23938000D03*
Y24192000D03*
X20638300Y22922000D03*
Y23176000D03*
Y23430000D03*
Y23684000D03*
Y23938000D03*
Y24192000D03*
X20892300Y24446000D03*
X20638300D03*
X21146300Y25462000D03*
Y25716000D03*
X21070000Y31198000D03*
X20816000D03*
Y31452000D03*
X21070000D03*
Y33738000D03*
X20816000D03*
Y33992000D03*
X21070000D03*
X21817800Y22231300D03*
X21563800D03*
X21817800Y21977300D03*
X21563800D03*
X21400300Y25462000D03*
X21654300D03*
X21908300D03*
X22162300D03*
X22416300D03*
X22670300D03*
X21400300Y25716000D03*
X21654300D03*
X21908300D03*
X22162300D03*
X22416300D03*
X22594000Y31198000D03*
X22340000D03*
X22086000D03*
X21832000D03*
X21578000D03*
X21324000D03*
Y31452000D03*
X21578000D03*
X21832000D03*
X22086000D03*
X22340000D03*
X22594000D03*
Y33738000D03*
X22340000D03*
X22086000D03*
X21832000D03*
X21578000D03*
X21324000D03*
Y33992000D03*
X21578000D03*
X21832000D03*
X22086000D03*
X22340000D03*
X22594000D03*
X22924300Y25462000D03*
X23178300D03*
X23432300D03*
X23686300D03*
X22924300Y25716000D03*
X23178300D03*
X23432300D03*
X23686300D03*
X23102000Y31452000D03*
X23356000D03*
X23610000D03*
X23864000D03*
X24118000D03*
Y31198000D03*
X23864000D03*
X23610000D03*
X23356000D03*
X23102000D03*
X22848000D03*
Y31452000D03*
X23102000Y33992000D03*
X23356000D03*
X23610000D03*
X23864000D03*
X24118000D03*
Y33738000D03*
X23864000D03*
X23610000D03*
X23356000D03*
X23102000D03*
X22848000D03*
Y33992000D03*
X25210000Y21142000D03*
X25212300Y22160000D03*
Y22414000D03*
Y22668000D03*
X24958300Y22160000D03*
Y22414000D03*
Y22668000D03*
X25210000Y21650000D03*
Y21396000D03*
X25212300Y22922000D03*
Y23176000D03*
Y23430000D03*
Y23684000D03*
Y23938000D03*
Y24192000D03*
X24958300Y22922000D03*
Y23176000D03*
Y23430000D03*
Y23684000D03*
Y23938000D03*
Y24192000D03*
X25212300Y24446000D03*
X24958300D03*
X24990000Y25462000D03*
Y25716000D03*
Y25970000D03*
X24372000Y31452000D03*
X25134000Y31198000D03*
X24880000D03*
X24626000D03*
X24372000D03*
X24626000Y31452000D03*
X24880000D03*
X25134000D03*
X24372000Y33992000D03*
X25134000Y33738000D03*
X24880000D03*
X24626000D03*
X24372000D03*
X24626000Y33992000D03*
X24880000D03*
X25134000D03*
G54D26*
X20425000Y36600000D03*
X21025000D03*
G54D28*
X20229400Y21970000D03*
X21020000Y24020000D03*
X21000000Y24840000D03*
X21075000Y24935000D03*
X20525000Y26905000D03*
X20495000Y26697500D03*
X21145000Y26000000D03*
X20690000Y26730000D03*
X20970000Y26500000D03*
X20170000Y27150000D03*
X21060000Y26510000D03*
X20180000Y27770000D03*
X20186100Y27868600D03*
X20258300Y28543500D03*
X20590000Y27502600D03*
X20710000Y28100000D03*
X20631500Y28320000D03*
X20830000Y27640000D03*
X20780000Y28043800D03*
X20710000Y27490000D03*
X20620000Y28085000D03*
X20540000Y27570000D03*
X20520000Y27260000D03*
X20700000Y28230000D03*
X20259800Y28265300D03*
X20500000Y27170000D03*
X20177300Y27620000D03*
X20550000Y29725000D03*
X20267200Y28670000D03*
X21010000Y28910000D03*
X20600000Y28670000D03*
X20775000Y30425000D03*
X22420000Y22637500D03*
Y22430000D03*
X22500000Y22381200D03*
X22407500Y22822500D03*
X22392400Y23147600D03*
X22416500Y24153500D03*
X22415000Y24010000D03*
X21795000Y23060000D03*
X22350000Y24815000D03*
X22210000Y25035000D03*
X21910000Y24980000D03*
X22525000Y24719000D03*
X22455000Y24780000D03*
X22080000Y25236000D03*
X22092400Y26520100D03*
X21802500Y25827500D03*
X21860000Y26395000D03*
X22395000Y27150200D03*
X21535000Y26562500D03*
X22026100Y27099900D03*
X22070100Y26770100D03*
X21550000Y26185300D03*
X21569900Y27820100D03*
X21925000Y27850000D03*
X21973800Y28100000D03*
X21477700Y28330000D03*
X22695000Y28410000D03*
X22600000Y28614800D03*
X22700000D03*
X21410000Y27730000D03*
X21585000Y27530000D03*
X21891300Y28130000D03*
X21300000Y28120000D03*
X21610000Y28107700D03*
X22170000Y27325000D03*
X21870000Y29025000D03*
X22600000Y28920000D03*
X22700000D03*
X21355000Y28714000D03*
X23420000Y22480000D03*
X23952000Y22695000D03*
X22916000Y22382300D03*
Y21990000D03*
X23825000Y23950000D03*
X23430300Y23059700D03*
X23172000Y24145000D03*
X23006500Y24153500D03*
X23020000Y23981500D03*
X22968000Y23775000D03*
X24124000Y22895000D03*
X23073000Y23430000D03*
X23025000Y23684000D03*
X24170000Y22965000D03*
X23125000Y25275000D03*
X24120000Y24710000D03*
X23972000Y25232500D03*
X23816000Y24765000D03*
X23960000Y24775000D03*
X23680000Y25135000D03*
X23672000Y24770000D03*
X23525000Y24775200D03*
X23899900Y24934900D03*
X24018700Y24990000D03*
X23500000Y24895000D03*
X23070000Y25567500D03*
X23555000Y25965000D03*
X23660000Y25915000D03*
X24000000Y26050000D03*
X24075000Y25975000D03*
X23430000Y27035000D03*
X23360000Y26925000D03*
X24128900Y27135000D03*
X23905000Y26115000D03*
X23450000Y28350000D03*
X23865000Y28255000D03*
X23350000Y27625000D03*
X22800000Y28620000D03*
X24020200Y28479800D03*
X23780000Y28950000D03*
X23140000Y28785200D03*
X22800000Y28920000D03*
X23440000Y29435000D03*
X24490000Y22025000D03*
X24192400Y21612600D03*
X24315000Y22000000D03*
X24255000Y21685000D03*
X24328000Y23825000D03*
X24424000Y23071000D03*
X24470000Y22805000D03*
X24530000Y23990000D03*
X24445000Y24010000D03*
X25400000Y25550000D03*
X25100000Y25225000D03*
X24825000Y25475000D03*
X24218900Y25190000D03*
X24628000Y24245000D03*
X25200000Y26950000D03*
X25305000Y26420000D03*
X24862300Y26405000D03*
X25080000Y27030000D03*
X25125000Y26427700D03*
X25640000Y26413900D03*
X25495000Y26420000D03*
X25450000Y26945000D03*
X24570000Y26100000D03*
X25570000Y26950000D03*
X25200000Y28450000D03*
Y28100000D03*
X24947500Y27647500D03*
X24450000Y27690000D03*
X24350000D03*
X24225600Y27515000D03*
X25015000Y28572700D03*
X25290000Y27680000D03*
X25287600Y27590000D03*
X24572300Y27517500D03*
X24745000Y27355000D03*
X25000000Y28260000D03*
X25455000Y27575000D03*
X24810000Y28910000D03*
X24600000D03*
X24505000Y29160000D03*
X25700000Y26150000D03*
X25725000Y27975000D03*
X25739800Y27375000D03*
X25719700Y27520000D03*
X25707700Y27610000D03*
%LPD*%
G75*
G54D10*
X20250000Y17850000D03*
Y29270000D03*
X25580000Y17850000D03*
Y29270000D03*
G54D20*
X23918000Y36729000D03*
X25232000D03*
G54D11*
X20640000Y21396000D03*
Y21142000D03*
X20892300Y22160000D03*
Y22414000D03*
Y22668000D03*
Y22922000D03*
X20638300Y22160000D03*
Y22414000D03*
Y22668000D03*
Y22922000D03*
X21563800Y22231300D03*
Y21977300D03*
X20640000Y21650000D03*
X20892300Y23176000D03*
Y23430000D03*
Y23684000D03*
Y23938000D03*
Y24192000D03*
Y24446000D03*
X20638300Y23176000D03*
Y23430000D03*
Y23684000D03*
Y23938000D03*
Y24192000D03*
Y24446000D03*
X21146300Y25462000D03*
X21400300D03*
X21146300Y25716000D03*
X21400300D03*
X21578000Y31198000D03*
X21324000D03*
X21070000D03*
X20816000D03*
Y31452000D03*
X21070000D03*
X21324000D03*
X21578000D03*
Y33738000D03*
X21324000D03*
X21070000D03*
X20816000D03*
Y33992000D03*
X21070000D03*
X21324000D03*
X21578000D03*
X21817800Y22231300D03*
Y21977300D03*
X21654300Y25462000D03*
X21908300D03*
X22162300D03*
X22416300D03*
X22670300D03*
X22924300D03*
X21654300Y25716000D03*
X21908300D03*
X22162300D03*
X22416300D03*
X22670300D03*
X22924300D03*
X23102000Y31452000D03*
Y31198000D03*
X22848000D03*
X22594000D03*
X22340000D03*
X22086000D03*
X21832000D03*
Y31452000D03*
X22086000D03*
X22340000D03*
X22594000D03*
X22848000D03*
X23102000Y33992000D03*
Y33738000D03*
X22848000D03*
X22594000D03*
X22340000D03*
X22086000D03*
X21832000D03*
Y33992000D03*
X22086000D03*
X22340000D03*
X22594000D03*
X22848000D03*
X23178300Y25462000D03*
X23432300D03*
X23686300D03*
X23178300Y25716000D03*
X23432300D03*
X23686300D03*
X23356000Y31452000D03*
X23610000D03*
X23864000D03*
X24118000D03*
X24372000D03*
X24626000Y31198000D03*
X24372000D03*
X24118000D03*
X23864000D03*
X23610000D03*
X24626000Y31452000D03*
X23356000Y31198000D03*
Y33992000D03*
X23610000D03*
X23864000D03*
X24118000D03*
X24372000D03*
X24626000Y33738000D03*
X24372000D03*
X24118000D03*
X23864000D03*
X23610000D03*
X24626000Y33992000D03*
X23356000Y33738000D03*
X25210000Y21396000D03*
Y21142000D03*
X25212300Y22160000D03*
Y22414000D03*
Y22668000D03*
Y22922000D03*
X24958300Y22160000D03*
Y22414000D03*
Y22668000D03*
Y22922000D03*
X25210000Y21650000D03*
X25212300Y23176000D03*
Y23430000D03*
Y23684000D03*
Y23938000D03*
Y24192000D03*
Y24446000D03*
X24958300Y23176000D03*
Y23430000D03*
Y23684000D03*
Y23938000D03*
Y24192000D03*
Y24446000D03*
X24990000Y25462000D03*
Y25716000D03*
Y25970000D03*
X25134000Y31198000D03*
X24880000D03*
Y31452000D03*
X25134000D03*
Y33738000D03*
X24880000D03*
Y33992000D03*
X25134000D03*
G54D12*
X20830000Y21435000D03*
X20520000Y20425000D03*
X20870000Y20940000D03*
X20185000Y21355000D03*
X21375000Y21245000D03*
X21345000Y20920000D03*
X21105000Y20465000D03*
X20865000Y20590000D03*
X20465000Y21505000D03*
X20600000Y20850000D03*
X21360000Y20580000D03*
X20910000Y21185000D03*
X20505000Y20645000D03*
X20355000Y21135000D03*
X21440000Y21490000D03*
X21170000Y21135000D03*
X21020000Y20755000D03*
X20075000Y21145000D03*
Y20780000D03*
Y20495000D03*
X20160000Y20305000D03*
X20800000Y20295000D03*
X21355000D03*
X21035000Y21715000D03*
X21395000Y21710000D03*
X21435000Y22475000D03*
X20770000Y22050000D03*
X20775000Y22555000D03*
X20565000Y21820000D03*
X20820000Y21650000D03*
X21275000Y21550000D03*
X21255000Y21840000D03*
X21084000Y22995000D03*
X20765000Y22800000D03*
X21065000D03*
X21330000Y22330000D03*
X21365000Y22675000D03*
X21250000Y22580000D03*
X21075000Y22500000D03*
X21045000Y22260000D03*
X20685000Y21940000D03*
X20450000Y22365000D03*
X20310000Y22570000D03*
X20260000Y22990000D03*
X21060000Y21525000D03*
X21290000Y22100000D03*
X20945000Y21935000D03*
X21480000Y22715000D03*
X20085000Y22705000D03*
X20090000Y22010000D03*
X20075000Y21555000D03*
X20250000Y21680000D03*
X21405000Y24320000D03*
X21324000Y24035000D03*
X21485000Y23135000D03*
X20770000Y23815000D03*
X20115000Y23855000D03*
X20205000Y23220000D03*
X20765000Y23290000D03*
X21145000Y24575000D03*
X21090000Y24465000D03*
X20270000Y23385000D03*
X20265000Y23755000D03*
X20285000Y24140000D03*
X20270000Y24450000D03*
X20305000Y24620000D03*
X21140000Y23940000D03*
X21190000Y23450000D03*
X21390000Y23235000D03*
X21370000Y23125000D03*
X21050000Y23380000D03*
X21065000Y23565000D03*
X21400000Y23715000D03*
X21500000Y23915000D03*
X21515000Y24430000D03*
X21305000Y24225000D03*
X21280000Y23870000D03*
X21130000Y24110000D03*
X21250000Y24485000D03*
X21015000Y24605000D03*
X21420000Y24620000D03*
X21505000Y24160000D03*
X21240000Y23270000D03*
X21060000Y24305000D03*
X20095000Y24580000D03*
X20085000Y24435000D03*
X20080000Y24060000D03*
Y23330000D03*
X21060000Y23805000D03*
X21380000Y23485000D03*
X20920000Y25415000D03*
X21520000Y24770000D03*
X20720000Y25170000D03*
X21505000Y24880000D03*
X21300000Y24915000D03*
X21330000Y24825000D03*
X20395000Y25415000D03*
X20390000Y25180000D03*
X20320000Y24735000D03*
X20504000Y25255000D03*
X20530000Y25080000D03*
X20700000Y25410000D03*
X21020000Y25830000D03*
X20670000Y26120000D03*
X20575000Y26055000D03*
X21010000Y25595000D03*
X21115000Y25867500D03*
X20430000Y26190000D03*
X21132300Y26210000D03*
X21290000Y26235000D03*
X21235000Y25930000D03*
X21272000Y25595000D03*
X20275000Y25350000D03*
X20095000Y26330000D03*
X20360000Y26360000D03*
X20615000Y27170000D03*
X21110000Y27815000D03*
X20900000Y27000000D03*
X21025000Y26770000D03*
X20950000Y27700000D03*
X20760000Y27545000D03*
Y27690000D03*
X20540000Y27110000D03*
X20610000Y27670000D03*
Y27780000D03*
X20950000Y27810000D03*
X20645000Y27290000D03*
X20600000Y27000000D03*
X20890000Y26520000D03*
X20085000Y27095000D03*
X20177300Y27530000D03*
X20230000Y26694700D03*
X20225000Y27301300D03*
X20100000Y26694700D03*
X20172300Y27250000D03*
X20170000Y27090000D03*
X20240000Y27468700D03*
X20090000Y26995000D03*
X20085000Y26895000D03*
X20365000Y26485000D03*
X21132300Y26262700D03*
X21164100Y27822500D03*
X21415000Y26600000D03*
X21200000Y27000000D03*
X21400000Y27150000D03*
X21200000Y27400000D03*
X21170000Y26500000D03*
X20513800Y28250000D03*
X20503100Y28369900D03*
X20575000Y29101100D03*
X20845000Y28595000D03*
X21090000Y28350000D03*
Y28605000D03*
X20840000Y28355000D03*
X20965000Y28480000D03*
X20640000Y28850000D03*
X20570000Y28980000D03*
X20460000Y28772800D03*
X20250000Y28975000D03*
X20210000Y27990000D03*
X20300000D03*
X21210000Y28210000D03*
X21482700Y28240000D03*
X21420000Y28181100D03*
X21360000Y28137300D03*
X21371800Y28238800D03*
X21446200Y28510000D03*
X21250000Y28750000D03*
Y28802700D03*
X21190000Y28800000D03*
X21270000Y29102700D03*
X21480000Y28650000D03*
X21520000Y28112700D03*
X21500000Y28580000D03*
X21190000Y28750000D03*
X21414200Y28652000D03*
X21460100Y28111000D03*
X21458700Y28058300D03*
X20163400Y28418100D03*
X21270000Y28897300D03*
X21275000Y29250000D03*
X20950000Y30075000D03*
X21300000Y29800000D03*
Y29600000D03*
X21025000Y30325000D03*
X20875000Y30300000D03*
X20125000Y35575000D03*
X21025000Y35725000D03*
X21865000Y21215000D03*
X21885000Y20745000D03*
X22625000Y20655000D03*
X22435000Y20530000D03*
X22595000Y20895000D03*
X22390000Y20805000D03*
X21880000Y20535000D03*
X21905000Y21030000D03*
X22765000Y20405000D03*
X23085000Y20695000D03*
X23090000Y20465000D03*
X23060000Y20535000D03*
X21585000Y20795000D03*
X21675000Y21425000D03*
X21935000Y21430000D03*
X22145000Y20750000D03*
X21675000Y21170000D03*
X21810000Y20290000D03*
X22215000Y20295000D03*
X22505000Y20290000D03*
X22785000D03*
X22775000Y20835000D03*
X22765000Y20510000D03*
X22775000Y20635000D03*
X23045000Y20300000D03*
X22915000Y21140000D03*
X23025000Y21095000D03*
Y21050000D03*
X22810000Y21095000D03*
Y21050000D03*
X22915000Y21275000D03*
X22800000Y21475000D03*
X23025000D03*
X22400000Y21500000D03*
X22375000Y21250000D03*
X22600000Y21325000D03*
X22950000Y21400000D03*
X22875000D03*
X22700000Y21225000D03*
X22500000Y21250000D03*
X22100000D03*
X21935000Y21790000D03*
Y22120000D03*
X21910000Y22360000D03*
X21700000Y22090000D03*
X21695000Y22600000D03*
X21884000Y22670000D03*
X21695000Y22760000D03*
X21600000Y23010000D03*
X22210000Y22560000D03*
X22300000Y22785000D03*
X21915000Y21545000D03*
X22075000Y22770000D03*
X22289200Y22409200D03*
X22045000Y22510000D03*
X22068000Y22605000D03*
X22600000Y22445000D03*
X22525000Y22450000D03*
X22390000Y22370000D03*
X22290000Y22170000D03*
Y22240000D03*
X22615000Y22100000D03*
X22685000Y22095000D03*
Y22165000D03*
X22700000Y22215000D03*
X22970000Y22320000D03*
X23025000Y22260000D03*
X23020000Y21800000D03*
X23090000Y21750000D03*
X23085000Y21605000D03*
X22320000Y22125000D03*
X22645000Y21760000D03*
X22720000Y21765000D03*
X22725000Y21685000D03*
X22335000Y21810000D03*
X22415000Y21735000D03*
X22335000D03*
X22700000Y21525000D03*
X22525000D03*
X22100000D03*
X22300000D03*
X22325000Y22325000D03*
X22775000Y22125000D03*
X22850000Y22050000D03*
X22525000Y22025000D03*
X22475000Y21950000D03*
X22550000Y21900000D03*
X22650000Y21850000D03*
Y22000000D03*
X22800000Y21900000D03*
X22900000Y21750000D03*
Y21850000D03*
X22800000Y21800000D03*
Y21600000D03*
X23000000Y21550000D03*
X22900000D03*
X23000000Y21650000D03*
X22750000Y22000000D03*
X22150000Y22300000D03*
X22050000Y22200000D03*
Y22000000D03*
X22150000Y22100000D03*
X22050000Y21800000D03*
X22150000Y21900000D03*
X22050000Y21600000D03*
X22150000Y21700000D03*
X22300000Y22710000D03*
X21724000Y24435000D03*
X21595000Y24565000D03*
X21920000Y24520000D03*
X22292000Y24215000D03*
X21950000Y24175000D03*
X21920000Y23860000D03*
X22005000Y23645000D03*
X21832000Y23215000D03*
X22695000Y24640000D03*
X22615000Y23890000D03*
X23000000Y24360000D03*
X22740000Y24310000D03*
X22505000Y24445000D03*
X22875000Y24490000D03*
X22555000Y24635000D03*
X22325000Y24580000D03*
Y24325000D03*
X21805000Y24105000D03*
X21980000Y23425000D03*
X22052000Y23140000D03*
X21645000Y23755000D03*
X21825000Y23690000D03*
X22135000Y23415000D03*
X21675000D03*
X21795000Y23295000D03*
X21790000Y23535000D03*
X22136000Y23770000D03*
X21725000Y23900000D03*
X21760000Y24285000D03*
X22125000Y24160000D03*
X22110000Y24395000D03*
X21765000Y24615000D03*
X22120000D03*
X22835000Y23760000D03*
X22905000Y23700000D03*
X22305000Y23745000D03*
Y23360000D03*
X22650000Y23570000D03*
X22550000Y23520000D03*
X22815000Y23845000D03*
X22020000Y23980000D03*
X21965000Y24360000D03*
X21540000Y23605000D03*
X22070000Y23580000D03*
X22295000Y23905000D03*
X22975000Y23875000D03*
X22275000Y23615000D03*
X22400000Y23795000D03*
X22545000Y23435000D03*
X22755000Y23490000D03*
X22065000Y23245000D03*
X21715000Y23155000D03*
X21820000Y24775000D03*
X22250000Y25240000D03*
X22490000Y25260000D03*
X22930000Y24965000D03*
X23025000Y25210000D03*
X22785000Y25070000D03*
X22020000Y24835000D03*
X22235000Y24805000D03*
X21845000Y24900000D03*
X21675000Y24835000D03*
X22583300Y26005000D03*
X22475000Y25945000D03*
X22395000Y25990000D03*
X22260000Y26140000D03*
X22150000Y25985000D03*
X21780000Y25977700D03*
X21740000Y26125000D03*
X21701300Y26245000D03*
X21895000Y26165000D03*
X22007300Y26015000D03*
X23075000Y26005000D03*
X22788700Y26010000D03*
X22690000Y26155000D03*
X22907700Y26010000D03*
X22780000Y25510000D03*
X22430000Y26350000D03*
X22060000Y27010000D03*
X22280000Y27088900D03*
X22170000Y27108700D03*
X22435000Y27195000D03*
X22510000Y26945000D03*
X22027700Y27410000D03*
X22227300Y27030000D03*
X22300000Y27412500D03*
X22080000Y27108700D03*
X22227700Y27160000D03*
X22030000Y27495200D03*
X22300000Y27542500D03*
X22640000Y26525000D03*
X22245000Y26385000D03*
X22081900Y26401000D03*
X22145000Y26440000D03*
X21600000Y27400000D03*
Y27000000D03*
X21755000Y26775000D03*
X21660000Y27810000D03*
X21810000Y27535000D03*
X21805000Y27410000D03*
X21770000Y26585000D03*
X21800000Y27810000D03*
X21730000D03*
X21700000Y27150000D03*
X22805000Y27237300D03*
X22770000Y27110300D03*
Y27010200D03*
X22834700Y26950000D03*
X23055000Y26420000D03*
X22960000Y26430000D03*
X22832300Y26390000D03*
X23015000Y27635000D03*
X23065000Y27545000D03*
X23015000Y27455000D03*
X23053900Y27705600D03*
X23066300Y27756900D03*
X22462300Y27755000D03*
X22577700D03*
X23094800Y26820000D03*
X23070000Y27095000D03*
X22450000Y27450000D03*
X22600000D03*
X22750000Y27500000D03*
X22000000Y27840000D03*
X22145000Y28480000D03*
X22205000D03*
X22415000Y28410000D03*
X22480200Y28530000D03*
X22515000Y28220000D03*
X22415000D03*
X22465000Y28310000D03*
X22750000Y29100000D03*
X22544800Y29330000D03*
X22515000Y28410000D03*
X22232300Y28960000D03*
X22482700Y29020000D03*
X22415000Y28594700D03*
X22400000Y29090200D03*
X22030000Y29195000D03*
X22355000Y29255000D03*
X22137200Y27980000D03*
X22480200Y28070000D03*
X22475000Y28130000D03*
X22545000Y28100000D03*
X22137800Y28032700D03*
X21580000Y28600000D03*
X21750200Y28280000D03*
X21569800D03*
X21640000Y28680000D03*
X21800000Y29055200D03*
X21740000D03*
X21680000D03*
X21600000Y29041300D03*
X21920000Y28630000D03*
X21750200Y28227300D03*
X21569800Y28220000D03*
X21900000Y29160000D03*
X21760000D03*
X21980000Y28570000D03*
X21830000Y28390000D03*
X21769800Y28530000D03*
X21850000Y28630000D03*
X21769800Y28470000D03*
X21980000Y28510000D03*
X21665000Y28152300D03*
X21700000Y29235000D03*
X21851300Y28070000D03*
X22920000Y28580200D03*
X23020000Y28571300D03*
X22855300Y28515000D03*
X22765000Y28280000D03*
X22865200Y29330000D03*
X22935000Y29005000D03*
X22840000Y28415000D03*
X22750000Y29224800D03*
X22650000D03*
Y29100000D03*
X21971900Y28926900D03*
X21912500Y28946300D03*
X21770000Y28980000D03*
X21660000Y28920000D03*
X21600000D03*
X21587300Y28680000D03*
X23080000Y28515000D03*
X22290000Y29025000D03*
X22200000Y29430000D03*
X21855000Y29425000D03*
X22865200Y29420000D03*
X22544800D03*
X22075000Y30425000D03*
X22100000Y30250000D03*
X22125000Y30050000D03*
X21675000Y30475000D03*
X22500000Y30150000D03*
X22475000Y30775000D03*
X21975000Y30150000D03*
X22950000Y31075000D03*
X22750000Y31800000D03*
X22575000Y35025000D03*
X22450000Y36950000D03*
X22675000Y36025000D03*
X21600000Y35850000D03*
X24305000Y21060000D03*
X24105000Y20340000D03*
X24235000Y20480000D03*
X23920000Y21435000D03*
X23745000Y21235000D03*
X23720000Y20435000D03*
X23385000Y20480000D03*
X23690000Y21040000D03*
X24075000Y21365000D03*
X24335000Y21260000D03*
X24475000Y20800000D03*
X24330000Y20620000D03*
X24170000Y20645000D03*
X23930000Y20670000D03*
X23675000Y20665000D03*
X23385000Y20655000D03*
X24565000Y20700000D03*
X24360000Y20940000D03*
X24580000Y20305000D03*
X24305000D03*
X23860000D03*
X23545000Y20300000D03*
X23270000D03*
X24135000Y20905000D03*
X23800000D03*
X23890000Y21245000D03*
X23550000Y20910000D03*
X23225000Y21350000D03*
X23125000Y21250000D03*
X23375000D03*
X23475000D03*
X24600000Y22400000D03*
X24450000Y21800000D03*
X24340000Y21795000D03*
X23660000Y21760000D03*
X24235000Y22180000D03*
X23950000Y21590000D03*
X24625000Y21550000D03*
X23700000Y23005000D03*
X23535000Y23060000D03*
X23585000Y22485000D03*
X24565000Y22125000D03*
X23605000Y21565000D03*
X23720000Y21600000D03*
X23880000Y23040000D03*
X23975000Y21785000D03*
X23930000Y22075000D03*
X23765000Y21840000D03*
X24485000Y22295000D03*
X23980000Y22515000D03*
X23820000Y22505000D03*
X23800000Y21760000D03*
X23465000Y22210000D03*
X24080000Y22240000D03*
X24615000Y22600000D03*
X23570000Y22995000D03*
X23630000Y22080000D03*
X23745000D03*
X23590000Y22540000D03*
X23110000Y22175000D03*
X23190000Y22170000D03*
Y22100000D03*
X23155000Y21795000D03*
X23130000Y21655000D03*
Y21555000D03*
X23330000Y21795000D03*
X23390000Y21855000D03*
X23330000Y21912700D03*
X23375000Y21525000D03*
X23500000D03*
X23250000Y22050000D03*
Y22150000D03*
X23350000D03*
X23550000Y21850000D03*
X23400000Y22050000D03*
Y21950000D03*
Y21650000D03*
X23500000Y21750000D03*
X24575000Y24160000D03*
X24105000Y24550000D03*
X23360000Y24030000D03*
X24195000Y23765000D03*
X23915000Y23815000D03*
X23880000Y23255000D03*
X23670000Y23550000D03*
X23450000Y23590000D03*
X23925000Y23170000D03*
X23655000Y23255000D03*
Y23145000D03*
X23945000Y23370000D03*
X23785000Y23130000D03*
X23245000Y24605000D03*
X23650000Y24275000D03*
X23900000Y24255000D03*
X23600000Y23775000D03*
X23770000Y23555000D03*
X24195000Y23605000D03*
X24050000Y23110000D03*
X23750000Y23350000D03*
X23400000Y23510000D03*
X23392000Y23750000D03*
X23450000Y23845000D03*
X23340000Y23190000D03*
X23460000Y24415000D03*
X24325000Y24265000D03*
X23524000Y23500000D03*
X24100000Y23285000D03*
X24016000Y23730000D03*
X24280000Y23385000D03*
X23675000Y24020000D03*
X23396000Y23275000D03*
X23475000Y23270000D03*
X23532000Y23215000D03*
X24045000Y24035000D03*
X24440000Y23740000D03*
X24325000Y24065000D03*
X24445000Y23200000D03*
X23335000Y25010000D03*
X23100000Y25050000D03*
X23150000Y24810000D03*
X23600000Y25055000D03*
X23605000Y24895000D03*
X24520000Y25080000D03*
X24330000Y25190000D03*
X24010000Y25140000D03*
X24260000Y25000000D03*
X24136700Y24970000D03*
X23832000Y25435000D03*
X23580000Y26140000D03*
X24160000Y25640000D03*
X23910000Y25890000D03*
X23412700Y26000000D03*
X24475000Y25550000D03*
X24250000Y25920000D03*
X24665000Y25880000D03*
X24380000Y26220000D03*
X24505000Y26155000D03*
X24260000Y26170000D03*
X23195000Y26085200D03*
X23285000D03*
X24010000Y26275000D03*
X23485000D03*
X24130000Y26800000D03*
X23965000Y27060000D03*
X23754000Y27191200D03*
X24131300Y27225000D03*
X24075000Y27282700D03*
X23590000Y27350000D03*
Y27420000D03*
X24040000Y27060000D03*
X24090000D03*
X23557700Y27125000D03*
X24034700Y27719300D03*
X24110000Y27818700D03*
X23636500Y27698700D03*
X23760000Y27470000D03*
X23700000Y27700000D03*
X23965700Y27654800D03*
X23597700Y26740000D03*
X23850000Y26379800D03*
X24017300Y26515000D03*
X24070000Y26461100D03*
X24140000Y26395000D03*
X23300000Y27145000D03*
X23270000Y27052700D03*
X23337300Y27700000D03*
X23165000Y26905200D03*
X23500000Y27186300D03*
X23439900Y27500100D03*
X23482300Y26735000D03*
X23150000Y27760000D03*
X24625000Y27105000D03*
X24280000Y27080000D03*
Y26940000D03*
X24400000Y26895000D03*
X24670000Y26801100D03*
X24540000Y26930000D03*
X24210000Y27400000D03*
X24590000D03*
X24672300Y27195000D03*
X24190000Y27818700D03*
X24600000Y27790000D03*
X24400000Y27500700D03*
Y27345000D03*
X24580000Y26440000D03*
Y26530000D03*
X24320000D03*
X24450000Y26390000D03*
X24320000D03*
X23115000Y27635000D03*
Y27455000D03*
X23150000Y27285000D03*
X23185000Y27030000D03*
X23150000Y27225000D03*
X23235000Y26905200D03*
X23305200Y26820000D03*
X23955000Y26380000D03*
X23100000Y27307500D03*
X24140000Y28200000D03*
X23600000Y28830000D03*
X23942700Y28337300D03*
X23930000Y28850000D03*
X24070000Y28790000D03*
X23967500Y28691300D03*
X24070000Y28900000D03*
X24000000D03*
X24150000D03*
X24160200Y29010000D03*
X24157600Y29080000D03*
X23940000Y28390000D03*
X23545000Y28130000D03*
X23710000Y28000000D03*
X24145000Y28105000D03*
X23970000Y27910000D03*
X23910000D03*
X23650000Y27994700D03*
X23280000Y29360000D03*
X23350000Y29300000D03*
X23470000Y28640000D03*
X23460000Y28560000D03*
X23400000D03*
X23190000Y28820000D03*
X23285000Y29180000D03*
Y29005000D03*
X23110000Y28905000D03*
Y29280000D03*
X23460000Y28880000D03*
X23240000Y28867700D03*
X23360000Y28180000D03*
X23240000Y28565000D03*
X23325000Y28525000D03*
Y28600000D03*
X23150000D03*
Y28525000D03*
X23250000Y28180000D03*
X23150200Y27880000D03*
X23470000Y28070000D03*
X24370000Y27853600D03*
X24435000Y27852400D03*
X24660000Y28540000D03*
Y28490000D03*
X24480000Y28390000D03*
X24450000Y28900000D03*
X24520000D03*
X24580000Y28670000D03*
X24430000Y29020000D03*
X24280000Y29370000D03*
Y28670000D03*
X24239900Y28286000D03*
X24240000Y28590000D03*
X24370000Y29060000D03*
X24210300Y29080000D03*
X24664800Y28340000D03*
X24475000Y28250200D03*
X24240200Y28338700D03*
X24239900Y28391400D03*
X24512500Y27990000D03*
X24401000Y27896300D03*
X23150000Y27825000D03*
X23350000Y29420000D03*
X24227300Y29450000D03*
X24575000Y30900000D03*
X23800000Y30625000D03*
X23150000Y30375000D03*
X24025000Y30050000D03*
X23400000Y32000000D03*
X24000000Y31425000D03*
X24575000Y31975000D03*
X23825000Y31750000D03*
X24550000Y31350000D03*
X23475000Y31250000D03*
Y34100000D03*
X23550000Y34500000D03*
X23300000Y34775000D03*
X23975000Y34750000D03*
X24050000Y35025000D03*
X24325000Y34875000D03*
X23900000Y35925000D03*
X24400000Y36700000D03*
X25690000Y21150000D03*
X25450000Y20995000D03*
X25575000Y20510000D03*
X24800000Y20400000D03*
X25320000Y20350000D03*
X24945000Y20775000D03*
X24960000Y21355000D03*
X25520000Y21150000D03*
X25510000Y20790000D03*
X24925000Y21005000D03*
X24970000Y20495000D03*
X25410000Y20485000D03*
X25175000Y20885000D03*
X25245000Y20660000D03*
X24800000Y20610000D03*
X24740000Y20935000D03*
X24675000Y21360000D03*
X25740000Y21315000D03*
X25750000Y20895000D03*
X25745000Y20465000D03*
X25625000Y20305000D03*
X25135000D03*
X25700000Y22910000D03*
X24720000Y22070000D03*
X24850000Y21855000D03*
X25020000Y21685000D03*
X25220000Y21960000D03*
X24910000Y22000000D03*
X25195000Y21855000D03*
X25665000Y21610000D03*
X25515000Y22255000D03*
X25435000Y22905000D03*
Y22590000D03*
X24885000Y21550000D03*
X25440000Y22000000D03*
X25455000Y21550000D03*
X24715000Y21800000D03*
X25750000Y22625000D03*
Y22230000D03*
X25735000Y21815000D03*
X24775000Y22230000D03*
X24800000Y22450000D03*
Y22700000D03*
Y22950000D03*
X25690000Y23420000D03*
X25665000Y23830000D03*
X24855000Y23310000D03*
X25100000Y23590000D03*
X25080000Y23810000D03*
X25085000Y24055000D03*
X25490000Y24155000D03*
X25475000Y23750000D03*
X25440000Y23285000D03*
X24805000Y24515000D03*
X25755000Y24335000D03*
X25750000Y24025000D03*
Y23625000D03*
Y23225000D03*
X25760000Y24550000D03*
X24960000Y24715000D03*
X25170000Y25015000D03*
X24730000Y25575000D03*
X24890000Y24950000D03*
X24745000Y24690000D03*
X25110000Y24815000D03*
X25610000Y24687300D03*
X25020000Y25190000D03*
X24730000Y24950000D03*
X24800000Y25390000D03*
X25280000Y25180000D03*
X25330000Y25060000D03*
X25140000Y26096100D03*
X25515000Y25825000D03*
X25225000Y26125000D03*
X25480000Y25980000D03*
X25580000Y26130000D03*
X25650000Y26200000D03*
X25300000Y25980000D03*
X24690000Y25740000D03*
X24675000Y25550000D03*
X24695000Y26185000D03*
X25775000Y26125000D03*
X25750000Y25900000D03*
X24980000Y26285000D03*
X24685000Y26255000D03*
X25500000Y26675000D03*
X25470000Y27420000D03*
X25250000Y27230000D03*
X25180000Y27190000D03*
X25120000Y27330000D03*
X25300000Y27530000D03*
X25060000Y27190000D03*
X24900000Y27050000D03*
X24880000Y26890000D03*
X24990000Y27450000D03*
X24860000D03*
X24990000Y27600000D03*
X24860000D03*
X24940000Y27764800D03*
X25010000Y26857700D03*
X24840000Y26802500D03*
X24750000Y26926200D03*
X25040000Y27810000D03*
X24715000Y27138700D03*
X25060000Y27490000D03*
Y27590000D03*
Y27680000D03*
X25010000Y26487300D03*
X25750000Y27300000D03*
X25780000Y27130000D03*
X25750000Y26600000D03*
X25725000Y27450000D03*
X25040200Y27870000D03*
X25085000Y29190000D03*
Y29365000D03*
X25097600Y28482600D03*
X25073900Y28670000D03*
X25075000Y28745000D03*
X25101100Y29105000D03*
X25370000Y28220000D03*
X25440000Y28500000D03*
X25110000Y28195200D03*
X25440100Y28145200D03*
X25560000Y28210200D03*
X25640000D03*
X25440000Y28570000D03*
X25310000Y28647700D03*
X25380000Y28650000D03*
X25570000Y28619800D03*
X25500000D03*
X25132700Y28880000D03*
X25380000Y27900000D03*
X24795000Y28820000D03*
X24735000Y29190000D03*
X24910000Y29090000D03*
Y29290000D03*
X24735000Y29365000D03*
X24805000Y28190000D03*
X24910000Y28165200D03*
X24950000Y28350000D03*
X25017300Y28880000D03*
X24740000Y28080000D03*
X25040200Y27930000D03*
X25060000Y28100000D03*
X25775000Y27900000D03*
X25425000Y30925000D03*
X24825000Y30675000D03*
X25250000Y31425000D03*
X25550000Y33500000D03*
X25625000Y35450000D03*
X25075000Y37100000D03*
X25550000Y36825000D03*
X25650000Y35925000D03*
X25025000Y35750000D03*
X24925000Y36250000D03*
X25300000Y36350000D03*
G54D21*
X24675000Y37000000D03*
X24475000D03*
X24925000D03*
G54D13*
X20300000Y25760000D03*
G54D22*
X24225000Y37000000D03*
G54D23*
G01X20177500Y17600000D02*
X25685000D01*
G03X25855000Y17795000I-14022J183827D01*
G01Y24500000D01*
G03X25745000Y24815000I-506023J0D01*
G02X25635000Y25130000I396023J315000D01*
G02X25745000Y25445000I506023J0D01*
G03X25855000Y25760000I-396023J315000D01*
G01Y29433800D01*
X25868700Y37200000D01*
X20020700D01*
X20003400Y30700000D01*
X20125000D01*
Y30500000D01*
X20375000D01*
Y30425000D01*
X20125000D01*
Y30025000D01*
X20375000D01*
Y29950000D01*
X20125000D01*
Y29775000D01*
X20112500Y29762500D01*
X20000900D01*
X20000000Y29425000D01*
X20005000Y25760000D01*
G03X20115000Y25445000I506023J0D01*
G02X20225000Y25130000I-396023J-315000D01*
G02X20115000Y24815000I-506023J0D01*
G03X20005000Y24500000I396023J-315000D01*
G01Y17795000D01*
G03X20177500Y17600000I205417J7917D01*
G01X24153200Y14886200D02*
Y15076700D01*
X24200600D01*
X24219500Y15067200D01*
X24233700Y15054500D01*
X24245600Y15035400D01*
X24255100Y15013200D01*
X24257400Y14981400D01*
X24255100Y14949700D01*
X24245600Y14927500D01*
X24233700Y14908400D01*
X24219500Y14895700D01*
X24200600Y14886200D01*
X24153200D01*
G01X24336500D02*
X24395800Y15076700D01*
X24455100Y14886200D01*
G01X24433700Y14952900D02*
X24357900D01*
G01X24586300Y15076700D02*
Y14886200D01*
G01X24531800Y15076700D02*
X24640800D01*
G01X24824200Y14886200D02*
X24729400D01*
Y15076700D01*
X24824200D01*
G01X24786300Y14984600D02*
X24729400D01*
G01X24967300Y14879900D02*
X24962600Y14883000D01*
Y14889400D01*
X24967300Y14892500D01*
X24972000Y14889400D01*
Y14883000D01*
X24967300Y14879900D01*
G01Y14965600D02*
X24962600Y14968700D01*
Y14975100D01*
X24967300Y14978300D01*
X24972000Y14975100D01*
Y14968700D01*
X24967300Y14965600D01*
G01X25303300Y15045000D02*
X25317500Y15064000D01*
X25334100Y15073500D01*
X25353000Y15076700D01*
X25376700Y15070400D01*
X25393300Y15054500D01*
X25398100Y15035400D01*
X25395700Y15016400D01*
X25386200Y15000500D01*
X25338800Y14968700D01*
X25317500Y14946500D01*
X25303300Y14914800D01*
X25298500Y14886200D01*
X25398100D01*
G01X25538800Y15076700D02*
X25519800Y15070400D01*
X25505600Y15054500D01*
X25496100Y15035400D01*
X25489000Y15010000D01*
X25486700Y14981400D01*
X25489000Y14952900D01*
X25496100Y14927500D01*
X25505600Y14908400D01*
X25519800Y14892500D01*
X25538800Y14886200D01*
X25557800Y14892500D01*
X25572000Y14908400D01*
X25581500Y14927500D01*
X25588600Y14952900D01*
X25590900Y14981400D01*
X25588600Y15010000D01*
X25581500Y15035400D01*
X25572000Y15054500D01*
X25557800Y15070400D01*
X25538800Y15076700D01*
G01X25729300Y14886200D02*
Y15076700D01*
X25700900Y15038600D01*
G01Y14886200D02*
X25757700D01*
G01X25919800D02*
X25936400Y14889400D01*
X25955300Y14898900D01*
X25967200Y14914800D01*
X25971900Y14937000D01*
X25967200Y14959200D01*
X25953000Y14978300D01*
X25931600Y14987800D01*
X25908000D01*
X25893700Y14994200D01*
X25881900Y15010000D01*
X25877100Y15032200D01*
X25884300Y15054500D01*
X25900800Y15070400D01*
X25919800Y15076700D01*
X25938800Y15070400D01*
X25955300Y15054500D01*
X25962500Y15032200D01*
X25957700Y15010000D01*
X25945900Y14994200D01*
X25931600Y14987800D01*
X25908000D01*
X25886600Y14978300D01*
X25872400Y14959200D01*
X25867700Y14937000D01*
X25872400Y14914800D01*
X25884300Y14898900D01*
X25903200Y14889400D01*
X25919800Y14886200D01*
G01X26079500Y14949700D02*
X26141100D01*
G01X26300800Y14886200D02*
Y15076700D01*
X26272400Y15038600D01*
G01Y14886200D02*
X26329200D01*
G01X26491300Y15076700D02*
X26472300Y15070400D01*
X26458100Y15054500D01*
X26448600Y15035400D01*
X26441500Y15010000D01*
X26439200Y14981400D01*
X26441500Y14952900D01*
X26448600Y14927500D01*
X26458100Y14908400D01*
X26472300Y14892500D01*
X26491300Y14886200D01*
X26510300Y14892500D01*
X26524500Y14908400D01*
X26534000Y14927500D01*
X26541100Y14952900D01*
X26543400Y14981400D01*
X26541100Y15010000D01*
X26534000Y15035400D01*
X26524500Y15054500D01*
X26510300Y15070400D01*
X26491300Y15076700D01*
G01X26651000Y14949700D02*
X26712600D01*
G01X26827300Y15045000D02*
X26841500Y15064000D01*
X26858100Y15073500D01*
X26877000Y15076700D01*
X26900700Y15070400D01*
X26917300Y15054500D01*
X26922100Y15035400D01*
X26919700Y15016400D01*
X26910200Y15000500D01*
X26862800Y14968700D01*
X26841500Y14946500D01*
X26827300Y14914800D01*
X26822500Y14886200D01*
X26922100D01*
G01X27010700Y14914800D02*
X27024900Y14898900D01*
X27041500Y14889400D01*
X27062800Y14886200D01*
X27084100Y14892500D01*
X27100700Y14905200D01*
X27112600Y14927500D01*
X27114900Y14952900D01*
X27110200Y14978300D01*
X27098300Y14994200D01*
X27081800Y15006800D01*
X27065200Y15010000D01*
X27048600Y15006800D01*
X27027300Y14994200D01*
X27034400Y15076700D01*
X27098300D01*
G01X24353700Y15588000D02*
Y15397500D01*
X24448500D01*
G01X24546600Y15556300D02*
X24560800Y15575300D01*
X24577400Y15584800D01*
X24596300Y15588000D01*
X24620000Y15581700D01*
X24636600Y15565800D01*
X24641400Y15546700D01*
X24639000Y15527700D01*
X24629500Y15511800D01*
X24582100Y15480000D01*
X24560800Y15457800D01*
X24546600Y15426100D01*
X24541800Y15397500D01*
X24641400D01*
G01X24200300Y16071700D02*
Y15881200D01*
G01X24145800Y16071700D02*
X24254800D01*
G01X24438200Y15881200D02*
X24343400D01*
Y16071700D01*
X24438200D01*
G01X24400300Y15979600D02*
X24343400D01*
G01X24531500Y15881200D02*
X24631100Y16071700D01*
G01X24531500D02*
X24631100Y15881200D01*
G01X24712500D02*
X24771800Y16071700D01*
X24831100Y15881200D01*
G01X24809700Y15947900D02*
X24733900D01*
G01X24912500Y15906600D02*
X24931500Y15890700D01*
X24952800Y15881200D01*
X24971800D01*
X24990700Y15890700D01*
X25005000Y15906600D01*
X25012100Y15928800D01*
X25007300Y15951000D01*
X24995500Y15970100D01*
X24974100Y15982800D01*
X24945700Y15989200D01*
X24929100Y16001800D01*
X24922000Y16024100D01*
X24926800Y16046300D01*
X24938600Y16062200D01*
X24955200Y16071700D01*
X24971800D01*
X24988400Y16065400D01*
X25002600Y16049500D01*
G01X25314900Y16071700D02*
X25371700D01*
G01X25343300D02*
Y15881200D01*
G01X25314900D02*
X25371700D01*
G01X25479300D02*
Y16071700D01*
X25588300Y15881200D01*
Y16071700D01*
G01X25674500Y15906600D02*
X25693500Y15890700D01*
X25714800Y15881200D01*
X25733800D01*
X25752700Y15890700D01*
X25767000Y15906600D01*
X25774100Y15928800D01*
X25769300Y15951000D01*
X25757500Y15970100D01*
X25736100Y15982800D01*
X25707700Y15989200D01*
X25691100Y16001800D01*
X25684000Y16024100D01*
X25688800Y16046300D01*
X25700600Y16062200D01*
X25717200Y16071700D01*
X25733800D01*
X25750400Y16065400D01*
X25764600Y16049500D01*
G01X25914800Y16071700D02*
Y15881200D01*
G01X25860300Y16071700D02*
X25969300D01*
G01X26057900Y15881200D02*
Y16071700D01*
X26117100D01*
X26136100Y16062200D01*
X26148000Y16049500D01*
X26152700Y16024100D01*
X26148000Y15998700D01*
X26133700Y15982800D01*
X26117100Y15973300D01*
X26057900D01*
G01X26117100D02*
X26152700Y15881200D01*
G01X26243700Y16071700D02*
Y15935200D01*
X26253100Y15906600D01*
X26272100Y15887500D01*
X26295800Y15881200D01*
X26319500Y15887500D01*
X26338500Y15906600D01*
X26347900Y15935200D01*
Y16071700D01*
G01X26424700Y15881200D02*
Y16071700D01*
X26486300Y15912900D01*
X26547900Y16071700D01*
Y15881200D01*
G01X26724200D02*
X26629400D01*
Y16071700D01*
X26724200D01*
G01X26686300Y15979600D02*
X26629400D01*
G01X26812800Y15881200D02*
Y16071700D01*
X26921800Y15881200D01*
Y16071700D01*
G01X27057800D02*
Y15881200D01*
G01X27003300Y16071700D02*
X27112300D01*
G01X27198500Y15906600D02*
X27217500Y15890700D01*
X27238800Y15881200D01*
X27257800D01*
X27276700Y15890700D01*
X27291000Y15906600D01*
X27298100Y15928800D01*
X27293300Y15951000D01*
X27281500Y15970100D01*
X27260100Y15982800D01*
X27231700Y15989200D01*
X27215100Y16001800D01*
X27208000Y16024100D01*
X27212800Y16046300D01*
X27224600Y16062200D01*
X27241200Y16071700D01*
X27257800D01*
X27274400Y16065400D01*
X27288600Y16049500D01*
G54D14*
X20307500Y25014600D03*
Y25244600D03*
X22172500Y19832500D03*
X21927100Y29280000D03*
X22157100D03*
X23672500Y19832500D03*
X25550000Y25242900D03*
Y25012900D03*
G54D24*
G01X20640000Y21288300D02*
Y21396000D01*
G01D02*
Y21503700D01*
G01X20532300Y21396000D02*
X20640000D01*
G01D02*
X20747700D01*
G01X20640000Y21542300D02*
Y21650000D01*
G01D02*
Y21757700D01*
G01X20532300Y21650000D02*
X20640000D01*
G01D02*
X20747700D01*
G01X20892300Y24084300D02*
Y24192000D01*
G01D02*
Y24299700D01*
G01X20784600Y24192000D02*
X20892300D01*
G01D02*
X21000000D01*
G01X20300000Y25649800D02*
Y25760000D01*
G01D02*
Y25870200D01*
G01X20189800Y25760000D02*
X20300000D01*
G01D02*
X20410200D01*
G01X21146300Y25608300D02*
Y25716000D01*
G01D02*
Y25823700D01*
G01X21038600Y25716000D02*
X21146300D01*
G01D02*
X21254000D01*
G01X21146300Y25354300D02*
Y25462000D01*
G01D02*
Y25569700D01*
G01X21038600Y25462000D02*
X21146300D01*
G01D02*
X21254000D01*
G01X20250000Y29054800D02*
Y29270000D01*
G01D02*
Y29485200D01*
G01Y29270000D02*
X20465200D01*
G01X25210000Y21288300D02*
Y21396000D01*
G01D02*
Y21503700D01*
G01X25102300Y21396000D02*
X25210000D01*
G01D02*
X25317700D01*
G01X25210000Y21542300D02*
Y21650000D01*
G01D02*
Y21757700D01*
G01X25102300Y21650000D02*
X25210000D01*
G01D02*
X25317700D01*
G01X25212300Y24338300D02*
Y24446000D01*
G01D02*
Y24553700D01*
G01X25104600Y24446000D02*
X25212300D01*
G01D02*
X25320000D01*
G01X25580000Y29054800D02*
Y29270000D01*
G01D02*
Y29485200D01*
G01X25364800Y29270000D02*
X25580000D01*
G54D15*
G01X20090000Y16222500D02*
Y14722500D01*
X27590000D01*
Y16222500D01*
X20090000D01*
G01X23840000D02*
Y14722500D01*
G01Y15222500D02*
X27590000D01*
G01Y15722500D02*
X23840000D01*
G01X25107600D02*
Y15222500D01*
X20375000Y28855000D03*
X20172000D03*
X20273500Y28093000D03*
G54D25*
G01X25242500Y15477500D02*
X25258800Y15372500D01*
X25277500Y15477500D01*
X25296200Y15372500D01*
X25312500Y15477500D01*
G01X25383200Y15468700D02*
X25376200Y15474000D01*
X25368000Y15477500D01*
X25358700D01*
X25348200Y15472200D01*
X25340000Y15463500D01*
X25334200Y15453000D01*
X25329500Y15435500D01*
X25328300Y15419700D01*
X25330700Y15404000D01*
X25334200Y15393500D01*
X25341200Y15383000D01*
X25349300Y15376000D01*
X25357500Y15372500D01*
X25365700D01*
X25373800Y15376000D01*
X25380800Y15381200D01*
X25386700Y15388200D01*
G01X25413000Y15386500D02*
X25422300Y15377700D01*
X25432800Y15372500D01*
X25442200D01*
X25451500Y15377700D01*
X25458500Y15386500D01*
X25462000Y15398800D01*
X25459700Y15411000D01*
X25453800Y15421500D01*
X25443300Y15428500D01*
X25429300Y15432000D01*
X25421200Y15439000D01*
X25417700Y15451200D01*
X25420000Y15463500D01*
X25425800Y15472200D01*
X25434000Y15477500D01*
X25442200D01*
X25450300Y15474000D01*
X25457300Y15465200D01*
G01X25517500Y15477500D02*
X25508200Y15474000D01*
X25501200Y15465200D01*
X25496500Y15454800D01*
X25493000Y15440700D01*
X25491800Y15425000D01*
X25493000Y15409200D01*
X25496500Y15395200D01*
X25501200Y15384700D01*
X25508200Y15376000D01*
X25517500Y15372500D01*
X25526800Y15376000D01*
X25533800Y15384700D01*
X25538500Y15395200D01*
X25542000Y15409200D01*
X25543200Y15425000D01*
X25542000Y15440700D01*
X25538500Y15454800D01*
X25533800Y15465200D01*
X25526800Y15474000D01*
X25517500Y15477500D01*
G01X25571800Y15393500D02*
X25578800Y15381200D01*
X25588200Y15374200D01*
X25598700Y15372500D01*
X25608000Y15374200D01*
X25617300Y15383000D01*
X25623200Y15393500D01*
X25624300Y15404000D01*
X25622000Y15416200D01*
X25613800Y15425000D01*
X25605700Y15428500D01*
X25595200D01*
G01X25605700D02*
X25612700Y15433700D01*
X25618500Y15442500D01*
X25620800Y15453000D01*
X25618500Y15463500D01*
X25612700Y15472200D01*
X25602200Y15477500D01*
X25591700Y15475800D01*
X25581200Y15468700D01*
G01X25677500Y15372500D02*
X25685700Y15374200D01*
X25695000Y15379500D01*
X25700800Y15388200D01*
X25703200Y15400500D01*
X25700800Y15412700D01*
X25693800Y15423200D01*
X25683300Y15428500D01*
X25671700D01*
X25664700Y15432000D01*
X25658800Y15440700D01*
X25656500Y15453000D01*
X25660000Y15465200D01*
X25668200Y15474000D01*
X25677500Y15477500D01*
X25686800Y15474000D01*
X25695000Y15465200D01*
X25698500Y15453000D01*
X25696200Y15440700D01*
X25690300Y15432000D01*
X25683300Y15428500D01*
X25671700D01*
X25661200Y15423200D01*
X25654200Y15412700D01*
X25651800Y15400500D01*
X25654200Y15388200D01*
X25660000Y15379500D01*
X25669300Y15374200D01*
X25677500Y15372500D01*
G01X25986700Y15375000D02*
Y15480000D01*
X26015800D01*
X26025200Y15474700D01*
X26031000Y15467700D01*
X26033300Y15453700D01*
X26031000Y15439700D01*
X26024000Y15431000D01*
X26015800Y15425700D01*
X25986700D01*
G01X26015800D02*
X26033300Y15375000D01*
G01X26072500Y15422200D02*
X26109800D01*
X26106300Y15434500D01*
X26100500Y15441500D01*
X26092300Y15445000D01*
X26084200Y15443200D01*
X26077200Y15438000D01*
X26072500Y15425700D01*
X26070200Y15415200D01*
Y15404800D01*
X26072500Y15394200D01*
X26078300Y15383700D01*
X26085300Y15376700D01*
X26093500Y15375000D01*
X26101700Y15378500D01*
X26109800Y15389000D01*
G01X26149000Y15445000D02*
X26170000Y15375000D01*
X26191000Y15445000D01*
G01X26250000Y15371500D02*
X26247700Y15373300D01*
Y15376700D01*
X26250000Y15378500D01*
X26252300Y15376700D01*
Y15373300D01*
X26250000Y15371500D01*
G01X26419300Y15431000D02*
X26424000Y15436200D01*
X26427500Y15445000D01*
X26429800Y15457300D01*
X26427500Y15467700D01*
X26422800Y15474700D01*
X26414700Y15480000D01*
X26383200D01*
Y15375000D01*
X26421700D01*
X26429800Y15382000D01*
X26434500Y15392500D01*
X26436800Y15404800D01*
X26434500Y15417000D01*
X26427500Y15427500D01*
X26419300Y15431000D01*
X26383200D01*
G01X25239200Y15667500D02*
Y15562500D01*
X25285800D01*
G01X25313300D02*
X25342500Y15667500D01*
X25371700Y15562500D01*
G01X25361200Y15599200D02*
X25323800D01*
G01X25396800Y15667500D02*
Y15592300D01*
X25401500Y15576500D01*
X25410800Y15566000D01*
X25422500Y15562500D01*
X25434200Y15566000D01*
X25443500Y15576500D01*
X25448200Y15592300D01*
Y15667500D01*
G01X25475700Y15562500D02*
Y15667500D01*
X25529300Y15562500D01*
Y15667500D01*
G01X25608200Y15658700D02*
X25601200Y15664000D01*
X25593000Y15667500D01*
X25583700D01*
X25573200Y15662200D01*
X25565000Y15653500D01*
X25559200Y15643000D01*
X25554500Y15625500D01*
X25553300Y15609700D01*
X25555700Y15594000D01*
X25559200Y15583500D01*
X25566200Y15573000D01*
X25574300Y15566000D01*
X25582500Y15562500D01*
X25590700D01*
X25598800Y15566000D01*
X25605800Y15571200D01*
X25611700Y15578200D01*
G01X25638000Y15562500D02*
Y15667500D01*
G01X25687000D02*
Y15562500D01*
G01Y15615000D02*
X25638000D01*
G01X25718000Y15562500D02*
X25767000Y15667500D01*
G01X25718000D02*
X25767000Y15562500D01*
G01X25799200Y15667500D02*
Y15562500D01*
X25845800D01*
G01X25887300Y15597500D02*
X25917700D01*
G01X26008200Y15658700D02*
X26001200Y15664000D01*
X25993000Y15667500D01*
X25983700D01*
X25973200Y15662200D01*
X25965000Y15653500D01*
X25959200Y15643000D01*
X25954500Y15625500D01*
X25953300Y15609700D01*
X25955700Y15594000D01*
X25959200Y15583500D01*
X25966200Y15573000D01*
X25974300Y15566000D01*
X25982500Y15562500D01*
X25990700D01*
X25998800Y15566000D01*
X26005800Y15571200D01*
X26011700Y15578200D01*
G01X26088200Y15658700D02*
X26081200Y15664000D01*
X26073000Y15667500D01*
X26063700D01*
X26053200Y15662200D01*
X26045000Y15653500D01*
X26039200Y15643000D01*
X26034500Y15625500D01*
X26033300Y15609700D01*
X26035700Y15594000D01*
X26039200Y15583500D01*
X26046200Y15573000D01*
X26054300Y15566000D01*
X26062500Y15562500D01*
X26070700D01*
X26078800Y15566000D01*
X26085800Y15571200D01*
X26091700Y15578200D01*
G01X26142500Y15562500D02*
Y15667500D01*
X26128500Y15646500D01*
G01Y15562500D02*
X26156500D01*
G01X26196800Y15583500D02*
X26203800Y15571200D01*
X26213200Y15564200D01*
X26223700Y15562500D01*
X26233000Y15564200D01*
X26242300Y15573000D01*
X26248200Y15583500D01*
X26249300Y15594000D01*
X26247000Y15606200D01*
X26238800Y15615000D01*
X26230700Y15618500D01*
X26220200D01*
G01X26230700D02*
X26237700Y15623700D01*
X26243500Y15632500D01*
X26245800Y15643000D01*
X26243500Y15653500D01*
X26237700Y15662200D01*
X26227200Y15667500D01*
X26216700Y15665800D01*
X26206200Y15658700D01*
G01X26276800Y15578200D02*
X26283800Y15569500D01*
X26292000Y15564200D01*
X26302500Y15562500D01*
X26313000Y15566000D01*
X26321200Y15573000D01*
X26327000Y15585200D01*
X26328200Y15599200D01*
X26325800Y15613200D01*
X26320000Y15622000D01*
X26311800Y15629000D01*
X26303700Y15630700D01*
X26295500Y15629000D01*
X26285000Y15622000D01*
X26288500Y15667500D01*
X26320000D01*
G01X26360300Y15650000D02*
X26367300Y15660500D01*
X26375500Y15665800D01*
X26384800Y15667500D01*
X26396500Y15664000D01*
X26404700Y15655200D01*
X26407000Y15644800D01*
X26405800Y15634200D01*
X26401200Y15625500D01*
X26377800Y15608000D01*
X26367300Y15595700D01*
X26360300Y15578200D01*
X26358000Y15562500D01*
X26407000D01*
G01X26439200D02*
Y15667500D01*
X26468300D01*
X26477700Y15662200D01*
X26483500Y15655200D01*
X26485800Y15641200D01*
X26483500Y15627200D01*
X26476500Y15618500D01*
X26468300Y15613200D01*
X26439200D01*
G01X26468300D02*
X26485800Y15562500D01*
G01X26542500D02*
Y15667500D01*
X26528500Y15646500D01*
G01Y15562500D02*
X26556500D01*
G54D16*
X20320000Y29830000D03*
Y30620000D03*
G54D17*
X20725000Y37070000D03*
G54D18*
X21025000Y36600000D03*
X20425000D03*
G54D19*
X22742500Y22615000D03*
X22842500D03*
X22942500D03*
X23042500D03*
Y22715000D03*
X22942500D03*
X22842500D03*
X22742500D03*
X23042500Y22815000D03*
X22942500D03*
X22842500D03*
X22742500D03*
X23042500Y22915000D03*
X22942500D03*
X22842500D03*
X22742500D03*
X23042500Y23015000D03*
X22942500D03*
X22842500D03*
X22742500D03*
X23142500Y22615000D03*
Y22715000D03*
Y22815000D03*
Y22915000D03*
Y23015000D03*
M02*
