G04 ================== begin FILE IDENTIFICATION RECORD ==================*
G04 Layout Name:  WCS038B.brd*
G04 Film Name:    LAUNCHXL-CC1352R1_assembly_bottom_mirrored*
G04 File Format:  Gerber RS274X*
G04 File Origin:  Cadence Allegro 17.2-S007*
G04 Origin Date:  Thu Mar 12 10:23:56 2020*
G04 *
G04 Layer:  REF DES/ASSEMBLY_BOTTOM*
G04 Layer:  PACKAGE GEOMETRY/ASSEMBLY_BOTTOM*
G04 Layer:  BOARD GEOMETRY/OUTLINE*
G04 *
G04 Offset:    (0.000 0.000)*
G04 Mirror:    Yes*
G04 Mode:      Positive*
G04 Rotation:  0*
G04 FullContactRelief:  No*
G04 UndefLineWidth:     0.099*
G04 ================== end FILE IDENTIFICATION RECORD ====================*
%FSLAX25Y25*MOMM*%
%IR0*IPPOS*OFA0.00000B0.00000*MIA1B0*SFA1.00000B1.00000*%
%ADD10C,.05*%
%ADD11C,.1*%
%ADD12C,.099*%
G75*
%LPD*%
G75*
G54D10*
G01X20400800Y17877000D02*
Y17933000D01*
X20385200Y17886300D01*
X20369600Y17933000D01*
Y17877000D01*
G01X20344200D02*
Y17933000D01*
X20351400Y17921800D01*
G01Y17877000D02*
X20337000D01*
G01X20304400D02*
X20303200Y17889100D01*
X20301400Y17899400D01*
X20299000Y17908700D01*
X20296000Y17919000D01*
X20291200Y17933000D01*
X20315200D01*
G01X20400800Y29297000D02*
Y29353000D01*
X20385200Y29306300D01*
X20369600Y29353000D01*
Y29297000D01*
G01X20344200D02*
Y29353000D01*
X20351400Y29341800D01*
G01Y29297000D02*
X20337000D01*
G01X20316400Y29305400D02*
X20312800Y29300700D01*
X20308600Y29297900D01*
X20303200Y29297000D01*
X20297800Y29298900D01*
X20293600Y29302600D01*
X20290600Y29309100D01*
X20290000Y29316600D01*
X20291200Y29324100D01*
X20294200Y29328700D01*
X20298400Y29332500D01*
X20302600Y29333400D01*
X20306800Y29332500D01*
X20312200Y29328700D01*
X20310400Y29353000D01*
X20294200D01*
G01X25730800Y17877000D02*
Y17933000D01*
X25715200Y17886300D01*
X25699600Y17933000D01*
Y17877000D01*
G01X25674200D02*
Y17933000D01*
X25681400Y17921800D01*
G01Y17877000D02*
X25667000D01*
G01X25633200D02*
X25629000Y17877900D01*
X25624200Y17880700D01*
X25621200Y17885400D01*
X25620000Y17891900D01*
X25621200Y17898500D01*
X25624800Y17904100D01*
X25630200Y17906900D01*
X25636200D01*
X25639800Y17908700D01*
X25642800Y17913400D01*
X25644000Y17919900D01*
X25642200Y17926500D01*
X25638000Y17931100D01*
X25633200Y17933000D01*
X25628400Y17931100D01*
X25624200Y17926500D01*
X25622400Y17919900D01*
X25623600Y17913400D01*
X25626600Y17908700D01*
X25630200Y17906900D01*
X25636200D01*
X25641600Y17904100D01*
X25645200Y17898500D01*
X25646400Y17891900D01*
X25645200Y17885400D01*
X25642200Y17880700D01*
X25637400Y17877900D01*
X25633200Y17877000D01*
G01X25730800Y29297000D02*
Y29353000D01*
X25715200Y29306300D01*
X25699600Y29353000D01*
Y29297000D01*
G01X25674200D02*
Y29353000D01*
X25681400Y29341800D01*
G01Y29297000D02*
X25667000D01*
G01X25644600Y29320300D02*
X25640400Y29326900D01*
X25636800Y29330600D01*
X25632000Y29332500D01*
X25627800Y29330600D01*
X25624800Y29326900D01*
X25622400Y29321300D01*
X25621800Y29314700D01*
X25622400Y29309100D01*
X25624800Y29303500D01*
X25628400Y29298900D01*
X25632600Y29297000D01*
X25637400Y29298900D01*
X25641600Y29304500D01*
X25644000Y29312900D01*
X25644600Y29322200D01*
X25643400Y29334300D01*
X25641600Y29340900D01*
X25638600Y29347400D01*
X25634400Y29352100D01*
X25630200Y29353000D01*
X25626000Y29351100D01*
X25623000Y29346500D01*
G54D11*
G01X20784000Y24698400D02*
X20779200Y24689500D01*
X20773400Y24683600D01*
X20766600Y24680600D01*
X20758900Y24683600D01*
X20753100Y24689500D01*
X20747300Y24698400D01*
X20745400Y24710300D01*
Y24769600D01*
G01X20698700Y24680600D02*
Y24769600D01*
X20710300Y24751800D01*
G01Y24680600D02*
X20687100D01*
G01X25104000Y24698400D02*
X25099200Y24689500D01*
X25093400Y24683600D01*
X25086600Y24680600D01*
X25078900Y24683600D01*
X25073100Y24689500D01*
X25067300Y24698400D01*
X25065400Y24710300D01*
Y24769600D01*
G01X25037100Y24754800D02*
X25031300Y24763700D01*
X25024500Y24768100D01*
X25016800Y24769600D01*
X25007100Y24766600D01*
X25000300Y24759200D01*
X24998400Y24750300D01*
X24999400Y24741400D01*
X25003200Y24734000D01*
X25022600Y24719200D01*
X25031300Y24708800D01*
X25037100Y24693900D01*
X25039000Y24680600D01*
X24998400D01*
G54D12*
G01X20590000Y17850000D02*
G03I-340000J0D01*
G01Y29270000D02*
G03I-340000J0D01*
G01X20177500Y17600000D02*
X25685000D01*
G03X25855000Y17795000I-14022J183827D01*
G01Y24500000D01*
G03X25745000Y24815000I-506023J0D01*
G02X25635000Y25130000I396023J315000D01*
G02X25745000Y25445000I506023J0D01*
G03X25855000Y25760000I-396023J315000D01*
G01Y29433800D01*
X25868700Y37200000D01*
X20020700D01*
X20003400Y30700000D01*
X20125000D01*
Y30500000D01*
X20375000D01*
Y30425000D01*
X20125000D01*
Y30025000D01*
X20375000D01*
Y29950000D01*
X20125000D01*
Y29775000D01*
X20112500Y29762500D01*
X20000900D01*
X20000000Y29425000D01*
X20005000Y25760000D01*
G03X20115000Y25445000I506023J0D01*
G02X20225000Y25130000I-396023J-315000D01*
G02X20115000Y24815000I-506023J0D01*
G03X20005000Y24500000I396023J-315000D01*
G01Y17795000D01*
G03X20177500Y17600000I205417J7917D01*
G01X21012900Y24598400D02*
Y22007600D01*
G01D02*
X20517700D01*
G01D02*
Y24598400D01*
G01X20598900Y22374600D02*
Y22453400D01*
G01D02*
X20677700D01*
G01Y22374600D02*
X20598900D01*
G01X20677700Y22453400D02*
Y22374600D01*
G01X20852900D02*
Y22453400D01*
G01D02*
X20931700D01*
G01Y22374600D02*
X20852900D01*
G01X20931700Y22453400D02*
Y22374600D01*
G01X20598900Y22628600D02*
Y22707400D01*
G01D02*
X20677700D01*
G01Y22628600D02*
X20598900D01*
G01X20677700Y22707400D02*
Y22628600D01*
G01X20852900D02*
Y22707400D01*
G01D02*
X20931700D01*
G01Y22628600D02*
X20852900D01*
G01X20931700Y22707400D02*
Y22628600D01*
G01X20598900Y22882600D02*
Y22961400D01*
G01D02*
X20677700D01*
G01Y22882600D02*
X20598900D01*
G01X20677700Y22961400D02*
Y22882600D01*
G01X20852900D02*
Y22961400D01*
G01D02*
X20931700D01*
G01Y22882600D02*
X20852900D01*
G01X20931700Y22961400D02*
Y22882600D01*
G01X20598900Y22120600D02*
Y22199400D01*
G01D02*
X20677700D01*
G01Y22120600D02*
X20598900D01*
G01X20677700Y22199400D02*
Y22120600D01*
G01X20931700Y22199400D02*
Y22120600D01*
G01D02*
X20852900D01*
G01Y22199400D02*
X20931700D01*
G01X20852900Y22120600D02*
Y22199400D01*
G01X20517700Y24598400D02*
X21012900D01*
G01X20598900Y23136600D02*
Y23215400D01*
G01D02*
X20677700D01*
G01Y23136600D02*
X20598900D01*
G01X20677700Y23215400D02*
Y23136600D01*
G01X20852900D02*
Y23215400D01*
G01D02*
X20931700D01*
G01Y23136600D02*
X20852900D01*
G01X20931700Y23215400D02*
Y23136600D01*
G01X20598900Y23390600D02*
Y23469400D01*
G01D02*
X20677700D01*
G01Y23390600D02*
X20598900D01*
G01X20677700Y23469400D02*
Y23390600D01*
G01X20852900D02*
Y23469400D01*
G01D02*
X20931700D01*
G01Y23390600D02*
X20852900D01*
G01X20931700Y23469400D02*
Y23390600D01*
G01X20598900Y23644600D02*
Y23723400D01*
G01D02*
X20677700D01*
G01Y23644600D02*
X20598900D01*
G01X20677700Y23723400D02*
Y23644600D01*
G01X20852900D02*
Y23723400D01*
G01D02*
X20931700D01*
G01Y23644600D02*
X20852900D01*
G01X20931700Y23723400D02*
Y23644600D01*
G01X20598900Y23898600D02*
Y23977400D01*
G01D02*
X20677700D01*
G01Y23898600D02*
X20598900D01*
G01X20677700Y23977400D02*
Y23898600D01*
G01X20852900D02*
Y23977400D01*
G01D02*
X20931700D01*
G01Y23898600D02*
X20852900D01*
G01X20931700Y23977400D02*
Y23898600D01*
G01X20598900Y24152600D02*
Y24231400D01*
G01D02*
X20677700D01*
G01Y24152600D02*
X20598900D01*
G01X20677700Y24231400D02*
Y24152600D01*
G01X20852900D02*
Y24231400D01*
G01D02*
X20931700D01*
G01Y24152600D02*
X20852900D01*
G01X20931700Y24231400D02*
Y24152600D01*
G01X20598900Y24406600D02*
Y24485400D01*
G01D02*
X20677700D01*
G01Y24406600D02*
X20598900D01*
G01X20677700Y24485400D02*
Y24406600D01*
G01X20931700D02*
X20852900D01*
G01D02*
Y24485400D01*
G01X20931700D02*
Y24406600D01*
G01X20852900Y24485400D02*
X20931700D01*
G01X25920000Y17850000D02*
G03I-340000J0D01*
G01X25332900Y24598400D02*
Y22007600D01*
G01D02*
X24837700D01*
G01D02*
Y24598400D01*
G01X24918900Y22374600D02*
Y22453400D01*
G01D02*
X24997700D01*
G01Y22374600D02*
X24918900D01*
G01X24997700Y22453400D02*
Y22374600D01*
G01X25172900D02*
Y22453400D01*
G01D02*
X25251700D01*
G01Y22374600D02*
X25172900D01*
G01X25251700Y22453400D02*
Y22374600D01*
G01X24918900Y22628600D02*
Y22707400D01*
G01D02*
X24997700D01*
G01Y22628600D02*
X24918900D01*
G01X24997700Y22707400D02*
Y22628600D01*
G01X25172900D02*
Y22707400D01*
G01D02*
X25251700D01*
G01Y22628600D02*
X25172900D01*
G01X25251700Y22707400D02*
Y22628600D01*
G01X24918900Y22882600D02*
Y22961400D01*
G01D02*
X24997700D01*
G01Y22882600D02*
X24918900D01*
G01X24997700Y22961400D02*
Y22882600D01*
G01X25172900D02*
Y22961400D01*
G01D02*
X25251700D01*
G01Y22882600D02*
X25172900D01*
G01X25251700Y22961400D02*
Y22882600D01*
G01X24918900Y22120600D02*
Y22199400D01*
G01D02*
X24997700D01*
G01Y22120600D02*
X24918900D01*
G01X24997700Y22199400D02*
Y22120600D01*
G01X25251700Y22199400D02*
Y22120600D01*
G01D02*
X25172900D01*
G01Y22199400D02*
X25251700D01*
G01X25172900Y22120600D02*
Y22199400D01*
G01X24837700Y24598400D02*
X25332900D01*
G01X24918900Y23136600D02*
Y23215400D01*
G01D02*
X24997700D01*
G01Y23136600D02*
X24918900D01*
G01X24997700Y23215400D02*
Y23136600D01*
G01X25172900D02*
Y23215400D01*
G01D02*
X25251700D01*
G01Y23136600D02*
X25172900D01*
G01X25251700Y23215400D02*
Y23136600D01*
G01X24918900Y23390600D02*
Y23469400D01*
G01D02*
X24997700D01*
G01Y23390600D02*
X24918900D01*
G01X24997700Y23469400D02*
Y23390600D01*
G01X25172900D02*
Y23469400D01*
G01D02*
X25251700D01*
G01Y23390600D02*
X25172900D01*
G01X25251700Y23469400D02*
Y23390600D01*
G01X24918900Y23644600D02*
Y23723400D01*
G01D02*
X24997700D01*
G01Y23644600D02*
X24918900D01*
G01X24997700Y23723400D02*
Y23644600D01*
G01X25172900D02*
Y23723400D01*
G01D02*
X25251700D01*
G01Y23644600D02*
X25172900D01*
G01X25251700Y23723400D02*
Y23644600D01*
G01X24918900Y23898600D02*
Y23977400D01*
G01D02*
X24997700D01*
G01Y23898600D02*
X24918900D01*
G01X24997700Y23977400D02*
Y23898600D01*
G01X25172900D02*
Y23977400D01*
G01D02*
X25251700D01*
G01Y23898600D02*
X25172900D01*
G01X25251700Y23977400D02*
Y23898600D01*
G01X24918900Y24152600D02*
Y24231400D01*
G01D02*
X24997700D01*
G01Y24152600D02*
X24918900D01*
G01X24997700Y24231400D02*
Y24152600D01*
G01X25172900D02*
Y24231400D01*
G01D02*
X25251700D01*
G01Y24152600D02*
X25172900D01*
G01X25251700Y24231400D02*
Y24152600D01*
G01X24918900Y24406600D02*
Y24485400D01*
G01D02*
X24997700D01*
G01Y24406600D02*
X24918900D01*
G01X24997700Y24485400D02*
Y24406600D01*
G01X25251700D02*
X25172900D01*
G01D02*
Y24485400D01*
G01X25251700D02*
Y24406600D01*
G01X25172900Y24485400D02*
X25251700D01*
G01X25920000Y29270000D02*
G03I-340000J0D01*
M02*
