G04 ================== begin FILE IDENTIFICATION RECORD ==================*
G04 Layout Name:  WCS038B.brd*
G04 Film Name:    LAUNCHXL-CC1352R1_soldmask_bottom*
G04 File Format:  Gerber RS274X*
G04 File Origin:  Cadence Allegro 17.2-S007*
G04 Origin Date:  Thu Mar 12 10:23:52 2020*
G04 *
G04 Layer:  DRAWING FORMAT/TITLE_BLOCK*
G04 Layer:  BOARD GEOMETRY/BOTTOM SOLDER MASK*
G04 Layer:  PACKAGE GEOMETRY/SOLDERMASK_BOTTOM*
G04 Layer:  VIA CLASS/SOLDERMASK_BOTTOM*
G04 Layer:  PIN/SOLDERMASK_BOTTOM*
G04 Layer:  BOARD GEOMETRY/OUTLINE*
G04 *
G04 Offset:    (0.000 0.000)*
G04 Mirror:    No*
G04 Mode:      Positive*
G04 Rotation:  0*
G04 FullContactRelief:  No*
G04 UndefLineWidth:     0.099*
G04 ================== end FILE IDENTIFICATION RECORD ====================*
%FSLAX25Y25*MOMM*%
%IR0*IPPOS*OFA0.00000B0.00000*MIA0B0*SFA1.00000B1.00000*%
%ADD14C,1.1*%
%ADD15C,1.2*%
%ADD10C,1.42*%
%ADD21C,3.401*%
%ADD12C,1.8*%
%ADD18C,1.65*%
%ADD23C,3.316*%
%ADD24C,1.428*%
%ADD11C,3.95*%
%ADD25R,1.428X1.428*%
%ADD13C,1.849*%
%ADD20O,1.508X3.016*%
%ADD19O,3.016X1.508*%
%ADD17O,2.416X1.208*%
%ADD16C,.95*%
%ADD22C,.599*%
%ADD26C,.1*%
%ADD27C,.099*%
%ADD28C,.18*%
G75*
%LPD*%
G75*
G36*
G01X20129700Y25510000D02*
G02X20055100Y25759900I381346J249924D01*
G01Y26010000D01*
X20950000D01*
Y25510000D01*
X20129700D01*
G37*
G54D10*
X20215000Y18300000D03*
X20485000Y29450000D03*
X25645000Y18300000D03*
G54D20*
X21025000Y36600000D03*
X20425000D03*
G54D11*
X20250000Y17850000D03*
Y29270000D03*
X25580000Y17850000D03*
Y29270000D03*
G54D12*
X20640000Y21396000D03*
Y21142000D03*
X20892300Y22160000D03*
Y22414000D03*
Y22668000D03*
Y22922000D03*
X20638300Y22160000D03*
Y22414000D03*
Y22668000D03*
Y22922000D03*
X21563800Y22231300D03*
Y21977300D03*
X20640000Y21650000D03*
X20892300Y23176000D03*
Y23430000D03*
Y23684000D03*
Y23938000D03*
Y24192000D03*
Y24446000D03*
X20638300Y23176000D03*
Y23430000D03*
Y23684000D03*
Y23938000D03*
Y24192000D03*
Y24446000D03*
X21146300Y25462000D03*
X21400300D03*
X21146300Y25716000D03*
X21400300D03*
X21817800Y22231300D03*
Y21977300D03*
X21654300Y25462000D03*
X21908300D03*
X22162300D03*
X22416300D03*
X22670300D03*
X22924300D03*
X21654300Y25716000D03*
X21908300D03*
X22162300D03*
X22416300D03*
X22670300D03*
X22924300D03*
X23178300Y25462000D03*
X23432300D03*
X23686300D03*
X23178300Y25716000D03*
X23432300D03*
X23686300D03*
X25210000Y21396000D03*
Y21142000D03*
X25212300Y22160000D03*
Y22414000D03*
Y22668000D03*
Y22922000D03*
X24958300Y22160000D03*
Y22414000D03*
Y22668000D03*
Y22922000D03*
X25210000Y21650000D03*
X25212300Y23176000D03*
Y23430000D03*
Y23684000D03*
Y23938000D03*
Y24192000D03*
Y24446000D03*
X24958300Y23176000D03*
Y23430000D03*
Y23684000D03*
Y23938000D03*
Y24192000D03*
Y24446000D03*
X24990000Y25462000D03*
Y25716000D03*
Y25970000D03*
G54D21*
X22172500Y19832500D03*
X23672500D03*
G54D22*
X22742500Y22615000D03*
X22842500D03*
X22942500D03*
X23042500D03*
Y22715000D03*
X22942500D03*
X22842500D03*
X22742500D03*
X23042500Y22815000D03*
X22942500D03*
X22842500D03*
X22742500D03*
X23042500Y22915000D03*
X22942500D03*
X22842500D03*
X22742500D03*
X23042500Y23015000D03*
X22942500D03*
X22842500D03*
X22742500D03*
X23142500Y22615000D03*
Y22715000D03*
Y22815000D03*
Y22915000D03*
Y23015000D03*
G54D13*
X20300000Y25760000D03*
G54D23*
X23918000Y36729000D03*
X25232000D03*
G54D14*
X20307500Y25014600D03*
Y25244600D03*
X21927100Y29280000D03*
X22157100D03*
X25550000Y25242900D03*
Y25012900D03*
G54D24*
X24675000Y37000000D03*
X24475000D03*
X24925000D03*
G54D15*
X20375000Y28855000D03*
X20172000D03*
X20273500Y28093000D03*
G54D16*
X20337000Y28728000D03*
Y28601000D03*
Y28474000D03*
Y28347000D03*
Y28220000D03*
X20210000Y28728000D03*
Y28601000D03*
Y28474000D03*
Y28347000D03*
Y28220000D03*
G54D25*
X24225000Y37000000D03*
G54D26*
G01X20090000Y16222500D02*
Y14722500D01*
X27590000D01*
Y16222500D01*
X20090000D01*
G01X23840000D02*
Y14722500D01*
G01Y15222500D02*
X27590000D01*
G01Y15722500D02*
X23840000D01*
G01X25107600D02*
Y15222500D01*
G54D17*
X20320000Y29830000D03*
Y30620000D03*
G54D27*
G01X20177500Y17600000D02*
X25685000D01*
G03X25855000Y17795000I-14022J183827D01*
G01Y24500000D01*
G03X25745000Y24815000I-506023J0D01*
G02X25635000Y25130000I396023J315000D01*
G02X25745000Y25445000I506023J0D01*
G03X25855000Y25760000I-396023J315000D01*
G01Y29433800D01*
X25868700Y37200000D01*
X20020700D01*
X20003400Y30700000D01*
X20125000D01*
Y30500000D01*
X20375000D01*
Y30425000D01*
X20125000D01*
Y30025000D01*
X20375000D01*
Y29950000D01*
X20125000D01*
Y29775000D01*
X20112500Y29762500D01*
X20000900D01*
X20000000Y29425000D01*
X20005000Y25760000D01*
G03X20115000Y25445000I506023J0D01*
G02X20225000Y25130000I-396023J-315000D01*
G02X20115000Y24815000I-506023J0D01*
G03X20005000Y24500000I396023J-315000D01*
G01Y17795000D01*
G03X20177500Y17600000I205417J7917D01*
G01X24153200Y14886200D02*
Y15076700D01*
X24200600D01*
X24219500Y15067200D01*
X24233700Y15054500D01*
X24245600Y15035400D01*
X24255100Y15013200D01*
X24257400Y14981400D01*
X24255100Y14949700D01*
X24245600Y14927500D01*
X24233700Y14908400D01*
X24219500Y14895700D01*
X24200600Y14886200D01*
X24153200D01*
G01X24336500D02*
X24395800Y15076700D01*
X24455100Y14886200D01*
G01X24433700Y14952900D02*
X24357900D01*
G01X24586300Y15076700D02*
Y14886200D01*
G01X24531800Y15076700D02*
X24640800D01*
G01X24824200Y14886200D02*
X24729400D01*
Y15076700D01*
X24824200D01*
G01X24786300Y14984600D02*
X24729400D01*
G01X24967300Y14879900D02*
X24962600Y14883000D01*
Y14889400D01*
X24967300Y14892500D01*
X24972000Y14889400D01*
Y14883000D01*
X24967300Y14879900D01*
G01Y14965600D02*
X24962600Y14968700D01*
Y14975100D01*
X24967300Y14978300D01*
X24972000Y14975100D01*
Y14968700D01*
X24967300Y14965600D01*
G01X25303300Y15045000D02*
X25317500Y15064000D01*
X25334100Y15073500D01*
X25353000Y15076700D01*
X25376700Y15070400D01*
X25393300Y15054500D01*
X25398100Y15035400D01*
X25395700Y15016400D01*
X25386200Y15000500D01*
X25338800Y14968700D01*
X25317500Y14946500D01*
X25303300Y14914800D01*
X25298500Y14886200D01*
X25398100D01*
G01X25538800Y15076700D02*
X25519800Y15070400D01*
X25505600Y15054500D01*
X25496100Y15035400D01*
X25489000Y15010000D01*
X25486700Y14981400D01*
X25489000Y14952900D01*
X25496100Y14927500D01*
X25505600Y14908400D01*
X25519800Y14892500D01*
X25538800Y14886200D01*
X25557800Y14892500D01*
X25572000Y14908400D01*
X25581500Y14927500D01*
X25588600Y14952900D01*
X25590900Y14981400D01*
X25588600Y15010000D01*
X25581500Y15035400D01*
X25572000Y15054500D01*
X25557800Y15070400D01*
X25538800Y15076700D01*
G01X25729300Y14886200D02*
Y15076700D01*
X25700900Y15038600D01*
G01Y14886200D02*
X25757700D01*
G01X25919800D02*
X25936400Y14889400D01*
X25955300Y14898900D01*
X25967200Y14914800D01*
X25971900Y14937000D01*
X25967200Y14959200D01*
X25953000Y14978300D01*
X25931600Y14987800D01*
X25908000D01*
X25893700Y14994200D01*
X25881900Y15010000D01*
X25877100Y15032200D01*
X25884300Y15054500D01*
X25900800Y15070400D01*
X25919800Y15076700D01*
X25938800Y15070400D01*
X25955300Y15054500D01*
X25962500Y15032200D01*
X25957700Y15010000D01*
X25945900Y14994200D01*
X25931600Y14987800D01*
X25908000D01*
X25886600Y14978300D01*
X25872400Y14959200D01*
X25867700Y14937000D01*
X25872400Y14914800D01*
X25884300Y14898900D01*
X25903200Y14889400D01*
X25919800Y14886200D01*
G01X26079500Y14949700D02*
X26141100D01*
G01X26300800Y14886200D02*
Y15076700D01*
X26272400Y15038600D01*
G01Y14886200D02*
X26329200D01*
G01X26491300Y15076700D02*
X26472300Y15070400D01*
X26458100Y15054500D01*
X26448600Y15035400D01*
X26441500Y15010000D01*
X26439200Y14981400D01*
X26441500Y14952900D01*
X26448600Y14927500D01*
X26458100Y14908400D01*
X26472300Y14892500D01*
X26491300Y14886200D01*
X26510300Y14892500D01*
X26524500Y14908400D01*
X26534000Y14927500D01*
X26541100Y14952900D01*
X26543400Y14981400D01*
X26541100Y15010000D01*
X26534000Y15035400D01*
X26524500Y15054500D01*
X26510300Y15070400D01*
X26491300Y15076700D01*
G01X26651000Y14949700D02*
X26712600D01*
G01X26827300Y15045000D02*
X26841500Y15064000D01*
X26858100Y15073500D01*
X26877000Y15076700D01*
X26900700Y15070400D01*
X26917300Y15054500D01*
X26922100Y15035400D01*
X26919700Y15016400D01*
X26910200Y15000500D01*
X26862800Y14968700D01*
X26841500Y14946500D01*
X26827300Y14914800D01*
X26822500Y14886200D01*
X26922100D01*
G01X27010700Y14914800D02*
X27024900Y14898900D01*
X27041500Y14889400D01*
X27062800Y14886200D01*
X27084100Y14892500D01*
X27100700Y14905200D01*
X27112600Y14927500D01*
X27114900Y14952900D01*
X27110200Y14978300D01*
X27098300Y14994200D01*
X27081800Y15006800D01*
X27065200Y15010000D01*
X27048600Y15006800D01*
X27027300Y14994200D01*
X27034400Y15076700D01*
X27098300D01*
G01X23966300Y15422900D02*
X23985300Y15407000D01*
X24006600Y15397500D01*
X24025600D01*
X24044500Y15407000D01*
X24058800Y15422900D01*
X24065900Y15445100D01*
X24061100Y15467300D01*
X24049300Y15486400D01*
X24027900Y15499100D01*
X23999500Y15505500D01*
X23982900Y15518100D01*
X23975800Y15540400D01*
X23980600Y15562600D01*
X23992400Y15578500D01*
X24009000Y15588000D01*
X24025600D01*
X24042200Y15581700D01*
X24056400Y15565800D01*
G01X24145000Y15397500D02*
Y15588000D01*
X24206600Y15429200D01*
X24268200Y15588000D01*
Y15397500D01*
G01X24606600Y15499100D02*
X24616000Y15508600D01*
X24623100Y15524500D01*
X24627900Y15546700D01*
X24623100Y15565800D01*
X24613700Y15578500D01*
X24597100Y15588000D01*
X24533100D01*
Y15397500D01*
X24611300D01*
X24627900Y15410200D01*
X24637400Y15429200D01*
X24642100Y15451500D01*
X24637400Y15473700D01*
X24623100Y15492700D01*
X24606600Y15499100D01*
X24533100D01*
G01X24778100Y15397500D02*
X24759100Y15400700D01*
X24742600Y15413400D01*
X24728300Y15432400D01*
X24718800Y15454600D01*
X24714100Y15480000D01*
Y15505500D01*
X24718800Y15530900D01*
X24728300Y15553100D01*
X24742600Y15572100D01*
X24759100Y15584800D01*
X24778100Y15588000D01*
X24797100Y15584800D01*
X24813600Y15572100D01*
X24827900Y15553100D01*
X24837400Y15530900D01*
X24842100Y15505500D01*
Y15480000D01*
X24837400Y15454600D01*
X24827900Y15432400D01*
X24813600Y15413400D01*
X24797100Y15400700D01*
X24778100Y15397500D01*
G01X24968600Y15588000D02*
Y15397500D01*
G01X24914100Y15588000D02*
X25023100D01*
G01X24200300Y16071700D02*
Y15881200D01*
G01X24145800Y16071700D02*
X24254800D01*
G01X24438200Y15881200D02*
X24343400D01*
Y16071700D01*
X24438200D01*
G01X24400300Y15979600D02*
X24343400D01*
G01X24531500Y15881200D02*
X24631100Y16071700D01*
G01X24531500D02*
X24631100Y15881200D01*
G01X24712500D02*
X24771800Y16071700D01*
X24831100Y15881200D01*
G01X24809700Y15947900D02*
X24733900D01*
G01X24912500Y15906600D02*
X24931500Y15890700D01*
X24952800Y15881200D01*
X24971800D01*
X24990700Y15890700D01*
X25005000Y15906600D01*
X25012100Y15928800D01*
X25007300Y15951000D01*
X24995500Y15970100D01*
X24974100Y15982800D01*
X24945700Y15989200D01*
X24929100Y16001800D01*
X24922000Y16024100D01*
X24926800Y16046300D01*
X24938600Y16062200D01*
X24955200Y16071700D01*
X24971800D01*
X24988400Y16065400D01*
X25002600Y16049500D01*
G01X25314900Y16071700D02*
X25371700D01*
G01X25343300D02*
Y15881200D01*
G01X25314900D02*
X25371700D01*
G01X25479300D02*
Y16071700D01*
X25588300Y15881200D01*
Y16071700D01*
G01X25674500Y15906600D02*
X25693500Y15890700D01*
X25714800Y15881200D01*
X25733800D01*
X25752700Y15890700D01*
X25767000Y15906600D01*
X25774100Y15928800D01*
X25769300Y15951000D01*
X25757500Y15970100D01*
X25736100Y15982800D01*
X25707700Y15989200D01*
X25691100Y16001800D01*
X25684000Y16024100D01*
X25688800Y16046300D01*
X25700600Y16062200D01*
X25717200Y16071700D01*
X25733800D01*
X25750400Y16065400D01*
X25764600Y16049500D01*
G01X25914800Y16071700D02*
Y15881200D01*
G01X25860300Y16071700D02*
X25969300D01*
G01X26057900Y15881200D02*
Y16071700D01*
X26117100D01*
X26136100Y16062200D01*
X26148000Y16049500D01*
X26152700Y16024100D01*
X26148000Y15998700D01*
X26133700Y15982800D01*
X26117100Y15973300D01*
X26057900D01*
G01X26117100D02*
X26152700Y15881200D01*
G01X26243700Y16071700D02*
Y15935200D01*
X26253100Y15906600D01*
X26272100Y15887500D01*
X26295800Y15881200D01*
X26319500Y15887500D01*
X26338500Y15906600D01*
X26347900Y15935200D01*
Y16071700D01*
G01X26424700Y15881200D02*
Y16071700D01*
X26486300Y15912900D01*
X26547900Y16071700D01*
Y15881200D01*
G01X26724200D02*
X26629400D01*
Y16071700D01*
X26724200D01*
G01X26686300Y15979600D02*
X26629400D01*
G01X26812800Y15881200D02*
Y16071700D01*
X26921800Y15881200D01*
Y16071700D01*
G01X27057800D02*
Y15881200D01*
G01X27003300Y16071700D02*
X27112300D01*
G01X27198500Y15906600D02*
X27217500Y15890700D01*
X27238800Y15881200D01*
X27257800D01*
X27276700Y15890700D01*
X27291000Y15906600D01*
X27298100Y15928800D01*
X27293300Y15951000D01*
X27281500Y15970100D01*
X27260100Y15982800D01*
X27231700Y15989200D01*
X27215100Y16001800D01*
X27208000Y16024100D01*
X27212800Y16046300D01*
X27224600Y16062200D01*
X27241200Y16071700D01*
X27257800D01*
X27274400Y16065400D01*
X27288600Y16049500D01*
G54D18*
X21578000Y31198000D03*
X21324000D03*
X21070000D03*
X20816000D03*
Y31452000D03*
X21070000D03*
X21324000D03*
X21578000D03*
Y33738000D03*
X21324000D03*
X21070000D03*
X20816000D03*
Y33992000D03*
X21070000D03*
X21324000D03*
X21578000D03*
X23102000Y31452000D03*
Y31198000D03*
X22848000D03*
X22594000D03*
X22340000D03*
X22086000D03*
X21832000D03*
Y31452000D03*
X22086000D03*
X22340000D03*
X22594000D03*
X22848000D03*
X23102000Y33992000D03*
Y33738000D03*
X22848000D03*
X22594000D03*
X22340000D03*
X22086000D03*
X21832000D03*
Y33992000D03*
X22086000D03*
X22340000D03*
X22594000D03*
X22848000D03*
X23356000Y31452000D03*
X23610000D03*
X23864000D03*
X24118000D03*
X24372000D03*
X24626000Y31198000D03*
X24372000D03*
X24118000D03*
X23864000D03*
X23610000D03*
X24626000Y31452000D03*
X23356000Y31198000D03*
Y33992000D03*
X23610000D03*
X23864000D03*
X24118000D03*
X24372000D03*
X24626000Y33738000D03*
X24372000D03*
X24118000D03*
X23864000D03*
X23610000D03*
X24626000Y33992000D03*
X23356000Y33738000D03*
X25134000Y31198000D03*
X24880000D03*
Y31452000D03*
X25134000D03*
Y33738000D03*
X24880000D03*
Y33992000D03*
X25134000D03*
G54D28*
G01X25242500Y15477500D02*
X25258800Y15372500D01*
X25277500Y15477500D01*
X25296200Y15372500D01*
X25312500Y15477500D01*
G01X25383200Y15468700D02*
X25376200Y15474000D01*
X25368000Y15477500D01*
X25358700D01*
X25348200Y15472200D01*
X25340000Y15463500D01*
X25334200Y15453000D01*
X25329500Y15435500D01*
X25328300Y15419700D01*
X25330700Y15404000D01*
X25334200Y15393500D01*
X25341200Y15383000D01*
X25349300Y15376000D01*
X25357500Y15372500D01*
X25365700D01*
X25373800Y15376000D01*
X25380800Y15381200D01*
X25386700Y15388200D01*
G01X25413000Y15386500D02*
X25422300Y15377700D01*
X25432800Y15372500D01*
X25442200D01*
X25451500Y15377700D01*
X25458500Y15386500D01*
X25462000Y15398800D01*
X25459700Y15411000D01*
X25453800Y15421500D01*
X25443300Y15428500D01*
X25429300Y15432000D01*
X25421200Y15439000D01*
X25417700Y15451200D01*
X25420000Y15463500D01*
X25425800Y15472200D01*
X25434000Y15477500D01*
X25442200D01*
X25450300Y15474000D01*
X25457300Y15465200D01*
G01X25517500Y15477500D02*
X25508200Y15474000D01*
X25501200Y15465200D01*
X25496500Y15454800D01*
X25493000Y15440700D01*
X25491800Y15425000D01*
X25493000Y15409200D01*
X25496500Y15395200D01*
X25501200Y15384700D01*
X25508200Y15376000D01*
X25517500Y15372500D01*
X25526800Y15376000D01*
X25533800Y15384700D01*
X25538500Y15395200D01*
X25542000Y15409200D01*
X25543200Y15425000D01*
X25542000Y15440700D01*
X25538500Y15454800D01*
X25533800Y15465200D01*
X25526800Y15474000D01*
X25517500Y15477500D01*
G01X25571800Y15393500D02*
X25578800Y15381200D01*
X25588200Y15374200D01*
X25598700Y15372500D01*
X25608000Y15374200D01*
X25617300Y15383000D01*
X25623200Y15393500D01*
X25624300Y15404000D01*
X25622000Y15416200D01*
X25613800Y15425000D01*
X25605700Y15428500D01*
X25595200D01*
G01X25605700D02*
X25612700Y15433700D01*
X25618500Y15442500D01*
X25620800Y15453000D01*
X25618500Y15463500D01*
X25612700Y15472200D01*
X25602200Y15477500D01*
X25591700Y15475800D01*
X25581200Y15468700D01*
G01X25677500Y15372500D02*
X25685700Y15374200D01*
X25695000Y15379500D01*
X25700800Y15388200D01*
X25703200Y15400500D01*
X25700800Y15412700D01*
X25693800Y15423200D01*
X25683300Y15428500D01*
X25671700D01*
X25664700Y15432000D01*
X25658800Y15440700D01*
X25656500Y15453000D01*
X25660000Y15465200D01*
X25668200Y15474000D01*
X25677500Y15477500D01*
X25686800Y15474000D01*
X25695000Y15465200D01*
X25698500Y15453000D01*
X25696200Y15440700D01*
X25690300Y15432000D01*
X25683300Y15428500D01*
X25671700D01*
X25661200Y15423200D01*
X25654200Y15412700D01*
X25651800Y15400500D01*
X25654200Y15388200D01*
X25660000Y15379500D01*
X25669300Y15374200D01*
X25677500Y15372500D01*
G01X25986700Y15375000D02*
Y15480000D01*
X26015800D01*
X26025200Y15474700D01*
X26031000Y15467700D01*
X26033300Y15453700D01*
X26031000Y15439700D01*
X26024000Y15431000D01*
X26015800Y15425700D01*
X25986700D01*
G01X26015800D02*
X26033300Y15375000D01*
G01X26072500Y15422200D02*
X26109800D01*
X26106300Y15434500D01*
X26100500Y15441500D01*
X26092300Y15445000D01*
X26084200Y15443200D01*
X26077200Y15438000D01*
X26072500Y15425700D01*
X26070200Y15415200D01*
Y15404800D01*
X26072500Y15394200D01*
X26078300Y15383700D01*
X26085300Y15376700D01*
X26093500Y15375000D01*
X26101700Y15378500D01*
X26109800Y15389000D01*
G01X26149000Y15445000D02*
X26170000Y15375000D01*
X26191000Y15445000D01*
G01X26250000Y15371500D02*
X26247700Y15373300D01*
Y15376700D01*
X26250000Y15378500D01*
X26252300Y15376700D01*
Y15373300D01*
X26250000Y15371500D01*
G01X26419300Y15431000D02*
X26424000Y15436200D01*
X26427500Y15445000D01*
X26429800Y15457300D01*
X26427500Y15467700D01*
X26422800Y15474700D01*
X26414700Y15480000D01*
X26383200D01*
Y15375000D01*
X26421700D01*
X26429800Y15382000D01*
X26434500Y15392500D01*
X26436800Y15404800D01*
X26434500Y15417000D01*
X26427500Y15427500D01*
X26419300Y15431000D01*
X26383200D01*
G01X25239200Y15667500D02*
Y15562500D01*
X25285800D01*
G01X25313300D02*
X25342500Y15667500D01*
X25371700Y15562500D01*
G01X25361200Y15599200D02*
X25323800D01*
G01X25396800Y15667500D02*
Y15592300D01*
X25401500Y15576500D01*
X25410800Y15566000D01*
X25422500Y15562500D01*
X25434200Y15566000D01*
X25443500Y15576500D01*
X25448200Y15592300D01*
Y15667500D01*
G01X25475700Y15562500D02*
Y15667500D01*
X25529300Y15562500D01*
Y15667500D01*
G01X25608200Y15658700D02*
X25601200Y15664000D01*
X25593000Y15667500D01*
X25583700D01*
X25573200Y15662200D01*
X25565000Y15653500D01*
X25559200Y15643000D01*
X25554500Y15625500D01*
X25553300Y15609700D01*
X25555700Y15594000D01*
X25559200Y15583500D01*
X25566200Y15573000D01*
X25574300Y15566000D01*
X25582500Y15562500D01*
X25590700D01*
X25598800Y15566000D01*
X25605800Y15571200D01*
X25611700Y15578200D01*
G01X25638000Y15562500D02*
Y15667500D01*
G01X25687000D02*
Y15562500D01*
G01Y15615000D02*
X25638000D01*
G01X25718000Y15562500D02*
X25767000Y15667500D01*
G01X25718000D02*
X25767000Y15562500D01*
G01X25799200Y15667500D02*
Y15562500D01*
X25845800D01*
G01X25887300Y15597500D02*
X25917700D01*
G01X26008200Y15658700D02*
X26001200Y15664000D01*
X25993000Y15667500D01*
X25983700D01*
X25973200Y15662200D01*
X25965000Y15653500D01*
X25959200Y15643000D01*
X25954500Y15625500D01*
X25953300Y15609700D01*
X25955700Y15594000D01*
X25959200Y15583500D01*
X25966200Y15573000D01*
X25974300Y15566000D01*
X25982500Y15562500D01*
X25990700D01*
X25998800Y15566000D01*
X26005800Y15571200D01*
X26011700Y15578200D01*
G01X26088200Y15658700D02*
X26081200Y15664000D01*
X26073000Y15667500D01*
X26063700D01*
X26053200Y15662200D01*
X26045000Y15653500D01*
X26039200Y15643000D01*
X26034500Y15625500D01*
X26033300Y15609700D01*
X26035700Y15594000D01*
X26039200Y15583500D01*
X26046200Y15573000D01*
X26054300Y15566000D01*
X26062500Y15562500D01*
X26070700D01*
X26078800Y15566000D01*
X26085800Y15571200D01*
X26091700Y15578200D01*
G01X26142500Y15562500D02*
Y15667500D01*
X26128500Y15646500D01*
G01Y15562500D02*
X26156500D01*
G01X26196800Y15583500D02*
X26203800Y15571200D01*
X26213200Y15564200D01*
X26223700Y15562500D01*
X26233000Y15564200D01*
X26242300Y15573000D01*
X26248200Y15583500D01*
X26249300Y15594000D01*
X26247000Y15606200D01*
X26238800Y15615000D01*
X26230700Y15618500D01*
X26220200D01*
G01X26230700D02*
X26237700Y15623700D01*
X26243500Y15632500D01*
X26245800Y15643000D01*
X26243500Y15653500D01*
X26237700Y15662200D01*
X26227200Y15667500D01*
X26216700Y15665800D01*
X26206200Y15658700D01*
G01X26276800Y15578200D02*
X26283800Y15569500D01*
X26292000Y15564200D01*
X26302500Y15562500D01*
X26313000Y15566000D01*
X26321200Y15573000D01*
X26327000Y15585200D01*
X26328200Y15599200D01*
X26325800Y15613200D01*
X26320000Y15622000D01*
X26311800Y15629000D01*
X26303700Y15630700D01*
X26295500Y15629000D01*
X26285000Y15622000D01*
X26288500Y15667500D01*
X26320000D01*
G01X26360300Y15650000D02*
X26367300Y15660500D01*
X26375500Y15665800D01*
X26384800Y15667500D01*
X26396500Y15664000D01*
X26404700Y15655200D01*
X26407000Y15644800D01*
X26405800Y15634200D01*
X26401200Y15625500D01*
X26377800Y15608000D01*
X26367300Y15595700D01*
X26360300Y15578200D01*
X26358000Y15562500D01*
X26407000D01*
G01X26439200D02*
Y15667500D01*
X26468300D01*
X26477700Y15662200D01*
X26483500Y15655200D01*
X26485800Y15641200D01*
X26483500Y15627200D01*
X26476500Y15618500D01*
X26468300Y15613200D01*
X26439200D01*
G01X26468300D02*
X26485800Y15562500D01*
G01X26542500D02*
Y15667500D01*
X26528500Y15646500D01*
G01Y15562500D02*
X26556500D01*
G54D19*
X20725000Y37070000D03*
M02*
