G04 ================== begin FILE IDENTIFICATION RECORD ==================*
G04 Layout Name:  WCS038B.brd*
G04 Film Name:    LAUNCHXL-CC1352R1_Bottom*
G04 File Format:  Gerber RS274X*
G04 File Origin:  Cadence Allegro 17.2-S007*
G04 Origin Date:  Thu Mar 12 10:23:54 2020*
G04 *
G04 Layer:  DRAWING FORMAT/TITLE_BLOCK*
G04 Layer:  BOARD GEOMETRY/LAYER4*
G04 Layer:  BOARD GEOMETRY/OUTLINE*
G04 Layer:  VIA CLASS/BOTTOM*
G04 Layer:  PIN/BOTTOM*
G04 Layer:  ETCH/BOTTOM*
G04 *
G04 Offset:    (0.000 0.000)*
G04 Mirror:    No*
G04 Mode:      Positive*
G04 Rotation:  0*
G04 FullContactRelief:  No*
G04 UndefLineWidth:     0.099*
G04 ================== end FILE IDENTIFICATION RECORD ====================*
%FSLAX25Y25*MOMM*%
%IR0*IPPOS*OFA0.00000B0.00000*MIA0B0*SFA1.00000B1.00000*%
%ADD10C,1.27*%
%ADD11C,3.8*%
%ADD13C,1.65*%
%ADD22C,3.316*%
%ADD23C,1.428*%
%ADD24R,1.428X1.428*%
%ADD15C,.099*%
%ADD14C,1.699*%
%ADD16C,.1*%
%ADD12C,.4*%
%ADD21C,.5*%
%ADD20O,1.508X3.016*%
%ADD19O,3.016X1.508*%
%ADD18O,2.416X1.208*%
%ADD17C,.8*%
%ADD25C,.2*%
%ADD26C,.3*%
%ADD27C,.15*%
%ADD28C,.18*%
%ADD34C,1.324*%
%ADD35C,1.424*%
%ADD30C,3.62*%
%ADD29C,1.732*%
%ADD32C,1.954*%
%ADD31O,1.812X3.32*%
%ADD33C,.704*%
G75*
%LPD*%
G75*
G36*
G01X23015000Y20130000D02*
X22815000D01*
Y19430000D01*
X21015000D01*
Y18730000D01*
X24615000D01*
Y18430000D01*
X21015000D01*
Y17730000D01*
X22755000D01*
Y17930000D01*
X21215000D01*
Y18230000D01*
X24815000D01*
Y18930000D01*
X21215000D01*
Y19230000D01*
X23015000D01*
Y20130000D01*
G37*
G36*
G01X20065100Y20175000D02*
G02X20055100Y20185000I0J10000D01*
G01Y24500100D01*
G02X20154200Y24783800I455929J-103D01*
G03X20244200Y24947200I-435221J346203D01*
G01Y24947300D01*
G02X20250200Y24953300I9411J-3411D01*
G01X20267100Y24959400D01*
X20271500Y24959000D01*
X20273500Y24957800D01*
G03X20297500Y25080000I34016J56776D01*
G01X20297400D01*
G02X20289200Y25082500I-1468J9882D01*
G01X20277600Y25093100D01*
G02X20274300Y25100900I6673J7421D01*
G03X20274400Y25158300I-555322J29668D01*
G01X20274300Y25160500D01*
X20276000Y25164700D01*
X20289300Y25176700D01*
G02X20297500Y25179200I6732J-7382D01*
G03X20273700Y25301500I10026J65417D01*
G02X20265200Y25300700I-5097J8605D01*
G01X20250400Y25306100D01*
G02X20244400Y25312100I3411J9411D01*
G01Y25312200D01*
G03X20154200Y25476200I-525433J-182183D01*
G02X20129800Y25510000I357068J283472D01*
G01X20129700D01*
G02X20055100Y25759900I381346J249924D01*
G01X20051400Y29132500D01*
G02X20058200Y29142000I9997J28D01*
G01X20079400Y29149200D01*
X20085400Y29147400D01*
X20087400Y29144800D01*
G03X20452700Y29301700I162570J125201D01*
G01Y29301900D01*
G02X20455300Y29310100I9890J1376D01*
G01X20467700Y29323500D01*
X20472100Y29325100D01*
X20474300Y29324900D01*
G03X20490100Y29575200I11012J124954D01*
G01X20480000D01*
G03X20361800Y29472300I4439J-124436D01*
G01Y29472100D01*
G02X20356700Y29465100I-9857J1824D01*
G01X20340400Y29456500D01*
X20335900Y29456300D01*
X20333800Y29457300D01*
G03X20087200Y29394900I-83799J-187303D01*
G01Y29394800D01*
G02X20076000Y29391500I-7901J6160D01*
G01X20057900Y29397600D01*
G02X20051100Y29407100I3199J9473D01*
G01X20050000Y30450000D01*
Y37140000D01*
G02X20060000Y37150000I10000J0D01*
G01X20556600D01*
G02X20565300Y37144800I-69J-9994D01*
G01X20573800Y37129200D01*
G02X20573400Y37119000I-8800J-4763D01*
G03X20649600Y36979400I76200J-49003D01*
G01X20800400D01*
G03X20876600Y37119000I0J90597D01*
G02X20876200Y37129200I8400J5437D01*
G01X20884700Y37144800D01*
G02X20893400Y37150000I8769J-4794D01*
G01X25772500D01*
G03X25779500Y37152900I-42J10000D01*
G01X25784500Y37157900D01*
G02X25795400Y37160100I7098J-7066D01*
G01Y37160000D01*
G02X25801600Y37150800I-3784J-9239D01*
G01Y37150000D01*
Y37144800D01*
Y37129200D01*
Y37124400D01*
Y37119000D01*
Y37086600D01*
X25802800Y34260300D01*
Y34260200D01*
X25802900Y34174500D01*
Y34174400D01*
Y34148500D01*
Y34141500D01*
Y34089700D01*
X25804100Y31344300D01*
Y31337300D01*
Y31295600D01*
X25804300Y30938500D01*
Y30931500D01*
X25804400Y30637300D01*
Y30630300D01*
X25804900Y29433800D01*
Y29363800D01*
G02X25797000Y29354100I-9995J73D01*
G01X25777700Y29349900D01*
G02X25766500Y29355400I-2148J9779D01*
G01Y29355500D01*
G03Y29184500I-186500J-85500D01*
G01Y29184600D01*
G02X25777700Y29190100I9052J-4279D01*
G01X25797000Y29185900D01*
G02X25804900Y29176200I-2095J-9773D01*
G01Y25759900D01*
G02X25705800Y25476200I-455929J103D01*
G03X25614700Y25309600I435225J-346197D01*
G01Y25309500D01*
G02X25608600Y25303400I-9438J3338D01*
G01X25593700Y25298100D01*
G02X25585100Y25299000I-3360J9430D01*
G01X25585000Y25299100D01*
G03X25561800Y25177800I-35010J-56173D01*
G01X25562000D01*
G02X25570300Y25175500I1738J-9854D01*
G01X25582200Y25165100D01*
G02X25585600Y25157100I-6601J-7528D01*
G01Y25157000D01*
G03X25585800Y25099000I555437J-27085D01*
G01Y25098700D01*
G02X25582400Y25090900I-9972J-294D01*
G01X25570500Y25080300D01*
G02X25562100Y25078000I-6575J7522D01*
G01X25562000D01*
G03X25586000Y24957300I-11981J-65118D01*
G01X25588000Y24958600D01*
X25592500Y24959200D01*
X25609700Y24953200D01*
G02X25615800Y24947300I-3227J-9440D01*
G01X25615900Y24947100D01*
G03X25705800Y24783800I525209J182743D01*
G02X25804900Y24500100I-356829J-283803D01*
G01Y20185000D01*
G02X25794900Y20175000I-10000J0D01*
G01X20065100D01*
G37*
%LPC*%
G75*
G36*
G01X24296400Y36913400D02*
X24153600D01*
G02X24138400Y36928600I0J15200D01*
G01Y37071400D01*
G02X24153600Y37086600I15200J0D01*
G01X24296400D01*
G02X24311600Y37071400I0J-15200D01*
G01Y36928600D01*
G02X24296400Y36913400I-15200J0D01*
G37*
G36*
G01X24070200Y34077300D02*
X24073200Y34078800D01*
G02X24031200Y34036800I44800J-86800D01*
G01X24032700Y34039800D01*
X24031800Y34046100D01*
X23955200Y34122700D01*
G02X23952300Y34129700I7100J7042D01*
G01Y34193800D01*
G03X23949500Y34200700I-9995J-38D01*
G02X23995700Y34253500I25399J24388D01*
G01X23997000Y34252500D01*
X23999900Y34251600D01*
X24015100D01*
X24018000Y34252500D01*
X24019300Y34253500D01*
G02X24026000Y34192800I20714J-28433D01*
G01X24025800D01*
G03X24016500Y34192000I-3894J-9186D01*
G01X24002200Y34182800D01*
G03X23997700Y34174500I5520J-8363D01*
G01Y34148500D01*
G03X24000600Y34141500I10000J42D01*
G01X24063900Y34078200D01*
X24070200Y34077300D01*
G37*
G36*
G01X20380400Y30544400D02*
X20259600D01*
G02Y30695600I0J75600D01*
G01X20380400D01*
G02Y30544400I0J-75600D01*
G37*
G36*
G01Y29754400D02*
X20259600D01*
G02Y29905600I0J75600D01*
G01X20380400D01*
G02Y29754400I0J-75600D01*
G37*
G36*
G01X24505000Y29124800D02*
X24069500D01*
G02X24062500Y29127700I42J10000D01*
G01X23793300Y29396900D01*
G03X23786300Y29399800I-7042J-7100D01*
G01X23440000D01*
G02Y29470200I0J35200D01*
G01X23815500D01*
G02X23822500Y29467300I-42J-10000D01*
G01X24091700Y29198100D01*
G03X24098700Y29195200I7042J7100D01*
G01X24505000D01*
G02Y29124800I0J-35200D01*
G37*
G36*
G01X25490900Y28961700D02*
G02Y29018300I-20900J28300D01*
G03X25496700Y29016400I5868J8110D01*
G01X25503300D01*
G03X25509100Y29018300I-68J10010D01*
G02X25550900I20900J-28300D01*
G03X25556700Y29016400I5868J8110D01*
G01X25563300D01*
G03X25569100Y29018300I-68J10010D01*
G02Y28961700I20900J-28300D01*
G03X25563300Y28963600I-5868J-8110D01*
G01X25556700D01*
G03X25550900Y28961700I68J-10010D01*
G02X25509100I-20900J28300D01*
G03X25503300Y28963600I-5868J-8110D01*
G01X25496700D01*
G03X25490900Y28961700I68J-10010D01*
G37*
G36*
G01X20890300Y28717300D02*
X20704700D01*
G02X20697700Y28720200I42J10000D01*
G01X20676000Y28741900D01*
G03X20669200Y28744800I-7045J-7097D01*
G02X20705200Y28780800I800J35200D01*
G03X20708100Y28774000I9997J245D01*
G01X20716500Y28765600D01*
G03X20723500Y28762700I7042J7100D01*
G01X20733900D01*
G03X20743900Y28772700I0J10000D01*
G01Y28772800D01*
G03X20741900Y28778800I-10000J0D01*
G02X20742600Y28822100I28100J21201D01*
G01X20743700Y28823400D01*
X20744800Y28826600D01*
Y28850500D01*
G03X20740100Y28859000I-9998J21D01*
G01X20725400Y28868100D01*
G03X20715700Y28868500I-5210J-8537D01*
G02X20722500Y28927100I-15692J31516D01*
G03X20729400Y28924800I6394J7682D01*
G01X20742900Y28925400D01*
G03X20749500Y28928300I-455J9995D01*
G01X20823500Y29002300D01*
G02X20830500Y29005200I7042J-7100D01*
G01X20860400D01*
G03X20867400Y29008100I-42J10000D01*
G01X20927400Y29068100D01*
G02X20934400Y29071000I7042J-7100D01*
G01X20956000D01*
G03X20963700Y29074700I-66J9999D01*
G01X20973600Y29086900D01*
G03X20975600Y29095300I-7775J6289D01*
G02X21031900Y29130300I34416J7421D01*
G01X21033200Y29129300D01*
X21036000Y29128200D01*
X21051200Y29127600D01*
X21054100Y29128400D01*
X21055500Y29129300D01*
G02X21095700Y29128500I19525J-29296D01*
G01X21097000Y29127500D01*
X21099900Y29126600D01*
X21115100D01*
X21118000Y29127500D01*
X21119300Y29128500D01*
G02X21167400Y29077900I20716J-28469D01*
G01X21166300Y29076600D01*
X21165200Y29073400D01*
Y29069900D01*
G02X21162300Y29062900I-10000J42D01*
G01X21077900Y28978500D01*
G02X21070900Y28975600I-7042J7100D01*
G01X20962300D01*
G03X20955300Y28972700I42J-10000D01*
G01X20905300Y28922700D01*
G02X20898300Y28919800I-7042J7100D01*
G01X20865800D01*
G03X20858800Y28916900I42J-10000D01*
G01X20858100Y28916200D01*
G03X20855200Y28909200I7100J-7042D01*
G01Y28826600D01*
X20856300Y28823400D01*
X20857400Y28822100D01*
G02X20858100Y28778800I-27400J-22099D01*
G03X20856100Y28772800I8000J-6000D01*
G01Y28772700D01*
G03X20866100Y28762700I10000J0D01*
G01X20871500D01*
G03X20878500Y28765600I-42J10000D01*
G01X20898100Y28785200D01*
X20898300D01*
X20906900Y28793800D01*
G03X20909800Y28800600I-7098J7045D01*
G01Y28800700D01*
G02X20946000Y28764800I35200J-707D01*
G03X20939200Y28761900I245J-9997D01*
G01X20917100Y28739800D01*
X20916900D01*
X20897300Y28720200D01*
G02X20890300Y28717300I-7042J7100D01*
G37*
G36*
G01X21478600Y28752700D02*
G02X21421400Y28752900I-28672J-20407D01*
G03X21421700Y28753300I-7848J6199D01*
G03X21421400Y28764600I-8474J5429D01*
G02X21478600Y28764400I28672J20407D01*
G03X21478300Y28764000I7848J-6199D01*
G03X21478600Y28752700I8474J-5429D01*
G37*
G36*
G01X22309500Y28570700D02*
G02Y28629300I-19500J29300D01*
G03X22320500I5500J8374D01*
G02Y28570700I19500J-29300D01*
G03X22309500I-5500J-8374D01*
G37*
G36*
G01X22289300Y28084500D02*
G02X22230700I-29300J-19500D01*
G03X22230600Y28095500I-8387J5424D01*
G02X22225400Y28108300I29413J19405D01*
G03X22221900Y28114200I-9834J-1845D01*
G01X22211900Y28122400D01*
G03X22205500Y28124600I-6266J-7820D01*
G02X22185900Y28130200I-541J35208D01*
G03X22180500Y28131800I-5427J-8403D01*
G01X22174600D01*
G03X22169100Y28130200I-72J-10004D01*
G02Y28189400I-19100J29600D01*
G03X22174600Y28187800I5428J8404D01*
G01X22180400D01*
G03X22185900Y28189400I72J10005D01*
G02X22239600Y28166500I19117J-29583D01*
G03X22243100Y28160600I9834J1845D01*
G01X22253100Y28152400D01*
G03X22259500Y28150200I6266J7820D01*
G02X22289300Y28095500I498J-35196D01*
G03Y28084500I8367J-5500D01*
G37*
G36*
G01X25750500Y27999300D02*
G02X25699500I-25500J-24300D01*
G03X25702300Y28006200I-7191J6936D01*
G01Y28536500D01*
G03X25699400Y28543500I-10000J-42D01*
G01X25518500Y28724400D01*
G03X25511500Y28727300I-7042J-7100D01*
G01X25344700D01*
G02X25337700Y28730200I42J10000D01*
G01X25280200Y28787700D01*
G02X25277300Y28794700I7100J7042D01*
G01Y30611500D01*
G03X25274400Y30618500I-10000J-42D01*
G01X24980200Y30912700D01*
G02X24977300Y30919700I7100J7042D01*
G01Y31109100D01*
G03X24971400Y31118200I-10006J-25D01*
G01X24954700Y31125800D01*
G03X24944100Y31124300I-4114J-9130D01*
G01X24944000Y31124200D01*
G02X24807700Y31132300I-64005J73805D01*
G01X24807600Y31132400D01*
G03X24796700Y31134900I-7297J-6804D01*
G01X24779100Y31128200D01*
G03X24772700Y31118800I3609J-9336D01*
G01Y31063500D01*
G03X24775600Y31056500I10000J42D01*
G01X25219800Y30612300D01*
G02X25222700Y30605300I-7100J-7042D01*
G01Y28481200D01*
G03X25225500Y28474300I9991J36D01*
G02X25174500I-25500J-24300D01*
G03X25177300Y28481200I-7191J6936D01*
G01Y30586500D01*
G03X25174400Y30593500I-10000J-42D01*
G01X24730200Y31037700D01*
G02X24727300Y31044700I7100J7042D01*
G01Y31112700D01*
G03X24721200Y31121900I-9997J-6D01*
G01X24704200Y31129200D01*
G03X24693300Y31127200I-3947J-9192D01*
G02Y31268800I-67300J70800D01*
G03X24704200Y31266800I6953J7192D01*
G01X24721200Y31274100D01*
G03X24727300Y31283300I-3897J9206D01*
G01Y31314500D01*
G03X24724400Y31321500I-10000J-42D01*
G01X24680100Y31365800D01*
X24673800Y31366700D01*
X24670800Y31365200D01*
G02X24712800Y31407200I-44800J86800D01*
G01X24711300Y31404200D01*
X24712200Y31397900D01*
X24769800Y31340300D01*
G02X24772700Y31333300I-7100J-7042D01*
G01Y31277200D01*
G03X24779100Y31267800I10009J-64D01*
G01X24796700Y31261100D01*
G03X24807600Y31263600I3603J9304D01*
G01X24807700Y31263700D01*
G02X24944000Y31271800I72295J-65705D01*
G01X24944100Y31271700D01*
G03X24954700Y31270200I6486J7630D01*
G01X24971400Y31277800D01*
G03X24977300Y31286900I-4106J9125D01*
G01Y31318500D01*
G03X24974400Y31325500I-10000J-42D01*
G01X24934100Y31365800D01*
X24927800Y31366700D01*
X24924800Y31365200D01*
G02X24966800Y31407200I-44800J86800D01*
G01X24965300Y31404200D01*
X24966200Y31397900D01*
X25019800Y31344300D01*
G02X25022700Y31337300I-7100J-7042D01*
G01Y31272500D01*
G03X25029300Y31263100I10010J11D01*
G01X25047300Y31256700D01*
G03X25058400Y31259800I3355J9410D01*
G02Y31136200I75600J-61800D01*
G03X25047300Y31139300I-7745J-6310D01*
G01X25029300Y31132900D01*
G03X25022700Y31123500I3410J-9411D01*
G01Y30938500D01*
G03X25025600Y30931500I10000J42D01*
G01X25319800Y30637300D01*
G02X25322700Y30630300I-7100J-7042D01*
G01Y28813500D01*
G03X25325600Y28806500I10000J42D01*
G01X25356500Y28775600D01*
G03X25363500Y28772700I7042J7100D01*
G01X25530300D01*
G02X25537300Y28769800I-42J-10000D01*
G01X25744800Y28562300D01*
G02X25747700Y28555300I-7100J-7042D01*
G01Y28006200D01*
G03X25750500Y27999300I9991J36D01*
G37*
G36*
G01X23653100Y25157700D02*
X23653300Y25158000D01*
G02Y25112000I26700J-23000D01*
G01X23653100Y25112300D01*
X22997300D01*
G02X22981200Y25118900I-83J22734D01*
G01X22738800Y25361400D01*
G03X22731800Y25364300I-7042J-7100D01*
G01X22670300D01*
G02X22768000Y25462000I0J97700D01*
G01Y25400500D01*
G03X22770900Y25393500I10000J42D01*
G01X23003800Y25160600D01*
G03X23010800Y25157700I7042J7100D01*
G01X23653100D01*
G37*
G36*
G01X22107000Y24902400D02*
G02X22103900Y24950800I-27003J22570D01*
G03X22133000Y24952600I13695J14717D01*
G02X22136100Y24904200I27003J-22570D01*
G03X22107000Y24902400I-13695J-14717D01*
G37*
G36*
G01X22385200Y24814200D02*
G02X22349200Y24850200I-35200J800D01*
G03X22356000Y24853100I-245J9997D01*
G01X22390700Y24887800D01*
G03X22393600Y24894800I-7100J7042D01*
G01Y25342400D01*
G03X22390700Y25349400I-9997J-41D01*
G01X22350600Y25389700D01*
X22350400Y25389800D01*
G02X22482200I65900J72200D01*
G01X22482000Y25389700D01*
X22441900Y25349400D01*
G03X22439000Y25342400I7097J-7041D01*
G01Y24876000D01*
G02X22436100Y24869000I-10000J42D01*
G01X22388100Y24821000D01*
G03X22385200Y24814200I7097J-7045D01*
G37*
G36*
G01X23816800Y24800200D02*
G02X23780800Y24764200I-800J-35200D01*
G01X23780700Y24766200D01*
X23779300Y24769600D01*
X23705200Y24843700D01*
G02X23702300Y24850700I7100J7042D01*
G01Y24990800D01*
G02X23705200Y24997800I10000J-42D01*
G01X23933900Y25226500D01*
G03X23936800Y25233300I-7097J7045D01*
G02X23972800Y25197300I35200J-800D01*
G03X23966000Y25194400I245J-9997D01*
G01X23750600Y24979000D01*
G03X23747700Y24972000I7100J-7042D01*
G01Y24869500D01*
G03X23750600Y24862500I10000J42D01*
G01X23810000Y24803100D01*
G03X23816800Y24800200I7045J7097D01*
G37*
G36*
G01X22491300Y24657300D02*
X21154700D01*
G02X21147700Y24660200I42J10000D01*
G01X21006000Y24801900D01*
G03X20999200Y24804800I-7045J-7097D01*
G02X21035200Y24840800I800J35200D01*
G01X21035300Y24838800D01*
X21036700Y24835400D01*
X21166500Y24705600D01*
G03X21173500Y24702700I7042J7100D01*
G01X21251000D01*
G03X21260200Y24708900I-40J9985D01*
G01X21260300D01*
G03X21258100Y24719800I-9266J3802D01*
G01X21081000Y24896900D01*
G03X21074200Y24899800I-7045J-7097D01*
G02X21110200Y24935800I800J35200D01*
G03X21113100Y24929000I9997J245D01*
G01X21306500Y24735600D01*
G03X21313500Y24732700I7042J7100D01*
G01X22371500D01*
G03X22378500Y24735600I-42J10000D01*
G01X22416900Y24774000D01*
G03X22419800Y24780800I-7097J7045D01*
G02X22455800Y24744800I35200J-800D01*
G01X22453800Y24744700D01*
X22450400Y24743300D01*
X22426900Y24719800D01*
G03X22424700Y24708900I7066J-7098D01*
G01X22424800D01*
G03X22434000Y24702700I9240J3785D01*
G01X22472500D01*
G03X22479500Y24705600I-42J10000D01*
G01X22486900Y24713000D01*
G03X22489800Y24719800I-7097J7045D01*
G02X22525800Y24683800I35200J-800D01*
G01X22523800Y24683700D01*
X22520400Y24682300D01*
X22498300Y24660200D01*
G02X22491300Y24657300I-7042J7100D01*
G37*
G36*
G01X24120300Y24607300D02*
X23806700D01*
G02X23799700Y24610200I42J10000D01*
G01X23678000Y24731900D01*
G03X23671200Y24734800I-7045J-7097D01*
G02X23707200Y24770800I800J35200D01*
G01X23707300Y24768800D01*
X23708700Y24765400D01*
X23818500Y24655600D01*
G03X23825500Y24652700I7042J7100D01*
G01X24101500D01*
G03X24108500Y24655600I-42J10000D01*
G01X24112900Y24660000D01*
G03X24112800Y24674200I-7086J7050D01*
G03X24109100Y24676500I-6995J-7127D01*
G01X24108900Y24676600D01*
G02X24097000Y24736700I11083J33423D01*
G01X24097300Y24736900D01*
Y24761500D01*
G03X24094400Y24768500I-10000J-42D01*
G01X23953000Y24909900D01*
G03X23946000Y24912800I-7042J-7100D01*
G01X23929700D01*
X23926100Y24911300D01*
X23924700Y24909900D01*
G02X23866300Y24945400I-24801J24987D01*
G01X23866800Y24946900D01*
Y24948500D01*
G03X23856800Y24958500I-10000J0D01*
G01X23849400D01*
X23845800Y24957000D01*
X23845100Y24956300D01*
X23844400Y24949400D01*
G02X23832000Y24925800I-35005J3335D01*
G03X23830700Y24924500I6401J-7701D01*
G02X23781200Y24974000I-26900J22600D01*
G03X23782500Y24975300I-6402J7702D01*
G02X23808600Y24987900I26987J-22569D01*
G03X23815400Y24990800I-245J9997D01*
G01X23825600Y25001000D01*
G02X23832600Y25003900I7042J-7100D01*
G01X23919100D01*
G02X23926100Y25001000I-42J-10000D01*
G01X24139800Y24787300D01*
G02X24142700Y24780300I-7100J-7042D01*
G01Y24736900D01*
X24143000Y24736700D01*
G02X24149100Y24729900I-22954J-26727D01*
G01X24150400Y24728000D01*
X24154100Y24725800D01*
X24171800Y24724100D01*
G03X24179800Y24726900I1013J9934D01*
G01X24193300Y24740400D01*
G03X24196200Y24747400I-7100J7042D01*
G01Y24971500D01*
X24194800Y24972900D01*
Y25027100D01*
X24196200Y25028500D01*
Y25163100D01*
X24195900Y25163300D01*
G02X24241900I23000J26700D01*
G01X24241600Y25163100D01*
Y25009700D01*
X24240200Y25008300D01*
Y24991700D01*
X24241600Y24990300D01*
Y24728600D01*
G02X24238700Y24721600I-10000J42D01*
G01X24127300Y24610200D01*
G02X24120300Y24607300I-7042J7100D01*
G37*
G36*
G01X23126000Y24265000D02*
G02X23087400Y24233200I-3542J-35028D01*
G03X23069500Y24255000I-20008J1821D01*
G02X23108100Y24286800I3542J35028D01*
G03X23126000Y24265000I20008J-1821D01*
G37*
G36*
G01X23274200Y24085100D02*
X23275800Y24086000D01*
G02X23264600Y24033500I16690J-31005D01*
G01Y24033600D01*
G03X23258700Y24037300I-7949J-6122D01*
G01X23244200Y24040300D01*
X23240800Y24039900D01*
X23239200Y24039000D01*
G02X23189600Y24082600I-16721J30991D01*
G01X23190500Y24084900D01*
X23190000Y24089600D01*
X23178000Y24107500D01*
X23173800Y24109800D01*
X23171300D01*
G02X23204900Y24132400I721J35205D01*
G01X23204000Y24130100D01*
X23204500Y24125400D01*
X23216500Y24107500D01*
X23220700Y24105200D01*
X23223200D01*
G02X23250400Y24091500I-681J-35203D01*
G01Y24091400D01*
G03X23256300Y24087700I7949J6122D01*
G01X23270800Y24084700D01*
X23274200Y24085100D01*
G37*
G36*
G01X24507900Y24017400D02*
G02X24498000Y23975300I22094J-27410D01*
G03X24467100Y23982600I-18281J-8334D01*
G02X24477000Y24024700I-22094J27410D01*
G03X24507900Y24017400I18281J8334D01*
G37*
G36*
G01X23860200Y23949200D02*
G02X23824200Y23985200I-35200J800D01*
G01X23826200Y23985300D01*
X23829600Y23986700D01*
X25010200Y25167300D01*
G02X25017200Y25170200I7042J-7100D01*
G01X25024200D01*
G03X25031200Y25173100I-42J10000D01*
G01X25065500Y25207400D01*
X25066900Y25212800D01*
X25066100Y25215400D01*
G02X25117100Y25194200I33891J9586D01*
G01X25115800Y25193500D01*
X25050000Y25127700D01*
G02X25043000Y25124800I-7042J7100D01*
G01X25036000D01*
G03X25029000Y25121900I42J-10000D01*
G01X23863100Y23956000D01*
G03X23860200Y23949200I7097J-7045D01*
G37*
G36*
G01X20987100Y23961500D02*
G02X20953100Y24014400I-94789J-23547D01*
G03X20985400Y24026500I12518J15745D01*
G02X21011500Y23985800I34605J-6527D01*
G03X20987100Y23961500I-4891J-19489D01*
G37*
G36*
G01X22729000Y23746700D02*
G02Y23693300I23000J-26700D01*
G03X22722500Y23695700I-6497J-7595D01*
G01X22709500D01*
G03X22703000Y23693300I-3J-9995D01*
G02X22655200Y23695000I-22981J26687D01*
G01X22653900Y23696300D01*
X22650700Y23697700D01*
X22635700Y23698800D01*
G03X22629200Y23696800I-487J-9980D01*
G01X22629100D01*
G02X22632800Y23750000I-21092J28196D01*
G01X22634100Y23748700D01*
X22637300Y23747300D01*
X22652300Y23746200D01*
G03X22658800Y23748200I487J9980D01*
G01X22658900D01*
G02X22703000Y23746700I21117J-28187D01*
G03X22709500Y23744300I6497J7595D01*
G01X22722500D01*
G03X22729000Y23746700I3J9995D01*
G37*
G36*
G01X22502600Y23626800D02*
G02X22453200Y23577400I-27600J-21800D01*
G03X22447900Y23579500I-6182J-7864D01*
G01X22442100Y23580000D01*
G03X22436500Y23578900I-954J-9950D01*
G02X22385000Y23606400I-16487J31096D01*
G03X22382100Y23612500I-9956J-994D01*
G01X22377500Y23617100D01*
G03X22371400Y23620000I-7094J-7056D01*
G02X22410000Y23658600I3600J35000D01*
G03X22412900Y23652500I9956J994D01*
G01X22417500Y23647900D01*
G03X22423600Y23645000I7096J7061D01*
G01X22423900D01*
G03X22435000Y23656100I1132J9968D01*
G02X22501100Y23643500I34992J3890D01*
G03X22500000Y23637900I8850J-4646D01*
G01X22500500Y23632100D01*
G03X22502600Y23626800I9964J882D01*
G37*
G36*
G01X22517200Y23270800D02*
G02X22451600Y23274000I-32184J14220D01*
G03X22447700Y23279100I-9458J-3192D01*
G01X22442600Y23282800D01*
G03X22436400Y23284500I-5610J-8302D01*
G02X22418500Y23288600I-1360J35185D01*
G01X22417100Y23289400D01*
X22413900Y23289900D01*
X22398800Y23287600D01*
X22396100Y23286300D01*
X22394900Y23285100D01*
G02X22386500Y23341100I-24894J24896D01*
G01X22387900Y23340300D01*
X22391100Y23339800D01*
X22406200Y23342100D01*
X22408900Y23343400D01*
X22410100Y23344600D01*
G02X22468400Y23330700I24870J-24899D01*
G03X22472300Y23325600I9459J3192D01*
G01X22477400Y23322000D01*
G03X22483600Y23320200I5736J8180D01*
G02X22487700Y23320100I1193J-35193D01*
G03X22493500Y23321500I656J9996D01*
G01X22498800Y23324700D01*
G03X22502800Y23329200I-5123J8581D01*
G02X22532400Y23279900I32205J-14200D01*
G03X22526500Y23278500I-744J-9997D01*
G01X22521200Y23275300D01*
G03X22517200Y23270800I5123J-8582D01*
G37*
G36*
G01X22899000Y23224300D02*
G02X22889200Y23278500I-26490J23196D01*
G03X22901200Y23280400I4752J8835D01*
G03X22901500Y23280700I-6907J7207D01*
G02X22911300Y23226500I26490J-23196D01*
G03X22899300Y23224600I-4752J-8835D01*
G03X22899000Y23224300I6907J-7207D01*
G37*
G36*
G01X24157800Y22904700D02*
G02X24119400Y22929900I-33828J-9690D01*
G03X24136200Y22955300I-2554J19945D01*
G02X24174600Y22930100I33828J9690D01*
G03X24157800Y22904700I2554J-19945D01*
G37*
G36*
G01X20603300Y21239700D02*
X20640000D01*
G02X20542300Y21142000I0J-97700D01*
G01Y21178700D01*
G03X20539400Y21185700I-10000J-42D01*
G01X20332700Y21392400D01*
G02X20329800Y21399400I7100J7042D01*
G01Y24444300D01*
G02X20332700Y24451300I10000J-42D01*
G01X21299700Y25418300D01*
G03X21302600Y25425300I-7100J7042D01*
G01Y25462000D01*
G02X21333100Y25532900I97657J0D01*
G01X21334600Y25534300D01*
X21336100Y25537900D01*
X21336300Y25554500D01*
G03X21333400Y25561700I-9984J163D01*
G01X21275500Y25619600D01*
G02X21272600Y25626600I7100J7042D01*
G01Y25766200D01*
G03X21269700Y25773200I-10000J-42D01*
G01X21033500Y26009400D01*
G03X21026500Y26012300I-7042J-7100D01*
G01X20674700D01*
G02X20667700Y26015200I42J10000D01*
G01X20430200Y26252700D01*
G02X20427300Y26259700I7100J7042D01*
G01Y27305300D01*
G02X20430200Y27312300I10000J-42D01*
G01X20520800Y27402900D01*
G03Y27417100I-7042J7100D01*
G01X20270200Y27667700D01*
G02X20267300Y27674700I7100J7042D01*
G01Y27925100D01*
G02X20270200Y27932100I10000J-42D01*
G01X20326400Y27988300D01*
G03X20329300Y27995300I-7100J7042D01*
G01Y28009100D01*
G03X20324800Y28017400I-10007J-56D01*
G01X20310800Y28026700D01*
G03X20301400Y28027500I-5448J-8394D01*
G01X20301300D01*
G02X20215300Y28134000I-27787J65535D01*
G01Y28134100D01*
G03X20216300Y28143700I-8182J5704D01*
G01X20209600Y28159400D01*
G03X20201800Y28165400I-9204J-3895D01*
G02X20193700Y28167300I8517J54526D01*
G01X20191400Y28168000D01*
X20186800Y28167300D01*
X20171700Y28156100D01*
G03X20167700Y28148100I6010J-8005D01*
G01Y27923200D01*
G03X20170600Y27916200I10000J42D01*
G01X20180100Y27906700D01*
G03X20186900Y27903800I7045J7097D01*
G02X20173600Y27835700I-802J-35192D01*
G01X20173500D01*
G03X20162900Y27833400I-3521J-9347D01*
G03Y27819200I7042J-7100D01*
G01X20174000Y27808100D01*
G03X20180800Y27805200I7045J7097D01*
G02X20144800Y27769200I-800J-35200D01*
G01X20144700Y27771200D01*
X20143300Y27774600D01*
X20095200Y27822700D01*
G02X20092300Y27829700I7100J7042D01*
G01Y28511300D01*
G02X20095200Y28518300I10000J-42D01*
G01X20151900Y28575000D01*
G03X20154800Y28582000I-7100J7042D01*
G01Y28601000D01*
G02X20211700Y28656200I55225J0D01*
G03X20218500Y28658600I295J9997D01*
G01X20230300Y28668800D01*
X20232000Y28672100D01*
X20232200Y28674000D01*
G02X20263700Y28705000I34969J-4029D01*
G01X20263800D01*
G03X20270300Y28708400I-1062J9943D01*
G01X20280700Y28720300D01*
X20281900Y28723800D01*
X20281800Y28725800D01*
G02X20313600Y28778000I55173J2175D01*
G03X20319200Y28784900I-4167J9104D01*
G01X20322600Y28800600D01*
G03X20320500Y28809200I-9748J2176D01*
G02X20395400Y28786800I54498J45806D01*
G03X20388800Y28780700I2767J-9614D01*
G01X20383200Y28765800D01*
G03X20384000Y28757000I9316J-3589D01*
G02X20392200Y28728100I-47013J-28953D01*
G01Y28709000D01*
G03X20395100Y28702000I10000J42D01*
G01X20450400Y28646700D01*
G02X20453300Y28639700I-7100J-7042D01*
G01Y28469600D01*
G03X20459500Y28460400I9985J40D01*
G01Y28460300D01*
G03X20470400Y28462500I3802J9266D01*
G01X20571900Y28564000D01*
G03X20574800Y28570800I-7097J7045D01*
G02X20645100Y28568500I35163J-751D01*
G03X20646600Y28562800I10011J-413D01*
G01X20649800Y28557600D01*
G03X20654200Y28553700I8538J5200D01*
G02X20672700Y28509800I-14611J-32005D01*
G03X20672300Y28504300I9400J-3448D01*
G01X20673500Y28498800D01*
G03X20676000Y28494000I9787J2046D01*
G02X20651000Y28434800I-25776J-23994D01*
G01X20649000Y28434700D01*
X20645600Y28433300D01*
X20611900Y28399600D01*
G03X20609000Y28392600I7100J-7042D01*
G01Y28375300D01*
G03X20612100Y28368000I10007J-59D01*
G01X20622600Y28358000D01*
G03X20630000Y28355200I6947J7183D01*
G02X20647600Y28351300I1436J-35181D01*
G01X20648600Y28350800D01*
X20650900Y28350200D01*
X20699400D01*
G02X20706400Y28347300I-42J-10000D01*
G01X20750600Y28303100D01*
G03X20757600Y28300200I7042J7100D01*
G01X21313400D01*
G03X21320400Y28303100I-42J10000D01*
G01X21374600Y28357300D01*
G02X21381600Y28360200I7042J-7100D01*
G01X21458300D01*
X21460600Y28360800D01*
X21461600Y28361300D01*
G02Y28298700I16100J-31300D01*
G01X21460600Y28299200D01*
X21458300Y28299800D01*
X21406600D01*
G03X21399600Y28296900I42J-10000D01*
G01X21345400Y28242700D01*
G02X21338400Y28239800I-7042J7100D01*
G01X20745200D01*
G03X20735200Y28229900I0J-10000D01*
G01Y28229800D01*
G02X20686300Y28262400I-35192J187D01*
G01X20688100Y28263200D01*
X20689500Y28264600D01*
G03Y28278800I-7042J7100D01*
G01X20681400Y28286900D01*
G03X20674400Y28289800I-7042J-7100D01*
G01X20650900D01*
X20648600Y28289200D01*
X20647600Y28288700D01*
G02X20630000Y28284800I-16164J31281D01*
G03X20622600Y28282000I-453J-9983D01*
G01X20612100Y28272000D01*
G03X20609000Y28264700I6907J-7241D01*
G01Y28237200D01*
G03X20611900Y28230200I10000J42D01*
G01X20704000Y28138100D01*
G03X20710800Y28135200I7045J7097D01*
G02X20745200Y28098100I-769J-35212D01*
G01X20745100Y28095700D01*
X20747000Y28091300D01*
X20761600Y28079500D01*
G03X20770600Y28077700I6244J7820D01*
G02X20815200Y28043800I9416J-33900D01*
G01Y28041000D01*
G03X20818100Y28034000I10000J42D01*
G01X20902300Y27949800D01*
G02X20905200Y27942800I-7100J-7042D01*
G01Y27687200D01*
G02X20902300Y27680200I-10000J42D01*
G01X20868100Y27646000D01*
G03X20865200Y27639200I7097J-7045D01*
G02X20829200Y27675200I-35200J800D01*
G01X20831200Y27675300D01*
X20834600Y27676700D01*
X20856900Y27699000D01*
G03X20859800Y27706000I-7100J7042D01*
G01Y27724800D01*
G03X20856900Y27731800I-9996J-40D01*
G01X20846900Y27741800D01*
G03X20839800Y27744800I-7133J-6981D01*
G02X20820000Y27751100I291J35179D01*
G03X20814200Y27752900I-5726J-8206D01*
G01X20808100D01*
G03X20802400Y27751100I25J-10004D01*
G02X20752500Y27761500I-20005J28925D01*
G01Y27761600D01*
G03X20746700Y27765800I-8384J-5473D01*
G01X20733500Y27769500D01*
G03X20726200Y27768700I-2635J-9662D01*
G02X20705400Y27765100I-16130J31304D01*
G01X20703200Y27765400D01*
X20699200Y27764200D01*
X20686100Y27752700D01*
G03X20682700Y27745200I6603J-7514D01*
G01Y27553500D01*
G03X20685600Y27546500I10000J42D01*
G01X20704000Y27528100D01*
G03X20710800Y27525200I7045J7097D01*
G02X20742200Y27476000I-851J-35163D01*
G01Y27475800D01*
G03X20743000Y27466500I9186J-3894D01*
G01X20752200Y27452200D01*
G03X20760500Y27447700I8363J5520D01*
G01X20819100D01*
G03X20826100Y27450600I-42J10000D01*
G01X21365300Y27989800D01*
G02X21372300Y27992700I7042J-7100D01*
G01X21830300D01*
G03X21837300Y27995600I-42J10000D01*
G01X21935700Y28094000D01*
G03X21938600Y28100800I-7097J7045D01*
G02X21938800Y28103600I35178J-1106D01*
G03X21938900Y28104300I-9843J1763D01*
G03X21920700Y28110600I-10058J381D01*
G03X21920500Y28110300I8220J-5697D01*
G02X21924900Y28140600I-29188J19708D01*
G01Y28140500D01*
G03X21931100Y28134100I9538J3036D01*
G01X21946000Y28128700D01*
G03X21954900Y28129700I3452J9386D01*
G02X21974600Y28064800I18893J-29705D01*
G01X21972600Y28064700D01*
X21969200Y28063300D01*
X21885700Y27979800D01*
G03X21883500Y27968900I7066J-7098D01*
G01X21883600D01*
G03X21892800Y27962700I9240J3785D01*
G01X21926500D01*
G03X21933500Y27965600I-42J10000D01*
G01X22044400Y28076500D01*
G03X22047300Y28083500I-7100J7042D01*
G01Y28566500D01*
G03X22044400Y28573500I-10000J-42D01*
G01X21850200Y28767700D01*
G02X21847300Y28774700I7100J7042D01*
G01Y28998100D01*
X21847000Y28998300D01*
G02X21893000I23000J26700D01*
G01X21892700Y28998100D01*
Y28793500D01*
G03X21895600Y28786500I10000J42D01*
G01X22089800Y28592300D01*
G02X22092700Y28585300I-7100J-7042D01*
G01Y28064700D01*
G02X22089800Y28057700I-10000J42D01*
G01X21981900Y27949800D01*
G03X21979700Y27938900I7066J-7098D01*
G01X21979800D01*
G03X21989000Y27932700I9240J3785D01*
G01X22396500D01*
G03X22403500Y27935600I-42J10000D01*
G01X22432700Y27964800D01*
G02X22439700Y27967700I7042J-7100D01*
G01X22476700D01*
G03X22483700Y27970600I-42J10000D01*
G01X22835400Y28322300D01*
G02X22842400Y28325200I7042J-7100D01*
G01X22866600D01*
G03X22874600Y28329100I72J10007D01*
G01X22884300Y28341900D01*
G03X22886000Y28350600I-7940J6068D01*
G02X22940800Y28388200I33984J9204D01*
G03X22946700Y28386200I5997J7989D01*
G01X22953100Y28386300D01*
G03X22959000Y28388200I34J10005D01*
G02X23013900Y28350600I20990J-28232D01*
G03X23015600Y28341900I9640J-2632D01*
G01X23025300Y28329100D01*
G03X23033300Y28325200I7928J6107D01*
G01X23394900D01*
G03X23402300Y28328400I62J10014D01*
G01X23413700Y28340900D01*
X23415100Y28344900D01*
X23414900Y28347000D01*
G02X23485100I35100J3000D01*
G01X23484900Y28344900D01*
X23486300Y28340900D01*
X23497700Y28328400D01*
G03X23505100Y28325200I7338J6814D01*
G01X23598800D01*
G03X23605800Y28328100I-42J10000D01*
G01X23610300Y28332600D01*
G03Y28346800I-7042J7100D01*
G01X23609600Y28347500D01*
X23608700Y28348000D01*
G02X23598800Y28396500I19595J29260D01*
G03X23600500Y28401700I-8289J5588D01*
G01X23600600Y28407400D01*
G03X23599300Y28412600I-9977J268D01*
G02X23657900Y28408600I30623J17389D01*
G01X23655900Y28406000D01*
X23655700Y28399700D01*
X23657700Y28396700D01*
G03X23665000Y28392300I8324J5555D01*
G01X23667200Y28392100D01*
X23671300Y28393600D01*
X23750000Y28472300D01*
G03Y28486400I-7097J7050D01*
G01X23748800Y28487600D01*
X23747200Y28488400D01*
G02X23744400Y28489900I15210J31755D01*
G03X23739200Y28491400I-5265J-8488D01*
G01X23733500D01*
G03X23728300Y28489900I65J-9987D01*
G02Y28550100I-18300J30100D01*
G03X23733500Y28548600I5265J8487D01*
G01X23739200D01*
G03X23744400Y28550100I-65J9987D01*
G02X23789600Y28542700I18279J-30091D01*
G01X23790900Y28541100D01*
X23794700Y28539200D01*
X23811600Y28538500D01*
G03X23819100Y28541400I450J9985D01*
G01X23899400Y28621700D01*
G03X23902300Y28628700I-7100J7042D01*
G01Y28720200D01*
G02X23905200Y28727200I10000J-42D01*
G01X24042800Y28864800D01*
G02X24049800Y28867700I7042J-7100D01*
G01X24521500D01*
G03X24528500Y28870600I-42J10000D01*
G01X24561900Y28904000D01*
G03X24564800Y28910800I-7097J7045D01*
G02X24565600Y28917600I35206J-695D01*
G01X24565900Y28918700D01*
Y28919800D01*
G03X24555900Y28929800I-10000J0D01*
G01X23811600D01*
X23808000Y28928300D01*
X23806800Y28927100D01*
G02X23769100Y28983500I-26753J22918D01*
G01X23769300D01*
X23771500Y28984300D01*
X23774600Y28987300D01*
G02X23781600Y28990200I7037J-7088D01*
G01X24768400D01*
G02X24775400Y28987300I-42J-9998D01*
G01X24816900Y28945900D01*
G03X24820700Y28943500I7109J7047D01*
G01X24820800D01*
G02X24843500Y28920900I-10772J-33520D01*
G01Y28920700D01*
X24844300Y28918500D01*
X25042300Y28720400D01*
G02X25045200Y28713400I-7100J-7042D01*
G01Y28592100D01*
X25045800Y28589800D01*
X25046300Y28588800D01*
G02X25037500Y28545600I-31300J-16120D01*
G01X25035900Y28544300D01*
X25034000Y28540500D01*
X25033200Y28523500D01*
G03X25036100Y28516000I9991J-447D01*
G01X25770000Y27782100D01*
G02X25772900Y27775100I-7100J-7042D01*
G01Y27545200D01*
G02X25770000Y27538200I-10000J42D01*
G01X25757800Y27526000D01*
G03X25754900Y27519200I7097J-7045D01*
G02X25715400Y27485100I-35181J825D01*
G01X25715200D01*
G03X25707500Y27482700I-1128J-9932D01*
G01X25696100Y27472700D01*
G03X25692700Y27465200I6603J-7514D01*
G01Y27423200D01*
G03X25697600Y27414600I10008J6D01*
G01X25715000Y27404400D01*
X25720200D01*
X25722600Y27405700D01*
G02X25740600Y27339800I17203J-30709D01*
G01X25738600Y27339700D01*
X25735200Y27338300D01*
X25725600Y27328700D01*
G03X25722700Y27321700I7100J-7042D01*
G01Y26181200D01*
G03X25725500Y26174300I9991J36D01*
G02X25703600Y26115000I-25489J-24280D01*
G03X25697500Y26112100I994J-9956D01*
G01X25693100Y26107700D01*
G03X25690200Y26100700I7100J-7042D01*
G01Y25869800D01*
G02X25680200Y25859800I-10000J0D01*
G01X24001000D01*
G03X23994000Y25856900I42J-10000D01*
G01X23942300Y25805200D01*
G02X23935300Y25802300I-7042J7100D01*
G01X23783700D01*
G03X23774900Y25797000I25J-9997D01*
G01X23766500Y25781200D01*
G03X23767100Y25770900I8856J-4652D01*
G02X23605500I-80800J-54900D01*
G03X23606100Y25781200I-8256J5648D01*
G01X23597700Y25797000D01*
G03X23588900Y25802300I-8825J-4697D01*
G01X23529700D01*
G03X23520900Y25797000I25J-9997D01*
G01X23512500Y25781200D01*
G03X23513100Y25770900I8856J-4652D01*
G02X23351500I-80800J-54900D01*
G03X23352100Y25781200I-8256J5648D01*
G01X23343700Y25797000D01*
G03X23334900Y25802300I-8825J-4697D01*
G01X23275700D01*
G03X23266900Y25797000I25J-9997D01*
G01X23258500Y25781200D01*
G03X23259100Y25770900I8856J-4652D01*
G02X23097500I-80800J-54900D01*
G03X23098100Y25781200I-8256J5648D01*
G01X23089700Y25797000D01*
G03X23080900Y25802300I-8825J-4697D01*
G01X23021700D01*
G03X23012900Y25797000I25J-9997D01*
G01X23004500Y25781200D01*
G03X23005100Y25770900I8856J-4652D01*
G02X23022000Y25716000I-80722J-54900D01*
G01Y25654500D01*
G03X23024900Y25647500I10000J42D01*
G01X23066700Y25605700D01*
G03X23071400Y25603000I7152J7009D01*
G01X23072400Y25602800D01*
G02X23105200Y25563700I-2392J-35314D01*
G01Y25561700D01*
X23126800Y25548300D01*
X23132000Y25548100D01*
X23134300Y25549300D01*
G02X23237000Y25383900I44082J-87213D01*
G01X23236900Y25383800D01*
G03X23233500Y25372700I6066J-7929D01*
G01X23239500Y25354500D01*
G03X23249000Y25347700I9482J3211D01*
G01X23361600D01*
G03X23371100Y25354500I18J10011D01*
G01X23377100Y25372700D01*
G03X23373700Y25383800I-9466J3171D01*
G01X23373600Y25383900D01*
G02X23491000I58700J78100D01*
G01X23490900Y25383800D01*
G03X23487500Y25372700I6066J-7929D01*
G01X23493500Y25354500D01*
G03X23503000Y25347700I9482J3211D01*
G01X23615600D01*
G03X23625100Y25354500I18J10011D01*
G01X23631100Y25372700D01*
G03X23627700Y25383800I-9466J3171D01*
G01X23627600Y25383900D01*
G02X23745000I58700J78100D01*
G01X23744900Y25383800D01*
G03X23741500Y25372700I6066J-7929D01*
G01X23747500Y25354500D01*
G03X23757000Y25347700I9482J3211D01*
G01X23776500D01*
G03X23783500Y25350600I-42J10000D01*
G01X23891900Y25459000D01*
G03X23894800Y25465800I-7097J7045D01*
G02X23895800Y25473300I35190J-875D01*
G01X23896300Y25475200D01*
X23895800Y25478700D01*
X23888500Y25492200D01*
G03X23883100Y25496900I-8824J-4687D01*
G02X23929200Y25521700I11907J33113D01*
G01X23928700Y25519800D01*
X23929200Y25516300D01*
X23936500Y25502800D01*
G03X23941900Y25498100I8824J4687D01*
G02X23961400Y25480800I-11932J-33089D01*
G01X23962500Y25478600D01*
X23966300Y25475900D01*
X23985000Y25472900D01*
G03X23993600Y25475700I1539J9880D01*
G01X24012700Y25494800D01*
G02X24019700Y25497700I7042J-7100D01*
G01X24793800D01*
G03X24800700Y25500500I-36J9991D01*
G02Y25449500I24300J-25500D01*
G03X24793800Y25452300I-6936J-7191D01*
G01X24038500D01*
G03X24031500Y25449400I42J-10000D01*
G01X23837300Y25255200D01*
G02X23830300Y25252300I-7042J7100D01*
G01X23156200D01*
G03X23149300Y25249500I36J-9991D01*
G02X23090100Y25279600I-24295J25483D01*
G01X23090400Y25281800D01*
X23089200Y25285800D01*
X23077700Y25298900D01*
G03X23070200Y25302300I-7514J-6603D01*
G01X23056000D01*
G02X23049000Y25305200I42J10000D01*
G01X22992800Y25361400D01*
G03X22985800Y25364300I-7042J-7100D01*
G01X22924300D01*
G02X23022000Y25462000I0J97700D01*
G01Y25400500D01*
G03X23024900Y25393500I10000J42D01*
G01X23067800Y25350600D01*
G03X23074800Y25347700I7042J7100D01*
G01X23107600D01*
G03X23117100Y25354500I18J10011D01*
G01X23123100Y25372700D01*
G03X23119700Y25383800I-9466J3171D01*
G01X23119600Y25383900D01*
G02X23089900Y25503700I58683J78130D01*
G03X23089200Y25513500I-9036J4280D01*
G01X23076700Y25532500D01*
X23074900Y25532400D01*
G02X23034600Y25567500I-4865J35100D01*
G01Y25569500D01*
G03X23031700Y25576500I-10000J-42D01*
G01X22992800Y25615400D01*
G03X22985800Y25618300I-7042J-7100D01*
G01X22924300D01*
G02X22843500Y25770900I0J97691D01*
G03X22844100Y25781200I-8256J5648D01*
G01X22835700Y25797000D01*
G03X22826900Y25802300I-8825J-4697D01*
G01X22756900D01*
X22756700Y25802000D01*
G02X22753400Y25798700I-26500J23200D01*
G01X22753300Y25798600D01*
G03X22750100Y25792300I6726J-7379D01*
G01X22748500Y25779000D01*
G03X22750200Y25772200I9954J-1124D01*
G01X22750300Y25772100D01*
G02X22604400Y25788200I-80027J-56081D01*
G01X22604600Y25788300D01*
X22644700Y25828600D01*
G03X22647600Y25835600I-7097J7041D01*
G01Y25849800D01*
G03X22637600Y25859800I-10000J0D01*
G01X22616000D01*
G03X22609000Y25856900I42J-10000D01*
G01X22533300Y25781200D01*
G03X22530700Y25776700I7066J-7084D01*
G01X22514000Y25713100D01*
X22513900Y25712000D01*
G02X22416300Y25618300I-97600J3981D01*
G01X22354800D01*
G03X22347800Y25615400I42J-10000D01*
G01X22282600Y25550200D01*
G02X22275600Y25547300I-7042J7100D01*
G01X22260400D01*
G03X22251600Y25542000I17J-9985D01*
G01X22241800Y25523900D01*
X22242100Y25518500D01*
X22243700Y25516100D01*
G02X22228200Y25389800I-81381J-54114D01*
G01X22228000Y25389700D01*
X22187900Y25349400D01*
G03X22185000Y25342400I7097J-7041D01*
G01Y25096200D01*
G03X22187900Y25089200I10000J42D01*
G01X22204000Y25073100D01*
G03X22210800Y25070200I7045J7097D01*
G02X22174800Y25034200I-800J-35200D01*
G01X22174700Y25036200D01*
X22173300Y25039600D01*
X22146200Y25066600D01*
G02X22139600Y25082700I16134J16017D01*
G01Y25342400D01*
G03X22136700Y25349400I-9997J-41D01*
G01X22096600Y25389700D01*
X22096400Y25389800D01*
G02X22080900Y25516100I65881J72186D01*
G01X22082500Y25518500D01*
X22082800Y25523900D01*
X22073000Y25542000D01*
G03X22064200Y25547300I-8817J-4685D01*
G01X22006400D01*
G03X21997600Y25542000I17J-9985D01*
G01X21987800Y25523900D01*
X21988100Y25518500D01*
X21989700Y25516100D01*
G02X21974200Y25389800I-81381J-54114D01*
G01X21974000Y25389700D01*
X21933900Y25349400D01*
G03X21931000Y25342400I7097J-7041D01*
G01Y25033400D01*
X21932500Y25029800D01*
X21932700Y25029600D01*
Y25006900D01*
X21933000Y25006700D01*
G02X21883200Y25002900I-23009J-26680D01*
G03X21885600Y25009300I-7589J6496D01*
G01Y25342400D01*
G03X21882700Y25349400I-9997J-41D01*
G01X21842600Y25389700D01*
X21842400Y25389800D01*
G02X21826900Y25516100I65881J72186D01*
G01X21828500Y25518500D01*
X21828800Y25523900D01*
X21819000Y25542000D01*
G03X21810200Y25547300I-8817J-4685D01*
G01X21752400D01*
G03X21743600Y25542000I17J-9985D01*
G01X21733800Y25523900D01*
X21734100Y25518500D01*
X21735700Y25516100D01*
G02X21572900I-81400J-54100D01*
G01X21574500Y25518500D01*
X21574800Y25523900D01*
X21565000Y25542000D01*
G03X21556200Y25547300I-8817J-4685D01*
G01X21498400D01*
G03X21489600Y25542000I17J-9985D01*
G01X21479800Y25523900D01*
X21480100Y25518500D01*
X21481700Y25516100D01*
G02X21400300Y25364300I-81400J-54075D01*
G01X21363600D01*
G03X21356600Y25361400I42J-10000D01*
G01X20935400Y24940200D01*
G03X20932500Y24933200I7100J-7042D01*
G01Y24548100D01*
G03X20935400Y24541100I9997J41D01*
G01X20959200Y24517200D01*
X20959300Y24517100D01*
G02X20825300I-67000J-71100D01*
G01X20825400Y24517200D01*
X20849200Y24541100D01*
G03X20852100Y24548100I-7097J7041D01*
G01Y24832700D01*
G03X20846000Y24842000I-10013J83D01*
G01X20845900D01*
G03X20835000Y24839900I-3876J-9219D01*
G01X20413100Y24417900D01*
G03X20410200Y24410900I7100J-7042D01*
G01Y21432800D01*
G03X20413100Y21425800I10000J42D01*
G01X20596300Y21242600D01*
G03X20603300Y21239700I7042J7100D01*
G37*
G54D34*
X22157100Y29280000D03*
X21927100D03*
G54D35*
X20172000Y28855000D03*
G54D30*
X25232000Y36729000D03*
X23918000D03*
G54D29*
X24925000Y37000000D03*
X24675000D03*
X24475000D03*
G54D32*
X25134000Y33992000D03*
X24880000D03*
X24626000D03*
X24372000D03*
X23864000D03*
X23610000D03*
X23356000D03*
X23102000D03*
X22848000D03*
X22594000D03*
X22340000D03*
X22086000D03*
X21832000D03*
X21578000D03*
X21324000D03*
X21070000D03*
X20816000D03*
X25134000Y33738000D03*
X24880000D03*
X24626000D03*
X24372000D03*
X24118000D03*
X23864000D03*
X23610000D03*
X23356000D03*
X23102000D03*
X22848000D03*
X22594000D03*
X22340000D03*
X22086000D03*
X21832000D03*
X21578000D03*
X21324000D03*
X21070000D03*
X20816000D03*
X25134000Y31452000D03*
X24372000D03*
X24118000D03*
X23864000D03*
X23610000D03*
X23356000D03*
X23102000D03*
X22848000D03*
X22594000D03*
X22340000D03*
X22086000D03*
X21832000D03*
X21578000D03*
X21324000D03*
X21070000D03*
X20816000D03*
X24372000Y31198000D03*
X24118000D03*
X23864000D03*
X23610000D03*
X23356000D03*
X23102000D03*
X22848000D03*
X22594000D03*
X22340000D03*
X22086000D03*
X21832000D03*
X21578000D03*
X21324000D03*
X21070000D03*
X20816000D03*
X24990000Y25716000D03*
X21146300D03*
X24990000Y25462000D03*
X21146300D03*
X25212300Y24446000D03*
X24958300D03*
X20638300D03*
X25212300Y24192000D03*
X24958300D03*
X20892300D03*
X20638300D03*
X25212300Y23938000D03*
X24958300D03*
X20638300D03*
X25212300Y23684000D03*
X24958300D03*
X20892300D03*
X20638300D03*
X25212300Y23430000D03*
X24958300D03*
X20892300D03*
X20638300D03*
X25212300Y23176000D03*
X24958300D03*
X20892300D03*
X20638300D03*
X25212300Y22922000D03*
X24958300D03*
X20892300D03*
X20638300D03*
X25212300Y22668000D03*
X24958300D03*
X20892300D03*
X20638300D03*
X25212300Y22414000D03*
X24958300D03*
X20892300D03*
X20638300D03*
X21817800Y22231300D03*
X21563800D03*
X25212300Y22160000D03*
X24958300D03*
X20892300D03*
X20638300D03*
X21817800Y21977300D03*
X21563800D03*
X25210000Y21650000D03*
X20640000D03*
X25210000Y21396000D03*
X20640000D03*
X25210000Y21142000D03*
G54D31*
X21025000Y36600000D03*
X20425000D03*
G54D33*
X20775000Y30425000D03*
X20550000Y29725000D03*
X22800000Y28920000D03*
X22700000D03*
X22600000D03*
X21010000Y28910000D03*
X23140000Y28785200D03*
X21355000Y28714000D03*
X20600000Y28670000D03*
X22800000Y28620000D03*
X22700000Y28614800D03*
X22600000D03*
X22695000Y28410000D03*
X21300000Y28120000D03*
X21610000Y28107700D03*
X20177300Y27620000D03*
X20170000Y27150000D03*
X25400000Y25550000D03*
X22080000Y25236000D03*
X24018700Y24990000D03*
X23500000Y24895000D03*
X23525000Y24775200D03*
X23960000Y24775000D03*
X24628000Y24245000D03*
X23006500Y24153500D03*
X22416500D03*
X22415000Y24010000D03*
X23020000Y23981500D03*
X24328000Y23825000D03*
X22968000Y23775000D03*
X23025000Y23684000D03*
X23073000Y23430000D03*
X22392400Y23147600D03*
X24424000Y23071000D03*
X21795000Y23060000D03*
X23430300Y23059700D03*
X22407500Y22822500D03*
X24470000Y22805000D03*
X23952000Y22695000D03*
X22420000Y22637500D03*
X23420000Y22480000D03*
X22420000Y22430000D03*
X22916000Y22382300D03*
X22500000Y22381200D03*
X24490000Y22025000D03*
X24315000Y22000000D03*
X22916000Y21990000D03*
X20229400Y21970000D03*
X24255000Y21685000D03*
X24192400Y21612600D03*
%LPD*%
G75*
G36*
G01X20557500Y21199500D02*
Y21142000D01*
X20644400Y21137600D01*
X20640000Y21224500D01*
X20582500D01*
G03X20557500Y21199500I0J-25000D01*
G37*
G36*
G01X20874600Y24545000D02*
X20834000Y24504300D01*
X20892300Y24439800D01*
X20950600Y24504300D01*
X20910000Y24545000D01*
G03X20874600I-17700J-17700D01*
G37*
G36*
G01X21087300Y26019800D02*
X21052300Y26054800D01*
G03X21045300Y26057700I-7042J-7099D01*
G01X21023900D01*
G02X21016100Y26061500I42J9991D01*
G01X21006300Y26073800D01*
G02X21004300Y26082200I7766J6287D01*
G03X20993000Y26116700I-34317J7861D01*
G01X20992700Y26116900D01*
Y26473100D01*
X20993000Y26473300D01*
G03X20947000I-23000J26700D01*
G01X20947300Y26473100D01*
Y26116900D01*
X20947000Y26116700D01*
G03X20938900Y26106500I23052J-26622D01*
G02X20921100I-8900J4652D01*
G03X20855700Y26082200I-31078J-16516D01*
G02X20853700Y26073800I-9766J-2113D01*
G01X20843900Y26061500D01*
G02X20836100Y26057700I-7842J6191D01*
G01X20693500D01*
G02X20686500Y26060600I42J10001D01*
G01X20475600Y26271500D01*
G02X20472700Y26278500I7101J7042D01*
G01Y26642300D01*
G02X20475800Y26649500I9999J-38D01*
G01X20486200Y26659500D01*
G02X20493600Y26662300I6947J-7181D01*
G03X20521700Y26674500I1418J35194D01*
G01X20521900Y26674800D01*
X20597800D01*
G03X20604800Y26677700I-42J9999D01*
G01X20634500Y26707400D01*
G02X20641900Y26710400I7152J-7014D01*
G01X20656500Y26709900D01*
G02X20663700Y26706600I-220J-9986D01*
G03X20701500Y26696700I26322J23388D01*
G01X20703100Y26697300D01*
X21613500D01*
G02X21622800Y26691100I43J-10011D01*
G02X21620600Y26680200I-9261J-3803D01*
G01X21541000Y26600600D01*
G02X21534200Y26597700I-7044J7095D01*
G03X21570200Y26561700I800J-35200D01*
G02X21573100Y26568500I9995J-244D01*
G01X21669000Y26664400D01*
G02X21676000Y26667300I7042J-7101D01*
G01X22425100D01*
G03X22432100Y26670200I-42J9999D01*
G01X22566300Y26804400D01*
G02X22573300Y26807300I7042J-7101D01*
G01X22665200D01*
G02X22672700Y26803900I-12J-9998D01*
G01X22682700Y26792500D01*
G02X22685100Y26784600I-7512J-6597D01*
G03X22721500Y26744800I34907J-4620D01*
G01X22721600D01*
G02X22728900Y26742100I456J-9985D01*
G01X22739400Y26732000D01*
G02X22742500Y26724800I-6897J-7237D01*
G01Y26668800D01*
G03X22745400Y26661800I9998J41D01*
G01X22954500Y26452700D01*
G03X22961500Y26449800I7041J7098D01*
G01X23963600D01*
G02X23970700Y26446900I57J-10002D01*
G01X24035200Y26382400D01*
X24038800Y26380900D01*
X24040600D01*
X24064200Y26357300D01*
G02X24066400Y26346400I-7065J-7098D01*
G01X24066300D01*
G02X24057100Y26340200I-9238J3782D01*
G01X23394300D01*
G02X23385800Y26345000I42J10001D01*
G01X23376800Y26359600D01*
G02X23376400Y26369300I8542J5210D01*
G03X23322600Y26412400I-31399J15933D01*
G02X23316300Y26410100I-6377J7688D01*
G01X23303600D01*
G02X23297200Y26412300I-144J9991D01*
G03X23254400Y26413500I-22183J-27310D01*
G02X23248500Y26411600I-5873J8125D01*
G01X23236700Y26411700D01*
G02X23230800Y26413600I-38J9992D01*
G03X23189100Y26413500I-20782J-28403D01*
G02X23183100Y26411600I-5862J8089D01*
G01X23176900D01*
G02X23170900Y26413500I-138J9989D01*
G03X23118600Y26369300I-20895J-28318D01*
G02X23118200Y26359600I-8942J-4490D01*
G01X23109200Y26345000D01*
G02X23100700Y26340200I-8542J5201D01*
G01X22392600D01*
G02X22383200Y26346800I-4J9989D01*
G01X22383100Y26346900D01*
G03X22355900Y26369700I-33122J-11889D01*
G02X22349400Y26373900I1744J9829D01*
G01X22341200Y26385700D01*
G02X22339600Y26393300I8192J5693D01*
G03X22339700Y26394000I-34796J5328D01*
G01X22339900Y26395000D01*
X22341000Y26397800D01*
G02X22343200Y26401200I9315J-3615D01*
G01X22393700Y26451700D01*
G03X22396600Y26458700I-7099J7042D01*
G01Y26520600D01*
X22396900Y26520800D01*
G03X22408800Y26552100I-23007J26659D01*
G02X22411200Y26560000I9912J1303D01*
G01X22421200Y26571400D01*
G02X22428700Y26574800I7512J-6598D01*
G01X22470000D01*
G03X22502700Y26597000I0J35183D01*
G01X22503500Y26598900D01*
X22521100Y26616500D01*
X22523000Y26617300D01*
G03X22510000Y26685200I-13000J32706D01*
G01X22504800D01*
G03X22479900Y26674900I0J-35248D01*
G01X22453100Y26648100D01*
G02X22446100Y26645200I-7040J7095D01*
G01X21896900D01*
G03X21872000Y26634900I0J-35248D01*
G01X21442700Y26205600D01*
G03X21439800Y26198500I7105J-7044D01*
G01Y26031600D01*
G02X21436900Y26024600I-9999J42D01*
G01X21436500Y26024200D01*
X21432900Y26022700D01*
X21171900D01*
X21171700Y26023000D01*
G03X21117300Y26021700I-26666J-22992D01*
G02X21110000Y26017900I-7853J6174D01*
G01X21094900Y26016900D01*
G02X21087300Y26019800I-538J9998D01*
G37*
G36*
G01X21319600Y25787500D02*
X21164800Y25942300D01*
G02X21161900Y25949900I7098J7062D01*
G01X21162900Y25965000D01*
G02X21166700Y25972300I9974J-553D01*
G03X21171700Y25977000I-21503J27885D01*
G01X21171900Y25977300D01*
X21430900D01*
G02X21437900Y25974400I-42J-9999D01*
G01X21438300Y25974000D01*
X21439800Y25970400D01*
Y25823700D01*
G02X21429800Y25813700I-10000J0D01*
G01X21400300D01*
G03X21333500Y25787300I0J-97712D01*
G02X21319600Y25787500I-6847J7288D01*
G37*
G36*
G01X21020000Y24827500D02*
Y24840000D01*
X20998700Y24841300D01*
X21000000Y24820000D01*
X21012500D01*
G03X21020000Y24827500I0J7500D01*
G37*
G36*
G01X21095000Y24922500D02*
Y24935000D01*
X21073700Y24936300D01*
X21075000Y24915000D01*
X21087500D01*
G03X21095000Y24922500I0J7500D01*
G37*
G36*
G01X21439100Y25994700D02*
X21469700Y25964100D01*
X21476900Y25992500D01*
Y26007500D01*
X21469700Y26035900D01*
X21439100Y26005300D01*
G03Y25994700I5300J-5300D01*
G37*
G36*
G01X21462800Y25798500D02*
X21400300D01*
X21396800Y25712500D01*
X21482800Y25716000D01*
Y25778500D01*
G03X21462800Y25798500I-20000J0D01*
G37*
G36*
G01X21168000Y26005300D02*
X21159000Y26014100D01*
X21143100Y26000000D01*
X21159000Y25985900D01*
X21168000Y25994700D01*
G03Y26005300I-5300J5300D01*
G37*
G36*
G01X20892300Y24890500D02*
Y24954000D01*
X20842900Y24904700D01*
X20874600Y24872900D01*
X20892300Y24890500D01*
G37*
G36*
G01X21342800Y25379500D02*
X21400300D01*
X21404700Y25466400D01*
X21317800Y25462000D01*
Y25404500D01*
G03X21342800Y25379500I25000J0D01*
G37*
G36*
G01X20964700Y26113000D02*
X20955900Y26104000D01*
X20970000Y26088100D01*
X20984100Y26104000D01*
X20975300Y26113000D01*
G03X20964700I-5300J-5300D01*
G37*
G36*
G01X21500000Y25610000D02*
Y25761800D01*
G02X21502900Y25768800I9995J-40D01*
G01X21507300Y25773200D01*
G03X21510200Y25780300I-7105J7044D01*
G01Y26133700D01*
G02X21514500Y26141900I10007J-20D01*
G01X21528200Y26151300D01*
G02X21537400Y26152400I5650J-8234D01*
G01X21537500D01*
G03X21575000Y26210100I12511J32905D01*
G02X21572100Y26217100I7099J7042D01*
G01Y26231400D01*
G02X21575100Y26238400I10010J-147D01*
G01X21581500Y26244800D01*
G02X21582100Y26245300I6667J-7390D01*
G01X21672200Y26322600D01*
G02X21678700Y26325000I6499J-7600D01*
G01X21893800D01*
G02X21900800Y26322100I-42J-10001D01*
G01X21907700Y26315200D01*
G03X21914700Y26312300I7042J7099D01*
G01X22323100D01*
X22323300Y26312000D01*
G03X22381600Y26319400I26703J22976D01*
G02X22390500Y26325000I8972J-4386D01*
G01X22401400D01*
G02X22407700Y26322700I-75J-9983D01*
G03X22452300I22300J27300D01*
G02X22458600Y26325000I6375J-7683D01*
G01X23438500D01*
G02X23447300Y26319800I25J-10004D01*
G01X23455800Y26304300D01*
G02X23455400Y26294100I-8799J-4763D01*
G01Y26294000D01*
G03X23514600I29600J-19000D01*
G01Y26294100D01*
G02X23514200Y26304300I8399J5437D01*
G01X23522700Y26319800D01*
G02X23531500Y26325000I8775J-4804D01*
G01X23963500D01*
G02X23972300Y26319800I25J-10004D01*
G01X23980800Y26304300D01*
G02X23980400Y26294100I-8799J-4763D01*
G01Y26294000D01*
G03X24039600I29600J-19000D01*
G01Y26294100D01*
G02X24039200Y26304300I8399J5437D01*
G01X24047700Y26319800D01*
G02X24056500Y26325000I8775J-4804D01*
G01X24092300D01*
G02X24099400Y26322100I57J-10002D01*
G01X24108800Y26312700D01*
G03X24115800Y26309800I7041J7098D01*
G01X24642000D01*
G02X24651000Y26304100I-27J-9998D01*
G01X24658800Y26287700D01*
G02X24657600Y26277100I-8986J-4351D01*
G03X24661400Y26228900I27402J-22090D01*
G02X24664600Y26222900I-6704J-7429D01*
G01X24666400Y26210100D01*
G02X24665000Y26203500I-9886J-1351D01*
G03X24718600Y26211100I29961J-18497D01*
G02X24715400Y26217100I6704J7429D01*
G01X24713600Y26229900D01*
G02X24715000Y26236500I9886J1351D01*
G03X24712400Y26277100I-29988J18463D01*
G02X24711200Y26287700I7786J6249D01*
G01X24719000Y26304100D01*
G02X24728000Y26309800I9027J-4298D01*
G01X24924900D01*
G02X24932300Y26306600I63J-10010D01*
G01X24942300Y26295600D01*
G02X24944900Y26288000I-7341J-6756D01*
G03X25013100Y26297100I35100J-2945D01*
G01X25013000D01*
G02X25015400Y26307700I9410J3441D01*
G01X25029800Y26322100D01*
G02X25036900Y26325000I7043J-7102D01*
G01X25065000D01*
G03X25075000Y26335000I0J10000D01*
G01Y26363100D01*
G02X25077900Y26370200I10002J57D01*
G01X25105200Y26397500D01*
X25106900D01*
G03X25141100Y26396400I18089J30199D01*
G02X25145700Y26397500I4560J-8901D01*
G01X25204100D01*
G02X25211200Y26394600I57J-10002D01*
G01X25293100Y26312700D01*
G03X25300100Y26309800I7041J7098D01*
G01X25574500D01*
G03X25581500Y26312700I-41J9998D01*
G01X25646700Y26377900D01*
G02X25650800Y26380400I7105J-7041D01*
G03X25659400Y26384500I-10712J33538D01*
G02X25664900Y26386200I5576J-8291D01*
G01X25665000D01*
G02X25675000Y26376200I0J-10000D01*
G01Y26255100D01*
G02X25671800Y26247700I-10006J-65D01*
G01X25660800Y26237600D01*
G02X25653100Y26235100I-6675J7450D01*
G03X25646800Y26164900I-3150J-35100D01*
G02X25652900Y26162100I-872J-9945D01*
G01X25662100Y26152900D01*
G02X25664900Y26146800I-7145J-6972D01*
G03X25672700Y26127700I35088J3186D01*
G02X25675000Y26121400I-7683J-6375D01*
G01Y25885000D01*
G02X25665000Y25875000I-10000J0D01*
G01X25080900D01*
G02X25071800Y25880700I-61J10017D01*
G01X25064100Y25897200D01*
G02X25065400Y25907900I9010J4334D01*
G03X24914600I-75400J62100D01*
G02X24915900Y25897200I-7710J-6366D01*
G01X24908200Y25880700D01*
G02X24899100Y25875000I-9039J4317D01*
G01X24709900D01*
G02X24700000Y25883900I34J9994D01*
G03X24630000I-35000J-3900D01*
G02X24620100Y25875000I-9934J1094D01*
G01X24299300D01*
G02X24290800Y25879800I42J10001D01*
G01X24281800Y25894400D01*
G02X24281400Y25904100I8542J5210D01*
G03X24218600I-31400J15900D01*
G02X24218200Y25894400I-8942J-4490D01*
G01X24209200Y25879800D01*
G02X24200700Y25875000I-8542J5201D01*
G01X24036300D01*
G02X24027000Y25881200I-43J10011D01*
G02X24029200Y25892100I9261J3803D01*
G01X24073900Y25936700D01*
G02X24077100Y25938900I7141J-6960D01*
G01X24080100Y25940200D01*
X24081200Y25940300D01*
G03X24039800Y25975000I-6158J34700D01*
G01Y25971000D01*
G02X24036900Y25964000I-10001J42D01*
G01X23973600Y25900700D01*
G02X23964900Y25897900I-7072J7057D01*
G01X23948800Y25900500D01*
G02X23941400Y25905800I1486J9890D01*
G03X23931700Y25917700I-31461J-15742D01*
G02X23927900Y25925000I6174J7853D01*
G01X23926900Y25940100D01*
G02X23929800Y25947700I9998J538D01*
G01X23994000Y26011900D01*
G02X24000800Y26014800I7044J-7095D01*
G03X23964800Y26050800I-800J35200D01*
G02X23961900Y26044000I-9995J244D01*
G01X23814500Y25896600D01*
G02X23807500Y25893700I-7042J7101D01*
G01X23715300D01*
G02X23708100Y25896700I-56J10005D01*
G01X23698000Y25907000D01*
G02X23695200Y25914200I7204J6946D01*
G03X23633500Y25938200I-35200J816D01*
G02X23633000Y25937600I-7915J6087D01*
G01X23632000Y25936700D01*
X23628400Y25935200D01*
X23609400D01*
G02X23601700Y25938800I-12J10008D01*
G01X23591800Y25950600D01*
G02X23589600Y25958800I7676J6455D01*
G01X23589700D01*
G03X23520700Y25973000I-34686J6197D01*
G01Y25972900D01*
G02X23511000Y25965200I-9732J2301D01*
G01X23466000D01*
G02X23458000Y25969100I-68J10015D01*
G01X23448300Y25981900D01*
G02X23446600Y25990600I7958J6071D01*
G03X23378800I-33900J9400D01*
G02X23377100Y25981900I-9658J-2629D01*
G01X23367400Y25969100D01*
G02X23359400Y25965200I-7932J6115D01*
G01X23126600D01*
G02X23118400Y25969500I20J10007D01*
G01X23109000Y25983200D01*
G02X23107900Y25992400I8234J5650D01*
G01Y25992500D01*
G03X23042100I-32900J12500D01*
G01Y25992400D01*
G02X23041000Y25983200I-9334J-3550D01*
G01X23031600Y25969500D01*
G02X23023400Y25965200I-8220J5707D01*
G01X22957100D01*
G02X22948600Y25969900I-10J10018D01*
G01X22939600Y25984500D01*
G02X22939200Y25994300I8521J5256D01*
G03X22876200I-31500J15700D01*
G02X22875800Y25984500I-8921J-4544D01*
G01X22866800Y25969900D01*
G02X22858300Y25965200I-8490J5318D01*
G01X22838100D01*
G02X22829600Y25969900I-10J10018D01*
G01X22820600Y25984500D01*
G02X22820200Y25994300I8521J5256D01*
G03X22757200I-31500J15700D01*
G02X22756800Y25984500I-8921J-4544D01*
G01X22747800Y25969900D01*
G02X22739300Y25965200I-8490J5318D01*
G01X22634900D01*
G02X22626700Y25969500I20J10007D01*
G01X22617300Y25983200D01*
G02X22616200Y25992400I8234J5650D01*
G01Y25992500D01*
G03X22574000Y25971100I-32877J12525D01*
G01Y25971000D01*
G02X22581000Y25964000I-2627J-9627D01*
G01X22585500Y25947100D01*
G02X22582900Y25937500I-9680J-2530D01*
G01X22523300Y25877900D01*
G02X22516300Y25875000I-7042J7101D01*
G01X21810000D01*
G03X21800000Y25865000I0J-10000D01*
G01Y25863400D01*
X21792700Y25861300D01*
G03Y25793700I9800J-33800D01*
G01X21792800D01*
G02X21800000Y25784100I-2812J-9609D01*
G01Y25610000D01*
G02X21790000Y25600000I-10000J0D01*
G01X21722700D01*
G02X21713100Y25607000I-54J10008D01*
G01X21707300Y25625200D01*
G02X21711000Y25636400I9507J3070D01*
G01Y25636500D01*
G03X21597600I-56700J79500D01*
G01Y25636400D01*
G02X21601300Y25625200I-5807J-8130D01*
G01X21595500Y25607000D01*
G02X21585900Y25600000I-9546J3008D01*
G01X21510000D01*
G02X21500000Y25610000I0J10000D01*
G37*
G36*
G01X21499000Y27673100D02*
X21448100Y27724000D01*
G02X21445200Y27730800I7095J7044D01*
G03X21381600Y27750800I-35195J-795D01*
G02X21374300Y27746700I-8105J5883D01*
G01X21359100Y27745600D01*
G02X21351200Y27748500I-825J9962D01*
G01X21342000Y27757700D01*
G02Y27771800I7088J7050D01*
G01X21342100Y27771900D01*
G02X21349300Y27774800I7041J-7093D01*
G03X21385200Y27809200I704J35198D01*
G02X21388100Y27816000I9995J-244D01*
G01X21456500Y27884400D01*
G02X21463500Y27887300I7042J-7101D01*
G01X21580800D01*
G02X21590100Y27881100I43J-10011D01*
G02X21587900Y27870200I-9261J-3803D01*
G01X21575900Y27858200D01*
G02X21569100Y27855300I-7044J7095D01*
G03X21605100Y27819300I800J-35200D01*
G02X21608000Y27826100I9995J-244D01*
G01X21626300Y27844400D01*
G02X21633300Y27847300I7042J-7101D01*
G01X21881600D01*
G02X21891200Y27840100I5J-9993D01*
G03X21958500Y27861000I33819J9906D01*
G01X21958400D01*
G02X21959900Y27870000I9537J3036D01*
G01X21969400Y27883200D01*
G02X21977500Y27887300I8081J-5915D01*
G01X22415500D01*
G02X22425300Y27879000I-50J-9995D01*
G03X22430700Y27865500I34681J6042D01*
G02Y27854500I-8357J-5500D01*
G03X22489300I29300J-19500D01*
G02Y27865500I8357J5500D01*
G03X22488100Y27906200I-29301J19504D01*
G02X22486100Y27912200I7991J5997D01*
G01Y27912300D01*
G02X22496100Y27922300I10000J0D01*
G01X22497500D01*
X22501100Y27923800D01*
X22854200Y28276900D01*
G02X22861200Y28279800I7042J-7101D01*
G01X23186000D01*
G02X23195300Y28273600I43J-10011D01*
G02X23193100Y28262700I-9261J-3803D01*
G01X22603500Y27673100D01*
G02X22596500Y27670200I-7042J7101D01*
G01X22344400D01*
G02X22336700Y27673800I-12J10008D01*
G01X22326800Y27685600D01*
G02X22324600Y27693800I7676J6455D01*
G01X22324700D01*
G03X22319200Y27719700I-34680J6169D01*
G02X22317500Y27725100I8275J5573D01*
G01X22317300Y27731000D01*
G02X22318800Y27736500I10023J221D01*
G03X22259700Y27735300I-29938J18504D01*
G02X22261400Y27729900I-8275J-5573D01*
G01X22261600Y27724000D01*
G02X22260100Y27718500I-10023J-221D01*
G03X22255300Y27693800I29875J-18622D01*
G01X22255400D01*
G02X22253200Y27685600I-9876J-1745D01*
G01X22243300Y27673800D01*
G02X22235600Y27670200I-7688J6408D01*
G01X21506000D01*
G02X21499000Y27673100I42J10001D01*
G37*
G36*
G01X20627300Y27518200D02*
X20627200D01*
G02X20619000Y27522600I87J10003D01*
G03X20613000Y27529300I-29024J-19956D01*
G01X20612700Y27529500D01*
Y27635100D01*
G03X20609800Y27642100I-9999J-42D01*
G01X20581900Y27670000D01*
G02X20579000Y27677000I7101J7042D01*
G01Y27874700D01*
G02X20585200Y27884000I10011J43D01*
G02X20596100Y27881800I3803J-9261D01*
G01X20634400Y27843500D01*
G02X20637300Y27836500I-7101J-7042D01*
G01Y27528200D01*
G02X20627300Y27518200I-10000J0D01*
G37*
G36*
G01X20553800Y27269900D02*
G03X20523500Y27295000I-33769J-9927D01*
G02X20515100Y27301600I1026J9952D01*
G01X20509000Y27318800D01*
G02X20511300Y27329200I9398J3376D01*
G01X20551500Y27369400D01*
G02X20558500Y27372300I7042J-7101D01*
G01X20850400D01*
G03X20857400Y27375200I-42J9999D01*
G01X21190100Y27707900D01*
G02X21198100Y27710700I6987J-7136D01*
G01X21213500Y27709300D01*
G02X21220900Y27704900I-917J-9965D01*
G03X21249200Y27689500I29111J19793D01*
G02X21256000Y27686600I-244J-9995D01*
G01X21270600Y27672000D01*
X21270900D01*
X21375200Y27567700D01*
G03X21382200Y27564800I7042J7099D01*
G01X21531700D01*
G02X21539700Y27560900I68J-10015D01*
G01X21549400Y27548100D01*
G02X21551100Y27539400I-7958J-6071D01*
G03X21584200Y27494800I33914J-9413D01*
G02X21591000Y27491900I-244J-9995D01*
G01X21650200Y27432700D01*
G03X21657200Y27429800I7042J7099D01*
G01X22275500D01*
G03X22282500Y27432700I-42J9999D01*
G01X22381700Y27531900D01*
G02X22388700Y27534800I7042J-7101D01*
G01X22657800D01*
G03X22664800Y27537700I-42J9999D01*
G01X23209000Y28081900D01*
G02X23216000Y28084800I7042J-7101D01*
G01X23435200D01*
G03X23442200Y28087700I-42J9999D01*
G01X23442800Y28088300D01*
X23446400Y28089800D01*
X23457800D01*
G03X23464800Y28092700I-42J9999D01*
G01X23529000Y28156900D01*
G02X23536000Y28159800I7042J-7101D01*
G01X23658400D01*
G02X23666600Y28155500I-20J-10007D01*
G01X23676000Y28141800D01*
G02X23677100Y28132600I-8234J-5650D01*
G01Y28132500D01*
G03X23730900Y28091700I32903J-12484D01*
G02X23736900Y28093600I5862J-8089D01*
G01X23743100D01*
G02X23749100Y28091700I138J-9989D01*
G03X23788300Y28089900I20941J28297D01*
G02X23793500Y28091400I5267J-8496D01*
G01X23799200D01*
G02X23804400Y28089900I-67J-9996D01*
G03X23808900Y28087600I18235J30125D01*
G01X23809000D01*
G02X23814900Y28080300I-3934J-9214D01*
G01X23818100Y28063900D01*
G02X23815300Y28054900I-9839J-1875D01*
G01X23406600Y27646200D01*
G02X23399100Y27643300I-7054J7095D01*
G01X23384300Y27644000D01*
G02X23377000Y27647600I384J9981D01*
G03X23327400Y27598000I-27000J-22600D01*
G02X23331000Y27590700I-6381J-7684D01*
G01X23331700Y27575900D01*
G02X23328800Y27568400I-9995J-446D01*
G01X23196000Y27435600D01*
G02X23189000Y27432700I-7042J7101D01*
G01X22812200D01*
G03X22805200Y27429800I42J-9999D01*
G01X22641000Y27265600D01*
G02X22634000Y27262700I-7042J7101D01*
G01X20563400D01*
G02X20553800Y27269900I-5J9993D01*
G37*
G36*
G01X20472700Y26949900D02*
Y27115200D01*
G02X20476100Y27122700I9998J-12D01*
G01X20487500Y27132700D01*
G02X20495400Y27135100I6597J-7512D01*
G03Y27204900I4600J34900D01*
G02X20487500Y27207300I-1303J9912D01*
G01X20476100Y27217300D01*
G02X20472700Y27224800I6598J7512D01*
G01Y27234400D01*
G02X20482700Y27244400I10000J0D01*
G01X20482800D01*
G02X20491000Y27240000I-87J-10003D01*
G03X20519200Y27224800I28979J20004D01*
G02X20526000Y27221900I-244J-9995D01*
G01X20527700Y27220200D01*
G03X20534700Y27217300I7042J7099D01*
G01X22611000D01*
G02X22620300Y27211100I43J-10011D01*
G02X22618100Y27200200I-9261J-3803D01*
G01X22393500Y26975600D01*
G02X22386500Y26972700I-7042J7101D01*
G01X20562200D01*
G03X20555200Y26969800I42J-9999D01*
G01X20528400Y26943000D01*
G02X20523400Y26940300I-7057J7088D01*
G01X20522500Y26940100D01*
X20521900D01*
G03X20504500Y26933600I3185J-35064D01*
G02X20494100Y26932800I-5855J8120D01*
G01X20478100Y26941000D01*
G02X20472700Y26949900I4613J8887D01*
G37*
G36*
G01X20483300Y27852800D02*
Y28407100D01*
G02X20486200Y28414100I10001J-42D01*
G01X20516500Y28444400D01*
G02X20527400Y28446600I7097J-7061D01*
G02X20533600Y28437300I-3811J-9257D01*
G01Y27658200D01*
G03X20536500Y27651200I9999J42D01*
G01X20564400Y27623300D01*
G02X20567300Y27616300I-7101J-7042D01*
G01Y27611800D01*
G02X20557300Y27601800I-10000J0D01*
G01X20555300D01*
X20553400Y27602500D01*
G03X20540800Y27605200I-13547J-32469D01*
G02X20534000Y27608100I244J9995D01*
G01X20465600Y27676500D01*
G02X20462700Y27683500I7101J7042D01*
G01Y27824000D01*
G02X20465600Y27831000I10001J-42D01*
G01X20480400Y27845800D01*
G03X20483300Y27852800I-7099J7042D01*
G37*
G36*
G01X22015300Y26742700D02*
X20731100D01*
G02X20724100Y26745600I42J9999D01*
G01X20716800Y26752800D01*
X20716600Y26753100D01*
G03X20713400Y26756300I-26450J-23250D01*
G02X20710100Y26763500I6686J7420D01*
G01X20709600Y26778100D01*
G02X20712600Y26785500I10014J248D01*
G01X20791500Y26864400D01*
G02X20798500Y26867300I7042J-7101D01*
G01X22498300D01*
G02X22507600Y26861100I43J-10011D01*
G02X22505400Y26850200I-9261J-3803D01*
G01X22400800Y26745600D01*
G02X22393800Y26742700I-7042J7101D01*
G01X22124900D01*
G02X22117400Y26746100I10J9994D01*
G01X22107400Y26757500D01*
G02X22105000Y26765400I7509J6596D01*
G01Y26765500D01*
G03X22035200I-34900J4600D01*
G01Y26765400D01*
G02X22032800Y26757500I-9909J-1304D01*
G01X22022800Y26746100D01*
G02X22015300Y26742700I-7510J6594D01*
G37*
G36*
G01X20551500Y27450600D02*
X20315600Y27686500D01*
G02X20312700Y27693500I7101J7042D01*
G01Y27826500D01*
G02X20322700Y27836500I10000J0D01*
G01X20324100D01*
X20325500Y27836100D01*
G03X20328500Y27835400I9492J33900D01*
G02X20334100Y27832300I-1793J-9848D01*
G01X20342300Y27823100D01*
G02X20344800Y27817200I-7471J-6645D01*
G03X20390900Y27786500I35084J2721D01*
G02X20399900Y27785100I3130J-9510D01*
G01X20413200Y27775500D01*
G02X20417300Y27767400I-5906J-8077D01*
G01Y27664700D01*
G03X20420200Y27657700I9999J42D01*
G01X20501900Y27576000D01*
G02X20504800Y27569200I-7095J-7044D01*
G03X20537500Y27534900I35190J811D01*
G02X20544800Y27530900I-718J-9972D01*
G01X20554000Y27518600D01*
G02X20555700Y27510400I-8066J-5948D01*
G03X20585300Y27467700I34317J-7821D01*
G01X20585400D01*
G02X20594100Y27457800I-1310J-9924D01*
G01Y27457700D01*
G02X20584100Y27447700I-10000J0D01*
G01X20558500D01*
G02X20551500Y27450600I42J10001D01*
G37*
G36*
G01X20508000Y26730200D02*
G03X20493600Y26732700I-13091J-32681D01*
G02X20486200Y26735500I-453J9981D01*
G01X20475800Y26745500D01*
G02X20472700Y26752700I6899J7238D01*
G01Y26860100D01*
G02X20478100Y26869000I10013J13D01*
G01X20494100Y26877200D01*
G02X20504500Y26876400I4545J-8920D01*
G03X20560200Y26905000I20507J28600D01*
G01Y26906500D01*
G02X20563100Y26913500I10001J-42D01*
G01X20574000Y26924400D01*
G02X20581000Y26927300I7042J-7101D01*
G01X20701000D01*
G02X20710300Y26921100I43J-10011D01*
G02X20708100Y26910200I-9261J-3803D01*
G01X20620500Y26822600D01*
G02X20613100Y26819600I-7152J7014D01*
G01X20598500Y26820100D01*
G02X20591300Y26823400I220J9986D01*
G03X20538600Y26776700I-26350J-23350D01*
G02X20541100Y26771000I-7467J-6673D01*
G01X20541600Y26764700D01*
G02X20540100Y26758600I-9975J-782D01*
G03X20535300Y26745700I29947J-18486D01*
G01Y26745600D01*
G02X20530300Y26738500I-9889J1654D01*
G01X20516600Y26730800D01*
G02X20508000Y26730200I-4928J8696D01*
G37*
G36*
G01X20160000Y27782500D02*
Y27770000D01*
X20181300Y27768700D01*
X20180000Y27790000D01*
X20167500D01*
G03X20160000Y27782500I0J-7500D01*
G37*
G36*
G01X20584700Y27525600D02*
X20575900Y27516600D01*
X20590000Y27500700D01*
X20604100Y27516600D01*
X20595300Y27525600D01*
G03X20584700I-5300J-5300D01*
G37*
G36*
G01X20842500Y27660000D02*
X20830000D01*
X20828700Y27638700D01*
X20850000Y27640000D01*
Y27652500D01*
G03X20842500Y27660000I-7500J0D01*
G37*
G36*
G01X20690000Y27502500D02*
Y27490000D01*
X20711300Y27488700D01*
X20710000Y27510000D01*
X20697500D01*
G03X20690000Y27502500I0J-7500D01*
G37*
G36*
G01X20536000Y26927400D02*
X20523500Y26924800D01*
X20523800Y26903600D01*
X20545000Y26905000D01*
Y26920000D01*
G03X20536000Y26927400I-7542J0D01*
G37*
G36*
G01X20582500Y26760000D02*
X20570000D01*
X20568700Y26738700D01*
X20590000Y26740000D01*
Y26752500D01*
G03X20582500Y26760000I-7500J0D01*
G37*
G36*
G01X20518000Y26702800D02*
X20509000Y26711600D01*
X20493100Y26697500D01*
X20509000Y26683400D01*
X20518000Y26692200D01*
G03Y26702800I-5300J5300D01*
G37*
G36*
G01X20723000Y26725300D02*
X20704100Y26744000D01*
X20688200Y26730600D01*
X20700000Y26720000D01*
X20717700D01*
X20723000Y26725300D01*
G37*
G36*
G01X20520000Y27582500D02*
Y27570000D01*
X20541300Y27568700D01*
X20540000Y27590000D01*
X20527500D01*
G03X20520000Y27582500I0J-7500D01*
G37*
G36*
G01X20540000Y27247500D02*
Y27260000D01*
X20518700Y27261300D01*
X20520000Y27240000D01*
X20532500D01*
G03X20540000Y27247500I0J7500D01*
G37*
G36*
G01X20975300Y26477000D02*
X20984100Y26486000D01*
X20970000Y26501900D01*
X20955900Y26486000D01*
X20964700Y26477000D01*
G03X20975300I5300J5300D01*
G37*
G36*
G01X21430000Y27717500D02*
Y27730000D01*
X21408700Y27731300D01*
X21410000Y27710000D01*
X21422500D01*
G03X21430000Y27717500I0J7500D01*
G37*
G36*
G01X21312600Y27762500D02*
Y27775000D01*
X21291300Y27776300D01*
X21292600Y27755000D01*
X21305100D01*
G03X21312600Y27762500I0J7500D01*
G37*
G36*
G01X21270000Y27712200D02*
Y27724700D01*
X21248700Y27726000D01*
X21250000Y27704700D01*
X21262500D01*
G03X21270000Y27712200I0J7500D01*
G37*
G36*
G01X20309400Y28271300D02*
X20296700Y28276100D01*
G02X20291300Y28281000I3565J9354D01*
G03X20272100Y28298300I-31521J-15678D01*
G02X20266400Y28303700I3467J9368D01*
G01X20260600Y28317200D01*
G02X20260700Y28325100I9236J3834D01*
G03X20171700Y28386800I-50673J21946D01*
G02X20160900Y28384800I-6915J7184D01*
G01X20143800Y28392000D01*
G02X20137700Y28401200I3907J9213D01*
G01Y28492500D01*
G02X20140600Y28499500I10001J-42D01*
G01X20184000Y28542900D01*
G02X20191000Y28545800I7042J-7101D01*
G01X20210000D01*
G03X20213100Y28545900I-229J55193D01*
G01X20220800Y28539800D01*
G02X20224300Y28534500I-6174J-7883D01*
G03X20261400Y28508400I34041J8969D01*
G02X20269700Y28505200I927J-9959D01*
G01X20280400Y28493200D01*
G02X20282800Y28484600I-7400J-6700D01*
G03X20337000Y28418800I54200J-10578D01*
G01X20356000D01*
G02X20363000Y28415900I-42J-10001D01*
G01X20375000Y28403900D01*
G02X20377900Y28396900I-7101J-7042D01*
G01Y28292300D01*
G02X20373900Y28284400I-9984J93D01*
G01X20361100Y28274700D01*
G02X20352300Y28273000I-6098J7941D01*
G01Y28273100D01*
G03X20316700Y28271300I-15161J-53088D01*
G02X20309400I-3650J9311D01*
G37*
G36*
G01X20739900Y27818500D02*
G03X20705400Y27834900I-29938J-18490D01*
G02X20697500Y27837300I-1303J9912D01*
G01X20686100Y27847300D01*
G02X20682700Y27854800I6598J7512D01*
G01Y27855300D01*
G03X20679800Y27862300I-9999J-42D01*
G01X20645600Y27896500D01*
G02X20642700Y27903500I7101J7042D01*
G01Y28058100D01*
X20643000Y28058300D01*
G03X20652700Y28097900I-23020J26627D01*
G02X20655000Y28108700I9323J3659D01*
G02X20669200I7100J-7042D01*
G01X20671900Y28106000D01*
G02X20674800Y28099200I-7095J-7044D01*
G03X20719400Y28066100I35187J814D01*
G02X20728400Y28064200I2666J-9640D01*
G01X20741100Y28054000D01*
G02X20744900Y28045700I-6200J-7858D01*
G01X20744800D01*
G03X20775300Y28008900I35171J-1889D01*
G01X20776100Y28008800D01*
X20778100Y28008200D01*
G02X20782200Y28005700I-3007J-9543D01*
G01X20856900Y27931000D01*
G02X20859800Y27924000I-7101J-7042D01*
G01Y27835300D01*
G02X20856900Y27828200I-10008J-55D01*
G01X20846900Y27818100D01*
G02X20839800Y27815200I-7050J7119D01*
G03X20819900Y27808900I197J-35200D01*
G02X20814300Y27807100I-5730J8215D01*
G01X20808100D01*
G02X20802500Y27808900I130J10015D01*
G03X20766200Y27811300I-20139J-28888D01*
G02X20759000Y27810500I-4627J8847D01*
G01X20745800Y27814100D01*
G02X20739900Y27818500I2626J9677D01*
G37*
G36*
G01X20392400Y27839900D02*
X20379900D01*
X20378600Y27818600D01*
X20399900Y27819900D01*
Y27832400D01*
G03X20392400Y27839900I-7500J0D01*
G37*
G36*
G01X20377000Y28695500D02*
Y28728000D01*
X20335700Y28729300D01*
X20337000Y28688000D01*
X20369500D01*
G03X20377000Y28695500I0J7500D01*
G37*
G36*
G01X20347500Y27890000D02*
X20335000D01*
X20333700Y27868700D01*
X20355000Y27870000D01*
Y27882500D01*
G03X20347500Y27890000I-7500J0D01*
G37*
G36*
G01X20377000Y28441500D02*
Y28474000D01*
X20335700Y28475300D01*
X20337000Y28434000D01*
X20369500D01*
G03X20377000Y28441500I0J7500D01*
G37*
G36*
G01X20177500Y28561000D02*
X20210000D01*
X20211300Y28602300D01*
X20170000Y28601000D01*
Y28568500D01*
G03X20177500Y28561000I7500J0D01*
G37*
G36*
G01X20166100Y27881100D02*
Y27868600D01*
X20187400Y27867300D01*
X20186100Y27888600D01*
X20173600D01*
G03X20166100Y27881100I0J-7500D01*
G37*
G36*
G01X20177500Y28307000D02*
X20210000D01*
X20211300Y28348300D01*
X20170000Y28347000D01*
Y28314500D01*
G03X20177500Y28307000I7500J0D01*
G37*
G36*
G01X20359300Y28157500D02*
X20367200Y28195500D01*
X20336600Y28221800D01*
X20308800Y28191800D01*
X20346700Y28153700D01*
G03X20359300Y28157500I5271J5311D01*
G37*
G36*
G01X20627100Y28501700D02*
X20639600D01*
X20640900Y28523000D01*
X20619600Y28521700D01*
Y28509200D01*
G03X20627100Y28501700I7500J0D01*
G37*
G36*
G01X20637700Y28450000D02*
X20650200D01*
X20651500Y28471300D01*
X20630200Y28470000D01*
Y28457500D01*
G03X20637700Y28450000I7500J0D01*
G37*
G36*
G01X20690000Y28112500D02*
Y28100000D01*
X20711300Y28098700D01*
X20710000Y28120000D01*
X20697500D01*
G03X20690000Y28112500I0J-7500D01*
G37*
G36*
G01X20800000Y28027500D02*
Y28043800D01*
X20778900Y28045300D01*
X20777800Y28024200D01*
X20790300Y28020300D01*
G03X20800000Y28027500I2178J7200D01*
G37*
G36*
G01X20625300Y28062000D02*
X20634100Y28071000D01*
X20620000Y28086900D01*
X20605900Y28071000D01*
X20614700Y28062000D01*
G03X20625300I5300J5300D01*
G37*
G36*
G01X20763000Y28821200D02*
X20755900Y28814100D01*
X20770000Y28797500D01*
X20784100Y28814100D01*
X20777000Y28821200D01*
G03X20763000I-7000J-7100D01*
G37*
G36*
G01X20823000D02*
X20815900Y28814100D01*
X20830000Y28797500D01*
X20844100Y28814100D01*
X20837000Y28821200D01*
G03X20823000I-7000J-7100D01*
G37*
G36*
G01X20690000Y28767500D02*
Y28780000D01*
X20668700Y28781300D01*
X20670000Y28760000D01*
X20682500D01*
G03X20690000Y28767500I0J7500D01*
G37*
G36*
G01X20932600Y28779800D02*
X20945100Y28780100D01*
X20946300Y28801300D01*
X20925000Y28800000D01*
Y28787300D01*
G03X20932600Y28779800I7501J0D01*
G37*
G36*
G01X21362500Y27830000D02*
X21350000D01*
X21348700Y27808700D01*
X21370000Y27810000D01*
Y27822500D01*
G03X21362500Y27830000I-7500J0D01*
G37*
G36*
G01X20597500Y28550000D02*
X20610000D01*
X20611300Y28571300D01*
X20590000Y28570000D01*
Y28557500D01*
G03X20597500Y28550000I7500J0D01*
G37*
G36*
G01X20244400Y28258400D02*
X20211900Y28259900D01*
X20208600Y28218700D01*
X20249900Y28218200D01*
X20251500Y28250600D01*
G03X20244400Y28258400I-7499J305D01*
G37*
G36*
G01X20246300Y28245900D02*
X20258800Y28245400D01*
X20261200Y28266600D01*
X20239900Y28266300D01*
X20239200Y28253800D01*
G03X20246300Y28245900I7500J-400D01*
G37*
G36*
G01X22362500Y24835000D02*
X22350000D01*
X22348700Y24813700D01*
X22370000Y24815000D01*
Y24827500D01*
G03X22362500Y24835000I-7500J0D01*
G37*
G36*
G01X22421600Y25350600D02*
X22474500Y25403700D01*
X22416300Y25463900D01*
X22358100Y25403700D01*
X22411000Y25350600D01*
G03X22421600I5300J5300D01*
G37*
G36*
G01X23006800Y25387000D02*
Y25462000D01*
X22923000Y25463300D01*
X22924300Y25379500D01*
X22999300D01*
G03X23006800Y25387000I0J7500D01*
G37*
G36*
G01X22752800D02*
Y25462000D01*
X22669000Y25463300D01*
X22670300Y25379500D01*
X22745300D01*
G03X22752800Y25387000I0J7500D01*
G37*
G36*
G01X22190000Y25047500D02*
Y25035000D01*
X22211300Y25033700D01*
X22210000Y25055000D01*
X22197500D01*
G03X22190000Y25047500I0J-7500D01*
G37*
G36*
G01X22167600Y25350600D02*
X22220500Y25403700D01*
X22162300Y25463900D01*
X22104100Y25403700D01*
X22157000Y25350600D01*
G03X22167600I5300J5300D01*
G37*
G36*
G01X21913600D02*
X21966500Y25403700D01*
X21908300Y25463900D01*
X21850100Y25403700D01*
X21903000Y25350600D01*
G03X21913600I5300J5300D01*
G37*
G36*
G01X21904700Y25003000D02*
X21895900Y24994000D01*
X21910000Y24978100D01*
X21924100Y24994000D01*
X21915300Y25003000D01*
G03X21904700I-5300J-5300D01*
G37*
G36*
G01X22512500Y24699000D02*
X22525000D01*
X22526300Y24720300D01*
X22505000Y24719000D01*
Y24706500D01*
G03X22512500Y24699000I7500J0D01*
G37*
G36*
G01X22442500Y24760000D02*
X22455000D01*
X22456300Y24781300D01*
X22435000Y24780000D01*
Y24767500D01*
G03X22442500Y24760000I7500J0D01*
G37*
G36*
G01X21825500Y25832800D02*
X21816500Y25841600D01*
X21800600Y25827500D01*
X21816500Y25813400D01*
X21825500Y25822200D01*
G03Y25832800I-5300J5300D01*
G37*
G36*
G01X22341300Y25633500D02*
X22416300D01*
X22417600Y25717300D01*
X22333800Y25716000D01*
Y25641000D01*
G03X22341300Y25633500I7500J0D01*
G37*
G36*
G01X22511000Y25798500D02*
X22416300D01*
X22414800Y25714800D01*
X22498500Y25714100D01*
X22518300Y25789100D01*
G03X22511000Y25798500I-7300J1865D01*
G37*
G36*
G01X22665000Y25827400D02*
X22612100Y25774300D01*
X22670300Y25714100D01*
X22728500Y25774300D01*
X22675600Y25827400D01*
G03X22665000I-5300J-5300D01*
G37*
G36*
G01X23050000Y25582800D02*
Y25567500D01*
X23071200Y25566000D01*
X23071600Y25587200D01*
X23059100Y25590100D01*
G03X23050000Y25582800I-1622J-7300D01*
G37*
G36*
G01X23006800Y25641000D02*
Y25716000D01*
X22923000Y25717300D01*
X22924300Y25633500D01*
X22999300D01*
G03X23006800Y25641000I0J7500D01*
G37*
G36*
G01X22753000Y25830300D02*
X22744000Y25839100D01*
X22728100Y25825000D01*
X22744000Y25810900D01*
X22753000Y25819700D01*
G03Y25830300I-5300J5300D01*
G37*
G36*
G01X21694000Y26357300D02*
X21908600Y26571900D01*
G02X21915600Y26574800I7040J-7095D01*
G01X22049300D01*
G02X22058300Y26569100I-23J-9992D01*
G01X22066200Y26552700D01*
G02X22065000Y26542200I-9036J-4286D01*
G01X22064900Y26542100D01*
G03X22119100Y26497100I27509J-22007D01*
G01X22119300Y26497400D01*
X22278200D01*
X22278400Y26497100D01*
G03X22333100Y26498800I26662J22993D01*
G01X22333200D01*
G02X22341100Y26502800I7990J-5978D01*
G01X22341200D01*
G02X22351200Y26492800I0J-10000D01*
G01Y26477500D01*
G02X22348300Y26470500I-10001J42D01*
G01X22315900Y26438100D01*
G02X22308900Y26435200I-7042J7101D01*
G01X22305000D01*
G03X22272800Y26385900I0J-35166D01*
G01Y26385800D01*
G02X22272000Y26376400I-9185J-3952D01*
G01X22262800Y26362200D01*
G02X22254400Y26357700I-8362J5518D01*
G01X21933500D01*
G02X21926500Y26360600I42J10001D01*
G01X21898100Y26389000D01*
G02X21895200Y26395800I7095J7044D01*
G03X21832600Y26372900I-35194J-804D01*
G02X21833800Y26362300I-7786J-6249D01*
G01X21826000Y26345900D01*
G02X21817000Y26340200I-9027J4298D01*
G01X21701100D01*
G02X21691800Y26346400I-48J10004D01*
G02X21694000Y26357300I9247J3806D01*
G37*
G36*
G01X24133800Y26373100D02*
X24067100Y26439800D01*
X24063500Y26441300D01*
X24061700D01*
X23995700Y26507300D01*
G03X23988700Y26510200I-7041J-7098D01*
G01X22986600D01*
G02X22979500Y26513100I-57J10002D01*
G01X22805800Y26686800D01*
G02X22802900Y26693900I7102J7043D01*
G01Y26759300D01*
G02X22804000Y26763900I10001J40D01*
G03X22807600Y26784600I-31299J16106D01*
G02X22810000Y26792500I9912J1303D01*
G01X22820000Y26803900D01*
G02X22827500Y26807300I7512J-6598D01*
G01X22957900D01*
G03X22964900Y26810200I-42J9999D01*
G01X23114100Y26959400D01*
G02X23121100Y26962300I7042J-7101D01*
G01X23307500D01*
G02X23315600Y26958200I19J-10015D01*
G01X23325100Y26945000D01*
G02X23326600Y26936000I-8037J-5964D01*
G01X23326500D01*
G03X23359200Y26889800I33466J-10985D01*
G02X23366000Y26886900I-244J-9995D01*
G01X23427700Y26825200D01*
G03X23434700Y26822300I7042J7099D01*
G01X24481500D01*
G02X24488500Y26819400I-42J-10001D01*
G01X24836700Y26471200D01*
G02X24839600Y26464200I-7101J-7042D01*
G01Y26431900D01*
X24839300Y26431700D01*
G03X24828400Y26395600I23013J-26644D01*
G02X24826700Y26386900I-9658J-2629D01*
G01X24817000Y26374100D01*
G02X24809000Y26370200I-7932J6115D01*
G01X24140900D01*
G02X24133800Y26373100I-57J10002D01*
G37*
G36*
G01X22256700Y27475200D02*
X21676000D01*
G02X21669000Y27478100I42J10001D01*
G01X21623100Y27524000D01*
G02X21620200Y27530800I7095J7044D01*
G03X21618900Y27539400I-35184J-920D01*
G02X21620600Y27548100I9658J2629D01*
G01X21630300Y27560900D01*
G02X21638300Y27564800I7932J-6115D01*
G01X22326200D01*
G02X22335500Y27558600I43J-10011D01*
G02X22333300Y27547700I-9261J-3803D01*
G01X22263700Y27478100D01*
G02X22256700Y27475200I-7042J7101D01*
G37*
G36*
G01X24200200Y28294700D02*
Y28394200D01*
G02X24203100Y28401200I10001J-42D01*
G01X24423700Y28621800D01*
G02X24427100Y28624100I7195J-6973D01*
G01X24429900Y28625100D01*
X24430900Y28625300D01*
G03X24438400Y28627500I-6090J34644D01*
G01X24440300Y28628200D01*
X24442300D01*
G02X24452300Y28618200I0J-10000D01*
G01Y28596000D01*
G02X24449400Y28589000I-10001J42D01*
G01X24300200Y28439800D01*
G03X24297300Y28432800I7099J-7042D01*
G01Y28193500D01*
G02X24294400Y28186500I-10001J42D01*
G01X23678500Y27570600D01*
G02X23671500Y27567700I-7042J7101D01*
G01X23577300D01*
G03X23570300Y27564800I42J-9999D01*
G01X22921100Y26915600D01*
G02X22914100Y26912700I-7042J7101D01*
G01X22461500D01*
G02X22452200Y26918900I-43J10011D01*
G02X22454400Y26929800I9261J3803D01*
G01X22622100Y27097500D01*
G02X22636300I7100J-7033D01*
G01X22637500Y27096300D01*
X22638300Y27094800D01*
G03X22640700Y27090500I31839J14951D01*
G02Y27079500I-8357J-5500D01*
G03Y27040500I29300J-19500D01*
G02Y27029500I-8357J-5500D01*
G03X22699300I29300J-19500D01*
G02Y27040500I8357J5500D01*
G03Y27079500I-29300J19500D01*
G02Y27090500I8357J5500D01*
G03X22692600Y27137000I-29300J19511D01*
G02X22689000Y27144300I6381J7684D01*
G01X22688300Y27159100D01*
G02X22691200Y27166600I9995J446D01*
G01X22849000Y27324400D01*
G02X22856000Y27327300I7042J-7101D01*
G01X23232800D01*
G03X23239800Y27330200I-42J9999D01*
G01X24197300Y28287700D01*
G03X24200200Y28294700I-7099J7042D01*
G37*
G36*
G01X22119300Y26542800D02*
X22119100Y26543100D01*
G03X22098100Y26554800I-26603J-23053D01*
G02X22089700Y26564700I1604J9875D01*
G01Y26564800D01*
G02X22099700Y26574800I10000J0D01*
G01X22297800D01*
G02X22307800Y26564800I0J-10000D01*
G01Y26564700D01*
G02X22299400Y26554800I-10004J-25D01*
G03X22278400Y26543100I5603J-34753D01*
G01X22278200Y26542800D01*
X22119300D01*
G37*
G36*
G01X22379200Y26524500D02*
X22388000Y26533500D01*
X22373900Y26549400D01*
X22359800Y26533500D01*
X22368600Y26524500D01*
G03X22379200I5300J5300D01*
G37*
G36*
G01X22322400Y26420000D02*
X22305000D01*
X22303500Y26398900D01*
X22324400Y26397300D01*
X22329400Y26409800D01*
G03X22322400Y26420000I-7000J2698D01*
G37*
G36*
G01X22115400Y26525400D02*
X22106400Y26534200D01*
X22090500Y26520100D01*
X22106400Y26506000D01*
X22115400Y26514800D01*
G03Y26525400I-5300J5300D01*
G37*
G36*
G01X22282100Y26514800D02*
X22291100Y26506000D01*
X22307000Y26520100D01*
X22291100Y26534200D01*
X22282100Y26525400D01*
G03Y26514800I5300J-5300D01*
G37*
G36*
G01X21880000Y26382500D02*
Y26395000D01*
X21858700Y26396300D01*
X21860000Y26375000D01*
X21872500D01*
G03X21880000Y26382500I0J7500D01*
G37*
G36*
G01X22327000Y26329700D02*
X22336000Y26320900D01*
X22351900Y26335000D01*
X22336000Y26349100D01*
X22327000Y26340300D01*
G03Y26329700I5300J-5300D01*
G37*
G36*
G01X21605000Y27517500D02*
Y27530000D01*
X21583700Y27531300D01*
X21585000Y27510000D01*
X21597500D01*
G03X21605000Y27517500I0J7500D01*
G37*
G36*
G01X21547500Y26582500D02*
X21535000D01*
X21533700Y26561200D01*
X21555000Y26562500D01*
Y26575000D01*
G03X21547500Y26582500I-7500J0D01*
G37*
G36*
G01X21905000Y27862500D02*
Y27850000D01*
X21926300Y27848700D01*
X21925000Y27870000D01*
X21912500D01*
G03X21905000Y27862500I0J-7500D01*
G37*
G36*
G01X21582400Y27840100D02*
X21569900D01*
X21568600Y27818800D01*
X21589900Y27820100D01*
Y27832600D01*
G03X21582400Y27840100I-7500J0D01*
G37*
G36*
G01X21961300Y28080000D02*
X21973800D01*
X21975100Y28101300D01*
X21953800Y28100000D01*
Y28087500D01*
G03X21961300Y28080000I7500J0D01*
G37*
G36*
G01X21875300Y29002000D02*
X21884100Y29011000D01*
X21870000Y29026900D01*
X21855900Y29011000D01*
X21864700Y29002000D01*
G03X21875300I5300J5300D01*
G37*
G36*
G01X23821900Y24972700D02*
X23809400D01*
X23808100Y24951400D01*
X23829400Y24952700D01*
Y24965200D01*
G03X23821900Y24972700I-7500J0D01*
G37*
G36*
G01X24114700Y24733000D02*
X24105900Y24724000D01*
X24120000Y24708100D01*
X24134100Y24724000D01*
X24125300Y24733000D01*
G03X24114700I-5300J-5300D01*
G37*
G36*
G01X23796000Y24777500D02*
Y24765000D01*
X23817300Y24763700D01*
X23816000Y24785000D01*
X23803500D01*
G03X23796000Y24777500I0J-7500D01*
G37*
G36*
G01X23959500Y25212500D02*
X23972000D01*
X23973300Y25233800D01*
X23952000Y25232500D01*
Y25220000D01*
G03X23959500Y25212500I7500J0D01*
G37*
G36*
G01X23917500Y25445000D02*
X23930000D01*
X23931300Y25466300D01*
X23910000Y25465000D01*
Y25452500D01*
G03X23917500Y25445000I7500J0D01*
G37*
G36*
G01X23657000Y25129700D02*
X23666000Y25120900D01*
X23681900Y25135000D01*
X23666000Y25149100D01*
X23657000Y25140300D01*
G03Y25129700I5300J-5300D01*
G37*
G36*
G01X24224200Y25167000D02*
X24233000Y25176000D01*
X24218900Y25191900D01*
X24204800Y25176000D01*
X24213600Y25167000D01*
G03X24224200I5300J5300D01*
G37*
G36*
G01X23692000Y24757500D02*
Y24770000D01*
X23670700Y24771300D01*
X23672000Y24750000D01*
X23684500D01*
G03X23692000Y24757500I0J7500D01*
G37*
G36*
G01X23542500Y25945000D02*
X23555000D01*
X23556300Y25966300D01*
X23535000Y25965000D01*
Y25952500D01*
G03X23542500Y25945000I7500J0D01*
G37*
G36*
G01X23636200Y25905900D02*
X23647600Y25899700D01*
X23661900Y25915200D01*
X23646000Y25929100D01*
X23634500Y25917800D01*
G03X23636200Y25905900I5298J-5315D01*
G37*
G36*
G01X23987500Y26030000D02*
X24000000D01*
X24001300Y26051300D01*
X23980000Y26050000D01*
Y26037500D01*
G03X23987500Y26030000I7500J0D01*
G37*
G36*
G01X24065300Y25950500D02*
X24077700Y25955600D01*
X24076100Y25976500D01*
X24055000Y25975000D01*
Y25957500D01*
G03X24065300Y25950500I7529J0D01*
G37*
G36*
G01X23173000Y25827000D02*
X23120500Y25774300D01*
X23178300Y25714100D01*
X23236100Y25774300D01*
X23183600Y25827000D01*
G03X23173000I-5300J-5300D01*
G37*
G36*
G01X23137000Y27024800D02*
X23601600Y27489400D01*
G02X23608600Y27492300I7042J-7101D01*
G01X23702800D01*
G03X23709800Y27495200I-42J9999D01*
G01X24369800Y28155200D01*
G03X24372700Y28162200I-7099J7042D01*
G01Y28401500D01*
G02X24375600Y28408500I10001J-42D01*
G01X24544800Y28577700D01*
G03X24547700Y28584700I-7099J7042D01*
G01Y28636300D01*
X24548100Y28636600D01*
G03X24558200Y28675300I-22998J26670D01*
G01Y28675400D01*
G02X24559400Y28684500I9383J3392D01*
G01X24568800Y28698000D01*
G02X24577000Y28702300I8220J-5707D01*
G01X24649700D01*
G02X24656700Y28699400I-42J-10001D01*
G01X25191500Y28164600D01*
G02X25194300Y28155700I-7054J-7110D01*
G01X25191300Y28139400D01*
G02X25185600Y28132100I-9848J1814D01*
G01X25185500D01*
G03X25174500Y28075700I14487J-32098D01*
G02X25177300Y28068800I-7192J-6937D01*
G01Y27913500D01*
G02X25174400Y27906500I-10001J42D01*
G01X24953500Y27685600D01*
G02X24946700Y27682700I-7044J7095D01*
G03X24982700Y27646700I800J-35200D01*
G02X24985600Y27653500I9995J-244D01*
G01X25219800Y27887700D01*
G03X25222700Y27894700I-7099J7042D01*
G01Y28068800D01*
G02X25225500Y28075700I9992J-37D01*
G03X25235100Y28097500I-25519J24251D01*
G02X25238000Y28103800I9966J-770D01*
G01X25238100Y28103900D01*
G02X25252200I7050J-7082D01*
G01X25264400Y28091700D01*
G02X25267300Y28084700I-7101J-7042D01*
G01Y27706900D01*
X25267000Y27706700D01*
G03X25268800Y27651900I22988J-26674D01*
G02X25272800Y27643600I-5998J-8004D01*
G01X25272400Y27627200D01*
G02X25267900Y27619200I-10000J359D01*
G03X25252400Y27590800I19702J-29183D01*
G02X25249500Y27584000I-9995J244D01*
G01X24676100Y27010600D01*
G02X24669100Y27007700I-7042J7101D01*
G01X23484800D01*
G02X23477300Y27011100I12J9998D01*
G01X23467300Y27022500D01*
G02X23464900Y27030400I7512J6597D01*
G03X23395100I-34900J4600D01*
G02X23392700Y27022500I-9912J-1303D01*
G01X23382700Y27011100D01*
G02X23375200Y27007700I-7512J6598D01*
G01X23144100D01*
G02X23134800Y27013900I-43J10011D01*
G02X23137000Y27024800I9261J3803D01*
G37*
G36*
G01X24907600Y26374100D02*
X24897900Y26386900D01*
G02X24896200Y26395600I7958J6071D01*
G03X24885300Y26431700I-33913J9456D01*
G01X24885000Y26431900D01*
Y26483000D01*
G03X24882100Y26490000I-9999J-42D01*
G01X24507300Y26864800D01*
G03X24500300Y26867700I-7042J-7099D01*
G01X23453500D01*
G02X23446500Y26870600I42J10001D01*
G01X23398100Y26919000D01*
G02X23395200Y26925800I7095J7044D01*
G03X23393500Y26936000I-35228J-630D01*
G01X23393400D01*
G02X23394900Y26945000I9537J3036D01*
G01X23404400Y26958200D01*
G02X23412500Y26962300I8081J-5915D01*
G01X24687900D01*
G03X24694900Y26965200I-42J9999D01*
G01X25281600Y27551900D01*
G02X25288400Y27554800I7044J-7095D01*
G03X25308800Y27618100I-797J35194D01*
G02X25304800Y27626400I5998J8004D01*
G01X25305200Y27642800D01*
G02X25309700Y27650800I10000J-359D01*
G03X25313000Y27706700I-19682J29209D01*
G01X25312700Y27706900D01*
Y28061700D01*
G02X25318900Y28071000I10011J43D01*
G02X25329800Y28068800I3803J-9261D01*
G01X25544400Y27854200D01*
G02X25547300Y27847200I-7101J-7042D01*
G01Y27377700D01*
G02X25537300Y27367700I-10000J0D01*
G01X25480200D01*
G02X25473200Y27370600I42J10001D01*
G01X25468100Y27375700D01*
G02X25465200Y27382500I7095J7044D01*
G03X25410900Y27411300I-35203J-784D01*
G02X25405500Y27409700I-5419J8375D01*
G01X25399500D01*
G02X25394100Y27411300I19J9975D01*
G03X25382500Y27416100I-19048J-29615D01*
G02X25375100Y27423000I2173J9749D01*
G01X25370100Y27440000D01*
G02X25372600Y27449900I9587J2845D01*
G01X25461700Y27539000D01*
G02X25465800Y27541500I7105J-7041D01*
G03X25421500Y27585800I-10800J33500D01*
G02X25419000Y27581700I-9541J3005D01*
G01X25292700Y27455400D01*
G03X25289800Y27448400I7098J-7041D01*
G01Y26586600D01*
G03X25292700Y26579600I9998J41D01*
G01X25390000Y26482300D01*
G02X25392200Y26471400I-7065J-7098D01*
G01X25392100D01*
G02X25382900Y26465200I-9238J3782D01*
G01X25122000D01*
G02X25112000Y26475200I0J10000D01*
G01Y27015200D01*
X25112700Y27017000D01*
G03X25050100Y27011400I-32713J12998D01*
G02X25051600Y27006200I-8495J-5267D01*
G01Y26433500D01*
G02X25048700Y26426400I-10002J-57D01*
G01X24995400Y26373100D01*
G02X24988300Y26370200I-7043J7102D01*
G01X24915600D01*
G02X24907600Y26374100I-68J10015D01*
G37*
G36*
G01X23380000Y26912500D02*
Y26925000D01*
X23358700Y26926300D01*
X23360000Y26905000D01*
X23372500D01*
G03X23380000Y26912500I0J7500D01*
G37*
G36*
G01X23855100Y28133700D02*
Y28133800D01*
G03X23804400Y28150100I-32403J-13788D01*
G02X23799200Y28148600I-5267J8496D01*
G01X23793500D01*
G02X23788300Y28150100I67J9996D01*
G03X23749100Y28148300I-18259J-30097D01*
G02X23743100Y28146400I-5862J8089D01*
G01X23736900D01*
G02X23730900Y28148300I-138J9989D01*
G03X23714200Y28154900I-20851J-28332D01*
G01Y28155000D01*
G02X23705900Y28161600I1123J9931D01*
G01X23700000Y28178800D01*
G02X23702400Y28189100I9464J3224D01*
G01X23813500Y28300200D01*
Y28301300D01*
X23974900Y28462700D01*
G02X23989100I7100J-7054D01*
G01X23989900Y28461900D01*
X23990500Y28461000D01*
G03X23997200Y28453100I29899J18566D01*
G01X23997500Y28452900D01*
Y28241200D01*
G02X23994600Y28234200I-10001J42D01*
G01X23887800Y28127400D01*
G02X23878800Y28124600I-7125J7039D01*
G01X23862400Y28127800D01*
G02X23855100Y28133700I1914J9834D01*
G37*
G36*
G01X24068600Y28822300D02*
X24118600D01*
G02X24127900Y28816100I43J-10011D01*
G02X24125700Y28805200I-9261J-3803D01*
G01X23964800Y28644300D01*
G02X23953900Y28642100I-7097J7061D01*
G02X23947700Y28651400I3811J9257D01*
G01Y28701400D01*
G02X23950600Y28708400I10001J-42D01*
G01X24061600Y28819400D01*
G02X24068600Y28822300I7042J-7101D01*
G37*
G36*
G01X24776500Y28899200D02*
G03X24799200Y28876500I33500J10800D01*
G02X24803300Y28874000I-3005J-9541D01*
G01X24981900Y28695400D01*
G02X24984800Y28688300I-7102J-7043D01*
G01Y28593400D01*
G02X24983700Y28588800I-10001J-40D01*
G03X24983200Y28587800I31230J-16240D01*
G01X24982500Y28586300D01*
X24981200Y28585000D01*
G02X24967100I-7050J7093D01*
G01X24717300Y28834800D01*
G03X24710300Y28837700I-7042J-7099D01*
G01X24584000D01*
G02X24574700Y28843900I-43J10011D01*
G02X24576900Y28854800I9261J3803D01*
G01X24594000Y28871900D01*
G02X24600800Y28874800I7044J-7095D01*
G03X24635200Y28909800I-803J35194D01*
G02X24638100Y28916900I10019J50D01*
G01X24648200Y28926900D01*
G02X24655300Y28929800I7045J-7108D01*
G01X24743300D01*
G02X24750400Y28926900I57J-10002D01*
G01X24774000Y28903300D01*
G02X24776500Y28899200I-7041J-7105D01*
G37*
G36*
G01X24042900Y28264200D02*
Y28452900D01*
X24043200Y28453100D01*
G03X24045200Y28504600I-22987J26682D01*
G01X24045100D01*
G02X24042200Y28511700I7132J7055D01*
G01X24042300Y28525900D01*
G02X24045200Y28533000I9987J63D01*
G01X24211600Y28699400D01*
G02X24218600Y28702300I7042J-7101D01*
G01X24319800D01*
G02X24327000Y28699200I-37J-9997D01*
G01X24337100Y28688700D01*
G02X24339800Y28681400I-7285J-6844D01*
G01Y28681300D01*
G03X24345200Y28661100I35176J-1418D01*
G01Y28661000D01*
G02X24343800Y28648600I-8452J-5325D01*
G01X24127700Y28432500D01*
G03X24124800Y28425500I7099J-7042D01*
G01Y28326000D01*
G02X24121900Y28319000I-10001J42D01*
G01X24060000Y28257100D01*
G02X24049100Y28254900I-7097J7061D01*
G02X24042900Y28264200I3811J9257D01*
G37*
G36*
G01X23214400Y28177300D02*
X23254000Y28216900D01*
G02X23261000Y28219800I7042J-7101D01*
G01X23443400D01*
G02X23452700Y28213600I43J-10011D01*
G02X23450500Y28202700I-9261J-3803D01*
G01X23410900Y28163100D01*
G02X23403900Y28160200I-7042J7101D01*
G01X23221500D01*
G02X23212200Y28166400I-43J10011D01*
G02X23214400Y28177300I9261J3803D01*
G37*
G36*
G01X23797100Y28960000D02*
X23790000D01*
X23776800Y28948100D01*
X23794000Y28935900D01*
X23807700Y28949400D01*
X23797100Y28960000D01*
G37*
G36*
G01X24380300Y28656800D02*
X24389100Y28665800D01*
X24375000Y28681700D01*
X24360900Y28665800D01*
X24369700Y28656800D01*
G03X24380300I5300J5300D01*
G37*
G36*
G01X24415200Y28635700D02*
X24427700Y28640600D01*
X24426100Y28661500D01*
X24405000Y28660000D01*
Y28642700D01*
G03X24415200Y28635700I7502J0D01*
G37*
G36*
G01X24480300Y28656800D02*
X24489100Y28665800D01*
X24475000Y28681700D01*
X24460900Y28665800D01*
X24469700Y28656800D01*
G03X24480300I5300J5300D01*
G37*
G36*
G01X24530300Y28640200D02*
X24539200Y28649300D01*
X24525100Y28665200D01*
X24511000Y28649400D01*
X24519600Y28640300D01*
G03X24530300Y28640200I5399J5202D01*
G37*
G36*
G01X24587500Y28890000D02*
X24600000D01*
X24601300Y28911300D01*
X24580000Y28910000D01*
Y28897500D01*
G03X24587500Y28890000I7500J0D01*
G37*
G36*
G01X24025500Y28456800D02*
X24034300Y28465800D01*
X24020200Y28481700D01*
X24006100Y28465800D01*
X24014900Y28456800D01*
G03X24025500I5300J5300D01*
G37*
G36*
G01X25410900Y27352100D02*
G03X25429200Y27346500I19066J29604D01*
G02X25436000Y27343600I-244J-9995D01*
G01X25454400Y27325200D01*
G03X25461400Y27322300I7042J7099D01*
G01X25537300D01*
G02X25547300Y27312300I0J-10000D01*
G01Y26976900D01*
X25547000Y26976700D01*
G03X25571400Y26914800I22965J-26706D01*
G02X25578800Y26912000I453J-9981D01*
G01X25589200Y26902000D01*
G02X25592300Y26894800I-6899J-7238D01*
G01Y26488500D01*
G02X25589400Y26481500I-10001J42D01*
G01X25576000Y26468100D01*
G02X25569000Y26465200I-7042J7101D01*
G01X25496700D01*
G02X25489600Y26468100I-57J10002D01*
G01X25353100Y26604600D01*
G02X25350200Y26611700I7102J7043D01*
G01Y27326600D01*
G02X25353400Y27334000I10010J63D01*
G01X25364400Y27344000D01*
G02X25372000Y27346600I6756J-7341D01*
G03X25394100Y27352100I3002J35090D01*
G02X25399500Y27353700I5419J-8375D01*
G01X25405500D01*
G02X25410900Y27352100I-19J-9975D01*
G37*
G36*
G01X25732200Y27540000D02*
X25719700D01*
X25718400Y27518700D01*
X25739700Y27520000D01*
Y27532500D01*
G03X25732200Y27540000I-7500J0D01*
G37*
G36*
G01X25284700Y27703000D02*
X25275900Y27694000D01*
X25290000Y27678100D01*
X25304100Y27694000D01*
X25295300Y27703000D01*
G03X25284700I-5300J-5300D01*
G37*
G36*
G01X25275100Y27570000D02*
X25287600D01*
X25288900Y27591300D01*
X25267600Y27590000D01*
Y27577500D01*
G03X25275100Y27570000I7500J0D01*
G37*
G36*
G01X25325000Y26407500D02*
Y26420000D01*
X25303700Y26421300D01*
X25305000Y26400000D01*
X25317500D01*
G03X25325000Y26407500I0J7500D01*
G37*
G36*
G01X24857000Y26428000D02*
X24848200Y26419000D01*
X24862300Y26403100D01*
X24876400Y26419000D01*
X24867600Y26428000D01*
G03X24857000I-5300J-5300D01*
G37*
G36*
G01X25564700Y26973000D02*
X25555900Y26964000D01*
X25570000Y26948100D01*
X25584100Y26964000D01*
X25575300Y26973000D01*
G03X25564700I-5300J-5300D01*
G37*
G36*
G01X25450000Y27369200D02*
Y27381700D01*
X25428700Y27383000D01*
X25430000Y27361700D01*
X25442500D01*
G03X25450000Y27369200I0J7500D01*
G37*
%LPC*%
G75*
G36*
G01X22932000Y26135500D02*
G02X22883400I-24300J-25500D01*
G03Y26164500I-13880J14500D01*
G02X22932000I24300J25500D01*
G03Y26135500I13880J-14500D01*
G37*
G36*
G01X22532000D02*
G02X22483400I-24300J-25500D01*
G03Y26164500I-13880J14500D01*
G02X22532000I24300J25500D01*
G03Y26135500I13880J-14500D01*
G37*
G36*
G01X22147000D02*
G02X22098400I-24300J-25500D01*
G03Y26164500I-13880J14500D01*
G02X22147000I24300J25500D01*
G03Y26135500I13880J-14500D01*
G37*
G36*
G01X24563800Y26134700D02*
G02X24534800Y26100400I6215J-34664D01*
G03X24511200Y26120300I-20079J131D01*
G02X24540200Y26154600I-6215J34664D01*
G03X24563800Y26134700I20079J-131D01*
G37*
G36*
G01X25173700Y26085800D02*
G02X25160400Y26124800I-33683J10281D01*
G03X25191300Y26135300I11685J16330D01*
G02X25204600Y26096300I33683J-10281D01*
G03X25173700Y26085800I-11685J-16330D01*
G37*
G36*
G01X23223600Y26064700D02*
G02Y26105700I-28600J20500D01*
G03X23256400I16400J11636D01*
G02Y26064700I28600J-20500D01*
G03X23223600I-16400J-11636D01*
G37*
G36*
G01X23350300Y27837800D02*
X23350000Y27832100D01*
G03X23351200Y27826800I10003J-521D01*
G02X23291200Y27829800I-30915J-16809D01*
G03X23292900Y27834900I-8290J5597D01*
G01X23293200Y27840600D01*
G03X23292000Y27845900I-10003J521D01*
G02X23323100Y27897900I30916J16810D01*
G03X23328300Y27899300I94J10008D01*
G01X23333200Y27902300D01*
G03X23336900Y27906200I-5133J8575D01*
G02X23367900Y27854700I31199J-16300D01*
G03X23362700Y27853300I-94J-10008D01*
G01X23357800Y27850300D01*
G03X23354100Y27846400I5133J-8575D01*
G02X23352000Y27842900I-31183J16330D01*
G03X23350300Y27837800I8290J-5597D01*
G37*
G36*
G01X23056400Y26646700D02*
G03Y26633300I7474J-6700D01*
G02X23003600I-26400J-23300D01*
G03Y26646700I-7474J6700D01*
G02X23056400I26400J23300D01*
G37*
G36*
G01X22904500Y27115700D02*
G02Y27174300I-19500J29300D01*
G03X22915500I5500J8357D01*
G02Y27115700I19500J-29300D01*
G03X22904500I-5500J-8357D01*
G37*
G36*
G01Y26995700D02*
G02Y27054300I-19500J29300D01*
G03X22915500I5500J8357D01*
G02Y26995700I19500J-29300D01*
G03X22904500I-5500J-8357D01*
G37*
G36*
G01X24145000Y27103700D02*
G02Y27166300I-16100J31300D01*
G03X24149600Y27165200I4560J8901D01*
G01X24308300D01*
G03X24315400Y27168100I57J10002D01*
G01X24441900Y27294600D01*
G03X24444800Y27301700I-7102J7043D01*
G01Y27543400D01*
G02X24447700Y27550400I9998J-41D01*
G01X24659800Y27762500D01*
G03X24662700Y27770200I-7074J7060D01*
G01X24661900Y27785200D01*
G03X24658100Y27792400I-9977J-663D01*
G02X24650600Y27839300I21907J27553D01*
G03X24652200Y27844900I-8399J5428D01*
G01Y27850800D01*
G03X24650500Y27856400I-9999J23D01*
G02X24649900Y27894500I29298J19516D01*
G03X24651500Y27899700I-8408J5433D01*
G01Y27905400D01*
G03X24650100Y27910600I-9979J102D01*
G02X24710300Y27910000I30282J17982D01*
G03X24708700Y27904800I8408J-5433D01*
G01Y27899100D01*
G03X24710100Y27893900I9979J-102D01*
G02X24709200Y27856600I-30296J-17930D01*
G03X24707600Y27851000I8399J-5428D01*
G01Y27845100D01*
G03X24709300Y27839500I9999J-23D01*
G02X24712200Y27834200I-29312J-19482D01*
G01X24713000Y27832500D01*
X24714300Y27831200D01*
G03X24728500I7100J7036D01*
G01X24966900Y28069600D01*
G03X24969800Y28076700I-7102J7043D01*
G01Y28239300D01*
G03X24968700Y28243900I-10001J40D01*
G02X25031300I31300J16100D01*
G03X25030200Y28239300I8901J-4560D01*
G01Y28051600D01*
G02X25027300Y28044600I-9998J41D01*
G01X24568700Y27586000D01*
G03X24566200Y27576000I7055J-7076D01*
G01X24571400Y27558900D01*
G03X24579000Y27552100I9522J2995D01*
G01Y27552000D01*
G02X24605700Y27528700I-6641J-34558D01*
G01X24606200Y27527000D01*
X24611300Y27520900D01*
G03X24611900Y27520200I7872J6140D01*
G01X24739000Y27393100D01*
G03X24745800Y27390200I7044J7095D01*
G02X24709800Y27354200I-800J-35200D01*
G03X24706900Y27361000I-9995J-244D01*
G01X24588500Y27479400D01*
G03X24581500Y27482300I-7042J-7101D01*
G01X24572300D01*
G02X24539200Y27529400I0J35181D01*
G03X24536800Y27539900I-9419J3371D01*
G03X24522600I-7100J-7038D01*
G01X24508100Y27525400D01*
G03X24505200Y27518300I7102J-7043D01*
G01Y27276600D01*
G02X24502300Y27269600I-9998J41D01*
G01X24340400Y27107700D01*
G02X24333400Y27104800I-7041J7098D01*
G01X24149600D01*
G03X24145000Y27103700I-40J-10001D01*
G37*
G54D33*
X21060000Y26510000D03*
X22475000Y25945000D03*
X22395000Y25990000D03*
X22260000Y26140000D03*
X22150000Y25985000D03*
X21780000Y25977700D03*
X21740000Y26125000D03*
X21701300Y26245000D03*
X21895000Y26165000D03*
X22007300Y26015000D03*
X22690000Y26155000D03*
X23580000Y26140000D03*
X23905000Y26115000D03*
X25480000Y25980000D03*
X25580000Y26130000D03*
X25300000Y25980000D03*
X24380000Y26220000D03*
X24260000Y26170000D03*
X22170000Y27325000D03*
X22395000Y27150200D03*
X22026100Y27099900D03*
X24450000Y27690000D03*
X24350000D03*
X24225600Y27515000D03*
X25200000Y26950000D03*
X23865000Y28255000D03*
X25450000Y26945000D03*
%LPD*%
G75*
G36*
G01X20174000Y28439200D02*
X20161600Y28437900D01*
X20162200Y28416700D01*
X20183200Y28419800D01*
X20182200Y28432400D01*
G03X20174000Y28439200I-7500J-700D01*
G37*
G36*
G01X20181300Y28431200D02*
X20213600Y28434200D01*
X20211200Y28475400D01*
X20170200Y28470400D01*
X20173100Y28438000D01*
G03X20181300Y28431200I7500J700D01*
G37*
G36*
G01X24600800Y27509700D02*
X24590500Y27522200D01*
X24570700Y27518400D01*
X24572300Y27497500D01*
X24595000D01*
G03X24600800Y27509700I0J7479D01*
G37*
G36*
G01X24725000Y27367500D02*
Y27355000D01*
X24746300Y27353700D01*
X24745000Y27375000D01*
X24732500D01*
G03X24725000Y27367500I0J-7500D01*
G37*
G54D10*
X20215000Y18300000D03*
X20485000Y29450000D03*
X25645000Y18300000D03*
G54D20*
X21025000Y36600000D03*
X20425000D03*
G54D11*
X20250000Y17850000D03*
Y29270000D03*
X25580000Y17850000D03*
Y29270000D03*
G54D21*
G01X20640000Y21142000D02*
X20370000Y21412000D01*
Y24431700D01*
X20892300Y24954000D01*
G01Y24446000D02*
Y24954000D01*
G01D02*
X21400300Y25462000D01*
X22742500Y22615000D03*
X22842500D03*
X22942500D03*
X23042500D03*
Y22715000D03*
X22942500D03*
X22842500D03*
X22742500D03*
X23042500Y22815000D03*
X22942500D03*
X22842500D03*
X22742500D03*
X23042500Y22915000D03*
X22942500D03*
X22842500D03*
X22742500D03*
X23042500Y23015000D03*
X22942500D03*
X22842500D03*
X22742500D03*
X23142500Y22615000D03*
Y22715000D03*
Y22815000D03*
Y22915000D03*
Y23015000D03*
G54D12*
G01X21400300Y25716000D02*
X21475000Y25790700D01*
Y26000000D01*
G01X21889400Y26602500D02*
X21475000Y26188100D01*
Y26000000D01*
G01X21889400Y26602500D02*
X21896900Y26610000D01*
X22464800D01*
G01D02*
X22470000D01*
G01X22510000Y26650000D02*
X22504800D01*
X22464800Y26610000D01*
G01X23440000Y29435000D02*
X23805000D01*
X24080000Y29160000D01*
X24505000D01*
X21520000Y18265000D03*
X21045000Y18195000D03*
X21180000Y18060000D03*
X21045000Y17780000D03*
X21295000Y17905000D03*
X21515000Y17770000D03*
X21035000Y18755000D03*
X21245000Y18890000D03*
X21500000Y18760000D03*
X21225000Y18410000D03*
X21355000Y19410000D03*
X21175000Y19235000D03*
X21035000Y19395000D03*
X21040000Y19010000D03*
X20830000Y21435000D03*
X20520000Y20425000D03*
X20870000Y20940000D03*
X20185000Y21355000D03*
X21375000Y21245000D03*
X21345000Y20920000D03*
X21105000Y20465000D03*
X20865000Y20590000D03*
X20465000Y21505000D03*
X20600000Y20850000D03*
X21360000Y20580000D03*
X20910000Y21185000D03*
X20505000Y20645000D03*
X20355000Y21135000D03*
X21440000Y21490000D03*
X21170000Y21135000D03*
X21020000Y20755000D03*
X20075000Y21145000D03*
Y20780000D03*
Y20495000D03*
X20160000Y20305000D03*
X20800000Y20295000D03*
X21355000D03*
X21035000Y21715000D03*
X21395000Y21710000D03*
X21435000Y22475000D03*
X20770000Y22050000D03*
X20775000Y22555000D03*
X20565000Y21820000D03*
X20820000Y21650000D03*
X21275000Y21550000D03*
X21255000Y21840000D03*
X21084000Y22995000D03*
X20765000Y22800000D03*
X21065000D03*
X21330000Y22330000D03*
X21365000Y22675000D03*
X21250000Y22580000D03*
X21075000Y22500000D03*
X21045000Y22260000D03*
X20685000Y21940000D03*
X20450000Y22365000D03*
X20310000Y22570000D03*
X20260000Y22990000D03*
X21060000Y21525000D03*
X21290000Y22100000D03*
X20945000Y21935000D03*
X21480000Y22715000D03*
X20085000Y22705000D03*
X20090000Y22010000D03*
X20075000Y21555000D03*
X20250000Y21680000D03*
X20229400Y21970000D03*
X21405000Y24320000D03*
X21324000Y24035000D03*
X21485000Y23135000D03*
X20770000Y23815000D03*
X20115000Y23855000D03*
X20205000Y23220000D03*
X20765000Y23290000D03*
X21145000Y24575000D03*
X21090000Y24465000D03*
X20270000Y23385000D03*
X20265000Y23755000D03*
X20285000Y24140000D03*
X20270000Y24450000D03*
X20305000Y24620000D03*
X21140000Y23940000D03*
X21190000Y23450000D03*
X21390000Y23235000D03*
X21370000Y23125000D03*
X21050000Y23380000D03*
X21065000Y23565000D03*
X21400000Y23715000D03*
X21500000Y23915000D03*
X21515000Y24430000D03*
X21305000Y24225000D03*
X21280000Y23870000D03*
X21130000Y24110000D03*
X21250000Y24485000D03*
X21015000Y24605000D03*
X21420000Y24620000D03*
X21505000Y24160000D03*
X21240000Y23270000D03*
X21060000Y24305000D03*
X20095000Y24580000D03*
X20085000Y24435000D03*
X20080000Y24060000D03*
Y23330000D03*
X21060000Y23805000D03*
X21380000Y23485000D03*
X21020000Y24020000D03*
X20920000Y25415000D03*
X21520000Y24770000D03*
X20720000Y25170000D03*
X21505000Y24880000D03*
X21300000Y24915000D03*
X21330000Y24825000D03*
X20395000Y25415000D03*
X20390000Y25180000D03*
X20320000Y24735000D03*
X20504000Y25255000D03*
X20530000Y25080000D03*
X20700000Y25410000D03*
X21020000Y25830000D03*
X20670000Y26120000D03*
X20575000Y26055000D03*
X21010000Y25595000D03*
X21115000Y25867500D03*
X20430000Y26190000D03*
X21132300Y26210000D03*
X21290000Y26235000D03*
X21235000Y25930000D03*
X21272000Y25595000D03*
X20275000Y25350000D03*
X21000000Y24840000D03*
X21075000Y24935000D03*
X21145000Y26000000D03*
X20970000Y26090000D03*
X20890000D03*
X20095000Y26330000D03*
X20360000Y26360000D03*
X20615000Y27170000D03*
X21110000Y27815000D03*
X20900000Y27000000D03*
X21025000Y26770000D03*
X20950000Y27700000D03*
X20760000Y27545000D03*
Y27690000D03*
X20540000Y27110000D03*
X20610000Y27670000D03*
Y27780000D03*
X20950000Y27810000D03*
X20645000Y27290000D03*
X20600000Y27000000D03*
X20890000Y26520000D03*
X20085000Y27095000D03*
X20177300Y27530000D03*
X20230000Y26694700D03*
X20225000Y27301300D03*
X20100000Y26694700D03*
X20172300Y27250000D03*
X20170000Y27090000D03*
X20240000Y27468700D03*
X20090000Y26995000D03*
X20085000Y26895000D03*
X20365000Y26485000D03*
X21132300Y26262700D03*
X21164100Y27822500D03*
X21415000Y26600000D03*
X21200000Y27000000D03*
X21400000Y27150000D03*
X21200000Y27400000D03*
X21170000Y26500000D03*
X20840000Y27780000D03*
X20379900Y27819900D03*
X20180000Y27770000D03*
X20782400Y27780000D03*
X20590000Y27502600D03*
X20830000Y27640000D03*
X20710000Y27490000D03*
X20525000Y26905000D03*
X20570000Y26740000D03*
X20495000Y26697500D03*
X20690000Y26730000D03*
X21350000Y27810000D03*
X20540000Y27570000D03*
X20520000Y27260000D03*
X20970000Y26500000D03*
X21410000Y27730000D03*
X21292600Y27775000D03*
X20710000Y27800000D03*
X20565000Y26800000D03*
X20500000Y27170000D03*
X20170000Y27150000D03*
X20177300Y27620000D03*
X21060000Y26510000D03*
X21250000Y27724700D03*
X20513800Y28250000D03*
X20503100Y28369900D03*
X20575000Y29101100D03*
X20845000Y28595000D03*
X21090000Y28350000D03*
Y28605000D03*
X20840000Y28355000D03*
X20965000Y28480000D03*
X20640000Y28850000D03*
X20570000Y28980000D03*
X20460000Y28772800D03*
X20250000Y28975000D03*
X20210000Y27990000D03*
X20300000D03*
X21210000Y28210000D03*
X21482700Y28240000D03*
X21420000Y28181100D03*
X21360000Y28137300D03*
X21371800Y28238800D03*
X21446200Y28510000D03*
X21250000Y28750000D03*
Y28802700D03*
X21190000Y28800000D03*
X21270000Y29102700D03*
X21480000Y28650000D03*
X21520000Y28112700D03*
X21500000Y28580000D03*
X21190000Y28750000D03*
X21414200Y28652000D03*
X21460100Y28111000D03*
X21458700Y28058300D03*
X20163400Y28418100D03*
X21270000Y28897300D03*
X20725000Y28850000D03*
X21210000Y29105000D03*
X21275000Y29250000D03*
X20267200Y28670000D03*
X20335000Y27870000D03*
X20186100Y27868600D03*
X21449900Y28732300D03*
X21450100Y28785000D03*
X21010000Y28910000D03*
Y29102700D03*
X20258300Y28543500D03*
X20639600Y28521700D03*
X20710000Y28100000D03*
X20650200Y28470000D03*
X21477700Y28330000D03*
X20631500Y28320000D03*
X20780000Y28043800D03*
X20620000Y28085000D03*
X21075000Y29100000D03*
X20770000Y28800000D03*
X21140000Y29100000D03*
X20830000Y28800000D03*
X20945000D03*
X20670000Y28780000D03*
X20610000Y28570000D03*
X21355000Y28714000D03*
X20700000Y28230000D03*
X21300000Y28120000D03*
X20600000Y28670000D03*
X20259800Y28265300D03*
X20700000Y28900000D03*
X20950000Y30075000D03*
X21300000Y29800000D03*
Y29600000D03*
X21025000Y30325000D03*
X20875000Y30300000D03*
X20775000Y30425000D03*
X20550000Y29725000D03*
X20125000Y35575000D03*
X21025000Y35725000D03*
X21840000Y17905000D03*
X22055000Y17770000D03*
X23000000Y18265000D03*
X22225000Y18250000D03*
X22385000Y17900000D03*
X22710000Y17775000D03*
X21800000Y18900000D03*
X22060000Y18760000D03*
X21810000Y18400000D03*
X22360000Y18910000D03*
X22640000Y18760000D03*
X22915000Y18890000D03*
X22580000Y18405000D03*
X22020000Y19400000D03*
X21725000Y19255000D03*
X22980000Y19850000D03*
X22845000Y19570000D03*
X22975000Y19265000D03*
X22655000Y19405000D03*
X22275000Y19250000D03*
X21865000Y21215000D03*
X21885000Y20745000D03*
X22625000Y20655000D03*
X22435000Y20530000D03*
X22595000Y20895000D03*
X22390000Y20805000D03*
X21880000Y20535000D03*
X21905000Y21030000D03*
X22765000Y20405000D03*
X23085000Y20695000D03*
X23090000Y20465000D03*
X23060000Y20535000D03*
X21585000Y20795000D03*
X21675000Y21425000D03*
X21935000Y21430000D03*
X22145000Y20750000D03*
X21675000Y21170000D03*
X21810000Y20290000D03*
X22215000Y20295000D03*
X22505000Y20290000D03*
X22785000D03*
X22775000Y20835000D03*
X22765000Y20510000D03*
X22775000Y20635000D03*
X23045000Y20300000D03*
X22915000Y21140000D03*
X23025000Y21095000D03*
Y21050000D03*
X22810000Y21095000D03*
Y21050000D03*
X22915000Y21275000D03*
X22800000Y21475000D03*
X23025000D03*
X22400000Y21500000D03*
X22375000Y21250000D03*
X22600000Y21325000D03*
X22950000Y21400000D03*
X22875000D03*
X22700000Y21225000D03*
X22500000Y21250000D03*
X22100000D03*
X22845000Y20095000D03*
X21935000Y21790000D03*
Y22120000D03*
X21910000Y22360000D03*
X21700000Y22090000D03*
X21695000Y22600000D03*
X21884000Y22670000D03*
X21695000Y22760000D03*
X21600000Y23010000D03*
X22210000Y22560000D03*
X22300000Y22785000D03*
X21915000Y21545000D03*
X22075000Y22770000D03*
X22289200Y22409200D03*
X22045000Y22510000D03*
X22068000Y22605000D03*
X22600000Y22445000D03*
X22525000Y22450000D03*
X22390000Y22370000D03*
X22290000Y22170000D03*
Y22240000D03*
X22615000Y22100000D03*
X22685000Y22095000D03*
Y22165000D03*
X22700000Y22215000D03*
X22970000Y22320000D03*
X23025000Y22260000D03*
X23020000Y21800000D03*
X23090000Y21750000D03*
X23085000Y21605000D03*
X22320000Y22125000D03*
X22645000Y21760000D03*
X22720000Y21765000D03*
X22725000Y21685000D03*
X22335000Y21810000D03*
X22415000Y21735000D03*
X22335000D03*
X22700000Y21525000D03*
X22525000D03*
X22100000D03*
X22300000D03*
X22325000Y22325000D03*
X22775000Y22125000D03*
X22850000Y22050000D03*
X22525000Y22025000D03*
X22475000Y21950000D03*
X22550000Y21900000D03*
X22650000Y21850000D03*
Y22000000D03*
X22800000Y21900000D03*
X22900000Y21750000D03*
Y21850000D03*
X22800000Y21800000D03*
Y21600000D03*
X23000000Y21550000D03*
X22900000D03*
X23000000Y21650000D03*
X22750000Y22000000D03*
X22150000Y22300000D03*
X22050000Y22200000D03*
Y22000000D03*
X22150000Y22100000D03*
X22050000Y21800000D03*
X22150000Y21900000D03*
X22050000Y21600000D03*
X22150000Y21700000D03*
X22300000Y22710000D03*
X22407500Y22822500D03*
X22420000Y22637500D03*
Y22430000D03*
X21795000Y23060000D03*
X22916000Y22382300D03*
X22500000Y22381200D03*
X22916000Y21990000D03*
X21724000Y24435000D03*
X21595000Y24565000D03*
X21920000Y24520000D03*
X22292000Y24215000D03*
X21950000Y24175000D03*
X21920000Y23860000D03*
X22005000Y23645000D03*
X21832000Y23215000D03*
X22695000Y24640000D03*
X22615000Y23890000D03*
X23000000Y24360000D03*
X22740000Y24310000D03*
X22505000Y24445000D03*
X22875000Y24490000D03*
X22555000Y24635000D03*
X22325000Y24580000D03*
Y24325000D03*
X21805000Y24105000D03*
X21980000Y23425000D03*
X22052000Y23140000D03*
X21645000Y23755000D03*
X21825000Y23690000D03*
X22135000Y23415000D03*
X21675000D03*
X21795000Y23295000D03*
X21790000Y23535000D03*
X22136000Y23770000D03*
X21725000Y23900000D03*
X21760000Y24285000D03*
X22125000Y24160000D03*
X22110000Y24395000D03*
X21765000Y24615000D03*
X22120000D03*
X22835000Y23760000D03*
X22905000Y23700000D03*
X22305000Y23745000D03*
Y23360000D03*
X22650000Y23570000D03*
X22550000Y23520000D03*
X22815000Y23845000D03*
X22020000Y23980000D03*
X21965000Y24360000D03*
X21540000Y23605000D03*
X22070000Y23580000D03*
X22295000Y23905000D03*
X22975000Y23875000D03*
X22275000Y23615000D03*
X22400000Y23795000D03*
X22545000Y23435000D03*
X22755000Y23490000D03*
X22065000Y23245000D03*
X21715000Y23155000D03*
X22485000Y23285000D03*
X22370000Y23310000D03*
X22392400Y23147600D03*
X22535000Y23315000D03*
X22435000Y23319700D03*
X22608000Y23725000D03*
X22680000Y23720000D03*
X22752000D03*
X22416500Y24153500D03*
X23006500D03*
X22415000Y24010000D03*
X23020000Y23981500D03*
X22475000Y23605000D03*
X22375000Y23655000D03*
X22470000Y23660000D03*
X22420000Y23610000D03*
X22872500Y23247500D03*
X22928000Y23257500D03*
X22968000Y23775000D03*
X23073000Y24290000D03*
Y23430000D03*
X23025000Y23684000D03*
X21820000Y24775000D03*
X22250000Y25240000D03*
X22490000Y25260000D03*
X22930000Y24965000D03*
X23025000Y25210000D03*
X22785000Y25070000D03*
X22020000Y24835000D03*
X22235000Y24805000D03*
X21845000Y24900000D03*
X21675000Y24835000D03*
X22583300Y26005000D03*
X22475000Y25945000D03*
X22395000Y25990000D03*
X22260000Y26140000D03*
X22150000Y25985000D03*
X21780000Y25977700D03*
X21740000Y26125000D03*
X21701300Y26245000D03*
X21895000Y26165000D03*
X22007300Y26015000D03*
X23075000Y26005000D03*
X22788700Y26010000D03*
X22690000Y26155000D03*
X22907700Y26010000D03*
X22780000Y25510000D03*
X22350000Y24815000D03*
X22160000Y24930000D03*
X22210000Y25035000D03*
X21910000Y24980000D03*
X22525000Y24719000D03*
X22455000Y24780000D03*
X21802500Y25827500D03*
X23070000Y25567500D03*
X22730000Y25825000D03*
X22080000Y25236000D03*
Y24925000D03*
X22507700Y26110000D03*
X22122700D03*
X22907700D03*
Y26190000D03*
X22507700D03*
X22122700D03*
X21550000Y26185300D03*
X22430000Y26350000D03*
X22060000Y27010000D03*
X22280000Y27088900D03*
X22170000Y27108700D03*
X22435000Y27195000D03*
X22510000Y26945000D03*
X22027700Y27410000D03*
X22227300Y27030000D03*
X22300000Y27412500D03*
X22080000Y27108700D03*
X22227700Y27160000D03*
X22030000Y27495200D03*
X22300000Y27542500D03*
X22640000Y26525000D03*
X22245000Y26385000D03*
X22081900Y26401000D03*
X22145000Y26440000D03*
X21600000Y27400000D03*
Y27000000D03*
X21755000Y26775000D03*
X21660000Y27810000D03*
X21810000Y27535000D03*
X21805000Y27410000D03*
X21770000Y26585000D03*
X21800000Y27810000D03*
X21730000D03*
X21700000Y27150000D03*
X22805000Y27237300D03*
X22770000Y27110300D03*
Y27010200D03*
X22834700Y26950000D03*
X23055000Y26420000D03*
X22960000Y26430000D03*
X22832300Y26390000D03*
X23015000Y27635000D03*
X23065000Y27545000D03*
X23015000Y27455000D03*
X23053900Y27705600D03*
X23066300Y27756900D03*
X22462300Y27755000D03*
X22577700D03*
X23094800Y26820000D03*
X23070000Y27095000D03*
X22450000Y27450000D03*
X22600000D03*
X22750000Y27500000D03*
X21569900Y27820100D03*
X22305000Y26400000D03*
X22373900Y26547500D03*
X22305100Y26520100D03*
X22092400D03*
X22350000Y26335000D03*
X21860000Y26395000D03*
X22470000Y26610000D03*
X22395000Y27150200D03*
X22670000Y27060000D03*
Y27110000D03*
Y27010000D03*
X22510000Y26650000D03*
X23030000Y26670000D03*
Y26610000D03*
X21585000Y27530000D03*
X21535000Y26562500D03*
X22772700Y26780000D03*
X22720000D03*
X22288900Y27755000D03*
X22290000Y27700000D03*
X22170000Y27325000D03*
X22026100Y27099900D03*
X22070100Y26770100D03*
X22885000Y27145000D03*
X22935000D03*
Y27025000D03*
X22885000D03*
X22000000Y27840000D03*
X22145000Y28480000D03*
X22205000D03*
X22415000Y28410000D03*
X22480200Y28530000D03*
X22515000Y28220000D03*
X22415000D03*
X22465000Y28310000D03*
X22750000Y29100000D03*
X22544800Y29330000D03*
X22515000Y28410000D03*
X22232300Y28960000D03*
X22482700Y29020000D03*
X22415000Y28594700D03*
X22400000Y29090200D03*
X22030000Y29195000D03*
X22355000Y29255000D03*
X22137200Y27980000D03*
X22480200Y28070000D03*
X22475000Y28130000D03*
X22545000Y28100000D03*
X22137800Y28032700D03*
X21580000Y28600000D03*
X21750200Y28280000D03*
X21569800D03*
X21640000Y28680000D03*
X21800000Y29055200D03*
X21740000D03*
X21680000D03*
X21600000Y29041300D03*
X21920000Y28630000D03*
X21750200Y28227300D03*
X21569800Y28220000D03*
X21900000Y29160000D03*
X21760000D03*
X21980000Y28570000D03*
X21830000Y28390000D03*
X21769800Y28530000D03*
X21850000Y28630000D03*
X21769800Y28470000D03*
X21980000Y28510000D03*
X21665000Y28152300D03*
X21700000Y29235000D03*
X21851300Y28070000D03*
X22920000Y28580200D03*
X23020000Y28571300D03*
X22855300Y28515000D03*
X22765000Y28280000D03*
X22865200Y29330000D03*
X22935000Y29005000D03*
X22840000Y28415000D03*
X22750000Y29224800D03*
X22650000D03*
Y29100000D03*
X21971900Y28926900D03*
X21912500Y28946300D03*
X21770000Y28980000D03*
X21660000Y28920000D03*
X21600000D03*
X21587300Y28680000D03*
X23080000Y28515000D03*
X22290000Y29025000D03*
X21925000Y27850000D03*
X21973800Y28100000D03*
X21870000Y29025000D03*
X22695000Y28410000D03*
X22920000Y28359800D03*
X22980000Y28360000D03*
X22600000Y28920000D03*
X22700000D03*
X22800000D03*
X22600000Y28614800D03*
X22700000D03*
X22800000Y28620000D03*
X22340000Y28600000D03*
X22290000D03*
X22460000Y27885000D03*
Y27835000D03*
X22260000Y28115000D03*
X22150000Y28159800D03*
X22205000D03*
X21891300Y28130000D03*
X21610000Y28107700D03*
X22260000Y28065000D03*
X22200000Y29430000D03*
X21855000Y29425000D03*
X22865200Y29420000D03*
X22544800D03*
X22075000Y30425000D03*
X22100000Y30250000D03*
X22125000Y30050000D03*
X21675000Y30475000D03*
X22500000Y30150000D03*
X22475000Y30775000D03*
X21975000Y30150000D03*
X22950000Y31075000D03*
X22750000Y31800000D03*
X22575000Y35025000D03*
X22450000Y36950000D03*
X22675000Y36025000D03*
X21600000Y35850000D03*
X23740000Y18270000D03*
X24230000Y18250000D03*
X23250000Y18755000D03*
X23585000Y18900000D03*
X23270000Y18410000D03*
X23940000Y18755000D03*
X24265000Y18905000D03*
X24535000Y18755000D03*
X24650000Y18580000D03*
X24475000Y18400000D03*
X23875000Y18395000D03*
X24305000Y21060000D03*
X24105000Y20340000D03*
X24235000Y20480000D03*
X23920000Y21435000D03*
X23745000Y21235000D03*
X23720000Y20435000D03*
X23385000Y20480000D03*
X23690000Y21040000D03*
X24075000Y21365000D03*
X24335000Y21260000D03*
X24475000Y20800000D03*
X24330000Y20620000D03*
X24170000Y20645000D03*
X23930000Y20670000D03*
X23675000Y20665000D03*
X23385000Y20655000D03*
X24565000Y20700000D03*
X24360000Y20940000D03*
X24580000Y20305000D03*
X24305000D03*
X23860000D03*
X23545000Y20300000D03*
X23270000D03*
X24135000Y20905000D03*
X23800000D03*
X23890000Y21245000D03*
X23550000Y20910000D03*
X23225000Y21350000D03*
X23125000Y21250000D03*
X23375000D03*
X23475000D03*
X24600000Y22400000D03*
X24450000Y21800000D03*
X24340000Y21795000D03*
X23660000Y21760000D03*
X24235000Y22180000D03*
X23950000Y21590000D03*
X24625000Y21550000D03*
X23700000Y23005000D03*
X23535000Y23060000D03*
X23585000Y22485000D03*
X24565000Y22125000D03*
X23605000Y21565000D03*
X23720000Y21600000D03*
X23880000Y23040000D03*
X23975000Y21785000D03*
X23930000Y22075000D03*
X23765000Y21840000D03*
X24485000Y22295000D03*
X23980000Y22515000D03*
X23820000Y22505000D03*
X23800000Y21760000D03*
X23465000Y22210000D03*
X24080000Y22240000D03*
X24615000Y22600000D03*
X23570000Y22995000D03*
X23630000Y22080000D03*
X23745000D03*
X23590000Y22540000D03*
X23110000Y22175000D03*
X23190000Y22170000D03*
Y22100000D03*
X23155000Y21795000D03*
X23130000Y21655000D03*
Y21555000D03*
X23330000Y21795000D03*
X23390000Y21855000D03*
X23330000Y21912700D03*
X23375000Y21525000D03*
X23500000D03*
X23250000Y22050000D03*
Y22150000D03*
X23350000D03*
X23550000Y21850000D03*
X23400000Y22050000D03*
Y21950000D03*
Y21650000D03*
X23500000Y21750000D03*
X23420000Y22480000D03*
X23430300Y23059700D03*
X24424000Y23071000D03*
X23952000Y22695000D03*
X24490000Y22025000D03*
X24470000Y22805000D03*
X24192400Y21612600D03*
X24315000Y22000000D03*
X24255000Y21685000D03*
X24124000Y22895000D03*
X24170000Y22965000D03*
X24575000Y24160000D03*
X24105000Y24550000D03*
X23360000Y24030000D03*
X24195000Y23765000D03*
X23915000Y23815000D03*
X23880000Y23255000D03*
X23670000Y23550000D03*
X23450000Y23590000D03*
X23925000Y23170000D03*
X23655000Y23255000D03*
Y23145000D03*
X23945000Y23370000D03*
X23785000Y23130000D03*
X23245000Y24605000D03*
X23650000Y24275000D03*
X23900000Y24255000D03*
X23600000Y23775000D03*
X23770000Y23555000D03*
X24195000Y23605000D03*
X24050000Y23110000D03*
X23750000Y23350000D03*
X23400000Y23510000D03*
X23392000Y23750000D03*
X23450000Y23845000D03*
X23340000Y23190000D03*
X23460000Y24415000D03*
X24325000Y24265000D03*
X23524000Y23500000D03*
X24100000Y23285000D03*
X24016000Y23730000D03*
X24280000Y23385000D03*
X23675000Y24020000D03*
X23396000Y23275000D03*
X23475000Y23270000D03*
X23532000Y23215000D03*
X24045000Y24035000D03*
X24440000Y23740000D03*
X24325000Y24065000D03*
X24445000Y23200000D03*
X24328000Y23825000D03*
X23222500Y24070000D03*
X23292500Y24055000D03*
X23172000Y24145000D03*
X23122500Y24230000D03*
X23825000Y23950000D03*
X24530000Y23990000D03*
X24445000Y24010000D03*
X24628000Y24245000D03*
X23335000Y25010000D03*
X23100000Y25050000D03*
X23150000Y24810000D03*
X23600000Y25055000D03*
X23605000Y24895000D03*
X24520000Y25080000D03*
X24330000Y25190000D03*
X24010000Y25140000D03*
X24260000Y25000000D03*
X24136700Y24970000D03*
X23832000Y25435000D03*
X23580000Y26140000D03*
X24160000Y25640000D03*
X23910000Y25890000D03*
X23412700Y26000000D03*
X24475000Y25550000D03*
X24250000Y25920000D03*
X24665000Y25880000D03*
X24380000Y26220000D03*
X24505000Y26155000D03*
X24260000Y26170000D03*
X23195000Y26085200D03*
X23285000D03*
X23803800Y24947100D03*
X24120000Y24710000D03*
X23809400Y24952700D03*
X23930000Y25465000D03*
X23972000Y25232500D03*
X23816000Y24765000D03*
X23960000Y24775000D03*
X23680000Y25135000D03*
X23672000Y24770000D03*
X24218900Y25190000D03*
X23895000Y25530000D03*
X23525000Y24775200D03*
X23899900Y24934900D03*
X23125000Y25275000D03*
X24018700Y24990000D03*
X23500000Y24895000D03*
X23555000Y25965000D03*
X23660000Y25915000D03*
X24000000Y26050000D03*
X24075000Y25975000D03*
X24570000Y26100000D03*
X23905000Y26115000D03*
X24010000Y26275000D03*
X23485000D03*
X24130000Y26800000D03*
X23965000Y27060000D03*
X23754000Y27191200D03*
X24131300Y27225000D03*
X24075000Y27282700D03*
X23590000Y27350000D03*
Y27420000D03*
X24040000Y27060000D03*
X24090000D03*
X23557700Y27125000D03*
X24034700Y27719300D03*
X24110000Y27818700D03*
X23636500Y27698700D03*
X23760000Y27470000D03*
X23700000Y27700000D03*
X23965700Y27654800D03*
X23597700Y26740000D03*
X23850000Y26379800D03*
X24017300Y26515000D03*
X24070000Y26461100D03*
X24140000Y26395000D03*
X23300000Y27145000D03*
X23270000Y27052700D03*
X23337300Y27700000D03*
X23165000Y26905200D03*
X23500000Y27186300D03*
X23439900Y27500100D03*
X23482300Y26735000D03*
X23150000Y27760000D03*
X24625000Y27105000D03*
X24280000Y27080000D03*
Y26940000D03*
X24400000Y26895000D03*
X24670000Y26801100D03*
X24540000Y26930000D03*
X24210000Y27400000D03*
X24590000D03*
X24672300Y27195000D03*
X24190000Y27818700D03*
X24600000Y27790000D03*
X24400000Y27500700D03*
Y27345000D03*
X24580000Y26440000D03*
Y26530000D03*
X24320000D03*
X24450000Y26390000D03*
X24320000D03*
X23115000Y27635000D03*
Y27455000D03*
X23150000Y27285000D03*
X23185000Y27030000D03*
X23150000Y27225000D03*
X23235000Y26905200D03*
X23305200Y26820000D03*
X23955000Y26380000D03*
X23100000Y27307500D03*
X24450000Y27690000D03*
X24350000D03*
X24225600Y27515000D03*
X23430000Y27035000D03*
X23350000Y27625000D03*
X23320300Y27810000D03*
X23360000Y26925000D03*
X24572300Y27517500D03*
X24128900Y27135000D03*
X23345000Y26385200D03*
X23150000D03*
X23210000D03*
X23275000Y26385000D03*
X24140000Y28200000D03*
X23600000Y28830000D03*
X23942700Y28337300D03*
X23930000Y28850000D03*
X24070000Y28790000D03*
X23967500Y28691300D03*
X24070000Y28900000D03*
X24000000D03*
X24150000D03*
X24160200Y29010000D03*
X24157600Y29080000D03*
X23940000Y28390000D03*
X23545000Y28130000D03*
X23710000Y28000000D03*
X24145000Y28105000D03*
X23970000Y27910000D03*
X23910000D03*
X23650000Y27994700D03*
X23280000Y29360000D03*
X23350000Y29300000D03*
X23470000Y28640000D03*
X23460000Y28560000D03*
X23400000D03*
X23190000Y28820000D03*
X23285000Y29180000D03*
Y29005000D03*
X23110000Y28905000D03*
Y29280000D03*
X23460000Y28880000D03*
X23240000Y28867700D03*
X23360000Y28180000D03*
X23240000Y28565000D03*
X23325000Y28525000D03*
Y28600000D03*
X23150000D03*
Y28525000D03*
X23250000Y28180000D03*
X23150200Y27880000D03*
X23470000Y28070000D03*
X24370000Y27853600D03*
X24435000Y27852400D03*
X24660000Y28540000D03*
Y28490000D03*
X24480000Y28390000D03*
X24450000Y28900000D03*
X24520000D03*
X24580000Y28670000D03*
X24430000Y29020000D03*
X24280000Y29370000D03*
Y28670000D03*
X24239900Y28286000D03*
X24240000Y28590000D03*
X24370000Y29060000D03*
X24210300Y29080000D03*
X24664800Y28340000D03*
X24475000Y28250200D03*
X24240200Y28338700D03*
X24239900Y28391400D03*
X24512500Y27990000D03*
X24401000Y27896300D03*
X23150000Y27825000D03*
X23630000Y28430000D03*
X23762700Y28520000D03*
X23710000D03*
X23628300Y28377300D03*
X23450000Y28350000D03*
X23780000Y28950000D03*
X23865000Y28255000D03*
X23710000Y28120000D03*
X23770000D03*
X23822700D03*
X24375000Y28679800D03*
X24425000Y28660000D03*
X24475000Y28679800D03*
X23140000Y28785200D03*
X23368100Y27889900D03*
X23322900Y27862700D03*
X24525100Y28663300D03*
X24600000Y28910000D03*
X24020200Y28479800D03*
X24505000Y29160000D03*
X23350000Y29420000D03*
X24227300Y29450000D03*
X24575000Y30900000D03*
X23800000Y30625000D03*
X23150000Y30375000D03*
X24025000Y30050000D03*
X23440000Y29435000D03*
X23400000Y32000000D03*
X24000000Y31425000D03*
X24575000Y31975000D03*
X23825000Y31750000D03*
X24550000Y31350000D03*
X23475000Y31250000D03*
Y34100000D03*
X23550000Y34500000D03*
X23300000Y34775000D03*
X23975000Y34750000D03*
X24050000Y35025000D03*
X24325000Y34875000D03*
X24040000Y34225000D03*
X23975000D03*
X24150000Y36925000D03*
X23900000Y35925000D03*
X24400000Y36700000D03*
X24780000Y18275000D03*
X24770000Y18900000D03*
X25690000Y21150000D03*
X25450000Y20995000D03*
X25575000Y20510000D03*
X24800000Y20400000D03*
X25320000Y20350000D03*
X24945000Y20775000D03*
X24960000Y21355000D03*
X25520000Y21150000D03*
X25510000Y20790000D03*
X24925000Y21005000D03*
X24970000Y20495000D03*
X25410000Y20485000D03*
X25175000Y20885000D03*
X25245000Y20660000D03*
X24800000Y20610000D03*
X24740000Y20935000D03*
X24675000Y21360000D03*
X25740000Y21315000D03*
X25750000Y20895000D03*
X25745000Y20465000D03*
X25625000Y20305000D03*
X25135000D03*
X25700000Y22910000D03*
X24720000Y22070000D03*
X24850000Y21855000D03*
X25020000Y21685000D03*
X25220000Y21960000D03*
X24910000Y22000000D03*
X25195000Y21855000D03*
X25665000Y21610000D03*
X25515000Y22255000D03*
X25435000Y22905000D03*
Y22590000D03*
X24885000Y21550000D03*
X25440000Y22000000D03*
X25455000Y21550000D03*
X24715000Y21800000D03*
X25750000Y22625000D03*
Y22230000D03*
X25735000Y21815000D03*
X24775000Y22230000D03*
X24800000Y22450000D03*
Y22700000D03*
Y22950000D03*
X25690000Y23420000D03*
X25665000Y23830000D03*
X24855000Y23310000D03*
X25100000Y23590000D03*
X25080000Y23810000D03*
X25085000Y24055000D03*
X25490000Y24155000D03*
X25475000Y23750000D03*
X25440000Y23285000D03*
X24805000Y24515000D03*
X25755000Y24335000D03*
X25750000Y24025000D03*
Y23625000D03*
Y23225000D03*
X25760000Y24550000D03*
X24960000Y24715000D03*
X25170000Y25015000D03*
X24730000Y25575000D03*
X24890000Y24950000D03*
X24745000Y24690000D03*
X25110000Y24815000D03*
X25610000Y24687300D03*
X25020000Y25190000D03*
X24730000Y24950000D03*
X24800000Y25390000D03*
X25280000Y25180000D03*
X25330000Y25060000D03*
X25140000Y26096100D03*
X25515000Y25825000D03*
X25225000Y26125000D03*
X25480000Y25980000D03*
X25580000Y26130000D03*
X25650000Y26200000D03*
X25300000Y25980000D03*
X24690000Y25740000D03*
X24675000Y25550000D03*
X24695000Y26185000D03*
X25775000Y26125000D03*
X25750000Y25900000D03*
X24825000Y25475000D03*
X25700000Y26150000D03*
X25100000Y25225000D03*
X25400000Y25550000D03*
X24980000Y26285000D03*
X24685000Y26255000D03*
X25500000Y26675000D03*
X25470000Y27420000D03*
X25250000Y27230000D03*
X25180000Y27190000D03*
X25120000Y27330000D03*
X25300000Y27530000D03*
X25060000Y27190000D03*
X24900000Y27050000D03*
X24880000Y26890000D03*
X24990000Y27450000D03*
X24860000D03*
X24990000Y27600000D03*
X24860000D03*
X24940000Y27764800D03*
X25010000Y26857700D03*
X24840000Y26802500D03*
X24750000Y26926200D03*
X25040000Y27810000D03*
X24715000Y27138700D03*
X25060000Y27490000D03*
Y27590000D03*
Y27680000D03*
X25010000Y26487300D03*
X25750000Y27300000D03*
X25780000Y27130000D03*
X25750000Y26600000D03*
X25725000Y27450000D03*
X25739800Y27375000D03*
X25200000Y26950000D03*
X24947500Y27647500D03*
X24680000Y27820000D03*
X25719700Y27520000D03*
X25290000Y27680000D03*
X25287600Y27590000D03*
X25200000Y26325000D03*
X25252700D03*
X25200000Y26377700D03*
X25305000Y26420000D03*
X24862300Y26405000D03*
X25080000Y27030000D03*
X25125000Y26427700D03*
X25640000Y26413900D03*
X25707700Y27610000D03*
X24745000Y27355000D03*
X25495000Y26420000D03*
X25455000Y27575000D03*
X25375000Y27381700D03*
X25450000Y26945000D03*
X25430000Y27381700D03*
X25570000Y26950000D03*
X25040200Y27870000D03*
X25085000Y29190000D03*
Y29365000D03*
X25097600Y28482600D03*
X25073900Y28670000D03*
X25075000Y28745000D03*
X25101100Y29105000D03*
X25370000Y28220000D03*
X25440000Y28500000D03*
X25110000Y28195200D03*
X25440100Y28145200D03*
X25560000Y28210200D03*
X25640000D03*
X25440000Y28570000D03*
X25310000Y28647700D03*
X25380000Y28650000D03*
X25570000Y28619800D03*
X25500000D03*
X25132700Y28880000D03*
X25380000Y27900000D03*
X24795000Y28820000D03*
X24735000Y29190000D03*
X24910000Y29090000D03*
Y29290000D03*
X24735000Y29365000D03*
X24805000Y28190000D03*
X24910000Y28165200D03*
X24950000Y28350000D03*
X25017300Y28880000D03*
X24740000Y28080000D03*
X25040200Y27930000D03*
X25060000Y28100000D03*
X25775000Y27900000D03*
X25725000Y27975000D03*
X25200000Y28100000D03*
Y28450000D03*
X25590000Y28990000D03*
X25530000D03*
X25470000D03*
X24810000Y28910000D03*
X25015000Y28572700D03*
X24679800Y27875900D03*
X24680400Y27928600D03*
X25000000Y28260000D03*
X25425000Y30925000D03*
X24825000Y30675000D03*
X25250000Y31425000D03*
X25550000Y33500000D03*
X25625000Y35450000D03*
X25075000Y37100000D03*
X25550000Y36825000D03*
X25650000Y35925000D03*
X25025000Y35750000D03*
X24925000Y36250000D03*
X25300000Y36350000D03*
G54D22*
X23918000Y36729000D03*
X25232000D03*
G54D13*
X20640000Y21396000D03*
Y21142000D03*
X20892300Y22160000D03*
Y22414000D03*
Y22668000D03*
Y22922000D03*
X20638300Y22160000D03*
Y22414000D03*
Y22668000D03*
Y22922000D03*
X21563800Y22231300D03*
Y21977300D03*
X20640000Y21650000D03*
X20892300Y23176000D03*
Y23430000D03*
Y23684000D03*
Y23938000D03*
Y24192000D03*
Y24446000D03*
X20638300Y23176000D03*
Y23430000D03*
Y23684000D03*
Y23938000D03*
Y24192000D03*
Y24446000D03*
X21146300Y25462000D03*
X21400300D03*
X21146300Y25716000D03*
X21400300D03*
X21578000Y31198000D03*
X21324000D03*
X21070000D03*
X20816000D03*
Y31452000D03*
X21070000D03*
X21324000D03*
X21578000D03*
Y33738000D03*
X21324000D03*
X21070000D03*
X20816000D03*
Y33992000D03*
X21070000D03*
X21324000D03*
X21578000D03*
X21817800Y22231300D03*
Y21977300D03*
X21654300Y25462000D03*
X21908300D03*
X22162300D03*
X22416300D03*
X22670300D03*
X22924300D03*
X21654300Y25716000D03*
X21908300D03*
X22162300D03*
X22416300D03*
X22670300D03*
X22924300D03*
X23102000Y31452000D03*
Y31198000D03*
X22848000D03*
X22594000D03*
X22340000D03*
X22086000D03*
X21832000D03*
Y31452000D03*
X22086000D03*
X22340000D03*
X22594000D03*
X22848000D03*
X23102000Y33992000D03*
Y33738000D03*
X22848000D03*
X22594000D03*
X22340000D03*
X22086000D03*
X21832000D03*
Y33992000D03*
X22086000D03*
X22340000D03*
X22594000D03*
X22848000D03*
X23178300Y25462000D03*
X23432300D03*
X23686300D03*
X23178300Y25716000D03*
X23432300D03*
X23686300D03*
X23356000Y31452000D03*
X23610000D03*
X23864000D03*
X24118000D03*
X24372000D03*
X24626000Y31198000D03*
X24372000D03*
X24118000D03*
X23864000D03*
X23610000D03*
X24626000Y31452000D03*
X23356000Y31198000D03*
Y33992000D03*
X23610000D03*
X23864000D03*
X24118000D03*
X24372000D03*
X24626000Y33738000D03*
X24372000D03*
X24118000D03*
X23864000D03*
X23610000D03*
X24626000Y33992000D03*
X23356000Y33738000D03*
X25210000Y21396000D03*
Y21142000D03*
X25212300Y22160000D03*
Y22414000D03*
Y22668000D03*
Y22922000D03*
X24958300Y22160000D03*
Y22414000D03*
Y22668000D03*
Y22922000D03*
X25210000Y21650000D03*
X25212300Y23176000D03*
Y23430000D03*
Y23684000D03*
Y23938000D03*
Y24192000D03*
Y24446000D03*
X24958300Y23176000D03*
Y23430000D03*
Y23684000D03*
Y23938000D03*
Y24192000D03*
Y24446000D03*
X24990000Y25462000D03*
Y25716000D03*
Y25970000D03*
X25134000Y31198000D03*
X24880000D03*
Y31452000D03*
X25134000D03*
Y33738000D03*
X24880000D03*
Y33992000D03*
X25134000D03*
G54D14*
X20300000Y25760000D03*
G54D23*
X24675000Y37000000D03*
X24475000D03*
X24925000D03*
G54D15*
G01X20177500Y17600000D02*
X25685000D01*
G03X25855000Y17795000I-14022J183827D01*
G01Y24500000D01*
G03X25745000Y24815000I-506023J0D01*
G02X25635000Y25130000I396023J315000D01*
G02X25745000Y25445000I506023J0D01*
G03X25855000Y25760000I-396023J315000D01*
G01Y29433800D01*
X25868700Y37200000D01*
X20020700D01*
X20003400Y30700000D01*
X20125000D01*
Y30500000D01*
X20375000D01*
Y30425000D01*
X20125000D01*
Y30025000D01*
X20375000D01*
Y29950000D01*
X20125000D01*
Y29775000D01*
X20112500Y29762500D01*
X20000900D01*
X20000000Y29425000D01*
X20005000Y25760000D01*
G03X20115000Y25445000I506023J0D01*
G02X20225000Y25130000I-396023J-315000D01*
G02X20115000Y24815000I-506023J0D01*
G03X20005000Y24500000I396023J-315000D01*
G01Y17795000D01*
G03X20177500Y17600000I205417J7917D01*
G01X24153200Y14886200D02*
Y15076700D01*
X24200600D01*
X24219500Y15067200D01*
X24233700Y15054500D01*
X24245600Y15035400D01*
X24255100Y15013200D01*
X24257400Y14981400D01*
X24255100Y14949700D01*
X24245600Y14927500D01*
X24233700Y14908400D01*
X24219500Y14895700D01*
X24200600Y14886200D01*
X24153200D01*
G01X24336500D02*
X24395800Y15076700D01*
X24455100Y14886200D01*
G01X24433700Y14952900D02*
X24357900D01*
G01X24586300Y15076700D02*
Y14886200D01*
G01X24531800Y15076700D02*
X24640800D01*
G01X24824200Y14886200D02*
X24729400D01*
Y15076700D01*
X24824200D01*
G01X24786300Y14984600D02*
X24729400D01*
G01X24967300Y14879900D02*
X24962600Y14883000D01*
Y14889400D01*
X24967300Y14892500D01*
X24972000Y14889400D01*
Y14883000D01*
X24967300Y14879900D01*
G01Y14965600D02*
X24962600Y14968700D01*
Y14975100D01*
X24967300Y14978300D01*
X24972000Y14975100D01*
Y14968700D01*
X24967300Y14965600D01*
G01X25303300Y15045000D02*
X25317500Y15064000D01*
X25334100Y15073500D01*
X25353000Y15076700D01*
X25376700Y15070400D01*
X25393300Y15054500D01*
X25398100Y15035400D01*
X25395700Y15016400D01*
X25386200Y15000500D01*
X25338800Y14968700D01*
X25317500Y14946500D01*
X25303300Y14914800D01*
X25298500Y14886200D01*
X25398100D01*
G01X25538800Y15076700D02*
X25519800Y15070400D01*
X25505600Y15054500D01*
X25496100Y15035400D01*
X25489000Y15010000D01*
X25486700Y14981400D01*
X25489000Y14952900D01*
X25496100Y14927500D01*
X25505600Y14908400D01*
X25519800Y14892500D01*
X25538800Y14886200D01*
X25557800Y14892500D01*
X25572000Y14908400D01*
X25581500Y14927500D01*
X25588600Y14952900D01*
X25590900Y14981400D01*
X25588600Y15010000D01*
X25581500Y15035400D01*
X25572000Y15054500D01*
X25557800Y15070400D01*
X25538800Y15076700D01*
G01X25729300Y14886200D02*
Y15076700D01*
X25700900Y15038600D01*
G01Y14886200D02*
X25757700D01*
G01X25919800D02*
X25936400Y14889400D01*
X25955300Y14898900D01*
X25967200Y14914800D01*
X25971900Y14937000D01*
X25967200Y14959200D01*
X25953000Y14978300D01*
X25931600Y14987800D01*
X25908000D01*
X25893700Y14994200D01*
X25881900Y15010000D01*
X25877100Y15032200D01*
X25884300Y15054500D01*
X25900800Y15070400D01*
X25919800Y15076700D01*
X25938800Y15070400D01*
X25955300Y15054500D01*
X25962500Y15032200D01*
X25957700Y15010000D01*
X25945900Y14994200D01*
X25931600Y14987800D01*
X25908000D01*
X25886600Y14978300D01*
X25872400Y14959200D01*
X25867700Y14937000D01*
X25872400Y14914800D01*
X25884300Y14898900D01*
X25903200Y14889400D01*
X25919800Y14886200D01*
G01X26079500Y14949700D02*
X26141100D01*
G01X26300800Y14886200D02*
Y15076700D01*
X26272400Y15038600D01*
G01Y14886200D02*
X26329200D01*
G01X26491300Y15076700D02*
X26472300Y15070400D01*
X26458100Y15054500D01*
X26448600Y15035400D01*
X26441500Y15010000D01*
X26439200Y14981400D01*
X26441500Y14952900D01*
X26448600Y14927500D01*
X26458100Y14908400D01*
X26472300Y14892500D01*
X26491300Y14886200D01*
X26510300Y14892500D01*
X26524500Y14908400D01*
X26534000Y14927500D01*
X26541100Y14952900D01*
X26543400Y14981400D01*
X26541100Y15010000D01*
X26534000Y15035400D01*
X26524500Y15054500D01*
X26510300Y15070400D01*
X26491300Y15076700D01*
G01X26651000Y14949700D02*
X26712600D01*
G01X26827300Y15045000D02*
X26841500Y15064000D01*
X26858100Y15073500D01*
X26877000Y15076700D01*
X26900700Y15070400D01*
X26917300Y15054500D01*
X26922100Y15035400D01*
X26919700Y15016400D01*
X26910200Y15000500D01*
X26862800Y14968700D01*
X26841500Y14946500D01*
X26827300Y14914800D01*
X26822500Y14886200D01*
X26922100D01*
G01X27010700Y14914800D02*
X27024900Y14898900D01*
X27041500Y14889400D01*
X27062800Y14886200D01*
X27084100Y14892500D01*
X27100700Y14905200D01*
X27112600Y14927500D01*
X27114900Y14952900D01*
X27110200Y14978300D01*
X27098300Y14994200D01*
X27081800Y15006800D01*
X27065200Y15010000D01*
X27048600Y15006800D01*
X27027300Y14994200D01*
X27034400Y15076700D01*
X27098300D01*
G01X24353700Y15588000D02*
Y15397500D01*
X24448500D01*
G01X24620000D02*
Y15588000D01*
X24532300Y15451500D01*
X24650900D01*
G01X24200300Y16071700D02*
Y15881200D01*
G01X24145800Y16071700D02*
X24254800D01*
G01X24438200Y15881200D02*
X24343400D01*
Y16071700D01*
X24438200D01*
G01X24400300Y15979600D02*
X24343400D01*
G01X24531500Y15881200D02*
X24631100Y16071700D01*
G01X24531500D02*
X24631100Y15881200D01*
G01X24712500D02*
X24771800Y16071700D01*
X24831100Y15881200D01*
G01X24809700Y15947900D02*
X24733900D01*
G01X24912500Y15906600D02*
X24931500Y15890700D01*
X24952800Y15881200D01*
X24971800D01*
X24990700Y15890700D01*
X25005000Y15906600D01*
X25012100Y15928800D01*
X25007300Y15951000D01*
X24995500Y15970100D01*
X24974100Y15982800D01*
X24945700Y15989200D01*
X24929100Y16001800D01*
X24922000Y16024100D01*
X24926800Y16046300D01*
X24938600Y16062200D01*
X24955200Y16071700D01*
X24971800D01*
X24988400Y16065400D01*
X25002600Y16049500D01*
G01X25314900Y16071700D02*
X25371700D01*
G01X25343300D02*
Y15881200D01*
G01X25314900D02*
X25371700D01*
G01X25479300D02*
Y16071700D01*
X25588300Y15881200D01*
Y16071700D01*
G01X25674500Y15906600D02*
X25693500Y15890700D01*
X25714800Y15881200D01*
X25733800D01*
X25752700Y15890700D01*
X25767000Y15906600D01*
X25774100Y15928800D01*
X25769300Y15951000D01*
X25757500Y15970100D01*
X25736100Y15982800D01*
X25707700Y15989200D01*
X25691100Y16001800D01*
X25684000Y16024100D01*
X25688800Y16046300D01*
X25700600Y16062200D01*
X25717200Y16071700D01*
X25733800D01*
X25750400Y16065400D01*
X25764600Y16049500D01*
G01X25914800Y16071700D02*
Y15881200D01*
G01X25860300Y16071700D02*
X25969300D01*
G01X26057900Y15881200D02*
Y16071700D01*
X26117100D01*
X26136100Y16062200D01*
X26148000Y16049500D01*
X26152700Y16024100D01*
X26148000Y15998700D01*
X26133700Y15982800D01*
X26117100Y15973300D01*
X26057900D01*
G01X26117100D02*
X26152700Y15881200D01*
G01X26243700Y16071700D02*
Y15935200D01*
X26253100Y15906600D01*
X26272100Y15887500D01*
X26295800Y15881200D01*
X26319500Y15887500D01*
X26338500Y15906600D01*
X26347900Y15935200D01*
Y16071700D01*
G01X26424700Y15881200D02*
Y16071700D01*
X26486300Y15912900D01*
X26547900Y16071700D01*
Y15881200D01*
G01X26724200D02*
X26629400D01*
Y16071700D01*
X26724200D01*
G01X26686300Y15979600D02*
X26629400D01*
G01X26812800Y15881200D02*
Y16071700D01*
X26921800Y15881200D01*
Y16071700D01*
G01X27057800D02*
Y15881200D01*
G01X27003300Y16071700D02*
X27112300D01*
G01X27198500Y15906600D02*
X27217500Y15890700D01*
X27238800Y15881200D01*
X27257800D01*
X27276700Y15890700D01*
X27291000Y15906600D01*
X27298100Y15928800D01*
X27293300Y15951000D01*
X27281500Y15970100D01*
X27260100Y15982800D01*
X27231700Y15989200D01*
X27215100Y16001800D01*
X27208000Y16024100D01*
X27212800Y16046300D01*
X27224600Y16062200D01*
X27241200Y16071700D01*
X27257800D01*
X27274400Y16065400D01*
X27288600Y16049500D01*
X20307500Y25014600D03*
Y25244600D03*
X22172500Y19832500D03*
X21927100Y29280000D03*
X22157100D03*
X23672500Y19832500D03*
X25550000Y25242900D03*
Y25012900D03*
G54D24*
X24225000Y37000000D03*
G54D25*
G01X21075000Y29100000D02*
Y29074900D01*
X21045900Y29045800D01*
X20940700D01*
X20874900Y28980000D01*
X20836800D01*
X20770000Y28913200D01*
Y28800000D01*
G01X20830000D02*
Y28923700D01*
X20851300Y28945000D01*
X20892000D01*
X20947800Y29000800D01*
X21064600D01*
X21140000Y29076200D01*
Y29100000D01*
G54D16*
G01X20090000Y16222500D02*
Y14722500D01*
X27590000D01*
Y16222500D01*
X20090000D01*
G01X23840000D02*
Y14722500D01*
G01Y15222500D02*
X27590000D01*
G01Y15722500D02*
X23840000D01*
G01X25107600D02*
Y15222500D01*
X20375000Y28855000D03*
X20172000D03*
X20273500Y28093000D03*
G54D26*
G01X20631500Y28320000D02*
X20691000D01*
X20741000Y28270000D01*
X21330000D01*
X21390000Y28330000D01*
X21477700D01*
G01X22772700Y26780000D02*
X22720000D01*
G01X25081800Y26427700D02*
Y26416800D01*
X25005000Y26340000D01*
X24124200D01*
X24053100Y26411100D01*
X24049200D01*
X23980300Y26480000D01*
X22969900D01*
X22772700Y26677200D01*
Y26780000D01*
G01X25000000Y28260000D02*
Y28060000D01*
X24475000Y27535000D01*
Y27285000D01*
X24325000Y27135000D01*
X24128900D01*
G01X23780000Y28950000D02*
X23790000Y28960000D01*
X24760000D01*
X24810000Y28910000D01*
G01X25081800Y26427700D02*
Y27028200D01*
X25080000Y27030000D01*
G01X25125000Y26427700D02*
X25081800D01*
G01X25640000Y26413900D02*
X25566100Y26340000D01*
X25308500D01*
X25220800Y26427700D01*
X25125000D01*
G01X25707700Y27610000D02*
X25662500Y27564800D01*
Y26436400D01*
X25640000Y26413900D01*
G01X25455000Y27575000D02*
X25320000Y27440000D01*
Y26595000D01*
X25495000Y26420000D01*
G01X25015000Y28572700D02*
Y28705000D01*
X24810000Y28910000D01*
G54D17*
X20337000Y28728000D03*
Y28601000D03*
Y28474000D03*
Y28347000D03*
Y28220000D03*
X20210000Y28728000D03*
Y28601000D03*
Y28474000D03*
Y28347000D03*
Y28220000D03*
G54D27*
G01X20640000Y21288300D02*
Y21396000D01*
G01D02*
Y21503700D01*
G01X20532300Y21396000D02*
X20640000D01*
G01D02*
X20747700D01*
G01X20640000Y21542300D02*
Y21650000D01*
G01D02*
Y21757700D01*
G01X20532300Y21650000D02*
X20640000D01*
G01D02*
X20747700D01*
G01X20892300Y24084300D02*
Y24192000D01*
G01D02*
Y24299700D01*
G01X20784600Y24192000D02*
X20892300D01*
G01D02*
X21000000D01*
G01X20300000Y25649800D02*
Y25760000D01*
G01D02*
Y25870200D01*
G01X20189800Y25760000D02*
X20300000D01*
G01D02*
X20410200D01*
G01X20212100Y25672100D02*
X20300000Y25760000D01*
G01D02*
X20387900Y25847900D01*
G01X20212100D02*
X20300000Y25760000D01*
G01D02*
X20387900Y25672100D01*
G01X20249600Y25646400D02*
X20300000Y25760000D01*
G01D02*
X20350400Y25873600D01*
G01X20186400Y25709600D02*
X20300000Y25760000D01*
G01D02*
X20413600Y25810400D01*
G01X20186400D02*
X20300000Y25760000D01*
G01D02*
X20413600Y25709600D01*
G01X20249600Y25873600D02*
X20300000Y25760000D01*
G01D02*
X20350400Y25646400D01*
G01X21146300Y25608300D02*
Y25716000D01*
G01D02*
Y25823700D01*
G01X21038600Y25716000D02*
X21146300D01*
G01D02*
X21254000D01*
G01X21146300Y25354300D02*
Y25462000D01*
G01D02*
Y25569700D01*
G01X21038600Y25462000D02*
X21146300D01*
G01D02*
X21254000D01*
G01X21000000Y24840000D02*
X21160000Y24680000D01*
X22486000D01*
X22525000Y24719000D01*
G01X21075000Y24935000D02*
X21300000Y24710000D01*
X22385000D01*
X22455000Y24780000D01*
G01X21870000Y29025000D02*
Y28780000D01*
X22070000Y28580000D01*
Y28070000D01*
X21940000Y27940000D01*
X21390100D01*
X20845100Y27395000D01*
X20545000D01*
X20450000Y27300000D01*
Y26265000D01*
X20680000Y26035000D01*
X21040000D01*
X21295300Y25779700D01*
Y25631900D01*
X21357200Y25570000D01*
X22270300D01*
X22416300Y25716000D01*
G01X21475000Y26000000D02*
X21145000D01*
G01X20970000Y26090000D02*
Y26500000D01*
G01X20210000Y28601000D02*
X20115000Y28506000D01*
Y27835000D01*
X20180000Y27770000D01*
G01X21973800Y28100000D02*
X21843800Y27970000D01*
X21377600D01*
X20832600Y27425000D01*
X20545000D01*
X20290000Y27680000D01*
Y27919800D01*
X20352000Y27981800D01*
Y28205000D01*
X20337000Y28220000D01*
G01X20590000Y27502600D02*
Y27629800D01*
X20556300Y27663500D01*
Y28438400D01*
X20639600Y28521700D01*
G01X20830000Y27640000D02*
X20882500Y27692500D01*
Y27937500D01*
X20780000Y28040000D01*
Y28043800D01*
G01X20620000Y28085000D02*
Y27890000D01*
X20660000Y27850000D01*
Y27540000D01*
X20710000Y27490000D01*
G01X20525000Y26905000D02*
Y26907500D01*
X20567500Y26950000D01*
X22400000D01*
X22830000Y27380000D01*
X23215000D01*
X24147500Y28312500D01*
Y28420200D01*
X24375000Y28647700D01*
Y28679800D01*
G01X24425000Y28660000D02*
Y28655200D01*
X24177500Y28407700D01*
Y28300000D01*
X23227500Y27350000D01*
X22842500D01*
X22412500Y26920000D01*
X20750000D01*
X20570000Y26740000D01*
G01X24475000Y28679800D02*
Y28582500D01*
X24320000Y28427500D01*
Y28180000D01*
X23685000Y27545000D01*
X23582600D01*
X22927600Y26890000D01*
X20785000D01*
X20592500Y26697500D01*
X20495000D01*
G01X24525100Y28663300D02*
X24525000Y28663200D01*
Y28590000D01*
X24350000Y28415000D01*
Y28167500D01*
X23697500Y27515000D01*
X23595100D01*
X22940100Y26860000D01*
X22547300D01*
X22407300Y26720000D01*
X20700000D01*
X20690000Y26730000D01*
G01X24600000Y28910000D02*
X24535000Y28845000D01*
X24055100D01*
X23925000Y28714900D01*
Y28615200D01*
X23670800Y28361000D01*
Y28359600D01*
X23646000Y28334800D01*
X23644600D01*
X23612300Y28302500D01*
X22847700D01*
X22490200Y27945000D01*
X22445000D01*
X22410000Y27910000D01*
X21450000D01*
X21350000Y27810000D01*
G01X20610000Y28570000D02*
X20460600Y28420600D01*
Y27858100D01*
X20440000Y27837500D01*
Y27670000D01*
X20540000Y27570000D01*
G01X24020200Y28479800D02*
Y28227700D01*
X23202500Y27410000D01*
X22817500D01*
X22647500Y27240000D01*
X20540000D01*
X20520000Y27260000D01*
G01X25719700Y27520000D02*
X25750200Y27550500D01*
Y27769800D01*
X24705000Y28815000D01*
X24167600D01*
X23700800Y28348200D01*
Y28347100D01*
X23658500Y28304800D01*
X23657100D01*
X23624800Y28272500D01*
X23235000D01*
X22610000Y27647500D01*
X21492500D01*
X21410000Y27730000D01*
G01X25305000Y26420000D02*
X25347500Y26377500D01*
X25517500D01*
X25615000Y26475000D01*
Y27862500D01*
X24692500Y28785000D01*
X24180100D01*
X23730800Y28335700D01*
Y28334600D01*
X23671000Y28274800D01*
X23669600D01*
X23652500Y28257700D01*
Y28257400D01*
X23637600Y28242500D01*
X23247500D01*
X22622500Y27617500D01*
X21450100D01*
X21292600Y27775000D01*
G01X25570000Y27360000D02*
Y27860700D01*
X24675700Y28755000D01*
X24192600D01*
X23760800Y28323200D01*
Y28322100D01*
X23651200Y28212500D01*
X23492400D01*
X23417400Y28137500D01*
X23187600D01*
X22637600Y27587500D01*
X21387500D01*
X21280300Y27694700D01*
X21280000D01*
X21250000Y27724700D01*
G01X20163400Y28418100D02*
X20165000D01*
Y28420000D01*
X20210000Y28474000D01*
G01X20250000Y29054800D02*
Y29270000D01*
G01D02*
Y29485200D01*
G01Y29270000D02*
X20465200D01*
G01X20337000Y28728000D02*
X20430600Y28634400D01*
Y27870600D01*
X20379900Y27819900D01*
G01X20337000Y28474000D02*
X20400600Y28410400D01*
Y27935600D01*
X20335000Y27870000D01*
G01X20210000Y28347000D02*
X20145000Y28282000D01*
Y27909700D01*
X20186100Y27868600D01*
G01X20710000Y28100000D02*
X20586300Y28223700D01*
Y28406100D01*
X20650200Y28470000D01*
G01X20945000Y28800000D02*
X20932500Y28787500D01*
Y28787300D01*
X20907700Y28762500D01*
X20907500D01*
X20885000Y28740000D01*
X20710000D01*
X20670000Y28780000D01*
G01X20259800Y28265300D02*
X20210000Y28220000D01*
G01X22416300Y24950000D02*
Y25462000D01*
G01Y24950000D02*
Y24881300D01*
X22350000Y24815000D01*
G01X22924300Y25462000D02*
X23061300Y25325000D01*
X23790000D01*
X23930000Y25465000D01*
G01X22997300Y25135000D02*
X22670300Y25462000D01*
G01X23680000Y25135000D02*
X22997300D01*
G01X22162300Y25082700D02*
X22210000Y25035000D01*
G01X22162300Y25082700D02*
Y25462000D01*
G01X21908300D02*
Y25021900D01*
X21910000Y25020200D01*
Y24980000D01*
G01X23555000Y25965000D02*
X23532500Y25942500D01*
X22620000D01*
X22505000Y25827500D01*
X21802500D01*
G01X23660000Y25915000D02*
X23657500Y25912500D01*
X22632500D01*
X22436000Y25716000D01*
X22416300D01*
G01X24000000Y26050000D02*
X23821000Y25871000D01*
X22701300D01*
X22670300Y25840000D01*
Y25716000D01*
G01X23070000Y25567500D02*
Y25570300D01*
X22924300Y25716000D01*
G01X22730000Y25825000D02*
X23175000D01*
G01X21654300Y25716000D02*
Y25823700D01*
G01X21546600Y25716000D02*
X21654300D01*
G01D02*
X21762000D01*
G01X22373900Y26547500D02*
Y26464000D01*
X22309900Y26400000D01*
X22305000D01*
G01X22092400Y26520100D02*
X22305100D01*
G01X22350000Y26335000D02*
X21920000D01*
X21860000Y26395000D01*
G01X21585000Y27530000D02*
X21662500Y27452500D01*
X22270200D01*
X22375200Y27557500D01*
X22652500D01*
X23202500Y28107500D01*
X23429900D01*
X23434900Y28112500D01*
X23452500D01*
X23522500Y28182500D01*
X23663700D01*
X23790800Y28309600D01*
Y28310700D01*
X24205100Y28725000D01*
X24663200D01*
X25290000Y28098200D01*
Y27680000D01*
G01X25287600Y27590000D02*
X24682600Y26985000D01*
X23107600D01*
X22952600Y26830000D01*
X22559800D01*
X22419800Y26690000D01*
X21662500D01*
X21535000Y26562500D01*
G01X21569900Y27820100D02*
X21619800Y27870000D01*
X21905000D01*
X21925000Y27850000D01*
G01X23672000Y24770000D02*
X23812000Y24630000D01*
X24115000D01*
X24218900Y24733900D01*
Y24980900D01*
X24217500Y24982300D01*
Y25017700D01*
X24218900Y25019100D01*
Y25190000D01*
G01X23825000Y23950000D02*
X25022500Y25147500D01*
X25037700D01*
X25100000Y25209800D01*
Y25225000D01*
G01X23809400Y24952700D02*
X23837900Y24981200D01*
X23913800D01*
X24120000Y24775000D01*
Y24710000D01*
G01X23972000Y25232500D02*
X23725000Y24985500D01*
Y24856000D01*
X23816000Y24765000D01*
G01X24825000Y25475000D02*
X24025000D01*
X23825000Y25275000D01*
X23125000D01*
G01X23178300Y25716000D02*
Y25821700D01*
X23175000Y25825000D01*
G01D02*
X23930000D01*
X24075000Y25970000D01*
Y25975000D01*
G01X23360000Y26925000D02*
X23440000Y26845000D01*
X24495000D01*
X24862300Y26477700D01*
Y26405000D01*
G01X24572300Y27517500D02*
X24582500D01*
X24745000Y27355000D01*
G01X24626000Y31452000D02*
X24750000Y31328000D01*
Y31050000D01*
X25200000Y30600000D01*
Y28450000D01*
G01X23975000Y34225000D02*
Y34135000D01*
X24118000Y33992000D01*
G01X25210000Y21288300D02*
Y21396000D01*
G01D02*
Y21503700D01*
G01X25102300Y21396000D02*
X25210000D01*
G01D02*
X25317700D01*
G01X25210000Y21542300D02*
Y21650000D01*
G01D02*
Y21757700D01*
G01X25102300Y21650000D02*
X25210000D01*
G01D02*
X25317700D01*
G01X25212300Y24338300D02*
Y24446000D01*
G01D02*
Y24553700D01*
G01X25104600Y24446000D02*
X25212300D01*
G01D02*
X25320000D01*
G01X25700000Y26150000D02*
Y27335200D01*
X25739800Y27375000D01*
G01X25200000Y28100000D02*
Y27900000D01*
X24947500Y27647500D01*
G01X25570000Y27360000D02*
Y27345000D01*
G01D02*
Y26950000D01*
G01X25430000Y27381700D02*
X25466700Y27345000D01*
X25570000D01*
G01X25580000Y29054800D02*
Y29270000D01*
G01D02*
Y29485200D01*
G01X25364800Y29270000D02*
X25580000D01*
G01X25725000Y27975000D02*
Y28550000D01*
X25525000Y28750000D01*
X25350000D01*
X25300000Y28800000D01*
Y30625000D01*
X25000000Y30925000D01*
Y31332000D01*
X24880000Y31452000D01*
G54D18*
X20320000Y29830000D03*
Y30620000D03*
G54D28*
G01X25242500Y15477500D02*
X25258800Y15372500D01*
X25277500Y15477500D01*
X25296200Y15372500D01*
X25312500Y15477500D01*
G01X25383200Y15468700D02*
X25376200Y15474000D01*
X25368000Y15477500D01*
X25358700D01*
X25348200Y15472200D01*
X25340000Y15463500D01*
X25334200Y15453000D01*
X25329500Y15435500D01*
X25328300Y15419700D01*
X25330700Y15404000D01*
X25334200Y15393500D01*
X25341200Y15383000D01*
X25349300Y15376000D01*
X25357500Y15372500D01*
X25365700D01*
X25373800Y15376000D01*
X25380800Y15381200D01*
X25386700Y15388200D01*
G01X25413000Y15386500D02*
X25422300Y15377700D01*
X25432800Y15372500D01*
X25442200D01*
X25451500Y15377700D01*
X25458500Y15386500D01*
X25462000Y15398800D01*
X25459700Y15411000D01*
X25453800Y15421500D01*
X25443300Y15428500D01*
X25429300Y15432000D01*
X25421200Y15439000D01*
X25417700Y15451200D01*
X25420000Y15463500D01*
X25425800Y15472200D01*
X25434000Y15477500D01*
X25442200D01*
X25450300Y15474000D01*
X25457300Y15465200D01*
G01X25517500Y15477500D02*
X25508200Y15474000D01*
X25501200Y15465200D01*
X25496500Y15454800D01*
X25493000Y15440700D01*
X25491800Y15425000D01*
X25493000Y15409200D01*
X25496500Y15395200D01*
X25501200Y15384700D01*
X25508200Y15376000D01*
X25517500Y15372500D01*
X25526800Y15376000D01*
X25533800Y15384700D01*
X25538500Y15395200D01*
X25542000Y15409200D01*
X25543200Y15425000D01*
X25542000Y15440700D01*
X25538500Y15454800D01*
X25533800Y15465200D01*
X25526800Y15474000D01*
X25517500Y15477500D01*
G01X25571800Y15393500D02*
X25578800Y15381200D01*
X25588200Y15374200D01*
X25598700Y15372500D01*
X25608000Y15374200D01*
X25617300Y15383000D01*
X25623200Y15393500D01*
X25624300Y15404000D01*
X25622000Y15416200D01*
X25613800Y15425000D01*
X25605700Y15428500D01*
X25595200D01*
G01X25605700D02*
X25612700Y15433700D01*
X25618500Y15442500D01*
X25620800Y15453000D01*
X25618500Y15463500D01*
X25612700Y15472200D01*
X25602200Y15477500D01*
X25591700Y15475800D01*
X25581200Y15468700D01*
G01X25677500Y15372500D02*
X25685700Y15374200D01*
X25695000Y15379500D01*
X25700800Y15388200D01*
X25703200Y15400500D01*
X25700800Y15412700D01*
X25693800Y15423200D01*
X25683300Y15428500D01*
X25671700D01*
X25664700Y15432000D01*
X25658800Y15440700D01*
X25656500Y15453000D01*
X25660000Y15465200D01*
X25668200Y15474000D01*
X25677500Y15477500D01*
X25686800Y15474000D01*
X25695000Y15465200D01*
X25698500Y15453000D01*
X25696200Y15440700D01*
X25690300Y15432000D01*
X25683300Y15428500D01*
X25671700D01*
X25661200Y15423200D01*
X25654200Y15412700D01*
X25651800Y15400500D01*
X25654200Y15388200D01*
X25660000Y15379500D01*
X25669300Y15374200D01*
X25677500Y15372500D01*
G01X25986700Y15375000D02*
Y15480000D01*
X26015800D01*
X26025200Y15474700D01*
X26031000Y15467700D01*
X26033300Y15453700D01*
X26031000Y15439700D01*
X26024000Y15431000D01*
X26015800Y15425700D01*
X25986700D01*
G01X26015800D02*
X26033300Y15375000D01*
G01X26072500Y15422200D02*
X26109800D01*
X26106300Y15434500D01*
X26100500Y15441500D01*
X26092300Y15445000D01*
X26084200Y15443200D01*
X26077200Y15438000D01*
X26072500Y15425700D01*
X26070200Y15415200D01*
Y15404800D01*
X26072500Y15394200D01*
X26078300Y15383700D01*
X26085300Y15376700D01*
X26093500Y15375000D01*
X26101700Y15378500D01*
X26109800Y15389000D01*
G01X26149000Y15445000D02*
X26170000Y15375000D01*
X26191000Y15445000D01*
G01X26250000Y15371500D02*
X26247700Y15373300D01*
Y15376700D01*
X26250000Y15378500D01*
X26252300Y15376700D01*
Y15373300D01*
X26250000Y15371500D01*
G01X26419300Y15431000D02*
X26424000Y15436200D01*
X26427500Y15445000D01*
X26429800Y15457300D01*
X26427500Y15467700D01*
X26422800Y15474700D01*
X26414700Y15480000D01*
X26383200D01*
Y15375000D01*
X26421700D01*
X26429800Y15382000D01*
X26434500Y15392500D01*
X26436800Y15404800D01*
X26434500Y15417000D01*
X26427500Y15427500D01*
X26419300Y15431000D01*
X26383200D01*
G01X25239200Y15667500D02*
Y15562500D01*
X25285800D01*
G01X25313300D02*
X25342500Y15667500D01*
X25371700Y15562500D01*
G01X25361200Y15599200D02*
X25323800D01*
G01X25396800Y15667500D02*
Y15592300D01*
X25401500Y15576500D01*
X25410800Y15566000D01*
X25422500Y15562500D01*
X25434200Y15566000D01*
X25443500Y15576500D01*
X25448200Y15592300D01*
Y15667500D01*
G01X25475700Y15562500D02*
Y15667500D01*
X25529300Y15562500D01*
Y15667500D01*
G01X25608200Y15658700D02*
X25601200Y15664000D01*
X25593000Y15667500D01*
X25583700D01*
X25573200Y15662200D01*
X25565000Y15653500D01*
X25559200Y15643000D01*
X25554500Y15625500D01*
X25553300Y15609700D01*
X25555700Y15594000D01*
X25559200Y15583500D01*
X25566200Y15573000D01*
X25574300Y15566000D01*
X25582500Y15562500D01*
X25590700D01*
X25598800Y15566000D01*
X25605800Y15571200D01*
X25611700Y15578200D01*
G01X25638000Y15562500D02*
Y15667500D01*
G01X25687000D02*
Y15562500D01*
G01Y15615000D02*
X25638000D01*
G01X25718000Y15562500D02*
X25767000Y15667500D01*
G01X25718000D02*
X25767000Y15562500D01*
G01X25799200Y15667500D02*
Y15562500D01*
X25845800D01*
G01X25887300Y15597500D02*
X25917700D01*
G01X26008200Y15658700D02*
X26001200Y15664000D01*
X25993000Y15667500D01*
X25983700D01*
X25973200Y15662200D01*
X25965000Y15653500D01*
X25959200Y15643000D01*
X25954500Y15625500D01*
X25953300Y15609700D01*
X25955700Y15594000D01*
X25959200Y15583500D01*
X25966200Y15573000D01*
X25974300Y15566000D01*
X25982500Y15562500D01*
X25990700D01*
X25998800Y15566000D01*
X26005800Y15571200D01*
X26011700Y15578200D01*
G01X26088200Y15658700D02*
X26081200Y15664000D01*
X26073000Y15667500D01*
X26063700D01*
X26053200Y15662200D01*
X26045000Y15653500D01*
X26039200Y15643000D01*
X26034500Y15625500D01*
X26033300Y15609700D01*
X26035700Y15594000D01*
X26039200Y15583500D01*
X26046200Y15573000D01*
X26054300Y15566000D01*
X26062500Y15562500D01*
X26070700D01*
X26078800Y15566000D01*
X26085800Y15571200D01*
X26091700Y15578200D01*
G01X26142500Y15562500D02*
Y15667500D01*
X26128500Y15646500D01*
G01Y15562500D02*
X26156500D01*
G01X26196800Y15583500D02*
X26203800Y15571200D01*
X26213200Y15564200D01*
X26223700Y15562500D01*
X26233000Y15564200D01*
X26242300Y15573000D01*
X26248200Y15583500D01*
X26249300Y15594000D01*
X26247000Y15606200D01*
X26238800Y15615000D01*
X26230700Y15618500D01*
X26220200D01*
G01X26230700D02*
X26237700Y15623700D01*
X26243500Y15632500D01*
X26245800Y15643000D01*
X26243500Y15653500D01*
X26237700Y15662200D01*
X26227200Y15667500D01*
X26216700Y15665800D01*
X26206200Y15658700D01*
G01X26276800Y15578200D02*
X26283800Y15569500D01*
X26292000Y15564200D01*
X26302500Y15562500D01*
X26313000Y15566000D01*
X26321200Y15573000D01*
X26327000Y15585200D01*
X26328200Y15599200D01*
X26325800Y15613200D01*
X26320000Y15622000D01*
X26311800Y15629000D01*
X26303700Y15630700D01*
X26295500Y15629000D01*
X26285000Y15622000D01*
X26288500Y15667500D01*
X26320000D01*
G01X26360300Y15650000D02*
X26367300Y15660500D01*
X26375500Y15665800D01*
X26384800Y15667500D01*
X26396500Y15664000D01*
X26404700Y15655200D01*
X26407000Y15644800D01*
X26405800Y15634200D01*
X26401200Y15625500D01*
X26377800Y15608000D01*
X26367300Y15595700D01*
X26360300Y15578200D01*
X26358000Y15562500D01*
X26407000D01*
G01X26439200D02*
Y15667500D01*
X26468300D01*
X26477700Y15662200D01*
X26483500Y15655200D01*
X26485800Y15641200D01*
X26483500Y15627200D01*
X26476500Y15618500D01*
X26468300Y15613200D01*
X26439200D01*
G01X26468300D02*
X26485800Y15562500D01*
G01X26542500D02*
Y15667500D01*
X26528500Y15646500D01*
G01Y15562500D02*
X26556500D01*
G54D19*
X20725000Y37070000D03*
M02*
